<svg width="406" height="141" viewBox="0 0 406 141" fill="none" xmlns="http://www.w3.org/2000/svg">
<rect x="0.5" y="0.5" width="405" height="140" rx="7.5" fill="white"/>
<rect x="0.5" y="0.5" width="405" height="140" rx="7.5" stroke="#E5E7EB"/>
<path d="M21.8686 18.3828H19.6911C19.6513 18.1011 19.5701 17.8509 19.4474 17.6321C19.3248 17.41 19.1674 17.2211 18.9751 17.0653C18.7829 16.9096 18.5608 16.7902 18.3089 16.7074C18.0604 16.6245 17.7902 16.5831 17.4986 16.5831C16.9716 16.5831 16.5125 16.714 16.1214 16.9759C15.7304 17.2344 15.4271 17.6122 15.2116 18.1094C14.9962 18.6032 14.8885 19.2031 14.8885 19.9091C14.8885 20.6349 14.9962 21.2448 15.2116 21.7386C15.4304 22.2325 15.7353 22.6054 16.1264 22.8572C16.5175 23.1091 16.9699 23.2351 17.4837 23.2351C17.772 23.2351 18.0388 23.197 18.2841 23.1207C18.5327 23.0445 18.7531 22.9335 18.9453 22.7876C19.1375 22.6385 19.2966 22.4579 19.4226 22.2457C19.5518 22.0336 19.6413 21.7917 19.6911 21.5199L21.8686 21.5298C21.8123 21.9972 21.6714 22.4479 21.446 22.8821C21.224 23.313 20.924 23.6991 20.5462 24.0405C20.1716 24.3786 19.7242 24.647 19.2038 24.8459C18.6868 25.0414 18.1018 25.1392 17.4489 25.1392C16.5407 25.1392 15.7287 24.9337 15.0128 24.5227C14.3002 24.1117 13.7367 23.5168 13.3224 22.7379C12.9115 21.959 12.706 21.0161 12.706 19.9091C12.706 18.7988 12.9148 17.8542 13.3324 17.0753C13.75 16.2964 14.3168 15.7031 15.0327 15.2955C15.7486 14.8845 16.554 14.679 17.4489 14.679C18.0388 14.679 18.5857 14.7618 19.0895 14.9276C19.5966 15.0933 20.0457 15.3352 20.4368 15.6534C20.8279 15.9683 21.1461 16.3544 21.3913 16.8118C21.6399 17.2692 21.799 17.7929 21.8686 18.3828ZM26.8228 25.1491C26.0505 25.1491 25.3827 24.9851 24.8192 24.657C24.2591 24.3255 23.8266 23.8648 23.5217 23.2749C23.2167 22.6816 23.0643 21.9938 23.0643 21.2116C23.0643 20.4228 23.2167 19.7334 23.5217 19.1435C23.8266 18.5502 24.2591 18.0895 24.8192 17.7614C25.3827 17.4299 26.0505 17.2642 26.8228 17.2642C27.5951 17.2642 28.2612 17.4299 28.8214 17.7614C29.3848 18.0895 29.819 18.5502 30.1239 19.1435C30.4289 19.7334 30.5813 20.4228 30.5813 21.2116C30.5813 21.9938 30.4289 22.6816 30.1239 23.2749C29.819 23.8648 29.3848 24.3255 28.8214 24.657C28.2612 24.9851 27.5951 25.1491 26.8228 25.1491ZM26.8327 23.5085C27.1841 23.5085 27.4774 23.4091 27.7127 23.2102C27.948 23.008 28.1254 22.733 28.2447 22.3849C28.3673 22.0369 28.4286 21.6409 28.4286 21.1967C28.4286 20.7526 28.3673 20.3565 28.2447 20.0085C28.1254 19.6605 27.948 19.3854 27.7127 19.1832C27.4774 18.9811 27.1841 18.88 26.8327 18.88C26.4781 18.88 26.1798 18.9811 25.9379 19.1832C25.6992 19.3854 25.5186 19.6605 25.396 20.0085C25.2766 20.3565 25.217 20.7526 25.217 21.1967C25.217 21.6409 25.2766 22.0369 25.396 22.3849C25.5186 22.733 25.6992 23.008 25.9379 23.2102C26.1798 23.4091 26.4781 23.5085 26.8327 23.5085ZM34.0763 20.5852V25H31.9585V17.3636H33.9769V18.7109H34.0664C34.2354 18.2668 34.5188 17.9155 34.9165 17.657C35.3143 17.3951 35.7965 17.2642 36.3633 17.2642C36.8936 17.2642 37.3559 17.3802 37.7504 17.6122C38.1448 17.8442 38.4513 18.1757 38.6701 18.6065C38.8888 19.0341 38.9982 19.5445 38.9982 20.1378V25H36.8803V20.5156C36.8836 20.0483 36.7643 19.6837 36.5224 19.4219C36.2804 19.1567 35.9473 19.0241 35.5231 19.0241C35.238 19.0241 34.9862 19.0855 34.7674 19.2081C34.552 19.3307 34.3829 19.5097 34.2603 19.745C34.141 19.977 34.0797 20.2571 34.0763 20.5852ZM44.7292 17.3636V18.9545H40.1305V17.3636H44.7292ZM41.1745 15.5341H43.2924V22.6534C43.2924 22.849 43.3223 23.0014 43.3819 23.1108C43.4416 23.2169 43.5244 23.2914 43.6305 23.3345C43.7399 23.3776 43.8658 23.3991 44.0083 23.3991C44.1078 23.3991 44.2072 23.3909 44.3066 23.3743C44.4061 23.3544 44.4823 23.3395 44.5353 23.3295L44.8684 24.9055C44.7624 24.9387 44.6132 24.9768 44.421 25.0199C44.2288 25.0663 43.9951 25.0945 43.72 25.1044C43.2096 25.1243 42.7621 25.0563 42.3777 24.9006C41.9965 24.7448 41.6999 24.5028 41.4877 24.1747C41.2756 23.8466 41.1712 23.4323 41.1745 22.9318V15.5341ZM48.2864 25.1442C47.7992 25.1442 47.365 25.0597 46.9838 24.8906C46.6027 24.7183 46.3011 24.4647 46.079 24.13C45.8603 23.7919 45.7509 23.371 45.7509 22.8672C45.7509 22.4429 45.8288 22.0866 45.9846 21.7983C46.1403 21.5099 46.3525 21.2779 46.6209 21.1023C46.8894 20.9266 47.1943 20.794 47.5357 20.7045C47.8804 20.6151 48.2417 20.5521 48.6195 20.5156C49.0636 20.4692 49.4216 20.4261 49.6934 20.3864C49.9651 20.3433 50.1623 20.2803 50.285 20.1974C50.4076 20.1146 50.4689 19.992 50.4689 19.8295V19.7997C50.4689 19.4848 50.3695 19.2412 50.1706 19.0689C49.9751 18.8965 49.6967 18.8104 49.3354 18.8104C48.9542 18.8104 48.651 18.8949 48.4256 19.0639C48.2002 19.2296 48.0511 19.4384 47.9782 19.6903L46.0194 19.5312C46.1188 19.0672 46.3143 18.6662 46.606 18.3281C46.8977 17.9867 47.2739 17.7249 47.7346 17.5426C48.1986 17.357 48.7355 17.2642 49.3453 17.2642C49.7696 17.2642 50.1756 17.3139 50.5634 17.4134C50.9545 17.5128 51.3008 17.6669 51.6025 17.8757C51.9074 18.0845 52.1477 18.353 52.3233 18.6811C52.499 19.0059 52.5868 19.3954 52.5868 19.8494V25H50.5783V23.9411H50.5186C50.396 24.1797 50.2319 24.3902 50.0265 24.5724C49.821 24.7514 49.574 24.8923 49.2857 24.995C48.9973 25.0945 48.6642 25.1442 48.2864 25.1442ZM48.8929 23.6825C49.2045 23.6825 49.4796 23.6212 49.7182 23.4986C49.9569 23.3726 50.1441 23.2036 50.28 22.9915C50.4159 22.7794 50.4838 22.5391 50.4838 22.2706V21.4602C50.4176 21.5033 50.3264 21.5431 50.2104 21.5795C50.0977 21.6127 49.9701 21.6442 49.8276 21.674C49.6851 21.7005 49.5426 21.7254 49.4 21.7486C49.2575 21.7685 49.1283 21.7867 49.0123 21.8033C48.7637 21.8397 48.5466 21.8977 48.361 21.9773C48.1754 22.0568 48.0312 22.1645 47.9284 22.3004C47.8257 22.433 47.7743 22.5987 47.7743 22.7976C47.7743 23.0859 47.8787 23.3063 48.0875 23.4588C48.2997 23.608 48.5681 23.6825 48.8929 23.6825ZM57.6802 25.1491C56.898 25.1491 56.2252 24.9834 55.6618 24.652C55.1016 24.3172 54.6708 23.8532 54.3691 23.2599C54.0708 22.6667 53.9217 21.9839 53.9217 21.2116C53.9217 20.4295 54.0725 19.7434 54.3741 19.1534C54.679 18.5601 55.1116 18.0978 55.6717 17.7663C56.2318 17.4316 56.898 17.2642 57.6703 17.2642C58.3365 17.2642 58.9198 17.3852 59.4203 17.6271C59.9208 17.8691 60.3168 18.2088 60.6085 18.6463C60.9002 19.0838 61.0609 19.5975 61.0907 20.1875H59.0922C59.0358 19.8063 58.8867 19.4998 58.6447 19.2678C58.4061 19.0324 58.0929 18.9148 57.7051 18.9148C57.377 18.9148 57.0903 19.0043 56.845 19.1832C56.603 19.3589 56.4141 19.6158 56.2782 19.9538C56.1423 20.2919 56.0744 20.7012 56.0744 21.1818C56.0744 21.669 56.1407 22.0833 56.2733 22.4247C56.4092 22.7661 56.5997 23.0263 56.845 23.2053C57.0903 23.3842 57.377 23.4737 57.7051 23.4737C57.947 23.4737 58.1641 23.424 58.3564 23.3246C58.5519 23.2251 58.7127 23.081 58.8386 22.892C58.9679 22.6998 59.0524 22.4695 59.0922 22.201H61.0907C61.0576 22.7843 60.8985 23.2981 60.6135 23.7422C60.3317 24.183 59.9423 24.5277 59.4451 24.7763C58.948 25.0249 58.3597 25.1491 57.6802 25.1491ZM66.5085 17.3636V18.9545H61.9098V17.3636H66.5085ZM62.9538 15.5341H65.0717V22.6534C65.0717 22.849 65.1016 23.0014 65.1612 23.1108C65.2209 23.2169 65.3037 23.2914 65.4098 23.3345C65.5192 23.3776 65.6451 23.3991 65.7876 23.3991C65.8871 23.3991 65.9865 23.3909 66.0859 23.3743C66.1854 23.3544 66.2616 23.3395 66.3146 23.3295L66.6477 24.9055C66.5417 24.9387 66.3925 24.9768 66.2003 25.0199C66.008 25.0663 65.7744 25.0945 65.4993 25.1044C64.9889 25.1243 64.5414 25.0563 64.157 24.9006C63.7758 24.7448 63.4792 24.5028 63.267 24.1747C63.0549 23.8466 62.9505 23.4323 62.9538 22.9318V15.5341ZM74.2505 25.1491C73.5479 25.1491 72.9413 25.0232 72.4309 24.7713C71.9205 24.5194 71.5278 24.178 71.2527 23.7472C70.9809 23.313 70.845 22.8291 70.845 22.2955C70.845 21.8977 70.9245 21.5447 71.0836 21.2365C71.2427 20.9283 71.4648 20.6449 71.7498 20.3864C72.0349 20.1245 72.3663 19.8643 72.7441 19.6058L74.7179 18.3082C74.9731 18.1458 75.1603 17.9751 75.2797 17.7962C75.399 17.6139 75.4586 17.4167 75.4586 17.2045C75.4586 17.0024 75.3774 16.8151 75.215 16.6428C75.0526 16.4704 74.8223 16.3859 74.524 16.3892C74.3251 16.3892 74.1528 16.4339 74.0069 16.5234C73.8611 16.6096 73.7467 16.724 73.6639 16.8665C73.5843 17.0057 73.5446 17.1615 73.5446 17.3338C73.5446 17.5459 73.6042 17.7614 73.7235 17.9801C73.8429 18.1989 74.002 18.4309 74.2008 18.6761C74.3997 18.9181 74.6168 19.1799 74.8521 19.4616L79.6795 25H77.4721L73.4451 20.5156C73.18 20.214 72.9148 19.8991 72.6497 19.571C72.3878 19.2396 72.1691 18.8883 71.9934 18.517C71.8178 18.1425 71.7299 17.7365 71.7299 17.299C71.7299 16.8052 71.8443 16.361 72.073 15.9666C72.305 15.5722 72.6298 15.2607 73.0474 15.032C73.465 14.8 73.9522 14.6839 74.5091 14.6839C75.0526 14.6839 75.5216 14.795 75.916 15.017C76.3137 15.2358 76.6187 15.5275 76.8308 15.892C77.0462 16.2533 77.1539 16.651 77.1539 17.0852C77.1539 17.5658 77.0346 18.0017 76.796 18.3928C76.5607 18.7805 76.2292 19.1286 75.8017 19.4368L73.7235 20.9332C73.4418 21.1387 73.233 21.3492 73.0971 21.5646C72.9645 21.7768 72.8983 21.9806 72.8983 22.1761C72.8983 22.4181 72.9579 22.6352 73.0772 22.8274C73.1966 23.0196 73.3656 23.1721 73.5843 23.2848C73.8031 23.3942 74.06 23.4489 74.3549 23.4489C74.7129 23.4489 75.0659 23.3677 75.4139 23.2053C75.7652 23.0395 76.0834 22.8059 76.3684 22.5043C76.6568 22.1993 76.8871 21.8381 77.0595 21.4205C77.2318 21.0028 77.318 20.5405 77.318 20.0334H79.073C79.073 20.6565 79.005 21.2183 78.8691 21.7188C78.7333 22.2159 78.5443 22.6501 78.3024 23.0213C78.0604 23.3892 77.7837 23.6908 77.4721 23.9261C77.3727 23.9891 77.2766 24.0488 77.1838 24.1051C77.091 24.1615 76.9949 24.2211 76.8954 24.2841C76.5176 24.589 76.095 24.8094 75.6277 24.9453C75.1636 25.0812 74.7046 25.1491 74.2505 25.1491ZM89.3654 17.7464C89.3256 17.3454 89.1549 17.0339 88.8533 16.8118C88.5517 16.5897 88.1424 16.4787 87.6254 16.4787C87.274 16.4787 86.9774 16.5284 86.7354 16.6278C86.4935 16.724 86.3079 16.8582 86.1786 17.0305C86.0527 17.2029 85.9897 17.3984 85.9897 17.6172C85.9831 17.7995 86.0212 17.9586 86.104 18.0945C86.1902 18.2304 86.3079 18.348 86.457 18.4474C86.6062 18.5436 86.7785 18.6281 86.9741 18.701C87.1696 18.7706 87.3784 18.8303 87.6005 18.88L88.5153 19.0987C88.9594 19.1982 89.3671 19.3307 89.7383 19.4964C90.1095 19.6622 90.431 19.866 90.7028 20.108C90.9746 20.3499 91.185 20.6349 91.3342 20.9631C91.4866 21.2912 91.5645 21.6674 91.5678 22.0916C91.5645 22.7147 91.4054 23.255 91.0906 23.7124C90.779 24.1664 90.3282 24.5194 89.7383 24.7713C89.1516 25.0199 88.444 25.1442 87.6154 25.1442C86.7934 25.1442 86.0775 25.0182 85.4677 24.7663C84.8612 24.5144 84.3872 24.1416 84.0458 23.6477C83.7077 23.1506 83.5304 22.5357 83.5138 21.8033H85.5969C85.6201 22.1446 85.7179 22.4297 85.8903 22.6584C86.0659 22.8838 86.2996 23.0545 86.5913 23.1705C86.8862 23.2831 87.2193 23.3395 87.5906 23.3395C87.9551 23.3395 88.2717 23.2865 88.5401 23.1804C88.8119 23.0743 89.0224 22.9268 89.1715 22.7379C89.3207 22.549 89.3952 22.3319 89.3952 22.0866C89.3952 21.858 89.3273 21.6657 89.1914 21.5099C89.0588 21.3542 88.8633 21.2216 88.6048 21.1122C88.3496 21.0028 88.0363 20.9034 87.6651 20.8139L86.5565 20.5355C85.698 20.3267 85.0202 20.0002 84.5231 19.5561C84.0259 19.112 83.779 18.5137 83.7823 17.7614C83.779 17.1449 83.9431 16.6063 84.2745 16.1456C84.6093 15.6849 85.0683 15.3253 85.6516 15.0668C86.235 14.8082 86.8978 14.679 87.6403 14.679C88.396 14.679 89.0555 14.8082 89.619 15.0668C90.1857 15.3253 90.6265 15.6849 90.9414 16.1456C91.2563 16.6063 91.4187 17.1399 91.4286 17.7464H89.3654ZM96.4263 25.1491C95.6541 25.1491 94.9862 24.9851 94.4228 24.657C93.8626 24.3255 93.4301 23.8648 93.1252 23.2749C92.8203 22.6816 92.6678 21.9938 92.6678 21.2116C92.6678 20.4228 92.8203 19.7334 93.1252 19.1435C93.4301 18.5502 93.8626 18.0895 94.4228 17.7614C94.9862 17.4299 95.6541 17.2642 96.4263 17.2642C97.1986 17.2642 97.8648 17.4299 98.4249 17.7614C98.9883 18.0895 99.4225 18.5502 99.7275 19.1435C100.032 19.7334 100.185 20.4228 100.185 21.2116C100.185 21.9938 100.032 22.6816 99.7275 23.2749C99.4225 23.8648 98.9883 24.3255 98.4249 24.657C97.8648 24.9851 97.1986 25.1491 96.4263 25.1491ZM96.4363 23.5085C96.7876 23.5085 97.0809 23.4091 97.3162 23.2102C97.5516 23.008 97.7289 22.733 97.8482 22.3849C97.9708 22.0369 98.0321 21.6409 98.0321 21.1967C98.0321 20.7526 97.9708 20.3565 97.8482 20.0085C97.7289 19.6605 97.5516 19.3854 97.3162 19.1832C97.0809 18.9811 96.7876 18.88 96.4363 18.88C96.0816 18.88 95.7833 18.9811 95.5414 19.1832C95.3027 19.3854 95.1221 19.6605 94.9995 20.0085C94.8801 20.3565 94.8205 20.7526 94.8205 21.1967C94.8205 21.6409 94.8801 22.0369 94.9995 22.3849C95.1221 22.733 95.3027 23.008 95.5414 23.2102C95.7833 23.4091 96.0816 23.5085 96.4363 23.5085ZM105.012 25.1491C104.23 25.1491 103.557 24.9834 102.994 24.652C102.434 24.3172 102.003 23.8532 101.701 23.2599C101.403 22.6667 101.254 21.9839 101.254 21.2116C101.254 20.4295 101.405 19.7434 101.706 19.1534C102.011 18.5601 102.444 18.0978 103.004 17.7663C103.564 17.4316 104.23 17.2642 105.002 17.2642C105.669 17.2642 106.252 17.3852 106.752 17.6271C107.253 17.8691 107.649 18.2088 107.941 18.6463C108.232 19.0838 108.393 19.5975 108.423 20.1875H106.424C106.368 19.8063 106.219 19.4998 105.977 19.2678C105.738 19.0324 105.425 18.9148 105.037 18.9148C104.709 18.9148 104.422 19.0043 104.177 19.1832C103.935 19.3589 103.746 19.6158 103.61 19.9538C103.474 20.2919 103.406 20.7012 103.406 21.1818C103.406 21.669 103.473 22.0833 103.605 22.4247C103.741 22.7661 103.932 23.0263 104.177 23.2053C104.422 23.3842 104.709 23.4737 105.037 23.4737C105.279 23.4737 105.496 23.424 105.688 23.3246C105.884 23.2251 106.045 23.081 106.171 22.892C106.3 22.6998 106.384 22.4695 106.424 22.201H108.423C108.39 22.7843 108.231 23.2981 107.945 23.7422C107.664 24.183 107.274 24.5277 106.777 24.7763C106.28 25.0249 105.692 25.1491 105.012 25.1491ZM109.779 25V17.3636H111.897V25H109.779ZM110.843 16.3793C110.528 16.3793 110.258 16.2749 110.032 16.0661C109.81 15.8539 109.699 15.6004 109.699 15.3054C109.699 15.0137 109.81 14.7635 110.032 14.5547C110.258 14.3426 110.528 14.2365 110.843 14.2365C111.158 14.2365 111.426 14.3426 111.648 14.5547C111.873 14.7635 111.986 15.0137 111.986 15.3054C111.986 15.6004 111.873 15.8539 111.648 16.0661C111.426 16.2749 111.158 16.3793 110.843 16.3793ZM115.771 25.1442C115.284 25.1442 114.849 25.0597 114.468 24.8906C114.087 24.7183 113.785 24.4647 113.563 24.13C113.345 23.7919 113.235 23.371 113.235 22.8672C113.235 22.4429 113.313 22.0866 113.469 21.7983C113.625 21.5099 113.837 21.2779 114.105 21.1023C114.374 20.9266 114.679 20.794 115.02 20.7045C115.365 20.6151 115.726 20.5521 116.104 20.5156C116.548 20.4692 116.906 20.4261 117.178 20.3864C117.45 20.3433 117.647 20.2803 117.769 20.1974C117.892 20.1146 117.953 19.992 117.953 19.8295V19.7997C117.953 19.4848 117.854 19.2412 117.655 19.0689C117.459 18.8965 117.181 18.8104 116.82 18.8104C116.439 18.8104 116.135 18.8949 115.91 19.0639C115.685 19.2296 115.535 19.4384 115.463 19.6903L113.504 19.5312C113.603 19.0672 113.799 18.6662 114.09 18.3281C114.382 17.9867 114.758 17.7249 115.219 17.5426C115.683 17.357 116.22 17.2642 116.83 17.2642C117.254 17.2642 117.66 17.3139 118.048 17.4134C118.439 17.5128 118.785 17.6669 119.087 17.8757C119.392 18.0845 119.632 18.353 119.808 18.6811C119.983 19.0059 120.071 19.3954 120.071 19.8494V25H118.063V23.9411H118.003C117.88 24.1797 117.716 24.3902 117.511 24.5724C117.305 24.7514 117.058 24.8923 116.77 24.995C116.482 25.0945 116.149 25.1442 115.771 25.1442ZM116.377 23.6825C116.689 23.6825 116.964 23.6212 117.203 23.4986C117.441 23.3726 117.628 23.2036 117.764 22.9915C117.9 22.7794 117.968 22.5391 117.968 22.2706V21.4602C117.902 21.5033 117.811 21.5431 117.695 21.5795C117.582 21.6127 117.454 21.6442 117.312 21.674C117.169 21.7005 117.027 21.7254 116.884 21.7486C116.742 21.7685 116.613 21.7867 116.497 21.8033C116.248 21.8397 116.031 21.8977 115.845 21.9773C115.66 22.0568 115.516 22.1645 115.413 22.3004C115.31 22.433 115.259 22.5987 115.259 22.7976C115.259 23.0859 115.363 23.3063 115.572 23.4588C115.784 23.608 116.052 23.6825 116.377 23.6825ZM123.832 14.8182V25H121.714V14.8182H123.832ZM128.809 25V14.8182H130.961V23.2251H135.327V25H128.809ZM136.712 25V17.3636H138.83V25H136.712ZM137.776 16.3793C137.461 16.3793 137.191 16.2749 136.966 16.0661C136.744 15.8539 136.633 15.6004 136.633 15.3054C136.633 15.0137 136.744 14.7635 136.966 14.5547C137.191 14.3426 137.461 14.2365 137.776 14.2365C138.091 14.2365 138.36 14.3426 138.582 14.5547C138.807 14.7635 138.92 15.0137 138.92 15.3054C138.92 15.6004 138.807 15.8539 138.582 16.0661C138.36 16.2749 138.091 16.3793 137.776 16.3793ZM142.645 20.5852V25H140.527V17.3636H142.545V18.7109H142.635C142.804 18.2668 143.087 17.9155 143.485 17.657C143.883 17.3951 144.365 17.2642 144.932 17.2642C145.462 17.2642 145.924 17.3802 146.319 17.6122C146.713 17.8442 147.02 18.1757 147.238 18.6065C147.457 19.0341 147.567 19.5445 147.567 20.1378V25H145.449V20.5156C145.452 20.0483 145.333 19.6837 145.091 19.4219C144.849 19.1567 144.516 19.0241 144.091 19.0241C143.806 19.0241 143.555 19.0855 143.336 19.2081C143.12 19.3307 142.951 19.5097 142.829 19.745C142.709 19.977 142.648 20.2571 142.645 20.5852ZM151.155 22.8026L151.16 20.2621H151.468L153.914 17.3636H156.345L153.059 21.2017H152.557L151.155 22.8026ZM149.236 25V14.8182H151.354V25H149.236ZM154.009 25L151.761 21.674L153.173 20.1776L156.489 25H154.009ZM163.738 19.5412L161.799 19.6605C161.766 19.4948 161.695 19.3456 161.585 19.2131C161.476 19.0772 161.332 18.9695 161.153 18.8899C160.977 18.8071 160.767 18.7656 160.521 18.7656C160.193 18.7656 159.916 18.8352 159.691 18.9744C159.466 19.1103 159.353 19.2926 159.353 19.5213C159.353 19.7036 159.426 19.8577 159.572 19.9837C159.718 20.1096 159.968 20.2107 160.322 20.2869L161.705 20.5653C162.447 20.7178 163 20.9631 163.365 21.3011C163.73 21.6392 163.912 22.0833 163.912 22.6335C163.912 23.134 163.764 23.5732 163.469 23.951C163.178 24.3288 162.777 24.6238 162.266 24.8359C161.759 25.0447 161.174 25.1491 160.511 25.1491C159.5 25.1491 158.695 24.9387 158.095 24.5178C157.499 24.0935 157.149 23.5168 157.046 22.7876L159.129 22.6783C159.192 22.9865 159.345 23.2218 159.587 23.3842C159.829 23.5433 160.138 23.6229 160.516 23.6229C160.888 23.6229 161.186 23.5516 161.411 23.4091C161.64 23.2633 161.756 23.076 161.759 22.8473C161.756 22.6551 161.675 22.4976 161.516 22.375C161.357 22.2491 161.111 22.1529 160.78 22.0866L159.457 21.8232C158.712 21.674 158.156 21.4155 157.792 21.0476C157.431 20.6797 157.25 20.2107 157.25 19.6406C157.25 19.1501 157.383 18.7275 157.648 18.3729C157.916 18.0182 158.292 17.7448 158.776 17.5526C159.263 17.3603 159.834 17.2642 160.487 17.2642C161.451 17.2642 162.21 17.468 162.763 17.8757C163.32 18.2834 163.645 18.8385 163.738 19.5412Z" fill="#696969"/>
<rect y="40" width="406" height="1" fill="#E5E7EB"/>
<path d="M13.056 64V55.252H19.188V56.38H14.364V59.008H18.6V60.064H14.364V62.86H19.2V64H13.056ZM20.8607 64V55.252H22.9007L25.3007 61.948H25.3487L27.7487 55.252H29.7767V64H28.5047V59.908L28.5407 56.632H28.4567L25.8767 64H24.7607L22.2047 56.632H22.1207L22.1447 59.92V64H20.8607ZM30.8798 64L33.9878 55.252H35.8238L38.9318 64H37.5638L36.8438 61.96H32.9678L32.2478 64H30.8798ZM33.2798 60.94H36.5198L35.5598 58.24L34.9478 56.452H34.8758L34.2638 58.24L33.2798 60.94ZM40.0091 64V55.252H41.3171V64H40.0091ZM43.4427 64V55.252H44.7507V62.824H48.9267V64H43.4427ZM51.7508 64L54.8588 55.252H56.6948L59.8028 64H58.4348L57.7148 61.96H53.8388L53.1188 64H51.7508ZM54.1508 60.94H57.3908L56.4308 58.24L55.8188 56.452H55.7468L55.1348 58.24L54.1508 60.94ZM60.8802 64V55.252H64.4202C66.9402 55.252 68.3802 57.004 68.3802 59.632C68.3802 62.26 66.9402 64 64.4202 64H60.8802ZM62.1882 62.872H64.2282C65.9202 62.872 67.0362 61.828 67.0362 59.608C67.0362 57.388 65.9082 56.38 64.2282 56.38H62.1882V62.872ZM69.9037 64V55.252H73.4437C75.9637 55.252 77.4037 57.004 77.4037 59.632C77.4037 62.26 75.9637 64 73.4437 64H69.9037ZM71.2117 62.872H73.2517C74.9437 62.872 76.0597 61.828 76.0597 59.608C76.0597 57.388 74.9317 56.38 73.2517 56.38H71.2117V62.872ZM78.9271 64V55.252H83.0071C84.9271 55.252 85.9111 56.116 85.9111 57.664C85.9111 58.72 85.3591 59.512 84.3631 59.776V59.86C85.3111 60.028 85.7071 60.592 85.7071 61.588V63.052C85.7071 63.352 85.7071 63.676 85.8511 64H84.5311C84.4231 63.772 84.3991 63.436 84.3991 63.028V61.816C84.3991 60.928 84.0751 60.46 82.8391 60.46H80.2351V64H78.9271ZM80.2351 59.404H82.8271C84.0751 59.404 84.5671 58.744 84.5671 57.832C84.5671 56.788 83.8711 56.356 82.8271 56.356H80.2351V59.404ZM87.5638 64V55.252H93.6958V56.38H88.8718V59.008H93.1078V60.064H88.8718V62.86H93.7078V64H87.5638ZM98.2145 64.108C95.8865 64.108 94.7585 62.944 94.7345 61.264H96.0785C96.1025 62.38 96.7505 63.076 98.2385 63.076C99.4625 63.076 100.278 62.632 100.278 61.708C100.278 60.664 99.6905 60.376 97.9745 60.088C95.9705 59.74 94.9385 59.152 94.9385 57.652C94.9385 56.116 96.1505 55.156 98.1545 55.156C100.158 55.156 101.334 56.176 101.358 57.712H100.026C99.9905 56.668 99.2345 56.164 98.1065 56.164C96.9545 56.164 96.2945 56.68 96.2945 57.472C96.2945 58.444 96.9545 58.636 98.6345 58.936C100.182 59.188 101.634 59.572 101.634 61.588C101.634 63.088 100.446 64.108 98.2145 64.108ZM106.148 64.108C103.82 64.108 102.692 62.944 102.668 61.264H104.012C104.036 62.38 104.684 63.076 106.172 63.076C107.396 63.076 108.212 62.632 108.212 61.708C108.212 60.664 107.624 60.376 105.908 60.088C103.904 59.74 102.872 59.152 102.872 57.652C102.872 56.116 104.084 55.156 106.088 55.156C108.092 55.156 109.268 56.176 109.292 57.712H107.96C107.924 56.668 107.168 56.164 106.04 56.164C104.888 56.164 104.228 56.68 104.228 57.472C104.228 58.444 104.888 58.636 106.568 58.936C108.116 59.188 109.568 59.572 109.568 61.588C109.568 63.088 108.38 64.108 106.148 64.108Z" fill="#696969"/>
<rect x="12" y="71" width="187" height="16" rx="4" fill="#D9D9D9"/>
<path d="M208.056 64V55.252H211.596C213.456 55.252 214.644 56.26 214.644 58.036C214.644 59.716 213.492 60.832 211.584 60.82H209.364V64H208.056ZM211.392 56.38H209.364V59.776H211.392C212.532 59.788 213.312 59.236 213.312 58.072C213.312 56.908 212.52 56.38 211.392 56.38ZM216.025 64V55.252H217.333V58.996H222.229V55.252H223.537V64H222.229V60.136H217.333V64H216.025ZM229.39 64.108C226.786 64.108 225.082 62.404 225.082 59.632C225.082 56.848 226.798 55.156 229.39 55.156C231.994 55.156 233.71 56.848 233.71 59.632C233.71 62.416 231.982 64.108 229.39 64.108ZM229.39 62.98C231.214 62.98 232.366 61.744 232.366 59.632C232.366 57.508 231.214 56.284 229.39 56.284C227.566 56.284 226.426 57.508 226.426 59.632C226.426 61.756 227.578 62.98 229.39 62.98ZM235.232 64V55.252H236.84L241.364 62.26H241.448L241.376 59.332V55.252H242.648V64H241.112L236.588 57.076H236.516L236.564 59.8V64H235.232ZM244.759 64V55.252H250.891V56.38H246.067V59.008H250.303V60.064H246.067V62.86H250.903V64H244.759ZM255.247 64V55.252H256.855L261.379 62.26H261.463L261.391 59.332V55.252H262.663V64H261.127L256.603 57.076H256.531L256.579 59.8V64H255.247ZM268.279 64.108C266.035 64.108 264.703 62.824 264.703 60.76V55.252H266.011V60.736C266.011 62.2 266.875 62.932 268.291 62.932C269.827 62.932 270.571 62.092 270.571 60.736V55.252H271.867V60.76C271.867 62.824 270.523 64.108 268.279 64.108ZM273.915 64V55.252H275.955L278.355 61.948H278.403L280.803 55.252H282.831V64H281.559V59.908L281.595 56.632H281.511L278.931 64H277.815L275.259 56.632H275.175L275.199 59.92V64H273.915ZM284.954 64V55.252H289.01C290.714 55.252 291.638 56.152 291.638 57.496C291.638 58.408 291.17 59.2 290.234 59.44V59.5C291.302 59.716 291.866 60.544 291.866 61.54C291.866 63.112 290.738 64 288.854 64H284.954ZM286.238 59.02H288.806C289.826 59.02 290.33 58.48 290.33 57.676C290.33 56.776 289.682 56.284 288.698 56.284H286.238V59.02ZM286.238 62.968H288.734C289.958 62.968 290.534 62.356 290.534 61.468C290.534 60.532 289.91 60.016 288.866 60.016H286.238V62.968ZM293.415 64V55.252H299.547V56.38H294.723V59.008H298.959V60.064H294.723V62.86H299.559V64H293.415ZM301.22 64V55.252H305.3C307.22 55.252 308.204 56.116 308.204 57.664C308.204 58.72 307.652 59.512 306.656 59.776V59.86C307.604 60.028 308 60.592 308 61.588V63.052C308 63.352 308 63.676 308.144 64H306.824C306.716 63.772 306.692 63.436 306.692 63.028V61.816C306.692 60.928 306.368 60.46 305.132 60.46H302.528V64H301.22ZM302.528 59.404H305.12C306.368 59.404 306.86 58.744 306.86 57.832C306.86 56.788 306.164 56.356 305.12 56.356H302.528V59.404Z" fill="#696969"/>
<rect x="207" y="71" width="187" height="16" rx="4" fill="#D9D9D9"/>
<path d="M17.2499 102.947V107.6H19.7874V102.947H21.6796L22.0733 100.808H19.7874V100.051C19.7874 98.9199 20.2315 98.4868 21.3777 98.4868C21.7343 98.4868 22.0208 98.4955 22.1871 98.513V96.5727C21.8743 96.4874 21.1087 96.3999 20.6668 96.3999C18.3283 96.3999 17.2499 97.5046 17.2499 99.8868V100.808H15.8062V102.947H17.2499Z" fill="#696969"/>
<rect x="12" y="113" width="122" height="16" rx="4" fill="#D9D9D9"/>
<path d="M149.006 99.4844C147.617 99.48 146.489 100.604 146.484 101.993C146.48 103.383 147.604 104.511 148.993 104.516C150.382 104.52 151.511 103.396 151.515 102.007C151.52 100.618 150.395 99.4888 149.006 99.4844ZM148.993 100.368C149.894 100.364 150.627 101.092 150.632 101.993C150.636 102.895 149.908 103.628 149.006 103.632C148.105 103.636 147.372 102.908 147.368 102.007C147.364 101.105 148.092 100.373 148.993 100.368ZM151.036 99.3816C151.036 99.0578 151.299 98.7953 151.623 98.7953C151.946 98.7953 152.209 99.0578 152.209 99.3816C152.209 99.7053 151.946 99.9678 151.623 99.9678C151.299 99.9678 151.036 99.7053 151.036 99.3816ZM153.874 99.9766C153.836 99.1913 153.657 98.4956 153.082 97.9225C152.509 97.3494 151.813 97.17 151.028 97.1306C150.218 97.0847 147.792 97.0847 146.983 97.1306C146.2 97.1678 145.504 97.3472 144.929 97.9203C144.354 98.4935 144.176 99.1891 144.137 99.9744C144.091 100.784 144.091 103.21 144.137 104.019C144.174 104.804 144.354 105.5 144.929 106.073C145.504 106.646 146.198 106.826 146.983 106.865C147.792 106.911 150.218 106.911 151.028 106.865C151.813 106.828 152.509 106.648 153.082 106.073C153.655 105.5 153.834 104.804 153.874 104.019C153.919 103.21 153.919 100.786 153.874 99.9766ZM152.828 104.888C152.657 105.316 152.327 105.647 151.896 105.819C151.251 106.075 149.719 106.016 149.006 106.016C148.293 106.016 146.76 106.073 146.117 105.819C145.688 105.649 145.358 105.318 145.185 104.888C144.929 104.242 144.988 102.711 144.988 101.998C144.988 101.285 144.931 99.7513 145.185 99.1081C145.355 98.6794 145.686 98.3491 146.117 98.1763C146.762 97.9203 148.293 97.9794 149.006 97.9794C149.719 97.9794 151.253 97.9225 151.896 98.1763C152.325 98.3469 152.655 98.6772 152.828 99.1081C153.084 99.7535 153.025 101.285 153.025 101.998C153.025 102.711 153.084 104.244 152.828 104.888Z" fill="#696969"/>
<rect x="142" y="113" width="122" height="16" rx="4" fill="#D9D9D9"/>
<path d="M281.914 97.45H283.458L280.085 101.304L284.053 106.55H280.947L278.512 103.369L275.73 106.55H274.183L277.79 102.427L273.986 97.45H277.171L279.37 100.357L281.914 97.45ZM281.371 105.627H282.227L276.705 98.325H275.787L281.371 105.627Z" fill="#696969"/>
<rect x="272" y="113" width="122" height="16" rx="4" fill="#D9D9D9"/>
</svg>
