<svg width="370" height="126" viewBox="0 0 370 126" fill="none" xmlns="http://www.w3.org/2000/svg">
<rect x="0.5" y="0.5" width="369" height="125" rx="15.5" fill="white"/>
<rect x="0.5" y="0.5" width="369" height="125" rx="15.5" stroke="#E5E7EB"/>
<rect x="12.5" y="12.5" width="166" height="46" rx="7.5" fill="white"/>
<rect x="12.5" y="12.5" width="166" height="46" rx="7.5" stroke="#E5E7EB"/>
<path d="M20.4773 24.598V23.2727H27.4403V24.598H24.7429V32H23.1747V24.598H20.4773ZM28.7827 32V23.2727H34.4588V24.598H30.3636V26.9673H34.1648V28.2926H30.3636V30.6747H34.4929V32H28.7827ZM36.0717 23.2727H38.0064L40.5973 29.5966H40.6996L43.2905 23.2727H45.2251V32H43.7081V26.0043H43.6271L41.2152 31.9744H40.0817L37.6697 25.9915H37.5888V32H36.0717V23.2727ZM46.9467 32V23.2727H50.2195C50.8899 23.2727 51.4524 23.3977 51.907 23.6477C52.3643 23.8977 52.7095 24.2415 52.9425 24.679C53.1783 25.1136 53.2962 25.608 53.2962 26.1619C53.2962 26.7216 53.1783 27.2187 52.9425 27.6534C52.7067 28.0881 52.3587 28.4304 51.8984 28.6804C51.4382 28.9276 50.8714 29.0511 50.1982 29.0511H48.0291V27.7514H49.9851C50.3771 27.7514 50.6982 27.6832 50.9482 27.5469C51.1982 27.4105 51.3828 27.223 51.5021 26.9844C51.6243 26.7457 51.6854 26.4716 51.6854 26.1619C51.6854 25.8523 51.6243 25.5795 51.5021 25.3438C51.3828 25.108 51.1967 24.9247 50.9439 24.794C50.6939 24.6605 50.3714 24.5938 49.9766 24.5938H48.5277V32H46.9467ZM54.6694 32V23.2727H56.2504V30.6747H60.0941V32H54.6694ZM62.9151 32H61.2276L64.3001 23.2727H66.2518L69.3285 32H67.641L65.31 25.0625H65.2418L62.9151 32ZM62.9705 28.5781H67.5728V29.848H62.9705V28.5781ZM69.0398 24.598V23.2727H76.0028V24.598H73.3054V32H71.7372V24.598H69.0398ZM77.3452 32V23.2727H83.0213V24.598H78.9261V26.9673H82.7273V28.2926H78.9261V30.6747H83.0554V32H77.3452ZM87.6108 32V23.2727H89.1918V30.6747H93.0355V32H87.6108ZM95.8565 32H94.169L97.2415 23.2727H99.1932L102.27 32H100.582L98.2514 25.0625H98.1832L95.8565 32ZM95.9119 28.5781H100.514V29.848H95.9119V28.5781ZM101.932 23.2727H103.718L105.853 27.1335H105.938L108.073 23.2727H109.858L106.684 28.7443V32H105.107V28.7443L101.932 23.2727ZM118.284 27.6364C118.284 28.5767 118.108 29.3821 117.756 30.0526C117.406 30.7202 116.929 31.2315 116.324 31.5866C115.722 31.9418 115.038 32.1193 114.274 32.1193C113.51 32.1193 112.825 31.9418 112.22 31.5866C111.618 31.2287 111.141 30.7159 110.788 30.0483C110.439 29.3778 110.264 28.5739 110.264 27.6364C110.264 26.696 110.439 25.892 110.788 25.2244C111.141 24.554 111.618 24.0412 112.22 23.6861C112.825 23.331 113.51 23.1534 114.274 23.1534C115.038 23.1534 115.722 23.331 116.324 23.6861C116.929 24.0412 117.406 24.554 117.756 25.2244C118.108 25.892 118.284 26.696 118.284 27.6364ZM116.695 27.6364C116.695 26.9744 116.591 26.4162 116.384 25.9616C116.179 25.5043 115.895 25.1591 115.531 24.9261C115.168 24.6903 114.749 24.5724 114.274 24.5724C113.8 24.5724 113.381 24.6903 113.017 24.9261C112.653 25.1591 112.368 25.5043 112.161 25.9616C111.956 26.4162 111.854 26.9744 111.854 27.6364C111.854 28.2983 111.956 28.858 112.161 29.3153C112.368 29.7699 112.653 30.1151 113.017 30.3509C113.381 30.5838 113.8 30.7003 114.274 30.7003C114.749 30.7003 115.168 30.5838 115.531 30.3509C115.895 30.1151 116.179 29.7699 116.384 29.3153C116.591 28.858 116.695 28.2983 116.695 27.6364ZM125.28 23.2727H126.861V28.9744C126.861 29.5994 126.713 30.1491 126.418 30.6236C126.125 31.098 125.713 31.4687 125.182 31.7358C124.651 32 124.03 32.1321 123.32 32.1321C122.607 32.1321 121.985 32 121.453 31.7358C120.922 31.4687 120.51 31.098 120.218 30.6236C119.925 30.1491 119.779 29.5994 119.779 28.9744V23.2727H121.36V28.8423C121.36 29.206 121.439 29.5298 121.598 29.8139C121.76 30.098 121.988 30.321 122.28 30.483C122.573 30.642 122.919 30.7216 123.32 30.7216C123.721 30.7216 124.067 30.642 124.36 30.483C124.655 30.321 124.882 30.098 125.042 29.8139C125.201 29.5298 125.28 29.206 125.28 28.8423V23.2727ZM128.196 24.598V23.2727H135.159V24.598H132.462V32H130.893V24.598H128.196Z" fill="#969696"/>
<rect x="20" y="39" width="151" height="12" rx="4" fill="#D9D9D9"/>
<rect x="12.5" y="67.5" width="166" height="46" rx="7.5" fill="white"/>
<rect x="12.5" y="67.5" width="166" height="46" rx="7.5" stroke="#E5E7EB"/>
<path d="M28.331 81.2173H26.7372C26.6918 80.956 26.608 80.7244 26.4858 80.5227C26.3636 80.3182 26.2116 80.1449 26.0298 80.0028C25.848 79.8608 25.6406 79.7543 25.4077 79.6832C25.1776 79.6094 24.929 79.5724 24.6619 79.5724C24.1875 79.5724 23.767 79.6918 23.4006 79.9304C23.0341 80.1662 22.7472 80.5128 22.5398 80.9702C22.3324 81.4247 22.2287 81.9801 22.2287 82.6364C22.2287 83.304 22.3324 83.8665 22.5398 84.3239C22.75 84.7784 23.0369 85.1222 23.4006 85.3551C23.767 85.5852 24.1861 85.7003 24.6577 85.7003C24.919 85.7003 25.1634 85.6662 25.3906 85.598C25.6207 85.527 25.8267 85.4233 26.0085 85.2869C26.1932 85.1506 26.348 84.983 26.473 84.7841C26.6009 84.5852 26.6889 84.358 26.7372 84.1023L28.331 84.1108C28.2713 84.5256 28.142 84.9148 27.9432 85.2784C27.7472 85.642 27.4901 85.9631 27.1719 86.2415C26.8537 86.517 26.4815 86.733 26.0554 86.8892C25.6293 87.0426 25.1563 87.1193 24.6364 87.1193C23.8693 87.1193 23.1847 86.9418 22.5824 86.5866C21.9801 86.2315 21.5057 85.7188 21.1591 85.0483C20.8125 84.3778 20.6392 83.5739 20.6392 82.6364C20.6392 81.696 20.8139 80.892 21.1634 80.2244C21.5128 79.554 21.9886 79.0412 22.5909 78.6861C23.1932 78.331 23.875 78.1534 24.6364 78.1534C25.1222 78.1534 25.5739 78.2216 25.9915 78.358C26.4091 78.4943 26.7813 78.6946 27.108 78.9588C27.4347 79.2202 27.7031 79.5412 27.9134 79.9219C28.1264 80.2997 28.2656 80.7315 28.331 81.2173ZM30.794 87H29.1065L32.179 78.2727H34.1307L37.2074 87H35.5199L33.1889 80.0625H33.1207L30.794 87ZM30.8494 83.5781H35.4517V84.848H30.8494V83.5781ZM38.3569 87V78.2727H41.6296C42.3001 78.2727 42.8626 78.3892 43.3171 78.6222C43.7745 78.8551 44.1197 79.1818 44.3526 79.6023C44.5884 80.0199 44.7063 80.5071 44.7063 81.0639C44.7063 81.6236 44.587 82.1094 44.3484 82.5213C44.1126 82.9304 43.7646 83.2472 43.3043 83.4716C42.8441 83.6932 42.2788 83.804 41.6083 83.804H39.2773V82.4915H41.3952C41.7873 82.4915 42.1083 82.4375 42.3583 82.3295C42.6083 82.2187 42.793 82.0582 42.9123 81.848C43.0344 81.6349 43.0955 81.3736 43.0955 81.0639C43.0955 80.7543 43.0344 80.4901 42.9123 80.2713C42.7901 80.0497 42.604 79.8821 42.354 79.7685C42.104 79.652 41.7816 79.5938 41.3867 79.5938H39.9379V87H38.3569ZM42.8654 83.0455L45.0259 87H43.2617L41.1396 83.0455H42.8654ZM49.119 87H46.1616V78.2727H49.1786C50.0451 78.2727 50.7894 78.4474 51.4116 78.7969C52.0366 79.1435 52.5167 79.642 52.8519 80.2926C53.1871 80.9432 53.3548 81.7216 53.3548 82.6278C53.3548 83.5369 53.1857 84.3182 52.8477 84.9716C52.5124 85.625 52.0281 86.1264 51.3945 86.4759C50.7638 86.8253 50.0053 87 49.119 87ZM47.7425 85.6321H49.0423C49.6502 85.6321 50.1573 85.5213 50.5636 85.2997C50.9698 85.0753 51.2752 84.7415 51.4798 84.2983C51.6843 83.8523 51.7866 83.2955 51.7866 82.6278C51.7866 81.9602 51.6843 81.4062 51.4798 80.9659C51.2752 80.5227 50.9727 80.1918 50.5721 79.973C50.1744 79.7514 49.68 79.6406 49.0891 79.6406H47.7425V85.6321ZM59.6701 87L57.207 78.2727H58.9073L60.4798 84.6861H60.5607L62.2397 78.2727H63.7866L65.4698 84.6903H65.5465L67.119 78.2727H68.8192L66.3562 87H64.7965L63.0494 80.8764H62.9812L61.2298 87H59.6701ZM71.4964 78.2727V87H69.9155V78.2727H71.4964ZM76.1658 87H73.2085V78.2727H76.2255C77.092 78.2727 77.8363 78.4474 78.4585 78.7969C79.0835 79.1435 79.5636 79.642 79.8988 80.2926C80.234 80.9432 80.4016 81.7216 80.4016 82.6278C80.4016 83.5369 80.2326 84.3182 79.8945 84.9716C79.5593 85.625 79.0749 86.1264 78.4414 86.4759C77.8107 86.8253 77.0522 87 76.1658 87ZM74.7894 85.6321H76.0891C76.6971 85.6321 77.2042 85.5213 77.6104 85.2997C78.0167 85.0753 78.3221 84.7415 78.5266 84.2983C78.7312 83.8523 78.8335 83.2955 78.8335 82.6278C78.8335 81.9602 78.7312 81.4062 78.5266 80.9659C78.3221 80.5227 78.0195 80.1918 77.619 79.973C77.2212 79.7514 76.7269 79.6406 76.136 79.6406H74.7894V85.6321ZM81.1335 79.598V78.2727H88.0966V79.598H85.3991V87H83.831V79.598H81.1335ZM89.4389 87V78.2727H91.0199V81.9673H95.0639V78.2727H96.6491V87H95.0639V83.2926H91.0199V87H89.4389Z" fill="#969696"/>
<rect x="20" y="94" width="151" height="12" rx="4" fill="#D9D9D9"/>
<rect x="191.5" y="12.5" width="166" height="46" rx="7.5" fill="white"/>
<rect x="191.5" y="12.5" width="166" height="46" rx="7.5" stroke="#E5E7EB"/>
<path d="M199.861 32V23.2727H203.134C203.804 23.2727 204.366 23.3977 204.821 23.6477C205.278 23.8977 205.624 24.2415 205.857 24.679C206.092 25.1136 206.21 25.608 206.21 26.1619C206.21 26.7216 206.092 27.2187 205.857 27.6534C205.621 28.0881 205.273 28.4304 204.812 28.6804C204.352 28.9276 203.786 29.0511 203.112 29.0511H200.943V27.7514H202.899C203.291 27.7514 203.612 27.6832 203.862 27.5469C204.112 27.4105 204.297 27.223 204.416 26.9844C204.538 26.7457 204.599 26.4716 204.599 26.1619C204.599 25.8523 204.538 25.5795 204.416 25.3438C204.297 25.108 204.111 24.9247 203.858 24.794C203.608 24.6605 203.286 24.5938 202.891 24.5938H201.442V32H199.861ZM207.583 32V23.2727H210.856C211.527 23.2727 212.089 23.3892 212.544 23.6222C213.001 23.8551 213.346 24.1818 213.579 24.6023C213.815 25.0199 213.933 25.5071 213.933 26.0639C213.933 26.6236 213.814 27.1094 213.575 27.5213C213.339 27.9304 212.991 28.2472 212.531 28.4716C212.071 28.6932 211.505 28.804 210.835 28.804H208.504V27.4915H210.622C211.014 27.4915 211.335 27.4375 211.585 27.3295C211.835 27.2187 212.02 27.0582 212.139 26.848C212.261 26.6349 212.322 26.3736 212.322 26.0639C212.322 25.7543 212.261 25.4901 212.139 25.2713C212.017 25.0497 211.831 24.8821 211.581 24.7685C211.331 24.652 211.008 24.5938 210.613 24.5938H209.164V32H207.583ZM212.092 28.0455L214.252 32H212.488L210.366 28.0455H212.092ZM216.969 23.2727V32H215.388V23.2727H216.969ZM218.681 23.2727H220.616L223.207 29.5966H223.309L225.9 23.2727H227.835V32H226.317V26.0043H226.237L223.825 31.9744H222.691L220.279 25.9915H220.198V32H218.681V23.2727ZM230.677 32H228.989L232.062 23.2727H234.013L237.09 32H235.403L233.072 25.0625H233.004L230.677 32ZM230.732 28.5781H235.335V29.848H230.732V28.5781ZM238.24 32V23.2727H241.512C242.183 23.2727 242.745 23.3892 243.2 23.6222C243.657 23.8551 244.002 24.1818 244.235 24.6023C244.471 25.0199 244.589 25.5071 244.589 26.0639C244.589 26.6236 244.47 27.1094 244.231 27.5213C243.995 27.9304 243.647 28.2472 243.187 28.4716C242.727 28.6932 242.162 28.804 241.491 28.804H239.16V27.4915H241.278C241.67 27.4915 241.991 27.4375 242.241 27.3295C242.491 27.2187 242.676 27.0582 242.795 26.848C242.917 26.6349 242.978 26.3736 242.978 26.0639C242.978 25.7543 242.917 25.4901 242.795 25.2713C242.673 25.0497 242.487 24.8821 242.237 24.7685C241.987 24.652 241.664 24.5938 241.27 24.5938H239.821V32H238.24ZM242.748 28.0455L244.909 32H243.145L241.022 28.0455H242.748ZM245.108 23.2727H246.893L249.028 27.1335H249.114L251.249 23.2727H253.034L249.859 28.7443V32H248.283V28.7443L245.108 23.2727ZM264.6 26.2173H263.007C262.961 25.956 262.877 25.7244 262.755 25.5227C262.633 25.3182 262.481 25.1449 262.299 25.0028C262.118 24.8608 261.91 24.7543 261.677 24.6832C261.447 24.6094 261.199 24.5724 260.931 24.5724C260.457 24.5724 260.037 24.6918 259.67 24.9304C259.304 25.1662 259.017 25.5128 258.809 25.9702C258.602 26.4247 258.498 26.9801 258.498 27.6364C258.498 28.304 258.602 28.8665 258.809 29.3239C259.02 29.7784 259.306 30.1222 259.67 30.3551C260.037 30.5852 260.456 30.7003 260.927 30.7003C261.189 30.7003 261.433 30.6662 261.66 30.598C261.89 30.527 262.096 30.4233 262.278 30.2869C262.463 30.1506 262.618 29.983 262.743 29.7841C262.87 29.5852 262.958 29.358 263.007 29.1023L264.6 29.1108C264.541 29.5256 264.412 29.9148 264.213 30.2784C264.017 30.642 263.76 30.9631 263.441 31.2415C263.123 31.517 262.751 31.733 262.325 31.8892C261.899 32.0426 261.426 32.1193 260.906 32.1193C260.139 32.1193 259.454 31.9418 258.852 31.5866C258.25 31.2315 257.775 30.7188 257.429 30.0483C257.082 29.3778 256.909 28.5739 256.909 27.6364C256.909 26.696 257.083 25.892 257.433 25.2244C257.782 24.554 258.258 24.0412 258.86 23.6861C259.463 23.331 260.145 23.1534 260.906 23.1534C261.392 23.1534 261.843 23.2216 262.261 23.358C262.679 23.4943 263.051 23.6946 263.377 23.9588C263.704 24.2202 263.973 24.5412 264.183 24.9219C264.396 25.2997 264.535 25.7315 264.6 26.2173ZM273.847 27.6364C273.847 28.5767 273.67 29.3821 273.318 30.0526C272.969 30.7202 272.491 31.2315 271.886 31.5866C271.284 31.9418 270.601 32.1193 269.837 32.1193C269.072 32.1193 268.388 31.9418 267.783 31.5866C267.18 31.2287 266.703 30.7159 266.351 30.0483C266.001 29.3778 265.827 28.5739 265.827 27.6364C265.827 26.696 266.001 25.892 266.351 25.2244C266.703 24.554 267.18 24.0412 267.783 23.6861C268.388 23.331 269.072 23.1534 269.837 23.1534C270.601 23.1534 271.284 23.331 271.886 23.6861C272.491 24.0412 272.969 24.554 273.318 25.2244C273.67 25.892 273.847 26.696 273.847 27.6364ZM272.257 27.6364C272.257 26.9744 272.153 26.4162 271.946 25.9616C271.741 25.5043 271.457 25.1591 271.094 24.9261C270.73 24.6903 270.311 24.5724 269.837 24.5724C269.362 24.5724 268.943 24.6903 268.58 24.9261C268.216 25.1591 267.93 25.5043 267.723 25.9616C267.518 26.4162 267.416 26.9744 267.416 27.6364C267.416 28.2983 267.518 28.858 267.723 29.3153C267.93 29.7699 268.216 30.1151 268.58 30.3509C268.943 30.5838 269.362 30.7003 269.837 30.7003C270.311 30.7003 270.73 30.5838 271.094 30.3509C271.457 30.1151 271.741 29.7699 271.946 29.3153C272.153 28.858 272.257 28.2983 272.257 27.6364ZM275.341 32V23.2727H276.922V30.6747H280.766V32H275.341ZM289.597 27.6364C289.597 28.5767 289.42 29.3821 289.068 30.0526C288.719 30.7202 288.241 31.2315 287.636 31.5866C287.034 31.9418 286.351 32.1193 285.587 32.1193C284.822 32.1193 284.138 31.9418 283.533 31.5866C282.93 31.2287 282.453 30.7159 282.101 30.0483C281.751 29.3778 281.577 28.5739 281.577 27.6364C281.577 26.696 281.751 25.892 282.101 25.2244C282.453 24.554 282.93 24.0412 283.533 23.6861C284.138 23.331 284.822 23.1534 285.587 23.1534C286.351 23.1534 287.034 23.331 287.636 23.6861C288.241 24.0412 288.719 24.554 289.068 25.2244C289.42 25.892 289.597 26.696 289.597 27.6364ZM288.007 27.6364C288.007 26.9744 287.903 26.4162 287.696 25.9616C287.491 25.5043 287.207 25.1591 286.844 24.9261C286.48 24.6903 286.061 24.5724 285.587 24.5724C285.112 24.5724 284.693 24.6903 284.33 24.9261C283.966 25.1591 283.68 25.5043 283.473 25.9616C283.268 26.4162 283.166 26.9744 283.166 27.6364C283.166 28.2983 283.268 28.858 283.473 29.3153C283.68 29.7699 283.966 30.1151 284.33 30.3509C284.693 30.5838 285.112 30.7003 285.587 30.7003C286.061 30.7003 286.48 30.5838 286.844 30.3509C287.207 30.1151 287.491 29.7699 287.696 29.3153C287.903 28.858 288.007 28.2983 288.007 27.6364ZM291.091 32V23.2727H294.364C295.034 23.2727 295.597 23.3892 296.051 23.6222C296.509 23.8551 296.854 24.1818 297.087 24.6023C297.323 25.0199 297.441 25.5071 297.441 26.0639C297.441 26.6236 297.321 27.1094 297.083 27.5213C296.847 27.9304 296.499 28.2472 296.039 28.4716C295.578 28.6932 295.013 28.804 294.343 28.804H292.012V27.4915H294.13C294.522 27.4915 294.843 27.4375 295.093 27.3295C295.343 27.2187 295.527 27.0582 295.647 26.848C295.769 26.6349 295.83 26.3736 295.83 26.0639C295.83 25.7543 295.769 25.4901 295.647 25.2713C295.525 25.0497 295.338 24.8821 295.088 24.7685C294.838 24.652 294.516 24.5938 294.121 24.5938H292.672V32H291.091ZM295.6 28.0455L297.76 32H295.996L293.874 28.0455H295.6Z" fill="#969696"/>
<rect x="199" y="39" width="151" height="12" rx="4" fill="#21BB5A"/>
<rect x="191.5" y="67.5" width="166" height="46" rx="7.5" fill="white"/>
<rect x="191.5" y="67.5" width="166" height="46" rx="7.5" stroke="#E5E7EB"/>
<path d="M199.477 79.598V78.2727H206.44V79.598H203.743V87H202.175V79.598H199.477ZM207.783 87V78.2727H213.459V79.598H209.364V81.9673H213.165V83.2926H209.364V85.6747H213.493V87H207.783ZM216.393 78.2727L218.315 81.4688H218.383L220.313 78.2727H222.116L219.427 82.6364L222.158 87H220.326L218.383 83.8253H218.315L216.371 87H214.548L217.305 82.6364L214.582 78.2727H216.393ZM222.973 79.598V78.2727H229.936V79.598H227.239V87H225.671V79.598H222.973ZM241.725 81.2173H240.132C240.086 80.956 240.002 80.7244 239.88 80.5227C239.758 80.3182 239.606 80.1449 239.424 80.0028C239.243 79.8608 239.035 79.7543 238.802 79.6832C238.572 79.6094 238.324 79.5724 238.056 79.5724C237.582 79.5724 237.162 79.6918 236.795 79.9304C236.429 80.1662 236.142 80.5128 235.934 80.9702C235.727 81.4247 235.623 81.9801 235.623 82.6364C235.623 83.304 235.727 83.8665 235.934 84.3239C236.145 84.7784 236.431 85.1222 236.795 85.3551C237.162 85.5852 237.581 85.7003 238.052 85.7003C238.314 85.7003 238.558 85.6662 238.785 85.598C239.015 85.527 239.221 85.4233 239.403 85.2869C239.588 85.1506 239.743 84.983 239.868 84.7841C239.995 84.5852 240.083 84.358 240.132 84.1023L241.725 84.1108C241.666 84.5256 241.537 84.9148 241.338 85.2784C241.142 85.642 240.885 85.9631 240.566 86.2415C240.248 86.517 239.876 86.733 239.45 86.8892C239.024 87.0426 238.551 87.1193 238.031 87.1193C237.264 87.1193 236.579 86.9418 235.977 86.5866C235.375 86.2315 234.9 85.7188 234.554 85.0483C234.207 84.3778 234.034 83.5739 234.034 82.6364C234.034 81.696 234.208 80.892 234.558 80.2244C234.907 79.554 235.383 79.0412 235.985 78.6861C236.588 78.331 237.27 78.1534 238.031 78.1534C238.517 78.1534 238.968 78.2216 239.386 78.358C239.804 78.4943 240.176 78.6946 240.502 78.9588C240.829 79.2202 241.098 79.5412 241.308 79.9219C241.521 80.2997 241.66 80.7315 241.725 81.2173ZM250.972 82.6364C250.972 83.5767 250.795 84.3821 250.443 85.0526C250.094 85.7202 249.616 86.2315 249.011 86.5866C248.409 86.9418 247.726 87.1193 246.962 87.1193C246.197 87.1193 245.513 86.9418 244.908 86.5866C244.305 86.2287 243.828 85.7159 243.476 85.0483C243.126 84.3778 242.952 83.5739 242.952 82.6364C242.952 81.696 243.126 80.892 243.476 80.2244C243.828 79.554 244.305 79.0412 244.908 78.6861C245.513 78.331 246.197 78.1534 246.962 78.1534C247.726 78.1534 248.409 78.331 249.011 78.6861C249.616 79.0412 250.094 79.554 250.443 80.2244C250.795 80.892 250.972 81.696 250.972 82.6364ZM249.382 82.6364C249.382 81.9744 249.278 81.4162 249.071 80.9616C248.866 80.5043 248.582 80.1591 248.219 79.9261C247.855 79.6903 247.436 79.5724 246.962 79.5724C246.487 79.5724 246.068 79.6903 245.705 79.9261C245.341 80.1591 245.055 80.5043 244.848 80.9616C244.643 81.4162 244.541 81.9744 244.541 82.6364C244.541 83.2983 244.643 83.858 244.848 84.3153C245.055 84.7699 245.341 85.1151 245.705 85.3509C246.068 85.5838 246.487 85.7003 246.962 85.7003C247.436 85.7003 247.855 85.5838 248.219 85.3509C248.582 85.1151 248.866 84.7699 249.071 84.3153C249.278 83.858 249.382 83.2983 249.382 82.6364ZM252.466 87V78.2727H254.047V85.6747H257.891V87H252.466ZM266.722 82.6364C266.722 83.5767 266.545 84.3821 266.193 85.0526C265.844 85.7202 265.366 86.2315 264.761 86.5866C264.159 86.9418 263.476 87.1193 262.712 87.1193C261.947 87.1193 261.263 86.9418 260.658 86.5866C260.055 86.2287 259.578 85.7159 259.226 85.0483C258.876 84.3778 258.702 83.5739 258.702 82.6364C258.702 81.696 258.876 80.892 259.226 80.2244C259.578 79.554 260.055 79.0412 260.658 78.6861C261.263 78.331 261.947 78.1534 262.712 78.1534C263.476 78.1534 264.159 78.331 264.761 78.6861C265.366 79.0412 265.844 79.554 266.193 80.2244C266.545 80.892 266.722 81.696 266.722 82.6364ZM265.132 82.6364C265.132 81.9744 265.028 81.4162 264.821 80.9616C264.616 80.5043 264.332 80.1591 263.969 79.9261C263.605 79.6903 263.186 79.5724 262.712 79.5724C262.237 79.5724 261.818 79.6903 261.455 79.9261C261.091 80.1591 260.805 80.5043 260.598 80.9616C260.393 81.4162 260.291 81.9744 260.291 82.6364C260.291 83.2983 260.393 83.858 260.598 84.3153C260.805 84.7699 261.091 85.1151 261.455 85.3509C261.818 85.5838 262.237 85.7003 262.712 85.7003C263.186 85.7003 263.605 85.5838 263.969 85.3509C264.332 85.1151 264.616 84.7699 264.821 84.3153C265.028 83.858 265.132 83.2983 265.132 82.6364ZM268.216 87V78.2727H271.489C272.159 78.2727 272.722 78.3892 273.176 78.6222C273.634 78.8551 273.979 79.1818 274.212 79.6023C274.448 80.0199 274.566 80.5071 274.566 81.0639C274.566 81.6236 274.446 82.1094 274.208 82.5213C273.972 82.9304 273.624 83.2472 273.164 83.4716C272.703 83.6932 272.138 83.804 271.468 83.804H269.137V82.4915H271.255C271.647 82.4915 271.968 82.4375 272.218 82.3295C272.468 82.2187 272.652 82.0582 272.772 81.848C272.894 81.6349 272.955 81.3736 272.955 81.0639C272.955 80.7543 272.894 80.4901 272.772 80.2713C272.65 80.0497 272.463 79.8821 272.213 79.7685C271.963 79.652 271.641 79.5938 271.246 79.5938H269.797V87H268.216ZM272.725 83.0455L274.885 87H273.121L270.999 83.0455H272.725Z" fill="#969696"/>
<rect x="199" y="94" width="151" height="12" rx="4" fill="black"/>
</svg>
