<svg width="319" height="382" viewBox="0 0 319 382" fill="none" xmlns="http://www.w3.org/2000/svg">
<path d="M317.8 1.13306L1.71838 1.13306L1.71838 380.431H317.8V1.13306Z" fill="white"/>
<path d="M318.151 0.78186L1.36719 0.78186L1.36719 380.782H318.151V0.78186Z" stroke="black"/>
<path d="M317.8 1.13306L1.71838 1.13306V106.494L317.8 106.494V1.13306Z" fill="black"/>
<path d="M31.2992 49.5989V37.3388H35.4418C36.4036 37.3388 37.1898 37.5123 37.8004 37.8595C38.415 38.2028 38.87 38.6677 39.1653 39.2544C39.4606 39.8411 39.6083 40.4956 39.6083 41.2179C39.6083 41.9403 39.4606 42.5968 39.1653 43.1875C38.874 43.7781 38.423 44.249 37.8124 44.6002C37.2018 44.9474 36.4195 45.121 35.4657 45.121H32.4964V43.804H35.4178C36.0763 43.804 36.6051 43.6903 37.0042 43.4628C37.4033 43.2353 37.6926 42.928 37.8722 42.5409C38.0558 42.1498 38.1476 41.7088 38.1476 41.2179C38.1476 40.727 38.0558 40.288 37.8722 39.9009C37.6926 39.5138 37.4013 39.2105 36.9982 38.991C36.5951 38.7675 36.0604 38.6558 35.3939 38.6558H32.7838V49.5989H31.2992ZM44.6231 49.5989H43.0666L47.5684 37.3388H49.1009L53.6027 49.5989H52.0462L48.3825 39.2783H48.2867L44.6231 49.5989ZM45.1978 44.8097H51.4715V46.1268H45.1978V44.8097ZM56.5791 37.3388H58.2793L61.6795 43.0617H61.8232L65.2236 37.3388H66.9234L62.4937 44.5463V49.5989H61.009V44.5463L56.5791 37.3388ZM72.2153 37.3388H73.9875L78.1534 47.5156H78.2974L82.464 37.3388H84.2362V49.5989H82.8469V40.284H82.7274L78.8958 49.5989H77.555L73.7241 40.284H73.6039V49.5989H72.2153V37.3388ZM90.5838 49.5989V37.3388L97.9836 37.3388V38.6558L92.0687 38.6558V42.7983H97.6001V44.1153H92.0687V48.2819H98.0792V49.5989H90.5838ZM113.753 37.3388V49.5989H112.316L105.635 39.9728H105.516V49.5989H104.031V37.3388H105.468L112.172 46.9888H112.292V37.3388H113.753ZM119.424 38.6558V37.3388H128.62V38.6558H124.764V49.5989H123.28V38.6558H119.424ZM31.2992 57.7085H33.0711L37.2377 67.8854H37.3814L41.5479 57.7085H43.3198V69.9687H41.931V60.6537H41.8113L37.98 69.9687H36.639L32.8077 60.6537H32.688V69.9687H31.2992V57.7085ZM49.6681 69.9687V57.7085H57.0673V59.0255H51.1528V63.168H56.6842V64.485H51.1528V68.6517H57.1631V69.9687H49.6681ZM62.4442 59.0255V57.7085H71.6393V59.0255H67.7838V69.9687H66.2997V59.0255H62.4442ZM77.3021 69.9687V57.7085H78.787V63.168H85.3242V57.7085H86.8084V69.9687H85.3242V64.485H78.787V69.9687H77.3021ZM103.497 63.8388C103.497 65.1313 103.264 66.2488 102.797 67.1907C102.329 68.1326 101.689 68.8589 100.875 69.3703C100.061 69.8809 99.1307 70.1359 98.0848 70.1359C97.0396 70.1359 96.1096 69.8809 95.2955 69.3703C94.4815 68.8589 93.8409 68.1326 93.3738 67.1907C92.9067 66.2488 92.6735 65.1313 92.6735 63.8388C92.6735 62.5454 92.9067 61.428 93.3738 60.4861C93.8409 59.5443 94.4815 58.8179 95.2955 58.3071C96.1096 57.7963 97.0396 57.5408 98.0848 57.5408C99.1307 57.5408 100.061 57.7963 100.875 58.3071C101.689 58.8179 102.329 59.5443 102.797 60.4861C103.264 61.428 103.497 62.5454 103.497 63.8388ZM102.06 63.8388C102.06 62.7769 101.883 61.881 101.527 61.1506C101.176 60.4203 100.699 59.8675 100.096 59.4924C99.498 59.1172 98.8272 58.9297 98.0848 58.9297C97.3431 58.9297 96.6701 59.1172 96.0675 59.4924C95.469 59.8675 94.9921 60.4203 94.6367 61.1506C94.2855 61.881 94.1099 62.7769 94.1099 63.8388C94.1099 64.9002 94.2855 65.7957 94.6367 66.5262C94.9921 67.2567 95.469 67.8095 96.0675 68.1846C96.6701 68.5597 97.3431 68.7472 98.0848 68.7472C98.8272 68.7472 99.498 68.5597 100.096 68.1846C100.699 67.8095 101.176 67.2567 101.527 66.5262C101.883 65.7957 102.06 64.9002 102.06 63.8388ZM113.148 69.9687H109.365V57.7085H113.316C114.505 57.7085 115.523 57.9539 116.369 58.4448C117.215 58.9316 117.863 59.6321 118.314 60.546C118.766 61.4559 118.991 62.5454 118.991 63.8142C118.991 65.0919 118.764 66.1912 118.308 67.1127C117.853 68.0308 117.191 68.7374 116.321 69.2326C115.451 69.7229 114.393 69.9687 113.148 69.9687ZM110.85 68.6517H113.052C114.066 68.6517 114.906 68.4557 115.573 68.0652C116.239 67.674 116.736 67.1169 117.063 66.3949C117.39 65.6721 117.554 64.8124 117.554 63.8142C117.554 62.8248 117.392 61.9728 117.069 61.2583C116.746 60.54 116.263 59.9892 115.62 59.6061C114.978 59.219 114.178 59.0255 113.22 59.0255H110.85V68.6517Z" fill="white"/>
<path opacity="0.2" d="M282.891 29.3569V78.3975H269.577V41.617H269.29L258.563 48.0344V36.7321L270.631 29.3569H282.891Z" fill="white"/>
<g filter="url(#filter0_d_231_1068)">
<path d="M289.704 134.59L29.8146 134.59V183.758H289.704V134.59Z" fill="#FFFBEB"/>
<path d="M289.352 134.941L30.1656 134.941V183.407L289.352 183.407V134.941Z" stroke="#F59E0B"/>
<path d="M50.3959 155.214H51.1422V160.626C51.1422 161.183 51.0118 161.68 50.7511 162.119C50.4903 162.555 50.1271 162.9 49.6615 163.153C49.1986 163.403 48.6598 163.528 48.0452 163.528C47.4333 163.528 46.8945 163.402 46.4288 163.149C45.9633 162.896 45.6001 162.552 45.3393 162.115C45.0786 161.679 44.9482 161.183 44.9482 160.626V155.214H45.6945V160.574C45.6945 161.009 45.7916 161.396 45.9859 161.736C46.1801 162.074 46.4528 162.34 46.804 162.534C47.1579 162.728 47.5716 162.826 48.0452 162.826C48.5188 162.826 48.9325 162.728 49.2864 162.534C49.6402 162.34 49.913 162.074 50.1045 161.736C50.2987 161.396 50.3959 161.009 50.3959 160.574V155.214ZM57.7491 157.258C57.7039 156.803 57.503 156.442 57.1465 156.173C56.79 155.904 56.3416 155.769 55.8016 155.769C55.4211 155.769 55.0859 155.835 54.7959 155.965C54.5085 156.095 54.2823 156.276 54.1174 156.508C53.9551 156.737 53.874 156.997 53.874 157.29C53.874 157.506 53.9205 157.695 54.0136 157.857C54.1067 158.019 54.2318 158.159 54.3887 158.276C54.5484 158.39 54.724 158.488 54.9155 158.571C55.1098 158.653 55.3054 158.723 55.5023 158.778L56.3643 159.026C56.625 159.098 56.8858 159.19 57.1465 159.302C57.4073 159.413 57.6454 159.554 57.8609 159.725C58.079 159.892 58.2533 160.098 58.3837 160.343C58.5167 160.585 58.5832 160.877 58.5832 161.217C58.5832 161.653 58.4701 162.046 58.244 162.394C58.0179 162.743 57.6933 163.02 57.2702 163.225C56.8472 163.427 56.3403 163.528 55.7497 163.528C55.1936 163.528 54.7107 163.436 54.3009 163.253C53.8912 163.066 53.5693 162.81 53.3351 162.482C53.101 162.155 52.9693 161.776 52.94 161.345H53.7063C53.7329 161.667 53.8393 161.939 54.0256 162.163C54.2118 162.387 54.4539 162.557 54.752 162.674C55.0499 162.788 55.3825 162.845 55.7497 162.845C56.1568 162.845 56.5186 162.777 56.8352 162.642C57.1545 162.503 57.4046 162.312 57.5855 162.067C57.7691 161.82 57.8609 161.533 57.8609 161.205C57.8609 160.928 57.789 160.697 57.6454 160.511C57.5017 160.322 57.3008 160.164 57.0427 160.036C56.7873 159.908 56.4907 159.795 56.1528 159.696L55.1749 159.409C54.5338 159.217 54.0362 158.953 53.6823 158.615C53.3285 158.277 53.1516 157.846 53.1516 157.322C53.1516 156.883 53.2686 156.497 53.5028 156.165C53.7396 155.829 54.0588 155.568 54.4606 155.382C54.865 155.193 55.3187 155.099 55.8215 155.099C56.3297 155.099 56.7793 155.192 57.1705 155.378C57.5616 155.565 57.8715 155.821 58.1003 156.149C58.3318 156.473 58.4555 156.843 58.4715 157.258H57.7491ZM61.1254 155.214V163.388H60.3791V155.214H61.1254ZM69.6643 155.214V163.388H68.938L64.1089 156.543H64.045V163.388H63.2985V155.214H64.0211L68.8656 162.067H68.9295V155.214H69.6643ZM77.4925 157.769C77.4181 157.497 77.3085 157.244 77.1652 157.007C77.0212 156.767 76.8428 156.558 76.63 156.38C76.42 156.199 76.1762 156.058 75.9002 155.957C75.6255 155.856 75.32 155.805 74.9821 155.805C74.4497 155.805 73.9735 155.944 73.5535 156.22C73.1327 156.497 72.8005 156.896 72.5553 157.418C72.313 157.939 72.1922 158.567 72.1922 159.302C72.1922 160.033 72.3144 160.659 72.5596 161.181C72.804 161.703 73.1397 162.103 73.5654 162.382C73.9939 162.659 74.4827 162.798 75.0341 162.798C75.5363 162.798 75.981 162.686 76.3666 162.463C76.7529 162.238 77.0535 161.92 77.2685 161.504C77.4869 161.089 77.5937 160.596 77.5881 160.024L77.8276 160.1H75.2097V159.429H78.3143V160.1C78.3143 160.796 78.1732 161.399 77.8915 161.908C77.6091 162.415 77.2221 162.808 76.7297 163.085C76.238 163.362 75.6726 163.5 75.0341 163.5C74.3205 163.5 73.6967 163.329 73.1622 162.985C72.627 162.64 72.2112 162.152 71.9126 161.524C71.6176 160.894 71.4701 160.153 71.4701 159.302C71.4701 158.66 71.5551 158.082 71.7251 157.565C71.8958 157.049 72.1367 156.607 72.4479 156.241C72.7619 155.873 73.1327 155.592 73.5612 155.398C73.9897 155.201 74.4631 155.103 74.9821 155.103C75.4289 155.103 75.8377 155.174 76.2071 155.314C76.5794 155.455 76.9067 155.65 77.1891 155.897C77.4736 156.142 77.7068 156.425 77.8873 156.747C78.0706 157.067 78.1949 157.407 78.2581 157.769H77.4925ZM89.7291 157.769H88.9789C88.9234 157.49 88.8223 157.232 88.6755 156.995C88.5322 156.756 88.351 156.546 88.1332 156.368C87.9148 156.19 87.6675 156.052 87.3908 155.953C87.114 155.854 86.8148 155.805 86.4924 155.805C85.9769 155.805 85.5055 155.94 85.0799 156.208C84.657 156.477 84.3178 156.872 84.0621 157.394C83.8092 157.912 83.6828 158.549 83.6828 159.302C83.6828 160.06 83.8092 160.698 84.0621 161.217C84.3178 161.736 84.657 162.13 85.0799 162.399C85.5055 162.664 85.9769 162.798 86.4924 162.798C86.8148 162.798 87.114 162.748 87.3908 162.65C87.6675 162.552 87.9148 162.414 88.1332 162.238C88.351 162.061 88.5322 161.851 88.6755 161.612C88.8223 161.372 88.9234 161.113 88.9789 160.834H89.7291C89.6631 161.209 89.538 161.559 89.354 161.884C89.1735 162.205 88.9417 162.488 88.66 162.729C88.3805 162.972 88.0588 163.161 87.6942 163.296C87.3297 163.432 86.9293 163.5 86.4924 163.5C85.8062 163.5 85.1972 163.329 84.6648 162.985C84.133 162.64 83.7151 162.152 83.4117 161.524C83.1111 160.896 82.9607 160.156 82.9607 159.302C82.9607 158.448 83.1111 157.707 83.4117 157.079C83.7151 156.451 84.133 155.965 84.6648 155.622C85.1972 155.276 85.8062 155.103 86.4924 155.103C86.9293 155.103 87.3297 155.171 87.6942 155.306C88.0588 155.44 88.3805 155.628 88.66 155.873C88.9417 156.116 89.1735 156.397 89.354 156.719C89.538 157.041 89.6631 157.391 89.7291 157.769ZM91.4823 163.388V155.214H94.1205C94.7007 155.214 95.1847 155.32 95.5731 155.53C95.9643 155.738 96.2579 156.026 96.4553 156.396C96.6548 156.763 96.7545 157.185 96.7545 157.661C96.7545 158.137 96.6548 158.558 96.4553 158.922C96.2579 159.287 95.9657 159.571 95.5773 159.777C95.1889 159.981 94.707 160.083 94.1325 160.083H91.8855V159.401H94.1128C94.5384 159.401 94.8918 159.331 95.1741 159.19C95.4586 159.049 95.67 158.848 95.8084 158.587C95.9496 158.326 96.0198 158.018 96.0198 157.661C96.0198 157.305 95.9496 156.994 95.8084 156.727C95.6679 156.458 95.4544 156.251 95.1699 156.104C94.8882 155.958 94.5314 155.885 94.1001 155.885H92.2289V163.388H91.4823ZM95.0863 159.701L97.098 163.388H96.2355L94.2441 159.701H95.0863ZM97.4991 155.214H98.3609L100.784 159.094H100.855L103.278 155.214H104.14L101.19 159.848V163.388H100.448V159.848L97.4991 155.214ZM105.542 163.388V155.214H108.179C108.759 155.214 109.244 155.327 109.632 155.55C110.023 155.771 110.317 156.071 110.514 156.452C110.713 156.832 110.813 157.261 110.813 157.737C110.813 158.213 110.715 158.643 110.518 159.026C110.321 159.406 110.029 159.708 109.64 159.932C109.252 160.153 108.769 160.263 108.192 160.263H106.116V159.593H108.171C108.6 159.593 108.955 159.513 109.237 159.353C109.519 159.191 109.729 158.97 109.868 158.691C110.009 158.412 110.079 158.094 110.079 157.737C110.079 157.381 110.009 157.062 109.868 156.783C109.729 156.504 109.518 156.284 109.233 156.125C108.951 155.965 108.594 155.885 108.159 155.885H106.288V163.388H105.542ZM112.07 155.885V155.214H117.997V155.885H115.407V163.388H114.661V155.885H112.07ZM126.038 159.302C126.038 160.153 125.886 160.894 125.583 161.524C125.28 162.152 124.862 162.64 124.329 162.985C123.801 163.329 123.191 163.5 122.502 163.5C121.813 163.5 121.202 163.329 120.67 162.985C120.14 162.64 119.724 162.152 119.421 161.524C119.12 160.894 118.97 160.153 118.97 159.302C118.97 158.45 119.12 157.71 119.421 157.083C119.724 156.452 120.142 155.965 120.674 155.622C121.206 155.276 121.816 155.103 122.502 155.103C123.191 155.103 123.801 155.276 124.329 155.622C124.862 155.965 125.28 156.452 125.583 157.083C125.886 157.71 126.038 158.45 126.038 159.302ZM125.311 159.302C125.311 158.57 125.189 157.943 124.944 157.421C124.7 156.897 124.366 156.497 123.942 156.22C123.52 155.944 123.039 155.805 122.502 155.805C121.967 155.805 121.488 155.944 121.065 156.22C120.642 156.497 120.307 156.896 120.06 157.418C119.814 157.939 119.692 158.567 119.692 159.302C119.692 160.033 119.814 160.659 120.06 161.181C120.304 161.703 120.638 162.103 121.061 162.382C121.484 162.659 121.964 162.798 122.502 162.798C123.039 162.798 123.52 162.659 123.942 162.382C124.368 162.106 124.704 161.707 124.948 161.185C125.193 160.661 125.314 160.033 125.311 159.302Z" fill="black"/>
<path d="M192.921 162.887V155.328L186.231 151.535L179.672 155.328V162.887L186.231 166.68L192.921 162.887ZM195.45 153.826V164.31L186.363 169.71L177.144 164.415V153.932L186.231 148.638L195.45 153.826Z" fill="#F59E0B"/>
<path d="M190.077 161.281L186.284 163.494L182.464 161.307L182.438 156.909L186.257 154.722L190.077 156.909V161.281Z" fill="#F59E0B"/>
<path d="M195.45 153.826V164.31L186.257 159.121L195.45 153.826Z" fill="url(#paint0_linear_231_1068)"/>
<path d="M204.3 161.623C203.773 161.808 203.246 161.887 202.694 161.887C201.297 161.887 200.454 161.096 200.454 159.753C200.454 158.568 200.928 157.646 201.613 157.119C202.14 156.751 202.799 156.54 203.431 156.566C203.958 156.566 204.485 156.645 204.985 156.829L205.564 154.985C205.301 154.854 204.563 154.643 203.615 154.643C202.378 154.643 201.297 154.907 200.376 155.486C198.953 156.355 197.952 157.883 197.952 160.043C197.952 162.413 199.611 163.862 202.035 163.862C203.141 163.862 203.931 163.704 204.405 163.494L204.3 161.623ZM208.409 163.836C210.701 163.836 212.413 162.229 212.413 159.701C212.413 158.173 211.306 157.014 209.542 157.014C207.145 157.014 205.538 158.831 205.538 161.123C205.538 162.835 206.723 163.836 208.409 163.836ZM208.699 162.124C208.172 162.124 207.882 161.729 207.882 161.096C207.882 160.306 208.278 158.726 209.252 158.726C209.831 158.726 210.069 159.174 210.069 159.727C210.069 160.649 209.647 162.124 208.699 162.124ZM215.126 163.678L216.364 157.145H214.099L212.861 163.678H215.126ZM215.468 156.513C216.153 156.513 216.759 156.066 216.759 155.302C216.759 154.669 216.285 154.248 215.679 154.248C214.994 154.222 214.441 154.749 214.415 155.434V155.46C214.415 156.118 214.863 156.513 215.468 156.513ZM218.84 163.678L219.367 160.886C219.63 159.543 220.183 158.831 220.736 158.831C221.105 158.831 221.237 159.095 221.237 159.463C221.237 159.701 221.21 159.911 221.158 160.148L220.5 163.678H222.765L223.502 159.911C223.555 159.543 223.608 159.174 223.608 158.805C223.608 157.778 223.107 157.04 221.922 157.04C221.105 157.04 220.315 157.383 219.683 158.199H219.657L219.762 157.198H217.786C217.681 157.804 217.575 158.542 217.417 159.437L216.601 163.73L218.84 163.678Z" fill="#F59E0B"/>
<path d="M224.135 163.678H226.373L227.005 160.306H227.427C228.112 160.306 228.454 160.57 228.533 161.57C228.638 162.703 228.744 163.388 228.823 163.652H231.141C230.956 163.283 230.878 161.992 230.772 161.07C230.667 160.306 230.456 159.753 229.982 159.516L230.008 159.463C231.167 159.069 231.984 158.304 231.984 156.961C232.01 156.171 231.562 155.46 230.851 155.118C230.166 154.722 229.244 154.643 228.402 154.643C227.532 154.643 226.663 154.722 225.82 154.88L224.135 163.678ZM227.743 156.513C227.953 156.487 228.191 156.461 228.402 156.461C229.06 156.461 229.613 156.751 229.613 157.356C229.613 158.146 228.928 158.647 228.033 158.647H227.321L227.743 156.513ZM237.541 161.676C236.962 161.939 236.33 162.071 235.697 162.071C235.171 162.071 234.776 161.939 234.538 161.729C234.433 161.623 234.354 161.465 234.302 161.307C236.988 161.386 238.464 160.702 238.464 159.069C238.464 157.752 237.41 157.014 236.04 157.014C233.59 157.014 232.168 159.016 232.168 160.991C232.168 162.809 233.221 163.81 235.145 163.81C235.803 163.81 236.804 163.704 237.699 163.283L237.541 161.676ZM236.356 159.095C236.356 159.516 235.882 159.701 234.513 159.701C234.618 159.095 235.171 158.647 235.777 158.673C236.146 158.647 236.356 158.858 236.356 159.095ZM241.018 163.678L241.519 160.886C241.756 159.648 242.282 158.805 242.862 158.805C243.205 158.805 243.336 159.069 243.336 159.463C243.336 159.701 243.31 159.937 243.257 160.175L242.599 163.652H244.758L245.285 160.86C245.523 159.595 246.023 158.778 246.576 158.778C246.892 158.778 247.076 159.042 247.076 159.411C247.076 159.674 247.05 159.911 246.998 160.175L246.366 163.652H248.551L249.21 159.911C249.289 159.543 249.316 159.174 249.342 158.778C249.342 157.725 248.868 157.014 247.735 157.014C246.866 157.014 246.049 157.435 245.575 158.146C245.523 157.672 245.075 157.014 244.021 157.014C243.152 157.014 242.309 157.435 241.808 158.146L241.914 157.145H239.991C239.912 157.752 239.807 158.489 239.648 159.385L238.858 163.678H241.018ZM252.239 163.678L253.477 157.145H251.212L249.974 163.678H252.239ZM252.582 156.513C253.267 156.513 253.872 156.066 253.872 155.302C253.872 154.669 253.398 154.248 252.793 154.248C252.108 154.222 251.554 154.749 251.528 155.434V155.46C251.502 156.013 251.923 156.487 252.476 156.513C252.476 156.513 252.529 156.513 252.582 156.513ZM255.4 155.96L255.163 157.172H254.373L254.03 158.884H254.82L254.373 161.176C254.294 161.57 254.241 161.966 254.241 162.387C254.241 163.256 254.847 163.836 256.085 163.836C256.533 163.836 257.06 163.783 257.323 163.678L257.612 161.913C257.428 161.913 257.244 161.913 257.086 161.913C256.664 161.913 256.559 161.676 256.559 161.412C256.586 161.176 256.612 160.912 256.664 160.675L257.033 158.884H258.35L258.693 157.172H257.376L257.718 155.328L255.4 155.96ZM260.22 155.96L259.983 157.172H259.193L258.851 158.884H259.641L259.193 161.176C259.114 161.57 259.062 161.966 259.062 162.387C259.062 163.256 259.667 163.836 260.905 163.836C261.353 163.836 261.88 163.783 262.143 163.678L262.433 161.913C262.248 161.913 262.064 161.913 261.906 161.913C261.485 161.913 261.379 161.676 261.379 161.412C261.379 161.176 261.432 160.912 261.485 160.675L261.854 158.884H263.171L263.513 157.172H262.196L262.538 155.328L260.22 155.96ZM268.913 161.676C268.333 161.939 267.701 162.071 267.069 162.071C266.542 162.071 266.147 161.939 265.91 161.729C265.805 161.623 265.725 161.465 265.673 161.307C268.359 161.386 269.834 160.702 269.834 159.069C269.834 157.752 268.781 157.014 267.411 157.014C264.962 157.014 263.539 159.016 263.539 160.991C263.539 162.809 264.593 163.81 266.515 163.81C267.174 163.81 268.175 163.704 269.071 163.283L268.913 161.676ZM267.727 159.095C267.727 159.516 267.253 159.701 265.883 159.701C265.989 159.095 266.542 158.647 267.148 158.673C267.516 158.647 267.727 158.858 267.727 159.095ZM272.468 163.678L272.89 161.439C273.127 160.253 273.575 159.2 274.892 159.2H275.208L275.656 157.014C275.524 157.014 275.418 156.987 275.287 157.014C274.391 157.014 273.654 157.619 273.18 158.462H273.127C273.18 158.041 273.206 157.593 273.232 157.172H271.283C271.204 157.725 271.125 158.91 270.941 159.964L270.23 163.704H272.468V163.678Z" fill="black"/>
</g>
<g opacity="0.5">
<path d="M289.704 190.782L29.8146 190.782V239.95H289.704V190.782Z" fill="#F5F5F5"/>
<path d="M289.352 191.133L30.1656 191.133V239.599L289.352 239.599V191.133Z" stroke="black" stroke-opacity="0.2"/>
<path d="M44.9482 219.581V211.407H47.5863C48.1662 211.407 48.6505 211.519 49.039 211.742C49.4301 211.963 49.724 212.264 49.9209 212.644C50.1205 213.024 50.2203 213.453 50.2203 213.929C50.2203 214.405 50.1218 214.835 49.9249 215.219C49.728 215.599 49.4353 215.901 49.0469 216.124C48.6585 216.345 48.1756 216.456 47.5982 216.456H45.5229V215.785H47.5783C48.0066 215.785 48.3618 215.705 48.6439 215.545C48.9259 215.383 49.136 215.162 49.2744 214.883C49.4154 214.604 49.4859 214.286 49.4859 213.929C49.4859 213.573 49.4154 213.255 49.2744 212.975C49.136 212.696 48.9245 212.476 48.6399 212.317C48.3578 212.158 48 212.077 47.5663 212.077H45.6945V219.581H44.9482ZM51.1501 219.581H50.3679L53.3412 211.407H54.1393L57.1126 219.581H56.3303L53.7682 212.377H53.7123L51.1501 219.581ZM51.7129 216.448H55.7676V217.118H51.7129V216.448ZM56.913 211.407H57.7751L60.1976 215.286H60.2694L62.6919 211.407H63.5539L60.6047 216.04V219.581H59.8623V216.04L56.913 211.407ZM69.5371 219.581L67.2986 211.407H68.0565L69.9087 218.435H69.9726L71.8241 211.407H72.686L74.5382 218.435H74.6022L76.4537 211.407H77.2158L74.9772 219.581H74.1786L72.2828 212.648H72.2315L70.3358 219.581H69.5371ZM79.3111 211.407V219.581H78.5651V211.407H79.3111ZM80.9891 212.077V211.407H86.916V212.077H84.3255V219.581H83.5796V212.077H80.9891ZM88.5961 219.581V211.407H89.3421V215.155H93.98V211.407H94.726V219.581H93.98V215.825H89.3421V219.581H88.5961Z" fill="black"/>
<path d="M275.656 204.83H212.439V225.902H275.656V204.83Z" fill="#737373"/>
</g>
<g opacity="0.5">
<path d="M289.704 246.974L29.8146 246.974V296.142H289.704V246.974Z" fill="#F5F5F5"/>
<path d="M289.352 247.325L30.1656 247.325V295.791H289.352V247.325Z" stroke="black" stroke-opacity="0.2"/>
<path d="M44.9482 275.773V267.599H47.5863C48.1662 267.599 48.6505 267.711 49.039 267.935C49.4301 268.155 49.724 268.456 49.9209 268.837C50.1205 269.217 50.2203 269.645 50.2203 270.121C50.2203 270.597 50.1218 271.027 49.9249 271.411C49.728 271.791 49.4353 272.093 49.0469 272.316C48.6585 272.538 48.1756 272.648 47.5982 272.648H45.5229V271.977H47.5783C48.0066 271.977 48.3618 271.898 48.6439 271.737C48.9259 271.575 49.136 271.355 49.2744 271.075C49.4154 270.796 49.4859 270.478 49.4859 270.121C49.4859 269.765 49.4154 269.447 49.2744 269.167C49.136 268.889 48.9245 268.669 48.6399 268.509C48.3578 268.35 48 268.27 47.5663 268.27H45.6945V275.773H44.9482ZM51.1501 275.773H50.3679L53.3412 267.599H54.1393L57.1126 275.773H56.3303L53.7682 268.569H53.7123L51.1501 275.773ZM51.7129 272.64H55.7676V273.31H51.7129V272.64ZM56.913 267.599H57.7751L60.1976 271.478H60.2694L62.6919 267.599H63.5539L60.6047 272.233V275.773H59.8623V272.233L56.913 267.599ZM69.5371 275.773L67.2986 267.599H68.0565L69.9087 274.627H69.9726L71.8241 267.599H72.686L74.5382 274.627H74.6022L76.4537 267.599H77.2158L74.9772 275.773H74.1786L72.2828 268.84H72.2315L70.3358 275.773H69.5371ZM79.3111 267.599V275.773H78.5651V267.599H79.3111ZM80.9891 268.27V267.599H86.916V268.27H84.3255V275.773H83.5796V268.27H80.9891ZM88.5961 275.773V267.599H89.3421V271.347H93.98V267.599H94.726V275.773H93.98V272.017H89.3421V275.773H88.5961Z" fill="black"/>
<path d="M275.656 261.022H212.439V282.094H275.656V261.022Z" fill="#737373"/>
</g>
<g opacity="0.5">
<path d="M289.704 303.167H29.8146V352.335H289.704V303.167Z" fill="#F5F5F5"/>
<path d="M289.352 303.518H30.1656V351.984H289.352V303.518Z" stroke="black" stroke-opacity="0.2"/>
<path d="M44.9482 331.965V323.791H47.5863C48.1662 323.791 48.6505 323.904 49.039 324.127C49.4301 324.347 49.724 324.648 49.9209 325.029C50.1205 325.409 50.2203 325.837 50.2203 326.314C50.2203 326.79 50.1218 327.22 49.9249 327.603C49.728 327.983 49.4353 328.285 49.0469 328.509C48.6585 328.73 48.1756 328.84 47.5982 328.84H45.5229V328.169H47.5783C48.0066 328.169 48.3618 328.09 48.6439 327.93C48.9259 327.768 49.136 327.547 49.2744 327.267C49.4154 326.989 49.4859 326.67 49.4859 326.314C49.4859 325.957 49.4154 325.639 49.2744 325.36C49.136 325.081 48.9245 324.861 48.6399 324.702C48.3578 324.542 48 324.462 47.5663 324.462H45.6945V331.965H44.9482ZM51.1501 331.965H50.3679L53.3412 323.791H54.1393L57.1126 331.965H56.3303L53.7682 324.761H53.7123L51.1501 331.965ZM51.7129 328.832H55.7676V329.502H51.7129V328.832ZM56.913 323.791H57.7751L60.1976 327.671H60.2694L62.6919 323.791H63.5539L60.6047 328.425V331.965H59.8623V328.425L56.913 323.791ZM69.5371 331.965L67.2986 323.791H68.0565L69.9087 330.819H69.9726L71.8241 323.791H72.686L74.5382 330.819H74.6022L76.4537 323.791H77.2158L74.9772 331.965H74.1786L72.2828 325.032H72.2315L70.3358 331.965H69.5371ZM79.3111 323.791V331.965H78.5651V323.791H79.3111ZM80.9891 324.462V323.791H86.916V324.462H84.3255V331.965H83.5796V324.462H80.9891ZM88.5961 331.965V323.791H89.3421V327.539H93.98V323.791H94.726V331.965H93.98V328.209H89.3421V331.965H88.5961Z" fill="black"/>
<path d="M275.656 317.215H212.439V338.287H275.656V317.215Z" fill="#737373"/>
</g>
<defs>
<filter id="filter0_d_231_1068" x="9.66565" y="114.441" width="300.187" height="89.4658" filterUnits="userSpaceOnUse" color-interpolation-filters="sRGB">
<feFlood flood-opacity="0" result="BackgroundImageFix"/>
<feColorMatrix in="SourceAlpha" type="matrix" values="0 0 0 0 0 0 0 0 0 0 0 0 0 0 0 0 0 0 127 0" result="hardAlpha"/>
<feOffset/>
<feGaussianBlur stdDeviation="10"/>
<feComposite in2="hardAlpha" operator="out"/>
<feColorMatrix type="matrix" values="0 0 0 0 0 0 0 0 0 0 0 0 0 0 0 0 0 0 0.1 0"/>
<feBlend mode="normal" in2="BackgroundImageFix" result="effect1_dropShadow_231_1068"/>
<feBlend mode="normal" in="SourceGraphic" in2="effect1_dropShadow_231_1068" result="shape"/>
</filter>
<linearGradient id="paint0_linear_231_1068" x1="190.18" y1="162.347" x2="195.941" y2="156.879" gradientUnits="userSpaceOnUse">
<stop stop-color="#F59E0B"/>
<stop offset="1" stop-color="#F6C61C"/>
</linearGradient>
</defs>
</svg>
