<svg width="319" height="382" viewBox="0 0 319 382" fill="none" xmlns="http://www.w3.org/2000/svg">
<path d="M317.164 1.36652L1.08301 1.36652L1.08301 380.664H317.164V1.36652Z" fill="white"/>
<path d="M317.515 1.0153L0.731689 1.0153L0.731689 381.015H317.515V1.0153Z" stroke="#22C55E"/>
<path d="M317.164 1.36652L1.08301 1.36652V106.727H317.164V1.36652Z" fill="#22C55E"/>
<path d="M32.1485 37.5721V49.8323H30.6639V37.5721H32.1485ZM48.2186 37.5721V49.8323H46.7819L40.1011 40.2062H39.9814V49.8323H38.4967V37.5721H39.9335L46.6382 47.2222H46.758V37.5721H48.2186ZM55.0637 37.5721L58.7035 47.8927H58.8471L62.4869 37.5721H64.0431L59.5415 49.8323H58.009L53.5073 37.5721H55.0637ZM79.0928 43.7022C79.0928 44.9953 78.8596 46.1127 78.3925 47.0546C77.9254 47.9965 77.2848 48.7228 76.4707 49.2336C75.6566 49.7445 74.7266 49.9999 73.6815 49.9999C72.6356 49.9999 71.7056 49.7445 70.8915 49.2336C70.0774 48.7228 69.4368 47.9965 68.9697 47.0546C68.5027 46.1127 68.2695 44.9953 68.2695 43.7022C68.2695 42.4092 68.5027 41.2917 68.9697 40.3499C69.4368 39.408 70.0774 38.6817 70.8915 38.1708C71.7056 37.6599 72.6356 37.4045 73.6815 37.4045C74.7266 37.4045 75.6566 37.6599 76.4707 38.1708C77.2848 38.6817 77.9254 39.408 78.3925 40.3499C78.8596 41.2917 79.0928 42.4092 79.0928 43.7022ZM77.6564 43.7022C77.6564 42.6407 77.4787 41.7447 77.1232 41.0143C76.772 40.284 76.2951 39.7313 75.6925 39.3561C75.094 38.981 74.4232 38.7934 73.6815 38.7934C72.939 38.7934 72.2661 38.981 71.6635 39.3561C71.065 39.7313 70.5881 40.284 70.2327 41.0143C69.8815 41.7447 69.7059 42.6407 69.7059 43.7022C69.7059 44.7638 69.8815 45.6597 70.2327 46.3901C70.5881 47.1205 71.065 47.6732 71.6635 48.0483C72.2661 48.4235 72.939 48.6111 73.6815 48.6111C74.4232 48.6111 75.094 48.4235 75.6925 48.0483C76.2951 47.6732 76.772 47.1205 77.1232 46.3901C77.4787 45.6597 77.6564 44.7638 77.6564 43.7022ZM86.4455 37.5721V49.8323H84.9607V37.5721H86.4455ZM102.659 41.4035H101.174C101.086 40.9764 100.933 40.6013 100.713 40.278C100.498 39.9548 100.234 39.6834 99.9232 39.4639C99.6163 39.2403 99.2749 39.0728 98.8998 38.961C98.5248 38.8493 98.1335 38.7934 97.7261 38.7934C96.9837 38.7934 96.3115 38.981 95.7088 39.3561C95.1104 39.7313 94.6334 40.284 94.278 41.0143C93.9268 41.7447 93.7512 42.6407 93.7512 43.7022C93.7512 44.7638 93.9268 45.6597 94.278 46.3901C94.6334 47.1205 95.1104 47.6732 95.7088 48.0483C96.3115 48.4235 96.9837 48.6111 97.7261 48.6111C98.1335 48.6111 98.5248 48.5552 98.8998 48.4434C99.2749 48.3317 99.6163 48.1661 99.9232 47.9466C100.234 47.7231 100.498 47.4497 100.713 47.1264C100.933 46.7992 101.086 46.424 101.174 46.001H102.659C102.547 46.6276 102.344 47.1883 102.049 47.6832C101.753 48.1781 101.386 48.5991 100.947 48.9463C100.508 49.2896 100.015 49.5509 99.4681 49.7305C98.9258 49.9101 98.3449 49.9999 97.7261 49.9999C96.6809 49.9999 95.751 49.7445 94.9369 49.2336C94.1228 48.7228 93.4822 47.9965 93.0151 47.0546C92.548 46.1127 92.3148 44.9953 92.3148 43.7022C92.3148 42.4092 92.548 41.2917 93.0151 40.3499C93.4822 39.408 94.1228 38.6817 94.9369 38.1708C95.751 37.6599 96.6809 37.4045 97.7261 37.4045C98.3449 37.4045 98.9258 37.4943 99.4681 37.6739C100.015 37.8535 100.508 38.1169 100.947 38.4641C101.386 38.8074 101.753 39.2264 102.049 39.7213C102.344 40.2122 102.547 40.7729 102.659 41.4035ZM108.43 49.8323V37.5721H115.829V38.8891H109.914V43.0318H115.446V44.3488H109.914V48.5153H115.925V49.8323H108.43ZM35.0459 70.2016L37.0573 57.9418H38.2546L36.2431 70.2016H35.0459ZM29.4666 66.802L29.6581 65.6044H38.8053L38.6137 66.802H29.4666ZM30.7357 70.2016L32.7471 57.9418H33.9444L31.933 70.2016H30.7357ZM30.1849 62.5394L30.3765 61.3422H39.5237L39.3322 62.5394H30.1849ZM44.6702 70.2016V57.9418H48.9565C49.8105 57.9418 50.5149 58.0895 51.0696 58.3848C51.6244 58.6762 52.0374 59.0693 52.3088 59.5642C52.5802 60.0551 52.7159 60.5998 52.7159 61.1984C52.7159 61.7252 52.6221 62.1602 52.4346 62.5035C52.251 62.8467 52.0075 63.1181 51.7042 63.3174C51.4049 63.5169 51.0796 63.6651 50.7284 63.7606V63.88C51.1036 63.9046 51.4807 64.0359 51.8599 64.2755C52.239 64.515 52.5563 64.8585 52.8117 65.3052C53.0671 65.7519 53.1948 66.2991 53.1948 66.9453C53.1948 67.5599 53.0551 68.1127 52.7758 68.6037C52.4964 69.0946 52.0554 69.4838 51.4527 69.7711C50.8501 70.0583 50.0659 70.2016 49.1001 70.2016H44.6702ZM46.1548 68.8846H49.1001C50.0699 68.8846 50.7583 68.6971 51.1654 68.322C51.5765 67.9434 51.782 67.484 51.782 66.9453C51.782 66.5302 51.6762 66.1474 51.4647 65.7962C51.2532 65.4407 50.9519 65.1577 50.5608 64.9463C50.1697 64.7306 49.7067 64.6224 49.172 64.6224H46.1548V68.8846ZM46.1548 63.3293H48.9086C49.3555 63.3293 49.7586 63.2415 50.1178 63.0662C50.481 62.8906 50.7683 62.6431 50.9798 62.3239C51.1954 62.0046 51.3031 61.6294 51.3031 61.1984C51.3031 60.6597 51.1155 60.2027 50.7404 59.8276C50.3652 59.4484 49.7706 59.2588 48.9565 59.2588H46.1548V63.3293ZM58.3353 59.2588V57.9418H67.5305V59.2588H63.675V70.2016H62.1906V59.2588H58.3353ZM82.5486 61.7732H81.0637C80.9759 61.3461 80.8221 60.9709 80.6029 60.6477C80.3873 60.3244 80.1239 60.053 79.8127 59.8335C79.5051 59.61 79.1644 59.4424 78.7893 59.3307C78.4136 59.2189 78.023 59.1631 77.6156 59.1631C76.8732 59.1631 76.201 59.3506 75.5983 59.7258C74.9999 60.1009 74.5229 60.6537 74.1675 61.384C73.8163 62.1144 73.6407 63.0104 73.6407 64.0718C73.6407 65.1338 73.8163 66.0294 74.1675 66.7599C74.5229 67.4904 74.9999 68.0431 75.5983 68.4182C76.201 68.7933 76.8732 68.9809 77.6156 68.9809C78.023 68.9809 78.4136 68.9247 78.7893 68.813C79.1644 68.7013 79.5051 68.5355 79.8127 68.3164C80.1239 68.093 80.3873 67.8191 80.6029 67.496C80.8221 67.1687 80.9759 66.7936 81.0637 66.3707H82.5486C82.4369 66.9973 82.2332 67.5578 81.9375 68.053C81.6425 68.5475 81.2751 68.9689 80.8361 69.3159C80.3971 69.6594 79.9048 69.9207 79.3576 70.1005C78.8146 70.2796 78.2344 70.3695 77.6156 70.3695C76.5698 70.3695 75.6405 70.1138 74.8257 69.6032C74.0116 69.0925 73.371 68.3662 72.9046 67.4243C72.4375 66.4824 72.2043 65.3649 72.2043 64.0718C72.2043 62.7789 72.4375 61.6614 72.9046 60.7195C73.371 59.7777 74.0116 59.0513 74.8257 58.5405C75.6405 58.0296 76.5698 57.7742 77.6156 57.7742C78.2344 57.7742 78.8146 57.864 79.3576 58.0436C79.9048 58.2232 80.3971 58.4866 80.8361 58.8338C81.2751 59.1771 81.6425 59.5961 81.9375 60.091C82.2332 60.5819 82.4369 61.1426 82.5486 61.7732ZM88.9384 57.9418L92.0992 63.0423H92.1954L95.3562 57.9418H97.1038L93.249 64.0718L97.1038 70.2016H95.3562L92.1954 65.197H92.0992L88.9384 70.2016H87.1908L91.1418 64.0718L87.1908 57.9418H88.9384ZM103.126 57.9418L106.287 63.0423H106.383L109.543 57.9418H111.292L107.436 64.0718L111.292 70.2016H109.543L106.383 65.197H106.287L103.126 70.2016H101.378L105.329 64.0718L101.378 57.9418H103.126ZM117.313 57.9418L120.474 63.0423H120.57L123.731 57.9418H125.479L121.624 64.0718L125.479 70.2016H123.731L120.57 65.197H120.474L117.313 70.2016H115.566L119.517 64.0718L115.566 57.9418H117.313ZM131.501 57.9418L134.662 63.0423H134.757L137.918 57.9418H139.667L135.811 64.0718L139.667 70.2016H137.918L134.757 65.197H134.662L131.501 70.2016H129.753L133.704 64.0718L129.753 57.9418H131.501Z" fill="white"/>
<path opacity="0.4" d="M244.499 70.968V60.6238L264.23 29.5903H273.617V43.383H268.253L257.622 60.2407V60.6238H286.739V70.968H244.499ZM268.349 78.6305V67.8072L268.637 63.3055V29.5903H281.088V78.6305H268.349Z" fill="white"/>
<path d="M159.123 134.823L223.603 172.05V246.505L159.123 283.732L94.6436 246.505V172.05L159.123 134.823Z" fill="#22C55E"/>
<path fill-rule="evenodd" clip-rule="evenodd" d="M192.839 193.201L161.484 228.945L142.266 212.087L145.972 207.901L160.978 221.067L188.695 189.61L192.839 193.201ZM129.114 207.901L148.318 224.786L144.626 228.945L125.408 212.087L129.114 207.901ZM155.182 208.513L171.818 189.61L175.981 193.22L159.346 212.202L155.182 208.513Z" fill="white"/>
<path d="M88.512 315.724V311.701H104.496V315.724H98.9644V330.091H94.0434V315.724H88.512ZM111.403 322.333V330.091H106.446V311.701H111.224V318.92H111.367C111.679 318.04 112.197 317.355 112.921 316.864C113.645 316.367 114.516 316.119 115.534 316.119C116.51 316.119 117.357 316.34 118.075 316.783C118.8 317.226 119.359 317.837 119.754 318.615C120.155 319.393 120.353 320.285 120.347 321.291V330.091H115.39V322.333C115.396 321.65 115.226 321.115 114.879 320.726C114.537 320.336 114.049 320.142 113.415 320.142C113.014 320.142 112.661 320.232 112.355 320.411C112.056 320.584 111.823 320.836 111.655 321.165C111.493 321.488 111.41 321.878 111.403 322.333ZM126.637 330.306C125.758 330.306 124.979 330.163 124.303 329.876C123.632 329.582 123.105 329.139 122.722 328.547C122.339 327.954 122.147 327.2 122.147 326.284C122.147 325.529 122.276 324.886 122.534 324.353C122.791 323.814 123.15 323.374 123.611 323.033C124.072 322.692 124.608 322.432 125.219 322.252C125.835 322.072 126.499 321.955 127.212 321.901C127.984 321.842 128.604 321.77 129.071 321.686C129.544 321.597 129.885 321.474 130.094 321.318C130.304 321.156 130.409 320.944 130.409 320.681V320.645C130.409 320.285 130.271 320.01 129.996 319.818C129.721 319.627 129.367 319.531 128.936 319.531C128.463 319.531 128.077 319.636 127.778 319.845C127.484 320.049 127.308 320.363 127.248 320.788H122.686C122.746 319.95 123.013 319.178 123.485 318.472C123.964 317.759 124.662 317.19 125.578 316.765C126.494 316.334 127.637 316.119 129.008 316.119C129.996 316.119 130.882 316.236 131.666 316.469C132.45 316.697 133.117 317.017 133.668 317.43C134.219 317.837 134.638 318.316 134.925 318.866C135.219 319.411 135.366 320.004 135.366 320.645V330.091H130.732V328.151H130.625C130.349 328.666 130.013 329.082 129.619 329.4C129.23 329.717 128.784 329.947 128.281 330.091C127.784 330.235 127.236 330.306 126.637 330.306ZM128.254 327.181C128.631 327.181 128.984 327.104 129.313 326.948C129.648 326.792 129.921 326.568 130.13 326.275C130.34 325.982 130.445 325.626 130.445 325.206V324.057C130.313 324.11 130.172 324.162 130.023 324.209C129.879 324.257 129.723 324.302 129.555 324.344C129.394 324.386 129.22 324.425 129.035 324.461C128.855 324.497 128.667 324.53 128.469 324.559C128.086 324.62 127.772 324.718 127.526 324.856C127.287 324.988 127.108 325.152 126.987 325.349C126.874 325.541 126.817 325.757 126.817 325.996C126.817 326.379 126.952 326.673 127.221 326.877C127.49 327.08 127.835 327.181 128.254 327.181ZM142.69 322.333V330.091H137.734V316.298H142.439V318.92H142.583C142.882 318.047 143.409 317.361 144.163 316.864C144.923 316.367 145.81 316.119 146.821 316.119C147.797 316.119 148.644 316.343 149.363 316.792C150.087 317.235 150.647 317.846 151.041 318.624C151.442 319.402 151.64 320.291 151.634 321.291V330.091H146.677V322.333C146.684 321.65 146.51 321.115 146.157 320.726C145.81 320.336 145.324 320.142 144.702 320.142C144.295 320.142 143.939 320.232 143.634 320.411C143.334 320.584 143.103 320.836 142.942 321.165C142.78 321.488 142.697 321.878 142.69 322.333ZM158.535 326.822L158.571 320.932H159.217L162.558 316.298H168.125L162.522 323.518H161.121L158.535 326.822ZM154.081 330.091V311.701H159.038V330.091H154.081ZM162.594 330.091L159.433 324.632L162.665 321.111L168.269 330.091H162.594ZM173.628 311.701H179.195L182.786 319.172H182.93L186.522 311.701H192.09L185.337 324.309V330.091H180.38V324.309L173.628 311.701ZM196.927 330.342C195.43 330.342 194.15 330.046 193.084 329.454C192.018 328.855 191.201 328.023 190.632 326.957C190.064 325.885 189.779 324.644 189.779 323.23C189.779 321.818 190.064 320.579 190.632 319.513C191.201 318.441 192.018 317.61 193.084 317.017C194.15 316.418 195.43 316.119 196.927 316.119C198.424 316.119 199.705 316.418 200.771 317.017C201.836 317.61 202.653 318.441 203.222 319.513C203.79 320.579 204.075 321.818 204.075 323.23C204.075 324.644 203.79 325.885 203.222 326.957C202.653 328.023 201.836 328.855 200.771 329.454C199.705 330.046 198.424 330.342 196.927 330.342ZM196.963 326.679C197.382 326.679 197.744 326.538 198.05 326.257C198.355 325.975 198.591 325.574 198.759 325.054C198.927 324.533 199.01 323.913 199.01 323.195C199.01 322.47 198.927 321.851 198.759 321.336C198.591 320.815 198.355 320.414 198.05 320.133C197.744 319.851 197.382 319.711 196.963 319.711C196.52 319.711 196.14 319.851 195.823 320.133C195.505 320.414 195.263 320.815 195.095 321.336C194.928 321.851 194.844 322.47 194.844 323.195C194.844 323.913 194.928 324.533 195.095 325.054C195.263 325.574 195.505 325.975 195.823 326.257C196.14 326.538 196.52 326.679 196.963 326.679ZM215.03 324.057V316.298H219.987V330.091H215.282V327.469H215.138C214.838 328.349 214.314 329.037 213.566 329.534C212.818 330.025 211.929 330.271 210.899 330.271C209.936 330.271 209.091 330.049 208.367 329.606C207.649 329.163 207.089 328.552 206.688 327.774C206.293 326.996 206.092 326.104 206.086 325.099V316.298H211.043V324.057C211.049 324.739 211.222 325.275 211.564 325.664C211.911 326.053 212.396 326.248 213.018 326.248C213.431 326.248 213.788 326.161 214.088 325.987C214.392 325.807 214.626 325.557 214.788 325.233C214.955 324.904 215.036 324.512 215.03 324.057ZM228.255 311.701L227.788 324.344H223.693L223.226 311.701H228.255ZM225.74 330.379C225.046 330.379 224.45 330.136 223.953 329.651C223.462 329.16 223.22 328.564 223.226 327.864C223.22 327.181 223.462 326.598 223.953 326.113C224.45 325.628 225.046 325.386 225.74 325.386C226.399 325.386 226.979 325.628 227.482 326.113C227.992 326.598 228.249 327.181 228.255 327.864C228.249 328.331 228.126 328.756 227.886 329.139C227.653 329.516 227.347 329.819 226.971 330.046C226.594 330.268 226.184 330.379 225.74 330.379Z" fill="#22C55E"/>
<path d="M32.0596 345.272V344.394H38.1896V345.272H35.6195V352.568H34.6297V345.272H32.0596ZM40.5313 348.88V352.568H39.5894V344.394H40.5313V347.396H40.6111C40.7548 347.079 40.9703 346.828 41.2576 346.641C41.5476 346.453 41.9335 346.358 42.415 346.358C42.8327 346.358 43.1986 346.442 43.5125 346.61C43.8264 346.774 44.0699 347.028 44.2428 347.372C44.4184 347.713 44.5062 348.146 44.5062 348.673V352.568H43.5644V348.737C43.5644 348.25 43.438 347.873 43.1853 347.607C42.9352 347.338 42.588 347.204 42.1436 347.204C41.835 347.204 41.5583 347.269 41.3135 347.4C41.0714 347.53 40.8799 347.72 40.7388 347.97C40.6004 348.22 40.5313 348.524 40.5313 348.88ZM48.7995 352.695C48.2089 352.695 47.6993 352.566 47.2709 352.304C46.8453 352.041 46.5167 351.674 46.2852 351.203C46.0564 350.729 45.942 350.179 45.942 349.551C45.942 348.923 46.0564 348.369 46.2852 347.89C46.5167 347.409 46.8386 347.034 47.251 346.765C47.666 346.494 48.1503 346.358 48.7037 346.358C49.023 346.358 49.3383 346.411 49.6496 346.518C49.9609 346.624 50.2442 346.797 50.4996 347.036C50.7551 347.274 50.9586 347.588 51.1102 347.978C51.2619 348.369 51.3377 348.851 51.3377 349.423V349.822H46.6124V349.008H50.3799C50.3799 348.662 50.3107 348.353 50.1724 348.082C50.0367 347.811 49.8424 347.597 49.5897 347.439C49.3396 347.283 49.0442 347.204 48.7037 347.204C48.3286 347.204 48.004 347.297 47.7299 347.484C47.4586 347.667 47.2497 347.906 47.1034 348.202C46.957 348.497 46.8839 348.814 46.8839 349.152V349.695C46.8839 350.158 46.9636 350.55 47.1233 350.872C47.2856 351.191 47.5104 351.435 47.7977 351.602C48.0851 351.767 48.419 351.85 48.7995 351.85C49.0469 351.85 49.2704 351.815 49.47 351.746C49.6722 351.674 49.8464 351.567 49.9928 351.426C50.1391 351.283 50.2522 351.105 50.332 350.892L51.2419 351.147C51.1462 351.456 50.9852 351.728 50.759 351.961C50.5329 352.193 50.2535 352.374 49.921 352.504C49.5884 352.632 49.2146 352.695 48.7995 352.695ZM55.9313 354.867V346.438H56.8412V347.412H56.9529C57.0221 347.305 57.1179 347.17 57.2403 347.005C57.3653 346.837 57.5436 346.688 57.7751 346.558C58.0092 346.424 58.3259 346.358 58.7249 346.358C59.2411 346.358 59.696 346.487 60.0898 346.745C60.4836 347.003 60.7909 347.369 61.0117 347.843C61.2325 348.316 61.343 348.875 61.343 349.519C61.343 350.168 61.2325 350.731 61.0117 351.207C60.7909 351.68 60.4849 352.048 60.0938 352.308C59.7027 352.567 59.2517 352.695 58.7409 352.695C58.3471 352.695 58.0318 352.63 57.795 352.5C57.5583 352.367 57.376 352.216 57.2483 352.049C57.1206 351.879 57.0221 351.738 56.9529 351.626H56.8731V354.867H55.9313ZM56.8572 349.503C56.8572 349.966 56.925 350.374 57.0607 350.728C57.1964 351.079 57.3946 351.355 57.6553 351.554C57.9161 351.751 58.2354 351.85 58.6132 351.85C59.007 351.85 59.3356 351.746 59.599 351.539C59.865 351.328 60.0645 351.046 60.1975 350.692C60.3333 350.335 60.4011 349.939 60.4011 349.503C60.4011 349.072 60.3346 348.683 60.2016 348.338C60.0712 347.989 59.873 347.713 59.6069 347.512C59.3435 347.307 59.0122 347.204 58.6132 347.204C58.23 347.204 57.9081 347.301 57.6474 347.496C57.3866 347.687 57.1897 347.956 57.0567 348.302C56.9237 348.645 56.8572 349.045 56.8572 349.503ZM64.5838 352.712C64.1954 352.712 63.8428 352.639 63.526 352.492C63.2092 352.343 62.958 352.129 62.7717 351.85C62.5855 351.567 62.4924 351.227 62.4924 350.828C62.4924 350.477 62.5616 350.192 62.6999 349.974C62.8382 349.753 63.0232 349.58 63.2549 349.455C63.486 349.33 63.7417 349.237 64.0212 349.176C64.3029 349.112 64.5859 349.061 64.8711 349.024C65.2434 348.976 65.5454 348.94 65.7772 348.917C66.0111 348.89 66.1811 348.846 66.2879 348.784C66.3967 348.723 66.4515 348.617 66.4515 348.466V348.433C66.4515 348.04 66.3434 347.734 66.1284 347.515C65.9149 347.297 65.5918 347.188 65.1584 347.188C64.7089 347.188 64.3563 347.287 64.1006 347.484C63.8456 347.68 63.6658 347.89 63.5618 348.114L62.668 347.795C62.8276 347.423 63.0405 347.132 63.3062 346.925C63.5752 346.714 63.8681 346.568 64.1842 346.486C64.5038 346.401 64.8177 346.358 65.1261 346.358C65.3235 346.358 65.5496 346.382 65.8046 346.43C66.0631 346.475 66.3118 346.57 66.5513 346.713C66.7929 346.857 66.9938 347.074 67.1539 347.364C67.3134 347.654 67.3935 348.042 67.3935 348.529V352.568H66.4515V351.738H66.4038C66.3398 351.871 66.2331 352.013 66.0842 352.165C65.9353 352.317 65.7372 352.445 65.4892 352.552C65.242 352.658 64.94 352.712 64.5838 352.712ZM64.7271 351.865C65.1001 351.865 65.4134 351.792 65.6691 351.646C65.9275 351.5 66.1214 351.311 66.252 351.079C66.3848 350.848 66.4515 350.604 66.4515 350.349V349.487C66.4115 349.535 66.3237 349.579 66.1881 349.619C66.0547 349.656 65.9008 349.689 65.7252 349.719C65.5518 349.745 65.3832 349.769 65.2181 349.79C65.0559 349.809 64.9245 349.825 64.8234 349.838C64.5782 349.87 64.3492 349.922 64.1364 349.994C63.9264 350.063 63.7564 350.168 63.6258 350.309C63.4979 350.448 63.434 350.636 63.434 350.876C63.434 351.203 63.5555 351.451 63.7971 351.618C64.0423 351.783 64.352 351.865 64.7271 351.865ZM69.4993 354.867C69.3398 354.867 69.1972 354.853 69.0722 354.827C68.9472 354.803 68.8608 354.779 68.813 354.755L69.0525 353.925C69.2815 353.984 69.4838 354.005 69.6594 353.989C69.835 353.972 69.9902 353.894 70.1258 353.753C70.2642 353.615 70.3906 353.39 70.5051 353.079L70.6807 352.6L68.414 346.438H69.4353L71.1274 351.323H71.1913L72.8834 346.438H73.9054L71.303 353.462C71.1864 353.779 71.041 354.041 70.8682 354.248C70.6954 354.459 70.4946 354.614 70.2656 354.715C70.0394 354.816 69.7844 354.867 69.4993 354.867ZM75.1487 352.568V346.438H76.0583V347.396H76.1384C76.2662 347.068 76.472 346.814 76.7572 346.634C77.0417 346.45 77.3837 346.358 77.7827 346.358C78.1873 346.358 78.5237 346.45 78.792 346.634C79.0639 346.814 79.2753 347.068 79.427 347.396H79.4909C79.6476 347.079 79.8829 346.828 80.1968 346.641C80.5108 346.453 80.8873 346.358 81.3263 346.358C81.8749 346.358 82.323 346.53 82.6714 346.873C83.0198 347.213 83.194 347.744 83.194 348.466V352.568H82.2521V348.466C82.2521 348.013 82.1285 347.689 81.8812 347.496C81.634 347.301 81.3425 347.204 81.0074 347.204C80.5761 347.204 80.2425 347.335 80.0058 347.595C79.7684 347.853 79.6504 348.18 79.6504 348.577V352.568H78.6923V348.369C78.6923 348.021 78.5792 347.74 78.353 347.527C78.1269 347.312 77.8361 347.204 77.4793 347.204C77.2348 347.204 77.0058 347.269 76.793 347.4C76.583 347.53 76.4123 347.711 76.2817 347.942C76.1545 348.171 76.0906 348.436 76.0906 348.737V352.568H75.1487ZM87.4864 352.695C86.8957 352.695 86.3864 352.566 85.958 352.304C85.5323 352.041 85.2036 351.674 84.9725 351.203C84.7435 350.729 84.629 350.179 84.629 349.551C84.629 348.923 84.7435 348.369 84.9725 347.89C85.2036 347.409 85.526 347.034 85.9383 346.765C86.3534 346.494 86.8374 346.358 87.3909 346.358C87.7097 346.358 88.0251 346.411 88.3363 346.518C88.6482 346.624 88.9312 346.797 89.1869 347.036C89.4419 347.274 89.6456 347.588 89.7973 347.978C89.949 348.369 90.0249 348.851 90.0249 349.423V349.822H85.2998V349.008H89.0668C89.0668 348.662 88.998 348.353 88.8596 348.082C88.724 347.811 88.5294 347.597 88.2766 347.439C88.0265 347.283 87.7315 347.204 87.3909 347.204C87.0158 347.204 86.6913 347.297 86.4166 347.484C86.1455 347.667 85.9369 347.906 85.7901 348.202C85.644 348.497 85.5709 348.814 85.5709 349.152V349.695C85.5709 350.158 85.651 350.55 85.8104 350.872C85.9727 351.191 86.1975 351.435 86.4848 351.602C86.772 351.767 87.1064 351.85 87.4864 351.85C87.7336 351.85 87.9577 351.815 88.1572 351.746C88.3595 351.674 88.5337 351.567 88.6798 351.426C88.8259 351.283 88.939 351.105 89.019 350.892L89.9286 351.147C89.8331 351.456 89.6723 351.728 89.4461 351.961C89.2199 352.193 88.9404 352.374 88.6081 352.504C88.2752 352.632 87.9015 352.695 87.4864 352.695ZM92.3997 348.88V352.568H91.4578V346.438H92.3674V347.396H92.4475C92.5907 347.085 92.8092 346.835 93.1021 346.646C93.3943 346.454 93.7722 346.358 94.2351 346.358C94.6502 346.358 95.0133 346.443 95.3245 346.613C95.6357 346.781 95.878 347.036 96.0508 347.38C96.2243 347.72 96.3107 348.152 96.3107 348.673V352.568H95.3687V348.737C95.3687 348.255 95.2437 347.88 94.9937 347.611C94.7436 347.34 94.4001 347.204 93.9639 347.204C93.6633 347.204 93.3943 347.269 93.1576 347.4C92.9237 347.53 92.7382 347.72 92.6027 347.97C92.4671 348.22 92.3997 348.524 92.3997 348.88ZM100.697 346.438V347.236H97.5209V346.438H100.697ZM98.4467 344.969H99.3886V350.812C99.3886 351.078 99.4272 351.277 99.5045 351.411C99.5839 351.541 99.685 351.628 99.8072 351.674C99.9323 351.716 100.064 351.738 100.203 351.738C100.307 351.738 100.392 351.732 100.458 351.722C100.524 351.709 100.578 351.698 100.618 351.69L100.81 352.536C100.746 352.56 100.656 352.584 100.542 352.608C100.427 352.634 100.283 352.648 100.107 352.648C99.8409 352.648 99.5804 352.591 99.3247 352.476C99.0718 352.362 98.8618 352.188 98.6939 351.953C98.5289 351.719 98.4467 351.424 98.4467 351.067V344.969ZM106.217 348.88V352.568H105.275V344.394H106.217V347.396H106.297C106.441 347.079 106.656 346.828 106.943 346.641C107.233 346.453 107.619 346.358 108.101 346.358C108.518 346.358 108.884 346.442 109.198 346.61C109.512 346.774 109.755 347.028 109.928 347.372C110.104 347.713 110.192 348.146 110.192 348.673V352.568H109.25V348.737C109.25 348.25 109.124 347.873 108.871 347.607C108.621 347.338 108.273 347.204 107.829 347.204C107.52 347.204 107.244 347.269 106.999 347.4C106.757 347.53 106.566 347.72 106.425 347.97C106.286 348.22 106.217 348.524 106.217 348.88ZM113.719 352.712C113.331 352.712 112.978 352.639 112.661 352.492C112.344 352.343 112.093 352.129 111.907 351.85C111.721 351.567 111.628 351.227 111.628 350.828C111.628 350.477 111.697 350.192 111.835 349.974C111.974 349.753 112.158 349.58 112.39 349.455C112.621 349.33 112.877 349.237 113.156 349.176C113.438 349.112 113.722 349.061 114.006 349.024C114.379 348.976 114.681 348.94 114.912 348.917C115.146 348.89 115.316 348.846 115.423 348.784C115.532 348.723 115.587 348.617 115.587 348.466V348.433C115.587 348.04 115.479 347.734 115.264 347.515C115.051 347.297 114.727 347.188 114.294 347.188C113.844 347.188 113.491 347.287 113.236 347.484C112.981 347.68 112.801 347.89 112.697 348.114L111.804 347.795C111.963 347.423 112.176 347.132 112.442 346.925C112.71 346.714 113.003 346.568 113.32 346.486C113.639 346.401 113.953 346.358 114.262 346.358C114.459 346.358 114.685 346.382 114.94 346.43C115.198 346.475 115.447 346.57 115.686 346.713C115.929 346.857 116.13 347.074 116.289 347.364C116.449 347.654 116.529 348.042 116.529 348.529V352.568H115.587V351.738H115.539C115.475 351.871 115.368 352.013 115.219 352.165C115.07 352.317 114.872 352.445 114.625 352.552C114.377 352.658 114.075 352.712 113.719 352.712ZM113.862 351.865C114.235 351.865 114.549 351.792 114.804 351.646C115.063 351.5 115.257 351.311 115.387 351.079C115.52 350.848 115.587 350.604 115.587 350.349V349.487C115.547 349.535 115.459 349.579 115.323 349.619C115.19 349.656 115.036 349.689 114.86 349.719C114.688 349.745 114.518 349.769 114.353 349.79C114.191 349.809 114.06 349.825 113.959 349.838C113.713 349.87 113.484 349.922 113.272 349.994C113.062 350.063 112.892 350.168 112.761 350.309C112.633 350.448 112.569 350.636 112.569 350.876C112.569 351.203 112.691 351.451 112.932 351.618C113.177 351.783 113.487 351.865 113.862 351.865ZM122.59 347.811L121.743 348.05C121.691 347.909 121.612 347.772 121.508 347.639C121.407 347.503 121.268 347.392 121.093 347.304C120.917 347.216 120.692 347.172 120.419 347.172C120.043 347.172 119.731 347.259 119.481 347.432C119.234 347.602 119.109 347.819 119.109 348.082C119.109 348.316 119.195 348.501 119.365 348.637C119.536 348.773 119.801 348.886 120.163 348.976L121.073 349.2C121.621 349.332 122.03 349.536 122.298 349.81C122.567 350.082 122.701 350.432 122.701 350.86C122.701 351.211 122.6 351.525 122.398 351.802C122.198 352.079 121.919 352.296 121.56 352.456C121.201 352.616 120.783 352.695 120.307 352.695C119.682 352.695 119.164 352.56 118.755 352.289C118.344 352.017 118.085 351.621 117.976 351.1L118.87 350.876C118.955 351.206 119.116 351.453 119.353 351.618C119.593 351.783 119.905 351.865 120.291 351.865C120.73 351.865 121.079 351.772 121.337 351.586C121.597 351.397 121.728 351.171 121.728 350.908C121.728 350.695 121.653 350.517 121.504 350.373C121.355 350.227 121.127 350.118 120.817 350.046L119.796 349.806C119.235 349.673 118.822 349.467 118.559 349.188C118.298 348.905 118.168 348.553 118.168 348.13C118.168 347.784 118.265 347.478 118.459 347.212C118.656 346.946 118.923 346.737 119.261 346.585C119.602 346.434 119.987 346.358 120.419 346.358C121.025 346.358 121.502 346.491 121.847 346.757C122.196 347.024 122.444 347.375 122.59 347.811ZM127.407 352.568V344.394H128.349V347.412H128.429C128.498 347.305 128.595 347.17 128.717 347.005C128.842 346.837 129.02 346.688 129.251 346.558C129.486 346.424 129.803 346.358 130.202 346.358C130.718 346.358 131.172 346.487 131.566 346.745C131.96 347.003 132.267 347.369 132.488 347.843C132.709 348.316 132.819 348.875 132.819 349.519C132.819 350.168 132.709 350.731 132.488 351.207C132.267 351.68 131.961 352.048 131.571 352.308C131.179 352.567 130.728 352.695 130.217 352.695C129.824 352.695 129.508 352.63 129.272 352.5C129.035 352.367 128.852 352.216 128.724 352.049C128.597 351.879 128.498 351.738 128.429 351.626H128.318V352.568H127.407ZM128.334 349.503C128.334 349.966 128.401 350.374 128.537 350.728C128.673 351.079 128.871 351.355 129.132 351.554C129.392 351.751 129.712 351.85 130.09 351.85C130.483 351.85 130.812 351.746 131.075 351.539C131.342 351.328 131.541 351.046 131.674 350.692C131.809 350.335 131.878 349.939 131.878 349.503C131.878 349.072 131.811 348.683 131.678 348.338C131.547 347.989 131.349 347.713 131.083 347.512C130.82 347.307 130.489 347.204 130.09 347.204C129.706 347.204 129.385 347.301 129.124 347.496C128.863 347.687 128.666 347.956 128.533 348.302C128.4 348.645 128.334 349.045 128.334 349.503ZM136.83 352.695C136.239 352.695 135.73 352.566 135.302 352.304C134.876 352.041 134.547 351.674 134.316 351.203C134.087 350.729 133.973 350.179 133.973 349.551C133.973 348.923 134.087 348.369 134.316 347.89C134.547 347.409 134.87 347.034 135.282 346.765C135.697 346.494 136.181 346.358 136.735 346.358C137.054 346.358 137.369 346.411 137.68 346.518C137.992 346.624 138.275 346.797 138.531 347.036C138.786 347.274 138.989 347.588 139.141 347.978C139.293 348.369 139.369 348.851 139.369 349.423V349.822H134.644V349.008H138.411C138.411 348.662 138.342 348.353 138.203 348.082C138.068 347.811 137.873 347.597 137.62 347.439C137.37 347.283 137.075 347.204 136.735 347.204C136.36 347.204 136.035 347.297 135.76 347.484C135.489 347.667 135.281 347.906 135.134 348.202C134.988 348.497 134.915 348.814 134.915 349.152V349.695C134.915 350.158 134.995 350.55 135.154 350.872C135.316 351.191 135.541 351.435 135.829 351.602C136.116 351.767 136.45 351.85 136.83 351.85C137.077 351.85 137.301 351.815 137.501 351.746C137.703 351.674 137.877 351.567 138.024 351.426C138.17 351.283 138.283 351.105 138.363 350.892L139.272 351.147C139.177 351.456 139.016 351.728 138.79 351.961C138.564 352.193 138.284 352.374 137.952 352.504C137.619 352.632 137.245 352.695 136.83 352.695ZM143.372 352.695C142.781 352.695 142.271 352.566 141.843 352.304C141.417 352.041 141.089 351.674 140.857 351.203C140.628 350.729 140.514 350.179 140.514 349.551C140.514 348.923 140.628 348.369 140.857 347.89C141.089 347.409 141.411 347.034 141.823 346.765C142.238 346.494 142.722 346.358 143.275 346.358C143.595 346.358 143.91 346.411 144.222 346.518C144.533 346.624 144.816 346.797 145.071 347.036C145.327 347.274 145.531 347.588 145.682 347.978C145.834 348.369 145.909 348.851 145.909 349.423V349.822H141.184V349.008H144.952C144.952 348.662 144.883 348.353 144.744 348.082C144.609 347.811 144.415 347.597 144.162 347.439C143.912 347.283 143.616 347.204 143.275 347.204C142.9 347.204 142.576 347.297 142.302 347.484C142.031 347.667 141.821 347.906 141.675 348.202C141.529 348.497 141.456 348.814 141.456 349.152V349.695C141.456 350.158 141.536 350.55 141.695 350.872C141.857 351.191 142.082 351.435 142.37 351.602C142.657 351.767 142.991 351.85 143.372 351.85C143.619 351.85 143.842 351.815 144.042 351.746C144.244 351.674 144.418 351.567 144.565 351.426C144.711 351.283 144.824 351.105 144.904 350.892L145.814 351.147C145.718 351.456 145.557 351.728 145.331 351.961C145.104 352.193 144.826 352.374 144.493 352.504C144.16 352.632 143.787 352.695 143.372 352.695ZM148.284 348.88V352.568H147.342V346.438H148.253V347.396H148.332C148.476 347.085 148.694 346.835 148.987 346.646C149.28 346.454 149.657 346.358 150.12 346.358C150.535 346.358 150.899 346.443 151.21 346.613C151.521 346.781 151.763 347.036 151.936 347.38C152.109 347.72 152.195 348.152 152.195 348.673V352.568H151.253V348.737C151.253 348.255 151.128 347.88 150.878 347.611C150.628 347.34 150.285 347.204 149.849 347.204C149.548 347.204 149.28 347.269 149.043 347.4C148.808 347.53 148.624 347.72 148.488 347.97C148.352 348.22 148.284 348.524 148.284 348.88ZM157.077 352.568V346.438H157.987V347.364H158.051C158.163 347.061 158.365 346.814 158.657 346.625C158.95 346.436 159.28 346.342 159.648 346.342C159.717 346.342 159.803 346.344 159.907 346.346C160.011 346.349 160.089 346.353 160.142 346.358V347.316C160.111 347.308 160.037 347.296 159.923 347.28C159.811 347.262 159.693 347.252 159.568 347.252C159.27 347.252 159.004 347.314 158.77 347.439C158.538 347.562 158.355 347.732 158.218 347.951C158.086 348.166 158.019 348.412 158.019 348.689V352.568H157.077ZM163.642 352.695C163.052 352.695 162.542 352.566 162.114 352.304C161.688 352.041 161.359 351.674 161.128 351.203C160.899 350.729 160.785 350.179 160.785 349.551C160.785 348.923 160.899 348.369 161.128 347.89C161.359 347.409 161.681 347.034 162.094 346.765C162.509 346.494 162.993 346.358 163.547 346.358C163.866 346.358 164.181 346.411 164.492 346.518C164.803 346.624 165.087 346.797 165.343 347.036C165.598 347.274 165.801 347.588 165.953 347.978C166.105 348.369 166.181 348.851 166.181 349.423V349.822H161.455V349.008H165.223C165.223 348.662 165.154 348.353 165.015 348.082C164.879 347.811 164.685 347.597 164.432 347.439C164.182 347.283 163.887 347.204 163.547 347.204C163.172 347.204 162.846 347.297 162.573 347.484C162.301 347.667 162.093 347.906 161.946 348.202C161.8 348.497 161.727 348.814 161.727 349.152V349.695C161.727 350.158 161.806 350.55 161.966 350.872C162.129 351.191 162.353 351.435 162.641 351.602C162.928 351.767 163.262 351.85 163.642 351.85C163.89 351.85 164.114 351.815 164.313 351.746C164.515 351.674 164.69 351.567 164.836 351.426C164.982 351.283 165.095 351.105 165.175 350.892L166.085 351.147C165.989 351.456 165.828 351.728 165.602 351.961C165.376 352.193 165.096 352.374 164.764 352.504C164.431 352.632 164.057 352.695 163.642 352.695ZM170.104 352.695C169.529 352.695 169.034 352.56 168.619 352.289C168.204 352.017 167.885 351.643 167.661 351.167C167.437 350.691 167.326 350.147 167.326 349.535C167.326 348.912 167.44 348.363 167.669 347.887C167.901 347.408 168.223 347.034 168.635 346.765C169.05 346.494 169.534 346.358 170.088 346.358C170.519 346.358 170.907 346.438 171.253 346.597C171.599 346.757 171.882 346.981 172.103 347.268C172.324 347.555 172.461 347.89 172.514 348.274H171.572C171.501 347.994 171.341 347.747 171.093 347.531C170.849 347.313 170.519 347.204 170.104 347.204C169.736 347.204 169.415 347.3 169.138 347.491C168.864 347.68 168.65 347.948 168.495 348.293C168.343 348.637 168.268 349.04 168.268 349.503C168.268 349.976 168.342 350.389 168.491 350.74C168.643 351.091 168.856 351.364 169.13 351.558C169.406 351.752 169.731 351.85 170.104 351.85C170.348 351.85 170.571 351.807 170.77 351.722C170.97 351.637 171.138 351.514 171.277 351.355C171.415 351.195 171.513 351.003 171.572 350.78H172.514C172.461 351.142 172.329 351.468 172.119 351.758C171.912 352.045 171.636 352.274 171.293 352.444C170.952 352.612 170.556 352.695 170.104 352.695ZM176.461 352.695C175.87 352.695 175.361 352.566 174.933 352.304C174.507 352.041 174.178 351.674 173.947 351.203C173.718 350.729 173.604 350.179 173.604 349.551C173.604 348.923 173.718 348.369 173.947 347.89C174.178 347.409 174.5 347.034 174.913 346.765C175.327 346.494 175.812 346.358 176.366 346.358C176.685 346.358 177 346.411 177.311 346.518C177.622 346.624 177.906 346.797 178.162 347.036C178.417 347.274 178.62 347.588 178.772 347.978C178.924 348.369 179 348.851 179 349.423V349.822H174.274V349.008H178.042C178.042 348.662 177.973 348.353 177.834 348.082C177.698 347.811 177.504 347.597 177.251 347.439C177.001 347.283 176.706 347.204 176.366 347.204C175.991 347.204 175.665 347.297 175.391 347.484C175.12 347.667 174.912 347.906 174.765 348.202C174.619 348.497 174.546 348.814 174.546 349.152V349.695C174.546 350.158 174.625 350.55 174.785 350.872C174.947 351.191 175.172 351.435 175.46 351.602C175.747 351.767 176.08 351.85 176.461 351.85C176.708 351.85 176.932 351.815 177.132 351.746C177.334 351.674 177.508 351.567 177.655 351.426C177.801 351.283 177.914 351.105 177.994 350.892L178.903 351.147C178.808 351.456 178.647 351.728 178.421 351.961C178.195 352.193 177.915 352.374 177.583 352.504C177.25 352.632 176.876 352.695 176.461 352.695ZM180.432 352.568V346.438H181.374V352.568H180.432ZM180.911 345.416C180.728 345.416 180.57 345.354 180.436 345.229C180.306 345.104 180.241 344.954 180.241 344.778C180.241 344.602 180.306 344.452 180.436 344.327C180.57 344.201 180.728 344.139 180.911 344.139C181.095 344.139 181.252 344.201 181.382 344.327C181.515 344.452 181.582 344.602 181.582 344.778C181.582 344.954 181.515 345.104 181.382 345.229C181.252 345.354 181.095 345.416 180.911 345.416ZM188.112 346.438L185.845 352.568H184.887L182.621 346.438H183.642L185.334 351.323H185.398L187.09 346.438H188.112ZM191.705 352.695C191.115 352.695 190.605 352.566 190.177 352.304C189.751 352.041 189.423 351.674 189.191 351.203C188.963 350.729 188.848 350.179 188.848 349.551C188.848 348.923 188.963 348.369 189.191 347.89C189.423 347.409 189.745 347.034 190.157 346.765C190.572 346.494 191.056 346.358 191.61 346.358C191.929 346.358 192.244 346.411 192.555 346.518C192.867 346.624 193.15 346.797 193.406 347.036C193.661 347.274 193.865 347.588 194.016 347.978C194.168 348.369 194.244 348.851 194.244 349.423V349.822H189.519V349.008H193.286C193.286 348.662 193.217 348.353 193.079 348.082C192.943 347.811 192.748 347.597 192.496 347.439C192.246 347.283 191.951 347.204 191.61 347.204C191.235 347.204 190.91 347.297 190.636 347.484C190.365 347.667 190.156 347.906 190.009 348.202C189.863 348.497 189.79 348.814 189.79 349.152V349.695C189.79 350.158 189.87 350.55 190.029 350.872C190.192 351.191 190.416 351.435 190.704 351.602C190.991 351.767 191.325 351.85 191.705 351.85C191.953 351.85 192.177 351.815 192.376 351.746C192.578 351.674 192.753 351.567 192.899 351.426C193.045 351.283 193.158 351.105 193.238 350.892L194.148 351.147C194.052 351.456 193.891 351.728 193.665 351.961C193.439 352.193 193.159 352.374 192.827 352.504C192.494 352.632 192.121 352.695 191.705 352.695ZM197.991 352.695C197.481 352.695 197.03 352.567 196.638 352.308C196.247 352.048 195.941 351.68 195.72 351.207C195.5 350.731 195.389 350.168 195.389 349.519C195.389 348.875 195.5 348.316 195.72 347.843C195.941 347.369 196.249 347.003 196.643 346.745C197.036 346.487 197.491 346.358 198.007 346.358C198.406 346.358 198.722 346.424 198.953 346.558C199.187 346.688 199.365 346.837 199.488 347.005C199.613 347.17 199.71 347.305 199.779 347.412H199.859V344.394H200.801V352.568H199.891V351.626H199.779C199.71 351.738 199.612 351.879 199.484 352.049C199.356 352.216 199.174 352.367 198.937 352.5C198.701 352.63 198.385 352.695 197.991 352.695ZM198.119 351.85C198.497 351.85 198.816 351.751 199.076 351.554C199.338 351.355 199.536 351.079 199.671 350.728C199.807 350.374 199.875 349.966 199.875 349.503C199.875 349.045 199.808 348.645 199.676 348.302C199.542 347.956 199.345 347.687 199.085 347.496C198.824 347.301 198.502 347.204 198.119 347.204C197.72 347.204 197.387 347.307 197.121 347.512C196.858 347.713 196.659 347.989 196.527 348.338C196.396 348.683 196.331 349.072 196.331 349.503C196.331 349.939 196.397 350.335 196.53 350.692C196.666 351.046 196.866 351.328 197.129 351.539C197.396 351.746 197.725 351.85 198.119 351.85ZM207.621 352.712C207.233 352.712 206.88 352.639 206.564 352.492C206.247 352.343 205.996 352.129 205.81 351.85C205.624 351.567 205.53 351.227 205.53 350.828C205.53 350.477 205.599 350.192 205.737 349.974C205.876 349.753 206.061 349.58 206.292 349.455C206.524 349.33 206.779 349.237 207.059 349.176C207.341 349.112 207.624 349.061 207.908 349.024C208.281 348.976 208.583 348.94 208.815 348.917C209.048 348.89 209.219 348.846 209.325 348.784C209.435 348.723 209.489 348.617 209.489 348.466V348.433C209.489 348.04 209.381 347.734 209.166 347.515C208.953 347.297 208.63 347.188 208.196 347.188C207.746 347.188 207.394 347.287 207.139 347.484C206.883 347.68 206.703 347.89 206.6 348.114L205.706 347.795C205.865 347.423 206.078 347.132 206.344 346.925C206.613 346.714 206.905 346.568 207.222 346.486C207.542 346.401 207.856 346.358 208.164 346.358C208.361 346.358 208.587 346.382 208.843 346.43C209.1 346.475 209.349 346.57 209.589 346.713C209.831 346.857 210.032 347.074 210.191 347.364C210.351 347.654 210.431 348.042 210.431 348.529V352.568H209.489V351.738H209.441C209.377 351.871 209.271 352.013 209.122 352.165C208.973 352.317 208.774 352.445 208.527 352.552C208.28 352.658 207.978 352.712 207.621 352.712ZM207.765 351.865C208.137 351.865 208.451 351.792 208.707 351.646C208.965 351.5 209.159 351.311 209.289 351.079C209.423 350.848 209.489 350.604 209.489 350.349V349.487C209.449 349.535 209.362 349.579 209.225 349.619C209.093 349.656 208.938 349.689 208.763 349.719C208.59 349.745 208.421 349.769 208.256 349.79C208.094 349.809 207.962 349.825 207.861 349.838C207.616 349.87 207.387 349.922 207.174 349.994C206.964 350.063 206.794 350.168 206.664 350.309C206.536 350.448 206.472 350.636 206.472 350.876C206.472 351.203 206.593 351.451 206.835 351.618C207.08 351.783 207.39 351.865 207.765 351.865ZM213.092 348.88V352.568H212.15V346.438H213.06V347.396H213.14C213.283 347.085 213.502 346.835 213.795 346.646C214.087 346.454 214.465 346.358 214.928 346.358C215.343 346.358 215.706 346.443 216.017 346.613C216.329 346.781 216.57 347.036 216.743 347.38C216.917 347.72 217.003 348.152 217.003 348.673V352.568H216.061V348.737C216.061 348.255 215.936 347.88 215.686 347.611C215.436 347.34 215.093 347.204 214.656 347.204C214.356 347.204 214.087 347.269 213.85 347.4C213.616 347.53 213.431 347.72 213.295 347.97C213.16 348.22 213.092 348.524 213.092 348.88ZM221.039 352.695C220.528 352.695 220.077 352.567 219.686 352.308C219.295 352.048 218.989 351.68 218.768 351.207C218.547 350.731 218.437 350.168 218.437 349.519C218.437 348.875 218.547 348.316 218.768 347.843C218.989 347.369 219.296 347.003 219.69 346.745C220.084 346.487 220.538 346.358 221.055 346.358C221.454 346.358 221.769 346.424 222.001 346.558C222.235 346.688 222.413 346.837 222.535 347.005C222.66 347.17 222.758 347.305 222.827 347.412H222.907V344.394H223.849V352.568H222.938V351.626H222.827C222.758 351.738 222.659 351.879 222.532 352.049C222.404 352.216 222.221 352.367 221.985 352.5C221.748 352.63 221.432 352.695 221.039 352.695ZM221.166 351.85C221.544 351.85 221.864 351.751 222.124 351.554C222.385 351.355 222.583 351.079 222.719 350.728C222.855 350.374 222.922 349.966 222.922 349.503C222.922 349.045 222.856 348.645 222.723 348.302C222.59 347.956 222.393 347.687 222.132 347.496C221.871 347.301 221.55 347.204 221.166 347.204C220.767 347.204 220.435 347.307 220.169 347.512C219.905 347.713 219.707 347.989 219.574 348.338C219.444 348.683 219.379 349.072 219.379 349.503C219.379 349.939 219.445 350.335 219.578 350.692C219.714 351.046 219.913 351.328 220.177 351.539C220.443 351.746 220.773 351.85 221.166 351.85ZM228.865 354.867V346.438H229.775V347.412H229.887C229.956 347.305 230.052 347.17 230.174 347.005C230.299 346.837 230.477 346.688 230.709 346.558C230.943 346.424 231.26 346.358 231.659 346.358C232.175 346.358 232.629 346.487 233.024 346.745C233.418 347.003 233.725 347.369 233.946 347.843C234.166 348.316 234.277 348.875 234.277 349.519C234.277 350.168 234.166 350.731 233.946 351.207C233.725 351.68 233.419 352.048 233.028 352.308C232.637 352.567 232.186 352.695 231.675 352.695C231.281 352.695 230.965 352.63 230.729 352.5C230.492 352.367 230.309 352.216 230.182 352.049C230.054 351.879 229.956 351.738 229.887 351.626H229.807V354.867H228.865ZM229.791 349.503C229.791 349.966 229.859 350.374 229.995 350.728C230.13 351.079 230.328 351.355 230.589 351.554C230.85 351.751 231.169 351.85 231.547 351.85C231.94 351.85 232.269 351.746 232.533 351.539C232.799 351.328 232.998 351.046 233.131 350.692C233.267 350.335 233.335 349.939 233.335 349.503C233.335 349.072 233.269 348.683 233.135 348.338C233.005 347.989 232.806 347.713 232.541 347.512C232.278 347.307 231.946 347.204 231.547 347.204C231.164 347.204 230.842 347.301 230.581 347.496C230.321 347.687 230.123 347.956 229.991 348.302C229.857 348.645 229.791 349.045 229.791 349.503ZM235.714 352.568V346.438H236.623V347.364H236.687C236.799 347.061 237.001 346.814 237.294 346.625C237.586 346.436 237.916 346.342 238.284 346.342C238.353 346.342 238.439 346.344 238.543 346.346C238.647 346.349 238.725 346.353 238.778 346.358V347.316C238.747 347.308 238.674 347.296 238.559 347.28C238.447 347.262 238.329 347.252 238.204 347.252C237.906 347.252 237.64 347.314 237.406 347.439C237.174 347.562 236.991 347.732 236.855 347.951C236.722 348.166 236.655 348.412 236.655 348.689V352.568H235.714ZM242.199 352.695C241.646 352.695 241.159 352.564 240.742 352.301C240.327 352.037 240.003 351.669 239.768 351.195C239.537 350.722 239.421 350.168 239.421 349.535C239.421 348.896 239.537 348.339 239.768 347.863C240.003 347.387 240.327 347.017 240.742 346.753C241.159 346.49 241.646 346.358 242.199 346.358C242.752 346.358 243.236 346.49 243.652 346.753C244.069 347.017 244.394 347.387 244.625 347.863C244.859 348.339 244.976 348.896 244.976 349.535C244.976 350.168 244.859 350.722 244.625 351.195C244.394 351.669 244.069 352.037 243.652 352.301C243.236 352.564 242.752 352.695 242.199 352.695ZM242.199 351.85C242.619 351.85 242.965 351.742 243.236 351.527C243.508 351.311 243.708 351.027 243.839 350.676C243.969 350.325 244.034 349.945 244.034 349.535C244.034 349.125 243.969 348.743 243.839 348.39C243.708 348.036 243.508 347.75 243.236 347.531C242.965 347.313 242.619 347.204 242.199 347.204C241.778 347.204 241.433 347.313 241.161 347.531C240.89 347.75 240.689 348.036 240.558 348.39C240.428 348.743 240.363 349.125 240.363 349.535C240.363 349.945 240.428 350.325 240.558 350.676C240.689 351.027 240.89 351.311 241.161 351.527C241.433 351.742 241.778 351.85 242.199 351.85ZM248.904 352.695C248.33 352.695 247.835 352.56 247.42 352.289C247.005 352.017 246.685 351.643 246.462 351.167C246.239 350.691 246.127 350.147 246.127 349.535C246.127 348.912 246.241 348.363 246.47 347.887C246.701 347.408 247.023 347.034 247.436 346.765C247.851 346.494 248.335 346.358 248.889 346.358C249.319 346.358 249.708 346.438 250.054 346.597C250.4 346.757 250.683 346.981 250.904 347.268C251.124 347.555 251.261 347.89 251.315 348.274H250.373C250.301 347.994 250.142 347.747 249.895 347.531C249.649 347.313 249.319 347.204 248.904 347.204C248.537 347.204 248.215 347.3 247.938 347.491C247.664 347.68 247.45 347.948 247.296 348.293C247.145 348.637 247.069 349.04 247.069 349.503C247.069 349.976 247.143 350.389 247.292 350.74C247.444 351.091 247.657 351.364 247.931 351.558C248.207 351.752 248.532 351.85 248.904 351.85C249.149 351.85 249.371 351.807 249.571 351.722C249.77 351.637 249.939 351.514 250.078 351.355C250.216 351.195 250.315 351.003 250.373 350.78H251.315C251.261 351.142 251.13 351.468 250.92 351.758C250.712 352.045 250.437 352.274 250.094 352.444C249.753 352.612 249.357 352.695 248.904 352.695ZM255.262 352.695C254.672 352.695 254.162 352.566 253.733 352.304C253.308 352.041 252.98 351.674 252.748 351.203C252.519 350.729 252.404 350.179 252.404 349.551C252.404 348.923 252.519 348.369 252.748 347.89C252.98 347.409 253.301 347.034 253.714 346.765C254.129 346.494 254.613 346.358 255.166 346.358C255.486 346.358 255.801 346.411 256.112 346.518C256.423 346.624 256.706 346.797 256.962 347.036C257.218 347.274 257.421 347.588 257.573 347.978C257.724 348.369 257.8 348.851 257.8 349.423V349.822H253.075V349.008H256.843C256.843 348.662 256.773 348.353 256.635 348.082C256.499 347.811 256.305 347.597 256.053 347.439C255.802 347.283 255.507 347.204 255.166 347.204C254.791 347.204 254.466 347.297 254.193 347.484C253.921 347.667 253.712 347.906 253.566 348.202C253.419 348.497 253.346 348.814 253.346 349.152V349.695C253.346 350.158 253.426 350.55 253.586 350.872C253.748 351.191 253.973 351.435 254.26 351.602C254.548 351.767 254.882 351.85 255.262 351.85C255.51 351.85 255.733 351.815 255.932 351.746C256.135 351.674 256.309 351.567 256.455 351.426C256.602 351.283 256.715 351.105 256.794 350.892L257.705 351.147C257.608 351.456 257.447 351.728 257.221 351.961C256.995 352.193 256.716 352.374 256.383 352.504C256.051 352.632 255.677 352.695 255.262 352.695ZM263.575 347.811L262.729 348.05C262.675 347.909 262.598 347.772 262.494 347.639C262.392 347.503 262.254 347.392 262.078 347.304C261.903 347.216 261.678 347.172 261.404 347.172C261.029 347.172 260.716 347.259 260.466 347.432C260.218 347.602 260.095 347.819 260.095 348.082C260.095 348.316 260.18 348.501 260.351 348.637C260.52 348.773 260.787 348.886 261.148 348.976L262.059 349.2C262.607 349.332 263.015 349.536 263.284 349.81C263.553 350.082 263.687 350.432 263.687 350.86C263.687 351.211 263.586 351.525 263.383 351.802C263.184 352.079 262.904 352.296 262.546 352.456C262.187 352.616 261.769 352.695 261.292 352.695C260.667 352.695 260.15 352.56 259.74 352.289C259.33 352.017 259.071 351.621 258.962 351.1L259.855 350.876C259.941 351.206 260.102 351.453 260.339 351.618C260.578 351.783 260.891 351.865 261.276 351.865C261.715 351.865 262.064 351.772 262.322 351.586C262.583 351.397 262.713 351.171 262.713 350.908C262.713 350.695 262.638 350.517 262.489 350.373C262.34 350.227 262.111 350.118 261.803 350.046L260.782 349.806C260.22 349.673 259.808 349.467 259.544 349.188C259.284 348.905 259.153 348.553 259.153 348.13C259.153 347.784 259.251 347.478 259.444 347.212C259.641 346.946 259.909 346.737 260.247 346.585C260.587 346.434 260.973 346.358 261.404 346.358C262.011 346.358 262.487 346.491 262.833 346.757C263.181 347.024 263.428 347.375 263.575 347.811ZM269.447 347.811L268.601 348.05C268.548 347.909 268.469 347.772 268.365 347.639C268.264 347.503 268.125 347.392 267.95 347.304C267.774 347.216 267.549 347.172 267.275 347.172C266.9 347.172 266.588 347.259 266.338 347.432C266.091 347.602 265.967 347.819 265.967 348.082C265.967 348.316 266.052 348.501 266.222 348.637C266.393 348.773 266.658 348.886 267.021 348.976L267.93 349.2C268.478 349.332 268.887 349.536 269.155 349.81C269.424 350.082 269.558 350.432 269.558 350.86C269.558 351.211 269.457 351.525 269.255 351.802C269.055 352.079 268.777 352.296 268.417 352.456C268.058 352.616 267.64 352.695 267.164 352.695C266.539 352.695 266.021 352.56 265.612 352.289C265.202 352.017 264.942 351.621 264.833 351.1L265.727 350.876C265.812 351.206 265.973 351.453 266.21 351.618C266.449 351.783 266.762 351.865 267.148 351.865C267.587 351.865 267.936 351.772 268.194 351.586C268.454 351.397 268.585 351.171 268.585 350.908C268.585 350.695 268.51 350.517 268.361 350.373C268.213 350.227 267.984 350.118 267.674 350.046L266.653 349.806C266.092 349.673 265.68 349.467 265.416 349.188C265.155 348.905 265.025 348.553 265.025 348.13C265.025 347.784 265.122 347.478 265.316 347.212C265.513 346.946 265.78 346.737 266.119 346.585C266.459 346.434 266.845 346.358 267.275 346.358C267.882 346.358 268.359 346.491 268.704 346.757C269.053 347.024 269.301 347.375 269.447 347.811ZM273.547 352.695C272.956 352.695 272.447 352.566 272.018 352.304C271.592 352.041 271.264 351.674 271.032 351.203C270.803 350.729 270.689 350.179 270.689 349.551C270.689 348.923 270.803 348.369 271.032 347.89C271.264 347.409 271.585 347.034 271.998 346.765C272.413 346.494 272.898 346.358 273.45 346.358C273.77 346.358 274.085 346.411 274.396 346.518C274.708 346.624 274.991 346.797 275.246 347.036C275.502 347.274 275.706 347.588 275.857 347.978C276.008 348.369 276.084 348.851 276.084 349.423V349.822H271.359V349.008H275.127C275.127 348.662 275.057 348.353 274.919 348.082C274.783 347.811 274.59 347.597 274.337 347.439C274.087 347.283 273.791 347.204 273.45 347.204C273.075 347.204 272.751 347.297 272.477 347.484C272.206 347.667 271.996 347.906 271.85 348.202C271.704 348.497 271.631 348.814 271.631 349.152V349.695C271.631 350.158 271.71 350.55 271.87 350.872C272.032 351.191 272.258 351.435 272.545 351.602C272.832 351.767 273.166 351.85 273.547 351.85C273.794 351.85 274.017 351.815 274.217 351.746C274.419 351.674 274.593 351.567 274.74 351.426C274.886 351.283 274.999 351.105 275.079 350.892L275.989 351.147C275.893 351.456 275.732 351.728 275.506 351.961C275.28 352.193 275.001 352.374 274.668 352.504C274.335 352.632 273.962 352.695 273.547 352.695ZM279.832 352.695C279.321 352.695 278.87 352.567 278.48 352.308C278.088 352.048 277.782 351.68 277.561 351.207C277.34 350.731 277.23 350.168 277.23 349.519C277.23 348.875 277.34 348.316 277.561 347.843C277.782 347.369 278.09 347.003 278.483 346.745C278.877 346.487 279.332 346.358 279.848 346.358C280.247 346.358 280.562 346.424 280.794 346.558C281.028 346.688 281.206 346.837 281.328 347.005C281.454 347.17 281.551 347.305 281.62 347.412H281.7V344.394H282.642V352.568H281.732V351.626H281.62C281.551 351.738 281.452 351.879 281.325 352.049C281.197 352.216 281.014 352.367 280.778 352.5C280.541 352.63 280.226 352.695 279.832 352.695ZM279.959 351.85C280.337 351.85 280.657 351.751 280.918 351.554C281.178 351.355 281.377 351.079 281.513 350.728C281.648 350.374 281.716 349.966 281.716 349.503C281.716 349.045 281.649 348.645 281.516 348.302C281.383 347.956 281.187 347.687 280.925 347.496C280.665 347.301 280.343 347.204 279.959 347.204C279.561 347.204 279.228 347.307 278.962 347.512C278.699 347.713 278.501 347.989 278.367 348.338C278.237 348.683 278.172 349.072 278.172 349.503C278.172 349.939 278.239 350.335 278.371 350.692C278.507 351.046 278.706 351.328 278.97 351.539C279.236 351.746 279.566 351.85 279.959 351.85ZM285.184 352.632C284.987 352.632 284.818 352.561 284.677 352.42C284.536 352.279 284.465 352.11 284.465 351.914C284.465 351.716 284.536 351.548 284.677 351.407C284.818 351.265 284.987 351.195 285.184 351.195C285.381 351.195 285.55 351.265 285.691 351.407C285.832 351.548 285.903 351.716 285.903 351.914C285.903 352.044 285.869 352.164 285.803 352.273C285.739 352.381 285.652 352.469 285.543 352.536C285.437 352.6 285.317 352.632 285.184 352.632Z" fill="black"/>
</svg>
