<svg width="442" height="224" viewBox="0 0 442 224" fill="none" xmlns="http://www.w3.org/2000/svg">
<g clip-path="url(#clip0_9680_547)" filter="url(#filter0_i_9680_547)">
<rect width="442" height="224" fill="url(#paint0_radial_9680_547)"/>
<path d="M67 566.249V566.24V79.1772C67 60.9223 81.9223 46 100.177 46H341.823C360.078 46 375 60.9223 375 79.1772V566.24C375 584.495 360.078 599.417 341.823 599.417H100.177C81.9145 599.417 67.039 584.489 67 566.249Z" fill="white" stroke="black" stroke-width="8"/>
<path d="M112.28 163.315C103.743 163.315 96.7827 156.355 96.7827 147.817V98.8574C96.7827 90.3202 103.743 83.3602 112.28 83.3602H329.72C338.257 83.3602 345.217 90.3202 345.217 98.8574V147.817C345.217 156.355 338.257 163.315 329.72 163.315H112.28Z" fill="#00C555"/>
<path d="M329.72 84.1484C337.812 84.1484 344.394 90.7312 344.394 98.8226V147.783C344.394 155.874 337.812 162.457 329.72 162.457H112.28C104.189 162.457 97.6058 155.874 97.6058 147.783V98.8569C97.6058 90.7655 104.189 84.1826 112.28 84.1826H329.72M329.72 82.5369H112.28C103.263 82.5369 95.9601 89.8398 95.9601 98.8569V147.817C95.9601 156.834 103.263 164.137 112.28 164.137H329.72C338.737 164.137 346.04 156.834 346.04 147.817V98.8569C346.04 89.8398 338.737 82.5369 329.72 82.5369Z" fill="#00DE7B"/>
<path d="M138.851 147.819C152.371 147.819 163.331 136.859 163.331 123.339C163.331 109.819 152.371 98.8586 138.851 98.8586C125.331 98.8586 114.371 109.819 114.371 123.339C114.371 136.859 125.331 147.819 138.851 147.819Z" fill="url(#paint1_linear_9680_547)"/>
<path d="M138.851 144.972C150.8 144.972 160.486 135.286 160.486 123.338C160.486 111.389 150.8 101.703 138.851 101.703C126.903 101.703 117.217 111.389 117.217 123.338C117.217 135.286 126.903 144.972 138.851 144.972Z" fill="url(#paint2_linear_9680_547)"/>
<path d="M134.393 133.144C133.707 133.144 133.09 132.87 132.61 132.39L127.056 126.836C126.062 125.841 126.062 124.23 127.056 123.27C128.05 122.275 129.662 122.275 130.622 123.27L134.393 127.041L147.113 114.321C148.107 113.327 149.719 113.327 150.679 114.321C151.673 115.316 151.673 116.927 150.679 117.887L136.176 132.39C135.696 132.87 135.044 133.144 134.393 133.144Z" fill="#00C555"/>
<g opacity="0.1">
<path d="M307.571 133.657H180.268C179.376 133.657 178.622 132.937 178.622 132.011C178.622 131.12 179.342 130.366 180.268 130.366H307.571C308.462 130.366 309.216 131.086 309.216 132.011C309.182 132.903 308.462 133.657 307.571 133.657Z" fill="black"/>
<path d="M275.137 143.429H180.028C179.24 143.429 178.622 142.812 178.622 142.023V141.578C178.622 140.789 179.24 140.172 180.028 140.172H275.137C275.925 140.172 276.542 140.789 276.542 141.578V142.023C276.542 142.812 275.925 143.429 275.137 143.429Z" fill="black"/>
</g>
<path d="M179.515 117.338V105.475H184.417C185.309 105.475 186.063 105.647 186.715 105.989C187.366 106.332 187.846 106.812 188.223 107.429C188.566 108.047 188.737 108.767 188.737 109.589C188.737 110.412 188.566 111.132 188.189 111.749C187.846 112.367 187.332 112.847 186.646 113.155C185.96 113.464 185.206 113.669 184.28 113.669H181.263V111.407H183.766C184.212 111.407 184.555 111.338 184.863 111.167C185.172 110.995 185.377 110.789 185.515 110.515C185.652 110.241 185.755 109.932 185.755 109.555C185.755 109.178 185.686 108.869 185.515 108.595C185.343 108.321 185.137 108.115 184.863 107.978C184.589 107.841 184.212 107.772 183.766 107.772H182.395V117.338H179.515Z" fill="white"/>
<path d="M192.37 117.475C191.787 117.475 191.307 117.372 190.862 117.2C190.416 116.995 190.073 116.72 189.833 116.343C189.593 115.966 189.456 115.452 189.456 114.869C189.456 114.389 189.559 113.943 189.73 113.6C189.902 113.257 190.142 112.983 190.45 112.777C190.759 112.572 191.102 112.4 191.513 112.297C191.925 112.195 192.336 112.126 192.782 112.057C193.296 112.023 193.708 111.955 194.016 111.92C194.325 111.852 194.565 111.783 194.702 111.68C194.839 111.577 194.907 111.44 194.907 111.269V111.235C194.907 110.926 194.805 110.72 194.599 110.549C194.393 110.377 194.119 110.309 193.776 110.309C193.399 110.309 193.09 110.377 192.885 110.549C192.645 110.72 192.507 110.926 192.439 111.235L189.833 111.132C189.902 110.583 190.107 110.103 190.45 109.692C190.793 109.28 191.205 108.937 191.788 108.697C192.37 108.457 193.022 108.32 193.845 108.32C194.428 108.32 194.942 108.389 195.422 108.526C195.902 108.663 196.313 108.869 196.69 109.109C197.033 109.349 197.307 109.657 197.513 110.035C197.719 110.412 197.822 110.823 197.822 111.303V117.337H195.147V116.103H195.079C194.907 116.412 194.702 116.652 194.462 116.857C194.222 117.063 193.913 117.235 193.605 117.337C193.159 117.44 192.782 117.475 192.37 117.475ZM193.227 115.623C193.536 115.623 193.81 115.555 194.05 115.452C194.29 115.349 194.496 115.143 194.633 114.937C194.77 114.732 194.839 114.457 194.839 114.183V113.326C194.77 113.36 194.668 113.395 194.53 113.429C194.428 113.463 194.29 113.497 194.153 113.532C194.016 113.566 193.879 113.6 193.742 113.6C193.605 113.635 193.468 113.635 193.33 113.669C193.056 113.703 192.85 113.772 192.645 113.875C192.473 113.977 192.302 114.08 192.199 114.217C192.096 114.355 192.062 114.526 192.062 114.732C192.062 115.04 192.165 115.246 192.37 115.417C192.576 115.589 192.919 115.623 193.227 115.623Z" fill="white"/>
<path d="M200.805 120.663C200.462 120.663 200.153 120.628 199.845 120.594C199.536 120.526 199.296 120.457 199.056 120.388L199.673 118.331C199.948 118.434 200.188 118.468 200.428 118.503C200.668 118.537 200.839 118.468 201.011 118.4C201.182 118.297 201.285 118.16 201.388 117.954L201.491 117.68L198.336 108.457H201.319L202.965 114.8H203.068L204.748 108.457H207.731L204.371 118.228C204.199 118.708 203.993 119.154 203.685 119.531C203.376 119.908 202.999 120.183 202.553 120.423C202.073 120.56 201.491 120.663 200.805 120.663Z" fill="white"/>
<path d="M208.794 117.337V108.423H211.503V110.069H211.605C211.777 109.52 212.12 109.109 212.531 108.8C212.977 108.492 213.491 108.32 214.108 108.32C214.725 108.32 215.24 108.492 215.685 108.8C216.131 109.109 216.405 109.555 216.543 110.069H216.645C216.817 109.555 217.125 109.109 217.605 108.8C218.085 108.492 218.668 108.32 219.32 108.32C220.177 108.32 220.863 108.595 221.377 109.143C221.891 109.692 222.165 110.412 222.165 111.372V117.372H219.32V112.023C219.32 111.577 219.217 111.235 218.977 110.995C218.737 110.755 218.463 110.652 218.085 110.652C217.708 110.652 217.4 110.789 217.16 111.029C216.954 111.269 216.817 111.612 216.817 112.057V117.372H214.108V111.989C214.108 111.577 214.005 111.235 213.765 110.995C213.525 110.755 213.251 110.652 212.874 110.652C212.634 110.652 212.394 110.72 212.223 110.823C212.051 110.926 211.88 111.097 211.777 111.337C211.674 111.543 211.605 111.817 211.605 112.092V117.372H208.794V117.337Z" fill="white"/>
<path d="M228.063 117.509C227.137 117.509 226.314 117.338 225.663 116.961C224.977 116.583 224.463 116.069 224.12 115.383C223.743 114.698 223.571 113.875 223.571 112.949C223.571 112.023 223.743 111.235 224.12 110.549C224.497 109.863 225.011 109.315 225.663 108.938C226.314 108.561 227.103 108.355 227.994 108.355C228.611 108.355 229.194 108.458 229.743 108.663C230.257 108.869 230.737 109.143 231.114 109.555C231.491 109.932 231.8 110.412 232.006 110.995C232.211 111.578 232.314 112.195 232.314 112.949V113.669H224.566V112.023H229.674C229.674 111.715 229.606 111.441 229.468 111.235C229.331 110.995 229.126 110.823 228.886 110.686C228.646 110.549 228.371 110.481 228.063 110.481C227.754 110.481 227.446 110.549 227.206 110.686C226.966 110.823 226.76 111.029 226.623 111.269C226.486 111.509 226.383 111.783 226.383 112.092V113.772C226.383 114.149 226.451 114.458 226.588 114.732C226.726 115.006 226.931 115.212 227.206 115.383C227.48 115.521 227.788 115.623 228.131 115.623C228.371 115.623 228.611 115.589 228.817 115.521C229.023 115.452 229.194 115.349 229.331 115.212C229.468 115.075 229.571 114.903 229.674 114.698L232.28 114.766C232.177 115.349 231.937 115.863 231.56 116.275C231.183 116.721 230.703 117.029 230.12 117.269C229.537 117.372 228.851 117.509 228.063 117.509Z" fill="white"/>
<path d="M236.6 112.263V117.337H233.754V108.423H236.462V110.069H236.565C236.771 109.52 237.114 109.109 237.56 108.8C238.04 108.492 238.588 108.32 239.274 108.32C239.891 108.32 240.44 108.457 240.92 108.732C241.365 109.006 241.742 109.417 241.982 109.897C242.257 110.412 242.36 110.995 242.36 111.646V117.303H239.514V112.195C239.514 111.715 239.377 111.303 239.137 111.029C238.897 110.755 238.52 110.617 238.074 110.617C237.765 110.617 237.525 110.686 237.285 110.823C237.045 110.96 236.874 111.132 236.771 111.372C236.668 111.612 236.6 111.92 236.6 112.263Z" fill="white"/>
<path d="M249.148 108.423V110.515H243.525V108.423H249.148ZM244.691 106.297H247.536V114.526C247.536 114.697 247.571 114.835 247.605 114.937C247.674 115.04 247.742 115.109 247.845 115.177C247.948 115.212 248.085 115.246 248.222 115.246C248.325 115.246 248.462 115.246 248.565 115.212C248.702 115.177 248.771 115.177 248.839 115.143L249.285 117.2C249.148 117.235 248.977 117.303 248.702 117.337C248.428 117.372 248.154 117.44 247.811 117.44C247.159 117.475 246.577 117.406 246.097 117.2C245.617 117.029 245.274 116.72 244.999 116.309C244.759 115.897 244.622 115.417 244.622 114.8V106.297H244.691Z" fill="white"/>
<path d="M254.085 117.338V105.475H258.988C259.879 105.475 260.633 105.647 261.285 105.955C261.936 106.264 262.416 106.744 262.793 107.327C263.136 107.909 263.308 108.629 263.308 109.418C263.308 110.241 263.136 110.927 262.759 111.509C262.416 112.092 261.902 112.504 261.216 112.812C260.565 113.121 259.776 113.258 258.885 113.258H255.799V110.995H258.371C258.816 110.995 259.159 110.927 259.468 110.824C259.776 110.721 259.982 110.549 260.119 110.309C260.256 110.069 260.359 109.761 260.359 109.418C260.359 109.041 260.291 108.732 260.119 108.492C259.982 108.252 259.742 108.081 259.468 107.944C259.193 107.807 258.816 107.772 258.371 107.772H256.965V117.338H254.085ZM260.771 111.887L263.719 117.304H260.599L257.685 111.887H260.771Z" fill="white"/>
<path d="M268.897 117.509C267.972 117.509 267.149 117.338 266.497 116.961C265.812 116.583 265.297 116.069 264.955 115.383C264.577 114.698 264.406 113.875 264.406 112.949C264.406 112.023 264.577 111.235 264.955 110.549C265.332 109.863 265.846 109.315 266.497 108.938C267.149 108.561 267.937 108.355 268.829 108.355C269.446 108.355 270.029 108.458 270.577 108.663C271.092 108.869 271.572 109.143 271.949 109.555C272.326 109.932 272.635 110.412 272.84 110.995C273.046 111.578 273.149 112.195 273.149 112.949V113.669H265.366V112.023H270.475C270.475 111.715 270.406 111.441 270.269 111.235C270.132 110.995 269.926 110.823 269.686 110.686C269.446 110.549 269.172 110.481 268.863 110.481C268.555 110.481 268.246 110.549 268.006 110.686C267.766 110.823 267.56 111.029 267.423 111.269C267.286 111.509 267.183 111.783 267.183 112.092V113.772C267.183 114.149 267.252 114.458 267.389 114.732C267.526 115.006 267.732 115.212 268.006 115.383C268.28 115.521 268.589 115.623 268.932 115.623C269.172 115.623 269.412 115.589 269.617 115.521C269.823 115.452 269.995 115.349 270.132 115.212C270.269 115.075 270.372 114.903 270.475 114.698L273.08 114.766C272.977 115.349 272.737 115.863 272.36 116.275C271.983 116.721 271.503 117.029 270.92 117.269C270.337 117.372 269.686 117.509 268.897 117.509Z" fill="white"/>
<path d="M278.736 117.509C277.811 117.509 276.988 117.303 276.336 116.926C275.685 116.549 275.136 116 274.793 115.315C274.451 114.629 274.245 113.84 274.245 112.915C274.245 111.989 274.416 111.2 274.793 110.515C275.171 109.829 275.685 109.28 276.336 108.903C277.022 108.526 277.811 108.32 278.736 108.32C279.559 108.32 280.279 108.457 280.896 108.766C281.513 109.075 281.993 109.486 282.336 110.035C282.679 110.583 282.851 111.2 282.885 111.955H280.245C280.176 111.509 280.039 111.132 279.799 110.892C279.559 110.652 279.216 110.515 278.805 110.515C278.462 110.515 278.188 110.617 277.948 110.789C277.708 110.96 277.502 111.235 277.365 111.612C277.228 111.955 277.159 112.4 277.159 112.949C277.159 113.463 277.228 113.909 277.365 114.286C277.502 114.663 277.708 114.903 277.948 115.109C278.188 115.28 278.496 115.383 278.805 115.383C279.079 115.383 279.285 115.315 279.491 115.212C279.696 115.109 279.868 114.937 280.005 114.732C280.142 114.526 280.211 114.252 280.245 113.943H282.885C282.851 114.663 282.679 115.315 282.336 115.863C281.993 116.412 281.513 116.823 280.931 117.132C280.279 117.337 279.559 117.509 278.736 117.509Z" fill="white"/>
<path d="M288.475 117.509C287.549 117.509 286.726 117.338 286.075 116.961C285.389 116.583 284.875 116.069 284.532 115.383C284.155 114.698 283.983 113.875 283.983 112.949C283.983 112.023 284.155 111.235 284.532 110.549C284.909 109.863 285.423 109.315 286.075 108.938C286.726 108.561 287.515 108.355 288.406 108.355C289.023 108.355 289.606 108.458 290.155 108.663C290.669 108.869 291.149 109.143 291.526 109.555C291.903 109.932 292.212 110.412 292.418 110.995C292.623 111.578 292.726 112.195 292.726 112.949V113.669H284.978V112.023H290.086C290.086 111.715 290.018 111.441 289.881 111.235C289.743 110.995 289.538 110.823 289.298 110.686C289.058 110.549 288.783 110.481 288.475 110.481C288.166 110.481 287.858 110.549 287.618 110.686C287.378 110.823 287.172 111.029 287.035 111.269C286.898 111.509 286.795 111.783 286.795 112.092V113.772C286.795 114.149 286.863 114.458 287.001 114.732C287.138 115.006 287.343 115.212 287.618 115.383C287.892 115.521 288.201 115.623 288.543 115.623C288.783 115.623 289.023 115.589 289.229 115.521C289.435 115.452 289.606 115.349 289.743 115.212C289.881 115.075 289.983 114.903 290.086 114.698L292.692 114.766C292.589 115.349 292.349 115.863 291.972 116.275C291.595 116.721 291.115 117.029 290.532 117.269C289.949 117.372 289.263 117.509 288.475 117.509Z" fill="white"/>
<path d="M295.571 107.395C295.159 107.395 294.816 107.258 294.542 106.984C294.268 106.709 294.096 106.401 294.096 106.024C294.096 105.647 294.234 105.338 294.542 105.064C294.851 104.789 295.159 104.652 295.571 104.652C295.982 104.652 296.325 104.789 296.599 105.064C296.874 105.338 297.011 105.647 297.011 106.024C297.011 106.401 296.874 106.709 296.599 106.984C296.325 107.258 295.982 107.395 295.571 107.395ZM294.165 117.338V108.424H297.011V117.338H294.165Z" fill="white"/>
<path d="M307.434 108.422L304.382 117.337H301.125L298.074 108.422H301.057L302.702 114.559H302.805L304.451 108.422H307.434Z" fill="white"/>
<path d="M312.371 117.509C311.445 117.509 310.622 117.338 309.971 116.961C309.285 116.583 308.771 116.069 308.428 115.383C308.051 114.698 307.879 113.875 307.879 112.949C307.879 112.023 308.051 111.235 308.428 110.549C308.805 109.863 309.319 109.315 309.971 108.938C310.622 108.561 311.411 108.355 312.302 108.355C312.919 108.355 313.502 108.458 314.051 108.663C314.565 108.869 315.045 109.143 315.422 109.555C315.799 109.932 316.108 110.412 316.314 110.995C316.519 111.578 316.622 112.195 316.622 112.949V113.669H308.874V112.023H313.982C313.982 111.715 313.914 111.441 313.776 111.235C313.639 110.995 313.434 110.823 313.194 110.686C312.954 110.549 312.679 110.481 312.371 110.481C312.062 110.481 311.754 110.549 311.514 110.686C311.274 110.823 311.068 111.029 310.931 111.269C310.794 111.509 310.691 111.783 310.691 112.092V113.772C310.691 114.149 310.759 114.458 310.896 114.732C311.034 115.006 311.239 115.212 311.514 115.383C311.788 115.521 312.096 115.623 312.439 115.623C312.679 115.623 312.919 115.589 313.125 115.521C313.331 115.452 313.502 115.349 313.639 115.212C313.776 115.075 313.879 114.903 313.982 114.698L316.588 114.766C316.485 115.349 316.245 115.863 315.868 116.275C315.491 116.721 315.011 117.029 314.428 117.269C313.845 117.372 313.159 117.509 312.371 117.509Z" fill="white"/>
<path d="M321.319 117.44C320.668 117.44 320.051 117.268 319.536 116.925C319.022 116.582 318.576 116.068 318.234 115.382C317.925 114.697 317.754 113.874 317.754 112.845C317.754 111.782 317.925 110.925 318.268 110.274C318.611 109.588 319.022 109.108 319.571 108.765C320.119 108.457 320.702 108.285 321.319 108.285C321.799 108.285 322.176 108.354 322.519 108.525C322.862 108.697 323.136 108.902 323.342 109.142C323.548 109.382 323.719 109.657 323.822 109.931H323.891V105.44H326.736V117.302H323.925V115.897H323.822C323.719 116.171 323.548 116.411 323.308 116.651C323.068 116.891 322.828 117.097 322.485 117.234C322.142 117.371 321.765 117.44 321.319 117.44ZM322.279 115.245C322.622 115.245 322.931 115.142 323.171 114.937C323.411 114.731 323.616 114.457 323.719 114.114C323.856 113.771 323.925 113.325 323.925 112.845C323.925 112.365 323.856 111.954 323.719 111.577C323.582 111.234 323.411 110.96 323.171 110.754C322.931 110.548 322.622 110.48 322.279 110.48C321.936 110.48 321.628 110.582 321.388 110.754C321.148 110.96 320.976 111.234 320.839 111.577C320.702 111.92 320.668 112.331 320.668 112.811C320.668 113.291 320.736 113.702 320.874 114.08C321.011 114.422 321.182 114.697 321.422 114.902C321.662 115.142 321.936 115.245 322.279 115.245Z" fill="white"/>
<path d="M101.926 192.354H340.109C343.4 192.354 346.074 189.679 346.074 186.388C346.074 183.097 343.4 180.422 340.109 180.422H101.926C98.6343 180.422 95.9601 183.097 95.9601 186.388C95.9601 189.679 98.6343 192.354 101.926 192.354Z" fill="black"/>
<path d="M335.685 186.389V451.006L328.417 458.24L321.182 451.006L313.914 458.24L306.645 451.006L299.377 458.24L292.108 451.006L284.84 458.24L277.605 451.006L270.337 458.24L263.068 451.006L255.8 458.24L248.531 451.006L241.297 458.24L234.028 451.006L226.76 458.24L219.491 451.006L212.222 458.24L204.954 451.006L197.72 458.24L190.451 451.006L183.182 458.24L175.914 451.006L168.645 458.24L161.411 451.006L154.142 458.24L146.874 451.006L139.605 458.24L132.337 451.006L125.068 458.24L117.834 451.006L110.565 458.24L103.297 451.006V186.389H335.685Z" fill="#EFEFEF"/>
<path d="M103.297 186.389H335.685V192.355H103.297V186.389Z" fill="#E5E5E5"/>
<path d="M226.418 222.01H308.943C310.726 222.01 312.201 220.536 312.201 218.753C312.201 216.97 310.726 215.496 308.943 215.496H226.418C224.635 215.496 223.161 216.97 223.161 218.753C223.161 220.536 224.635 222.01 226.418 222.01Z" fill="#D4D4D4"/>
<path d="M128.737 222.01H142.417C144.2 222.01 145.674 220.536 145.674 218.753C145.674 216.97 144.2 215.496 142.417 215.496H128.737C126.954 215.496 125.48 216.97 125.48 218.753C125.48 220.536 126.954 222.01 128.737 222.01Z" fill="#D4D4D4"/>
</g>
<defs>
<filter id="filter0_i_9680_547" x="0" y="0" width="442" height="224" filterUnits="userSpaceOnUse" color-interpolation-filters="sRGB">
<feFlood flood-opacity="0" result="BackgroundImageFix"/>
<feBlend mode="normal" in="SourceGraphic" in2="BackgroundImageFix" result="shape"/>
<feColorMatrix in="SourceAlpha" type="matrix" values="0 0 0 0 0 0 0 0 0 0 0 0 0 0 0 0 0 0 127 0" result="hardAlpha"/>
<feOffset/>
<feGaussianBlur stdDeviation="2"/>
<feComposite in2="hardAlpha" operator="arithmetic" k2="-1" k3="1"/>
<feColorMatrix type="matrix" values="0 0 0 0 0 0 0 0 0 0 0 0 0 0 0 0 0 0 0.08 0"/>
<feBlend mode="normal" in2="shape" result="effect1_innerShadow_9680_547"/>
</filter>
<radialGradient id="paint0_radial_9680_547" cx="0" cy="0" r="1" gradientUnits="userSpaceOnUse" gradientTransform="translate(221 112) rotate(90) scale(112 221)">
<stop stop-color="#F59E0B" stop-opacity="0"/>
<stop offset="1" stop-color="#F59E0B" stop-opacity="0.2"/>
</radialGradient>
<linearGradient id="paint1_linear_9680_547" x1="138.539" y1="92.8161" x2="139.297" y2="164.829" gradientUnits="userSpaceOnUse">
<stop stop-color="white"/>
<stop offset="0.3687" stop-color="#E9E9E9"/>
<stop offset="1" stop-color="#C5C5C5"/>
</linearGradient>
<linearGradient id="paint2_linear_9680_547" x1="138.861" y1="102.298" x2="138.861" y2="172.14" gradientUnits="userSpaceOnUse">
<stop stop-color="white"/>
<stop offset="0.3687" stop-color="#E9E9E9"/>
<stop offset="1" stop-color="#C5C5C5"/>
</linearGradient>
<clipPath id="clip0_9680_547">
<rect width="442" height="224" fill="white"/>
</clipPath>
</defs>
</svg>
