<svg width="370" height="147" viewBox="0 0 370 147" fill="none" xmlns="http://www.w3.org/2000/svg">
<rect x="0.5" y="0.5" width="369" height="146" rx="15.5" fill="white"/>
<rect x="0.5" y="0.5" width="369" height="146" rx="15.5" stroke="#E5E7EB"/>
<mask id="path-2-outside-1_12485_314" maskUnits="userSpaceOnUse" x="12" y="12" width="168" height="123" fill="black">
<rect fill="white" x="12" y="12" width="168" height="123"/>
<path d="M12 12H179V135H12V12Z"/>
</mask>
<path d="M179 12H178V135H179H180V12H179Z" fill="#21BB5A" mask="url(#path-2-outside-1_12485_314)"/>
<path d="M24.8849 38V27.8182H28.902C29.6709 27.8182 30.3272 27.9557 30.8707 28.2308C31.4176 28.5026 31.8336 28.8887 32.1186 29.3892C32.407 29.8864 32.5511 30.4714 32.5511 31.1442C32.5511 31.8203 32.4053 32.402 32.1136 32.8892C31.822 33.3731 31.3994 33.7443 30.8459 34.0028C30.2957 34.2614 29.6295 34.3906 28.8473 34.3906H26.1577V32.6605H28.4993C28.9103 32.6605 29.2517 32.6042 29.5234 32.4915C29.7952 32.3788 29.9974 32.2098 30.13 31.9844C30.2659 31.759 30.3338 31.4789 30.3338 31.1442C30.3338 30.8061 30.2659 30.5211 30.13 30.2891C29.9974 30.0571 29.7936 29.8814 29.5185 29.7621C29.2467 29.6394 28.9036 29.5781 28.4893 29.5781H27.0376V38H24.8849ZM30.3835 33.3665L32.9141 38H30.5376L28.0618 33.3665H30.3835ZM37.3599 38.1491C36.5877 38.1491 35.9198 37.9851 35.3564 37.657C34.7962 37.3255 34.3637 36.8648 34.0588 36.2749C33.7538 35.6816 33.6014 34.9938 33.6014 34.2116C33.6014 33.4228 33.7538 32.7334 34.0588 32.1435C34.3637 31.5502 34.7962 31.0895 35.3564 30.7614C35.9198 30.4299 36.5877 30.2642 37.3599 30.2642C38.1322 30.2642 38.7984 30.4299 39.3585 30.7614C39.9219 31.0895 40.3561 31.5502 40.661 32.1435C40.966 32.7334 41.1184 33.4228 41.1184 34.2116C41.1184 34.9938 40.966 35.6816 40.661 36.2749C40.3561 36.8648 39.9219 37.3255 39.3585 37.657C38.7984 37.9851 38.1322 38.1491 37.3599 38.1491ZM37.3699 36.5085C37.7212 36.5085 38.0145 36.4091 38.2498 36.2102C38.4851 36.008 38.6625 35.733 38.7818 35.3849C38.9044 35.0369 38.9657 34.6409 38.9657 34.1967C38.9657 33.7526 38.9044 33.3565 38.7818 33.0085C38.6625 32.6605 38.4851 32.3854 38.2498 32.1832C38.0145 31.9811 37.7212 31.88 37.3699 31.88C37.0152 31.88 36.7169 31.9811 36.475 32.1832C36.2363 32.3854 36.0557 32.6605 35.9331 33.0085C35.8137 33.3565 35.7541 33.7526 35.7541 34.1967C35.7541 34.6409 35.8137 35.0369 35.9331 35.3849C36.0557 35.733 36.2363 36.008 36.475 36.2102C36.7169 36.4091 37.0152 36.5085 37.3699 36.5085ZM47.3926 34.7486V30.3636H49.5105V38H47.4771V36.6129H47.3975C47.2252 37.0604 46.9385 37.42 46.5375 37.6918C46.1397 37.9635 45.6542 38.0994 45.0808 38.0994C44.5704 38.0994 44.1213 37.9834 43.7335 37.7514C43.3457 37.5194 43.0424 37.1896 42.8237 36.7621C42.6083 36.3345 42.4989 35.8224 42.4956 35.2259V30.3636H44.6135V34.848C44.6168 35.2988 44.7377 35.6551 44.9764 35.9169C45.215 36.1787 45.5349 36.3097 45.9359 36.3097C46.1911 36.3097 46.4297 36.2517 46.6518 36.1357C46.8739 36.0163 47.0529 35.8407 47.1887 35.6087C47.3279 35.3767 47.3959 35.09 47.3926 34.7486ZM53.3224 33.5852V38H51.2045V30.3636H53.223V31.7109H53.3125C53.4815 31.2668 53.7649 30.9155 54.1626 30.657C54.5604 30.3951 55.0426 30.2642 55.6094 30.2642C56.1397 30.2642 56.602 30.3802 56.9964 30.6122C57.3909 30.8442 57.6974 31.1757 57.9162 31.6065C58.1349 32.0341 58.2443 32.5445 58.2443 33.1378V38H56.1264V33.5156C56.1297 33.0483 56.0104 32.6837 55.7685 32.4219C55.5265 32.1567 55.1934 32.0241 54.7692 32.0241C54.4841 32.0241 54.2322 32.0855 54.0135 32.2081C53.7981 32.3307 53.629 32.5097 53.5064 32.745C53.3871 32.977 53.3258 33.2571 53.3224 33.5852ZM62.7275 38.1243C62.1474 38.1243 61.6221 37.9751 61.1515 37.6768C60.6841 37.3752 60.3129 36.9328 60.0378 36.3494C59.766 35.7628 59.6301 35.0436 59.6301 34.1918C59.6301 33.3168 59.771 32.5893 60.0527 32.0092C60.3345 31.4259 60.709 30.9901 61.1763 30.7017C61.647 30.41 62.1623 30.2642 62.7225 30.2642C63.15 30.2642 63.5063 30.3371 63.7914 30.483C64.0797 30.6255 64.3117 30.8045 64.4874 31.0199C64.6664 31.232 64.8023 31.4408 64.8951 31.6463H64.9597V27.8182H67.0726V38H64.9846V36.777H64.8951C64.7956 36.9891 64.6548 37.1996 64.4725 37.4084C64.2935 37.6139 64.0598 37.7846 63.7715 37.9205C63.4864 38.0563 63.1384 38.1243 62.7275 38.1243ZM63.3986 36.4389C63.74 36.4389 64.0283 36.3461 64.2637 36.1605C64.5023 35.9716 64.6846 35.7081 64.8105 35.37C64.9398 35.032 65.0044 34.6359 65.0044 34.1818C65.0044 33.7277 64.9415 33.3333 64.8155 32.9986C64.6896 32.6638 64.5073 32.4053 64.2686 32.223C64.03 32.0407 63.74 31.9496 63.3986 31.9496C63.0506 31.9496 62.7573 32.044 62.5186 32.233C62.28 32.4219 62.0994 32.6837 61.9767 33.0185C61.8541 33.3532 61.7928 33.741 61.7928 34.1818C61.7928 34.6259 61.8541 35.0187 61.9767 35.3601C62.1027 35.6982 62.2833 35.9633 62.5186 36.1555C62.7573 36.3445 63.0506 36.4389 63.3986 36.4389Z" fill="#969696"/>
<rect x="72" y="25" width="25" height="15" rx="2" fill="#969696"/>
<path d="M79.4588 28.7273V36H78.358V29.8281H78.3153L76.5753 30.9645V29.9134L78.3899 28.7273H79.4588ZM85.2102 28.3864L82.8665 37.0938H81.9183L84.2621 28.3864H85.2102ZM86.9453 34.5795V33.6918L90.0881 28.7273H90.7876V30.0341H90.3438L88.0959 33.5923V33.6491H92.4034V34.5795H86.9453ZM90.3935 36V34.3097L90.4006 33.9048V28.7273H91.4411V36H90.3935Z" fill="white"/>
<g clip-path="url(#clip0_12485_314)">
<path d="M153.286 24.5C152.025 24.5 151 25.525 151 26.7857V38.2143C151 39.475 152.025 40.5 153.286 40.5H164.714C165.975 40.5 167 39.475 167 38.2143V26.7857C167 25.525 165.975 24.5 164.714 24.5H153.286ZM158.143 35.6429V33.3571H155.857C155.382 33.3571 155 32.975 155 32.5C155 32.025 155.382 31.6429 155.857 31.6429H158.143V29.3571C158.143 28.8821 158.525 28.5 159 28.5C159.475 28.5 159.857 28.8821 159.857 29.3571V31.6429H162.143C162.618 31.6429 163 32.025 163 32.5C163 32.975 162.618 33.3571 162.143 33.3571H159.857V35.6429C159.857 36.1179 159.475 36.5 159 36.5C158.525 36.5 158.143 36.1179 158.143 35.6429Z" fill="#21BB5A"/>
</g>
<path d="M12 61C12 56.5817 15.5817 53 20 53H179V94H20C15.5817 94 12 90.4183 12 86V61Z" fill="#21BB5A"/>
<path d="M25.1186 79V68.8182H31.4325V70.1406H26.6548V73.2429H30.9801V74.5604H26.6548V79H25.1186ZM35.9331 79.1541C35.1807 79.1541 34.5327 78.9934 33.9892 78.6719C33.4489 78.3471 33.0313 77.8913 32.7363 77.3047C32.4447 76.7147 32.2988 76.0237 32.2988 75.2315C32.2988 74.4493 32.4447 73.7599 32.7363 73.1634C33.0313 72.5668 33.4423 72.1011 33.9693 71.7663C34.4996 71.4316 35.1194 71.2642 35.8287 71.2642C36.2595 71.2642 36.6771 71.3355 37.0815 71.478C37.4859 71.6205 37.8488 71.8442 38.1703 72.1491C38.4918 72.4541 38.7453 72.8501 38.9309 73.3374C39.1165 73.8213 39.2093 74.4096 39.2093 75.1023V75.6293H33.139V74.5156H37.7527C37.7527 74.1245 37.6731 73.7782 37.514 73.4766C37.3549 73.1716 37.1312 72.9313 36.8429 72.7557C36.5578 72.58 36.2231 72.4922 35.8386 72.4922C35.421 72.4922 35.0564 72.5949 34.7449 72.8004C34.4366 73.0026 34.198 73.2678 34.0289 73.5959C33.8632 73.9207 33.7804 74.2737 33.7804 74.6548V75.5249C33.7804 76.0353 33.8699 76.4695 34.0488 76.8274C34.2311 77.1854 34.4847 77.4588 34.8095 77.6477C35.1343 77.8333 35.5138 77.9261 35.948 77.9261C36.2297 77.9261 36.4866 77.8864 36.7186 77.8068C36.9506 77.724 37.1511 77.6013 37.3201 77.4389C37.4892 77.2765 37.6184 77.076 37.7079 76.8374L39.1149 77.0909C39.0022 77.5052 38.8 77.8681 38.5083 78.1797C38.22 78.4879 37.8571 78.7282 37.4196 78.9006C36.9854 79.0696 36.4899 79.1541 35.9331 79.1541ZM44.1499 79.1541C43.3975 79.1541 42.7495 78.9934 42.206 78.6719C41.6657 78.3471 41.2481 77.8913 40.9531 77.3047C40.6615 76.7147 40.5156 76.0237 40.5156 75.2315C40.5156 74.4493 40.6615 73.7599 40.9531 73.1634C41.2481 72.5668 41.6591 72.1011 42.1861 71.7663C42.7164 71.4316 43.3362 71.2642 44.0455 71.2642C44.4763 71.2642 44.8939 71.3355 45.2983 71.478C45.7027 71.6205 46.0656 71.8442 46.3871 72.1491C46.7086 72.4541 46.9621 72.8501 47.1477 73.3374C47.3333 73.8213 47.4261 74.4096 47.4261 75.1023V75.6293H41.3558V74.5156H45.9695C45.9695 74.1245 45.8899 73.7782 45.7308 73.4766C45.5717 73.1716 45.348 72.9313 45.0597 72.7557C44.7746 72.58 44.4399 72.4922 44.0554 72.4922C43.6378 72.4922 43.2732 72.5949 42.9616 72.8004C42.6534 73.0026 42.4148 73.2678 42.2457 73.5959C42.08 73.9207 41.9972 74.2737 41.9972 74.6548V75.5249C41.9972 76.0353 42.0866 76.4695 42.2656 76.8274C42.4479 77.1854 42.7015 77.4588 43.0263 77.6477C43.3511 77.8333 43.7306 77.9261 44.1648 77.9261C44.4465 77.9261 44.7034 77.8864 44.9354 77.8068C45.1674 77.724 45.3679 77.6013 45.5369 77.4389C45.706 77.2765 45.8352 77.076 45.9247 76.8374L47.3317 77.0909C47.219 77.5052 47.0168 77.8681 46.7251 78.1797C46.4368 78.4879 46.0739 78.7282 45.6364 78.9006C45.2022 79.0696 44.7067 79.1541 44.1499 79.1541ZM51.9341 79.1491C51.3176 79.1491 50.7675 78.9917 50.2836 78.6768C49.803 78.3587 49.4251 77.9062 49.15 77.3196C48.8783 76.7296 48.7424 76.022 48.7424 75.1967C48.7424 74.3714 48.8799 73.6655 49.155 73.0788C49.4334 72.4922 49.8146 72.0431 50.2985 71.7315C50.7824 71.42 51.3309 71.2642 51.9441 71.2642C52.418 71.2642 52.7992 71.3438 53.0875 71.5028C53.3792 71.6586 53.6046 71.8409 53.7637 72.0497C53.9261 72.2585 54.052 72.4425 54.1415 72.6016H54.231V68.8182H55.7175V79H54.2658V77.8118H54.1415C54.052 77.9742 53.9228 78.1598 53.7537 78.3686C53.588 78.5774 53.3593 78.7597 53.0676 78.9155C52.776 79.0713 52.3981 79.1491 51.9341 79.1491ZM52.2623 77.8814C52.6898 77.8814 53.0511 77.7687 53.3461 77.5433C53.6444 77.3146 53.8697 76.9981 54.0222 76.5938C54.178 76.1894 54.2559 75.7187 54.2559 75.1818C54.2559 74.6515 54.1796 74.1875 54.0272 73.7898C53.8747 73.392 53.651 73.0821 53.356 72.8601C53.061 72.638 52.6964 72.527 52.2623 72.527C51.8148 72.527 51.4419 72.643 51.1436 72.875C50.8453 73.107 50.62 73.4235 50.4675 73.8246C50.3184 74.2256 50.2438 74.678 50.2438 75.1818C50.2438 75.6922 50.32 76.1513 50.4725 76.5589C50.6249 76.9666 50.8503 77.2898 51.1486 77.5284C51.4502 77.7637 51.8214 77.8814 52.2623 77.8814ZM61.6635 79V68.8182H65.2928C66.0816 68.8182 66.7362 68.9541 67.2566 69.2259C67.7802 69.4976 68.1713 69.8738 68.4299 70.3544C68.6884 70.8317 68.8176 71.3835 68.8176 72.0099C68.8176 72.633 68.6867 73.1816 68.4249 73.6555C68.1664 74.1262 67.7753 74.4924 67.2516 74.7543C66.7312 75.0161 66.0766 75.147 65.2878 75.147H62.5385V73.8246H65.1486C65.6458 73.8246 66.0501 73.7533 66.3617 73.6108C66.6766 73.4683 66.9069 73.2611 67.0527 72.9893C67.1986 72.7176 67.2715 72.3911 67.2715 72.0099C67.2715 71.6255 67.1969 71.2924 67.0478 71.0107C66.9019 70.7289 66.6716 70.5135 66.3567 70.3643C66.0452 70.2119 65.6358 70.1357 65.1287 70.1357H63.1998V79H61.6635ZM66.6898 74.4062L69.2054 79H67.4554L64.9895 74.4062H66.6898ZM73.6886 79.1541C72.9727 79.1541 72.3479 78.9901 71.8143 78.6619C71.2807 78.3338 70.8664 77.8748 70.5714 77.2848C70.2764 76.6948 70.1289 76.0054 70.1289 75.2166C70.1289 74.4245 70.2764 73.7318 70.5714 73.1385C70.8664 72.5452 71.2807 72.0845 71.8143 71.7564C72.3479 71.4283 72.9727 71.2642 73.6886 71.2642C74.4045 71.2642 75.0292 71.4283 75.5629 71.7564C76.0965 72.0845 76.5108 72.5452 76.8058 73.1385C77.1007 73.7318 77.2482 74.4245 77.2482 75.2166C77.2482 76.0054 77.1007 76.6948 76.8058 77.2848C76.5108 77.8748 76.0965 78.3338 75.5629 78.6619C75.0292 78.9901 74.4045 79.1541 73.6886 79.1541ZM73.6935 77.9062C74.1576 77.9062 74.542 77.7836 74.8469 77.5384C75.1519 77.2931 75.3772 76.9666 75.5231 76.5589C75.6722 76.1513 75.7468 75.7022 75.7468 75.2116C75.7468 74.7244 75.6722 74.277 75.5231 73.8693C75.3772 73.4583 75.1519 73.1286 74.8469 72.88C74.542 72.6314 74.1576 72.5071 73.6935 72.5071C73.2262 72.5071 72.8384 72.6314 72.5302 72.88C72.2253 73.1286 71.9982 73.4583 71.8491 73.8693C71.7032 74.277 71.6303 74.7244 71.6303 75.2116C71.6303 75.7022 71.7032 76.1513 71.8491 76.5589C71.9982 76.9666 72.2253 77.2931 72.5302 77.5384C72.8384 77.7836 73.2262 77.9062 73.6935 77.9062ZM83.7449 75.8331V71.3636H85.2363V79H83.7747V77.6776H83.6951C83.5195 78.0852 83.2377 78.425 82.85 78.6967C82.4655 78.9652 81.9866 79.0994 81.4132 79.0994C80.9226 79.0994 80.4885 78.9917 80.1106 78.7763C79.7361 78.5575 79.4411 78.2344 79.2257 77.8068C79.0136 77.3793 78.9075 76.8506 78.9075 76.2209V71.3636H80.394V76.0419C80.394 76.5623 80.5382 76.9766 80.8265 77.2848C81.1149 77.593 81.4894 77.7472 81.9501 77.7472C82.2285 77.7472 82.5053 77.6776 82.7804 77.5384C83.0588 77.3991 83.2891 77.1887 83.4714 76.907C83.657 76.6252 83.7482 76.2673 83.7449 75.8331ZM88.7202 74.4659V79H87.2337V71.3636H88.6605V72.6065H88.755C88.9306 72.2022 89.2057 71.8774 89.5803 71.6321C89.9581 71.3868 90.4337 71.2642 91.0071 71.2642C91.5275 71.2642 91.9832 71.3736 92.3743 71.5923C92.7654 71.8078 93.0687 72.1293 93.2841 72.5568C93.4995 72.9844 93.6072 73.513 93.6072 74.1428V79H92.1207V74.3217C92.1207 73.7682 91.9766 73.3357 91.6882 73.0241C91.3999 72.7093 91.0038 72.5518 90.5 72.5518C90.1553 72.5518 89.8487 72.6264 89.5803 72.7756C89.3151 72.9247 89.1046 73.1435 88.9489 73.4318C88.7964 73.7169 88.7202 74.0616 88.7202 74.4659ZM98.4595 79.1491C97.843 79.1491 97.2929 78.9917 96.8089 78.6768C96.3284 78.3587 95.9505 77.9062 95.6754 77.3196C95.4036 76.7296 95.2678 76.022 95.2678 75.1967C95.2678 74.3714 95.4053 73.6655 95.6804 73.0788C95.9588 72.4922 96.34 72.0431 96.8239 71.7315C97.3078 71.42 97.8563 71.2642 98.4695 71.2642C98.9434 71.2642 99.3246 71.3438 99.6129 71.5028C99.9046 71.6586 100.13 71.8409 100.289 72.0497C100.451 72.2585 100.577 72.4425 100.667 72.6016H100.756V68.8182H102.243V79H100.791V77.8118H100.667C100.577 77.9742 100.448 78.1598 100.279 78.3686C100.113 78.5774 99.8847 78.7597 99.593 78.9155C99.3014 79.0713 98.9235 79.1491 98.4595 79.1491ZM98.7876 77.8814C99.2152 77.8814 99.5765 77.7687 99.8714 77.5433C100.17 77.3146 100.395 76.9981 100.548 76.5938C100.703 76.1894 100.781 75.7187 100.781 75.1818C100.781 74.6515 100.705 74.1875 100.553 73.7898C100.4 73.392 100.176 73.0821 99.8814 72.8601C99.5864 72.638 99.2218 72.527 98.7876 72.527C98.3402 72.527 97.9673 72.643 97.669 72.875C97.3707 73.107 97.1454 73.4235 96.9929 73.8246C96.8438 74.2256 96.7692 74.678 96.7692 75.1818C96.7692 75.6922 96.8454 76.1513 96.9979 76.5589C97.1503 76.9666 97.3757 77.2898 97.674 77.5284C97.9756 77.7637 98.3468 77.8814 98.7876 77.8814Z" fill="white"/>
<path d="M26.6548 109.818V120H25.1186V109.818H26.6548ZM30.2592 115.466V120H28.7727V112.364H30.1996V113.607H30.294C30.4697 113.202 30.7448 112.877 31.1193 112.632C31.4972 112.387 31.9728 112.264 32.5462 112.264C33.0665 112.264 33.5223 112.374 33.9134 112.592C34.3045 112.808 34.6077 113.129 34.8232 113.557C35.0386 113.984 35.1463 114.513 35.1463 115.143V120H33.6598V115.322C33.6598 114.768 33.5156 114.336 33.2273 114.024C32.9389 113.709 32.5429 113.552 32.0391 113.552C31.6944 113.552 31.3878 113.626 31.1193 113.776C30.8542 113.925 30.6437 114.143 30.4879 114.432C30.3355 114.717 30.2592 115.062 30.2592 115.466ZM43.3991 112.364L40.63 120H39.0391L36.2649 112.364H37.8608L39.7947 118.24H39.8743L41.8033 112.364H43.3991ZM47.8276 120.154C47.0752 120.154 46.4273 119.993 45.8837 119.672C45.3435 119.347 44.9258 118.891 44.6309 118.305C44.3392 117.715 44.1934 117.024 44.1934 116.232C44.1934 115.449 44.3392 114.76 44.6309 114.163C44.9258 113.567 45.3368 113.101 45.8638 112.766C46.3941 112.432 47.0139 112.264 47.7232 112.264C48.1541 112.264 48.5717 112.335 48.976 112.478C49.3804 112.621 49.7433 112.844 50.0648 113.149C50.3863 113.454 50.6399 113.85 50.8255 114.337C51.0111 114.821 51.1039 115.41 51.1039 116.102V116.629H45.0336V115.516H49.6472C49.6472 115.125 49.5676 114.778 49.4086 114.477C49.2495 114.172 49.0257 113.931 48.7374 113.756C48.4524 113.58 48.1176 113.492 47.7331 113.492C47.3155 113.492 46.9509 113.595 46.6394 113.8C46.3311 114.003 46.0925 114.268 45.9235 114.596C45.7578 114.921 45.6749 115.274 45.6749 115.655V116.525C45.6749 117.035 45.7644 117.469 45.9434 117.827C46.1257 118.185 46.3792 118.459 46.704 118.648C47.0288 118.833 47.4083 118.926 47.8425 118.926C48.1242 118.926 48.3811 118.886 48.6131 118.807C48.8451 118.724 49.0456 118.601 49.2147 118.439C49.3837 118.277 49.513 118.076 49.6025 117.837L51.0094 118.091C50.8967 118.505 50.6945 118.868 50.4029 119.18C50.1145 119.488 49.7516 119.728 49.3141 119.901C48.8799 120.07 48.3844 120.154 47.8276 120.154ZM58.4755 114.228L57.1282 114.467C57.0719 114.294 56.9824 114.13 56.8597 113.974C56.7404 113.819 56.578 113.691 56.3725 113.592C56.167 113.492 55.9102 113.442 55.6019 113.442C55.181 113.442 54.8297 113.537 54.5479 113.726C54.2662 113.911 54.1254 114.152 54.1254 114.447C54.1254 114.702 54.2198 114.907 54.4087 115.063C54.5977 115.219 54.9026 115.347 55.3235 115.446L56.5366 115.724C57.2392 115.887 57.7629 116.137 58.1076 116.475C58.4523 116.813 58.6246 117.252 58.6246 117.793C58.6246 118.25 58.4921 118.658 58.2269 119.016C57.9651 119.37 57.5988 119.649 57.1282 119.851C56.6609 120.053 56.119 120.154 55.5025 120.154C54.6474 120.154 53.9497 119.972 53.4094 119.607C52.8692 119.239 52.5378 118.717 52.4151 118.041L53.8519 117.822C53.9414 118.197 54.1254 118.48 54.4038 118.673C54.6822 118.862 55.0451 118.956 55.4925 118.956C55.9798 118.956 56.3692 118.855 56.6609 118.653C56.9525 118.447 57.0984 118.197 57.0984 117.902C57.0984 117.663 57.0089 117.463 56.8299 117.3C56.6542 117.138 56.3841 117.015 56.0195 116.933L54.7269 116.649C54.0143 116.487 53.4873 116.228 53.146 115.874C52.8079 115.519 52.6388 115.07 52.6388 114.526C52.6388 114.076 52.7648 113.681 53.0167 113.343C53.2686 113.005 53.6166 112.741 54.0607 112.553C54.5049 112.36 55.0136 112.264 55.587 112.264C56.4123 112.264 57.0619 112.443 57.5359 112.801C58.0098 113.156 58.323 113.631 58.4755 114.228ZM63.8237 112.364V113.557H59.6525V112.364H63.8237ZM60.7711 110.534H62.2576V117.758C62.2576 118.046 62.3007 118.263 62.3869 118.409C62.4731 118.552 62.5841 118.649 62.72 118.702C62.8592 118.752 63.01 118.777 63.1724 118.777C63.2917 118.777 63.3961 118.769 63.4856 118.752C63.5751 118.736 63.6447 118.722 63.6944 118.712L63.9629 119.94C63.8767 119.973 63.7541 120.007 63.595 120.04C63.4359 120.076 63.237 120.096 62.9984 120.099C62.6073 120.106 62.2427 120.036 61.9047 119.891C61.5666 119.745 61.2931 119.519 61.0843 119.214C60.8755 118.91 60.7711 118.527 60.7711 118.066V110.534ZM68.6026 120.154C67.8867 120.154 67.262 119.99 66.7283 119.662C66.1947 119.334 65.7804 118.875 65.4854 118.285C65.1905 117.695 65.043 117.005 65.043 116.217C65.043 115.424 65.1905 114.732 65.4854 114.138C65.7804 113.545 66.1947 113.085 66.7283 112.756C67.262 112.428 67.8867 112.264 68.6026 112.264C69.3185 112.264 69.9433 112.428 70.4769 112.756C71.0105 113.085 71.4248 113.545 71.7198 114.138C72.0148 114.732 72.1623 115.424 72.1623 116.217C72.1623 117.005 72.0148 117.695 71.7198 118.285C71.4248 118.875 71.0105 119.334 70.4769 119.662C69.9433 119.99 69.3185 120.154 68.6026 120.154ZM68.6076 118.906C69.0716 118.906 69.4561 118.784 69.761 118.538C70.0659 118.293 70.2913 117.967 70.4371 117.559C70.5863 117.151 70.6609 116.702 70.6609 116.212C70.6609 115.724 70.5863 115.277 70.4371 114.869C70.2913 114.458 70.0659 114.129 69.761 113.88C69.4561 113.631 69.0716 113.507 68.6076 113.507C68.1403 113.507 67.7525 113.631 67.4442 113.88C67.1393 114.129 66.9123 114.458 66.7631 114.869C66.6173 115.277 66.5444 115.724 66.5444 116.212C66.5444 116.702 66.6173 117.151 66.7631 117.559C66.9123 117.967 67.1393 118.293 67.4442 118.538C67.7525 118.784 68.1403 118.906 68.6076 118.906ZM73.8216 120V112.364H75.2583V113.577H75.3379C75.4771 113.166 75.7224 112.843 76.0737 112.607C76.4283 112.369 76.8294 112.249 77.2768 112.249C77.3696 112.249 77.479 112.253 77.6049 112.259C77.7342 112.266 77.8353 112.274 77.9082 112.284V113.706C77.8485 113.689 77.7425 113.671 77.59 113.651C77.4376 113.628 77.2851 113.616 77.1326 113.616C76.7813 113.616 76.4681 113.691 76.193 113.84C75.9212 113.986 75.7058 114.19 75.5467 114.452C75.3876 114.71 75.3081 115.005 75.3081 115.337V120H73.8216ZM83.019 120V109.818H86.6483C87.4371 109.818 88.0917 109.954 88.612 110.226C89.1357 110.498 89.5268 110.874 89.7853 111.354C90.0439 111.832 90.1731 112.384 90.1731 113.01C90.1731 113.633 90.0422 114.182 89.7804 114.656C89.5218 115.126 89.1307 115.492 88.6071 115.754C88.0867 116.016 87.4321 116.147 86.6433 116.147H83.894V114.825H86.5041C87.0012 114.825 87.4056 114.753 87.7172 114.611C88.032 114.468 88.2624 114.261 88.4082 113.989C88.554 113.718 88.627 113.391 88.627 113.01C88.627 112.625 88.5524 112.292 88.4032 112.011C88.2574 111.729 88.027 111.513 87.7122 111.364C87.4006 111.212 86.9913 111.136 86.4842 111.136H84.5552V120H83.019ZM88.0453 115.406L90.5609 120H88.8109L86.345 115.406H88.0453ZM95.044 120.154C94.3281 120.154 93.7034 119.99 93.1697 119.662C92.6361 119.334 92.2218 118.875 91.9268 118.285C91.6319 117.695 91.4844 117.005 91.4844 116.217C91.4844 115.424 91.6319 114.732 91.9268 114.138C92.2218 113.545 92.6361 113.085 93.1697 112.756C93.7034 112.428 94.3281 112.264 95.044 112.264C95.7599 112.264 96.3847 112.428 96.9183 112.756C97.4519 113.085 97.8662 113.545 98.1612 114.138C98.4562 114.732 98.6037 115.424 98.6037 116.217C98.6037 117.005 98.4562 117.695 98.1612 118.285C97.8662 118.875 97.4519 119.334 96.9183 119.662C96.3847 119.99 95.7599 120.154 95.044 120.154ZM95.049 118.906C95.513 118.906 95.8975 118.784 96.2024 118.538C96.5073 118.293 96.7327 117.967 96.8786 117.559C97.0277 117.151 97.1023 116.702 97.1023 116.212C97.1023 115.724 97.0277 115.277 96.8786 114.869C96.7327 114.458 96.5073 114.129 96.2024 113.88C95.8975 113.631 95.513 113.507 95.049 113.507C94.5817 113.507 94.1939 113.631 93.8857 113.88C93.5807 114.129 93.3537 114.458 93.2045 114.869C93.0587 115.277 92.9858 115.724 92.9858 116.212C92.9858 116.702 93.0587 117.151 93.2045 117.559C93.3537 117.967 93.5807 118.293 93.8857 118.538C94.1939 118.784 94.5817 118.906 95.049 118.906ZM105.1 116.833V112.364H106.592V120H105.13V118.678H105.051C104.875 119.085 104.593 119.425 104.205 119.697C103.821 119.965 103.342 120.099 102.769 120.099C102.278 120.099 101.844 119.992 101.466 119.776C101.092 119.558 100.797 119.234 100.581 118.807C100.369 118.379 100.263 117.851 100.263 117.221V112.364H101.749V117.042C101.749 117.562 101.894 117.977 102.182 118.285C102.47 118.593 102.845 118.747 103.306 118.747C103.584 118.747 103.861 118.678 104.136 118.538C104.414 118.399 104.645 118.189 104.827 117.907C105.012 117.625 105.104 117.267 105.1 116.833ZM110.076 115.466V120H108.589V112.364H110.016V113.607H110.11C110.286 113.202 110.561 112.877 110.936 112.632C111.314 112.387 111.789 112.264 112.363 112.264C112.883 112.264 113.339 112.374 113.73 112.592C114.121 112.808 114.424 113.129 114.64 113.557C114.855 113.984 114.963 114.513 114.963 115.143V120H113.476V115.322C113.476 114.768 113.332 114.336 113.044 114.024C112.755 113.709 112.359 113.552 111.855 113.552C111.511 113.552 111.204 113.626 110.936 113.776C110.671 113.925 110.46 114.143 110.304 114.432C110.152 114.717 110.076 115.062 110.076 115.466ZM119.815 120.149C119.199 120.149 118.648 119.992 118.164 119.677C117.684 119.359 117.306 118.906 117.031 118.32C116.759 117.73 116.623 117.022 116.623 116.197C116.623 115.371 116.761 114.665 117.036 114.079C117.314 113.492 117.695 113.043 118.179 112.732C118.663 112.42 119.212 112.264 119.825 112.264C120.299 112.264 120.68 112.344 120.968 112.503C121.26 112.659 121.485 112.841 121.645 113.05C121.807 113.259 121.933 113.442 122.022 113.602H122.112V109.818H123.598V120H122.147V118.812H122.022C121.933 118.974 121.804 119.16 121.635 119.369C121.469 119.577 121.24 119.76 120.949 119.915C120.657 120.071 120.279 120.149 119.815 120.149ZM120.143 118.881C120.571 118.881 120.932 118.769 121.227 118.543C121.525 118.315 121.751 117.998 121.903 117.594C122.059 117.189 122.137 116.719 122.137 116.182C122.137 115.652 122.06 115.187 121.908 114.79C121.756 114.392 121.532 114.082 121.237 113.86C120.942 113.638 120.577 113.527 120.143 113.527C119.696 113.527 119.323 113.643 119.025 113.875C118.726 114.107 118.501 114.424 118.348 114.825C118.199 115.226 118.125 115.678 118.125 116.182C118.125 116.692 118.201 117.151 118.353 117.559C118.506 117.967 118.731 118.29 119.029 118.528C119.331 118.764 119.702 118.881 120.143 118.881Z" fill="#969696"/>
<rect x="191.5" y="12.5" width="166" height="50" rx="7.5" stroke="#E5E7EB"/>
<path d="M203.861 34V25.2727H207.134C207.804 25.2727 208.366 25.3892 208.821 25.6222C209.278 25.8551 209.624 26.1818 209.857 26.6023C210.092 27.0199 210.21 27.5071 210.21 28.0639C210.21 28.6236 210.091 29.1094 209.852 29.5213C209.616 29.9304 209.268 30.2472 208.808 30.4716C208.348 30.6932 207.783 30.804 207.112 30.804H204.781V29.4915H206.899C207.291 29.4915 207.612 29.4375 207.862 29.3295C208.112 29.2187 208.297 29.0582 208.416 28.848C208.538 28.6349 208.599 28.3736 208.599 28.0639C208.599 27.7543 208.538 27.4901 208.416 27.2713C208.294 27.0497 208.108 26.8821 207.858 26.7685C207.608 26.652 207.286 26.5938 206.891 26.5938H205.442V34H203.861ZM208.369 30.0455L210.53 34H208.766L206.643 30.0455H208.369ZM219.464 29.6364C219.464 30.5767 219.288 31.3821 218.935 32.0526C218.586 32.7202 218.109 33.2315 217.504 33.5866C216.901 33.9418 216.218 34.1193 215.454 34.1193C214.69 34.1193 214.005 33.9418 213.4 33.5866C212.798 33.2287 212.32 32.7159 211.968 32.0483C211.619 31.3778 211.444 30.5739 211.444 29.6364C211.444 28.696 211.619 27.892 211.968 27.2244C212.32 26.554 212.798 26.0412 213.4 25.6861C214.005 25.331 214.69 25.1534 215.454 25.1534C216.218 25.1534 216.901 25.331 217.504 25.6861C218.109 26.0412 218.586 26.554 218.935 27.2244C219.288 27.892 219.464 28.696 219.464 29.6364ZM217.874 29.6364C217.874 28.9744 217.771 28.4162 217.563 27.9616C217.359 27.5043 217.075 27.1591 216.711 26.9261C216.347 26.6903 215.928 26.5724 215.454 26.5724C214.979 26.5724 214.56 26.6903 214.197 26.9261C213.833 27.1591 213.548 27.5043 213.34 27.9616C213.136 28.4162 213.033 28.9744 213.033 29.6364C213.033 30.2983 213.136 30.858 213.34 31.3153C213.548 31.7699 213.833 32.1151 214.197 32.3509C214.56 32.5838 214.979 32.7003 215.454 32.7003C215.928 32.7003 216.347 32.5838 216.711 32.3509C217.075 32.1151 217.359 31.7699 217.563 31.3153C217.771 30.858 217.874 30.2983 217.874 29.6364ZM226.46 25.2727H228.041V30.9744C228.041 31.5994 227.893 32.1491 227.598 32.6236C227.305 33.098 226.893 33.4687 226.362 33.7358C225.831 34 225.21 34.1321 224.5 34.1321C223.787 34.1321 223.164 34 222.633 33.7358C222.102 33.4687 221.69 33.098 221.397 32.6236C221.105 32.1491 220.958 31.5994 220.958 30.9744V25.2727H222.539V30.8423C222.539 31.206 222.619 31.5298 222.778 31.8139C222.94 32.098 223.167 32.321 223.46 32.483C223.752 32.642 224.099 32.7216 224.5 32.7216C224.9 32.7216 225.247 32.642 225.539 32.483C225.835 32.321 226.062 32.098 226.221 31.8139C226.38 31.5298 226.46 31.206 226.46 30.8423V25.2727ZM236.931 25.2727V34H235.525L231.413 28.0554H231.34V34H229.759V25.2727H231.174L235.282 31.2216H235.359V25.2727H236.931ZM241.611 34H238.654V25.2727H241.671C242.537 25.2727 243.282 25.4474 243.904 25.7969C244.529 26.1435 245.009 26.642 245.344 27.2926C245.679 27.9432 245.847 28.7216 245.847 29.6278C245.847 30.5369 245.678 31.3182 245.34 31.9716C245.005 32.625 244.52 33.1264 243.887 33.4759C243.256 33.8253 242.498 34 241.611 34ZM240.235 32.6321H241.534C242.142 32.6321 242.65 32.5213 243.056 32.2997C243.462 32.0753 243.767 31.7415 243.972 31.2983C244.176 30.8523 244.279 30.2955 244.279 29.6278C244.279 28.9602 244.176 28.4062 243.972 27.9659C243.767 27.5227 243.465 27.1918 243.064 26.973C242.667 26.7514 242.172 26.6406 241.581 26.6406H240.235V32.6321ZM257.498 25.2727V34H256.091L251.979 28.0554H251.907V34H250.326V25.2727H251.74L255.848 31.2216H255.925V25.2727H257.498ZM260.341 34H258.653L261.726 25.2727H263.678L266.754 34H265.067L262.736 27.0625H262.668L260.341 34ZM260.396 30.5781H264.999V31.848H260.396V30.5781ZM267.904 25.2727H269.838L272.429 31.5966H272.532L275.123 25.2727H277.057V34H275.54V28.0043H275.459L273.047 33.9744H271.914L269.502 27.9915H269.421V34H267.904V25.2727ZM278.779 34V25.2727H284.455V26.598H280.36V28.9673H284.161V30.2926H280.36V32.6747H284.489V34H278.779Z" fill="#969696"/>
<rect x="203" y="41" width="143" height="12" rx="4" fill="#D9D9D9"/>
<rect x="191.5" y="75.5" width="166" height="50" rx="7.5" stroke="#E5E7EB"/>
<path d="M208.604 90.6719C208.564 90.2997 208.396 90.0099 208.101 89.8026C207.808 89.5952 207.428 89.4915 206.959 89.4915C206.629 89.4915 206.347 89.5412 206.111 89.6406C205.875 89.7401 205.695 89.875 205.57 90.0455C205.445 90.2159 205.381 90.4105 205.378 90.6293C205.378 90.8111 205.419 90.9687 205.501 91.1023C205.587 91.2358 205.702 91.3494 205.847 91.4432C205.991 91.5341 206.152 91.6108 206.328 91.6733C206.504 91.7358 206.682 91.7884 206.861 91.831L207.679 92.0355C208.009 92.1122 208.325 92.2159 208.629 92.3466C208.936 92.4773 209.21 92.642 209.452 92.8409C209.696 93.0398 209.889 93.2798 210.031 93.5611C210.173 93.8423 210.244 94.1719 210.244 94.5497C210.244 95.0611 210.114 95.5114 209.852 95.9006C209.591 96.2869 209.213 96.5895 208.719 96.8082C208.227 97.0241 207.632 97.1321 206.933 97.1321C206.254 97.1321 205.665 97.027 205.165 96.8168C204.668 96.6065 204.278 96.2997 203.997 95.8963C203.719 95.4929 203.568 95.0014 203.545 94.4219H205.101C205.124 94.7259 205.217 94.9787 205.382 95.1804C205.547 95.3821 205.761 95.5327 206.026 95.6321C206.293 95.7315 206.591 95.7812 206.92 95.7812C207.264 95.7812 207.565 95.7301 207.824 95.6278C208.085 95.5227 208.29 95.3778 208.438 95.1932C208.585 95.0057 208.661 94.7869 208.663 94.5369C208.661 94.3097 208.594 94.1222 208.463 93.9744C208.332 93.8239 208.149 93.6989 207.913 93.5994C207.68 93.4972 207.408 93.4062 207.095 93.3267L206.102 93.071C205.384 92.8864 204.815 92.6065 204.398 92.2315C203.983 91.8537 203.776 91.3523 203.776 90.7273C203.776 90.2131 203.915 89.7628 204.193 89.3764C204.474 88.9901 204.857 88.6903 205.339 88.4773C205.822 88.2614 206.369 88.1534 206.98 88.1534C207.599 88.1534 208.142 88.2614 208.608 88.4773C209.077 88.6903 209.445 88.9872 209.712 89.3679C209.979 89.7457 210.116 90.1804 210.125 90.6719H208.604ZM211.27 89.598V88.2727H218.233V89.598H215.536V97H213.968V89.598H211.27ZM219.642 97H217.954L221.027 88.2727H222.978L226.055 97H224.368L222.037 90.0625H221.968L219.642 97ZM219.697 93.5781H224.299V94.848H219.697V93.5781ZM227.205 97V88.2727H230.477C231.148 88.2727 231.71 88.3892 232.165 88.6222C232.622 88.8551 232.967 89.1818 233.2 89.6023C233.436 90.0199 233.554 90.5071 233.554 91.0639C233.554 91.6236 233.435 92.1094 233.196 92.5213C232.96 92.9304 232.612 93.2472 232.152 93.4716C231.692 93.6932 231.126 93.804 230.456 93.804H228.125V92.4915H230.243C230.635 92.4915 230.956 92.4375 231.206 92.3295C231.456 92.2187 231.641 92.0582 231.76 91.848C231.882 91.6349 231.943 91.3736 231.943 91.0639C231.943 90.7543 231.882 90.4901 231.76 90.2713C231.638 90.0497 231.452 89.8821 231.202 89.7685C230.952 89.652 230.629 89.5938 230.234 89.5938H228.786V97H227.205ZM231.713 93.0455L233.874 97H232.109L229.987 93.0455H231.713ZM234.626 89.598V88.2727H241.589V89.598H238.891V97H237.323V89.598H234.626ZM248.865 97H245.908V88.2727H248.925C249.791 88.2727 250.536 88.4474 251.158 88.7969C251.783 89.1435 252.263 89.642 252.598 90.2926C252.933 90.9432 253.101 91.7216 253.101 92.6278C253.101 93.5369 252.932 94.3182 252.594 94.9716C252.259 95.625 251.774 96.1264 251.141 96.4759C250.51 96.8253 249.751 97 248.865 97ZM247.489 95.6321H248.788C249.396 95.6321 249.903 95.5213 250.31 95.2997C250.716 95.0753 251.021 94.7415 251.226 94.2983C251.43 93.8523 251.533 93.2955 251.533 92.6278C251.533 91.9602 251.43 91.4062 251.226 90.9659C251.021 90.5227 250.719 90.1918 250.318 89.973C249.92 89.7514 249.426 89.6406 248.835 89.6406H247.489V95.6321ZM255.255 97H253.567L256.64 88.2727H258.592L261.668 97H259.981L257.65 90.0625H257.582L255.255 97ZM255.31 93.5781H259.913V94.848H255.31V93.5781ZM261.38 89.598V88.2727H268.343V89.598H265.645V97H264.077V89.598H261.38ZM269.685 97V88.2727H275.361V89.598H271.266V91.9673H275.067V93.2926H271.266V95.6747H275.395V97H269.685Z" fill="#969696"/>
<rect x="203" y="104" width="143" height="12" rx="4" fill="#D9D9D9"/>
<defs>
<clipPath id="clip0_12485_314">
<rect width="16" height="16" fill="white" transform="translate(151 24.5)"/>
</clipPath>
</defs>
</svg>
