<?xml version="1.0" encoding="UTF-8"?>
<svg xmlns="http://www.w3.org/2000/svg" xmlns:xlink="http://www.w3.org/1999/xlink" width="369px" height="246px" viewBox="0 0 369 246" version="1.1">
<g id="surface1">
<path style=" stroke:none;fill-rule:nonzero;fill:rgb(3.921569%,79.607844%,76.078433%);fill-opacity:1;" d="M 71.484375 79.0625 C 72.101562 79.136719 72.101562 79.136719 72.730469 79.214844 C 76.957031 80.316406 80.535156 82.605469 84.222656 84.863281 C 85.296875 85.515625 86.375 86.167969 87.449219 86.820312 C 87.964844 87.132812 88.480469 87.449219 89.011719 87.769531 C 90.796875 88.847656 92.59375 89.890625 94.398438 90.929688 C 106.386719 97.902344 106.386719 97.902344 108.148438 102.804688 C 108.917969 105.847656 108.8125 108.960938 108.8125 112.085938 C 108.820312 113.199219 108.820312 113.199219 108.824219 114.332031 C 108.832031 115.898438 108.835938 117.460938 108.832031 119.023438 C 108.832031 121.40625 108.855469 123.785156 108.882812 126.164062 C 108.886719 127.691406 108.886719 129.214844 108.886719 130.738281 C 108.898438 131.445312 108.90625 132.148438 108.917969 132.878906 C 108.878906 137.515625 107.96875 140.757812 105.515625 144.707031 C 105.117188 144.707031 104.71875 144.707031 104.308594 144.707031 C 104.011719 145.601562 104.011719 145.601562 103.707031 146.515625 C 102.699219 147.261719 102.699219 147.261719 101.394531 147.992188 C 100.917969 148.265625 100.441406 148.539062 99.949219 148.816406 C 99.433594 149.101562 98.921875 149.386719 98.390625 149.679688 C 97.335938 150.277344 96.277344 150.878906 95.21875 151.476562 C 94.449219 151.910156 94.449219 151.910156 93.664062 152.351562 C 91.949219 153.316406 90.253906 154.300781 88.558594 155.296875 C 88 155.613281 87.445312 155.933594 86.871094 156.261719 C 85.414062 157.128906 84.007812 158.027344 82.59375 158.964844 C 78.074219 161.902344 74.089844 164.421875 68.496094 163.992188 C 64.316406 162.847656 60.824219 160.507812 57.242188 158.132812 C 55.679688 157.109375 54.074219 156.183594 52.457031 155.257812 C 51.894531 154.929688 51.332031 154.601562 50.753906 154.261719 C 49.253906 153.390625 47.75 152.519531 46.242188 151.652344 C 45.324219 151.121094 44.40625 150.589844 43.488281 150.058594 C 42.839844 149.6875 42.839844 149.6875 42.183594 149.3125 C 38.230469 147.011719 34.261719 144.601562 32.820312 140 C 32.507812 138.414062 32.472656 136.929688 32.460938 135.316406 C 32.457031 134.640625 32.449219 133.964844 32.445312 133.273438 C 32.441406 132.546875 32.4375 131.820312 32.4375 131.070312 C 32.433594 130.320312 32.429688 129.574219 32.425781 128.800781 C 32.421875 127.214844 32.417969 125.628906 32.414062 124.042969 C 32.410156 122.421875 32.402344 120.800781 32.390625 119.179688 C 32.371094 116.835938 32.363281 114.496094 32.359375 112.152344 C 32.355469 111.433594 32.347656 110.710938 32.339844 109.964844 C 32.351562 104.949219 32.902344 101.265625 36.363281 97.375 C 38.652344 95.34375 41.390625 93.957031 44.050781 92.476562 C 45.355469 91.738281 46.65625 90.996094 47.953125 90.253906 C 48.605469 89.886719 49.257812 89.515625 49.929688 89.132812 C 53.308594 87.191406 56.625 85.152344 59.933594 83.097656 C 67.515625 78.472656 67.515625 78.472656 71.484375 79.0625 Z M 55.320312 108.113281 C 51.148438 113.21875 50.148438 118.988281 50.648438 125.410156 C 51.664062 130.359375 54.085938 134.144531 57.882812 137.46875 C 58.28125 137.46875 58.679688 137.46875 59.089844 137.46875 C 59.089844 137.867188 59.089844 138.265625 59.089844 138.675781 C 65.214844 141.957031 70.6875 143.277344 77.558594 141.582031 C 82.292969 139.945312 85.640625 137.1875 88.632812 133.25 C 86.542969 131.46875 84.492188 130.1875 82 129.03125 C 81.488281 129.488281 80.980469 129.949219 80.453125 130.421875 C 77.328125 132.996094 74.191406 134.234375 70.140625 134.054688 C 66.390625 133.515625 63.554688 132.121094 61.160156 129.140625 C 58.910156 125.347656 59.085938 121.230469 59.691406 116.96875 C 60.707031 113.648438 62.59375 112.015625 65.570312 110.339844 C 69.183594 108.765625 72.082031 108.316406 75.796875 109.773438 C 77.90625 110.789062 79.738281 111.691406 81.398438 113.351562 C 84.375 113.269531 86.378906 111.496094 88.632812 109.734375 C 85.34375 105.519531 81.484375 101.882812 76.066406 100.839844 C 67.585938 99.871094 61.164062 101.820312 55.320312 108.113281 Z M 55.320312 108.113281 "/>
<path style=" stroke:none;fill-rule:nonzero;fill:rgb(11.764706%,28.235295%,32.156864%);fill-opacity:1;" d="M 140.484375 107.664062 C 142.664062 109.769531 143.425781 112.265625 144.101562 115.160156 C 143.105469 116.15625 141.96875 115.960938 140.597656 116.027344 C 138.933594 116.023438 138.933594 116.023438 137.46875 115.765625 C 136.1875 113.992188 136.1875 113.992188 135.058594 112.148438 C 132.773438 111.359375 130.726562 111.378906 128.425781 112.148438 C 126.015625 114.558594 125.796875 116.601562 125.675781 119.984375 C 125.757812 123.464844 125.757812 123.464844 127.257812 126.503906 C 129.382812 128.085938 130.605469 128.472656 133.25 128.425781 C 135.785156 127.355469 136.199219 126.746094 137.46875 124.207031 C 139.660156 124.207031 141.847656 124.207031 144.101562 124.207031 C 144.265625 123.273438 144.425781 122.339844 144.59375 121.378906 C 145.3125 117.882812 146.035156 115.996094 148.925781 113.765625 C 151.769531 112.273438 154.84375 112.351562 157.96875 112.75 C 162.640625 114.398438 162.640625 114.398438 163.949219 116.761719 C 165.496094 120.40625 165.933594 123.820312 164.675781 127.613281 C 163.398438 130.480469 162.117188 132.785156 159.1875 134.117188 C 156.230469 134.9375 153.441406 135.058594 150.566406 133.902344 C 147.457031 132.113281 145.355469 129.882812 144.253906 126.390625 C 144.203125 126.066406 144.152344 125.746094 144.101562 125.410156 C 143.867188 126.046875 143.628906 126.679688 143.386719 127.332031 C 142.070312 130.363281 140.253906 132.082031 137.394531 133.738281 C 133.496094 135.214844 129.277344 134.992188 125.449219 133.4375 C 122.105469 131.714844 120.722656 129.691406 119.53125 126.164062 C 118.125 120.921875 118.464844 115.976562 120.589844 110.941406 C 122.453125 108.023438 124.710938 106.554688 127.972656 105.476562 C 132.425781 104.5 136.765625 104.863281 140.484375 107.664062 Z M 152.128906 118.742188 C 150.472656 120.9375 150.433594 122.042969 150.511719 124.699219 C 150.847656 126.6875 151.417969 128.027344 153.035156 129.253906 C 154.378906 129.75 154.378906 129.75 155.898438 129.332031 C 157.972656 128.054688 158.46875 127.144531 159.175781 124.808594 C 159.074219 122.699219 158.808594 120.726562 157.96875 118.78125 C 155.757812 117.269531 154.351562 117.140625 152.128906 118.742188 Z M 152.128906 118.742188 "/>
<path style=" stroke:none;fill-rule:nonzero;fill:rgb(22.352941%,80.392158%,77.254903%);fill-opacity:1;" d="M 282.175781 107.925781 C 284.363281 107.925781 286.554688 107.925781 288.808594 107.925781 C 288.808594 109.519531 288.808594 111.109375 288.808594 112.75 C 290.996094 112.75 293.1875 112.75 295.441406 112.75 C 295.441406 111.160156 295.441406 109.566406 295.441406 107.925781 C 297.628906 107.925781 299.820312 107.925781 302.074219 107.925781 C 302.074219 109.519531 302.074219 111.109375 302.074219 112.75 C 302.65625 112.738281 303.242188 112.726562 303.84375 112.710938 C 305.691406 112.75 305.691406 112.75 306.292969 113.351562 C 306.320312 114.757812 306.320312 116.167969 306.292969 117.574219 C 304.902344 117.574219 303.507812 117.574219 302.074219 117.574219 C 302.074219 121.15625 302.074219 124.738281 302.074219 128.425781 C 303.265625 128.425781 304.460938 128.425781 305.691406 128.425781 C 306.292969 129.03125 306.292969 129.03125 306.351562 130.144531 C 306.332031 131.378906 306.3125 132.617188 306.292969 133.851562 C 304.367188 134.816406 302.359375 134.679688 300.265625 134.457031 C 297.933594 133.441406 296.992188 132.558594 296.042969 130.234375 C 295.851562 128.855469 295.851562 128.855469 295.792969 127.363281 C 295.769531 126.824219 295.746094 126.289062 295.722656 125.738281 C 295.707031 125.183594 295.6875 124.625 295.667969 124.054688 C 295.644531 123.492188 295.621094 122.925781 295.597656 122.34375 C 295.539062 120.957031 295.488281 119.566406 295.441406 118.175781 C 293.253906 117.976562 291.0625 117.777344 288.808594 117.574219 C 289.007812 121.15625 289.207031 124.738281 289.410156 128.425781 C 290.40625 128.425781 291.402344 128.425781 292.425781 128.425781 C 292.625 130.21875 292.824219 132.007812 293.03125 133.851562 C 291.085938 134.824219 289.105469 134.730469 287 134.457031 C 284.585938 133.339844 283.621094 132.6875 282.683594 130.179688 C 282.113281 127.527344 282.039062 125.132812 282.101562 122.433594 C 282.105469 121.964844 282.113281 121.496094 282.117188 121.011719 C 282.132812 119.863281 282.152344 118.71875 282.175781 117.574219 C 281.179688 117.574219 280.1875 117.574219 279.160156 117.574219 C 279.160156 115.980469 279.160156 114.390625 279.160156 112.75 C 280.15625 112.75 281.152344 112.75 282.175781 112.75 C 282.175781 111.160156 282.175781 109.566406 282.175781 107.925781 Z M 282.175781 107.925781 "/>
<path style=" stroke:none;fill-rule:nonzero;fill:rgb(22.745098%,80.000001%,76.862746%);fill-opacity:1;" d="M 255.648438 113.351562 C 256.714844 114.308594 256.714844 114.308594 257.457031 115.160156 C 257.65625 114.566406 257.855469 113.96875 258.058594 113.351562 C 260.152344 112.390625 262.453125 111.925781 264.71875 112.414062 C 266.621094 113.191406 268.273438 114.109375 269.515625 115.765625 C 270.175781 117.753906 270.1875 119.21875 270.175781 121.3125 C 270.175781 122.039062 270.171875 122.769531 270.171875 123.519531 C 270.164062 124.660156 270.164062 124.660156 270.15625 125.828125 C 270.152344 126.59375 270.148438 127.363281 270.148438 128.15625 C 270.140625 130.054688 270.128906 131.953125 270.117188 133.851562 C 268.128906 133.851562 266.136719 133.851562 264.089844 133.851562 C 264.054688 132.382812 264.054688 132.382812 264.019531 130.882812 C 263.980469 129.597656 263.941406 128.316406 263.898438 127.03125 C 263.878906 126.0625 263.878906 126.0625 263.859375 125.074219 C 263.835938 124.453125 263.816406 123.835938 263.792969 123.195312 C 263.777344 122.625 263.761719 122.050781 263.746094 121.464844 C 263.449219 119.773438 263 119.226562 261.675781 118.175781 C 260.679688 118.574219 259.6875 118.972656 258.660156 119.382812 C 258.460938 124.15625 258.265625 128.933594 258.058594 133.851562 C 256.070312 133.851562 254.078125 133.851562 252.03125 133.851562 C 252.007812 132.871094 251.984375 131.894531 251.960938 130.882812 C 251.921875 129.597656 251.882812 128.316406 251.839844 127.03125 C 251.828125 126.386719 251.8125 125.738281 251.800781 125.074219 C 251.769531 124.144531 251.769531 124.144531 251.734375 123.195312 C 251.71875 122.625 251.703125 122.050781 251.6875 121.464844 C 251.519531 119.980469 251.519531 119.980469 250.730469 118.84375 C 249.304688 117.828125 249.304688 117.828125 246 118.78125 C 246 123.753906 246 128.726562 246 133.851562 C 244.011719 133.851562 242.019531 133.851562 239.96875 133.851562 C 239.96875 126.890625 239.96875 119.925781 239.96875 112.75 C 245.398438 112.75 245.398438 112.75 246.601562 113.351562 C 247.113281 113.140625 247.621094 112.929688 248.148438 112.710938 C 250.859375 111.972656 253.039062 112.335938 255.648438 113.351562 Z M 255.648438 113.351562 "/>
<path style=" stroke:none;fill-rule:nonzero;fill:rgb(4.705882%,74.509805%,70.588237%);fill-opacity:1;" d="M 203.53125 105.402344 C 204.242188 105.390625 204.242188 105.390625 204.96875 105.378906 C 208.554688 105.371094 212.210938 105.496094 215.285156 107.550781 C 217.765625 110.472656 218.535156 113.136719 218.265625 116.96875 C 217.59375 119.8125 216.125 121.613281 214.042969 123.601562 C 214.285156 124.003906 214.523438 124.402344 214.773438 124.816406 C 215.734375 126.421875 216.699219 128.027344 217.660156 129.632812 C 218 130.171875 218.339844 130.710938 218.6875 131.265625 C 219.46875 132.648438 219.46875 132.648438 219.46875 133.851562 C 217.082031 133.851562 214.695312 133.851562 212.234375 133.851562 C 211.429688 132.472656 210.625 131.089844 209.824219 129.707031 C 209.59375 129.316406 209.363281 128.921875 209.125 128.519531 C 207.410156 125.546875 207.410156 125.546875 207.410156 124.207031 C 206.21875 124.207031 205.023438 124.207031 203.792969 124.207031 C 203.792969 127.390625 203.792969 130.574219 203.792969 133.851562 C 201.804688 133.851562 199.816406 133.851562 197.765625 133.851562 C 197.75 129.914062 197.738281 125.976562 197.730469 122.035156 C 197.730469 120.695312 197.722656 119.355469 197.71875 118.011719 C 197.710938 116.089844 197.707031 114.167969 197.707031 112.242188 C 197.703125 111.640625 197.699219 111.035156 197.695312 110.414062 C 197.695312 109.859375 197.695312 109.304688 197.695312 108.730469 C 197.695312 108.242188 197.695312 107.75 197.691406 107.242188 C 197.878906 104.375 201.347656 105.402344 203.53125 105.402344 Z M 203.792969 111.542969 C 203.792969 113.933594 203.792969 116.320312 203.792969 118.78125 C 207.769531 119.195312 207.769531 119.195312 211.066406 117.273438 C 211.453125 116.773438 211.839844 116.277344 212.234375 115.765625 C 211.394531 113.628906 211.394531 113.628906 210.425781 111.542969 C 208.238281 111.542969 206.050781 111.542969 203.792969 111.542969 Z M 203.792969 111.542969 "/>
<path style=" stroke:none;fill-rule:nonzero;fill:rgb(23.137255%,80.392158%,77.254903%);fill-opacity:1;" d="M 235.402344 114.304688 C 237.269531 115.988281 238.183594 118.175781 238.765625 120.589844 C 238.765625 122.179688 238.765625 123.773438 238.765625 125.410156 C 234.1875 125.410156 229.613281 125.410156 224.898438 125.410156 C 227.347656 129.199219 227.347656 129.199219 229.910156 129.253906 C 230.445312 129.179688 230.976562 129.105469 231.53125 129.03125 C 231.925781 128.234375 232.324219 127.4375 232.734375 126.617188 C 234.527344 126.617188 236.316406 126.617188 238.160156 126.617188 C 238.765625 128.425781 238.765625 128.425781 238.292969 129.460938 C 236.523438 131.929688 235.117188 133.5 232.132812 134.457031 C 227.992188 135.003906 225.242188 134.53125 221.882812 132.042969 C 218.929688 128.9375 218.683594 126.261719 218.738281 122.113281 C 218.996094 119.082031 220.160156 117.011719 222.03125 114.671875 C 226.164062 111.386719 230.96875 111.550781 235.402344 114.304688 Z M 225.839844 118.703125 C 224.835938 119.800781 224.835938 119.800781 224.898438 120.589844 C 227.285156 120.589844 229.671875 120.589844 232.132812 120.589844 C 231.933594 119.792969 231.734375 118.996094 231.53125 118.175781 C 228.492188 117.371094 228.492188 117.371094 225.839844 118.703125 Z M 225.839844 118.703125 "/>
<path style=" stroke:none;fill-rule:nonzero;fill:rgb(5.098039%,79.215688%,74.901962%);fill-opacity:1;" d="M 323.074219 114.207031 C 325.425781 116.703125 326.304688 119.03125 326.792969 122.398438 C 326.496094 123.890625 326.496094 123.890625 326.191406 125.410156 C 321.8125 125.609375 317.4375 125.808594 312.925781 126.015625 C 313.722656 127.007812 314.519531 128.003906 315.339844 129.03125 C 317.84375 128.867188 317.84375 128.867188 319.785156 127.484375 C 321.460938 126 323.425781 126.511719 325.589844 126.617188 C 326.039062 127.597656 326.039062 127.597656 326.191406 129.03125 C 324.914062 131.632812 323.578125 133.179688 320.796875 134.167969 C 317.230469 134.996094 314.085938 135.015625 310.855469 133.175781 C 308.390625 131.421875 307.476562 129.460938 306.484375 126.65625 C 305.90625 122.847656 306.34375 119.757812 308.101562 116.367188 C 310.058594 113.71875 311.933594 112.78125 315.09375 112.246094 C 318.070312 112.042969 320.664062 112.339844 323.074219 114.207031 Z M 313.566406 118.363281 C 312.820312 119.351562 312.820312 119.351562 312.925781 120.589844 C 315.3125 120.589844 317.703125 120.589844 320.160156 120.589844 C 319.765625 119.792969 319.367188 118.996094 318.957031 118.175781 C 316.148438 117.34375 316.148438 117.34375 313.566406 118.363281 Z M 313.566406 118.363281 "/>
<path style=" stroke:none;fill-rule:nonzero;fill:rgb(10.196079%,25.882354%,29.411766%);fill-opacity:1;" d="M 175.457031 112.75 C 177.246094 112.75 179.039062 112.75 180.882812 112.75 C 181.082031 113.148438 181.28125 113.546875 181.484375 113.957031 C 181.820312 113.761719 182.160156 113.566406 182.503906 113.363281 C 184.90625 112.304688 187.351562 112.480469 189.925781 112.75 C 191.71875 113.496094 192.582031 113.984375 193.601562 115.625 C 194.253906 117.234375 194.347656 118.550781 194.417969 120.285156 C 194.445312 120.921875 194.46875 121.554688 194.496094 122.207031 C 194.527344 123.199219 194.527344 123.199219 194.5625 124.207031 C 194.589844 124.863281 194.617188 125.523438 194.648438 126.203125 C 194.75 128.949219 194.820312 131.167969 194.148438 133.851562 C 192.15625 133.851562 190.167969 133.851562 188.117188 133.851562 C 187.820312 126.691406 187.820312 126.691406 187.515625 119.382812 C 184.71875 117.886719 184.71875 117.886719 182.691406 118.78125 C 181.933594 120.296875 181.960938 121.441406 181.898438 123.136719 C 181.871094 123.757812 181.847656 124.378906 181.820312 125.019531 C 181.785156 125.996094 181.785156 125.996094 181.75 126.996094 C 181.722656 127.652344 181.695312 128.304688 181.671875 128.980469 C 181.605469 130.605469 181.546875 132.230469 181.484375 133.851562 C 179.496094 133.851562 177.507812 133.851562 175.457031 133.851562 C 175.457031 126.890625 175.457031 119.925781 175.457031 112.75 Z M 175.457031 112.75 "/>
<path style=" stroke:none;fill-rule:nonzero;fill:rgb(14.117648%,79.215688%,75.686276%);fill-opacity:1;" d="M 208.039062 105.460938 C 211.535156 105.667969 213.734375 106.226562 216.25 108.734375 C 218.183594 111.125 218.371094 113.351562 218.265625 116.328125 C 217.875 119.59375 216.410156 121.417969 214.042969 123.601562 C 214.285156 124.003906 214.523438 124.402344 214.773438 124.816406 C 215.734375 126.421875 216.699219 128.027344 217.660156 129.632812 C 218 130.171875 218.339844 130.710938 218.6875 131.265625 C 219.46875 132.648438 219.46875 132.648438 219.46875 133.851562 C 217.082031 133.851562 214.695312 133.851562 212.234375 133.851562 C 210.644531 131.066406 209.050781 128.28125 207.410156 125.410156 C 208.308594 125.113281 208.308594 125.113281 209.21875 124.808594 C 209.417969 125.804688 209.617188 126.796875 209.824219 127.824219 C 210.421875 127.824219 211.015625 127.824219 211.632812 127.824219 C 211.632812 128.820312 211.632812 129.8125 211.632812 130.839844 C 212.03125 130.839844 212.429688 130.839844 212.839844 130.839844 C 212.839844 131.234375 212.839844 131.632812 212.839844 132.042969 C 214.796875 131.003906 214.796875 131.003906 215.25 129.03125 C 214.851562 128.832031 214.453125 128.632812 214.042969 128.425781 C 214.042969 127.429688 214.042969 126.4375 214.042969 125.410156 C 213.644531 125.410156 213.25 125.410156 212.839844 125.410156 C 212.914062 124.863281 212.988281 124.316406 213.0625 123.753906 C 213.03125 121.691406 213.03125 121.691406 211.40625 120.363281 C 208.476562 119.050781 206.382812 119.210938 203.191406 119.382812 C 203.191406 116.597656 203.191406 113.8125 203.191406 110.941406 C 204.1875 110.742188 205.179688 110.542969 206.207031 110.339844 C 206.605469 110.140625 207 109.941406 207.410156 109.734375 C 207.808594 108.210938 207.808594 108.210938 208.015625 106.71875 C 207.417969 106.523438 206.820312 106.324219 206.207031 106.117188 C 206.808594 105.515625 206.808594 105.515625 208.039062 105.460938 Z M 203.792969 111.542969 C 203.792969 113.933594 203.792969 116.320312 203.792969 118.78125 C 207.769531 119.195312 207.769531 119.195312 211.066406 117.273438 C 211.453125 116.773438 211.839844 116.277344 212.234375 115.765625 C 211.394531 113.628906 211.394531 113.628906 210.425781 111.542969 C 208.238281 111.542969 206.050781 111.542969 203.792969 111.542969 Z M 203.792969 111.542969 "/>
<path style=" stroke:none;fill-rule:nonzero;fill:rgb(5.882353%,78.823531%,74.509805%);fill-opacity:1;" d="M 340.660156 112.75 C 340.660156 114.539062 340.660156 116.332031 340.660156 118.175781 C 340.277344 118.257812 339.890625 118.335938 339.496094 118.417969 C 338.75 118.578125 338.75 118.578125 337.984375 118.742188 C 337.488281 118.847656 336.992188 118.953125 336.480469 119.058594 C 335.25 119.265625 335.25 119.265625 334.632812 119.984375 C 334.539062 121.015625 334.480469 122.046875 334.441406 123.078125 C 334.417969 123.703125 334.390625 124.324219 334.363281 124.96875 C 334.339844 125.625 334.316406 126.28125 334.292969 126.957031 C 334.265625 127.617188 334.242188 128.273438 334.214844 128.953125 C 334.148438 130.585938 334.089844 132.21875 334.03125 133.851562 C 332.039062 133.851562 330.050781 133.851562 328 133.851562 C 328 126.890625 328 119.925781 328 112.75 C 333.425781 112.75 333.425781 112.75 334.632812 113.351562 C 335.316406 113.152344 336 112.953125 336.703125 112.75 C 338.851562 112.148438 338.851562 112.148438 340.660156 112.75 Z M 340.660156 112.75 "/>
<path style=" stroke:none;fill-rule:nonzero;fill:rgb(18.431373%,32.156864%,35.686275%);fill-opacity:1;" d="M 154.957031 116.96875 C 156.652344 117.082031 156.652344 117.082031 158.574219 117.574219 C 160.082031 119.445312 160.746094 121.222656 160.984375 123.601562 C 160.722656 125.296875 160.722656 125.296875 160.382812 126.617188 C 160.980469 126.417969 161.578125 126.21875 162.191406 126.015625 C 162.925781 124.503906 162.925781 124.503906 163.398438 123 C 162.800781 123 162.203125 123 161.589844 123 C 161.984375 122.203125 162.382812 121.410156 162.792969 120.589844 C 163.589844 120.589844 164.386719 120.589844 165.207031 120.589844 C 165.570312 125.105469 164.835938 128.300781 162.191406 132.042969 C 160.101562 134.109375 157.875 134.613281 154.992188 134.796875 C 151.765625 134.664062 149.558594 133.507812 147.117188 131.441406 C 145.910156 130.046875 145.910156 130.046875 145.308594 129.03125 C 145.507812 128.632812 145.707031 128.234375 145.910156 127.824219 C 146.308594 128.023438 146.707031 128.222656 147.117188 128.425781 C 147.316406 127.828125 147.515625 127.234375 147.71875 126.617188 C 148.117188 126.816406 148.515625 127.015625 148.925781 127.21875 C 149.460938 125.230469 149.808594 123.226562 150.132812 121.191406 C 150.332031 121.191406 150.53125 121.191406 150.734375 121.191406 C 150.824219 121.886719 150.824219 121.886719 150.914062 122.601562 C 151.003906 123.203125 151.09375 123.808594 151.1875 124.433594 C 151.269531 125.035156 151.355469 125.636719 151.441406 126.253906 C 151.792969 127.890625 151.792969 127.890625 153.09375 128.660156 C 154.398438 129.152344 154.398438 129.152344 155.9375 128.691406 C 157.417969 127.925781 157.417969 127.925781 158.195312 126.617188 C 158.753906 123.949219 158.355469 121.457031 157.96875 118.78125 C 156.976562 118.382812 155.980469 117.984375 154.957031 117.574219 C 154.957031 117.375 154.957031 117.175781 154.957031 116.96875 Z M 154.957031 116.96875 "/>
<path style=" stroke:none;fill-rule:nonzero;fill:rgb(10.980392%,27.058825%,30.588236%);fill-opacity:1;" d="M 192.941406 114.558594 C 194.171875 116.441406 194.332031 118.070312 194.417969 120.285156 C 194.445312 120.921875 194.46875 121.554688 194.496094 122.207031 C 194.527344 123.199219 194.527344 123.199219 194.5625 124.207031 C 194.589844 124.863281 194.617188 125.523438 194.648438 126.203125 C 194.75 128.949219 194.820312 131.167969 194.148438 133.851562 C 192.15625 133.851562 190.167969 133.851562 188.117188 133.851562 C 188.105469 133.425781 188.09375 133 188.082031 132.5625 C 188.023438 130.632812 187.957031 128.699219 187.890625 126.769531 C 187.871094 126.097656 187.855469 125.429688 187.835938 124.738281 C 187.8125 124.09375 187.789062 123.449219 187.765625 122.785156 C 187.746094 122.191406 187.726562 121.597656 187.707031 120.984375 C 187.515625 119.378906 187.125 118.355469 186.308594 116.96875 C 185.3125 116.96875 184.320312 116.96875 183.292969 116.96875 C 183.492188 116.375 183.691406 115.777344 183.898438 115.160156 C 184.835938 114.941406 185.78125 114.730469 186.722656 114.519531 C 187.246094 114.402344 187.773438 114.285156 188.3125 114.160156 C 190.082031 113.9375 191.257812 113.964844 192.941406 114.558594 Z M 192.941406 114.558594 "/>
<path style=" stroke:none;fill-rule:nonzero;fill:rgb(12.941177%,78.823531%,75.686276%);fill-opacity:1;" d="M 273.132812 112.148438 C 274.921875 112.347656 276.714844 112.546875 278.558594 112.75 C 278.558594 119.714844 278.558594 126.679688 278.558594 133.851562 C 276.570312 133.851562 274.578125 133.851562 272.53125 133.851562 C 272.515625 130.859375 272.503906 127.863281 272.496094 124.871094 C 272.492188 123.851562 272.488281 122.832031 272.484375 121.8125 C 272.476562 120.347656 272.472656 118.886719 272.46875 117.425781 C 272.46875 116.964844 272.464844 116.507812 272.460938 116.035156 C 272.460938 114.941406 272.492188 113.84375 272.53125 112.75 C 272.726562 112.550781 272.925781 112.351562 273.132812 112.148438 Z M 273.132812 112.148438 "/>
<path style=" stroke:none;fill-rule:nonzero;fill:rgb(13.725491%,29.019609%,32.549021%);fill-opacity:1;" d="M 166.410156 112.75 C 168.402344 112.75 170.390625 112.75 172.441406 112.75 C 172.441406 119.714844 172.441406 126.679688 172.441406 133.851562 C 170.453125 133.851562 168.460938 133.851562 166.410156 133.851562 C 166.410156 126.890625 166.410156 119.925781 166.410156 112.75 Z M 166.410156 112.75 "/>
<path style=" stroke:none;fill-rule:nonzero;fill:rgb(3.529412%,78.431374%,74.509805%);fill-opacity:1;" d="M 296.042969 108.53125 C 297.835938 108.53125 299.625 108.53125 301.46875 108.53125 C 301.46875 110.121094 301.46875 111.714844 301.46875 113.351562 C 302.664062 113.351562 303.859375 113.351562 305.089844 113.351562 C 305.289062 114.746094 305.484375 116.136719 305.691406 117.574219 C 304.296875 117.574219 302.90625 117.574219 301.46875 117.574219 C 301.46875 121.15625 301.46875 124.738281 301.46875 128.425781 C 301.074219 127.628906 300.675781 126.835938 300.265625 126.015625 C 299.867188 126.015625 299.46875 126.015625 299.058594 126.015625 C 299.058594 126.613281 299.058594 127.207031 299.058594 127.824219 C 298.460938 127.824219 297.863281 127.824219 297.25 127.824219 C 296.117188 124.421875 296.328125 120.425781 297.25 116.96875 C 296.253906 116.773438 295.261719 116.574219 294.234375 116.367188 C 294.234375 115.570312 294.234375 114.777344 294.234375 113.957031 C 294.632812 113.757812 295.03125 113.558594 295.441406 113.351562 C 295.722656 112.210938 295.722656 112.210938 295.816406 110.902344 C 295.894531 110.121094 295.96875 109.335938 296.042969 108.53125 Z M 296.042969 108.53125 "/>
<path style=" stroke:none;fill-rule:nonzero;fill:rgb(4.705882%,78.039217%,73.333335%);fill-opacity:1;" d="M 232.734375 115.160156 C 233.746094 115.335938 234.75 115.535156 235.75 115.765625 C 235.75 116.5625 235.75 117.355469 235.75 118.175781 C 236.546875 118.375 237.339844 118.574219 238.160156 118.78125 C 237.960938 120.570312 237.765625 122.359375 237.558594 124.207031 C 233.179688 124.207031 228.804688 124.207031 224.292969 124.207031 C 224.292969 125.398438 224.292969 126.59375 224.292969 127.824219 C 223.390625 128.953125 223.390625 128.953125 222.484375 129.632812 C 221.289062 128.960938 221.289062 128.960938 220.074219 127.824219 C 219.839844 126.0625 219.839844 126.0625 219.921875 124.09375 C 219.945312 123.4375 219.964844 122.78125 219.988281 122.105469 C 220.015625 121.605469 220.042969 121.105469 220.074219 120.589844 C 224.058594 121.136719 224.058594 121.136719 225.726562 121.53125 C 228.058594 121.917969 230.375 121.839844 232.734375 121.792969 C 232.734375 120.800781 232.734375 119.804688 232.734375 118.78125 C 231.9375 118.582031 231.144531 118.382812 230.324219 118.175781 C 230.324219 117.777344 230.324219 117.378906 230.324219 116.96875 C 229.527344 116.773438 228.730469 116.574219 227.910156 116.367188 C 228.9375 116.238281 228.9375 116.238281 229.984375 116.105469 C 232.015625 116 232.015625 116 232.734375 115.160156 Z M 232.734375 115.160156 "/>
<path style=" stroke:none;fill-rule:nonzero;fill:rgb(22.352941%,80.392158%,76.862746%);fill-opacity:1;" d="M 323.074219 114.207031 C 325.425781 116.703125 326.304688 119.03125 326.792969 122.398438 C 326.59375 123.390625 326.394531 124.386719 326.191406 125.410156 C 319.625 125.710938 319.625 125.710938 312.925781 126.015625 C 313.125 126.613281 313.324219 127.207031 313.53125 127.824219 C 312.933594 127.625 312.335938 127.425781 311.71875 127.21875 C 311.695312 126.214844 311.695312 125.210938 311.71875 124.207031 C 312.324219 123.601562 312.324219 123.601562 313.554688 123.535156 C 314.082031 123.539062 314.609375 123.539062 315.152344 123.542969 C 315.722656 123.546875 316.289062 123.546875 316.878906 123.550781 C 317.777344 123.558594 317.777344 123.558594 318.691406 123.566406 C 319.292969 123.566406 319.894531 123.570312 320.515625 123.574219 C 322.003906 123.582031 323.496094 123.589844 324.984375 123.601562 C 324.6875 122.109375 324.6875 122.109375 324.382812 120.589844 C 323.792969 120.882812 323.792969 120.882812 323.1875 121.1875 C 320.886719 121.953125 318.746094 121.925781 316.355469 121.871094 C 315.910156 121.863281 315.460938 121.859375 315.003906 121.851562 C 313.910156 121.839844 312.816406 121.816406 311.71875 121.792969 C 311.71875 120.601562 311.71875 119.40625 311.71875 118.175781 C 312.714844 117.777344 313.710938 117.378906 314.734375 116.96875 C 314.132812 118.175781 313.53125 119.382812 312.925781 120.589844 C 316.210938 120.289062 316.210938 120.289062 319.558594 119.984375 C 319.546875 119.4375 319.535156 118.890625 319.519531 118.328125 C 319.550781 116.695312 319.734375 115.503906 320.160156 113.957031 C 319.121094 113.9375 318.078125 113.929688 317.035156 113.917969 C 316.453125 113.910156 315.871094 113.902344 315.273438 113.898438 C 313.617188 113.953125 312.128906 114.183594 310.515625 114.558594 C 311.117188 113.351562 311.117188 113.351562 312.171875 112.929688 C 316.035156 111.988281 319.765625 111.640625 323.074219 114.207031 Z M 323.074219 114.207031 "/>
<path style=" stroke:none;fill-rule:nonzero;fill:rgb(2.745098%,78.823531%,74.509805%);fill-opacity:1;" d="M 248.410156 113.957031 C 250.601562 113.957031 252.789062 113.957031 255.042969 113.957031 C 255.242188 114.554688 255.441406 115.148438 255.648438 115.765625 C 256.046875 115.765625 256.441406 115.765625 256.851562 115.765625 C 257.671875 117.402344 257.523438 118.6875 257.515625 120.515625 C 257.511719 121.222656 257.511719 121.925781 257.507812 122.648438 C 257.503906 123.386719 257.5 124.125 257.492188 124.882812 C 257.492188 125.625 257.488281 126.367188 257.484375 127.132812 C 257.476562 128.972656 257.46875 130.808594 257.457031 132.648438 C 256.25 132.671875 255.042969 132.671875 253.839844 132.648438 C 253.234375 132.042969 253.234375 132.042969 253.167969 130.648438 C 253.171875 130.042969 253.171875 129.441406 253.175781 128.820312 C 253.179688 128.167969 253.179688 127.519531 253.183594 126.847656 C 253.1875 126.164062 253.191406 125.476562 253.199219 124.769531 C 253.199219 124.082031 253.203125 123.394531 253.207031 122.6875 C 253.214844 120.984375 253.222656 119.277344 253.234375 117.574219 C 252.773438 117.488281 252.316406 117.398438 251.839844 117.308594 C 250.21875 116.96875 250.21875 116.96875 248.410156 116.367188 C 248.410156 115.570312 248.410156 114.777344 248.410156 113.957031 Z M 248.410156 113.957031 "/>
<path style=" stroke:none;fill-rule:nonzero;fill:rgb(10.196079%,70.19608%,73.725492%);fill-opacity:1;" d="M 42.808594 94.058594 C 42.808594 94.457031 42.808594 94.855469 42.808594 95.265625 C 42.410156 95.265625 42.011719 95.265625 41.601562 95.265625 C 41.402344 95.863281 41.203125 96.457031 41 97.074219 C 40.003906 97.074219 39.011719 97.074219 37.984375 97.074219 C 37.503906 99.054688 37.324219 99.914062 37.984375 101.898438 C 36.890625 102.539062 36.890625 102.539062 35.574219 103.101562 C 34.976562 102.902344 34.378906 102.703125 33.765625 102.5 C 33.808594 103.085938 33.851562 103.675781 33.898438 104.28125 C 34.355469 111.066406 34.414062 117.820312 34.34375 124.621094 C 34.339844 125.324219 34.335938 126.023438 34.328125 126.746094 C 34.324219 127.375 34.316406 128.003906 34.308594 128.652344 C 34.296875 130.300781 34.296875 130.300781 34.96875 132.042969 C 34.773438 132.847656 34.574219 133.652344 34.367188 134.457031 C 34.566406 134.855469 34.765625 135.25 34.96875 135.660156 C 34.945312 136.320312 34.921875 136.980469 34.894531 137.660156 C 34.976562 140.058594 35.480469 140.945312 36.78125 142.898438 C 36.78125 143.492188 36.78125 144.089844 36.78125 144.707031 C 37.175781 144.707031 37.574219 144.707031 37.984375 144.707031 C 37.6875 145.304688 37.6875 145.304688 37.382812 145.910156 C 34.460938 143.304688 32.78125 140.902344 32.390625 137 C 32.320312 134.964844 32.308594 132.933594 32.320312 130.894531 C 32.316406 130.148438 32.316406 129.402344 32.3125 128.632812 C 32.3125 126.65625 32.320312 124.679688 32.328125 122.699219 C 32.332031 121.492188 32.328125 120.285156 32.324219 119.078125 C 32.3125 116.75 32.3125 114.421875 32.320312 112.089844 C 32.316406 111.375 32.3125 110.65625 32.308594 109.917969 C 32.355469 104.222656 33.277344 100.671875 37.382812 96.46875 C 40.839844 94.058594 40.839844 94.058594 42.808594 94.058594 Z M 42.808594 94.058594 "/>
<path style=" stroke:none;fill-rule:nonzero;fill:rgb(25.490198%,38.82353%,41.960785%);fill-opacity:1;" d="M 144.101562 122.398438 C 144.578125 123.785156 144.777344 124.570312 144.34375 125.992188 C 142.429688 129.683594 140.359375 132.570312 136.332031 134.160156 C 133.738281 134.765625 131.074219 134.585938 128.425781 134.457031 C 128.425781 134.257812 128.425781 134.058594 128.425781 133.851562 C 130.417969 133.851562 132.40625 133.851562 134.457031 133.851562 C 134.457031 133.453125 134.457031 133.058594 134.457031 132.648438 C 133.460938 132.449219 132.464844 132.25 131.441406 132.042969 C 132.167969 129.867188 132.941406 129.261719 134.757812 127.898438 C 136.460938 126.621094 136.460938 126.621094 137.46875 124.207031 C 139.660156 124.207031 141.847656 124.207031 144.101562 124.207031 C 144.101562 123.609375 144.101562 123.011719 144.101562 122.398438 Z M 144.101562 122.398438 "/>
<path style=" stroke:none;fill-rule:nonzero;fill:rgb(16.862746%,71.372551%,75.686276%);fill-opacity:1;" d="M 58.484375 154.351562 C 58.683594 154.75 58.882812 155.148438 59.089844 155.558594 C 60.28125 155.359375 61.476562 155.160156 62.707031 154.957031 C 62.59375 155.316406 62.480469 155.675781 62.367188 156.046875 C 61.96875 157.464844 61.96875 157.464844 62.707031 159.175781 C 63.351562 159.164062 64 159.152344 64.664062 159.140625 C 66.925781 159.175781 66.925781 159.175781 68.0625 159.496094 C 69.683594 159.855469 71.042969 159.695312 72.691406 159.515625 C 74.410156 159.332031 76.050781 159.175781 77.78125 159.175781 C 77.027344 161.378906 76.773438 162.058594 74.765625 163.398438 C 68.066406 164.726562 63.6875 162.4375 58.195312 158.921875 C 56.542969 157.785156 55.320312 156.695312 54.265625 154.957031 C 55.765625 154.542969 56.90625 154.351562 58.484375 154.351562 Z M 58.484375 154.351562 "/>
<path style=" stroke:none;fill-rule:nonzero;fill:rgb(6.27451%,77.254903%,72.549021%);fill-opacity:1;" d="M 244.792969 117.574219 C 244.992188 117.574219 245.191406 117.574219 245.398438 117.574219 C 245.398438 122.746094 245.398438 127.921875 245.398438 133.25 C 243.605469 133.25 241.816406 133.25 239.96875 133.25 C 239.9375 131.605469 239.914062 129.960938 239.894531 128.3125 C 239.886719 127.851562 239.875 127.386719 239.863281 126.910156 C 239.84375 124.355469 239.878906 122.265625 241.175781 119.984375 C 242.722656 119.269531 242.722656 119.269531 244.191406 118.78125 C 244.390625 118.382812 244.589844 117.984375 244.792969 117.574219 Z M 244.792969 117.574219 "/>
<path style=" stroke:none;fill-rule:nonzero;fill:rgb(2.352941%,79.215688%,74.901962%);fill-opacity:1;" d="M 285.191406 115.160156 C 286.398438 116.367188 286.398438 116.367188 286.472656 117.949219 C 286.449219 118.421875 286.421875 118.894531 286.398438 119.382812 C 286.796875 119.382812 287.191406 119.382812 287.601562 119.382812 C 287.800781 122.566406 288 125.75 288.207031 129.03125 C 289.398438 129.226562 290.59375 129.425781 291.824219 129.632812 C 291.824219 130.828125 291.824219 132.019531 291.824219 133.25 C 290.230469 133.25 288.640625 133.25 287 133.25 C 287 132.851562 287 132.453125 287 132.042969 C 286.203125 131.84375 285.410156 131.644531 284.589844 131.441406 C 283.496094 128.226562 283.261719 125.652344 283.53125 122.285156 C 283.570312 121.652344 283.570312 121.652344 283.605469 121.007812 C 283.761719 118.808594 284.003906 117.046875 285.191406 115.160156 Z M 285.191406 115.160156 "/>
<path style=" stroke:none;fill-rule:nonzero;fill:rgb(16.862746%,80.392158%,77.254903%);fill-opacity:1;" d="M 301.46875 117.574219 C 301.667969 117.574219 301.867188 117.574219 302.074219 117.574219 C 302.074219 121.15625 302.074219 124.738281 302.074219 128.425781 C 303.265625 128.425781 304.460938 128.425781 305.691406 128.425781 C 306.292969 129.03125 306.292969 129.03125 306.351562 130.144531 C 306.332031 131.378906 306.3125 132.617188 306.292969 133.851562 C 304.367188 134.816406 302.359375 134.679688 300.265625 134.457031 C 298.445312 133.664062 297.542969 133.09375 296.457031 131.441406 C 296.042969 130.234375 296.042969 130.234375 296.042969 128.425781 C 297.039062 128.226562 298.035156 128.027344 299.058594 127.824219 C 299.058594 127.226562 299.058594 126.628906 299.058594 126.015625 C 299.457031 126.015625 299.855469 126.015625 300.265625 126.015625 C 300.265625 124.222656 300.265625 122.433594 300.265625 120.589844 C 300.464844 120.589844 300.664062 120.589844 300.867188 120.589844 C 301.066406 119.59375 301.265625 118.597656 301.46875 117.574219 Z M 301.46875 117.574219 "/>
<path style=" stroke:none;fill-rule:nonzero;fill:rgb(26.666668%,78.431374%,75.294119%);fill-opacity:1;" d="M 215.851562 109.132812 C 217.574219 110.566406 217.960938 111.59375 218.1875 113.804688 C 218.40625 116.839844 217.976562 118.566406 216.457031 121.191406 C 215.667969 122.011719 214.867188 122.816406 214.042969 123.601562 C 214.285156 124.003906 214.523438 124.402344 214.773438 124.816406 C 215.734375 126.421875 216.699219 128.027344 217.660156 129.632812 C 218 130.171875 218.339844 130.710938 218.6875 131.265625 C 219.46875 132.648438 219.46875 132.648438 219.46875 133.851562 C 217.082031 133.851562 214.695312 133.851562 212.234375 133.851562 C 210.644531 131.066406 209.050781 128.28125 207.410156 125.410156 C 208.007812 125.210938 208.605469 125.015625 209.21875 124.808594 C 209.417969 125.804688 209.617188 126.796875 209.824219 127.824219 C 210.421875 127.824219 211.015625 127.824219 211.632812 127.824219 C 211.632812 128.820312 211.632812 129.8125 211.632812 130.839844 C 212.03125 130.839844 212.429688 130.839844 212.839844 130.839844 C 212.839844 131.234375 212.839844 131.632812 212.839844 132.042969 C 214.796875 131.003906 214.796875 131.003906 215.25 129.03125 C 214.851562 128.832031 214.453125 128.632812 214.042969 128.425781 C 214.042969 127.429688 214.042969 126.4375 214.042969 125.410156 C 213.644531 125.410156 213.25 125.410156 212.839844 125.410156 C 212.839844 124.417969 212.839844 123.421875 212.839844 122.398438 C 213.234375 122.398438 213.632812 122.398438 214.042969 122.398438 C 214.042969 122 214.042969 121.601562 214.042969 121.191406 C 214.441406 121.191406 214.839844 121.191406 215.25 121.191406 C 215.324219 120.558594 215.398438 119.921875 215.476562 119.269531 C 215.851562 116.96875 215.851562 116.96875 216.570312 115.5 C 217.316406 113.136719 216.570312 111.476562 215.851562 109.132812 Z M 215.851562 109.132812 "/>
<path style=" stroke:none;fill-rule:nonzero;fill:rgb(26.666668%,80.784315%,78.039217%);fill-opacity:1;" d="M 325.589844 126.617188 C 326.039062 127.597656 326.039062 127.597656 326.191406 129.03125 C 324.914062 131.632812 323.578125 133.160156 320.808594 134.175781 C 318.417969 134.710938 315.957031 134.796875 313.53125 134.457031 C 313.132812 134.058594 312.734375 133.660156 312.324219 133.25 C 315.007812 132.953125 315.007812 132.953125 317.75 132.648438 C 316.839844 130.832031 315.320312 130.46875 313.53125 129.632812 C 313.726562 129.035156 313.925781 128.4375 314.132812 127.824219 C 314.53125 128.222656 314.929688 128.621094 315.339844 129.03125 C 317.140625 128.972656 317.140625 128.972656 318.957031 128.425781 C 319.230469 128.117188 319.503906 127.804688 319.785156 127.484375 C 321.460938 126 323.425781 126.511719 325.589844 126.617188 Z M 325.589844 126.617188 "/>
<path style=" stroke:none;fill-rule:nonzero;fill:rgb(18.82353%,32.941177%,36.470589%);fill-opacity:1;" d="M 150.132812 121.191406 C 150.332031 121.191406 150.53125 121.191406 150.734375 121.191406 C 150.800781 121.648438 150.867188 122.105469 150.933594 122.578125 C 151.03125 123.175781 151.125 123.777344 151.226562 124.394531 C 151.316406 124.988281 151.40625 125.582031 151.5 126.195312 C 151.960938 127.898438 152.394531 128.542969 153.75 129.632812 C 153.164062 129.820312 152.582031 130.003906 151.980469 130.199219 C 150.226562 130.65625 150.226562 130.65625 149.53125 131.441406 C 151.792969 132.167969 153.949219 132.105469 156.3125 132.082031 C 157.074219 132.078125 157.835938 132.070312 158.621094 132.066406 C 159.492188 132.054688 159.492188 132.054688 160.382812 132.042969 C 160.542969 131.558594 160.707031 131.074219 160.871094 130.574219 C 161.109375 130.066406 161.34375 129.554688 161.589844 129.03125 C 162.183594 128.832031 162.78125 128.632812 163.398438 128.425781 C 163.398438 129.746094 163.398438 129.746094 162.792969 131.441406 C 160.53125 133.628906 158.085938 134.664062 154.957031 134.832031 C 151.761719 134.664062 149.535156 133.488281 147.117188 131.441406 C 145.910156 130.046875 145.910156 130.046875 145.308594 129.03125 C 145.507812 128.632812 145.707031 128.234375 145.910156 127.824219 C 146.308594 128.023438 146.707031 128.222656 147.117188 128.425781 C 147.316406 127.828125 147.515625 127.234375 147.71875 126.617188 C 148.117188 126.816406 148.515625 127.015625 148.925781 127.21875 C 149.460938 125.230469 149.808594 123.226562 150.132812 121.191406 Z M 150.132812 121.191406 "/>
<path style=" stroke:none;fill-rule:nonzero;fill:rgb(5.490196%,77.254903%,73.333335%);fill-opacity:1;" d="M 211.03125 119.984375 C 212.726562 121.191406 212.726562 121.191406 214.042969 122.398438 C 213.644531 122.398438 213.25 122.398438 212.839844 122.398438 C 212.839844 123.390625 212.839844 124.386719 212.839844 125.410156 C 213.234375 125.410156 213.632812 125.410156 214.042969 125.410156 C 214.441406 127.203125 214.839844 128.992188 215.25 130.839844 C 214.054688 131.433594 214.054688 131.433594 212.839844 132.042969 C 212.839844 131.644531 212.839844 131.25 212.839844 130.839844 C 212.441406 130.839844 212.042969 130.839844 211.632812 130.839844 C 211.632812 129.84375 211.632812 128.847656 211.632812 127.824219 C 211.035156 127.824219 210.4375 127.824219 209.824219 127.824219 C 209.625 126.828125 209.425781 125.832031 209.21875 124.808594 C 207.429688 124.609375 205.640625 124.410156 203.792969 124.207031 C 204.589844 123.808594 205.386719 123.410156 206.207031 123 C 206.007812 122.601562 205.808594 122.203125 205.601562 121.792969 C 206.6875 119.625 208.847656 119.726562 211.03125 119.984375 Z M 211.03125 119.984375 "/>
<path style=" stroke:none;fill-rule:nonzero;fill:rgb(3.529412%,77.64706%,73.333335%);fill-opacity:1;" d="M 232.734375 126.617188 C 234.527344 126.617188 236.316406 126.617188 238.160156 126.617188 C 238.359375 127.214844 238.558594 127.8125 238.765625 128.425781 C 237.597656 130.347656 237.597656 130.347656 236.351562 132.042969 C 235.160156 131.644531 233.964844 131.25 232.734375 130.839844 C 232.535156 131.632812 232.335938 132.429688 232.132812 133.25 C 230.09375 133.425781 228.136719 133.519531 226.101562 133.25 C 224.519531 131.742188 224.519531 131.742188 223.691406 130.234375 C 223.890625 129.835938 224.089844 129.4375 224.292969 129.03125 C 224.890625 129.226562 225.488281 129.425781 226.101562 129.632812 C 229.207031 129.875 229.207031 129.875 232.132812 129.03125 C 232.332031 128.234375 232.53125 127.4375 232.734375 126.617188 Z M 232.734375 126.617188 "/>
<path style=" stroke:none;fill-rule:nonzero;fill:rgb(2.352941%,79.607844%,74.901962%);fill-opacity:1;" d="M 265.898438 116.367188 C 266.691406 116.367188 267.488281 116.367188 268.308594 116.367188 C 268.289062 116.871094 268.289062 116.871094 268.265625 117.386719 C 268.210938 119.777344 268.25 121.871094 268.949219 124.167969 C 269.777344 127.039062 269.355469 129.730469 268.910156 132.648438 C 267.71875 132.648438 266.523438 132.648438 265.292969 132.648438 C 265.277344 130.160156 265.265625 127.671875 265.257812 125.1875 C 265.25 124.476562 265.246094 123.769531 265.242188 123.039062 C 265.238281 122.363281 265.238281 121.683594 265.234375 120.988281 C 265.230469 120.363281 265.230469 119.738281 265.226562 119.09375 C 265.292969 117.574219 265.292969 117.574219 265.898438 116.367188 Z M 265.898438 116.367188 "/>
<path style=" stroke:none;fill-rule:nonzero;fill:rgb(17.254902%,31.764707%,35.294119%);fill-opacity:1;" d="M 124.808594 106.71875 C 125.207031 106.917969 125.605469 107.117188 126.015625 107.324219 C 125.617188 108.121094 125.21875 108.914062 124.808594 109.734375 C 127.496094 110.332031 127.496094 110.332031 130.234375 110.941406 C 129.761719 111.402344 129.289062 111.863281 128.804688 112.335938 C 126.53125 114.660156 125.863281 116.007812 125.636719 119.195312 C 125.59375 119.792969 125.546875 120.390625 125.5 121.011719 C 125.472656 121.46875 125.441406 121.925781 125.410156 122.398438 C 124.617188 122.199219 123.820312 122 123 121.792969 C 123 120.800781 123 119.804688 123 118.78125 C 123.398438 118.78125 123.796875 118.78125 124.207031 118.78125 C 124.039062 118.050781 124.039062 118.050781 123.867188 117.308594 C 123.78125 116.800781 123.691406 116.289062 123.601562 115.765625 C 123.800781 115.566406 124 115.367188 124.207031 115.160156 C 123.722656 115.023438 123.234375 114.886719 122.734375 114.746094 C 121.191406 113.957031 121.191406 113.957031 120.4375 112.636719 C 120.683594 109.863281 122.78125 108.476562 124.808594 106.71875 Z M 123 110.339844 C 123.601562 111.542969 123.601562 111.542969 123.601562 111.542969 Z M 123 110.339844 "/>
<path style=" stroke:none;fill-rule:nonzero;fill:rgb(24.705882%,75.294119%,73.333335%);fill-opacity:1;" d="M 199.914062 105.476562 C 200.640625 105.496094 200.640625 105.496094 201.382812 105.515625 C 201.582031 105.914062 201.78125 106.3125 201.984375 106.71875 C 200.992188 106.71875 199.996094 106.71875 198.96875 106.71875 C 198.96875 115.277344 198.96875 123.832031 198.96875 132.648438 C 200.363281 132.648438 201.757812 132.648438 203.191406 132.648438 C 203.191406 129.863281 203.191406 127.074219 203.191406 124.207031 C 203.390625 124.207031 203.589844 124.207031 203.792969 124.207031 C 203.792969 127.390625 203.792969 130.574219 203.792969 133.851562 C 201.804688 133.851562 199.816406 133.851562 197.765625 133.851562 C 197.75 129.914062 197.738281 125.976562 197.730469 122.035156 C 197.730469 120.695312 197.722656 119.355469 197.71875 118.011719 C 197.710938 116.089844 197.707031 114.167969 197.707031 112.242188 C 197.703125 111.640625 197.699219 111.035156 197.695312 110.414062 C 197.695312 109.859375 197.695312 109.304688 197.695312 108.730469 C 197.695312 108.242188 197.695312 107.75 197.691406 107.242188 C 197.808594 105.457031 198.117188 105.519531 199.914062 105.476562 Z M 199.914062 105.476562 "/>
<path style=" stroke:none;fill-rule:nonzero;fill:rgb(30.19608%,79.607844%,79.215688%);fill-opacity:1;" d="M 42.808594 94.058594 C 42.808594 94.457031 42.808594 94.855469 42.808594 95.265625 C 42.410156 95.265625 42.011719 95.265625 41.601562 95.265625 C 41.402344 95.863281 41.203125 96.457031 41 97.074219 C 40.003906 97.074219 39.011719 97.074219 37.984375 97.074219 C 37.503906 99.054688 37.324219 99.914062 37.984375 101.898438 C 36.890625 102.539062 36.890625 102.539062 35.574219 103.101562 C 34.976562 102.902344 34.378906 102.703125 33.765625 102.5 C 33.566406 112.449219 33.367188 122.398438 33.160156 132.648438 C 32.960938 132.648438 32.765625 132.648438 32.558594 132.648438 C 32.511719 128.6875 32.480469 124.730469 32.460938 120.773438 C 32.449219 119.425781 32.4375 118.082031 32.421875 116.734375 C 32.398438 114.796875 32.390625 112.859375 32.382812 110.921875 C 32.371094 110.320312 32.363281 109.722656 32.355469 109.109375 C 32.351562 103.796875 33.570312 100.367188 37.382812 96.46875 C 40.839844 94.058594 40.839844 94.058594 42.808594 94.058594 Z M 42.808594 94.058594 "/>
<path style=" stroke:none;fill-rule:nonzero;fill:rgb(21.176471%,75.686276%,76.862746%);fill-opacity:1;" d="M 53.058594 132.042969 C 53.710938 132.714844 53.710938 132.714844 54.378906 133.402344 C 56.015625 135.066406 56.015625 135.066406 57.769531 136.378906 C 58.203125 136.738281 58.640625 137.097656 59.089844 137.46875 C 59.089844 137.867188 59.089844 138.265625 59.089844 138.675781 C 59.636719 138.851562 60.183594 139.023438 60.746094 139.203125 C 62.707031 139.882812 62.707031 139.882812 63.910156 140.523438 C 65.484375 141.261719 67.023438 141.457031 68.734375 141.691406 C 66.75 143.015625 66.210938 143.117188 63.910156 142.898438 C 62.214844 142.292969 62.214844 142.292969 60.898438 141.691406 C 60.898438 142.089844 60.898438 142.488281 60.898438 142.898438 C 60.5 142.898438 60.101562 142.898438 59.691406 142.898438 C 59.492188 143.296875 59.292969 143.691406 59.089844 144.101562 C 58.691406 143.902344 58.292969 143.703125 57.882812 143.5 C 57.882812 141.910156 57.882812 140.316406 57.882812 138.675781 C 57.085938 138.476562 56.289062 138.277344 55.46875 138.074219 C 55.273438 138.671875 55.074219 139.265625 54.867188 139.882812 C 54.46875 139.683594 54.070312 139.484375 53.660156 139.28125 C 53.660156 138.683594 53.660156 138.085938 53.660156 137.46875 C 53.570312 136.527344 53.46875 135.585938 53.359375 134.644531 C 53.304688 134.15625 53.25 133.667969 53.191406 133.167969 C 53.148438 132.796875 53.105469 132.425781 53.058594 132.042969 Z M 53.058594 132.042969 "/>
<path style=" stroke:none;fill-rule:nonzero;fill:rgb(22.745098%,80.392158%,76.47059%);fill-opacity:1;" d="M 277.957031 105.515625 C 279.160156 107.324219 279.160156 107.324219 279.046875 108.867188 C 278.558594 110.339844 278.558594 110.339844 276.75 111.542969 C 275.019531 111.761719 274.113281 111.792969 272.640625 110.828125 C 271.671875 109.34375 271.664062 108.460938 271.925781 106.71875 C 273.375 104.164062 275.414062 104.867188 277.957031 105.515625 Z M 277.957031 105.515625 "/>
<path style=" stroke:none;fill-rule:nonzero;fill:rgb(4.313726%,23.529412%,28.627452%);fill-opacity:1;" d="M 163.398438 126.617188 C 163.597656 127.414062 163.796875 128.210938 164 129.03125 C 163.441406 129.105469 163.441406 129.105469 162.871094 129.179688 C 162.445312 129.328125 162.023438 129.480469 161.589844 129.632812 C 161.449219 130.027344 161.308594 130.425781 161.160156 130.832031 C 160.382812 132.042969 160.382812 132.042969 158.523438 132.453125 C 157.78125 132.492188 157.039062 132.53125 156.273438 132.570312 C 155.539062 132.621094 154.800781 132.667969 154.039062 132.71875 C 152.007812 132.648438 150.734375 132.328125 148.925781 131.441406 C 149.324219 131.242188 149.722656 131.042969 150.132812 130.839844 C 150.332031 130.441406 150.53125 130.042969 150.734375 129.632812 C 152.050781 129.382812 152.050781 129.382812 153.675781 129.253906 C 154.207031 129.210938 154.742188 129.164062 155.289062 129.117188 C 156.789062 129.027344 158.277344 129.03125 159.78125 129.03125 C 159.976562 128.433594 160.175781 127.835938 160.382812 127.21875 C 161.378906 127.023438 162.371094 126.824219 163.398438 126.617188 Z M 163.398438 126.617188 "/>
<path style=" stroke:none;fill-rule:nonzero;fill:rgb(8.235294%,24.313726%,28.627452%);fill-opacity:1;" d="M 124.808594 129.03125 C 127.992188 129.03125 131.175781 129.03125 134.457031 129.03125 C 133.460938 130.023438 132.464844 131.019531 131.441406 132.042969 C 132.4375 132.242188 133.429688 132.441406 134.457031 132.648438 C 134.457031 133.046875 134.457031 133.441406 134.457031 133.851562 C 133.199219 133.886719 131.945312 133.910156 130.6875 133.929688 C 129.636719 133.949219 129.636719 133.949219 128.566406 133.96875 C 126.707031 133.859375 125.707031 133.726562 124.207031 132.648438 C 124.007812 132.050781 123.808594 131.453125 123.601562 130.839844 C 124 130.839844 124.398438 130.839844 124.808594 130.839844 C 124.808594 130.242188 124.808594 129.644531 124.808594 129.03125 Z M 124.808594 129.03125 "/>
<path style=" stroke:none;fill-rule:nonzero;fill:rgb(22.745098%,35.686275%,38.039216%);fill-opacity:1;" d="M 167.617188 104.910156 C 170.890625 104.695312 170.890625 104.695312 172.367188 105.628906 C 173.289062 107.117188 173.300781 108.015625 173.042969 109.734375 C 172.328125 110.828125 172.328125 110.828125 171.234375 111.542969 C 169.515625 111.800781 168.617188 111.789062 167.128906 110.867188 C 166.117188 109.269531 166.289062 107.96875 166.410156 106.117188 C 166.808594 106.117188 167.207031 106.117188 167.617188 106.117188 C 167.617188 105.71875 167.617188 105.320312 167.617188 104.910156 Z M 167.617188 104.910156 "/>
<path style=" stroke:none;fill-rule:nonzero;fill:rgb(4.705882%,21.176471%,25.490198%);fill-opacity:1;" d="M 147.117188 119.382812 C 148.925781 119.984375 148.925781 119.984375 150.132812 121.792969 C 150.253906 124.027344 150.238281 125.695312 149.53125 127.824219 C 148.933594 127.625 148.335938 127.425781 147.71875 127.21875 C 147.523438 127.617188 147.324219 128.015625 147.117188 128.425781 C 146.320312 128.226562 145.527344 128.027344 144.707031 127.824219 C 144.671875 126.855469 144.648438 125.890625 144.628906 124.921875 C 144.617188 124.382812 144.601562 123.84375 144.589844 123.289062 C 144.707031 121.792969 144.707031 121.792969 145.910156 119.984375 C 146.308594 120.183594 146.707031 120.382812 147.117188 120.589844 C 147.117188 120.191406 147.117188 119.792969 147.117188 119.382812 Z M 147.117188 119.382812 "/>
<path style=" stroke:none;fill-rule:nonzero;fill:rgb(19.215687%,32.549021%,35.294119%);fill-opacity:1;" d="M 175.457031 112.75 C 177.246094 112.75 179.039062 112.75 180.882812 112.75 C 181.082031 113.148438 181.28125 113.546875 181.484375 113.957031 C 181.820312 113.761719 182.15625 113.5625 182.5 113.363281 C 184.09375 112.664062 185.21875 112.589844 186.949219 112.597656 C 187.464844 112.597656 187.984375 112.59375 188.515625 112.589844 C 189.925781 112.75 189.925781 112.75 191.734375 113.957031 C 189.148438 114.554688 186.5625 115.148438 183.898438 115.765625 C 184.691406 115.964844 185.488281 116.164062 186.308594 116.367188 C 186.507812 116.964844 186.707031 117.5625 186.910156 118.175781 C 185.320312 118.375 183.726562 118.574219 182.089844 118.78125 C 181.914062 118.394531 181.738281 118.007812 181.5625 117.609375 C 180.984375 116.277344 180.984375 116.277344 179.675781 115.765625 C 179.875 114.96875 180.074219 114.171875 180.28125 113.351562 C 178.6875 113.351562 177.097656 113.351562 175.457031 113.351562 C 175.457031 113.152344 175.457031 112.953125 175.457031 112.75 Z M 175.457031 112.75 "/>
<path style=" stroke:none;fill-rule:nonzero;fill:rgb(35.686275%,80.000001%,78.431374%);fill-opacity:1;" d="M 328 112.75 C 329.789062 112.75 331.582031 112.75 333.425781 112.75 C 333.425781 112.949219 333.425781 113.148438 333.425781 113.351562 C 331.835938 113.351562 330.242188 113.351562 328.601562 113.351562 C 328.601562 119.71875 328.601562 126.085938 328.601562 132.648438 C 330.195312 132.648438 331.785156 132.648438 333.425781 132.648438 C 333.425781 128.070312 333.425781 123.496094 333.425781 118.78125 C 334.421875 118.582031 335.417969 118.382812 336.441406 118.175781 C 336.148438 118.410156 335.855469 118.640625 335.554688 118.878906 C 334.324219 120.355469 334.375 121.289062 334.324219 123.195312 C 334.300781 123.816406 334.28125 124.433594 334.257812 125.074219 C 334.238281 126.042969 334.238281 126.042969 334.21875 127.03125 C 334.195312 127.683594 334.175781 128.339844 334.15625 129.011719 C 334.105469 130.625 334.066406 132.238281 334.03125 133.851562 C 332.039062 133.851562 330.050781 133.851562 328 133.851562 C 328 126.890625 328 119.925781 328 112.75 Z M 328 112.75 "/>
<path style=" stroke:none;fill-rule:nonzero;fill:rgb(7.058824%,25.490198%,29.411766%);fill-opacity:1;" d="M 126.015625 106.117188 C 128.800781 106.117188 131.585938 106.117188 134.457031 106.117188 C 134.457031 106.316406 134.457031 106.515625 134.457031 106.71875 C 133.460938 106.917969 132.464844 107.117188 131.441406 107.324219 C 131.839844 108.320312 132.238281 109.3125 132.648438 110.339844 C 126.972656 111.253906 126.972656 111.253906 124.207031 109.734375 C 124.808594 108.53125 125.410156 107.324219 126.015625 106.117188 Z M 126.015625 106.117188 "/>
<path style=" stroke:none;fill-rule:nonzero;fill:rgb(23.921569%,79.607844%,76.078433%);fill-opacity:1;" d="M 234.429688 113.765625 C 236.585938 115.332031 237.035156 116.21875 237.558594 118.78125 C 236.960938 118.582031 236.363281 118.382812 235.75 118.175781 C 235.75 117.378906 235.75 116.585938 235.75 115.765625 C 233.328125 114.621094 231.371094 114.394531 228.703125 114.40625 C 227.671875 114.402344 227.671875 114.402344 226.625 114.398438 C 224.820312 114.378906 224.820312 114.378906 223.691406 115.765625 C 223.515625 116.261719 223.34375 116.757812 223.164062 117.273438 C 222.484375 118.78125 222.484375 118.78125 221.203125 119.570312 C 220.644531 119.777344 220.644531 119.777344 220.074219 119.984375 C 219.855469 118.0625 220 117.101562 220.941406 115.386719 C 224.871094 111.746094 229.6875 111.441406 234.429688 113.765625 Z M 234.429688 113.765625 "/>
<path style=" stroke:none;fill-rule:nonzero;fill:rgb(26.666668%,84.313726%,77.254903%);fill-opacity:1;" d="M 71.296875 79.136719 C 71.957031 79.195312 71.957031 79.195312 72.625 79.257812 C 76.515625 80.09375 79.820312 82.164062 83.167969 84.222656 C 83.582031 84.472656 83.992188 84.726562 84.417969 84.984375 C 85.421875 85.59375 86.425781 86.207031 87.425781 86.824219 C 85 87.632812 83.761719 87.109375 81.398438 86.21875 C 80.417969 85.015625 80.417969 85.015625 79.589844 83.808594 C 78.175781 83.132812 78.175781 83.132812 76.574219 82.601562 C 76 82.265625 75.429688 81.929688 74.839844 81.585938 C 72.527344 80.613281 71.167969 81.03125 68.734375 81.398438 C 67.566406 80.53125 67.566406 80.53125 66.925781 79.589844 C 68.699219 78.996094 69.496094 78.945312 71.296875 79.136719 Z M 71.296875 79.136719 "/>
<path style=" stroke:none;fill-rule:nonzero;fill:rgb(23.921569%,71.764708%,77.254903%);fill-opacity:1;" d="M 43.410156 144.707031 C 43.410156 145.304688 43.410156 145.898438 43.410156 146.515625 C 44.007812 146.714844 44.605469 146.914062 45.21875 147.117188 C 45.21875 147.914062 45.21875 148.710938 45.21875 149.53125 C 45.617188 149.53125 46.015625 149.53125 46.425781 149.53125 C 46.425781 149.925781 46.425781 150.324219 46.425781 150.734375 C 46.898438 150.785156 47.371094 150.835938 47.859375 150.886719 C 49.441406 151.339844 49.441406 151.339844 50.234375 152.582031 C 50.371094 152.96875 50.507812 153.351562 50.648438 153.75 C 48.15625 152.519531 45.726562 151.183594 43.296875 149.832031 C 42.632812 149.464844 42.632812 149.464844 41.953125 149.09375 C 41.53125 148.859375 41.109375 148.621094 40.671875 148.378906 C 40.285156 148.167969 39.902344 147.953125 39.503906 147.734375 C 38.589844 147.117188 38.589844 147.117188 37.984375 145.910156 C 39.875 144.792969 41.226562 144.585938 43.410156 144.707031 Z M 43.410156 144.707031 "/>
<path style=" stroke:none;fill-rule:nonzero;fill:rgb(20.784314%,81.960785%,78.431374%);fill-opacity:1;" d="M 306.292969 129.03125 C 306.292969 130.621094 306.292969 132.214844 306.292969 133.851562 C 304.941406 134.53125 304.175781 134.535156 302.675781 134.53125 C 302.042969 134.535156 302.042969 134.535156 301.394531 134.535156 C 300.265625 134.457031 300.265625 134.457031 299.058594 133.851562 C 299.058594 133.453125 299.058594 133.058594 299.058594 132.648438 C 299.855469 132.648438 300.652344 132.648438 301.46875 132.648438 C 301.46875 132.25 301.46875 131.851562 301.46875 131.441406 C 301.867188 131.441406 302.265625 131.441406 302.675781 131.441406 C 302.476562 130.644531 302.277344 129.847656 302.074219 129.03125 C 303.960938 128.398438 304.480469 128.464844 306.292969 129.03125 Z M 306.292969 129.03125 "/>
<path style=" stroke:none;fill-rule:nonzero;fill:rgb(9.411765%,78.823531%,74.901962%);fill-opacity:1;" d="M 311.191406 129.132812 C 311.652344 129.25 312.113281 129.363281 312.585938 129.480469 C 313.046875 129.589844 313.507812 129.699219 313.980469 129.8125 C 315.328125 130.230469 316.507812 130.773438 317.75 131.441406 C 317.75 131.839844 317.75 132.238281 317.75 132.648438 C 318.148438 132.847656 318.546875 133.046875 318.957031 133.25 C 311.9375 133.710938 311.9375 133.710938 309.925781 132.578125 C 309.121094 131.742188 309.121094 131.742188 308.101562 130.234375 C 309.910156 129.03125 309.910156 129.03125 311.191406 129.132812 Z M 311.191406 129.132812 "/>
<path style=" stroke:none;fill-rule:nonzero;fill:rgb(6.666667%,23.137255%,27.058825%);fill-opacity:1;" d="M 119.984375 113.351562 C 121.578125 113.75 123.167969 114.148438 124.808594 114.558594 C 124.609375 115.953125 124.410156 117.34375 124.207031 118.78125 C 123.210938 118.976562 122.214844 119.175781 121.191406 119.382812 C 120.992188 120.378906 120.792969 121.371094 120.589844 122.398438 C 120.191406 122.398438 119.792969 122.398438 119.382812 122.398438 C 119.367188 121.117188 119.355469 119.835938 119.34375 118.554688 C 119.335938 117.839844 119.332031 117.125 119.324219 116.390625 C 119.382812 114.558594 119.382812 114.558594 119.984375 113.351562 Z M 119.984375 113.351562 "/>
<path style=" stroke:none;fill-rule:nonzero;fill:rgb(13.333334%,79.215688%,76.078433%);fill-opacity:1;" d="M 321.878906 126.558594 C 323.117188 126.578125 324.351562 126.597656 325.589844 126.617188 C 326.078125 127.636719 326.078125 127.636719 326.191406 129.03125 C 324.910156 130.726562 324.910156 130.726562 323.175781 132.042969 C 321.480469 131.929688 321.480469 131.929688 320.160156 131.441406 C 320.136719 130.035156 320.136719 128.628906 320.160156 127.21875 C 320.765625 126.617188 320.765625 126.617188 321.878906 126.558594 Z M 321.878906 126.558594 "/>
<path style=" stroke:none;fill-rule:nonzero;fill:rgb(26.274511%,36.862746%,39.215687%);fill-opacity:1;" d="M 162.792969 128.425781 C 162.992188 129.023438 163.191406 129.621094 163.398438 130.234375 C 159.507812 134.339844 159.507812 134.339844 156.417969 134.574219 C 155.882812 134.558594 155.351562 134.546875 154.804688 134.53125 C 154.265625 134.519531 153.730469 134.507812 153.175781 134.5 C 152.5625 134.476562 152.5625 134.476562 151.941406 134.457031 C 151.742188 133.859375 151.542969 133.261719 151.339844 132.648438 C 154.324219 132.449219 157.308594 132.25 160.382812 132.042969 C 160.78125 131.050781 161.179688 130.054688 161.589844 129.03125 C 161.984375 128.832031 162.382812 128.632812 162.792969 128.425781 Z M 162.792969 128.425781 "/>
<path style=" stroke:none;fill-rule:nonzero;fill:rgb(32.941177%,83.137256%,80.392158%);fill-opacity:1;" d="M 228.023438 116.894531 C 229.164062 116.933594 229.164062 116.933594 230.324219 116.96875 C 230.324219 117.167969 230.324219 117.367188 230.324219 117.574219 C 228.929688 117.773438 227.539062 117.972656 226.101562 118.175781 C 225.902344 118.773438 225.703125 119.371094 225.5 119.984375 C 227.6875 120.183594 229.878906 120.382812 232.132812 120.589844 C 231.933594 119.992188 231.734375 119.394531 231.53125 118.78125 C 231.925781 118.78125 232.324219 118.78125 232.734375 118.78125 C 232.734375 119.773438 232.734375 120.769531 232.734375 121.792969 C 231.46875 121.960938 230.199219 122.109375 228.929688 122.246094 C 227.871094 122.371094 227.871094 122.371094 226.789062 122.5 C 224.898438 122.398438 224.898438 122.398438 223.703125 121.3125 C 223.089844 119.984375 223.089844 119.984375 223.691406 118.175781 C 225.554688 116.933594 225.925781 116.828125 228.023438 116.894531 Z M 228.023438 116.894531 "/>
<path style=" stroke:none;fill-rule:nonzero;fill:rgb(30.588236%,81.568629%,78.823531%);fill-opacity:1;" d="M 76.007812 109.132812 C 76.394531 109.332031 76.777344 109.53125 77.175781 109.734375 C 77.175781 109.933594 77.175781 110.132812 77.175781 110.339844 C 76.5 110.359375 75.824219 110.382812 75.128906 110.40625 C 74.242188 110.445312 73.355469 110.484375 72.464844 110.527344 C 72.019531 110.539062 71.574219 110.554688 71.117188 110.566406 C 68.589844 110.640625 68.589844 110.640625 66.457031 111.84375 C 66.214844 112.144531 65.96875 112.441406 65.71875 112.75 C 63.496094 113.164062 63.496094 113.164062 61.5 113.351562 C 65.328125 108.886719 70.410156 107.304688 76.007812 109.132812 Z M 76.007812 109.132812 "/>
<path style=" stroke:none;fill-rule:nonzero;fill:rgb(5.490196%,18.039216%,21.568628%);fill-opacity:1;" d="M 171.234375 113.351562 C 171.632812 113.351562 172.03125 113.351562 172.441406 113.351562 C 172.472656 115.90625 172.492188 118.460938 172.507812 121.015625 C 172.511719 121.882812 172.523438 122.753906 172.53125 123.621094 C 172.546875 124.871094 172.554688 126.117188 172.558594 127.367188 C 172.566406 128.117188 172.570312 128.871094 172.578125 129.644531 C 172.441406 131.441406 172.441406 131.441406 171.234375 132.648438 C 171.132812 130.191406 171.039062 127.734375 170.945312 125.277344 C 170.914062 124.441406 170.878906 123.605469 170.84375 122.769531 C 170.796875 121.566406 170.75 120.363281 170.707031 119.164062 C 170.675781 118.441406 170.648438 117.71875 170.621094 116.972656 C 170.632812 115.160156 170.632812 115.160156 171.234375 113.351562 Z M 171.234375 113.351562 "/>
<path style=" stroke:none;fill-rule:nonzero;fill:rgb(49.803922%,86.666667%,84.313726%);fill-opacity:1;" d="M 288.207031 117.574219 C 288.40625 117.574219 288.605469 117.574219 288.808594 117.574219 C 289.007812 121.15625 289.207031 124.738281 289.410156 128.425781 C 290.40625 128.425781 291.402344 128.425781 292.425781 128.425781 C 292.625 130.21875 292.824219 132.007812 293.03125 133.851562 C 291.089844 134.820312 289.148438 134.492188 287 134.457031 C 287 134.058594 287 133.660156 287 133.25 C 288.589844 133.25 290.183594 133.25 291.824219 133.25 C 291.824219 132.054688 291.824219 130.863281 291.824219 129.632812 C 290.628906 129.632812 289.4375 129.632812 288.207031 129.632812 C 287.484375 127.132812 287.667969 124.8125 287.867188 122.246094 C 287.898438 121.796875 287.929688 121.347656 287.960938 120.886719 C 288.039062 119.78125 288.121094 118.675781 288.207031 117.574219 Z M 288.207031 117.574219 "/>
<path style=" stroke:none;fill-rule:nonzero;fill:rgb(7.843138%,75.294119%,70.588237%);fill-opacity:1;" d="M 296.042969 108.53125 C 297.835938 108.53125 299.625 108.53125 301.46875 108.53125 C 301.46875 110.121094 301.46875 111.714844 301.46875 113.351562 C 302.664062 113.351562 303.859375 113.351562 305.089844 113.351562 C 305.089844 113.550781 305.089844 113.75 305.089844 113.957031 C 303.097656 114.15625 301.109375 114.355469 299.058594 114.558594 C 299.257812 113.960938 299.457031 113.363281 299.660156 112.75 C 299.054688 111.164062 298.789062 110.503906 297.25 109.734375 C 297.25 110.929688 297.25 112.121094 297.25 113.351562 C 296.851562 113.351562 296.453125 113.351562 296.042969 113.351562 C 296.042969 111.761719 296.042969 110.167969 296.042969 108.53125 Z M 296.042969 108.53125 "/>
<path style=" stroke:none;fill-rule:nonzero;fill:rgb(5.098039%,22.352941%,26.274511%);fill-opacity:1;" d="M 143.5 124.808594 C 143.214844 127.382812 141.742188 128.550781 139.882812 130.234375 C 139.089844 130.855469 138.292969 131.464844 137.46875 132.042969 C 137.074219 131.84375 136.675781 131.644531 136.265625 131.441406 C 137.0625 130.445312 137.855469 129.453125 138.675781 128.425781 C 138.277344 128.027344 137.878906 127.628906 137.46875 127.21875 C 137.46875 126.625 137.46875 126.027344 137.46875 125.410156 C 139.542969 125.035156 141.382812 124.808594 143.5 124.808594 Z M 143.5 124.808594 "/>
<path style=" stroke:none;fill-rule:nonzero;fill:rgb(18.82353%,33.725491%,37.254903%);fill-opacity:1;" d="M 134.945312 105.476562 C 135.535156 105.59375 136.121094 105.710938 136.730469 105.832031 C 137.394531 105.972656 137.394531 105.972656 138.074219 106.117188 C 137.09375 107.148438 136.089844 108.152344 135.058594 109.132812 C 134.660156 109.132812 134.261719 109.132812 133.851562 109.132812 C 133.652344 109.730469 133.453125 110.328125 133.25 110.941406 C 132.453125 110.742188 131.660156 110.542969 130.839844 110.339844 C 131.234375 110.140625 131.632812 109.941406 132.042969 109.734375 C 131.84375 109.136719 131.644531 108.542969 131.441406 107.925781 C 131.042969 107.726562 130.644531 107.527344 130.234375 107.324219 C 130.632812 107.125 131.03125 106.925781 131.441406 106.71875 C 130.445312 106.523438 129.453125 106.324219 128.425781 106.117188 C 128.425781 105.917969 128.425781 105.71875 128.425781 105.515625 C 130.804688 104.894531 132.546875 104.984375 134.945312 105.476562 Z M 134.945312 105.476562 "/>
<path style=" stroke:none;fill-rule:nonzero;fill:rgb(29.019609%,84.705883%,78.823531%);fill-opacity:1;" d="M 68.734375 99.484375 C 72.746094 99.335938 76.3125 99.640625 80.191406 100.691406 C 80.191406 101.089844 80.191406 101.488281 80.191406 101.898438 C 80.652344 101.972656 81.113281 102.046875 81.585938 102.125 C 83.207031 102.5 83.207031 102.5 85.015625 103.707031 C 84.816406 104.304688 84.617188 104.898438 84.410156 105.515625 C 84.121094 105.3125 83.828125 105.109375 83.527344 104.898438 C 78.769531 101.734375 74.359375 101.128906 68.734375 100.691406 C 68.734375 100.292969 68.734375 99.894531 68.734375 99.484375 Z M 68.734375 99.484375 "/>
<path style=" stroke:none;fill-rule:nonzero;fill:rgb(16.862746%,72.941178%,70.588237%);fill-opacity:1;" d="M 288.808594 113.351562 C 290.996094 113.351562 293.1875 113.351562 295.441406 113.351562 C 294.84375 113.652344 294.84375 113.652344 294.234375 113.957031 C 294.234375 114.75 294.234375 115.546875 294.234375 116.367188 C 295.230469 116.566406 296.226562 116.765625 297.25 116.96875 C 297.25 120.75 297.25 124.53125 297.25 128.425781 C 296.851562 128.425781 296.453125 128.425781 296.042969 128.425781 C 295.84375 125.042969 295.644531 121.660156 295.441406 118.175781 C 294.84375 117.976562 294.246094 117.777344 293.632812 117.574219 C 293.433594 116.578125 293.234375 115.582031 293.03125 114.558594 C 291.636719 114.359375 290.242188 114.160156 288.808594 113.957031 C 288.808594 113.757812 288.808594 113.558594 288.808594 113.351562 Z M 288.808594 113.351562 "/>
<path style=" stroke:none;fill-rule:nonzero;fill:rgb(23.529412%,35.686275%,38.431373%);fill-opacity:1;" d="M 152.808594 112.902344 C 153.117188 113.050781 153.429688 113.199219 153.75 113.351562 C 153.300781 113.589844 152.855469 113.824219 152.394531 114.070312 C 150.589844 115.257812 149.527344 116.390625 148.324219 118.175781 C 148.324219 118.773438 148.324219 119.371094 148.324219 119.984375 C 147.949219 120.058594 147.578125 120.132812 147.191406 120.210938 C 145.796875 120.511719 145.796875 120.511719 144.707031 121.792969 C 145.011719 119.148438 145.453125 117.269531 147.117188 115.160156 C 148.886719 113.808594 150.503906 112.664062 152.808594 112.902344 Z M 152.808594 112.902344 "/>
<path style=" stroke:none;fill-rule:nonzero;fill:rgb(19.607843%,76.078433%,71.764708%);fill-opacity:1;" d="M 340.660156 112.75 C 340.660156 114.539062 340.660156 116.332031 340.660156 118.175781 C 338.671875 118.175781 336.683594 118.175781 334.632812 118.175781 C 337.042969 116.367188 337.042969 116.367188 338.851562 116.367188 C 338.652344 115.570312 338.453125 114.777344 338.25 113.957031 C 337.253906 114.355469 336.261719 114.75 335.234375 115.160156 C 335.6875 113.992188 335.6875 113.992188 336.441406 112.75 C 338.222656 112.003906 338.777344 112.121094 340.660156 112.75 Z M 340.660156 112.75 "/>
<path style=" stroke:none;fill-rule:nonzero;fill:rgb(12.941177%,76.078433%,72.941178%);fill-opacity:1;" d="M 263.484375 116.96875 C 264.28125 117.367188 265.078125 117.765625 265.898438 118.175781 C 265.699219 122.953125 265.5 127.726562 265.292969 132.648438 C 266.488281 132.648438 267.683594 132.648438 268.910156 132.648438 C 268.910156 130.65625 268.910156 128.667969 268.910156 126.617188 C 269.109375 126.617188 269.308594 126.617188 269.515625 126.617188 C 269.515625 128.804688 269.515625 130.996094 269.515625 133.25 C 267.921875 133.25 266.332031 133.25 264.691406 133.25 C 264.691406 128.871094 264.691406 124.496094 264.691406 119.984375 C 264.292969 119.984375 263.894531 119.984375 263.484375 119.984375 C 263.144531 118.816406 263.144531 118.816406 262.882812 117.574219 C 263.082031 117.375 263.28125 117.175781 263.484375 116.96875 Z M 263.484375 116.96875 "/>
<path style=" stroke:none;fill-rule:nonzero;fill:rgb(27.450982%,39.215687%,41.568628%);fill-opacity:1;" d="M 120.589844 125.410156 C 121.792969 126.617188 121.792969 126.617188 122.058594 127.859375 C 122.226562 128.441406 122.226562 128.441406 122.398438 129.03125 C 122.992188 129.226562 123.589844 129.425781 124.207031 129.632812 C 124.207031 129.234375 124.207031 128.835938 124.207031 128.425781 C 124.804688 128.226562 125.398438 128.027344 126.015625 127.824219 C 126.457031 126.609375 126.457031 126.609375 126.617188 125.410156 C 127.914062 126.53125 127.914062 126.53125 129.207031 127.648438 C 130.402344 128.601562 130.402344 128.601562 132.648438 129.632812 C 130.058594 129.433594 127.472656 129.234375 124.808594 129.03125 C 124.609375 130.023438 124.410156 131.019531 124.207031 132.042969 C 123.808594 132.042969 123.410156 132.042969 123 132.042969 C 121.300781 130.34375 120.621094 129.460938 120.4375 127.03125 C 120.488281 126.496094 120.535156 125.960938 120.589844 125.410156 Z M 120.589844 125.410156 "/>
<path style=" stroke:none;fill-rule:nonzero;fill:rgb(31.37255%,80.392158%,77.64706%);fill-opacity:1;" d="M 321.96875 113.351562 C 323.390625 114.625 324.515625 116 325.589844 117.574219 C 325.191406 118.371094 324.792969 119.164062 324.382812 119.984375 C 324.183594 118.792969 323.984375 117.597656 323.78125 116.367188 C 322.585938 115.96875 321.390625 115.570312 320.160156 115.160156 C 320.160156 114.765625 320.160156 114.367188 320.160156 113.957031 C 319.121094 113.9375 318.078125 113.929688 317.035156 113.917969 C 316.453125 113.910156 315.871094 113.902344 315.273438 113.898438 C 313.617188 113.953125 312.128906 114.183594 310.515625 114.558594 C 311.117188 113.351562 311.117188 113.351562 312.171875 112.929688 C 315.625 112.089844 318.679688 111.804688 321.96875 113.351562 Z M 321.96875 113.351562 "/>
<path style=" stroke:none;fill-rule:nonzero;fill:rgb(28.627452%,78.823531%,75.686276%);fill-opacity:1;" d="M 309.910156 114.558594 C 309.910156 116.367188 309.910156 116.367188 309.308594 117.386719 C 308.542969 119.152344 308.652344 120.566406 308.703125 122.46875 C 308.707031 123.738281 308.429688 124.792969 308.101562 126.015625 C 308.078125 127.21875 308.074219 128.425781 308.101562 129.632812 C 306.226562 126.816406 306.070312 124.574219 306.292969 121.191406 C 307.015625 118.484375 307.8125 116.464844 309.910156 114.558594 Z M 309.910156 114.558594 "/>
<path style=" stroke:none;fill-rule:nonzero;fill:rgb(30.588236%,85.09804%,78.823531%);fill-opacity:1;" d="M 88.03125 87.425781 C 91.929688 89.515625 95.789062 91.617188 99.484375 94.058594 C 99.484375 94.257812 99.484375 94.457031 99.484375 94.660156 C 97.695312 94.460938 95.902344 94.265625 94.058594 94.058594 C 94.058594 93.261719 94.058594 92.46875 94.058594 91.648438 C 92.269531 91.347656 92.269531 91.347656 90.441406 91.042969 C 90.441406 90.644531 90.441406 90.25 90.441406 89.839844 C 89.84375 89.839844 89.246094 89.839844 88.632812 89.839844 C 88.433594 89.042969 88.234375 88.246094 88.03125 87.425781 Z M 88.03125 87.425781 "/>
<path style=" stroke:none;fill-rule:nonzero;fill:rgb(36.862746%,83.92157%,81.176472%);fill-opacity:1;" d="M 314.734375 116.96875 C 314.132812 118.175781 313.53125 119.382812 312.925781 120.589844 C 314.007812 120.503906 315.085938 120.414062 316.167969 120.324219 C 316.769531 120.277344 317.371094 120.226562 317.988281 120.175781 C 319.546875 120.074219 319.546875 120.074219 320.765625 119.382812 C 320.765625 120.179688 320.765625 120.972656 320.765625 121.792969 C 317.78125 121.792969 314.796875 121.792969 311.71875 121.792969 C 311.71875 120.601562 311.71875 119.40625 311.71875 118.175781 C 313.53125 116.96875 313.53125 116.96875 314.734375 116.96875 Z M 314.734375 116.96875 "/>
<path style=" stroke:none;fill-rule:nonzero;fill:rgb(13.333334%,82.745099%,76.47059%);fill-opacity:1;" d="M 57.882812 85.015625 C 57.882812 85.414062 57.882812 85.8125 57.882812 86.21875 C 57.484375 86.21875 57.085938 86.21875 56.675781 86.21875 C 56.675781 86.816406 56.675781 87.414062 56.675781 88.03125 C 57.074219 88.226562 57.472656 88.425781 57.882812 88.632812 C 57.484375 89.429688 57.085938 90.222656 56.675781 91.042969 C 55.085938 90.25 53.492188 89.453125 51.851562 88.632812 C 52.570312 87.195312 53.144531 86.921875 54.527344 86.144531 C 54.902344 85.933594 55.273438 85.71875 55.65625 85.5 C 56.675781 85.015625 56.675781 85.015625 57.882812 85.015625 Z M 53.058594 89.839844 C 53.457031 89.839844 53.855469 89.839844 54.265625 89.839844 C 54.066406 90.234375 53.867188 90.632812 53.660156 91.042969 C 53.460938 90.644531 53.265625 90.25 53.058594 89.839844 Z M 53.058594 89.839844 "/>
<path style=" stroke:none;fill-rule:nonzero;fill:rgb(32.549021%,73.725492%,77.64706%);fill-opacity:1;" d="M 32.558594 133.25 C 33.539062 135.113281 34.292969 137 35.007812 138.976562 C 35.214844 139.542969 35.421875 140.109375 35.632812 140.691406 C 36.085938 142.027344 36.464844 143.335938 36.78125 144.707031 C 37.175781 144.707031 37.574219 144.707031 37.984375 144.707031 C 37.785156 145.105469 37.585938 145.5 37.382812 145.910156 C 34.601562 143.433594 32.730469 141.03125 32.449219 137.199219 C 32.445312 135.878906 32.476562 134.570312 32.558594 133.25 Z M 32.558594 133.25 "/>
<path style=" stroke:none;fill-rule:nonzero;fill:rgb(29.019609%,41.568628%,44.705883%);fill-opacity:1;" d="M 144.101562 122.398438 C 144.300781 123.191406 144.5 123.988281 144.707031 124.808594 C 143.183594 125.570312 142.105469 125.472656 140.410156 125.449219 C 139.859375 125.445312 139.3125 125.4375 138.746094 125.433594 C 138.324219 125.425781 137.90625 125.417969 137.46875 125.410156 C 137.46875 126.007812 137.46875 126.605469 137.46875 127.21875 C 138.066406 127.417969 138.664062 127.617188 139.28125 127.824219 C 139.082031 128.621094 138.882812 129.414062 138.675781 130.234375 C 138.277344 130.234375 137.878906 130.234375 137.46875 130.234375 C 137.46875 129.835938 137.46875 129.4375 137.46875 129.03125 C 136.675781 129.226562 135.878906 129.425781 135.058594 129.632812 C 135.785156 127.761719 136.570312 126.007812 137.46875 124.207031 C 139.660156 124.207031 141.847656 124.207031 144.101562 124.207031 C 144.101562 123.609375 144.101562 123.011719 144.101562 122.398438 Z M 144.101562 122.398438 "/>
<path style=" stroke:none;fill-rule:nonzero;fill:rgb(8.627451%,25.882354%,30.19608%);fill-opacity:1;" d="M 163.398438 117.574219 C 164.601562 118.78125 164.601562 118.78125 164.601562 120.589844 C 163.609375 120.984375 162.613281 121.382812 161.589844 121.792969 C 161.589844 121.195312 161.589844 120.601562 161.589844 119.984375 C 161.984375 119.984375 162.382812 119.984375 162.792969 119.984375 C 162.992188 119.1875 163.191406 118.394531 163.398438 117.574219 Z M 159.78125 121.792969 C 160.375 121.792969 160.972656 121.792969 161.589844 121.792969 C 161.589844 122.191406 161.589844 122.589844 161.589844 123 C 162.183594 123 162.78125 123 163.398438 123 C 163.199219 123.996094 163 124.988281 162.792969 126.015625 C 162 126.214844 161.203125 126.414062 160.382812 126.617188 C 160.394531 126.046875 160.40625 125.472656 160.421875 124.882812 C 160.519531 123.054688 160.519531 123.054688 159.78125 121.792969 Z M 159.78125 121.792969 "/>
<path style=" stroke:none;fill-rule:nonzero;fill:rgb(3.529412%,22.352941%,26.274511%);fill-opacity:1;" d="M 191.734375 114.558594 C 190.542969 115.15625 190.542969 115.15625 189.324219 115.765625 C 189.324219 116.5625 189.324219 117.355469 189.324219 118.175781 C 188.726562 118.476562 188.726562 118.476562 188.117188 118.78125 C 187.761719 118.332031 187.761719 118.332031 187.402344 117.875 C 185.976562 116.695312 185.09375 116.824219 183.292969 116.96875 C 183.492188 116.375 183.691406 115.777344 183.898438 115.160156 C 184.863281 114.941406 185.832031 114.730469 186.796875 114.519531 C 187.335938 114.402344 187.875 114.285156 188.429688 114.160156 C 189.925781 113.957031 189.925781 113.957031 191.734375 114.558594 Z M 191.734375 114.558594 "/>
<path style=" stroke:none;fill-rule:nonzero;fill:rgb(6.27451%,67.058825%,75.294119%);fill-opacity:1;" d="M 34.367188 137.46875 C 35.5 137.621094 35.5 137.621094 36.78125 138.074219 C 37.648438 139.445312 38.074219 140.746094 38.589844 142.292969 C 38.191406 142.292969 37.792969 142.292969 37.382812 142.292969 C 37.828125 142.855469 37.828125 142.855469 38.285156 143.425781 C 39.191406 144.707031 39.191406 144.707031 39.191406 145.910156 C 38.792969 145.910156 38.394531 145.910156 37.984375 145.910156 C 37.984375 145.515625 37.984375 145.117188 37.984375 144.707031 C 37.585938 144.707031 37.1875 144.707031 36.78125 144.707031 C 36.371094 143.957031 35.972656 143.199219 35.574219 142.445312 C 35.351562 142.023438 35.125 141.605469 34.894531 141.171875 C 34.367188 139.882812 34.367188 139.882812 34.367188 137.46875 Z M 34.367188 137.46875 "/>
<path style=" stroke:none;fill-rule:nonzero;fill:rgb(36.862746%,81.176472%,80.000001%);fill-opacity:1;" d="M 79.589844 132.042969 C 75.9375 133.976562 72.886719 135.019531 68.734375 134.457031 C 66.890625 133.851562 66.890625 133.851562 65.71875 133.25 C 67.691406 132.628906 69.253906 132.667969 71.296875 132.910156 C 71.835938 132.972656 72.375 133.035156 72.925781 133.097656 C 73.335938 133.148438 73.742188 133.199219 74.160156 133.25 C 74.160156 132.851562 74.160156 132.453125 74.160156 132.042969 C 76.234375 131.527344 77.546875 131.457031 79.589844 132.042969 Z M 79.589844 132.042969 "/>
<path style=" stroke:none;fill-rule:nonzero;fill:rgb(26.274511%,37.64706%,40.784314%);fill-opacity:1;" d="M 154.957031 116.96875 C 156.652344 117.082031 156.652344 117.082031 158.574219 117.574219 C 160.070312 119.429688 160.808594 121.226562 160.984375 123.601562 C 160.421875 125.296875 160.421875 125.296875 159.78125 126.617188 C 159.382812 126.617188 158.984375 126.617188 158.574219 126.617188 C 158.375 124.03125 158.175781 121.445312 157.96875 118.78125 C 156.476562 118.183594 156.476562 118.183594 154.957031 117.574219 C 154.957031 117.375 154.957031 117.175781 154.957031 116.96875 Z M 154.957031 116.96875 "/>
<path style=" stroke:none;fill-rule:nonzero;fill:rgb(5.098039%,21.960784%,25.882354%);fill-opacity:1;" d="M 126.015625 106.71875 C 126.414062 106.71875 126.8125 106.71875 127.21875 106.71875 C 127.21875 107.117188 127.21875 107.515625 127.21875 107.925781 C 127.617188 108.125 128.015625 108.324219 128.425781 108.53125 C 128.425781 108.726562 128.425781 108.925781 128.425781 109.132812 C 129.820312 109.332031 131.210938 109.53125 132.648438 109.734375 C 130.839844 110.941406 130.457031 111.105469 128.425781 111.09375 C 128.015625 111.09375 127.605469 111.097656 127.183594 111.101562 C 126.015625 110.941406 126.015625 110.941406 124.207031 109.734375 C 125.335938 107.398438 125.335938 107.398438 126.015625 106.71875 Z M 126.015625 106.71875 "/>
<path style=" stroke:none;fill-rule:nonzero;fill:rgb(5.098039%,21.568628%,25.490198%);fill-opacity:1;" d="M 155.371094 112.976562 C 155.832031 113.101562 156.289062 113.226562 156.765625 113.351562 C 156.566406 113.949219 156.367188 114.546875 156.160156 115.160156 C 154.769531 114.765625 153.375 114.367188 151.941406 113.957031 C 153.75 112.75 153.75 112.75 155.371094 112.976562 Z M 152.542969 114.558594 C 152.742188 114.957031 152.941406 115.355469 153.148438 115.765625 C 153.496094 115.640625 153.84375 115.515625 154.203125 115.386719 C 155.871094 115.109375 156.550781 115.503906 157.96875 116.367188 C 157.773438 116.765625 157.574219 117.164062 157.367188 117.574219 C 155.378906 117.574219 153.386719 117.574219 151.339844 117.574219 C 151.339844 116.777344 151.339844 115.980469 151.339844 115.160156 C 151.734375 114.960938 152.132812 114.765625 152.542969 114.558594 Z M 152.542969 114.558594 "/>
<path style=" stroke:none;fill-rule:nonzero;fill:rgb(7.843138%,70.980394%,73.333335%);fill-opacity:1;" d="M 60.898438 141.691406 C 61.226562 141.734375 61.558594 141.777344 61.898438 141.824219 C 66.601562 142.375 71.242188 142.351562 75.96875 142.292969 C 75.96875 142.492188 75.96875 142.691406 75.96875 142.898438 C 73.710938 143.101562 71.449219 143.300781 69.1875 143.5 C 68.546875 143.558594 67.90625 143.613281 67.246094 143.675781 C 66.625 143.730469 66.007812 143.78125 65.371094 143.839844 C 64.519531 143.914062 64.519531 143.914062 63.648438 143.992188 C 62.332031 144.085938 61.011719 144.101562 59.691406 144.101562 C 59.691406 143.703125 59.691406 143.308594 59.691406 142.898438 C 60.089844 142.898438 60.488281 142.898438 60.898438 142.898438 C 60.898438 142.5 60.898438 142.101562 60.898438 141.691406 Z M 60.898438 141.691406 "/>
<path style=" stroke:none;fill-rule:nonzero;fill:rgb(4.313726%,17.254902%,22.352941%);fill-opacity:1;" d="M 192.941406 121.191406 C 193.339844 121.191406 193.738281 121.191406 194.148438 121.191406 C 194.347656 124.574219 194.546875 127.957031 194.75 131.441406 C 194.152344 131.640625 193.554688 131.839844 192.941406 132.042969 C 192.941406 128.460938 192.941406 124.882812 192.941406 121.191406 Z M 192.941406 121.191406 "/>
<path style=" stroke:none;fill-rule:nonzero;fill:rgb(9.411765%,26.274511%,31.37255%);fill-opacity:1;" d="M 148.324219 123.601562 C 148.722656 124.996094 149.121094 126.386719 149.53125 127.824219 C 148.933594 127.625 148.335938 127.425781 147.71875 127.21875 C 147.523438 127.617188 147.324219 128.015625 147.117188 128.425781 C 146.320312 128.226562 145.527344 128.027344 144.707031 127.824219 C 144.59375 126.390625 144.59375 126.390625 144.707031 124.808594 C 146.515625 123.601562 146.515625 123.601562 148.324219 123.601562 Z M 148.324219 123.601562 "/>
<path style=" stroke:none;fill-rule:nonzero;fill:rgb(14.901961%,78.039217%,74.901962%);fill-opacity:1;" d="M 265.898438 113.351562 C 268.234375 114.484375 268.234375 114.484375 268.910156 115.160156 C 269.003906 115.96875 269.0625 116.78125 269.101562 117.59375 C 269.128906 118.082031 269.152344 118.570312 269.179688 119.074219 C 269.203125 119.585938 269.226562 120.097656 269.25 120.625 C 269.277344 121.140625 269.304688 121.65625 269.328125 122.1875 C 269.394531 123.460938 269.453125 124.738281 269.515625 126.015625 C 269.117188 125.816406 268.71875 125.617188 268.308594 125.410156 C 267.589844 122.210938 267.804688 119.558594 268.308594 116.367188 C 267.511719 116.167969 266.71875 115.96875 265.898438 115.765625 C 265.898438 114.96875 265.898438 114.171875 265.898438 113.351562 Z M 265.898438 113.351562 "/>
<path style=" stroke:none;fill-rule:nonzero;fill:rgb(21.176471%,35.294119%,38.431373%);fill-opacity:1;" d="M 124.207031 109.734375 C 126.195312 110.132812 128.183594 110.53125 130.234375 110.941406 C 128.628906 112.550781 127.019531 114.15625 125.410156 115.765625 C 124.617188 113.582031 124.207031 112.089844 124.207031 109.734375 Z M 124.207031 109.734375 "/>
<path style=" stroke:none;fill-rule:nonzero;fill:rgb(14.509805%,78.431374%,75.294119%);fill-opacity:1;" d="M 273.132812 112.148438 C 274.722656 112.347656 276.316406 112.546875 277.957031 112.75 C 277.757812 116.929688 277.558594 121.105469 277.351562 125.410156 C 277.152344 125.410156 276.953125 125.410156 276.75 125.410156 C 276.75 121.632812 276.75 117.851562 276.75 113.957031 C 275.554688 114.355469 274.363281 114.75 273.132812 115.160156 C 273.132812 114.167969 273.132812 113.171875 273.132812 112.148438 Z M 273.132812 112.148438 "/>
<path style=" stroke:none;fill-rule:nonzero;fill:rgb(2.352941%,79.215688%,74.901962%);fill-opacity:1;" d="M 234.542969 118.175781 C 234.742188 118.574219 234.941406 118.972656 235.148438 119.382812 C 235.742188 119.382812 236.339844 119.382812 236.957031 119.382812 C 236.957031 120.773438 236.957031 122.167969 236.957031 123.601562 C 235.761719 123.601562 234.566406 123.601562 233.339844 123.601562 C 233.140625 123.007812 232.941406 122.410156 232.734375 121.792969 C 233.332031 121.59375 233.929688 121.394531 234.542969 121.191406 C 234.542969 120.195312 234.542969 119.203125 234.542969 118.175781 Z M 234.542969 118.175781 "/>
<path style=" stroke:none;fill-rule:nonzero;fill:rgb(18.431373%,85.882354%,78.823531%);fill-opacity:1;" d="M 100.089844 94.660156 C 100.757812 95.023438 101.429688 95.382812 102.125 95.753906 C 102.5 95.957031 102.878906 96.160156 103.269531 96.371094 C 104.308594 97.074219 104.308594 97.074219 105.515625 98.882812 C 104.761719 99.824219 104.761719 99.824219 103.707031 100.691406 C 102.386719 100.503906 102.386719 100.503906 101.292969 100.089844 C 101.207031 99.527344 101.121094 98.96875 101.03125 98.390625 C 100.738281 96.464844 100.738281 96.464844 100.089844 94.660156 Z M 100.089844 94.660156 "/>
<path style=" stroke:none;fill-rule:nonzero;fill:rgb(34.509805%,82.745099%,80.392158%);fill-opacity:1;" d="M 232.734375 126.617188 C 234.527344 126.617188 236.316406 126.617188 238.160156 126.617188 C 238.359375 127.214844 238.558594 127.8125 238.765625 128.425781 C 237.632812 130.347656 237.632812 130.347656 236.351562 132.042969 C 236.152344 132.042969 235.953125 132.042969 235.75 132.042969 C 235.75 131.050781 235.75 130.054688 235.75 129.03125 C 236.148438 129.03125 236.546875 129.03125 236.957031 129.03125 C 236.957031 128.632812 236.957031 128.234375 236.957031 127.824219 C 235.363281 127.824219 233.773438 127.824219 232.132812 127.824219 C 232.332031 127.425781 232.53125 127.027344 232.734375 126.617188 Z M 232.734375 126.617188 "/>
</g>
</svg>
