<svg width="406" height="168" viewBox="0 0 406 168" fill="none" xmlns="http://www.w3.org/2000/svg">
<rect x="0.5" y="0.5" width="405" height="167" rx="7.5" fill="white"/>
<rect x="0.5" y="0.5" width="405" height="167" rx="7.5" stroke="#E5E7EB"/>
<rect x="12" y="12" width="382" height="20" rx="4" fill="url(#paint0_linear_12627_165)"/>
<rect x="18" y="18" width="16" height="8" rx="4" fill="white"/>
<path d="M42.5774 20.8189C42.549 20.5324 42.4271 20.3099 42.2116 20.1513C41.9962 19.9927 41.7038 19.9134 41.3345 19.9134C41.0836 19.9134 40.8717 19.9489 40.6989 20.0199C40.526 20.0885 40.3935 20.1844 40.3011 20.3075C40.2112 20.4306 40.1662 20.5703 40.1662 20.7266C40.1615 20.8568 40.1887 20.9704 40.2479 21.0675C40.3094 21.1645 40.3935 21.2486 40.5 21.3196C40.6065 21.3883 40.7296 21.4486 40.8693 21.5007C41.009 21.5504 41.1581 21.593 41.3168 21.6286L41.9702 21.7848C42.2874 21.8558 42.5786 21.9505 42.8438 22.0689C43.1089 22.1873 43.3385 22.3329 43.5327 22.5057C43.7268 22.6785 43.8771 22.8821 43.9837 23.1165C44.0926 23.3509 44.1482 23.6196 44.1506 23.9226C44.1482 24.3677 44.0346 24.7536 43.8097 25.0803C43.5871 25.4046 43.2652 25.6567 42.8438 25.8366C42.4247 26.0142 41.9193 26.103 41.3274 26.103C40.7403 26.103 40.2289 26.013 39.7933 25.8331C39.3601 25.6532 39.0215 25.3868 38.7777 25.0341C38.5362 24.679 38.4096 24.2398 38.3977 23.7166H39.8857C39.9022 23.9605 39.9721 24.1641 40.0952 24.3274C40.2206 24.4884 40.3875 24.6103 40.5959 24.6932C40.8066 24.7737 41.0445 24.8139 41.3097 24.8139C41.5701 24.8139 41.7962 24.776 41.9879 24.7003C42.1821 24.6245 42.3324 24.5192 42.4389 24.3842C42.5455 24.2493 42.5987 24.0942 42.5987 23.919C42.5987 23.7557 42.5502 23.6184 42.4531 23.5071C42.3584 23.3958 42.2188 23.3011 42.0341 23.223C41.8518 23.1449 41.6281 23.0739 41.3629 23.0099L40.571 22.8111C39.9579 22.6619 39.4737 22.4287 39.1186 22.1115C38.7635 21.7943 38.5871 21.367 38.5895 20.8295C38.5871 20.3892 38.7043 20.0045 38.9411 19.6754C39.1802 19.3464 39.508 19.0895 39.9247 18.9048C40.3414 18.7202 40.8149 18.6278 41.3452 18.6278C41.8849 18.6278 42.3561 18.7202 42.7585 18.9048C43.1634 19.0895 43.4782 19.3464 43.7031 19.6754C43.928 20.0045 44.044 20.3857 44.0511 20.8189H42.5774ZM51.8681 22.3636C51.8681 23.1567 51.7177 23.8314 51.4171 24.3878C51.1188 24.9441 50.7116 25.3691 50.1955 25.6626C49.6818 25.9538 49.1041 26.0994 48.4625 26.0994C47.8162 26.0994 47.2362 25.9527 46.7225 25.6591C46.2087 25.3655 45.8027 24.9406 45.5044 24.3842C45.2061 23.8279 45.057 23.1544 45.057 22.3636C45.057 21.5705 45.2061 20.8958 45.5044 20.3395C45.8027 19.7831 46.2087 19.3594 46.7225 19.0682C47.2362 18.7746 47.8162 18.6278 48.4625 18.6278C49.1041 18.6278 49.6818 18.7746 50.1955 19.0682C50.7116 19.3594 51.1188 19.7831 51.4171 20.3395C51.7177 20.8958 51.8681 21.5705 51.8681 22.3636ZM50.3091 22.3636C50.3091 21.8499 50.2322 21.4167 50.0783 21.0639C49.9268 20.7112 49.7125 20.4437 49.4355 20.2614C49.1586 20.0791 48.8342 19.9879 48.4625 19.9879C48.0908 19.9879 47.7665 20.0791 47.4895 20.2614C47.2125 20.4437 46.9971 20.7112 46.8432 21.0639C46.6917 21.4167 46.6159 21.8499 46.6159 22.3636C46.6159 22.8774 46.6917 23.3106 46.8432 23.6634C46.9971 24.0161 47.2125 24.2836 47.4895 24.4659C47.7665 24.6482 48.0908 24.7393 48.4625 24.7393C48.8342 24.7393 49.1586 24.6482 49.4355 24.4659C49.7125 24.2836 49.9268 24.0161 50.0783 23.6634C50.2322 23.3106 50.3091 22.8774 50.3091 22.3636ZM53.0071 26V18.7273H54.5447V24.7322H57.6626V26H53.0071ZM61.2591 26H58.6809V18.7273H61.2804C62.0119 18.7273 62.6416 18.8729 63.1696 19.1641C63.6975 19.4529 64.1035 19.8684 64.3876 20.4105C64.6741 20.9527 64.8173 21.6013 64.8173 22.3565C64.8173 23.1141 64.6741 23.7652 64.3876 24.3097C64.1035 24.8542 63.6951 25.272 63.1625 25.5632C62.6322 25.8544 61.9977 26 61.2591 26ZM60.2186 24.6825H61.1951C61.6497 24.6825 62.032 24.602 62.3422 24.4411C62.6547 24.2777 62.889 24.0256 63.0453 23.6847C63.2039 23.3414 63.2832 22.8987 63.2832 22.3565C63.2832 21.8191 63.2039 21.38 63.0453 21.0391C62.889 20.6982 62.6558 20.4472 62.3457 20.2862C62.0356 20.1252 61.6532 20.0447 61.1987 20.0447H60.2186V24.6825ZM74.954 22.3636C74.954 23.1567 74.8037 23.8314 74.503 24.3878C74.2047 24.9441 73.7975 25.3691 73.2814 25.6626C72.7677 25.9538 72.19 26.0994 71.5485 26.0994C70.9022 26.0994 70.3221 25.9527 69.8084 25.6591C69.2947 25.3655 68.8887 24.9406 68.5904 24.3842C68.2921 23.8279 68.1429 23.1544 68.1429 22.3636C68.1429 21.5705 68.2921 20.8958 68.5904 20.3395C68.8887 19.7831 69.2947 19.3594 69.8084 19.0682C70.3221 18.7746 70.9022 18.6278 71.5485 18.6278C72.19 18.6278 72.7677 18.7746 73.2814 19.0682C73.7975 19.3594 74.2047 19.7831 74.503 20.3395C74.8037 20.8958 74.954 21.5705 74.954 22.3636ZM73.3951 22.3636C73.3951 21.8499 73.3181 21.4167 73.1642 21.0639C73.0127 20.7112 72.7985 20.4437 72.5215 20.2614C72.2445 20.0791 71.9202 19.9879 71.5485 19.9879C71.1768 19.9879 70.8525 20.0791 70.5755 20.2614C70.2985 20.4437 70.083 20.7112 69.9292 21.0639C69.7776 21.4167 69.7019 21.8499 69.7019 22.3636C69.7019 22.8774 69.7776 23.3106 69.9292 23.6634C70.083 24.0161 70.2985 24.2836 70.5755 24.4659C70.8525 24.6482 71.1768 24.7393 71.5485 24.7393C71.9202 24.7393 72.2445 24.6482 72.5215 24.4659C72.7985 24.2836 73.0127 24.0161 73.1642 23.6634C73.3181 23.3106 73.3951 22.8774 73.3951 22.3636ZM80.5852 18.7273H82.1229V23.4503C82.1229 23.9806 81.9962 24.4446 81.7429 24.8423C81.492 25.2401 81.1404 25.5502 80.6882 25.7727C80.236 25.9929 79.7093 26.103 79.108 26.103C78.5043 26.103 77.9763 25.9929 77.5241 25.7727C77.072 25.5502 76.7204 25.2401 76.4695 24.8423C76.2185 24.4446 76.093 23.9806 76.093 23.4503V18.7273H77.6307V23.3189C77.6307 23.5959 77.6911 23.8421 77.8118 24.0575C77.9349 24.273 78.1077 24.4422 78.3303 24.5653C78.5528 24.6884 78.812 24.75 79.108 24.75C79.4063 24.75 79.6655 24.6884 79.8857 24.5653C80.1082 24.4422 80.2798 24.273 80.4006 24.0575C80.5237 23.8421 80.5852 23.5959 80.5852 23.3189V18.7273ZM83.111 19.995V18.7273H89.084V19.995H86.8574V26H85.3375V19.995H83.111Z" fill="white"/>
<path d="M314.374 26V18.7273H319.275V19.995H315.912V21.728H319.023V22.9957H315.912V24.7322H319.289V26H314.374ZM321.939 18.7273L323.406 21.206H323.463L324.936 18.7273H326.673L324.453 22.3636L326.722 26H324.954L323.463 23.5178H323.406L321.914 26H320.153L322.429 22.3636L320.195 18.7273H321.939ZM327.646 26V18.7273H330.515C331.067 18.7273 331.537 18.8326 331.925 19.0433C332.313 19.2517 332.609 19.5417 332.813 19.9134C333.019 20.2827 333.122 20.7088 333.122 21.1918C333.122 21.6747 333.017 22.1009 332.809 22.4702C332.601 22.8395 332.299 23.1271 331.904 23.3331C331.511 23.5391 331.035 23.642 330.476 23.642H328.647V22.4098H330.227C330.523 22.4098 330.767 22.3589 330.959 22.2571C331.153 22.1529 331.298 22.0097 331.392 21.8274C331.489 21.6428 331.538 21.4309 331.538 21.1918C331.538 20.9503 331.489 20.7396 331.392 20.5597C331.298 20.3774 331.153 20.2365 330.959 20.1371C330.765 20.0353 330.519 19.9844 330.22 19.9844H329.183V26H327.646ZM335.658 18.7273V26H334.12V18.7273H335.658ZM336.923 26V18.7273H339.792C340.342 18.7273 340.81 18.8255 341.199 19.022C341.589 19.2161 341.886 19.492 342.09 19.8494C342.296 20.2045 342.399 20.6224 342.399 21.103C342.399 21.5859 342.295 22.0014 342.086 22.3494C341.878 22.6951 341.576 22.9602 341.181 23.1449C340.788 23.3295 340.312 23.4219 339.753 23.4219H337.832V22.1861H339.505C339.798 22.1861 340.042 22.1458 340.236 22.0653C340.43 21.9848 340.575 21.8641 340.67 21.7031C340.767 21.5421 340.815 21.3421 340.815 21.103C340.815 20.8615 340.767 20.6579 340.67 20.4922C340.575 20.3265 340.429 20.201 340.233 20.1158C340.039 20.0282 339.794 19.9844 339.498 19.9844H338.461V26H336.923ZM340.851 22.6903L342.658 26H340.961L339.192 22.6903H340.851ZM343.486 26V18.7273H348.386V19.995H345.023V21.728H348.134V22.9957H345.023V24.7322H348.4V26H343.486ZM353.554 20.8189C353.526 20.5324 353.404 20.3099 353.188 20.1513C352.973 19.9927 352.68 19.9134 352.311 19.9134C352.06 19.9134 351.848 19.9489 351.675 20.0199C351.503 20.0885 351.37 20.1844 351.278 20.3075C351.188 20.4306 351.143 20.5703 351.143 20.7266C351.138 20.8568 351.165 20.9704 351.224 21.0675C351.286 21.1645 351.37 21.2486 351.477 21.3196C351.583 21.3883 351.706 21.4486 351.846 21.5007C351.986 21.5504 352.135 21.593 352.293 21.6286L352.947 21.7848C353.264 21.8558 353.555 21.9505 353.82 22.0689C354.085 22.1873 354.315 22.3329 354.509 22.5057C354.703 22.6785 354.854 22.8821 354.96 23.1165C355.069 23.3509 355.125 23.6196 355.127 23.9226C355.125 24.3677 355.011 24.7536 354.786 25.0803C354.564 25.4046 354.242 25.6567 353.82 25.8366C353.401 26.0142 352.896 26.103 352.304 26.103C351.717 26.103 351.205 26.013 350.77 25.8331C350.337 25.6532 349.998 25.3868 349.754 25.0341C349.513 24.679 349.386 24.2398 349.374 23.7166H350.862C350.879 23.9605 350.949 24.1641 351.072 24.3274C351.197 24.4884 351.364 24.6103 351.572 24.6932C351.783 24.7737 352.021 24.8139 352.286 24.8139C352.547 24.8139 352.773 24.776 352.964 24.7003C353.159 24.6245 353.309 24.5192 353.415 24.3842C353.522 24.2493 353.575 24.0942 353.575 23.919C353.575 23.7557 353.527 23.6184 353.43 23.5071C353.335 23.3958 353.195 23.3011 353.011 23.223C352.828 23.1449 352.605 23.0739 352.339 23.0099L351.548 22.8111C350.934 22.6619 350.45 22.4287 350.095 22.1115C349.74 21.7943 349.564 21.367 349.566 20.8295C349.564 20.3892 349.681 20.0045 349.918 19.6754C350.157 19.3464 350.485 19.0895 350.901 18.9048C351.318 18.7202 351.791 18.6278 352.322 18.6278C352.862 18.6278 353.333 18.7202 353.735 18.9048C354.14 19.0895 354.455 19.3464 354.68 19.6754C354.905 20.0045 355.021 20.3857 355.028 20.8189H353.554ZM360.013 18.7273V26H358.476V18.7273H360.013ZM367.362 18.7273V26H366.034L362.869 21.4226H362.816V26H361.279V18.7273H362.628L365.767 23.3011H365.831V18.7273H367.362Z" fill="#969696"/>
<rect x="372" y="18" width="16" height="8" rx="4" fill="#969696"/>
<path d="M202.134 33.5C202.519 32.8333 203.481 32.8333 203.866 33.5L206.464 38C206.849 38.6667 206.368 39.5 205.598 39.5H200.402C199.632 39.5 199.151 38.6667 199.536 38L202.134 33.5Z" fill="#969696"/>
<rect x="170.5" y="37.5" width="65" height="17" rx="3.5" fill="white"/>
<rect x="170.5" y="37.5" width="65" height="17" rx="3.5" stroke="#E9E9E9"/>
<path d="M179.736 44.7812C179.709 44.5331 179.598 44.34 179.401 44.2017C179.205 44.0634 178.952 43.9943 178.639 43.9943C178.42 43.9943 178.231 44.0275 178.074 44.0938C177.917 44.16 177.796 44.25 177.713 44.3636C177.63 44.4773 177.587 44.607 177.585 44.7528C177.585 44.8741 177.613 44.9792 177.668 45.0682C177.724 45.1572 177.801 45.233 177.898 45.2955C177.994 45.3561 178.101 45.4072 178.219 45.4489C178.336 45.4905 178.455 45.5256 178.574 45.554L179.119 45.6903C179.339 45.7415 179.55 45.8106 179.753 45.8977C179.957 45.9848 180.14 46.0947 180.301 46.2273C180.464 46.3598 180.593 46.5199 180.688 46.7074C180.782 46.8949 180.83 47.1146 180.83 47.3665C180.83 47.7074 180.742 48.0076 180.568 48.267C180.394 48.5246 180.142 48.7263 179.812 48.8722C179.485 49.0161 179.088 49.0881 178.622 49.0881C178.17 49.0881 177.777 49.018 177.443 48.8778C177.112 48.7377 176.852 48.5331 176.665 48.2642C176.479 47.9953 176.379 47.6676 176.364 47.2812H177.401C177.416 47.4839 177.478 47.6525 177.588 47.7869C177.698 47.9214 177.841 48.0218 178.017 48.0881C178.195 48.1544 178.394 48.1875 178.614 48.1875C178.843 48.1875 179.044 48.1534 179.216 48.0852C179.39 48.0152 179.527 47.9186 179.625 47.7955C179.723 47.6705 179.774 47.5246 179.776 47.358C179.774 47.2064 179.729 47.0814 179.642 46.983C179.555 46.8826 179.433 46.7992 179.276 46.733C179.12 46.6648 178.938 46.6042 178.73 46.5511L178.068 46.3807C177.589 46.2576 177.21 46.071 176.932 45.821C176.655 45.5691 176.517 45.2348 176.517 44.8182C176.517 44.4754 176.61 44.1752 176.795 43.9176C176.983 43.66 177.238 43.4602 177.56 43.3182C177.882 43.1742 178.246 43.1023 178.653 43.1023C179.066 43.1023 179.428 43.1742 179.739 43.3182C180.051 43.4602 180.296 43.6581 180.474 43.9119C180.652 44.1638 180.744 44.4536 180.75 44.7812H179.736ZM185.437 43.1818H186.491V46.983C186.491 47.3996 186.392 47.7661 186.195 48.0824C186 48.3987 185.726 48.6458 185.371 48.8239C185.017 49 184.603 49.0881 184.13 49.0881C183.655 49.0881 183.24 49 182.886 48.8239C182.531 48.6458 182.257 48.3987 182.062 48.0824C181.867 47.7661 181.769 47.3996 181.769 46.983V43.1818H182.823V46.8949C182.823 47.1373 182.876 47.3532 182.982 47.5426C183.09 47.732 183.242 47.8807 183.437 47.9886C183.632 48.0947 183.863 48.1477 184.13 48.1477C184.397 48.1477 184.628 48.0947 184.823 47.9886C185.02 47.8807 185.172 47.732 185.278 47.5426C185.384 47.3532 185.437 47.1373 185.437 46.8949V43.1818ZM187.636 49V43.1818H189.818C190.265 43.1818 190.64 43.2652 190.943 43.4318C191.248 43.5985 191.478 43.8277 191.634 44.1193C191.791 44.4091 191.869 44.7386 191.869 45.108C191.869 45.4811 191.791 45.8125 191.634 46.1023C191.476 46.392 191.244 46.6203 190.938 46.7869C190.631 46.9517 190.253 47.0341 189.804 47.0341H188.358V46.1676H189.662C189.923 46.1676 190.137 46.1222 190.304 46.0312C190.471 45.9403 190.594 45.8153 190.673 45.6562C190.755 45.4972 190.795 45.3144 190.795 45.108C190.795 44.9015 190.755 44.7197 190.673 44.5625C190.594 44.4053 190.47 44.2831 190.301 44.196C190.134 44.107 189.92 44.0625 189.656 44.0625H188.69V49H187.636ZM192.785 49V43.1818H194.967C195.414 43.1818 195.789 43.2652 196.092 43.4318C196.397 43.5985 196.627 43.8277 196.782 44.1193C196.939 44.4091 197.018 44.7386 197.018 45.108C197.018 45.4811 196.939 45.8125 196.782 46.1023C196.625 46.392 196.393 46.6203 196.086 46.7869C195.779 46.9517 195.401 47.0341 194.952 47.0341H193.506V46.1676H194.81C195.072 46.1676 195.286 46.1222 195.452 46.0312C195.619 45.9403 195.742 45.8153 195.822 45.6562C195.903 45.4972 195.944 45.3144 195.944 45.108C195.944 44.9015 195.903 44.7197 195.822 44.5625C195.742 44.4053 195.618 44.2831 195.45 44.196C195.283 44.107 195.068 44.0625 194.805 44.0625H193.839V49H192.785ZM203.132 46.0909C203.132 46.7178 203.015 47.2547 202.78 47.7017C202.547 48.1468 202.229 48.4877 201.825 48.7244C201.424 48.9612 200.968 49.0795 200.459 49.0795C199.949 49.0795 199.493 48.9612 199.089 48.7244C198.688 48.4858 198.37 48.1439 198.135 47.6989C197.902 47.2519 197.786 46.7159 197.786 46.0909C197.786 45.464 197.902 44.928 198.135 44.483C198.37 44.036 198.688 43.6941 199.089 43.4574C199.493 43.2206 199.949 43.1023 200.459 43.1023C200.968 43.1023 201.424 43.2206 201.825 43.4574C202.229 43.6941 202.547 44.036 202.78 44.483C203.015 44.928 203.132 45.464 203.132 46.0909ZM202.072 46.0909C202.072 45.6496 202.003 45.2775 201.865 44.9744C201.729 44.6695 201.539 44.4394 201.297 44.2841C201.054 44.1269 200.775 44.0483 200.459 44.0483C200.143 44.0483 199.863 44.1269 199.621 44.2841C199.378 44.4394 199.188 44.6695 199.05 44.9744C198.913 45.2775 198.845 45.6496 198.845 46.0909C198.845 46.5322 198.913 46.9053 199.05 47.2102C199.188 47.5133 199.378 47.7434 199.621 47.9006C199.863 48.0559 200.143 48.1335 200.459 48.1335C200.775 48.1335 201.054 48.0559 201.297 47.9006C201.539 47.7434 201.729 47.5133 201.865 47.2102C202.003 46.9053 202.072 46.5322 202.072 46.0909ZM204.129 49V43.1818H206.31C206.757 43.1818 207.132 43.2595 207.435 43.4148C207.74 43.5701 207.97 43.7879 208.126 44.0682C208.283 44.3466 208.362 44.6714 208.362 45.0426C208.362 45.4157 208.282 45.7396 208.123 46.0142C207.966 46.2869 207.734 46.4981 207.427 46.6477C207.12 46.7955 206.743 46.8693 206.296 46.8693H204.742V45.9943H206.154C206.415 45.9943 206.629 45.9583 206.796 45.8864C206.963 45.8125 207.086 45.7055 207.165 45.5653C207.247 45.4233 207.288 45.2491 207.288 45.0426C207.288 44.8362 207.247 44.66 207.165 44.5142C207.084 44.3665 206.96 44.2547 206.793 44.179C206.627 44.1013 206.412 44.0625 206.148 44.0625H205.183V49H204.129ZM207.134 46.3636L208.575 49H207.398L205.984 46.3636H207.134ZM209.076 44.0653V43.1818H213.718V44.0653H211.92V49H210.874V44.0653H209.076ZM214.613 49V43.1818H218.397V44.0653H215.667V45.6449H218.201V46.5284H215.667V48.1165H218.42V49H214.613ZM219.472 49V43.1818H221.654C222.101 43.1818 222.476 43.2595 222.779 43.4148C223.084 43.5701 223.314 43.7879 223.469 44.0682C223.627 44.3466 223.705 44.6714 223.705 45.0426C223.705 45.4157 223.626 45.7396 223.467 46.0142C223.309 46.2869 223.077 46.4981 222.771 46.6477C222.464 46.7955 222.087 46.8693 221.64 46.8693H220.086V45.9943H221.498C221.759 45.9943 221.973 45.9583 222.14 45.8864C222.307 45.8125 222.43 45.7055 222.509 45.5653C222.591 45.4233 222.631 45.2491 222.631 45.0426C222.631 44.8362 222.591 44.66 222.509 44.5142C222.428 44.3665 222.304 44.2547 222.137 44.179C221.97 44.1013 221.755 44.0625 221.492 44.0625H220.526V49H219.472ZM222.478 46.3636L223.918 49H222.742L221.327 46.3636H222.478ZM227.837 44.7812C227.811 44.5331 227.699 44.34 227.502 44.2017C227.307 44.0634 227.053 43.9943 226.741 43.9943C226.521 43.9943 226.333 44.0275 226.175 44.0938C226.018 44.16 225.898 44.25 225.815 44.3636C225.731 44.4773 225.689 44.607 225.687 44.7528C225.687 44.8741 225.714 44.9792 225.769 45.0682C225.826 45.1572 225.903 45.233 225.999 45.2955C226.096 45.3561 226.203 45.4072 226.32 45.4489C226.438 45.4905 226.556 45.5256 226.675 45.554L227.221 45.6903C227.441 45.7415 227.652 45.8106 227.854 45.8977C228.059 45.9848 228.242 46.0947 228.403 46.2273C228.566 46.3598 228.694 46.5199 228.789 46.7074C228.884 46.8949 228.931 47.1146 228.931 47.3665C228.931 47.7074 228.844 48.0076 228.67 48.267C228.496 48.5246 228.244 48.7263 227.914 48.8722C227.586 49.0161 227.19 49.0881 226.724 49.0881C226.271 49.0881 225.878 49.018 225.545 48.8778C225.213 48.7377 224.954 48.5331 224.766 48.2642C224.581 47.9953 224.48 47.6676 224.465 47.2812H225.502C225.517 47.4839 225.58 47.6525 225.69 47.7869C225.799 47.9214 225.942 48.0218 226.119 48.0881C226.297 48.1544 226.496 48.1875 226.715 48.1875C226.944 48.1875 227.145 48.1534 227.317 48.0852C227.492 48.0152 227.628 47.9186 227.727 47.7955C227.825 47.6705 227.875 47.5246 227.877 47.358C227.875 47.2064 227.831 47.0814 227.744 46.983C227.656 46.8826 227.534 46.7992 227.377 46.733C227.222 46.6648 227.04 46.6042 226.832 46.5511L226.17 46.3807C225.691 46.2576 225.312 46.071 225.033 45.821C224.757 45.5691 224.619 45.2348 224.619 44.8182C224.619 44.4754 224.711 44.1752 224.897 43.9176C225.085 43.66 225.339 43.4602 225.661 43.3182C225.983 43.1742 226.348 43.1023 226.755 43.1023C227.168 43.1023 227.53 43.1742 227.84 43.3182C228.153 43.4602 228.398 43.6581 228.576 43.9119C228.754 44.1638 228.846 44.4536 228.852 44.7812H227.837Z" fill="#696969"/>
<rect y="67" width="406" height="1" fill="#E5E7EB"/>
<path d="M15.984 91.108C13.656 91.108 12.528 89.944 12.504 88.264H13.848C13.872 89.38 14.52 90.076 16.008 90.076C17.232 90.076 18.048 89.632 18.048 88.708C18.048 87.664 17.46 87.376 15.744 87.088C13.74 86.74 12.708 86.152 12.708 84.652C12.708 83.116 13.92 82.156 15.924 82.156C17.928 82.156 19.104 83.176 19.128 84.712H17.796C17.76 83.668 17.004 83.164 15.876 83.164C14.724 83.164 14.064 83.68 14.064 84.472C14.064 85.444 14.724 85.636 16.404 85.936C17.952 86.188 19.404 86.572 19.404 88.588C19.404 90.088 18.216 91.108 15.984 91.108ZM20.9896 91V82.252H27.1216V83.38H22.2976V86.008H26.5336V87.064H22.2976V89.86H27.1336V91H20.9896ZM30.4068 91V83.392H27.6588V82.252H34.4868V83.392H31.7148V91H30.4068ZM40.1451 91V83.392H37.3971V82.252H44.2251V83.392H41.4531V91H40.1451ZM43.3602 91L46.4682 82.252H48.3042L51.4122 91H50.0442L49.3242 88.96H45.4482L44.7282 91H43.3602ZM45.7602 87.94H49.0002L48.0402 85.24L47.4282 83.452H47.3562L46.7442 85.24L45.7602 87.94ZM52.4896 91V82.252H56.5696C58.4896 82.252 59.4736 83.116 59.4736 84.664C59.4736 85.72 58.9216 86.512 57.9256 86.776V86.86C58.8736 87.028 59.2696 87.592 59.2696 88.588V90.052C59.2696 90.352 59.2696 90.676 59.4136 91H58.0936C57.9856 90.772 57.9616 90.436 57.9616 90.028V88.816C57.9616 87.928 57.6376 87.46 56.4016 87.46H53.7976V91H52.4896ZM53.7976 86.404H56.3896C57.6376 86.404 58.1296 85.744 58.1296 84.832C58.1296 83.788 57.4336 83.356 56.3896 83.356H53.7976V86.404ZM64.752 91.108C62.1 91.108 60.48 89.308 60.48 86.632C60.48 83.848 62.22 82.156 64.8 82.156C67.02 82.156 68.556 83.344 68.784 85.156H67.44C67.212 83.956 66.156 83.296 64.8 83.296C63 83.296 61.812 84.496 61.812 86.62C61.812 88.756 62.964 89.992 64.776 89.992C66.444 89.992 67.56 89.032 67.644 87.412H64.86V86.44H68.976V87.076C68.976 89.548 67.296 91.108 64.752 91.108ZM70.513 91V82.252H76.645V83.38H71.821V86.008H76.057V87.064H71.821V89.86H76.657V91H70.513ZM79.9302 91V83.392H77.1822V82.252H84.0102V83.392H81.2382V91H79.9302Z" fill="#696969"/>
<rect x="12" y="98" width="187" height="16" rx="4" fill="#D9D9D9"/>
<path d="M210.984 91.108C208.656 91.108 207.528 89.944 207.504 88.264H208.848C208.872 89.38 209.52 90.076 211.008 90.076C212.232 90.076 213.048 89.632 213.048 88.708C213.048 87.664 212.46 87.376 210.744 87.088C208.74 86.74 207.708 86.152 207.708 84.652C207.708 83.116 208.92 82.156 210.924 82.156C212.928 82.156 214.104 83.176 214.128 84.712H212.796C212.76 83.668 212.004 83.164 210.876 83.164C209.724 83.164 209.064 83.68 209.064 84.472C209.064 85.444 209.724 85.636 211.404 85.936C212.952 86.188 214.404 86.572 214.404 88.588C214.404 90.088 213.216 91.108 210.984 91.108ZM215.99 91V82.252H222.122V83.38H217.298V86.008H221.534V87.064H217.298V89.86H222.134V91H215.99ZM225.407 91V83.392H222.659V82.252H229.487V83.392H226.715V91H225.407ZM233.345 91V82.252H239.477V83.38H234.653V86.008H238.889V87.064H234.653V89.86H239.489V91H233.345ZM241.15 91V82.252H242.758L247.282 89.26H247.366L247.294 86.332V82.252H248.566V91H247.03L242.506 84.076H242.434L242.482 86.8V91H241.15ZM250.677 91V82.252H254.217C256.737 82.252 258.177 84.004 258.177 86.632C258.177 89.26 256.737 91 254.217 91H250.677ZM251.985 89.872H254.025C255.717 89.872 256.833 88.828 256.833 86.608C256.833 84.388 255.705 83.38 254.025 83.38H251.985V89.872ZM262.384 91V82.252H265.924C268.444 82.252 269.884 84.004 269.884 86.632C269.884 89.26 268.444 91 265.924 91H262.384ZM263.692 89.872H265.732C267.424 89.872 268.54 88.828 268.54 86.608C268.54 84.388 267.412 83.38 265.732 83.38H263.692V89.872ZM270.083 91L273.191 82.252H275.027L278.135 91H276.767L276.047 88.96H272.171L271.451 91H270.083ZM272.483 87.94H275.723L274.763 85.24L274.151 83.452H274.079L273.467 85.24L272.483 87.94ZM279.993 91V83.392H277.245V82.252H284.073V83.392H281.301V91H279.993ZM285.247 91V82.252H291.379V83.38H286.555V86.008H290.791V87.064H286.555V89.86H291.391V91H285.247ZM297.932 91.12C296.468 91.12 295.292 90.304 295.292 88.768C295.292 87.712 296 86.752 297.26 86.212C296.636 85.552 296.252 84.928 296.252 84.172C296.252 82.972 297.176 82.132 298.556 82.132C299.804 82.132 300.692 82.948 300.692 84.088C300.692 85.132 299.936 85.912 298.868 86.296V86.356L300.728 88.42C300.992 87.892 301.136 87.064 301.16 86.38H303.188V87.304H302.036C301.952 87.94 301.736 88.696 301.436 89.188L303.08 91H301.592L300.644 89.944C300.02 90.736 299.012 91.12 297.932 91.12ZM298.232 85.708H298.292C299.084 85.396 299.612 84.88 299.612 84.196C299.612 83.584 299.192 83.14 298.544 83.14C297.848 83.14 297.44 83.62 297.44 84.232C297.44 84.796 297.776 85.216 298.232 85.708ZM296.528 88.636C296.528 89.584 297.224 90.088 298.136 90.088C298.952 90.088 299.588 89.74 299.96 89.188L297.884 86.884C297.02 87.244 296.528 87.868 296.528 88.636ZM308.856 91V83.392H306.108V82.252H312.936V83.392H310.164V91H308.856ZM314.111 91V82.252H315.419V91H314.111ZM317.544 91V82.252H319.584L321.984 88.948H322.032L324.432 82.252H326.46V91H325.188V86.908L325.224 83.632H325.14L322.56 91H321.444L318.888 83.632H318.804L318.828 86.92V91H317.544ZM328.583 91V82.252H334.715V83.38H329.891V86.008H334.127V87.064H329.891V89.86H334.727V91H328.583Z" fill="#696969"/>
<rect x="207" y="98" width="187" height="16" rx="4" fill="#D9D9D9"/>
<path d="M12.036 133L15.144 124.252H16.98L20.088 133H18.72L18 130.96H14.124L13.404 133H12.036ZM14.436 129.94H17.676L16.716 127.24L16.104 125.452H16.032L15.42 127.24L14.436 129.94ZM24.5687 133.108C21.9887 133.108 20.2847 131.392 20.2847 128.632C20.2847 125.86 22.0007 124.156 24.5687 124.156C26.7287 124.156 28.2767 125.344 28.5407 127.18H27.2207C26.9807 126.064 25.9967 125.284 24.5687 125.284C22.7567 125.284 21.6287 126.496 21.6287 128.632C21.6287 130.756 22.7567 131.98 24.5687 131.98C25.9847 131.98 27.0047 131.212 27.2207 130.036L28.5407 130.048C28.3127 131.896 26.7287 133.108 24.5687 133.108ZM30.0716 133V124.252H31.3796V127.996H36.2756V124.252H37.5836V133H36.2756V129.136H31.3796V133H30.0716ZM39.7044 133V124.252H41.0124V133H39.7044ZM43.138 133V124.252H49.27V125.38H44.446V128.008H48.682V129.064H44.446V131.86H49.282V133H43.138ZM52.9278 133L49.7358 124.252H51.1998L53.3118 130.336L53.7678 131.764H53.8518L54.3198 130.348L56.4438 124.252H57.8838L54.7038 133H52.9278ZM59.0169 133V124.252H65.1489V125.38H60.3249V128.008H64.5609V129.064H60.3249V131.86H65.1609V133H59.0169ZM66.8216 133V124.252H68.8616L71.2616 130.948H71.3096L73.7096 124.252H75.7376V133H74.4656V128.908L74.5016 125.632H74.4176L71.8376 133H70.7216L68.1656 125.632H68.0816L68.1056 128.92V133H66.8216ZM77.8607 133V124.252H83.9927V125.38H79.1687V128.008H83.4047V129.064H79.1687V131.86H84.0047V133H77.8607ZM85.6654 133V124.252H87.2734L91.7974 131.26H91.8814L91.8094 128.332V124.252H93.0814V133H91.5454L87.0214 126.076H86.9494L86.9974 128.8V133H85.6654ZM96.9927 133V125.392H94.2447V124.252H101.073V125.392H98.3007V133H96.9927ZM104.931 133V124.252H106.971L109.371 130.948H109.419L111.819 124.252H113.847V133H112.575V128.908L112.611 125.632H112.527L109.947 133H108.831L106.275 125.632H106.191L106.215 128.92V133H104.931ZM115.97 133V124.252H122.102V125.38H117.278V128.008H121.514V129.064H117.278V131.86H122.114V133H115.97ZM126.621 133.108C124.293 133.108 123.165 131.944 123.141 130.264H124.485C124.509 131.38 125.157 132.076 126.645 132.076C127.869 132.076 128.685 131.632 128.685 130.708C128.685 129.664 128.097 129.376 126.381 129.088C124.377 128.74 123.345 128.152 123.345 126.652C123.345 125.116 124.557 124.156 126.561 124.156C128.565 124.156 129.741 125.176 129.765 126.712H128.433C128.397 125.668 127.641 125.164 126.513 125.164C125.361 125.164 124.701 125.68 124.701 126.472C124.701 127.444 125.361 127.636 127.041 127.936C128.589 128.188 130.041 128.572 130.041 130.588C130.041 132.088 128.853 133.108 126.621 133.108ZM134.554 133.108C132.226 133.108 131.098 131.944 131.074 130.264H132.418C132.442 131.38 133.09 132.076 134.578 132.076C135.802 132.076 136.618 131.632 136.618 130.708C136.618 129.664 136.03 129.376 134.314 129.088C132.31 128.74 131.278 128.152 131.278 126.652C131.278 125.116 132.49 124.156 134.494 124.156C136.498 124.156 137.674 125.176 137.698 126.712H136.366C136.33 125.668 135.574 125.164 134.446 125.164C133.294 125.164 132.634 125.68 132.634 126.472C132.634 127.444 133.294 127.636 134.974 127.936C136.522 128.188 137.974 128.572 137.974 130.588C137.974 132.088 136.786 133.108 134.554 133.108ZM138.364 133L141.472 124.252H143.308L146.416 133H145.048L144.328 130.96H140.452L139.732 133H138.364ZM140.764 129.94H144.004L143.044 127.24L142.432 125.452H142.36L141.748 127.24L140.764 129.94ZM150.885 133.108C148.233 133.108 146.613 131.308 146.613 128.632C146.613 125.848 148.353 124.156 150.933 124.156C153.153 124.156 154.689 125.344 154.917 127.156H153.573C153.345 125.956 152.289 125.296 150.933 125.296C149.133 125.296 147.945 126.496 147.945 128.62C147.945 130.756 149.097 131.992 150.909 131.992C152.577 131.992 153.693 131.032 153.777 129.412H150.993V128.44H155.109V129.076C155.109 131.548 153.429 133.108 150.885 133.108ZM156.646 133V124.252H162.778V125.38H157.954V128.008H162.19V129.064H157.954V131.86H162.79V133H156.646Z" fill="#696969"/>
<rect x="12" y="140" width="187" height="16" rx="4" fill="#D9D9D9"/>
<path d="M210.984 133.108C208.656 133.108 207.528 131.944 207.504 130.264H208.848C208.872 131.38 209.52 132.076 211.008 132.076C212.232 132.076 213.048 131.632 213.048 130.708C213.048 129.664 212.46 129.376 210.744 129.088C208.74 128.74 207.708 128.152 207.708 126.652C207.708 125.116 208.92 124.156 210.924 124.156C212.928 124.156 214.104 125.176 214.128 126.712H212.796C212.76 125.668 212.004 125.164 210.876 125.164C209.724 125.164 209.064 125.68 209.064 126.472C209.064 127.444 209.724 127.636 211.404 127.936C212.952 128.188 214.404 128.572 214.404 130.588C214.404 132.088 213.216 133.108 210.984 133.108ZM219.494 133.108C217.25 133.108 215.918 131.824 215.918 129.76V124.252H217.226V129.736C217.226 131.2 218.09 131.932 219.506 131.932C221.042 131.932 221.786 131.092 221.786 129.736V124.252H223.082V129.76C223.082 131.824 221.738 133.108 219.494 133.108ZM225.13 133V124.252H228.67C230.53 124.252 231.718 125.26 231.718 127.036C231.718 128.716 230.566 129.832 228.658 129.82H226.438V133H225.13ZM228.466 125.38H226.438V128.776H228.466C229.606 128.788 230.386 128.236 230.386 127.072C230.386 125.908 229.594 125.38 228.466 125.38ZM233.099 133V124.252H236.639C238.499 124.252 239.687 125.26 239.687 127.036C239.687 128.716 238.535 129.832 236.627 129.82H234.407V133H233.099ZM236.435 125.38H234.407V128.776H236.435C237.575 128.788 238.355 128.236 238.355 127.072C238.355 125.908 237.563 125.38 236.435 125.38ZM244.917 133.108C242.313 133.108 240.609 131.404 240.609 128.632C240.609 125.848 242.325 124.156 244.917 124.156C247.521 124.156 249.237 125.848 249.237 128.632C249.237 131.416 247.509 133.108 244.917 133.108ZM244.917 131.98C246.741 131.98 247.893 130.744 247.893 128.632C247.893 126.508 246.741 125.284 244.917 125.284C243.093 125.284 241.953 126.508 241.953 128.632C241.953 130.756 243.105 131.98 244.917 131.98ZM250.759 133V124.252H254.839C256.759 124.252 257.743 125.116 257.743 126.664C257.743 127.72 257.191 128.512 256.195 128.776V128.86C257.143 129.028 257.539 129.592 257.539 130.588V132.052C257.539 132.352 257.539 132.676 257.683 133H256.363C256.255 132.772 256.231 132.436 256.231 132.028V130.816C256.231 129.928 255.907 129.46 254.671 129.46H252.067V133H250.759ZM252.067 128.404H254.659C255.907 128.404 256.399 127.744 256.399 126.832C256.399 125.788 255.703 125.356 254.659 125.356H252.067V128.404ZM261.008 133V125.392H258.26V124.252H265.088V125.392H262.316V133H261.008ZM266.263 133V124.252H272.395V125.38H267.571V128.008H271.807V129.064H267.571V131.86H272.407V133H266.263ZM274.068 133V124.252H278.148C280.068 124.252 281.052 125.116 281.052 126.664C281.052 127.72 280.5 128.512 279.504 128.776V128.86C280.452 129.028 280.848 129.592 280.848 130.588V132.052C280.848 132.352 280.848 132.676 280.992 133H279.672C279.564 132.772 279.54 132.436 279.54 132.028V130.816C279.54 129.928 279.216 129.46 277.98 129.46H275.376V133H274.068ZM275.376 128.404H277.968C279.216 128.404 279.708 127.744 279.708 126.832C279.708 125.788 279.012 125.356 277.968 125.356H275.376V128.404ZM289.096 133.108C286.516 133.108 284.812 131.392 284.812 128.632C284.812 125.86 286.528 124.156 289.096 124.156C291.256 124.156 292.804 125.344 293.068 127.18H291.748C291.508 126.064 290.524 125.284 289.096 125.284C287.284 125.284 286.156 126.496 286.156 128.632C286.156 130.756 287.284 131.98 289.096 131.98C290.512 131.98 291.532 131.212 291.748 130.036L293.068 130.048C292.84 131.896 291.256 133.108 289.096 133.108ZM298.518 133.108C295.914 133.108 294.21 131.404 294.21 128.632C294.21 125.848 295.926 124.156 298.518 124.156C301.122 124.156 302.838 125.848 302.838 128.632C302.838 131.416 301.11 133.108 298.518 133.108ZM298.518 131.98C300.342 131.98 301.494 130.744 301.494 128.632C301.494 126.508 300.342 125.284 298.518 125.284C296.694 125.284 295.554 126.508 295.554 128.632C295.554 130.756 296.706 131.98 298.518 131.98ZM307.865 133.108C305.621 133.108 304.289 131.824 304.289 129.76V124.252H305.597V129.736C305.597 131.2 306.461 131.932 307.877 131.932C309.413 131.932 310.157 131.092 310.157 129.736V124.252H311.453V129.76C311.453 131.824 310.109 133.108 307.865 133.108ZM313.501 133V124.252H315.109L319.633 131.26H319.717L319.645 128.332V124.252H320.917V133H319.381L314.857 126.076H314.785L314.833 128.8V133H313.501ZM324.829 133V125.392H322.081V124.252H328.909V125.392H326.137V133H324.829Z" fill="#696969"/>
<rect x="207" y="140" width="187" height="16" rx="4" fill="#D9D9D9"/>
<defs>
<linearGradient id="paint0_linear_12627_165" x1="12" y1="22" x2="394" y2="22" gradientUnits="userSpaceOnUse">
<stop offset="0.5" stop-color="#969696"/>
<stop offset="0.5" stop-color="#E9E9E9"/>
</linearGradient>
</defs>
</svg>
