<svg width="406" height="141" viewBox="0 0 406 141" fill="none" xmlns="http://www.w3.org/2000/svg">
<rect x="0.5" y="0.5" width="405" height="140" rx="7.5" fill="white"/>
<rect x="0.5" y="0.5" width="405" height="140" rx="7.5" stroke="#E5E7EB"/>
<path d="M14.6399 25H12.3331L15.848 14.8182H18.6222L22.1321 25H19.8253L17.2749 17.1449H17.1953L14.6399 25ZM14.4957 20.9979H19.9446V22.6783H14.4957V20.9979ZM25.7763 25.1243C25.1963 25.1243 24.6709 24.9751 24.2003 24.6768C23.733 24.3752 23.3617 23.9328 23.0866 23.3494C22.8149 22.7628 22.679 22.0436 22.679 21.1918C22.679 20.3168 22.8198 19.5893 23.1016 19.0092C23.3833 18.4259 23.7578 17.9901 24.2251 17.7017C24.6958 17.41 25.2112 17.2642 25.7713 17.2642C26.1989 17.2642 26.5552 17.3371 26.8402 17.483C27.1286 17.6255 27.3606 17.8045 27.5362 18.0199C27.7152 18.232 27.8511 18.4408 27.9439 18.6463H28.0085V14.8182H30.1214V25H28.0334V23.777H27.9439C27.8445 23.9891 27.7036 24.1996 27.5213 24.4084C27.3423 24.6139 27.1087 24.7846 26.8203 24.9205C26.5353 25.0563 26.1873 25.1243 25.7763 25.1243ZM26.4474 23.4389C26.7888 23.4389 27.0772 23.3461 27.3125 23.1605C27.5511 22.9716 27.7334 22.7081 27.8594 22.37C27.9886 22.032 28.0533 21.6359 28.0533 21.1818C28.0533 20.7277 27.9903 20.3333 27.8643 19.9986C27.7384 19.6638 27.5561 19.4053 27.3175 19.223C27.0788 19.0407 26.7888 18.9496 26.4474 18.9496C26.0994 18.9496 25.8061 19.044 25.5675 19.233C25.3288 19.4219 25.1482 19.6837 25.0256 20.0185C24.9029 20.3532 24.8416 20.741 24.8416 21.1818C24.8416 21.6259 24.9029 22.0187 25.0256 22.3601C25.1515 22.6982 25.3321 22.9633 25.5675 23.1555C25.8061 23.3445 26.0994 23.4389 26.4474 23.4389ZM34.6767 25.1243C34.0967 25.1243 33.5713 24.9751 33.1007 24.6768C32.6333 24.3752 32.2621 23.9328 31.987 23.3494C31.7153 22.7628 31.5794 22.0436 31.5794 21.1918C31.5794 20.3168 31.7202 19.5893 32.002 19.0092C32.2837 18.4259 32.6582 17.9901 33.1255 17.7017C33.5962 17.41 34.1116 17.2642 34.6717 17.2642C35.0993 17.2642 35.4556 17.3371 35.7406 17.483C36.0289 17.6255 36.2609 17.8045 36.4366 18.0199C36.6156 18.232 36.7515 18.4408 36.8443 18.6463H36.9089V14.8182H39.0218V25H36.9338V23.777H36.8443C36.7449 23.9891 36.604 24.1996 36.4217 24.4084C36.2427 24.6139 36.0091 24.7846 35.7207 24.9205C35.4357 25.0563 35.0877 25.1243 34.6767 25.1243ZM35.3478 23.4389C35.6892 23.4389 35.9776 23.3461 36.2129 23.1605C36.4515 22.9716 36.6338 22.7081 36.7598 22.37C36.889 22.032 36.9537 21.6359 36.9537 21.1818C36.9537 20.7277 36.8907 20.3333 36.7647 19.9986C36.6388 19.6638 36.4565 19.4053 36.2179 19.223C35.9792 19.0407 35.6892 18.9496 35.3478 18.9496C34.9998 18.9496 34.7065 19.044 34.4679 19.233C34.2292 19.4219 34.0486 19.6837 33.926 20.0185C33.8033 20.3532 33.742 20.741 33.742 21.1818C33.742 21.6259 33.8033 22.0187 33.926 22.3601C34.0519 22.6982 34.2325 22.9633 34.4679 23.1555C34.7065 23.3445 34.9998 23.4389 35.3478 23.4389ZM46.1958 14.8182V25H44.0431V14.8182H46.1958ZM50.0451 20.5852V25H47.9272V17.3636H49.9457V18.7109H50.0352C50.2042 18.2668 50.4876 17.9155 50.8853 17.657C51.283 17.3951 51.7653 17.2642 52.332 17.2642C52.8623 17.2642 53.3247 17.3802 53.7191 17.6122C54.1135 17.8442 54.4201 18.1757 54.6388 18.6065C54.8576 19.0341 54.967 19.5445 54.967 20.1378V25H52.8491V20.5156C52.8524 20.0483 52.7331 19.6837 52.4911 19.4219C52.2492 19.1567 51.9161 19.0241 51.4918 19.0241C51.2068 19.0241 50.9549 19.0855 50.7362 19.2081C50.5207 19.3307 50.3517 19.5097 50.229 19.745C50.1097 19.977 50.0484 20.2571 50.0451 20.5852ZM56.6362 27.8636V17.3636H58.7243V18.6463H58.8187C58.9115 18.4408 59.0458 18.232 59.2214 18.0199C59.4004 17.8045 59.6324 17.6255 59.9174 17.483C60.2058 17.3371 60.5637 17.2642 60.9913 17.2642C61.5481 17.2642 62.0618 17.41 62.5325 17.7017C63.0031 17.9901 63.3793 18.4259 63.661 19.0092C63.9428 19.5893 64.0836 20.3168 64.0836 21.1918C64.0836 22.0436 63.9461 22.7628 63.671 23.3494C63.3992 23.9328 63.028 24.3752 62.5574 24.6768C62.09 24.9751 61.5663 25.1243 60.9863 25.1243C60.5753 25.1243 60.2257 25.0563 59.9373 24.9205C59.6523 24.7846 59.4186 24.6139 59.2363 24.4084C59.054 24.1996 58.9148 23.9891 58.8187 23.777H58.7541V27.8636H56.6362ZM58.7093 21.1818C58.7093 21.6359 58.7723 22.032 58.8983 22.37C59.0242 22.7081 59.2065 22.9716 59.4451 23.1605C59.6838 23.3461 59.9738 23.4389 60.3152 23.4389C60.6599 23.4389 60.9515 23.3445 61.1902 23.1555C61.4288 22.9633 61.6094 22.6982 61.7321 22.3601C61.858 22.0187 61.921 21.6259 61.921 21.1818C61.921 20.741 61.8597 20.3532 61.737 20.0185C61.6144 19.6837 61.4338 19.4219 61.1951 19.233C60.9565 19.044 60.6632 18.9496 60.3152 18.9496C59.9705 18.9496 59.6788 19.0407 59.4402 19.223C59.2048 19.4053 59.0242 19.6638 58.8983 19.9986C58.7723 20.3333 58.7093 20.7277 58.7093 21.1818ZM70.3926 21.7486V17.3636H72.5105V25H70.4771V23.6129H70.3975C70.2252 24.0604 69.9385 24.42 69.5375 24.6918C69.1397 24.9635 68.6542 25.0994 68.0808 25.0994C67.5704 25.0994 67.1213 24.9834 66.7335 24.7514C66.3457 24.5194 66.0424 24.1896 65.8237 23.7621C65.6083 23.3345 65.4989 22.8224 65.4956 22.2259V17.3636H67.6135V21.848C67.6168 22.2988 67.7377 22.6551 67.9764 22.9169C68.215 23.1787 68.5349 23.3097 68.9359 23.3097C69.1911 23.3097 69.4297 23.2517 69.6518 23.1357C69.8739 23.0163 70.0529 22.8407 70.1887 22.6087C70.3279 22.3767 70.3959 22.09 70.3926 21.7486ZM78.2663 17.3636V18.9545H73.6676V17.3636H78.2663ZM74.7116 15.5341H76.8295V22.6534C76.8295 22.849 76.8594 23.0014 76.919 23.1108C76.9787 23.2169 77.0616 23.2914 77.1676 23.3345C77.277 23.3776 77.4029 23.3991 77.5455 23.3991C77.6449 23.3991 77.7443 23.3909 77.8438 23.3743C77.9432 23.3544 78.0194 23.3395 78.0724 23.3295L78.4055 24.9055C78.2995 24.9387 78.1503 24.9768 77.9581 25.0199C77.7659 25.0663 77.5322 25.0945 77.2571 25.1044C76.7467 25.1243 76.2992 25.0563 75.9148 24.9006C75.5336 24.7448 75.237 24.5028 75.0249 24.1747C74.8127 23.8466 74.7083 23.4323 74.7116 22.9318V15.5341ZM82.926 25V14.8182H89.6674V16.593H85.0787V19.0192H89.22V20.794H85.0787V25H82.926ZM91.0756 25V17.3636H93.1935V25H91.0756ZM92.1396 16.3793C91.8247 16.3793 91.5546 16.2749 91.3292 16.0661C91.1071 15.8539 90.9961 15.6004 90.9961 15.3054C90.9961 15.0137 91.1071 14.7635 91.3292 14.5547C91.5546 14.3426 91.8247 14.2365 92.1396 14.2365C92.4544 14.2365 92.7229 14.3426 92.945 14.5547C93.1703 14.7635 93.283 15.0137 93.283 15.3054C93.283 15.6004 93.1703 15.8539 92.945 16.0661C92.7229 16.2749 92.4544 16.3793 92.1396 16.3793ZM98.3702 25.1491C97.5847 25.1491 96.9086 24.9901 96.3418 24.6719C95.7783 24.3504 95.3442 23.8963 95.0392 23.3097C94.7343 22.7197 94.5819 22.022 94.5819 21.2166C94.5819 20.4311 94.7343 19.7417 95.0392 19.1484C95.3442 18.5552 95.7734 18.0928 96.3269 17.7614C96.8837 17.4299 97.5366 17.2642 98.2857 17.2642C98.7895 17.2642 99.2585 17.3454 99.6926 17.5078C100.13 17.6669 100.511 17.9072 100.836 18.2287C101.164 18.5502 101.419 18.9545 101.602 19.4418C101.784 19.9257 101.875 20.4924 101.875 21.142V21.7237H95.427V20.4112H99.8816C99.8816 20.1063 99.8153 19.8362 99.6827 19.6009C99.5501 19.3655 99.3662 19.1816 99.1309 19.049C98.8989 18.9131 98.6287 18.8452 98.3205 18.8452C97.999 18.8452 97.714 18.9197 97.4654 19.0689C97.2201 19.2147 97.0279 19.4119 96.8887 19.6605C96.7495 19.9058 96.6782 20.1792 96.6749 20.4808V21.7287C96.6749 22.1065 96.7445 22.433 96.8837 22.7081C97.0262 22.9832 97.2267 23.1953 97.4853 23.3445C97.7438 23.4936 98.0504 23.5682 98.405 23.5682C98.6403 23.5682 98.8558 23.535 99.0513 23.4688C99.2469 23.4025 99.4142 23.303 99.5534 23.1705C99.6926 23.0379 99.7987 22.8755 99.8716 22.6832L101.83 22.8125C101.731 23.2831 101.527 23.6941 101.219 24.0455C100.914 24.3935 100.52 24.6652 100.036 24.8608C99.5551 25.053 98.9999 25.1491 98.3702 25.1491ZM105.375 14.8182V25H103.257V14.8182H105.375ZM109.886 25.1243C109.306 25.1243 108.78 24.9751 108.31 24.6768C107.842 24.3752 107.471 23.9328 107.196 23.3494C106.924 22.7628 106.788 22.0436 106.788 21.1918C106.788 20.3168 106.929 19.5893 107.211 19.0092C107.493 18.4259 107.867 17.9901 108.335 17.7017C108.805 17.41 109.321 17.2642 109.881 17.2642C110.308 17.2642 110.665 17.3371 110.95 17.483C111.238 17.6255 111.47 17.8045 111.646 18.0199C111.825 18.232 111.96 18.4408 112.053 18.6463H112.118V14.8182H114.231V25H112.143V23.777H112.053C111.954 23.9891 111.813 24.1996 111.631 24.4084C111.452 24.6139 111.218 24.7846 110.93 24.9205C110.645 25.0563 110.297 25.1243 109.886 25.1243ZM110.557 23.4389C110.898 23.4389 111.187 23.3461 111.422 23.1605C111.661 22.9716 111.843 22.7081 111.969 22.37C112.098 22.032 112.163 21.6359 112.163 21.1818C112.163 20.7277 112.1 20.3333 111.974 19.9986C111.848 19.6638 111.665 19.4053 111.427 19.223C111.188 19.0407 110.898 18.9496 110.557 18.9496C110.209 18.9496 109.915 19.044 109.677 19.233C109.438 19.4219 109.258 19.6837 109.135 20.0185C109.012 20.3532 108.951 20.741 108.951 21.1818C108.951 21.6259 109.012 22.0187 109.135 22.3601C109.261 22.6982 109.442 22.9633 109.677 23.1555C109.915 23.3445 110.209 23.4389 110.557 23.4389Z" fill="#696969"/>
<path d="M362 13C362.553 13 363 13.4469 363 14V18.2344L366.483 16.1438C366.958 15.8594 367.57 16.0125 367.854 16.4875C368.138 16.9625 367.985 17.575 367.51 17.8594L363.943 20L367.514 22.1438C367.988 22.4281 368.141 23.0406 367.857 23.5156C367.573 23.9906 366.961 24.1438 366.486 23.8594L363 21.7656V26C363 26.5531 362.553 27 362 27C361.447 27 361 26.5531 361 26V21.7656L357.517 23.8562C357.042 24.1406 356.43 23.9875 356.146 23.5125C355.862 23.0375 356.015 22.425 356.49 22.1406L360.057 20L356.486 17.8562C356.012 17.5719 355.859 16.9594 356.143 16.4844C356.427 16.0094 357.039 15.8563 357.514 16.1406L361 18.2344V14C361 13.4469 361.447 13 362 13Z" fill="#696969"/>
<path d="M386 14.3999C383.98 14.3999 382.363 15.3199 381.185 16.4149C380.015 17.5024 379.233 18.7999 378.86 19.6924C378.778 19.8899 378.778 20.1099 378.86 20.3074C379.233 21.1999 380.015 22.4999 381.185 23.5849C382.363 24.6774 383.98 25.5999 386 25.5999C388.02 25.5999 389.638 24.6799 390.815 23.5849C391.985 22.4974 392.768 21.1999 393.14 20.3074C393.223 20.1099 393.223 19.8899 393.14 19.6924C392.768 18.7999 391.985 17.4999 390.815 16.4149C389.638 15.3224 388.02 14.3999 386 14.3999ZM382.4 19.9999C382.4 18.0124 384.013 16.3999 386 16.3999C387.988 16.3999 389.6 18.0124 389.6 19.9999C389.6 21.9874 387.988 23.5999 386 23.5999C384.013 23.5999 382.4 21.9874 382.4 19.9999ZM386 18.3999C386 19.2824 385.283 19.9999 384.4 19.9999C384.113 19.9999 383.843 19.9249 383.608 19.7899C383.583 20.0624 383.605 20.3424 383.68 20.6199C384.023 21.8999 385.34 22.6599 386.62 22.3174C387.9 21.9749 388.66 20.6574 388.318 19.3774C388.013 18.2349 386.93 17.5074 385.79 17.6074C385.923 17.8399 386 18.1099 386 18.3999Z" fill="#696969"/>
<rect y="40" width="406" height="1" fill="#E5E7EB"/>
<path d="M13.056 64V55.252H14.364V62.824H18.54V64H13.056ZM18.6805 64L21.7885 55.252H23.6245L26.7325 64H25.3645L24.6445 61.96H20.7685L20.0485 64H18.6805ZM21.0805 60.94H24.3205L23.3605 58.24L22.7485 56.452H22.6765L22.0645 58.24L21.0805 60.94ZM27.8099 64V55.252H31.8659C33.5699 55.252 34.4939 56.152 34.4939 57.496C34.4939 58.408 34.0259 59.2 33.0899 59.44V59.5C34.1579 59.716 34.7219 60.544 34.7219 61.54C34.7219 63.112 33.5939 64 31.7099 64H27.8099ZM29.0939 59.02H31.6619C32.6819 59.02 33.1859 58.48 33.1859 57.676C33.1859 56.776 32.5379 56.284 31.5539 56.284H29.0939V59.02ZM29.0939 62.968H31.5899C32.8139 62.968 33.3899 62.356 33.3899 61.468C33.3899 60.532 32.7659 60.016 31.7219 60.016H29.0939V62.968ZM36.2708 64V55.252H42.4028V56.38H37.5788V59.008H41.8148V60.064H37.5788V62.86H42.4148V64H36.2708ZM44.0755 64V55.252H45.3835V62.824H49.5595V64H44.0755Z" fill="#696969"/>
<rect x="12" y="71" width="187" height="16" rx="4" fill="#D9D9D9"/>
<path d="M208.056 64V55.252H211.596C214.116 55.252 215.556 57.004 215.556 59.632C215.556 62.26 214.116 64 211.596 64H208.056ZM209.364 62.872H211.404C213.096 62.872 214.212 61.828 214.212 59.608C214.212 57.388 213.084 56.38 211.404 56.38H209.364V62.872ZM217.079 64V55.252H223.211V56.38H218.387V59.008H222.623V60.064H218.387V62.86H223.223V64H217.079ZM224.884 64V55.252H230.992V56.38H226.192V59.188H230.512V60.268H226.192V64H224.884ZM230.72 64L233.828 55.252H235.664L238.772 64H237.404L236.684 61.96H232.808L232.088 64H230.72ZM233.12 60.94H236.36L235.4 58.24L234.788 56.452H234.716L234.104 58.24L233.12 60.94ZM242.943 64.108C240.699 64.108 239.367 62.824 239.367 60.76V55.252H240.675V60.736C240.675 62.2 241.539 62.932 242.955 62.932C244.491 62.932 245.235 62.092 245.235 60.736V55.252H246.531V60.76C246.531 62.824 245.187 64.108 242.943 64.108ZM248.579 64V55.252H249.887V62.824H254.063V64H248.579ZM255.583 64V56.392H252.835V55.252H259.663V56.392H256.891V64H255.583ZM265.717 64L262.525 55.252H263.989L266.101 61.336L266.557 62.764H266.641L267.109 61.348L269.233 55.252H270.673L267.493 64H265.717ZM270.071 64L273.179 55.252H275.015L278.123 64H276.755L276.035 61.96H272.159L271.439 64H270.071ZM272.471 60.94H275.711L274.751 58.24L274.139 56.452H274.067L273.455 58.24L272.471 60.94ZM279.201 64V55.252H280.509V62.824H284.685V64H279.201ZM288.869 64.108C286.625 64.108 285.293 62.824 285.293 60.76V55.252H286.601V60.736C286.601 62.2 287.465 62.932 288.881 62.932C290.417 62.932 291.161 62.092 291.161 60.736V55.252H292.457V60.76C292.457 62.824 291.113 64.108 288.869 64.108ZM294.505 64V55.252H300.637V56.38H295.813V59.008H300.049V60.064H295.813V62.86H300.649V64H294.505Z" fill="#696969"/>
<rect x="207" y="71" width="187" height="16" rx="4" fill="#D9D9D9"/>
<path d="M16.788 106.108C14.184 106.108 12.48 104.404 12.48 101.632C12.48 98.848 14.196 97.156 16.788 97.156C19.392 97.156 21.108 98.848 21.108 101.632C21.108 104.416 19.38 106.108 16.788 106.108ZM16.788 104.98C18.612 104.98 19.764 103.744 19.764 101.632C19.764 99.508 18.612 98.284 16.788 98.284C14.964 98.284 13.824 99.508 13.824 101.632C13.824 103.756 14.976 104.98 16.788 104.98ZM22.6302 106V97.252H26.1702C28.0302 97.252 29.2182 98.26 29.2182 100.036C29.2182 101.716 28.0662 102.832 26.1582 102.82H23.9382V106H22.6302ZM25.9662 98.38H23.9382V101.776H25.9662C27.1062 101.788 27.8862 101.236 27.8862 100.072C27.8862 98.908 27.0942 98.38 25.9662 98.38ZM32.399 106V98.392H29.651V97.252H36.479V98.392H33.707V106H32.399ZM37.6537 106V97.252H38.9617V106H37.6537ZM44.8193 106.108C42.2153 106.108 40.5113 104.404 40.5113 101.632C40.5113 98.848 42.2273 97.156 44.8193 97.156C47.4233 97.156 49.1393 98.848 49.1393 101.632C49.1393 104.416 47.4113 106.108 44.8193 106.108ZM44.8193 104.98C46.6432 104.98 47.7953 103.744 47.7953 101.632C47.7953 99.508 46.6432 98.284 44.8193 98.284C42.9953 98.284 41.8553 99.508 41.8553 101.632C41.8553 103.756 43.0073 104.98 44.8193 104.98ZM50.6615 106V97.252H52.2695L56.7935 104.26H56.8775L56.8055 101.332V97.252H58.0775V106H56.5415L52.0175 99.076H51.9455L51.9935 101.8V106H50.6615ZM65.0684 106L61.8764 97.252H63.3404L65.4524 103.336L65.9084 104.764H65.9924L66.4604 103.348L68.5844 97.252H70.0244L66.8444 106H65.0684ZM69.4227 106L72.5307 97.252H74.3667L77.4747 106H76.1067L75.3867 103.96H71.5107L70.7907 106H69.4227ZM71.8227 102.94H75.0627L74.1027 100.24L73.4907 98.452H73.4187L72.8067 100.24L71.8227 102.94ZM78.5521 106V97.252H79.8601V104.824H84.0361V106H78.5521ZM88.2202 106.108C85.9762 106.108 84.6442 104.824 84.6442 102.76V97.252H85.9522V102.736C85.9522 104.2 86.8162 104.932 88.2322 104.932C89.7682 104.932 90.5122 104.092 90.5122 102.736V97.252H91.8082V102.76C91.8082 104.824 90.4642 106.108 88.2202 106.108ZM93.8568 106V97.252H99.9888V98.38H95.1648V101.008H99.4008V102.064H95.1648V104.86H100.001V106H93.8568ZM104.507 106.108C102.179 106.108 101.051 104.944 101.027 103.264H102.371C102.395 104.38 103.043 105.076 104.531 105.076C105.755 105.076 106.571 104.632 106.571 103.708C106.571 102.664 105.983 102.376 104.267 102.088C102.263 101.74 101.231 101.152 101.231 99.652C101.231 98.116 102.443 97.156 104.447 97.156C106.451 97.156 107.627 98.176 107.651 99.712H106.319C106.283 98.668 105.527 98.164 104.399 98.164C103.247 98.164 102.587 98.68 102.587 99.472C102.587 100.444 103.247 100.636 104.927 100.936C106.475 101.188 107.927 101.572 107.927 103.588C107.927 105.088 106.739 106.108 104.507 106.108Z" fill="#696969"/>
<rect x="12" y="113" width="382" height="16" rx="4" fill="#D9D9D9"/>
</svg>
