<svg width="690" height="527" viewBox="0 0 690 527" fill="none" xmlns="http://www.w3.org/2000/svg">
<g clip-path="url(#clip0_12659_1019)">
<mask id="mask0_12659_1019" style="mask-type:luminance" maskUnits="userSpaceOnUse" x="0" y="74" width="690" height="368">
<path d="M16 74H674C682.8 74 690 81.2 690 90V426C690 434.8 682.8 442 674 442H16C7.2 442 0 434.8 0 426V90C0 81.2 7.2 74 16 74Z" fill="white"/>
</mask>
<g mask="url(#mask0_12659_1019)">
<path d="M16 74H674C682.8 74 690 81.2 690 90V426C690 434.8 682.8 442 674 442H16C7.2 442 0 434.8 0 426V90C0 81.2 7.2 74 16 74Z" fill="white" fill-opacity="0.75"/>
<path opacity="0.25" d="M318.1 -87H316.7V-67.1H264V-65.7H316.7V-14H264V-12.6H316.7V39.1H264V40.5H316.7V92.2H264V93.6H316.7V145.3H264V146.7H316.7V198.4H264V199.8H316.7V251.5H264V252.9H316.7V304.6H264V306H316.7V358H264V359.4H316.7V411.1H264V412.5H316.7V464.2H264V465.6H316.7V517.3H264V518.7H316.7V570.4H264V571.8H316.7V603H318.1V571.7H369.8V602.8H371.2V571.7H423V602.8H424.4V571.7H476.1V602.8H477.5V571.7H529.2V602.8H530.6V571.7H582.3V602.8H583.7V571.7H635.3V602.8H636.7V571.7H690V570.3H636.9V518.6H690V517.2H636.9V465.5H690V464.1H636.9V412.4H690V411H636.9V359.3H690V357.9H636.9V306.2H690V304.8H636.9V253H690V251.6H636.9V199.9H690V198.5H636.9V146.8H690V145.5H636.9V93.7H690V92.4H636.9V40.6H690V39.2H636.9V-12.5H690V-13.9H636.9V-65.6H690V-67H636.9V-87H635.5V-67.1H583.8V-87H582.4V-67.1H530.7V-87H529.3V-67.1H477.6V-87H476V-67.1H424.3V-87H422.9V-67.1H371.2V-87H369.8V-67.1H318L318.1 -87ZM318.1 -12.5H369.8V39.2H318.1V-12.5ZM476.1 146.8V198.5H424.4V146.8H476.1ZM424.4 145.4V93.7H476.1V145.4H424.4ZM476.1 200V251.7H424.4V200H476.1ZM476.1 253V304.7H424.4V253H476.1ZM476.1 306.2V357.9H424.4V306.2H476.1ZM476.1 359.3V411H424.4V359.3H476.1ZM476.1 412.4V464.1H424.4V412.4H476.1ZM477.4 412.4H529.1V464.1H477.4V412.4ZM477.4 411V359.3H529.1V411H477.4ZM477.4 357.9V306.2H529.1V357.9H477.4ZM477.4 304.8V253H529.1V304.7H477.4V304.8ZM477.4 251.7V200H529.1V251.7H477.4ZM477.4 198.6V146.9H529.1V198.6H477.4ZM477.4 145.4V93.7H529.1V145.4H477.4ZM477.4 92.3V40.6H529.1V92.3H477.4ZM476.1 92.3H424.4V40.6H476.1V92.3ZM423 92.3H371.3V40.6H423V92.3ZM423 93.7V145.4H371.3V93.7H423ZM423 146.8V198.5H371.3V146.8H423ZM423 200V251.7H371.3V200H423ZM423 253V304.7H371.3V253H423ZM423 306.2V357.9H371.3V306.2H423ZM423 359.3V411H371.3V359.3H423ZM423 412.4V464.1H371.3V412.4H423ZM423 465.5V517.2H371.3V465.5H423ZM424.4 465.5H476.1V517.2H424.4V465.5ZM477.4 465.5H529.1V517.2H477.4V465.5ZM530.6 465.5H582.3V517.2H530.6V465.5ZM530.6 464.1V412.4H582.3V464.1H530.6ZM530.6 411V359.3H582.3V411H530.6ZM530.6 357.9V306.2H582.3V357.9H530.6ZM530.6 304.8V253H582.3V304.7H530.6V304.8ZM530.6 251.7V200H582.3V251.7H530.6ZM530.6 198.6V146.9H582.3V198.6H530.6ZM530.6 145.4V93.7H582.3V145.4H530.6ZM530.6 92.3V40.6H582.3V92.3H530.6ZM530.6 39.2V-12.5H582.3V39.2H530.6ZM529.2 39.2H477.5V-12.5H529.2V39.2ZM476.1 39.2H424.4V-12.5H476.1V39.2ZM423 39.2H371.3V-12.5H423V39.2ZM318.1 40.6H369.8V92.4H318.1V40.6ZM318.1 93.7H369.8V145.4H318.1V93.7ZM318.1 146.8H369.8V198.5H318.1V146.8ZM318.1 200H369.8V251.7H318.1V200ZM318.1 253H369.8V304.7H318.1V253ZM318.1 306.2H369.8V357.9H318.1V306.2ZM318.1 359.3H369.8V411H318.1V359.3ZM318.1 412.4H369.8V464.1H318.1V412.4ZM318.1 465.5H369.8V517.2H318.1V465.5ZM318.1 570.4V518.7H369.8V570.4H318.1ZM371.2 570.4V518.7H423V570.4H371.2ZM424.4 570.4V518.7H476.1V570.4H424.4ZM477.4 570.4V518.7H529.1V570.4H477.4ZM530.6 570.4V518.7H582.3V570.4H530.6ZM635.5 570.4H583.8V518.7H635.5V570.4ZM635.5 517.2H583.8V465.5H635.5V517.2ZM635.5 464.1H583.8V412.4H635.5V464.1ZM635.5 411H583.8V359.3H635.5V411ZM635.5 357.9H583.8V306.2H635.5V357.9ZM635.5 304.8H583.8V253H635.5V304.8ZM635.5 251.7H583.8V200H635.5V251.7ZM635.5 198.6H583.8V146.9H635.5V198.6ZM635.5 145.4H583.8V93.7H635.5V145.4ZM635.5 92.3H583.8V40.6H635.5V92.3ZM635.5 39.2H583.8V-12.5H635.5V39.2ZM635.5 -65.7V-14H583.8V-65.7H635.5ZM582.3 -65.7V-14H530.6V-65.7H582.3ZM529.2 -65.7V-14H477.5V-65.7H529.2ZM476.1 -65.7V-14H424.4V-65.7H476.1ZM423 -65.7V-14H371.3V-65.7H423ZM369.9 -65.7V-14H318.2V-65.7H369.9Z" fill="url(#paint0_radial_12659_1019)"/>
<path d="M630 94H662C666.4 94 670 97.6 670 102V134C670 138.4 666.4 142 662 142H630C625.6 142 622 138.4 622 134V102C622 97.6 625.6 94 630 94Z" fill="#21BB5A"/>
<path d="M652.4 114.8C655 114.8 657.2 112.6 657.2 110C657.2 107.4 655 105.2 652.4 105.2C649.7 105.2 647.6 107.4 647.6 110C647.6 110.3 647.6 110.5 647.7 110.8L641.2 114.4C640.4 113.6 639.2 113.2 638 113.2C635.3 113.2 633.2 115.4 633.2 118C633.2 120.6 635.3 122.8 638 122.8C639.2 122.8 640.3 122.3 641.2 121.6L647.7 125.2C647.7 125.5 647.6 125.7 647.6 126C647.6 128.6 649.8 130.8 652.4 130.8C655 130.8 657.2 128.6 657.2 126C657.2 123.3 655 121.2 652.4 121.2C651.2 121.2 650.1 121.7 649.2 122.4L642.7 118.8C642.7 118.5 642.8 118.3 642.8 118C642.8 117.7 642.8 117.5 642.7 117.2L649.2 113.6C650.1 114.3 651.2 114.8 652.4 114.8Z" fill="white"/>
<path d="M0 73H300V443H0V73Z" fill="#F5F5F4"/>
<path d="M300 73H299V443H300H301V73H300Z" fill="#D4D4D4"/>
<path d="M36.4 128.1C32.9 128.1 30.5 125.9 30.5 122.1C30.5 118.3 32.9 116.1 36.4 116.1C39.4 116.1 41.5 117.8 41.8 120.3H39.3C39 119.1 37.9 118.3 36.4 118.3C34.4 118.3 33.1 119.6 33.1 122.1C33.1 124.7 34.4 126 36.4 126C37.9 126 39.1 125.2 39.3 124H41.8C41.6 126.5 39.4 128.1 36.4 128.1ZM43.4 128V119.4H45.5L45.6 120.8H45.7C46.1 119.7 47 119.3 48.1 119.3C48.3 119.3 48.4 119.3 48.6 119.3V121.5C48.5 121.5 48.3 121.5 48.1 121.5C46.5 121.5 45.9 122.2 45.8 123.5V128H43.4ZM53.3 128.2C50.6 128.2 49.1 126.5 49.1 123.8C49.1 121 50.7 119.3 53.2 119.3C56.1 119.3 57.5 121.4 57.2 124.3H51.4C51.4 125.7 52.2 126.5 53.3 126.5C54.2 126.5 54.8 126.1 55 125.4H57.2C57 127 55.5 128.2 53.3 128.2ZM53.2 121C52.2 121 51.5 121.6 51.4 122.7H55C54.9 121.6 54.2 121 53.2 121ZM61.9 128.1C59.9 128.1 58.5 126.6 58.5 123.7C58.5 120.7 59.9 119.3 61.9 119.3C63.2 119.3 64.2 120 64.6 120.9H64.7L64.8 119.4H67.1V128H64.7V126.5H64.6C64.2 127.5 63.2 128.1 61.9 128.1ZM62.8 126.2C64.1 126.2 64.7 125.2 64.7 124.1V123.3C64.7 122.2 64.1 121.2 62.8 121.2C61.6 121.2 60.9 122 60.9 123.7C60.9 125.4 61.6 126.2 62.8 126.2ZM71.9 128C70.2 128 69.7 127.2 69.7 125.9V121.3H68.2V119.4H69.7V117.1L72 116.9V119.5H73.7V121.4H72V125.5C72 126 72.2 126.1 72.7 126.1H73.7V128H71.9ZM78.7 128.2C76 128.2 74.5 126.5 74.5 123.8C74.5 121 76.1 119.3 78.6 119.3C81.5 119.3 82.9 121.4 82.6 124.3H76.8C76.8 125.7 77.6 126.5 78.7 126.5C79.6 126.5 80.2 126.1 80.4 125.4H82.6C82.4 127 80.8 128.2 78.7 128.2ZM78.6 121C77.6 121 76.9 121.6 76.8 122.7H80.3C80.3 121.6 79.6 121 78.6 121ZM87.9 128V116.3H90.4V128H87.9ZM92.6 128V119.4H94.9L95 121H95.1C95.6 119.9 96.6 119.3 97.8 119.3C99.5 119.3 100.8 120.3 100.8 122.9V128.1H98.4V123.4C98.4 122 97.9 121.3 96.8 121.3C95.6 121.3 94.9 122.3 94.9 123.3V128.1H92.6V128ZM104.4 128L101.5 119.4H104L105.3 124L105.8 126H105.9L106.4 124L107.7 119.4H110.2L107.3 128H104.4ZM114.7 128.1C112.1 128.1 110.4 126.5 110.4 123.7C110.4 121 112 119.3 114.7 119.3C117.3 119.3 119 121 119 123.7C119 126.4 117.4 128.1 114.7 128.1ZM114.7 126.2C115.9 126.2 116.6 125.4 116.6 123.7C116.6 122 115.9 121.2 114.7 121.2C113.5 121.2 112.8 122 112.8 123.7C112.8 125.4 113.5 126.2 114.7 126.2ZM120.5 118.3V116.3H122.9V118.3H120.5ZM120.5 128V119.4H122.9V128H120.5ZM128.6 128.1C126 128.1 124.3 126.3 124.3 123.7C124.3 121 126 119.3 128.6 119.3C130.8 119.3 132.4 120.6 132.5 122.6H130.2C130.1 121.7 129.4 121.2 128.6 121.2C127.4 121.2 126.7 122.2 126.7 123.7C126.7 125.4 127.5 126.2 128.6 126.2C129.6 126.2 130.2 125.6 130.3 124.8H132.6C132.5 126.8 130.9 128.1 128.6 128.1ZM137.8 128.2C135.1 128.2 133.6 126.5 133.6 123.8C133.6 121 135.2 119.3 137.7 119.3C140.6 119.3 142 121.4 141.7 124.3H135.9C135.9 125.7 136.7 126.5 137.8 126.5C138.7 126.5 139.3 126.1 139.5 125.4H141.7C141.4 127 139.9 128.2 137.8 128.2ZM137.7 121C136.7 121 136 121.6 135.9 122.7H139.4C139.3 121.6 138.6 121 137.7 121Z" fill="black"/>
<path d="M38 140.5H262C266.1 140.5 269.5 143.9 269.5 148V188C269.5 192.1 266.1 195.5 262 195.5H38C33.9 195.5 30.5 192.1 30.5 188V148C30.5 143.9 33.9 140.5 38 140.5Z" fill="white"/>
<path d="M38 140.5H262C266.1 140.5 269.5 143.9 269.5 148V188C269.5 192.1 266.1 195.5 262 195.5H38C33.9 195.5 30.5 192.1 30.5 188V148C30.5 143.9 33.9 140.5 38 140.5Z" stroke="#E1E1E1"/>
<path opacity="0.5" d="M45.3 158.1C43.4 158.1 42.4 157.1 42.4 155.7H43.5C43.5 156.6 44.1 157.2 45.3 157.2C46.3 157.2 47 156.8 47 156.1C47 155.2 46.5 155 45.1 154.8C43.4 154.5 42.6 154 42.6 152.8C42.6 151.5 43.6 150.7 45.3 150.7C47 150.7 47.9 151.5 48 152.8H46.9C46.9 151.9 46.2 151.5 45.3 151.5C44.3 151.5 43.8 151.9 43.8 152.6C43.8 153.4 44.3 153.6 45.7 153.8C47 154 48.2 154.3 48.2 156C48.2 157.2 47.2 158.1 45.3 158.1ZM51.4 158.1C49.8 158.1 48.9 157 48.9 155.4C48.9 153.7 49.8 152.6 51.3 152.6C53 152.6 53.8 153.8 53.6 155.5H50C50 156.7 50.6 157.2 51.5 157.2C52.2 157.2 52.7 156.8 52.8 156.3H53.8C53.6 157.4 52.6 158.1 51.4 158.1ZM51.4 153.4C50.6 153.4 50.1 153.9 50 154.8H52.7C52.7 153.9 52.2 153.4 51.4 153.4ZM54.8 158V150.7H55.8V158H54.8ZM59.4 158.1C57.8 158.1 56.9 157 56.9 155.4C56.9 153.7 57.8 152.6 59.3 152.6C61 152.6 61.8 153.8 61.6 155.5H57.8C57.8 156.7 58.4 157.2 59.3 157.2C60 157.2 60.5 156.8 60.6 156.3H61.6C61.5 157.4 60.6 158.1 59.4 158.1ZM59.4 153.4C58.6 153.4 58.1 153.9 58 154.8H60.7C60.7 153.9 60.1 153.4 59.4 153.4ZM65.1 158.1C63.6 158.1 62.5 157 62.5 155.4C62.5 153.8 63.5 152.7 65.1 152.7C66.4 152.7 67.3 153.5 67.4 154.6H66.4C66.3 153.9 65.8 153.6 65.1 153.6C64.1 153.6 63.6 154.4 63.6 155.5C63.6 156.7 64.2 157.4 65.1 157.4C65.9 157.4 66.4 157 66.5 156.3H67.5C67.4 157.3 66.4 158.1 65.1 158.1ZM70 158C69.1 158 68.9 157.6 68.9 156.9V153.6H67.9V152.8H68.9V151.3L69.9 151.2V152.9H71.1V153.7H69.9V156.9C69.9 157.2 70 157.3 70.4 157.3H71.1V158.2H70V158ZM75.3 158L73.7 150.7H74.9L75.7 154.7L76.1 156.8H76.2L77.7 150.7H79.1L80.6 156.8H80.7L81.1 154.7L81.9 150.7H83.1L81.5 158H80L78.5 152.1H78.4L76.9 158H75.3ZM85.4 158.1C84.1 158.1 83.2 157.1 83.2 155.4C83.2 153.6 84.1 152.7 85.4 152.7C86.3 152.7 87 153.2 87.2 153.8H87.3V152.8H88.3V158.1H87.3V157H87.2C86.9 157.6 86.3 158.1 85.4 158.1ZM85.7 157.2C86.7 157.2 87.2 156.4 87.2 155.6V155C87.2 154.2 86.7 153.4 85.7 153.4C84.8 153.4 84.2 154 84.2 155.3C84.3 156.6 84.9 157.2 85.7 157.2ZM89.7 158V150.7H90.7V158H89.7ZM92.2 158V150.7H93.2V158H92.2ZM96.7 158.1C95.1 158.1 94.2 157 94.2 155.4C94.2 153.7 95.1 152.6 96.6 152.6C98.3 152.6 99.1 153.8 98.9 155.5H95.1C95.1 156.7 95.7 157.2 96.5 157.2C97.2 157.2 97.7 156.8 97.8 156.3H98.8C98.9 157.4 98 158.1 96.7 158.1ZM96.7 153.4C95.9 153.4 95.4 153.9 95.3 154.8H98C98 153.9 97.5 153.4 96.7 153.4ZM101.6 158C100.7 158 100.5 157.6 100.5 156.9V153.6H99.5V152.8H100.5V151.3L101.5 151.2V152.9H102.7V153.7H101.5V156.9C101.5 157.2 101.6 157.3 102 157.3H102.7V158.2H101.6V158Z" fill="black"/>
<mask id="mask1_12659_1019" style="mask-type:luminance" maskUnits="userSpaceOnUse" x="42" y="164" width="24" height="24">
<path d="M66 164H42V188H66V164Z" fill="white"/>
</mask>
<g mask="url(#mask1_12659_1019)">
<path d="M65.6001 178.9C64.0001 185.3 57.5001 189.2 51.1001 187.6C44.7001 186 40.8001 179.5 42.4001 173.1C44.0001 166.7 50.5001 162.8 56.9001 164.4C63.3001 166 67.2001 172.5 65.6001 178.9Z" fill="#F7931A"/>
<path d="M59.3 174.3C59.5 172.7 58.3001 171.8 56.7001 171.3L57.2001 169.1L55.9001 168.8L55.4001 170.9C55.1001 170.8 54.7 170.7 54.3 170.6L54.8 168.5L53.5 168.2L53 170.4C52.7 170.3 52.4001 170.3 52.2001 170.2L50.4001 169.7L50.1 171.1L51.1 171.3C51.6 171.4 51.7001 171.8 51.7001 172.1L51.1 174.5L50 178C49.9 178.2 49.8001 178.4 49.4001 178.3L48.4001 178.1L47.8 179.6L49.5 180C49.8 180.1 50.1001 180.2 50.4001 180.2L49.9001 182.4L51.2001 182.7L51.7001 180.5C52.1001 180.6 52.4001 180.7 52.7001 180.8L52.2001 183L53.5 183.3L54 181.1C56.2 181.5 57.9 181.4 58.6 179.3C59.2 177.7 58.6001 176.7 57.4001 176.1C58.5001 176 59.1 175.5 59.3 174.3ZM56.3 178.5C55.9 180.1 53.1001 179.3 52.2001 179L52.9001 176.1C53.8001 176.4 56.7 176.8 56.3 178.5ZM56.7001 174.3C56.3001 175.8 54 175 53.3 174.9L54 172.3C54.7 172.4 57.1001 172.7 56.7001 174.3Z" fill="white"/>
</g>
<path d="M75.3 181.5V171.3H79.9C81.9 171.3 82.9 172.3 82.9 173.9C82.9 175 82.4 175.9 81.2 176.2V176.3C82.5 176.6 83.1 177.5 83.1 178.7C83.1 180.5 81.8 181.5 79.7 181.5H75.3ZM76.5 175.8H79.8C81.1 175.8 81.7 175.1 81.7 174.1C81.7 173 80.9 172.3 79.6 172.3H76.4V175.8H76.5ZM76.5 180.5H79.7C81.3 180.5 82 179.7 82 178.6C82 177.4 81.2 176.8 79.9 176.8H76.5V180.5ZM84.9 172.9V171.3H86V172.9H84.9ZM84.9 181.5V174.1H86V181.5H84.9ZM90.1 181.5C89 181.5 88.7 181 88.7 180.1V175.1H87.3V174.2H88.7V172L89.8 171.8V174.2H91.5V175.1H89.8V179.9C89.8 180.4 90 180.5 90.5 180.5H91.6V181.5H90.1ZM95.8 181.6C93.7 181.6 92.3 180.1 92.3 177.8C92.3 175.5 93.7 174 95.9 174C97.6 174 98.9 175 99 176.6H97.9C97.7 175.5 96.9 175 95.8 175C94.3 175 93.4 176.1 93.4 177.8C93.4 179.6 94.3 180.6 95.8 180.6C97 180.6 97.8 179.9 97.9 178.9H99C98.8 180.6 97.5 181.6 95.8 181.6ZM103.6 181.6C101.5 181.6 100 180.1 100 177.8C100 175.5 101.4 174 103.6 174C105.7 174 107.1 175.5 107.1 177.8C107.1 180.1 105.7 181.6 103.6 181.6ZM103.6 180.6C105 180.6 106 179.6 106 177.8C106 176 105.1 175 103.6 175C102.2 175 101.2 176 101.2 177.9C101.2 179.6 102.1 180.6 103.6 180.6ZM108.7 172.9V171.3H109.8V172.9H108.7ZM108.7 181.5V174.1H109.8V181.5H108.7ZM112 181.5V174.1H113.1V175.6H113.2C113.6 174.5 114.7 174 115.8 174C117.3 174 118.4 174.9 118.4 177.1V181.4H117.3V177.3C117.3 175.6 116.7 174.9 115.4 174.9C114 174.9 113.1 176 113.1 177.4V181.4H112V181.5Z" fill="black"/>
<path d="M257.7 173.7L252 179.5L246.3 173.7L247.4 172.6L251.8 177.1L251.9 177.2L252 177.1L256.4 172.6L257.7 173.7Z" fill="black" stroke="white" stroke-width="0.4"/>
<path d="M38 204.5H138C142.1 204.5 145.5 207.9 145.5 212V242C145.5 246.1 142.1 249.5 138 249.5H38C33.9 249.5 30.5 246.1 30.5 242V212C30.5 207.9 33.9 204.5 38 204.5Z" fill="white"/>
<path d="M38 204.5H138C142.1 204.5 145.5 207.9 145.5 212V242C145.5 246.1 142.1 249.5 138 249.5H38C33.9 249.5 30.5 246.1 30.5 242V212C30.5 207.9 33.9 204.5 38 204.5Z" stroke="#E1E1E1"/>
<path opacity="0.5" d="M42 222L44.6 214.7H46.1L48.7 222H47.6L47 220.3H43.8L43.2 222H42ZM44 219.4H46.7L45.9 217.1L45.4 215.6H45.3L44.8 217.1L44 219.4ZM49.5 222V216.7H50.5V217.7H50.6C50.9 216.9 51.6 216.6 52.4 216.6C53.2 216.6 53.8 216.9 54.1 217.8H54.2C54.5 217 55.2 216.6 56.1 216.6C57.1 216.6 57.9 217.2 57.9 218.8V221.9H56.9V219C56.9 217.9 56.5 217.4 55.7 217.4C54.8 217.4 54.3 218.1 54.3 219V221.9H53.3V219C53.3 217.9 52.9 217.4 52.1 217.4C51.2 217.4 50.7 218.1 50.7 219V221.9H49.5V222ZM61.4 222.1C59.8 222.1 58.8 221 58.8 219.4C58.8 217.8 59.8 216.7 61.4 216.7C62.9 216.7 64 217.7 64 219.4C64 221 63 222.1 61.4 222.1ZM61.4 221.2C62.3 221.2 62.9 220.5 62.9 219.3C62.9 218.1 62.3 217.4 61.4 217.4C60.5 217.4 59.9 218.1 59.9 219.3C59.9 220.6 60.5 221.2 61.4 221.2ZM66.9 222.1C65.7 222.1 65 221.4 65 220V216.7H66V219.7C66 220.7 66.4 221.2 67.3 221.2C68.2 221.2 68.7 220.5 68.7 219.5V216.6H69.7V221.9H68.7L68.6 220.8H68.5C68.4 221.7 67.7 222.1 66.9 222.1ZM71.2 222V216.7H72.2V217.7H72.3C72.6 216.9 73.3 216.6 74.1 216.6C75.2 216.6 76 217.2 76 218.8V221.9H75V219C75 217.9 74.6 217.4 73.8 217.4C72.9 217.4 72.3 218.1 72.3 219V221.9H71.2V222ZM78.7 222C77.8 222 77.6 221.6 77.6 220.9V217.6H76.6V216.8H77.6V215.3L78.6 215.2V216.9H79.8V217.7H78.6V220.9C78.6 221.2 78.7 221.3 79.1 221.3H79.8V222.2H78.7V222Z" fill="black"/>
<path d="M45.9001 239.1C44.0001 239.1 42.8 237.5 42.8 234.7C42.8 231.8 44.0001 230.3 45.9001 230.3C47.8001 230.3 48.9001 231.9 48.9001 234.7C49.0001 237.6 47.7001 239.1 45.9001 239.1ZM45.9001 238.3C47.2001 238.3 48 237.1 48 234.7C48 232.3 47.2001 231.1 45.9001 231.1C44.6001 231.1 43.8 232.3 43.8 234.7C43.8 237.1 44.6001 238.3 45.9001 238.3ZM50.1 239V237.9H51.1V239H50.1ZM55.3 239.1C53.4 239.1 52.2001 237.5 52.2001 234.7C52.2001 231.8 53.4 230.3 55.3 230.3C57.2 230.3 58.3 231.9 58.3 234.7C58.4 237.6 57.1 239.1 55.3 239.1ZM55.3 238.3C56.6 238.3 57.4001 237.1 57.4001 234.7C57.4001 232.3 56.6 231.1 55.3 231.1C54 231.1 53.2001 232.3 53.2001 234.7C53.2001 237.1 54 238.3 55.3 238.3ZM59.4001 239V238.8C59.4001 235.5 63.9001 235.1 63.9001 232.8C63.9001 231.8 63.2 231.1 62.1 231.1C61 231.1 60.2 231.8 60.3 233H59.4001C59.3001 231.4 60.5001 230.3 62.2001 230.3C63.8001 230.3 64.9001 231.3 64.9001 232.8C64.9001 235.5 60.9 236.2 60.6 238.2H65V239.1H59.4001V239Z" fill="black"/>
<path d="M162 204.5H262C266.1 204.5 269.5 207.9 269.5 212V242C269.5 246.1 266.1 249.5 262 249.5H162C157.9 249.5 154.5 246.1 154.5 242V212C154.5 207.9 157.9 204.5 162 204.5Z" fill="white"/>
<path d="M162 204.5H262C266.1 204.5 269.5 207.9 269.5 212V242C269.5 246.1 266.1 249.5 262 249.5H162C157.9 249.5 154.5 246.1 154.5 242V212C154.5 207.9 157.9 204.5 162 204.5Z" stroke="#E1E1E1"/>
<path opacity="0.5" d="M170.1 218C169.3 218 168.8 217.5 168.3 217.5C167.9 217.5 167.8 217.8 167.8 218.1H167.2C167.1 217 167.6 216.7 168.2 216.7C168.9 216.7 169.4 217.2 169.9 217.2C170.3 217.2 170.5 216.9 170.5 216.6H171.1C171.3 217.5 170.8 218 170.1 218ZM170.1 220.2C169.3 220.2 168.8 219.6 168.3 219.6C168 219.6 167.8 219.9 167.8 220.2H167.2C167.1 219.1 167.7 218.8 168.2 218.8C168.9 218.8 169.4 219.4 169.9 219.4C170.3 219.4 170.5 219.2 170.5 218.8H171.1C171.3 219.7 170.8 220.2 170.1 220.2ZM178.6 222.1C176.7 222.1 175.6 221 175.6 219.3V214.7H176.7V219.3C176.7 220.5 177.4 221.1 178.6 221.1C179.9 221.1 180.5 220.4 180.5 219.3V214.7H181.6V219.3C181.6 221 180.4 222.1 178.6 222.1ZM185.7 222.1C183.8 222.1 182.8 221.1 182.8 219.7H183.9C183.9 220.6 184.5 221.2 185.7 221.2C186.7 221.2 187.4 220.8 187.4 220.1C187.4 219.2 186.9 219 185.5 218.8C183.8 218.5 183 218 183 216.8C183 215.5 184 214.7 185.7 214.7C187.4 214.7 188.4 215.5 188.4 216.8H187.3C187.3 215.9 186.6 215.5 185.7 215.5C184.7 215.5 184.2 215.9 184.2 216.6C184.2 217.4 184.8 217.6 186.2 217.8C187.5 218 188.7 218.3 188.7 220C188.6 221.2 187.6 222.1 185.7 222.1ZM189.9 222V214.7H192.8C194.9 214.7 196.1 216.2 196.1 218.3C196.1 220.4 194.9 221.9 192.8 221.9H189.9V222ZM191 221.1H192.7C194.1 221.1 195 220.2 195 218.4C195 216.6 194.1 215.7 192.7 215.7H191V221.1Z" fill="black"/>
<path d="M166.7 239V238.8C166.7 235.5 171.2 235.1 171.2 232.8C171.2 231.8 170.5 231.1 169.4 231.1C168.3 231.1 167.5 231.8 167.6 233H166.7C166.6 231.4 167.8 230.3 169.5 230.3C171.1 230.3 172.2 231.3 172.2 232.8C172.2 235.5 168.2 236.2 167.9 238.2H172.4V239.1H166.7V239ZM176.3 239.1C174.5 239.1 173.4 238 173.5 236.3H174.4C174.4 237.4 175.1 238.2 176.3 238.2C177.5 238.2 178.2 237.5 178.2 236.5C178.2 235.4 177.5 234.9 176.4 234.9H175.5V234.1H176.4C177.5 234.1 178.1 233.4 178.1 232.5C178.1 231.5 177.4 231 176.3 231C175.1 231 174.4 231.7 174.4 232.9H173.5C173.5 231.3 174.6 230.2 176.3 230.2C178 230.2 179 231.1 179 232.5C179 233.5 178.4 234.2 177.6 234.5V234.6C178.6 234.8 179.1 235.6 179.1 236.7C179.2 238.1 178 239.1 176.3 239.1ZM183.2 239.1C181.4 239.1 180.3 238 180.4 236.3H181.3C181.3 237.4 182 238.2 183.2 238.2C184.4 238.2 185.1 237.5 185.1 236.5C185.1 235.4 184.4 234.9 183.3 234.9H182.4V234.1H183.3C184.4 234.1 185 233.4 185 232.5C185 231.5 184.3 231 183.2 231C182 231 181.3 231.7 181.3 232.9H180.4C180.4 231.3 181.5 230.2 183.2 230.2C184.9 230.2 185.9 231.1 185.9 232.5C185.9 233.5 185.3 234.2 184.5 234.5V234.6C185.5 234.8 186 235.6 186 236.7C186.1 238.1 185 239.1 183.2 239.1ZM191.7 239V236.8H187.4V236L191.4 230.3H192.7V235.9H193.9V236.7H192.7V238.9H191.7V239ZM188.4 236H191.7V231.3L188.4 236ZM195 239V237.9H196V239H195ZM200.3 239.1C198.3 239.1 197.3 237.7 197.3 235.1C197.3 231.8 198.4 230.3 200.5 230.3C202.1 230.3 203.1 231.2 203.2 232.5H202.3C202.2 231.6 201.5 231.1 200.5 231.1C198.7 231.1 198.3 232.7 198.3 234.9H198.4C198.7 234 199.5 233.4 200.7 233.4C202.3 233.4 203.4 234.5 203.4 236.2C203.2 238 202 239.1 200.3 239.1ZM200.3 238.2C201.5 238.2 202.2 237.4 202.2 236.1C202.2 234.8 201.4 234.1 200.3 234.1C199.1 234.1 198.3 235 198.3 236.2C198.4 237.5 199.2 238.2 200.3 238.2ZM207.4 239.1C205.4 239.1 204.4 237.7 204.4 235.1C204.4 231.8 205.5 230.3 207.6 230.3C209.2 230.3 210.2 231.2 210.3 232.5H209.4C209.3 231.6 208.6 231.1 207.6 231.1C205.8 231.1 205.4 232.7 205.4 234.9H205.5C205.8 234 206.6 233.4 207.8 233.4C209.4 233.4 210.5 234.5 210.5 236.2C210.3 238 209.1 239.1 207.4 239.1ZM207.4 238.2C208.6 238.2 209.3 237.4 209.3 236.1C209.3 234.8 208.5 234.1 207.4 234.1C206.2 234.1 205.4 235 205.4 236.2C205.5 237.5 206.3 238.2 207.4 238.2Z" fill="black"/>
<path d="M38 258.5H262C266.1 258.5 269.5 261.9 269.5 266V294C269.5 298.1 266.1 301.5 262 301.5H38C33.9 301.5 30.5 298.1 30.5 294V266C30.5 261.9 33.9 258.5 38 258.5Z" fill="white"/>
<path d="M38 258.5H262C266.1 258.5 269.5 261.9 269.5 266V294C269.5 298.1 266.1 301.5 262 301.5H38C33.9 301.5 30.5 298.1 30.5 294V266C30.5 261.9 33.9 258.5 38 258.5Z" stroke="#E1E1E1"/>
<path d="M48 266H132C135.3 266 138 268.7 138 272C138 275.3 135.3 278 132 278H48C44.7 278 42 275.3 42 272C42 268.7 44.7 266 48 266Z" fill="#D9D9D9"/>
<path d="M38 310.5H262C266.1 310.5 269.5 313.9 269.5 318V346C269.5 350.1 266.1 353.5 262 353.5H38C33.9 353.5 30.5 350.1 30.5 346V318C30.5 313.9 33.9 310.5 38 310.5Z" fill="white"/>
<path d="M38 310.5H262C266.1 310.5 269.5 313.9 269.5 318V346C269.5 350.1 266.1 353.5 262 353.5H38C33.9 353.5 30.5 350.1 30.5 346V318C30.5 313.9 33.9 310.5 38 310.5Z" stroke="#E1E1E1"/>
<path d="M48 318H132C135.3 318 138 320.7 138 324C138 327.3 135.3 330 132 330H48C44.7 330 42 327.3 42 324C42 320.7 44.7 318 48 318Z" fill="#D9D9D9"/>
<path d="M38 362.5H262C266.1 362.5 269.5 365.9 269.5 370V395C269.5 399.1 266.1 402.5 262 402.5H38C33.9 402.5 30.5 399.1 30.5 395V370C30.5 365.9 33.9 362.5 38 362.5Z" fill="#F59E0B"/>
<path d="M38 362.5H262C266.1 362.5 269.5 365.9 269.5 370V395C269.5 399.1 266.1 402.5 262 402.5H38C33.9 402.5 30.5 399.1 30.5 395V370C30.5 365.9 33.9 362.5 38 362.5Z" stroke="#F59E0B"/>
<path d="M126.2 388.1C123.4 388.1 122 386.8 122 384.8H124.2C124.2 385.8 124.8 386.5 126.3 386.5C127.4 386.5 128.1 386.1 128.1 385.3C128.1 384.3 127.6 384.1 125.7 383.8C123.3 383.4 122.1 382.6 122.1 380.8C122.1 378.9 123.6 377.7 126.1 377.7C128.5 377.7 130 378.9 130 380.7H127.8C127.8 379.7 127 379.3 126 379.3C125 379.3 124.3 379.7 124.3 380.5C124.3 381.4 125 381.6 126.8 381.9C128.5 382.2 130.3 382.6 130.3 385.1C130.4 386.9 129 388.1 126.2 388.1ZM136.3 388.1C133.5 388.1 132 386.5 132 384.1V377.8H134.2V384.1C134.2 385.5 135 386.2 136.4 386.2C137.8 386.2 138.6 385.4 138.6 384.1V377.8H140.8V384.1C140.6 386.6 139 388.1 136.3 388.1ZM142.8 388V377.8H147.8C149.9 377.8 150.9 378.8 150.9 380.4C150.9 381.5 150.4 382.3 149.4 382.6V382.7C150.6 382.9 151.2 383.9 151.2 385C151.2 386.9 149.9 387.9 147.5 387.9H142.8V388ZM144.9 382H147.3C148.3 382 148.7 381.5 148.7 380.7C148.7 379.9 148.1 379.4 147.2 379.4H144.9V382ZM144.9 386.3H147.3C148.5 386.3 149 385.8 149 384.9C149 384 148.4 383.5 147.4 383.5H144.9V386.3ZM152.8 388V377.8H156.1L158.2 384.5H158.3L160.4 377.8H163.7V388H161.6V384V380.1H161.5L159.2 388H157.4L155.1 380.1H155V384V388H152.8ZM165.8 388V377.8H168V388H165.8ZM172.2 388V379.7H169.2V377.8H177.5V379.7H174.4V388H172.2Z" fill="white"/>
</g>
<mask id="mask2_12659_1019" style="mask-type:luminance" maskUnits="userSpaceOnUse" x="0" y="74" width="690" height="368">
<path d="M16 74H674C682.8 74 690 81.2 690 90V426C690 434.8 682.8 442 674 442H16C7.2 442 0 434.8 0 426V90C0 81.2 7.2 74 16 74Z" fill="white"/>
</mask>
<g mask="url(#mask2_12659_1019)">
<path d="M16 74.5H674C682.6 74.5 689.5 81.4 689.5 90V426C689.5 434.6 682.6 441.5 674 441.5H16C7.4 441.5 0.5 434.6 0.5 426V90C0.5 81.4 7.4 74.5 16 74.5Z" stroke="#D4D4D4"/>
</g>
<g filter="url(#filter0_dd_12659_1019)">
<mask id="mask3_12659_1019" style="mask-type:luminance" maskUnits="userSpaceOnUse" x="262" y="28" width="340" height="459">
<path d="M602 28H262V487H602V28Z" fill="white"/>
</mask>
<g mask="url(#mask3_12659_1019)">
<path d="M602 28H262V487H602V28Z" fill="white"/>
<path d="M602 28H262V318H602V28Z" fill="white"/>
<path d="M283.1 62.5V53.8H284.4V62.5H283.1ZM286.5 62.5V53.8H288.1L292.6 60.8H292.7L292.6 57.9V53.8H293.9V62.5H292.4L287.9 55.6H287.8V58.3V62.5H286.5ZM298.2 62.5L295 53.8H296.5L298.6 59.9L299.1 61.3H299.2L299.7 59.9L301.8 53.8H303.2L300 62.5H298.2ZM307.8 62.6C305.2 62.6 303.5 60.9 303.5 58.1C303.5 55.3 305.2 53.6 307.8 53.6C310.4 53.6 312.1 55.3 312.1 58.1C312.1 60.9 310.4 62.6 307.8 62.6ZM307.8 61.5C309.6 61.5 310.8 60.3 310.8 58.2C310.8 56.1 309.6 54.9 307.8 54.9C306 54.9 304.8 56.1 304.8 58.2C304.8 60.3 306 61.5 307.8 61.5ZM313.7 62.5V53.8H315V62.5H313.7ZM320.8 62.6C318.2 62.6 316.5 60.9 316.5 58.1C316.5 55.3 318.2 53.6 320.8 53.6C323 53.6 324.5 54.8 324.8 56.6H323.5C323.3 55.5 322.3 54.7 320.8 54.7C319 54.7 317.9 55.9 317.9 58C317.9 60.1 319 61.3 320.8 61.3C322.2 61.3 323.2 60.5 323.5 59.4H324.8C324.6 61.4 323 62.6 320.8 62.6ZM326.3 62.5V53.8H332.4V54.9H327.6V57.5H331.8V58.6H327.6V61.4H332.4V62.5H326.3Z" fill="#696969"/>
<path d="M340 63V60.4H338.5V59H340V56.6H338.5V55.2H340V52.8H341.6V55.2H344V52.8H345.5V55.2H347V56.6H345.5V59H347V60.4H345.5V63H344V60.4H341.6V63H340ZM341.5 59H343.9V56.6H341.5V59ZM348.6 63V52.8H353.5C355.5 52.8 356.6 53.9 356.6 55.4C356.6 56.5 356.1 57.4 355 57.6V57.7C356.2 57.9 356.9 58.9 356.9 60.1C356.9 62 355.6 63 353.3 63H348.6ZM350.4 57.1H353.1C354.2 57.1 354.7 56.5 354.7 55.7C354.7 54.8 354 54.3 353 54.3H350.4V57.1ZM350.4 61.6H353.1C354.4 61.6 355 61 355 60C355 59 354.3 58.5 353.2 58.5H350.4V61.6ZM360.4 63V54.4H357.3V52.8H365.4V54.4H362.2V63H360.4ZM370.7 63.1C367.7 63.1 365.6 61.1 365.6 57.9C365.6 54.6 367.6 52.7 370.7 52.7C373.3 52.7 375.1 54.1 375.4 56.3H373.5C373.2 55.1 372.2 54.3 370.7 54.3C368.8 54.3 367.6 55.6 367.6 57.9C367.6 60.3 368.8 61.5 370.7 61.5C372.2 61.5 373.3 60.7 373.5 59.5H375.4C375.1 61.7 373.2 63.1 370.7 63.1ZM375.4 63L379.2 57.5L375.9 52.8H378.1L380.4 56.3H380.5L382.8 52.8H385L381.7 57.5L385.5 63H383.3L380.5 58.8H380.4L377.6 63H375.4ZM385.4 63L389.2 57.5L385.9 52.8H388.1L390.4 56.3H390.5L392.8 52.8H395L391.7 57.5L395.5 63H393.3L390.5 58.8H390.4L387.6 63H385.4ZM395.3 63L399.1 57.5L395.8 52.8H398L400.3 56.3H400.4L402.7 52.8H404.9L401.6 57.5L405.4 63H403L400.2 58.8H400.1L397.3 63H395.3ZM405.2 63L409 57.5L405.7 52.8H407.9L410.2 56.3H410.3L412.6 52.8H414.8L411.5 57.5L415.3 63H413L410.2 58.8H410.1L407.3 63H405.2Z" fill="black"/>
<path d="M511.2 63.6C508.9 63.6 507.5 61.7 507.5 58.4C507.5 55.1 509 53.2 511.3 53.2C513.6 53.2 515 55.1 515 58.4C515 61.8 513.5 63.6 511.2 63.6ZM511.3 62.1C512.5 62.1 513.3 61.1 513.3 58.4C513.3 55.7 512.5 54.7 511.3 54.7C510.1 54.7 509.3 55.7 509.3 58.4C509.3 61.2 510 62.1 511.3 62.1ZM518.3 63.5V56.5H515.8V55.2H516.2C517.5 55.2 518.3 54.5 518.4 53.5H520.1V63.6H518.3V63.5ZM522.1 57.7V56H523.8V57.7H522.1ZM522.1 63.5V61.8H523.8V63.5H522.1ZM525.1 63.5V63.2C525.1 59.1 530.1 58.7 530.1 56.3C530.1 55.3 529.4 54.7 528.5 54.7C527.5 54.7 526.8 55.4 526.8 56.5H525.1C525 54.5 526.5 53.2 528.6 53.2C530.6 53.2 531.9 54.3 531.9 56.2C531.9 59.2 527.9 60 527.3 61.9H532.1V63.4H525.1V63.5ZM536.8 63.6C534.6 63.6 533.3 62.3 533.2 60.4H534.9C534.9 61.5 535.6 62.2 536.7 62.2C537.8 62.2 538.5 61.6 538.5 60.6C538.5 59.6 537.8 59.1 536.9 59.1H535.7V57.8H536.8C537.8 57.8 538.4 57.2 538.4 56.3C538.4 55.4 537.7 54.9 536.7 54.9C535.6 54.9 534.9 55.6 534.9 56.6H533.2C533.2 54.7 534.6 53.4 536.8 53.4C538.8 53.4 540.2 54.5 540.2 56.1C540.2 57.2 539.6 58 538.7 58.4V58.5C539.8 58.8 540.4 59.7 540.4 60.8C540.4 62.4 539 63.6 536.8 63.6ZM541.9 57.7V56H543.6V57.7H541.9ZM541.9 63.5V61.8H543.6V63.5H541.9ZM549.7 63.5V61.1H544.9V59.8L549.3 53.4H551.5V59.7H552.8V61.1H551.5V63.5H549.7ZM546.6 59.7H549.7V55.3L546.6 59.7ZM557.6 63.6C555.5 63.6 554.1 62.3 554 60.4H555.8C555.8 61.4 556.5 62.1 557.6 62.1C558.8 62.1 559.5 61.3 559.5 60.2C559.5 59 558.8 58.2 557.6 58.2C556.7 58.2 556.1 58.6 555.9 59.3H554.2L554.5 53.4H560.7V54.9H556L555.9 57.4H556C556.4 56.9 557.2 56.6 558 56.6C560 56.6 561.3 58 561.3 60C561.3 62.2 559.9 63.6 557.6 63.6Z" fill="#16A34A"/>
<path d="M574 50.5C570.1 50.5 567 53.6 567 57.5C567 61.4 570.1 64.5 574 64.5C577.9 64.5 581 61.4 581 57.5C581 53.6 577.9 50.5 574 50.5ZM574.6 61H573.4V57.5H572.2V56.3H574.5V61H574.6ZM574 55.3C573.6 55.3 573.3 55 573.3 54.6C573.3 54.2 573.6 53.9 574 53.9C574.4 53.9 574.7 54.2 574.7 54.6C574.7 55 574.4 55.3 574 55.3Z" fill="#16A34A"/>
<path d="M582 84H282V112H582V84Z" fill="#FFF3CD"/>
<path d="M405.2 103V92.8H409.4C411.6 92.8 413 94 413 96.1C413 98.1 411.7 99.4 409.4 99.4H407V103H405.2ZM409.1 94.4H407V98H409.1C410.2 98 411.1 97.5 411.1 96.2C411.1 94.9 410.3 94.4 409.1 94.4ZM417.3 103.1C415 103.1 413.7 101.6 413.7 99.3C413.7 96.9 415 95.4 417.2 95.4C419.6 95.4 420.8 97.2 420.6 99.6H415.4C415.4 101 416.1 101.8 417.2 101.8C418.1 101.8 418.7 101.4 418.9 100.7H420.6C420.4 102.2 419.1 103.1 417.3 103.1ZM417.3 96.7C416.3 96.7 415.6 97.3 415.5 98.5H419C418.9 97.3 418.2 96.7 417.3 96.7ZM422.1 103V95.6H423.8L423.9 97H424C424.4 96 425.4 95.4 426.5 95.4C428 95.4 429.1 96.3 429.1 98.5V103H427.3V98.9C427.3 97.5 426.8 96.8 425.7 96.8C424.5 96.8 423.8 97.7 423.8 98.8V102.9H422.1V103ZM433.4 103.1C431.6 103.1 430.4 101.8 430.4 99.3C430.4 96.8 431.6 95.4 433.4 95.4C434.6 95.4 435.5 96 435.9 96.9H436V92.8H437.8V103H436L435.9 101.6H435.8C435.5 102.5 434.6 103.1 433.4 103.1ZM434 101.7C435.2 101.7 435.9 100.7 435.9 99.7V98.9C435.9 97.8 435.3 96.9 434 96.9C432.9 96.9 432.1 97.7 432.1 99.3C432.1 100.9 432.9 101.7 434 101.7ZM439.5 94.5V92.8H441.3V94.5H439.5ZM439.5 103V95.6H441.3V103H439.5ZM443.2 103V95.6H444.9L445 97H445.1C445.5 96 446.5 95.4 447.6 95.4C449.1 95.4 450.2 96.3 450.2 98.5V103H448.4V98.9C448.4 97.5 447.9 96.8 446.8 96.8C445.6 96.8 444.9 97.7 444.9 98.8V102.9H443.2V103ZM455 105.5C453.1 105.5 452 104.6 451.8 103.3H453.5C453.6 103.9 454.2 104.2 455 104.2C456.3 104.2 456.9 103.7 456.9 102.5V101.1H456.8C456.5 102 455.6 102.5 454.4 102.5C452.6 102.5 451.4 101.2 451.4 98.9C451.4 96.6 452.6 95.3 454.4 95.3C455.5 95.3 456.4 95.9 456.7 96.7H456.8L456.9 95.4H458.6V102.1C458.6 104.6 457.1 105.5 455 105.5ZM455 101.2C456.2 101.2 456.8 100.3 456.8 99.4V98.5C456.8 97.6 456.2 96.7 455 96.7C453.9 96.7 453.2 97.5 453.2 98.9C453.2 100.5 454 101.2 455 101.2Z" fill="#B13600"/>
<path d="M282 139L285.1 130.3H286.9L290 139H288.6L287.9 137H284L283.3 139H282ZM284.4 135.9H287.6L286.6 133.2L286 131.4L285.4 133.2L284.4 135.9ZM291.2 139V130.3H293.2L295.6 137L298 130.3H300V139H298.7V134.9V131.6H298.6L296 139H294.9L292.3 131.6H292.2V134.9V139H291.2ZM305.9 139.1C303.3 139.1 301.6 137.4 301.6 134.6C301.6 131.8 303.3 130.1 305.9 130.1C308.5 130.1 310.2 131.8 310.2 134.6C310.2 137.4 308.5 139.1 305.9 139.1ZM305.9 138C307.7 138 308.9 136.8 308.9 134.7C308.9 132.6 307.7 131.4 305.9 131.4C304.1 131.4 302.9 132.6 302.9 134.7C303 136.8 304.1 138 305.9 138ZM315.3 139.1C313.1 139.1 311.7 137.8 311.7 135.8V130.3H313V135.8C313 137.3 313.9 138 315.3 138C316.8 138 317.6 137.2 317.6 135.8V130.3H318.9V135.8C318.9 137.8 317.5 139.1 315.3 139.1ZM320.9 139V130.3H322.5L327 137.3H327.1L327 134.4V130.3H328.3V139H326.8L322.3 132.1H322.2V134.8V139H320.9ZM332.2 139V131.4H329.5V130.3H336.3V131.4H333.5V139H332.2Z" fill="#696969"/>
<path d="M289.3 167.2C285.2 167.2 282.7 163.8 282.7 158.3C282.7 152.6 285.3 149.5 289.3 149.5C293.4 149.5 295.8 152.9 295.8 158.4C295.9 164 293.3 167.2 289.3 167.2ZM289.3 164.2C291.1 164.2 292.3 162.9 292.3 158.3C292.3 153.7 291 152.4 289.3 152.4C287.5 152.4 286.3 153.7 286.3 158.3C286.3 162.9 287.5 164.2 289.3 164.2ZM297.8 167V163.8H301.2V167H297.8ZM309.8 167.2C305.7 167.2 303.2 163.8 303.2 158.3C303.2 152.6 305.8 149.5 309.8 149.5C313.9 149.5 316.3 152.9 316.3 158.4C316.3 164 313.7 167.2 309.8 167.2ZM309.8 164.2C311.6 164.2 312.8 162.9 312.8 158.3C312.8 153.7 311.5 152.4 309.8 152.4C308 152.4 306.8 153.7 306.8 158.3C306.8 162.9 308 164.2 309.8 164.2ZM318 167V166.5C318 159.3 326.4 158.7 326.4 154.8C326.4 153.4 325.4 152.5 324 152.5C322.4 152.5 321.4 153.5 321.6 155.3H318.1C318 151.7 320.5 149.4 324.3 149.4C327.8 149.4 330.2 151.4 330.2 154.6C330.2 159.7 323.9 160.9 322.6 163.8H330.4V166.9H318V167ZM337.6 159V148.5H342.8C344.9 148.5 346 149.6 346 151.2C346 152.3 345.4 153.2 344.4 153.5V153.6C345.6 153.8 346.3 154.8 346.3 156C346.3 158 344.9 159 342.5 159H337.6ZM339.8 152.8H342.2C343.2 152.8 343.7 152.3 343.7 151.5C343.7 150.6 343.1 150.2 342.1 150.2H339.7V152.8H339.8ZM339.8 157.3H342.3C343.5 157.3 344 156.7 344 155.9C344 154.9 343.4 154.5 342.4 154.5H339.9V157.3H339.8ZM350.1 159V150.4H347V148.5H355.5V150.4H352.3V159H350.1ZM361.5 159.1C358.3 159.1 356.2 157.1 356.2 153.7C356.2 150.3 358.3 148.3 361.5 148.3C364.2 148.3 366.1 149.8 366.4 152H364.1C363.8 150.9 362.9 150.2 361.5 150.2C359.7 150.2 358.5 151.4 358.5 153.7C358.5 156 359.7 157.2 361.5 157.2C362.8 157.2 363.9 156.5 364.1 155.4H366.4C366.1 157.6 364.1 159.1 361.5 159.1Z" fill="black"/>
<path d="M282 196L285.1 187.3H286.9L290 196H288.6L287.9 194H284L283.3 196H282ZM284.4 192.9H287.6L286.6 190.2L286 188.4L285.4 190.2L284.4 192.9ZM291.2 196V187.3H294.7C297.2 187.3 298.7 189.1 298.7 191.7C298.7 194.3 297.3 196.1 294.7 196.1H291.2V196ZM292.5 194.9H294.5C296.2 194.9 297.3 193.9 297.3 191.6C297.3 189.3 296.2 188.4 294.5 188.4H292.5V194.9ZM300.2 196V187.3H303.7C306.2 187.3 307.7 189.1 307.7 191.7C307.7 194.3 306.3 196.1 303.7 196.1H300.2V196ZM301.5 194.9H303.5C305.2 194.9 306.3 193.9 306.3 191.6C306.3 189.3 305.2 188.4 303.5 188.4H301.5V194.9ZM309.2 196V187.3H313.3C315.2 187.3 316.2 188.2 316.2 189.7C316.2 190.8 315.6 191.5 314.7 191.8V191.9C315.6 192.1 316 192.6 316 193.6V195.1C316 195.4 316 195.7 316.1 196H314.8C314.7 195.8 314.7 195.4 314.7 195V193.8C314.7 192.9 314.4 192.4 313.1 192.4H310.5V195.9H309.2V196ZM310.5 191.4H313.1C314.3 191.4 314.8 190.7 314.8 189.8C314.8 188.8 314.1 188.3 313.1 188.3H310.5V191.4ZM317.8 196V187.3H323.9V188.4H319.1V191H323.3V192.1H319.1V194.9H323.9V196H317.8ZM328.5 196.1C326.2 196.1 325 194.9 325 193.3H326.3C326.3 194.4 327 195.1 328.5 195.1C329.7 195.1 330.5 194.7 330.5 193.7C330.5 192.7 329.9 192.4 328.2 192.1C326.2 191.8 325.2 191.2 325.2 189.7C325.2 188.2 326.4 187.2 328.4 187.2C330.4 187.2 331.6 188.2 331.6 189.8H330.3C330.3 188.8 329.5 188.3 328.4 188.3C327.2 188.3 326.6 188.8 326.6 189.6C326.6 190.6 327.3 190.8 328.9 191.1C330.4 191.4 331.9 191.7 331.9 193.8C331.9 195.1 330.7 196.1 328.5 196.1ZM336.4 196.1C334.1 196.1 332.9 194.9 332.9 193.3H334.2C334.2 194.4 334.9 195.1 336.4 195.1C337.6 195.1 338.4 194.7 338.4 193.7C338.4 192.7 337.8 192.4 336.1 192.1C334.1 191.8 333.1 191.2 333.1 189.7C333.1 188.2 334.3 187.2 336.3 187.2C338.3 187.2 339.5 188.2 339.5 189.8H338.2C338.2 188.8 337.4 188.3 336.3 188.3C335.1 188.3 334.5 188.8 334.5 189.6C334.5 190.6 335.2 190.8 336.8 191.1C338.3 191.4 339.8 191.7 339.8 193.8C339.9 195.1 338.7 196.1 336.4 196.1Z" fill="#696969"/>
<path d="M286 201H461C463.2 201 465 202.8 465 205V229C465 231.2 463.2 233 461 233H286C283.8 233 282 231.2 282 229V205C282 202.8 283.8 201 286 201Z" fill="#F5F5F4"/>
<path d="M296 211H423C426.3 211 429 213.7 429 217C429 220.3 426.3 223 423 223H296C292.7 223 290 220.3 290 217C290 213.7 292.7 211 296 211Z" fill="#D9D9D9"/>
<path d="M448.5 209H452.4C452.8 209 453.2 209.2 453.5 209.4L455.6 211.5C455.9 211.8 456 212.2 456 212.6V219.5C456 220.3 455.3 221 454.5 221H448.5C447.7 221 447 220.3 447 219.5V210.5C447 209.7 447.7 209 448.5 209ZM443.5 213H446V215H444V223H450V222H452V223.5C452 224.3 451.3 225 450.5 225H443.5C442.7 225 442 224.3 442 223.5V214.5C442 213.7 442.7 213 443.5 213Z" fill="#696969"/>
<path d="M582 249H282V250H582V249Z" fill="#D9D9D9"/>
<path d="M283.1 277V268.3H286.6C288.5 268.3 289.6 269.3 289.6 271.1C289.6 272.8 288.4 273.9 286.5 273.9H284.3V277.1H283.1V277ZM286.4 269.4H284.4V272.8H286.4C287.5 272.8 288.3 272.3 288.3 271.1C288.3 269.9 287.5 269.4 286.4 269.4ZM289.2 277L292.3 268.3H294.1L297.2 277H295.8L295.1 275H291.2L290.5 277H289.2ZM291.6 273.9H294.8L293.8 271.2L293.2 269.4H293.1L292.5 271.2L291.6 273.9ZM298.3 277V268.3H299.6V277H298.3ZM301.8 277V268.3H305.3C307.8 268.3 309.3 270.1 309.3 272.7C309.3 275.3 307.9 277.1 305.3 277.1H301.8V277ZM303.1 275.9H305.1C306.8 275.9 307.9 274.9 307.9 272.6C307.9 270.3 306.8 269.4 305.1 269.4H303.1V275.9ZM312.5 277L315.6 268.3H317.4L320.5 277H319.1L318.4 275H314.5L313.8 277H312.5ZM314.9 273.9H318.1L317.1 271.2L316.5 269.4H316.4L315.8 271.2L314.9 273.9ZM321.6 277V268.3H323.6L326 275L328.4 268.3H330.4V277H329.1V272.9V269.6H329L326.4 277H325.3L322.7 269.6H322.6V272.9V277H321.6ZM336.4 277.1C333.8 277.1 332.1 275.4 332.1 272.6C332.1 269.8 333.8 268.1 336.4 268.1C339 268.1 340.7 269.8 340.7 272.6C340.7 275.4 339 277.1 336.4 277.1ZM336.4 276C338.2 276 339.4 274.8 339.4 272.7C339.4 270.6 338.2 269.4 336.4 269.4C334.6 269.4 333.4 270.6 333.4 272.7C333.4 274.8 334.6 276 336.4 276ZM345.7 277.1C343.5 277.1 342.1 275.8 342.1 273.8V268.3H343.4V273.8C343.4 275.3 344.3 276 345.7 276C347.2 276 348 275.2 348 273.8V268.3H349.3V273.8C349.3 275.8 348 277.1 345.7 277.1ZM351.4 277V268.3H353L357.5 275.3H357.6L357.5 272.4V268.3H358.8V277H357.3L352.8 270.1H352.7V272.8V277H351.4ZM362.7 277V269.4H360V268.3H366.8V269.4H364V277H362.7Z" fill="#696969"/>
<path d="M288 286H405.5C408.8 286 411.5 288.7 411.5 292C411.5 295.3 408.8 298 405.5 298H288C284.7 298 282 295.3 282 292C282 288.7 284.7 286 288 286Z" fill="#D9D9D9"/>
<path d="M432.5 266H431.5V298H432.5V266Z" fill="#D4D4D4"/>
<path d="M453.6 277V268.3H457.1C459 268.3 460.1 269.3 460.1 271.1C460.1 272.8 458.9 273.9 457 273.9H454.8V277.1H453.6V277ZM456.9 269.4H454.9V272.8H456.9C458 272.8 458.8 272.3 458.8 271.1C458.8 269.9 458 269.4 456.9 269.4ZM461.5 277V268.3H467.6V269.4H462.8V272H467V273.1H462.8V275.9H467.6V277H461.5ZM469.3 277V268.3H470.9L475.4 275.3H475.5L475.4 272.4V268.3H476.7V277H475.2L470.7 270.1H470.6V272.8V277H469.3ZM478.9 277V268.3H482.4C484.9 268.3 486.4 270.1 486.4 272.7C486.4 275.3 485 277.1 482.4 277.1H478.9V277ZM480.2 275.9H482.2C483.9 275.9 485 274.9 485 272.6C485 270.3 483.9 269.4 482.2 269.4H480.2V275.9ZM487.9 277V268.3H489.2V277H487.9ZM491.3 277V268.3H492.9L497.4 275.3H497.5L497.4 272.4V268.3H498.7V277H497.2L492.7 270.1H492.6V272.8V277H491.3ZM504.5 277.1C501.8 277.1 500.2 275.3 500.2 272.6C500.2 269.8 501.9 268.1 504.5 268.1C506.7 268.1 508.3 269.3 508.5 271.1H507.2C507 269.9 505.9 269.2 504.6 269.2C502.8 269.2 501.6 270.4 501.6 272.5C501.6 274.6 502.8 275.9 504.6 275.9C506.3 275.9 507.4 274.9 507.5 273.3H504.7V272.3H508.8V272.9C508.8 275.5 507.1 277.1 504.5 277.1ZM512 277L515.1 268.3H516.9L520 277H518.6L517.9 275H514L513.3 277H512ZM514.4 273.9H517.6L516.6 271.2L516 269.4L515.4 271.2L514.4 273.9ZM521.1 277V268.3H523.1L525.5 275L527.9 268.3H529.9V277H528.6V272.9V269.6H528.5L525.9 277H525L522.4 269.6H522.3V272.9V277H521.1ZM535.9 277.1C533.3 277.1 531.6 275.4 531.6 272.6C531.6 269.8 533.3 268.1 535.9 268.1C538.5 268.1 540.2 269.8 540.2 272.6C540.2 275.4 538.5 277.1 535.9 277.1ZM535.9 276C537.7 276 538.9 274.8 538.9 272.7C538.9 270.6 537.7 269.4 535.9 269.4C534.1 269.4 532.9 270.6 532.9 272.7C532.9 274.8 534 276 535.9 276ZM545.2 277.1C543 277.1 541.6 275.8 541.6 273.8V268.3H542.9V273.8C542.9 275.3 543.8 276 545.2 276C546.7 276 547.5 275.2 547.5 273.8V268.3H548.8V273.8C548.8 275.8 547.5 277.1 545.2 277.1ZM550.8 277V268.3H552.4L556.9 275.3H557L556.9 272.4V268.3H558.2V277H556.7L552.2 270.1H552.1V272.8V277H550.8ZM562.2 277V269.4H559.5V268.3H566.3V269.4H563.5V277H562.2Z" fill="#696969"/>
<path d="M458.5 286H576C579.3 286 582 288.7 582 292C582 295.3 579.3 298 576 298H458.5C455.2 298 452.5 295.3 452.5 292C452.5 288.7 455.2 286 458.5 286Z" fill="#D9D9D9"/>
<path d="M269 322H262V318H269V320V322ZM582.9 318H570.8V320H582.9V318ZM558.8 318H546.7V320H558.8V318ZM534.6 318H522.5V320H534.6V318ZM510.5 318H498.4V320H510.5V318ZM486.3 318H474.2V320H486.3V318ZM462.2 318H450.1V320H462.2V318ZM438 318H426V320H438V318ZM413.9 318H401.8V320H413.9V318ZM389.7 318H377.6V320H389.7V318ZM365.6 318H353.5V320H365.6V318ZM341.4 318H329.3V320H341.4V318ZM317.3 318H305.2V320H317.3V318ZM293.1 318H281V320H293.1V318ZM602 318H595V320V322H602V318ZM582.9 320H570.8V322H582.9V320ZM558.8 320H546.7V322H558.8V320ZM534.6 320H522.5V322H534.6V320ZM510.5 320H498.4V322H510.5V320ZM486.3 320H474.2V322H486.3V320ZM462.2 320H450.1V322H462.2V320ZM438 320H426V322H438V320ZM413.9 320H401.8V322H413.9V320ZM389.7 320H377.6V322H389.7V320ZM365.6 320H353.5V322H365.6V320ZM341.4 320H329.3V322H341.4V320ZM317.3 320H305.2V322H317.3V320ZM293.1 320H281V322H293.1V320Z" fill="#F5F5F4"/>
<path d="M602 322H262V441H602V322Z" fill="#F5F5F4"/>
<path d="M284.9 353V345.4H282.2V344.3H289V345.4H286.2V353H284.9ZM290.1 353V344.3H294.2C296.1 344.3 297.1 345.2 297.1 346.7C297.1 347.8 296.5 348.5 295.6 348.8V348.9C296.5 349.1 296.9 349.6 296.9 350.6V352.1C296.9 352.4 296.9 352.7 297 353H295.7C295.6 352.8 295.6 352.4 295.6 352V350.8C295.6 349.9 295.3 349.4 294 349.4H291.4V352.9H290.1V353ZM291.4 348.4H294C295.2 348.4 295.7 347.7 295.7 346.8C295.7 345.8 295 345.3 294 345.3H291.4V348.4ZM297.7 353L300.8 344.3H302.6L305.7 353H304.3L303.6 351H299.7L299 353H297.7ZM300.1 349.9H303.3L302.3 347.2L301.7 345.4H301.6L301 347.2L300.1 349.9ZM306.9 353V344.3H308.5L313 351.3H313.1L313 348.4V344.3H314.3V353H312.8L308.3 346.1H308.2V348.8V353H306.9ZM319.3 353.1C317 353.1 315.8 351.9 315.8 350.3H317.1C317.1 351.4 317.8 352.1 319.3 352.1C320.5 352.1 321.3 351.7 321.3 350.7C321.3 349.7 320.7 349.4 319 349.1C317 348.8 316 348.2 316 346.7C316 345.2 317.2 344.2 319.2 344.2C321.2 344.2 322.4 345.2 322.4 346.8H321.1C321.1 345.8 320.3 345.3 319.2 345.3C318 345.3 317.4 345.8 317.4 346.6C317.4 347.6 318.1 347.8 319.7 348.1C321.2 348.4 322.7 348.7 322.7 350.8C322.7 352.1 321.5 353.1 319.3 353.1ZM323.1 353L326.2 344.3H328L331.1 353H329.7L329 351H325.1L324.4 353H323.1ZM325.5 349.9H328.7L327.7 347.2L327.1 345.4H327L326.4 347.2L325.5 349.9ZM335.7 353.1C333.1 353.1 331.4 351.4 331.4 348.6C331.4 345.8 333.1 344.1 335.7 344.1C337.9 344.1 339.4 345.3 339.7 347.1H338.4C338.2 346 337.2 345.2 335.7 345.2C333.9 345.2 332.8 346.4 332.8 348.5C332.8 350.6 333.9 351.8 335.7 351.8C337.1 351.8 338.1 351 338.4 349.9H339.7C339.4 351.9 337.8 353.1 335.7 353.1ZM342.6 353V345.4H339.9V344.3H346.7V345.4H343.9V353H342.6ZM347.8 353V344.3H349.1V353H347.8ZM355 353.1C352.4 353.1 350.7 351.4 350.7 348.6C350.7 345.8 352.4 344.1 355 344.1C357.6 344.1 359.3 345.8 359.3 348.6C359.3 351.4 357.6 353.1 355 353.1ZM355 352C356.8 352 358 350.8 358 348.7C358 346.6 356.8 345.4 355 345.4C353.2 345.4 352 346.6 352 348.7C352 350.8 353.2 352 355 352ZM360.8 353V344.3H362.4L366.9 351.3H367L366.9 348.4V344.3H368.2V353H366.7L362.2 346.1H362.1V348.8V353H360.8ZM373.3 353.1C371 353.1 369.8 351.9 369.8 350.3H371.1C371.1 351.4 371.8 352.1 373.3 352.1C374.5 352.1 375.3 351.7 375.3 350.7C375.3 349.7 374.7 349.4 373 349.1C371 348.8 370 348.2 370 346.7C370 345.2 371.2 344.2 373.2 344.2C375.2 344.2 376.4 345.2 376.4 346.8H375.1C375.1 345.8 374.3 345.3 373.2 345.3C372 345.3 371.4 345.8 371.4 346.6C371.4 347.6 372.1 347.8 373.7 348.1C375.2 348.4 376.7 348.7 376.7 350.8C376.7 352.1 375.5 353.1 373.3 353.1ZM381 353V344.3H382.3V348H387.2V344.3H388.5V353H387.2V349.1H382.3V353H381ZM390.6 353V344.3H391.9V353H390.6ZM397 353.1C394.7 353.1 393.5 351.9 393.5 350.3H394.8C394.8 351.4 395.5 352.1 397 352.1C398.2 352.1 399 351.7 399 350.7C399 349.7 398.4 349.4 396.7 349.1C394.7 348.8 393.7 348.2 393.7 346.7C393.7 345.2 394.9 344.2 396.9 344.2C398.9 344.2 400.1 345.2 400.1 346.8H398.8C398.8 345.8 398 345.3 396.9 345.3C395.7 345.3 395.1 345.8 395.1 346.6C395.1 347.6 395.8 347.8 397.4 348.1C398.9 348.4 400.4 348.7 400.4 350.8C400.4 352.1 399.2 353.1 397 353.1ZM403.4 353V345.4H400.7V344.3H407.5V345.4H404.7V353H403.4ZM412 353.1C409.4 353.1 407.7 351.4 407.7 348.6C407.7 345.8 409.4 344.1 412 344.1C414.6 344.1 416.3 345.8 416.3 348.6C416.3 351.4 414.6 353.1 412 353.1ZM412 352C413.8 352 415 350.8 415 348.7C415 346.6 413.8 345.4 412 345.4C410.2 345.4 409 346.6 409 348.7C409 350.8 410.2 352 412 352ZM417.8 353V344.3H421.9C423.8 344.3 424.8 345.2 424.8 346.7C424.8 347.8 424.2 348.5 423.3 348.8V348.9C424.2 349.1 424.6 349.6 424.6 350.6V352.1C424.6 352.4 424.6 352.7 424.7 353H423.4C423.3 352.8 423.3 352.4 423.3 352V350.8C423.3 349.9 423 349.4 421.7 349.4H419.1V352.9H417.8V353ZM419.2 348.4H421.8C423 348.4 423.5 347.7 423.5 346.8C423.5 345.8 422.8 345.3 421.8 345.3H419.2V348.4ZM428.4 353V349.6L425.2 344.3H426.7L429.1 348.3H429.2L431.6 344.3H433.1L429.8 349.6V353H428.4Z" fill="#696969"/>
<path d="M582 372H282V373H582V372Z" fill="#D9D9D9"/>
<mask id="mask4_12659_1019" style="mask-type:luminance" maskUnits="userSpaceOnUse" x="282" y="389" width="32" height="32">
<path d="M314 389H282V421H314V389Z" fill="white"/>
</mask>
<g mask="url(#mask4_12659_1019)">
<path d="M298 389C289.2 389 282 396.2 282 405C282 413.8 289.2 421 298 421C306.8 421 314 413.8 314 405C314 396.2 306.8 389 298 389ZM296.3 412.1L290.3 406.3L292.8 403.8L296.3 407.1L303.8 399.4L306.3 401.9L296.3 412.1Z" fill="#309D4B"/>
</g>
<path d="M332 389H576C579.3 389 582 391.7 582 395C582 398.3 579.3 401 576 401H332C328.7 401 326 398.3 326 395C326 391.7 328.7 389 332 389Z" fill="#D9D9D9"/>
<path d="M332 409H400C403.3 409 406 411.7 406 415C406 418.3 403.3 421 400 421H332C328.7 421 326 418.3 326 415C326 411.7 328.7 409 332 409Z" fill="#D9D9D9"/>
<path d="M538 409H576C579.3 409 582 411.7 582 415C582 418.3 579.3 421 576 421H538C534.7 421 532 418.3 532 415C532 411.7 534.7 409 538 409Z" fill="#D9D9D9"/>
<path d="M406.5 468.1C404.3 468.1 403.1 467 403.2 465.2H404.7C404.7 466.2 405.3 466.8 406.5 466.8C407.6 466.8 408.3 466.3 408.3 465.5C408.3 464.8 407.9 464.5 406.8 464.2C404.8 463.7 404 463 404.1 461.7C404.2 460 405.6 459.1 407.5 459.1C409.4 459.1 410.5 460.2 410.5 461.7H409C409 460.8 408.4 460.3 407.5 460.3C406.6 460.3 406 460.8 406 461.5C406 462.1 406.5 462.5 407.6 462.7C409.5 463.2 410.2 463.8 410.2 465.1C410 467 408.6 468.1 406.5 468.1ZM410.9 468L412.7 459.3H414.2L413.5 462.7H413.6C414.1 461.9 414.9 461.5 415.7 461.5C416.9 461.5 417.9 462.3 417.4 464.4L416.6 468H415.1L415.8 464.5C416 463.3 415.7 462.7 414.8 462.7C413.9 462.7 413.2 463.3 413 464.3L412.3 467.9H410.9V468ZM420.5 468.1C419.1 468.1 418.3 467 418.4 465.2C418.6 462.9 419.8 461.5 421.5 461.5C422.5 461.5 423.2 462.1 423.4 462.9H423.5L423.8 461.6H425.3L424 468H422.5L422.7 467H422.6C422.2 467.7 421.5 468.1 420.5 468.1ZM421.2 466.9C422.1 466.9 422.8 466.3 422.9 465.4L423.1 464.5C423.3 463.5 422.8 462.7 421.8 462.7C420.7 462.7 419.9 463.8 419.9 465.3C419.9 466.3 420.4 466.9 421.2 466.9ZM425.5 468L426.8 461.6H428.1L427.9 462.8H428C428.4 462 429.1 461.5 429.9 461.5C430.1 461.5 430.3 461.5 430.4 461.6L430.1 463.1C430 463 429.8 463 429.6 463C428.7 463 427.9 463.6 427.6 464.9L427 468H425.5ZM432.9 468.1C431.1 468.1 430.2 466.9 430.3 465.1C430.4 462.9 431.7 461.4 433.7 461.4C435.6 461.4 436.5 462.8 436.1 465H431.8C431.7 466.1 432.1 466.9 433.1 466.9C433.8 466.9 434.4 466.5 434.6 465.9H436C435.6 467.3 434.4 468.1 432.9 468.1ZM433.6 462.6C432.8 462.6 432.2 463.1 432 464.1H434.8C434.9 463.2 434.4 462.6 433.6 462.6ZM439.5 468L441.3 459.3H447.3L447 460.7H442.6L442.1 463.2H446L445.7 464.5H441.8L441.1 468.1H439.5V468ZM449.4 468.1C447.6 468.1 446.7 466.9 446.8 465.1C446.9 462.9 448.2 461.4 450.2 461.4C452.1 461.4 453 462.8 452.6 465H448.3C448.2 466.1 448.6 466.9 449.6 466.9C450.3 466.9 450.9 466.5 451.1 465.9H452.5C452.1 467.3 450.9 468.1 449.4 468.1ZM450.1 462.6C449.3 462.6 448.7 463.1 448.5 464.1H451.3C451.4 463.2 451 462.6 450.1 462.6ZM456.1 468.1C454.3 468.1 453.4 466.9 453.5 465.1C453.6 462.9 454.9 461.4 456.9 461.4C458.8 461.4 459.7 462.8 459.3 465H455C454.9 466.1 455.3 466.9 456.3 466.9C457 466.9 457.6 466.5 457.8 465.9H459.2C458.8 467.3 457.5 468.1 456.1 468.1ZM456.7 462.6C455.9 462.6 455.3 463.1 455.1 464.1H457.9C458 463.2 457.6 462.6 456.7 462.6ZM462.1 468.1C460.7 468.1 459.9 467 460.1 465.2C460.3 462.9 461.5 461.5 463.2 461.5C464.2 461.5 464.9 462.1 465.1 462.9H465.2L465.9 459.3H467.4L465.6 468H464.2L464.3 467H464.2C463.8 467.7 463.1 468.1 462.1 468.1ZM462.9 466.9C463.8 466.9 464.5 466.2 464.7 465.3L464.8 464.6C465 463.5 464.5 462.8 463.6 462.8C462.5 462.8 461.7 463.9 461.7 465.4C461.6 466.3 462.1 466.9 462.9 466.9ZM470.9 468.1C469.9 468.1 469.2 467.5 469 466.7L468.7 468H467.2L469 459.2H470.5L469.8 462.6H469.9C470.3 461.9 471 461.5 472 461.5C473.4 461.5 474.2 462.6 474.1 464.4C473.8 466.7 472.7 468.1 470.9 468.1ZM470.6 466.9C471.7 466.9 472.5 465.8 472.5 464.3C472.5 463.3 472 462.7 471.2 462.7C470.3 462.7 469.7 463.3 469.5 464.2L469.3 465.1C469.1 466 469.6 466.9 470.6 466.9ZM476.8 468.1C475.4 468.1 474.6 467 474.7 465.2C474.9 462.9 476.1 461.5 477.8 461.5C478.8 461.5 479.5 462.1 479.7 462.9H479.8L480.1 461.6H481.6L480.3 468H478.8L479 467H478.9C478.5 467.7 477.8 468.1 476.8 468.1ZM477.6 466.9C478.5 466.9 479.2 466.3 479.3 465.4L479.5 464.5C479.7 463.5 479.2 462.7 478.2 462.7C477.1 462.7 476.3 463.8 476.3 465.3C476.3 466.3 476.8 466.9 477.6 466.9ZM484.8 468.1C483.2 468.1 482.1 467.1 482.1 465.3C482.2 463 483.6 461.5 485.6 461.5C487.2 461.5 488.3 462.5 488.2 463.9H486.8C486.8 463.2 486.2 462.7 485.5 462.7C484.4 462.7 483.6 463.7 483.6 465.3C483.6 466.4 484.1 466.9 484.9 466.9C485.7 466.9 486.2 466.5 486.5 465.7H487.9C487.7 467.2 486.4 468.1 484.8 468.1ZM488.7 468L490.5 459.3H492L490.9 464.5L491.6 463.8L494 461.7H495.9L493 464.3L494.6 468.1H493L492.1 465.8L491.8 465.2L490.6 466.2L490.2 468.1H488.7V468Z" fill="#A9A9A9"/>
<mask id="mask5_12659_1019" style="mask-type:luminance" maskUnits="userSpaceOnUse" x="504" y="458" width="14" height="12">
<path d="M518 458H504V470H518V458Z" fill="white"/>
</mask>
<g mask="url(#mask5_12659_1019)">
<path d="M511.7 458.4C511.6 458.1 511.3 458 511 458C510.7 458 510.4 458.2 510.3 458.4L508.7 461.5L505.2 462C504.9 462 504.7 462.2 504.6 462.5C504.5 462.8 504.6 463.1 504.8 463.3L507.3 465.7L506.7 469.1C506.7 469.4 506.8 469.7 507 469.8C507.2 470 507.6 470 507.8 469.9L510.9 468.3L514 469.9C514.3 470 514.6 470 514.8 469.8C515 469.6 515.2 469.3 515.1 469.1L514.5 465.7L517 463.3C517.2 463.1 517.3 462.8 517.2 462.5C517.1 462.2 516.9 462 516.6 462L513.1 461.5L511.7 458.4Z" fill="#A9A9A9"/>
</g>
<mask id="mask6_12659_1019" style="mask-type:luminance" maskUnits="userSpaceOnUse" x="520" y="458" width="14" height="12">
<path d="M534 458H520V470H534V458Z" fill="white"/>
</mask>
<g mask="url(#mask6_12659_1019)">
<path d="M527.7 458.4C527.6 458.1 527.3 458 527 458C526.7 458 526.4 458.2 526.3 458.4L524.7 461.5L521.2 462C520.9 462 520.7 462.2 520.6 462.5C520.5 462.8 520.6 463.1 520.8 463.3L523.3 465.7L522.7 469.1C522.7 469.4 522.8 469.7 523 469.8C523.2 470 523.6 470 523.8 469.9L526.9 468.3L530 469.9C530.3 470 530.6 470 530.8 469.8C531 469.6 531.2 469.3 531.1 469.1L530.5 465.7L533 463.3C533.2 463.1 533.3 462.8 533.2 462.5C533.1 462.2 532.9 462 532.6 462L529.1 461.5L527.7 458.4Z" fill="#A9A9A9"/>
</g>
<mask id="mask7_12659_1019" style="mask-type:luminance" maskUnits="userSpaceOnUse" x="536" y="458" width="14" height="12">
<path d="M550 458H536V470H550V458Z" fill="white"/>
</mask>
<g mask="url(#mask7_12659_1019)">
<path d="M543.7 458.4C543.6 458.1 543.3 458 543 458C542.7 458 542.4 458.2 542.3 458.4L540.7 461.5L537.2 462C536.9 462 536.7 462.2 536.6 462.5C536.5 462.8 536.6 463.1 536.8 463.3L539.3 465.7L538.7 469.1C538.7 469.4 538.8 469.7 539 469.8C539.2 470 539.6 470 539.8 469.9L542.9 468.3L546 469.9C546.3 470 546.6 470 546.8 469.8C547 469.6 547.2 469.3 547.1 469.1L546.5 465.7L549 463.3C549.2 463.1 549.3 462.8 549.2 462.5C549.1 462.2 548.9 462 548.6 462L545.1 461.5L543.7 458.4Z" fill="#A9A9A9"/>
</g>
<mask id="mask8_12659_1019" style="mask-type:luminance" maskUnits="userSpaceOnUse" x="552" y="458" width="14" height="12">
<path d="M566 458H552V470H566V458Z" fill="white"/>
</mask>
<g mask="url(#mask8_12659_1019)">
<path d="M559.7 458.4C559.6 458.1 559.3 458 559 458C558.7 458 558.4 458.2 558.3 458.4L556.7 461.5L553.2 462C552.9 462 552.7 462.2 552.6 462.5C552.5 462.8 552.6 463.1 552.8 463.3L555.3 465.7L554.7 469.1C554.7 469.4 554.8 469.7 555 469.8C555.2 470 555.6 470 555.8 469.9L558.9 468.3L562 469.9C562.3 470 562.6 470 562.8 469.8C563 469.6 563.2 469.3 563.1 469.1L562.5 465.7L565 463.3C565.2 463.1 565.3 462.8 565.2 462.5C565.1 462.2 564.9 462 564.6 462L561.1 461.5L559.7 458.4Z" fill="#A9A9A9"/>
</g>
<mask id="mask9_12659_1019" style="mask-type:luminance" maskUnits="userSpaceOnUse" x="568" y="458" width="14" height="12">
<path d="M582 458H568V470H582V458Z" fill="white"/>
</mask>
<g mask="url(#mask9_12659_1019)">
<path d="M575.7 458.4C575.6 458.1 575.3 458 575 458C574.7 458 574.4 458.2 574.3 458.4L572.7 461.5L569.2 462C568.9 462 568.7 462.2 568.6 462.5C568.5 462.8 568.6 463.1 568.8 463.3L571.3 465.7L570.7 469.1C570.7 469.4 570.8 469.7 571 469.8C571.2 470 571.6 470 571.8 469.9L574.9 468.3L578 469.9C578.3 470 578.6 470 578.8 469.8C579 469.6 579.2 469.3 579.1 469.1L578.5 465.7L581 463.3C581.2 463.1 581.3 462.8 581.2 462.5C581.1 462.2 580.9 462 580.6 462L577.1 461.5L575.7 458.4Z" fill="#A9A9A9"/>
</g>
</g>
<path d="M601 29H263V486H601V29Z" stroke="#F59E0B" stroke-width="2"/>
</g>
</g>
<defs>
<filter id="filter0_dd_12659_1019" x="234" y="0" width="408" height="527" filterUnits="userSpaceOnUse" color-interpolation-filters="sRGB">
<feFlood flood-opacity="0" result="BackgroundImageFix"/>
<feColorMatrix in="SourceAlpha" type="matrix" values="0 0 0 0 0 0 0 0 0 0 0 0 0 0 0 0 0 0 127 0" result="hardAlpha"/>
<feOffset/>
<feGaussianBlur stdDeviation="14"/>
<feComposite in2="hardAlpha" operator="out"/>
<feColorMatrix type="matrix" values="0 0 0 0 0 0 0 0 0 0 0 0 0 0 0 0 0 0 0.08 0"/>
<feBlend mode="normal" in2="BackgroundImageFix" result="effect1_dropShadow_12659_1019"/>
<feColorMatrix in="SourceAlpha" type="matrix" values="0 0 0 0 0 0 0 0 0 0 0 0 0 0 0 0 0 0 127 0" result="hardAlpha"/>
<feOffset dx="20" dy="20"/>
<feGaussianBlur stdDeviation="10"/>
<feComposite in2="hardAlpha" operator="out"/>
<feColorMatrix type="matrix" values="0 0 0 0 0 0 0 0 0 0 0 0 0 0 0 0 0 0 0.1 0"/>
<feBlend mode="normal" in2="effect1_dropShadow_12659_1019" result="effect2_dropShadow_12659_1019"/>
<feBlend mode="normal" in="SourceGraphic" in2="effect2_dropShadow_12659_1019" result="shape"/>
</filter>
<radialGradient id="paint0_radial_12659_1019" cx="0" cy="0" r="1" gradientUnits="userSpaceOnUse" gradientTransform="translate(477.002 258.002) scale(213)">
<stop/>
<stop offset="1" stop-opacity="0"/>
</radialGradient>
<clipPath id="clip0_12659_1019">
<rect width="690" height="527" fill="white"/>
</clipPath>
</defs>
</svg>
