<svg width="234" height="50" viewBox="0 0 234 50" fill="none" xmlns="http://www.w3.org/2000/svg">
<path d="M37.4375 33.8125V15.875L21.5625 6.875L6 15.875V33.8125L21.5625 42.8125L37.4375 33.8125ZM43.4375 12.3125V37.1875L21.875 50L0 37.4375V12.5625L21.5625 0L43.4375 12.3125Z" fill="#F59E0B"/>
<path d="M30.6879 29.9998L21.6879 35.2498L12.6254 30.0623L12.5629 19.6248L21.6254 14.4373L30.6879 19.6248V29.9998Z" fill="#F59E0B"/>
<path d="M43.4376 12.3125V37.1875L21.6251 24.875L43.4376 12.3125Z" fill="url(#paint0_linear_1_1325)"/>
<path d="M64.4378 30.8123C63.1878 31.2498 61.9378 31.4373 60.6253 31.4373C57.3128 31.4373 55.3128 29.5623 55.3128 26.3748C55.3128 23.5623 56.4378 21.3748 58.0628 20.1248C59.3128 19.2498 60.8753 18.7498 62.3753 18.8123C63.6253 18.8123 64.8753 18.9998 66.0628 19.4373L67.4378 15.0623C66.8128 14.7498 65.0628 14.2498 62.8128 14.2498C59.8753 14.2498 57.3128 14.8748 55.1253 16.2498C51.7503 18.3123 49.3753 21.9373 49.3753 27.0623C49.3753 32.6873 53.3128 36.1248 59.0628 36.1248C61.6878 36.1248 63.5628 35.7498 64.6878 35.2498L64.4378 30.8123ZM74.1878 36.0623C79.6253 36.0623 83.6878 32.2498 83.6878 26.2498C83.6878 22.6248 81.0628 19.8748 76.8753 19.8748C71.1878 19.8748 67.3753 24.1873 67.3753 29.6248C67.3753 33.6873 70.1878 36.0623 74.1878 36.0623ZM74.8753 31.9998C73.6253 31.9998 72.9378 31.0623 72.9378 29.5623C72.9378 27.6873 73.8753 23.9373 76.1878 23.9373C77.5628 23.9373 78.1253 24.9998 78.1253 26.3123C78.1253 28.4998 77.1253 31.9998 74.8753 31.9998ZM90.1253 35.6873L93.0628 20.1873H87.6878L84.7503 35.6873H90.1253ZM90.9378 18.6873C92.5628 18.6873 94.0003 17.6248 94.0003 15.8123C94.0003 14.3123 92.8753 13.3123 91.4378 13.3123C89.8128 13.2498 88.5003 14.4998 88.4378 16.1248V16.1873C88.4378 17.7498 89.5003 18.6873 90.9378 18.6873ZM98.9378 35.6873L100.188 29.0623C100.813 25.8748 102.125 24.1873 103.438 24.1873C104.313 24.1873 104.625 24.8123 104.625 25.6873C104.625 26.2498 104.563 26.7498 104.438 27.3123L102.875 35.6873H108.25L110 26.7498C110.125 25.8748 110.25 24.9998 110.25 24.1248C110.25 21.6873 109.063 19.9373 106.25 19.9373C104.313 19.9373 102.438 20.7498 100.938 22.6873H100.875L101.125 20.3123H96.4378C96.1878 21.7498 95.9378 23.4998 95.5628 25.6248L93.6253 35.8123L98.9378 35.6873Z" fill="#F59E0B"/>
<path d="M111.5 35.6873H116.812L118.312 27.6873H119.312C120.937 27.6873 121.75 28.3123 121.937 30.6873C122.187 33.3748 122.437 34.9998 122.625 35.6248H128.125C127.687 34.7498 127.5 31.6873 127.25 29.4998C127 27.6873 126.5 26.3748 125.375 25.8123L125.437 25.6873C128.187 24.7498 130.125 22.9373 130.125 19.7498C130.187 17.8748 129.125 16.1873 127.437 15.3748C125.812 14.4373 123.625 14.2498 121.625 14.2498C119.562 14.2498 117.5 14.4373 115.5 14.8123L111.5 35.6873ZM120.062 18.6873C120.562 18.6248 121.125 18.5623 121.625 18.5623C123.187 18.5623 124.5 19.2498 124.5 20.6873C124.5 22.5623 122.875 23.7498 120.75 23.7498H119.062L120.062 18.6873ZM143.312 30.9373C141.937 31.5623 140.437 31.8748 138.937 31.8748C137.687 31.8748 136.75 31.5623 136.187 31.0623C135.937 30.8123 135.75 30.4373 135.625 30.0623C142 30.2498 145.5 28.6248 145.5 24.7498C145.5 21.6248 143 19.8748 139.75 19.8748C133.937 19.8748 130.562 24.6248 130.562 29.3123C130.562 33.6248 133.062 35.9998 137.625 35.9998C139.187 35.9998 141.562 35.7498 143.687 34.7498L143.312 30.9373ZM140.5 24.8123C140.5 25.8123 139.375 26.2498 136.125 26.2498C136.375 24.8123 137.687 23.7498 139.125 23.8123C140 23.7498 140.5 24.2498 140.5 24.8123ZM151.562 35.6873L152.75 29.0623C153.312 26.1248 154.562 24.1248 155.937 24.1248C156.75 24.1248 157.062 24.7498 157.062 25.6873C157.062 26.2498 157 26.8123 156.875 27.3748L155.312 35.6248H160.437L161.687 28.9998C162.25 25.9998 163.437 24.0623 164.75 24.0623C165.5 24.0623 165.937 24.6873 165.937 25.5623C165.937 26.1873 165.875 26.7498 165.75 27.3748L164.25 35.6248H169.437L171 26.7498C171.187 25.8748 171.25 24.9998 171.312 24.0623C171.312 21.5623 170.187 19.8748 167.5 19.8748C165.437 19.8748 163.5 20.8748 162.375 22.5623C162.25 21.4373 161.187 19.8748 158.687 19.8748C156.625 19.8748 154.625 20.8748 153.437 22.5623L153.687 20.1873H149.125C148.937 21.6248 148.687 23.3748 148.312 25.4998L146.437 35.6873H151.562ZM178.187 35.6873L181.125 20.1873H175.75L172.812 35.6873H178.187ZM179 18.6873C180.625 18.6873 182.062 17.6248 182.062 15.8123C182.062 14.3123 180.937 13.3123 179.5 13.3123C177.875 13.2498 176.562 14.4998 176.5 16.1248V16.1873C176.437 17.4998 177.437 18.6248 178.75 18.6873C178.75 18.6873 178.875 18.6873 179 18.6873ZM185.687 17.3748L185.125 20.2498H183.25L182.437 24.3123H184.312L183.25 29.7498C183.062 30.6873 182.937 31.6248 182.937 32.6248C182.937 34.6873 184.375 36.0623 187.312 36.0623C188.375 36.0623 189.625 35.9373 190.25 35.6873L190.937 31.4998C190.5 31.4998 190.062 31.4998 189.687 31.4998C188.687 31.4998 188.437 30.9373 188.437 30.3123C188.5 29.7498 188.562 29.1248 188.687 28.5623L189.562 24.3123H192.687L193.5 20.2498H190.375L191.187 15.8748L185.687 17.3748ZM197.125 17.3748L196.562 20.2498H194.687L193.875 24.3123H195.75L194.687 29.7498C194.5 30.6873 194.375 31.6248 194.375 32.6248C194.375 34.6873 195.812 36.0623 198.75 36.0623C199.812 36.0623 201.062 35.9373 201.687 35.6873L202.375 31.4998C201.937 31.4998 201.5 31.4998 201.125 31.4998C200.125 31.4998 199.875 30.9373 199.875 30.3123C199.875 29.7498 200 29.1248 200.125 28.5623L201 24.3123H204.125L204.937 20.2498H201.812L202.625 15.8748L197.125 17.3748ZM217.75 30.9373C216.375 31.5623 214.875 31.8748 213.375 31.8748C212.125 31.8748 211.187 31.5623 210.625 31.0623C210.375 30.8123 210.187 30.4373 210.062 30.0623C216.437 30.2498 219.937 28.6248 219.937 24.7498C219.937 21.6248 217.437 19.8748 214.187 19.8748C208.375 19.8748 205 24.6248 205 29.3123C205 33.6248 207.5 35.9998 212.062 35.9998C213.625 35.9998 216 35.7498 218.125 34.7498L217.75 30.9373ZM214.937 24.8123C214.937 25.8123 213.812 26.2498 210.562 26.2498C210.812 24.8123 212.125 23.7498 213.562 23.8123C214.437 23.7498 214.937 24.2498 214.937 24.8123ZM226.187 35.6873L227.187 30.3748C227.75 27.5623 228.812 25.0623 231.937 25.0623H232.687L233.75 19.8748C233.437 19.8748 233.187 19.8123 232.875 19.8748C230.75 19.8748 229 21.3123 227.875 23.3123H227.75C227.875 22.3123 227.937 21.2498 228 20.2498H223.375C223.187 21.5623 223 24.3748 222.562 26.8748L220.875 35.7498H226.187V35.6873Z" fill="white"/>
<defs>
<linearGradient id="paint0_linear_1_1325" x1="30.9313" y1="32.5291" x2="44.6039" y2="19.5551" gradientUnits="userSpaceOnUse">
<stop stop-color="#F59E0B"/>
<stop offset="1" stop-color="#F6C61C"/>
</linearGradient>
</defs>
</svg>
