<svg width="442" height="224" viewBox="0 0 442 224" fill="none" xmlns="http://www.w3.org/2000/svg">
<g clip-path="url(#clip0_9678_471)" filter="url(#filter0_i_9678_471)">
<rect width="442" height="224" fill="url(#paint0_radial_9678_471)"/>
<path d="M133.398 83.0034H-9V281H133.398V83.0034Z" fill="#F5F5F4"/>
<path d="M133.398 83.0034H-9V154.618H133.398V83.0034Z" fill="black"/>
<path d="M108.834 172.215C108.834 172.298 89.25 172.464 65.1021 172.464C40.9542 172.464 21.3703 172.381 21.3703 172.215C21.3703 172.049 40.9542 171.966 65.1021 171.966C89.25 171.966 108.834 172.049 108.834 172.215Z" fill="#262626"/>
<path d="M108.834 191.461C108.834 191.544 89.25 191.71 65.1021 191.71C40.9542 191.71 21.3703 191.627 21.3703 191.461C21.3703 191.295 40.9542 191.212 65.1021 191.212C89.25 191.212 108.834 191.378 108.834 191.461Z" fill="#262626"/>
<path d="M108.834 210.796C108.834 210.879 89.25 211.045 65.1021 211.045C40.9542 211.045 21.3703 210.962 21.3703 210.796C21.3703 210.63 40.9542 210.547 65.1021 210.547C89.25 210.547 108.834 210.63 108.834 210.796Z" fill="#262626"/>
<path d="M12.408 175.777C12.0761 175.777 11.8271 175.694 11.5782 175.445L9.17167 173.287C8.67378 172.789 8.5908 172.042 9.08869 171.544C9.58659 171.047 10.3334 170.964 10.8313 171.461L12.325 172.789L15.7273 168.972C16.2252 168.474 17.055 168.557 17.4699 169.055C17.8848 169.47 17.8848 170.134 17.5529 170.632L13.3208 175.362C13.1548 175.611 12.8229 175.777 12.408 175.777Z" fill="black"/>
<path d="M12.408 195.114C12.0761 195.114 11.8271 195.031 11.5782 194.782L9.17168 192.624C8.67378 192.127 8.5908 191.38 9.08869 190.882C9.58659 190.384 10.3334 190.301 10.8313 190.799L12.325 192.127L15.7273 188.309C16.1422 187.728 16.8891 187.645 17.4699 188.06C18.0508 188.475 18.1338 189.222 17.7189 189.803C17.6359 189.886 17.6359 189.886 17.5529 189.969L13.3208 194.699C13.1548 194.948 12.8229 195.114 12.408 195.114Z" fill="black"/>
<path d="M12.408 214.36C12.0761 214.36 11.8271 214.277 11.5782 214.028L9.17168 211.87C8.67378 211.373 8.5908 210.626 9.08869 210.128C9.58659 209.63 10.3334 209.547 10.8313 210.045L12.325 211.373L15.7273 207.555C16.1422 206.975 16.8891 206.892 17.4699 207.306C18.0508 207.721 18.1338 208.468 17.7189 209.049C17.6359 209.132 17.6359 209.132 17.5529 209.215L13.3208 213.945C13.1548 214.194 12.8229 214.36 12.408 214.36Z" fill="black"/>
<path d="M67.6762 119.268L62.2823 116.364L56.8055 119.185L57.8843 113.128L53.5692 108.813L59.6269 107.983L62.4483 102.506L65.0208 108.066L71.1615 108.979L66.6804 113.211L67.6762 119.268Z" fill="white"/>
<path d="M44.0267 143.827C40.8733 143.495 39.0477 141.669 39.0477 139.097H43.1139C43.1139 140.175 43.6947 140.839 45.2714 140.839C46.2672 140.839 47.014 140.424 47.014 139.678C47.014 138.516 46.3502 138.433 44.2756 138.101C41.4542 137.603 39.3797 136.524 39.3797 133.703C39.3797 131.13 41.1223 129.388 44.0267 129.056V127.479H46.2672V129.056C49.0056 129.388 50.7482 131.047 50.7482 133.371H46.7651C46.6821 132.292 45.8523 131.96 45.1054 131.96C44.1097 131.96 43.5288 132.458 43.5288 133.122C43.5288 134.118 44.2756 134.201 46.3502 134.616C48.6737 134.948 51.1631 135.611 51.1631 139.263C51.1631 141.669 49.5865 143.495 46.2672 143.827V145.403H44.0267V143.827Z" fill="white"/>
<path d="M55.8096 134.786H52.0754V131.882H52.7393C54.5649 131.882 55.9756 130.886 56.1415 129.309H59.7098V143.665H55.8926V134.786H55.8096Z" fill="white"/>
<path d="M61.7014 136.444C61.7014 131.797 64.0249 129.142 67.4272 129.142C70.9954 129.142 73.07 132.046 73.07 136.444C73.07 141.174 70.7465 143.747 67.3442 143.747C63.7759 143.83 61.7014 140.843 61.7014 136.444ZM69.3358 136.444C69.3358 132.876 68.423 132.295 67.4272 132.295C66.4314 132.295 65.5186 132.793 65.5186 136.444C65.5186 140.096 66.4314 140.594 67.4272 140.594C68.423 140.677 69.3358 140.096 69.3358 136.444Z" fill="white"/>
<path d="M74.1487 136.444C74.1487 131.797 76.4722 129.142 79.8745 129.142C83.4427 129.142 85.5173 132.046 85.5173 136.444C85.5173 141.174 83.1938 143.747 79.7915 143.747C76.2233 143.83 74.1487 140.843 74.1487 136.444ZM81.7831 136.444C81.7831 132.876 80.8703 132.295 79.8745 132.295C78.8787 132.295 77.9659 132.793 77.9659 136.444C77.9659 140.096 78.8787 140.594 79.8745 140.594C80.8703 140.677 81.7831 140.096 81.7831 136.444Z" fill="white"/>
<path d="M300.4 60H141.398V281H300.4V60Z" fill="#F5F5F4"/>
<path d="M300.4 60H141.398V139.972H300.4V60Z" fill="#22C55E"/>
<path d="M255.634 66.3944H283.907C288.08 66.3944 291.513 69.8275 291.513 74.0012V74.809C291.513 78.9826 288.08 82.4157 283.907 82.4157H255.634C251.46 82.4157 248.027 78.9826 248.027 74.809V74.0012C248.027 69.8275 251.393 66.3944 255.634 66.3944Z" fill="#262626"/>
<path d="M272.866 159.561C272.866 159.628 250.989 159.763 224.062 159.763C197.135 159.763 175.257 159.695 175.257 159.561C175.257 159.493 197.135 159.359 224.062 159.359C250.989 159.359 272.866 159.493 272.866 159.561Z" fill="#262626"/>
<path d="M272.866 181.105C272.866 181.173 250.989 181.307 224.062 181.307C197.135 181.307 175.257 181.24 175.257 181.105C175.257 180.971 197.135 180.903 224.062 180.903C250.989 180.903 272.866 181.038 272.866 181.105Z" fill="#262626"/>
<path d="M272.866 202.643C272.866 202.711 250.989 202.845 224.062 202.845C197.135 202.845 175.257 202.778 175.257 202.643C175.257 202.509 197.135 202.442 224.062 202.442C250.989 202.442 272.866 202.576 272.866 202.643Z" fill="#262626"/>
<path d="M261.559 72.5216C262.299 72.8581 262.636 73.8006 262.299 74.6084C262.299 74.6757 262.232 74.6757 262.232 74.743C262.097 75.0123 261.828 75.1469 261.559 75.2815C261.222 75.4162 260.886 75.4835 260.549 75.4835H259.674V76.6952H258.664V72.4542H260.549C260.886 72.3196 261.222 72.3869 261.559 72.5216ZM261.155 74.4064C261.29 74.2718 261.424 74.0698 261.424 73.8679C261.424 73.6659 261.357 73.464 261.155 73.3294C260.953 73.1947 260.751 73.1274 260.482 73.1274H259.674V74.6084H260.482C260.751 74.6084 260.953 74.5411 261.155 74.4064Z" fill="white"/>
<path d="M263.644 76.4286C263.375 76.294 263.106 76.0921 262.971 75.8228C262.635 75.2843 262.635 74.6111 262.971 74.0726C263.106 73.8033 263.375 73.6014 263.644 73.4667C264.25 73.1975 264.923 73.1975 265.529 73.4667C266.337 73.9379 266.674 74.9477 266.202 75.7555V75.8228C266.068 76.0921 265.798 76.294 265.529 76.4286C264.923 76.6979 264.25 76.6979 263.644 76.4286ZM265.193 75.6208C265.529 75.2169 265.529 74.6784 265.193 74.2745C265.058 74.1399 264.789 74.0053 264.587 74.0053C264.385 74.0053 264.116 74.0726 263.981 74.2745C263.644 74.6784 263.644 75.2169 263.981 75.6208C264.116 75.7555 264.385 75.8901 264.587 75.8901C264.789 75.8228 265.058 75.7555 265.193 75.6208Z" fill="white"/>
<path d="M269.77 73.4627C270.039 73.5973 270.241 73.7993 270.376 74.0685C270.645 74.6071 270.645 75.2802 270.376 75.8188C270.241 76.088 270.039 76.29 269.77 76.4246C269.5 76.5592 269.231 76.6266 268.962 76.6266C268.558 76.6266 268.221 76.4919 267.952 76.2227V77.7709H267.01V73.2607H267.952V73.6646C268.221 73.3954 268.625 73.1934 268.962 73.2607C269.231 73.2607 269.568 73.328 269.77 73.4627ZM269.366 75.6168C269.702 75.2129 269.702 74.6744 269.366 74.2705C269.029 73.9339 268.491 73.9339 268.154 74.2705C267.818 74.6744 267.818 75.2129 268.154 75.6168C268.491 75.9534 269.029 75.9534 269.366 75.6168Z" fill="white"/>
<path d="M274.55 73.2648V76.5633H273.675V76.1594C273.541 76.294 273.406 76.4286 273.204 76.496C273.002 76.5633 272.8 76.6306 272.665 76.6306C272.262 76.6306 271.925 76.496 271.656 76.2267C271.386 75.9574 271.252 75.5535 271.252 75.1496V73.2648H272.194V75.015C272.194 75.5535 272.396 75.8228 272.867 75.8228C273.069 75.8228 273.271 75.7555 273.406 75.6208C273.541 75.4189 273.608 75.2169 273.608 74.9477V73.2648H274.55Z" fill="white"/>
<path d="M275.425 72.0518H276.367V76.562H275.425V72.0518Z" fill="white"/>
<path d="M279.733 73.6013C280.002 73.8706 280.204 74.2745 280.137 74.6784V76.5633H279.262V76.1594C279.06 76.4959 278.656 76.6306 278.252 76.6306C278.05 76.6306 277.781 76.5633 277.579 76.4959C277.377 76.4286 277.242 76.294 277.175 76.1594C277.107 76.0247 277.04 75.8228 277.04 75.6208C277.04 75.3516 277.175 75.0823 277.377 74.8804C277.713 74.6784 278.05 74.6111 278.454 74.6111H279.194C279.194 74.4091 279.127 74.2745 278.992 74.1399C278.858 74.0052 278.656 73.9379 278.454 73.9379C278.252 73.9379 278.117 73.9379 277.915 74.0052C277.781 74.0726 277.646 74.1399 277.511 74.2072L277.175 73.534C277.377 73.3994 277.579 73.3321 277.848 73.2648C278.117 73.1974 278.387 73.1301 278.588 73.1301C278.992 73.1974 279.396 73.3321 279.733 73.6013ZM278.925 75.8901C279.06 75.8228 279.127 75.6881 279.194 75.5535V75.2169H278.521C278.117 75.2169 277.915 75.3516 277.915 75.6208C277.915 75.7555 277.983 75.8228 278.05 75.8901C278.185 75.9574 278.319 76.0247 278.454 76.0247C278.656 76.0247 278.79 75.9574 278.925 75.8901Z" fill="white"/>
<path d="M282.426 73.3994C282.628 73.3321 282.897 73.2648 283.099 73.2648V74.1399H282.897C282.695 74.1399 282.426 74.2072 282.224 74.3418C282.089 74.5438 281.955 74.7457 281.955 75.015V76.5633H281.012V73.2648H281.955V73.6687C282.089 73.6014 282.224 73.4667 282.426 73.3994Z" fill="white"/>
<path d="M165.295 163.199C165.025 163.199 164.823 163.132 164.622 162.93L161.929 160.574C161.525 160.237 161.458 159.564 161.794 159.16C162.131 158.756 162.804 158.756 163.208 159.093L165.16 160.843L169.266 156.333C169.67 155.929 170.276 155.929 170.68 156.333C171.017 156.67 171.084 157.276 170.747 157.679L165.968 162.93C165.833 163.065 165.631 163.199 165.295 163.199Z" fill="#22C55E"/>
<path d="M165.295 184.741C165.026 184.741 164.824 184.673 164.622 184.472L161.929 182.048C161.526 181.644 161.458 181.038 161.862 180.634C162.266 180.231 162.872 180.163 163.276 180.567L165.228 182.317L169.334 177.807C169.738 177.403 170.344 177.403 170.748 177.807C171.085 178.144 171.152 178.75 170.815 179.154L166.036 184.404C165.901 184.606 165.632 184.741 165.295 184.741Z" fill="#22C55E"/>
<path d="M165.295 206.275C165.026 206.275 164.824 206.208 164.622 206.006L161.929 203.65C161.526 203.246 161.458 202.64 161.862 202.236C162.266 201.832 162.872 201.765 163.276 202.169L165.228 203.919L169.334 199.409C169.738 199.005 170.344 199.005 170.748 199.409C171.085 199.746 171.152 200.351 170.815 200.755L166.036 206.006C165.901 206.141 165.632 206.275 165.295 206.275Z" fill="#22C55E"/>
<path d="M231.602 84.0334L234.362 89.4861L240.353 90.3612L235.978 94.6021L237.055 100.593L231.602 97.766L226.217 100.593L227.294 94.6021L222.918 90.3612L228.909 89.4861L231.602 84.0334Z" fill="white"/>
<path d="M221.168 84.0334L224.736 91.2363L232.679 92.3807L226.89 98.0352L228.304 105.979L221.168 102.209L214.033 105.979L215.379 98.0352L209.59 92.3807L217.6 91.2363L221.168 84.0334Z" fill="white"/>
<path d="M229.178 107.122L221.167 102.948L213.157 107.122L214.705 98.2363L208.243 91.9085L217.196 90.6295L221.167 82.5515L225.139 90.6295L234.092 91.9085L227.63 98.2363L229.178 107.122ZM211.07 92.8509L216.119 97.7651L214.907 104.766L221.167 101.467L227.428 104.766L226.216 97.8324L231.265 92.9183L224.264 91.9085L221.1 85.5808L217.936 91.9085L211.07 92.8509Z" fill="#22C55E"/>
<path d="M206.965 127.921C204.407 127.652 202.926 126.171 202.926 124.084H206.224C206.224 124.959 206.696 125.498 207.975 125.498C208.782 125.498 209.388 125.161 209.388 124.555C209.388 123.613 208.85 123.545 207.167 123.276C204.878 122.872 203.195 121.997 203.195 119.708C203.195 117.622 204.609 116.208 206.965 115.939V114.66H208.782V115.939C211.004 116.208 212.417 117.554 212.417 119.439H209.186C209.119 118.564 208.446 118.295 207.84 118.295C207.032 118.295 206.561 118.699 206.561 119.237C206.561 120.045 207.167 120.112 208.85 120.449C210.735 120.718 212.754 121.257 212.754 124.219C212.754 126.171 211.475 127.652 208.782 127.921V129.2H206.965V127.921Z" fill="white"/>
<path d="M213.966 124.287H217.13C217.197 124.893 217.735 125.297 218.476 125.297C219.351 125.297 219.89 124.691 219.89 123.951C219.89 123.143 219.351 122.47 218.409 122.47C217.668 122.47 217.264 122.874 217.13 123.345H214.168L214.504 116.142H222.246V118.835H217.264L217.197 120.248L217.332 120.316C217.735 120.046 218.476 119.912 219.149 119.912C221.572 119.912 223.053 121.595 223.053 123.883C223.053 126.374 221.371 127.99 218.543 127.99C215.716 127.99 214.033 126.509 213.966 124.287Z" fill="white"/>
<path d="M224.063 121.931C224.063 118.161 225.948 116.007 228.708 116.007C231.602 116.007 233.285 118.363 233.285 121.931C233.285 125.768 231.4 127.855 228.64 127.855C225.746 127.922 224.063 125.499 224.063 121.931ZM230.256 121.931C230.256 119.036 229.516 118.565 228.708 118.565C227.9 118.565 227.16 118.969 227.16 121.931C227.16 124.893 227.9 125.297 228.708 125.297C229.516 125.364 230.256 124.893 230.256 121.931Z" fill="white"/>
<path d="M234.228 121.931C234.228 118.161 236.112 116.007 238.872 116.007C241.767 116.007 243.45 118.363 243.45 121.931C243.45 125.768 241.565 127.855 238.805 127.855C235.843 127.922 234.228 125.499 234.228 121.931ZM240.353 121.931C240.353 119.036 239.613 118.565 238.805 118.565C237.997 118.565 237.257 118.969 237.257 121.931C237.257 124.893 237.997 125.297 238.805 125.297C239.68 125.364 240.353 124.893 240.353 121.931Z" fill="white"/>
<path d="M450.798 83.0034H308.4V281H450.798V83.0034Z" fill="#F5F5F4"/>
<path d="M450.798 83.0034H308.4V154.618H450.798V83.0034Z" fill="black"/>
<path d="M426.15 172.215C426.15 172.298 406.566 172.464 382.418 172.464C358.271 172.464 338.687 172.381 338.687 172.215C338.687 172.049 358.271 171.966 382.418 171.966C406.566 171.966 426.15 172.049 426.15 172.215Z" fill="#262626"/>
<path d="M426.15 191.461C426.15 191.544 406.566 191.71 382.418 191.71C358.271 191.71 338.687 191.627 338.687 191.461C338.687 191.295 358.271 191.212 382.418 191.212C406.566 191.212 426.15 191.378 426.15 191.461Z" fill="#262626"/>
<path d="M426.15 210.796C426.15 210.879 406.566 211.045 382.418 211.045C358.271 211.045 338.687 210.962 338.687 210.796C338.687 210.63 358.271 210.547 382.418 210.547C406.566 210.547 426.15 210.713 426.15 210.796Z" fill="#262626"/>
<path d="M329.808 175.783C329.476 175.783 329.227 175.7 328.978 175.451L326.571 173.294C326.074 172.796 325.991 172.049 326.488 171.551C326.986 171.053 327.733 170.97 328.231 171.468L329.725 172.796L333.127 168.979C333.625 168.481 334.372 168.481 334.87 168.979C335.285 169.393 335.368 170.14 334.953 170.638L330.721 175.368C330.555 175.617 330.14 175.783 329.808 175.783Z" fill="black"/>
<path d="M329.808 195.112C329.476 195.112 329.227 195.029 328.978 194.78L326.571 192.623C326.074 192.125 325.991 191.378 326.488 190.88C326.986 190.382 327.733 190.299 328.231 190.797L329.725 192.125L333.127 188.308C333.542 187.81 334.372 187.727 334.87 188.142C335.368 188.557 335.451 189.387 335.036 189.885L334.953 189.968L330.721 194.698C330.555 194.946 330.14 195.112 329.808 195.112Z" fill="black"/>
<path d="M329.808 214.364C329.476 214.364 329.227 214.281 328.978 214.032L326.571 211.875C326.074 211.377 325.991 210.63 326.488 210.132C326.986 209.634 327.733 209.551 328.231 210.049L329.725 211.377L333.127 207.56C333.625 207.062 334.372 207.062 334.87 207.56C335.285 207.975 335.368 208.722 334.953 209.219L330.721 213.949C330.555 214.198 330.14 214.364 329.808 214.364Z" fill="black"/>
<path d="M388.148 102.171L390.14 106.32L394.787 106.984L391.468 110.22L392.215 114.784L388.148 112.627L383.999 114.784L384.829 110.22L381.51 106.984L386.074 106.32L388.148 102.171Z" fill="white"/>
<path d="M371.967 102.171L374.041 106.32L378.605 106.984L375.286 110.22L376.116 114.784L371.967 112.627L367.901 114.784L368.647 110.22L365.328 106.984L369.975 106.32L371.967 102.171Z" fill="white"/>
<path d="M385.079 119.268L379.602 116.364L374.208 119.185L375.287 113.128L370.971 108.813L377.029 107.983L379.768 102.506L382.423 108.066L388.481 108.979L384.083 113.211L385.079 119.268Z" fill="white"/>
<path d="M369.888 108.477L376.693 107.564L379.846 101.423L382.834 107.647L389.638 108.726L384.659 113.456L385.655 120.177L379.597 116.941L373.457 120.094L374.701 113.373L369.888 108.477ZM387.398 109.307L382.087 108.477L379.763 103.581L377.357 108.394L372.046 109.058L375.863 112.875L374.867 118.186L379.68 115.696L384.41 118.269L383.581 112.958L387.398 109.307Z" fill="black"/>
<path d="M359.601 144.161C356.448 143.829 354.622 142.004 354.622 139.431H358.689C358.689 140.51 359.269 141.174 360.846 141.174C361.842 141.174 362.589 140.759 362.589 140.012C362.589 138.85 361.925 138.767 359.85 138.436C357.029 137.938 354.954 136.859 354.954 134.037C354.954 131.465 356.697 129.722 359.601 129.39V127.814H361.842V129.39C364.58 129.722 366.323 131.382 366.323 133.706H362.34C362.257 132.627 361.427 132.295 360.68 132.295C359.684 132.295 359.104 132.793 359.104 133.457C359.104 134.452 359.85 134.535 361.925 134.95C364.248 135.282 366.738 135.946 366.738 139.597C366.738 142.004 365.161 143.829 361.842 144.161V145.738H359.601V144.161Z" fill="white"/>
<path d="M368.146 140.099H371.88C372.046 140.597 372.71 140.929 373.457 140.929C374.702 140.929 375.531 140.016 375.448 138.19H375.282C374.785 138.854 373.789 139.269 372.461 139.269C369.723 139.269 367.98 137.36 367.98 134.539C367.98 131.303 370.221 129.477 373.54 129.477C377.025 129.477 379.349 131.635 379.349 136.78C379.349 141.676 377.191 144.248 373.374 144.248C370.386 144.165 368.478 142.505 368.146 140.099ZM375.282 134.622C375.282 133.46 374.619 132.796 373.54 132.796C372.461 132.796 371.797 133.543 371.797 134.622C371.797 135.701 372.461 136.448 373.54 136.448C374.619 136.448 375.282 135.701 375.282 134.622Z" fill="white"/>
<path d="M380.762 136.69C380.762 132.043 383.085 129.388 386.488 129.388C390.056 129.388 392.13 132.292 392.13 136.69C392.13 141.42 389.807 143.993 386.405 143.993C382.837 144.076 380.762 141.171 380.762 136.69ZM388.396 136.773C388.396 133.205 387.483 132.624 386.488 132.624C385.492 132.624 384.579 133.122 384.579 136.773C384.579 140.424 385.492 140.922 386.488 140.922C387.483 140.922 388.396 140.341 388.396 136.773Z" fill="white"/>
<path d="M393.209 136.69C393.209 132.043 395.533 129.388 398.935 129.388C402.503 129.388 404.578 132.292 404.578 136.69C404.578 141.42 402.254 143.993 398.852 143.993C395.284 144.076 393.209 141.171 393.209 136.69ZM400.844 136.773C400.844 133.205 399.931 132.624 398.935 132.624C397.939 132.624 397.026 133.122 397.026 136.773C397.026 140.424 397.939 140.922 398.935 140.922C400.014 140.922 400.844 140.341 400.844 136.773Z" fill="white"/>
</g>
<defs>
<filter id="filter0_i_9678_471" x="0" y="0" width="442" height="224" filterUnits="userSpaceOnUse" color-interpolation-filters="sRGB">
<feFlood flood-opacity="0" result="BackgroundImageFix"/>
<feBlend mode="normal" in="SourceGraphic" in2="BackgroundImageFix" result="shape"/>
<feColorMatrix in="SourceAlpha" type="matrix" values="0 0 0 0 0 0 0 0 0 0 0 0 0 0 0 0 0 0 127 0" result="hardAlpha"/>
<feOffset/>
<feGaussianBlur stdDeviation="2"/>
<feComposite in2="hardAlpha" operator="arithmetic" k2="-1" k3="1"/>
<feColorMatrix type="matrix" values="0 0 0 0 0 0 0 0 0 0 0 0 0 0 0 0 0 0 0.08 0"/>
<feBlend mode="normal" in2="shape" result="effect1_innerShadow_9678_471"/>
</filter>
<radialGradient id="paint0_radial_9678_471" cx="0" cy="0" r="1" gradientUnits="userSpaceOnUse" gradientTransform="translate(221 112) rotate(90) scale(112 221)">
<stop stop-color="#F59E0B" stop-opacity="0"/>
<stop offset="1" stop-color="#F59E0B" stop-opacity="0.2"/>
</radialGradient>
<clipPath id="clip0_9678_471">
<rect width="442" height="224" fill="white"/>
</clipPath>
</defs>
</svg>
