<svg width="406" height="141" viewBox="0 0 406 141" fill="none" xmlns="http://www.w3.org/2000/svg">
<rect x="0.5" y="0.5" width="405" height="140" rx="7.5" fill="white"/>
<rect x="0.5" y="0.5" width="405" height="140" rx="7.5" stroke="#E5E7EB"/>
<path d="M18.4084 17.7464C18.3686 17.3454 18.1979 17.0339 17.8963 16.8118C17.5947 16.5897 17.1854 16.4787 16.6683 16.4787C16.317 16.4787 16.0204 16.5284 15.7784 16.6278C15.5365 16.724 15.3509 16.8582 15.2216 17.0305C15.0956 17.2029 15.0327 17.3984 15.0327 17.6172C15.026 17.7995 15.0642 17.9586 15.147 18.0945C15.2332 18.2304 15.3509 18.348 15.5 18.4474C15.6491 18.5436 15.8215 18.6281 16.017 18.701C16.2126 18.7706 16.4214 18.8303 16.6435 18.88L17.5582 19.0987C18.0024 19.1982 18.41 19.3307 18.7812 19.4964C19.1525 19.6622 19.474 19.866 19.7457 20.108C20.0175 20.3499 20.228 20.6349 20.3771 20.9631C20.5296 21.2912 20.6075 21.6674 20.6108 22.0916C20.6075 22.7147 20.4484 23.255 20.1335 23.7124C19.822 24.1664 19.3712 24.5194 18.7812 24.7713C18.1946 25.0199 17.487 25.1442 16.6584 25.1442C15.8364 25.1442 15.1205 25.0182 14.5107 24.7663C13.9041 24.5144 13.4302 24.1416 13.0888 23.6477C12.7507 23.1506 12.5734 22.5357 12.5568 21.8033H14.6399C14.6631 22.1446 14.7609 22.4297 14.9332 22.6584C15.1089 22.8838 15.3426 23.0545 15.6342 23.1705C15.9292 23.2831 16.2623 23.3395 16.6335 23.3395C16.9981 23.3395 17.3146 23.2865 17.5831 23.1804C17.8549 23.0743 18.0653 22.9268 18.2145 22.7379C18.3636 22.549 18.4382 22.3319 18.4382 22.0866C18.4382 21.858 18.3703 21.6657 18.2344 21.5099C18.1018 21.3542 17.9063 21.2216 17.6477 21.1122C17.3925 21.0028 17.0793 20.9034 16.7081 20.8139L15.5994 20.5355C14.741 20.3267 14.0632 20.0002 13.5661 19.5561C13.0689 19.112 12.822 18.5137 12.8253 17.7614C12.822 17.1449 12.986 16.6063 13.3175 16.1456C13.6522 15.6849 14.1113 15.3253 14.6946 15.0668C15.2779 14.8082 15.9408 14.679 16.6832 14.679C17.4389 14.679 18.0985 14.8082 18.6619 15.0668C19.2287 15.3253 19.6695 15.6849 19.9844 16.1456C20.2992 16.6063 20.4616 17.1399 20.4716 17.7464H18.4084ZM26.0808 17.3636V18.9545H21.4821V17.3636H26.0808ZM22.5261 15.5341H24.644V22.6534C24.644 22.849 24.6738 23.0014 24.7335 23.1108C24.7931 23.2169 24.876 23.2914 24.9821 23.3345C25.0914 23.3776 25.2174 23.3991 25.3599 23.3991C25.4593 23.3991 25.5588 23.3909 25.6582 23.3743C25.7576 23.3544 25.8339 23.3395 25.8869 23.3295L26.22 24.9055C26.1139 24.9387 25.9648 24.9768 25.7725 25.0199C25.5803 25.0663 25.3467 25.0945 25.0716 25.1044C24.5611 25.1243 24.1137 25.0563 23.7292 24.9006C23.3481 24.7448 23.0514 24.5028 22.8393 24.1747C22.6272 23.8466 22.5228 23.4323 22.5261 22.9318V15.5341ZM28.7679 27.8636C28.4995 27.8636 28.2476 27.8421 28.0123 27.799C27.7802 27.7592 27.588 27.7079 27.4355 27.6449L27.9128 26.0639C28.1614 26.1402 28.3851 26.1816 28.584 26.1882C28.7862 26.1948 28.9602 26.1484 29.106 26.049C29.2551 25.9496 29.3761 25.7805 29.4689 25.5419L29.5932 25.2188L26.8539 17.3636H29.0811L30.6621 22.9716H30.7417L32.3375 17.3636H34.5797L31.6117 25.8253C31.4692 26.2363 31.2753 26.5942 31.03 26.8991C30.7881 27.2074 30.4815 27.4444 30.1103 27.6101C29.7391 27.7791 29.2916 27.8636 28.7679 27.8636ZM37.7814 14.8182V25H35.6635V14.8182H37.7814ZM42.9581 25.1491C42.1726 25.1491 41.4964 24.9901 40.9297 24.6719C40.3662 24.3504 39.9321 23.8963 39.6271 23.3097C39.3222 22.7197 39.1697 22.022 39.1697 21.2166C39.1697 20.4311 39.3222 19.7417 39.6271 19.1484C39.9321 18.5552 40.3613 18.0928 40.9148 17.7614C41.4716 17.4299 42.1245 17.2642 42.8736 17.2642C43.3774 17.2642 43.8464 17.3454 44.2805 17.5078C44.718 17.6669 45.0992 17.9072 45.424 18.2287C45.7521 18.5502 46.0073 18.9545 46.1896 19.4418C46.3719 19.9257 46.4631 20.4924 46.4631 21.142V21.7237H40.0149V20.4112H44.4695C44.4695 20.1063 44.4032 19.8362 44.2706 19.6009C44.138 19.3655 43.9541 19.1816 43.7188 19.049C43.4867 18.9131 43.2166 18.8452 42.9084 18.8452C42.5869 18.8452 42.3018 18.9197 42.0533 19.0689C41.808 19.2147 41.6158 19.4119 41.4766 19.6605C41.3374 19.9058 41.2661 20.1792 41.2628 20.4808V21.7287C41.2628 22.1065 41.3324 22.433 41.4716 22.7081C41.6141 22.9832 41.8146 23.1953 42.0732 23.3445C42.3317 23.4936 42.6383 23.5682 42.9929 23.5682C43.2282 23.5682 43.4437 23.535 43.6392 23.4688C43.8348 23.4025 44.0021 23.303 44.1413 23.1705C44.2805 23.0379 44.3866 22.8755 44.4595 22.6832L46.4183 22.8125C46.3189 23.2831 46.1151 23.6941 45.8068 24.0455C45.5019 24.3935 45.1075 24.6652 44.6236 24.8608C44.143 25.053 43.5878 25.1491 42.9581 25.1491Z" fill="#696969"/>
<g clip-path="url(#clip0_12629_258)">
<path d="M387.425 23.0379C388.183 22.9313 388.866 22.5074 389.291 21.8649L393.783 15.0262C394.133 14.493 394.044 13.7875 393.572 13.3527C393.1 12.918 392.38 12.8797 391.864 13.2625L385.289 18.1188C384.622 18.6109 384.228 19.3793 384.222 20.1996L387.425 23.0379ZM386.88 23.7324L383.658 20.8777C381.997 20.9379 380.666 22.2859 380.666 23.9375C380.666 24.0442 380.672 24.1508 380.683 24.2547C380.733 24.7332 380.4 25.25 379.911 25.25H379.778C379.286 25.25 378.889 25.641 378.889 26.125C378.889 26.609 379.286 27 379.778 27H383.778C385.497 27 386.889 25.6301 386.889 23.9375C386.889 23.8692 386.886 23.8008 386.883 23.7324H386.88Z" fill="#696969"/>
</g>
<rect y="40" width="406" height="1" fill="#E5E7EB"/>
<path d="M13.056 64V55.252H16.596C18.456 55.252 19.644 56.26 19.644 58.036C19.644 59.716 18.492 60.832 16.584 60.82H14.364V64H13.056ZM16.392 56.38H14.364V59.776H16.392C17.532 59.788 18.312 59.236 18.312 58.072C18.312 56.908 17.52 56.38 16.392 56.38ZM21.0248 64V55.252H25.1048C27.0247 55.252 28.0088 56.116 28.0088 57.664C28.0088 58.72 27.4568 59.512 26.4608 59.776V59.86C27.4088 60.028 27.8048 60.592 27.8048 61.588V63.052C27.8048 63.352 27.8048 63.676 27.9488 64H26.6288C26.5208 63.772 26.4968 63.436 26.4968 63.028V61.816C26.4968 60.928 26.1728 60.46 24.9368 60.46H22.3328V64H21.0248ZM22.3328 59.404H24.9248C26.1728 59.404 26.6648 58.744 26.6648 57.832C26.6648 56.788 25.9688 56.356 24.9248 56.356H22.3328V59.404ZM29.6615 64V55.252H30.9695V64H29.6615ZM33.0951 64V55.252H35.1351L37.5351 61.948H37.5831L39.9831 55.252H42.0111V64H40.7391V59.908L40.7751 56.632H40.6911L38.1111 64H36.9951L34.4391 56.632H34.3551L34.3791 59.92V64H33.0951ZM43.1141 64L46.2221 55.252H48.0581L51.1661 64H49.7981L49.0781 61.96H45.2021L44.4821 64H43.1141ZM45.5141 60.94H48.7541L47.7941 58.24L47.1821 56.452H47.1101L46.4981 58.24L45.5141 60.94ZM52.2435 64V55.252H56.3235C58.2435 55.252 59.2275 56.116 59.2275 57.664C59.2275 58.72 58.6755 59.512 57.6795 59.776V59.86C58.6275 60.028 59.0235 60.592 59.0235 61.588V63.052C59.0235 63.352 59.0235 63.676 59.1675 64H57.8475C57.7395 63.772 57.7155 63.436 57.7155 63.028V61.816C57.7155 60.928 57.3915 60.46 56.1555 60.46H53.5515V64H52.2435ZM53.5515 59.404H56.1435C57.3915 59.404 57.8835 58.744 57.8835 57.832C57.8835 56.788 57.1875 56.356 56.1435 56.356H53.5515V59.404ZM62.819 64V60.556L59.579 55.252H61.067L63.443 59.284H63.503L65.903 55.252H67.379L64.127 60.556V64H62.819ZM74.8773 64.108C72.2973 64.108 70.5933 62.392 70.5933 59.632C70.5933 56.86 72.3093 55.156 74.8773 55.156C77.0373 55.156 78.5853 56.344 78.8493 58.18H77.5293C77.2893 57.064 76.3053 56.284 74.8773 56.284C73.0653 56.284 71.9373 57.496 71.9373 59.632C71.9373 61.756 73.0653 62.98 74.8773 62.98C76.2933 62.98 77.3133 62.212 77.5293 61.036L78.8493 61.048C78.6213 62.896 77.0373 64.108 74.8773 64.108ZM84.2997 64.108C81.6957 64.108 79.9917 62.404 79.9917 59.632C79.9917 56.848 81.7077 55.156 84.2997 55.156C86.9037 55.156 88.6197 56.848 88.6197 59.632C88.6197 62.416 86.8917 64.108 84.2997 64.108ZM84.2997 62.98C86.1237 62.98 87.2757 61.744 87.2757 59.632C87.2757 57.508 86.1237 56.284 84.2997 56.284C82.4757 56.284 81.3357 57.508 81.3357 59.632C81.3357 61.756 82.4877 62.98 84.2997 62.98ZM90.1419 64V55.252H91.4499V62.824H95.6259V64H90.1419ZM100.132 64.108C97.5278 64.108 95.8238 62.404 95.8238 59.632C95.8238 56.848 97.5398 55.156 100.132 55.156C102.736 55.156 104.452 56.848 104.452 59.632C104.452 62.416 102.724 64.108 100.132 64.108ZM100.132 62.98C101.956 62.98 103.108 61.744 103.108 59.632C103.108 57.508 101.956 56.284 100.132 56.284C98.3078 56.284 97.1678 57.508 97.1678 59.632C97.1678 61.756 98.3198 62.98 100.132 62.98ZM105.974 64V55.252H110.054C111.974 55.252 112.958 56.116 112.958 57.664C112.958 58.72 112.406 59.512 111.41 59.776V59.86C112.358 60.028 112.754 60.592 112.754 61.588V63.052C112.754 63.352 112.754 63.676 112.898 64H111.578C111.47 63.772 111.446 63.436 111.446 63.028V61.816C111.446 60.928 111.122 60.46 109.886 60.46H107.282V64H105.974ZM107.282 59.404H109.874C111.122 59.404 111.614 58.744 111.614 57.832C111.614 56.788 110.918 56.356 109.874 56.356H107.282V59.404Z" fill="#696969"/>
<rect x="12" y="71" width="187" height="16" rx="4" fill="#D9D9D9"/>
<path d="M208.056 64V55.252H212.112C213.816 55.252 214.74 56.152 214.74 57.496C214.74 58.408 214.272 59.2 213.336 59.44V59.5C214.404 59.716 214.968 60.544 214.968 61.54C214.968 63.112 213.84 64 211.956 64H208.056ZM209.34 59.02H211.908C212.928 59.02 213.432 58.48 213.432 57.676C213.432 56.776 212.784 56.284 211.8 56.284H209.34V59.02ZM209.34 62.968H211.836C213.06 62.968 213.636 62.356 213.636 61.468C213.636 60.532 213.012 60.016 211.968 60.016H209.34V62.968ZM215.263 64L218.371 55.252H220.207L223.315 64H221.947L221.227 61.96H217.351L216.631 64H215.263ZM217.663 60.94H220.903L219.943 58.24L219.331 56.452H219.259L218.647 58.24L217.663 60.94ZM227.795 64.108C225.215 64.108 223.511 62.392 223.511 59.632C223.511 56.86 225.227 55.156 227.795 55.156C229.955 55.156 231.503 56.344 231.767 58.18H230.447C230.207 57.064 229.223 56.284 227.795 56.284C225.983 56.284 224.855 57.496 224.855 59.632C224.855 61.756 225.983 62.98 227.795 62.98C229.211 62.98 230.231 62.212 230.447 61.036L231.767 61.048C231.539 62.896 229.955 64.108 227.795 64.108ZM233.298 64V55.252H234.606V59.836L238.758 55.252H240.342L236.97 58.888L240.402 64H238.854L236.082 59.836L234.606 61.396V64H233.298ZM244.74 64.108C242.088 64.108 240.468 62.308 240.468 59.632C240.468 56.848 242.208 55.156 244.788 55.156C247.008 55.156 248.544 56.344 248.772 58.156H247.428C247.2 56.956 246.144 56.296 244.788 56.296C242.988 56.296 241.8 57.496 241.8 59.62C241.8 61.756 242.952 62.992 244.764 62.992C246.432 62.992 247.548 62.032 247.632 60.412H244.848V59.44H248.964V60.076C248.964 62.548 247.284 64.108 244.74 64.108ZM250.501 64V55.252H254.581C256.501 55.252 257.485 56.116 257.485 57.664C257.485 58.72 256.933 59.512 255.937 59.776V59.86C256.885 60.028 257.281 60.592 257.281 61.588V63.052C257.281 63.352 257.281 63.676 257.425 64H256.105C255.997 63.772 255.973 63.436 255.973 63.028V61.816C255.973 60.928 255.649 60.46 254.413 60.46H251.809V64H250.501ZM251.809 59.404H254.401C255.649 59.404 256.141 58.744 256.141 57.832C256.141 56.788 255.445 56.356 254.401 56.356H251.809V59.404ZM262.8 64.108C260.196 64.108 258.492 62.404 258.492 59.632C258.492 56.848 260.208 55.156 262.8 55.156C265.404 55.156 267.12 56.848 267.12 59.632C267.12 62.416 265.392 64.108 262.8 64.108ZM262.8 62.98C264.624 62.98 265.776 61.744 265.776 59.632C265.776 57.508 264.624 56.284 262.8 56.284C260.976 56.284 259.836 57.508 259.836 59.632C259.836 61.756 260.988 62.98 262.8 62.98ZM272.146 64.108C269.902 64.108 268.57 62.824 268.57 60.76V55.252H269.878V60.736C269.878 62.2 270.742 62.932 272.158 62.932C273.694 62.932 274.438 62.092 274.438 60.736V55.252H275.734V60.76C275.734 62.824 274.39 64.108 272.146 64.108ZM277.783 64V55.252H279.391L283.915 62.26H283.999L283.927 59.332V55.252H285.199V64H283.663L279.139 57.076H279.067L279.115 59.8V64H277.783ZM287.31 64V55.252H290.85C293.37 55.252 294.81 57.004 294.81 59.632C294.81 62.26 293.37 64 290.85 64H287.31ZM288.618 62.872H290.658C292.35 62.872 293.466 61.828 293.466 59.608C293.466 57.388 292.338 56.38 290.658 56.38H288.618V62.872Z" fill="#696969"/>
<rect x="207" y="71" width="187" height="16" rx="4" fill="#D9D9D9"/>
<path d="M14.856 106V98.392H12.108V97.252H18.936V98.392H16.164V106H14.856ZM20.1107 106V97.252H26.2427V98.38H21.4187V101.008H25.6547V102.064H21.4187V104.86H26.2547V106H20.1107ZM27.9154 106V97.252H29.9554L32.3554 103.948H32.4034L34.8034 97.252H36.8314V106H35.5594V101.908L35.5954 98.632H35.5114L32.9314 106H31.8154L29.2594 98.632H29.1754L29.1994 101.92V106H27.9154ZM38.9544 106V97.252H42.4944C44.3544 97.252 45.5424 98.26 45.5424 100.036C45.5424 101.716 44.3904 102.832 42.4824 102.82H40.2624V106H38.9544ZM42.2904 98.38H40.2624V101.776H42.2904C43.4304 101.788 44.2104 101.236 44.2104 100.072C44.2104 98.908 43.4184 98.38 42.2904 98.38ZM46.9232 106V97.252H48.2312V104.824H52.4072V106H46.9232ZM52.5477 106L55.6557 97.252H57.4917L60.5997 106H59.2317L58.5117 103.96H54.6357L53.9157 106H52.5477ZM54.9477 102.94H58.1877L57.2277 100.24L56.6157 98.452H56.5437L55.9317 100.24L54.9477 102.94ZM62.4576 106V98.392H59.7096V97.252H66.5376V98.392H63.7656V106H62.4576ZM67.7123 106V97.252H73.8443V98.38H69.0203V101.008H73.2563V102.064H69.0203V104.86H73.8563V106H67.7123Z" fill="#696969"/>
<rect x="12" y="113" width="382" height="16" rx="4" fill="#D9D9D9"/>
<defs>
<clipPath id="clip0_12629_258">
<rect width="16" height="14" fill="white" transform="translate(378 13)"/>
</clipPath>
</defs>
</svg>
