<svg width="406" height="160" viewBox="0 0 406 160" fill="none" xmlns="http://www.w3.org/2000/svg">
<rect x="0.5" y="0.5" width="405" height="159" rx="7.5" fill="white"/>
<rect x="0.5" y="0.5" width="405" height="159" rx="7.5" stroke="#E5E7EB"/>
<g filter="url(#filter0_d_12629_328)">
<rect x="12" y="12" width="382" height="35" rx="4" fill="#696969" shape-rendering="crispEdges"/>
<path d="M165.259 34V25.2727H168.702C169.364 25.2727 169.928 25.3991 170.393 25.652C170.859 25.902 171.214 26.25 171.459 26.696C171.706 27.1392 171.83 27.6506 171.83 28.2301C171.83 28.8097 171.705 29.321 171.455 29.7642C171.205 30.2074 170.842 30.5526 170.368 30.7997C169.896 31.0469 169.325 31.1705 168.655 31.1705H166.46V29.6918H168.357C168.712 29.6918 169.004 29.6307 169.234 29.5085C169.467 29.3835 169.641 29.2116 169.754 28.9929C169.871 28.7713 169.929 28.517 169.929 28.2301C169.929 27.9403 169.871 27.6875 169.754 27.4716C169.641 27.2528 169.467 27.0838 169.234 26.9645C169.001 26.8423 168.706 26.7812 168.348 26.7812H167.104V34H165.259ZM174.685 34.1236C174.267 34.1236 173.895 34.0511 173.568 33.9062C173.241 33.7585 172.983 33.5412 172.793 33.2543C172.605 32.9645 172.511 32.6037 172.511 32.1719C172.511 31.8082 172.578 31.5028 172.712 31.2557C172.845 31.0085 173.027 30.8097 173.257 30.6591C173.487 30.5085 173.749 30.3949 174.041 30.3182C174.337 30.2415 174.646 30.1875 174.97 30.1562C175.351 30.1165 175.658 30.0795 175.891 30.0455C176.124 30.0085 176.293 29.9545 176.398 29.8835C176.503 29.8125 176.555 29.7074 176.555 29.5682V29.5426C176.555 29.2727 176.47 29.0639 176.3 28.9162C176.132 28.7685 175.893 28.6946 175.584 28.6946C175.257 28.6946 174.997 28.767 174.804 28.9119C174.611 29.054 174.483 29.233 174.42 29.4489L172.741 29.3125C172.827 28.9148 172.994 28.571 173.244 28.2812C173.494 27.9886 173.817 27.7642 174.212 27.608C174.609 27.4489 175.07 27.3693 175.592 27.3693C175.956 27.3693 176.304 27.4119 176.636 27.4972C176.972 27.5824 177.268 27.7145 177.527 27.8935C177.788 28.0724 177.994 28.3026 178.145 28.5838C178.295 28.8622 178.371 29.196 178.371 29.5852V34H176.649V33.0923H176.598C176.493 33.2969 176.352 33.4773 176.176 33.6335C176 33.7869 175.788 33.9077 175.541 33.9957C175.294 34.081 175.009 34.1236 174.685 34.1236ZM175.205 32.8707C175.472 32.8707 175.707 32.8182 175.912 32.7131C176.116 32.6051 176.277 32.4602 176.393 32.2784C176.51 32.0966 176.568 31.8906 176.568 31.6605V30.9659C176.511 31.0028 176.433 31.0369 176.334 31.0682C176.237 31.0966 176.128 31.1236 176.006 31.1491C175.884 31.1719 175.761 31.1932 175.639 31.2131C175.517 31.2301 175.406 31.2457 175.307 31.2599C175.094 31.2912 174.908 31.3409 174.749 31.4091C174.589 31.4773 174.466 31.5696 174.378 31.6861C174.29 31.7997 174.246 31.9418 174.246 32.1122C174.246 32.3594 174.335 32.5483 174.514 32.679C174.696 32.8068 174.926 32.8707 175.205 32.8707ZM180.665 36.4545C180.435 36.4545 180.219 36.4361 180.018 36.3991C179.819 36.3651 179.654 36.321 179.523 36.267L179.933 34.9119C180.146 34.9773 180.337 35.0128 180.508 35.0185C180.681 35.0241 180.83 34.9844 180.955 34.8991C181.083 34.8139 181.187 34.669 181.266 34.4645L181.373 34.1875L179.025 27.4545H180.934L182.289 32.2614H182.357L183.725 27.4545H185.647L183.103 34.7074C182.981 35.0597 182.815 35.3665 182.604 35.6278C182.397 35.892 182.134 36.0952 181.816 36.2372C181.498 36.3821 181.114 36.4545 180.665 36.4545ZM196.687 25.2727V34H195.093L191.297 28.5071H191.233V34H189.387V25.2727H191.007L194.774 30.7614H194.85V25.2727H196.687ZM201.135 34.1278C200.473 34.1278 199.901 33.9872 199.418 33.706C198.938 33.4219 198.567 33.027 198.305 32.5213C198.044 32.0128 197.913 31.4233 197.913 30.7528C197.913 30.0767 198.044 29.4858 198.305 28.9801C198.567 28.4716 198.938 28.0767 199.418 27.7955C199.901 27.5114 200.473 27.3693 201.135 27.3693C201.797 27.3693 202.368 27.5114 202.848 27.7955C203.331 28.0767 203.703 28.4716 203.964 28.9801C204.226 29.4858 204.357 30.0767 204.357 30.7528C204.357 31.4233 204.226 32.0128 203.964 32.5213C203.703 33.027 203.331 33.4219 202.848 33.706C202.368 33.9872 201.797 34.1278 201.135 34.1278ZM201.143 32.7216C201.445 32.7216 201.696 32.6364 201.898 32.4659C202.099 32.2926 202.251 32.0568 202.354 31.7585C202.459 31.4602 202.511 31.1207 202.511 30.7401C202.511 30.3594 202.459 30.0199 202.354 29.7216C202.251 29.4233 202.099 29.1875 201.898 29.0142C201.696 28.8409 201.445 28.7543 201.143 28.7543C200.839 28.7543 200.584 28.8409 200.376 29.0142C200.172 29.1875 200.017 29.4233 199.912 29.7216C199.81 30.0199 199.759 30.3594 199.759 30.7401C199.759 31.1207 199.81 31.4602 199.912 31.7585C200.017 32.0568 200.172 32.2926 200.376 32.4659C200.584 32.6364 200.839 32.7216 201.143 32.7216ZM206.664 34L204.883 27.4545H206.719L207.734 31.8523H207.793L208.85 27.4545H210.653L211.727 31.8267H211.782L212.779 27.4545H214.612L212.835 34H210.913L209.788 29.8835H209.707L208.582 34H206.664ZM221.272 35.0909V24.1818H221.971V35.0909H221.272ZM223.126 27.7827C223.092 27.4389 222.945 27.1719 222.687 26.9815C222.428 26.7912 222.077 26.696 221.634 26.696C221.333 26.696 221.079 26.7386 220.871 26.8239C220.664 26.9062 220.505 27.0213 220.394 27.169C220.286 27.3168 220.232 27.4844 220.232 27.6719C220.227 27.8281 220.259 27.9645 220.33 28.081C220.404 28.1974 220.505 28.2983 220.633 28.3835C220.761 28.4659 220.908 28.5384 221.076 28.6009C221.244 28.6605 221.423 28.7116 221.613 28.7543L222.397 28.9418C222.778 29.027 223.127 29.1406 223.445 29.2827C223.763 29.4247 224.039 29.5994 224.272 29.8068C224.505 30.0142 224.685 30.2585 224.813 30.5398C224.944 30.821 225.011 31.1435 225.013 31.5071C225.011 32.0412 224.874 32.5043 224.604 32.8963C224.337 33.2855 223.951 33.5881 223.445 33.804C222.942 34.017 222.336 34.1236 221.626 34.1236C220.921 34.1236 220.308 34.0156 219.785 33.7997C219.265 33.5838 218.859 33.2642 218.566 32.8409C218.276 32.4148 218.124 31.8878 218.11 31.2599H219.896C219.915 31.5526 219.999 31.7969 220.147 31.9929C220.298 32.1861 220.498 32.3324 220.748 32.4318C221.001 32.5284 221.286 32.5767 221.604 32.5767C221.917 32.5767 222.188 32.5312 222.418 32.4403C222.651 32.3494 222.832 32.223 222.96 32.0611C223.087 31.8991 223.151 31.7131 223.151 31.5028C223.151 31.3068 223.093 31.142 222.977 31.0085C222.863 30.875 222.695 30.7614 222.474 30.6676C222.255 30.5739 221.987 30.4886 221.668 30.4119L220.718 30.1733C219.982 29.9943 219.401 29.7145 218.975 29.3338C218.549 28.9531 218.337 28.4403 218.34 27.7955C218.337 27.267 218.478 26.8054 218.762 26.4105C219.049 26.0156 219.442 25.7074 219.942 25.4858C220.442 25.2642 221.011 25.1534 221.647 25.1534C222.295 25.1534 222.86 25.2642 223.343 25.4858C223.829 25.7074 224.207 26.0156 224.477 26.4105C224.746 26.8054 224.886 27.2628 224.894 27.7827H223.126ZM229.391 34.1193C228.789 34.1193 228.252 34.0085 227.78 33.7869C227.311 33.5653 226.939 33.2599 226.664 32.8707C226.388 32.4815 226.245 32.0355 226.233 31.5327H228.023C228.043 31.8707 228.185 32.1449 228.449 32.3551C228.713 32.5653 229.027 32.6705 229.391 32.6705C229.681 32.6705 229.936 32.6065 230.158 32.4787C230.382 32.348 230.557 32.1676 230.682 31.9375C230.81 31.7045 230.874 31.4375 230.874 31.1364C230.874 30.8295 230.809 30.5597 230.678 30.3267C230.55 30.0937 230.373 29.9119 230.145 29.7812C229.918 29.6506 229.658 29.5838 229.365 29.581C229.11 29.581 228.861 29.6335 228.62 29.7386C228.381 29.8437 228.195 29.9872 228.061 30.169L226.421 29.875L226.834 25.2727H232.169V26.7812H228.355L228.13 28.9673H228.181C228.334 28.7514 228.566 28.5724 228.875 28.4304C229.185 28.2884 229.532 28.2173 229.915 28.2173C230.441 28.2173 230.909 28.3409 231.321 28.5881C231.733 28.8352 232.059 29.1747 232.297 29.6065C232.536 30.0355 232.654 30.5298 232.651 31.0895C232.654 31.6776 232.517 32.2003 232.242 32.6577C231.969 33.1122 231.587 33.4702 231.096 33.7315C230.607 33.9901 230.039 34.1193 229.391 34.1193ZM237.36 34.1918C236.627 34.1889 235.996 34.0085 235.468 33.6506C234.942 33.2926 234.537 32.7741 234.253 32.0952C233.972 31.4162 233.833 30.5994 233.836 29.6449C233.836 28.6932 233.976 27.8821 234.257 27.2116C234.542 26.5412 234.946 26.0312 235.472 25.6818C236 25.3295 236.63 25.1534 237.36 25.1534C238.09 25.1534 238.718 25.3295 239.243 25.6818C239.772 26.0341 240.178 26.5455 240.462 27.2159C240.746 27.8835 240.887 28.6932 240.884 29.6449C240.884 30.6023 240.742 31.4205 240.458 32.0994C240.176 32.7784 239.773 33.2969 239.248 33.6548C238.722 34.0128 238.093 34.1918 237.36 34.1918ZM237.36 32.6619C237.86 32.6619 238.259 32.4105 238.557 31.9077C238.855 31.4048 239.003 30.6506 239 29.6449C239 28.983 238.932 28.4318 238.796 27.9915C238.662 27.5511 238.472 27.2202 238.225 26.9986C237.98 26.777 237.692 26.6662 237.36 26.6662C236.863 26.6662 236.465 26.9148 236.167 27.4119C235.868 27.9091 235.718 28.6534 235.715 29.6449C235.715 30.3153 235.782 30.875 235.915 31.3239C236.051 31.7699 236.243 32.1051 236.49 32.3295C236.738 32.5511 237.027 32.6619 237.36 32.6619Z" fill="white"/>
</g>
<rect y="59" width="406" height="1" fill="#E5E7EB"/>
<path d="M13.056 83V74.252H17.112C18.816 74.252 19.74 75.152 19.74 76.496C19.74 77.408 19.272 78.2 18.336 78.44V78.5C19.404 78.716 19.968 79.544 19.968 80.54C19.968 82.112 18.84 83 16.956 83H13.056ZM14.34 78.02H16.908C17.928 78.02 18.432 77.48 18.432 76.676C18.432 75.776 17.784 75.284 16.8 75.284H14.34V78.02ZM14.34 81.968H16.836C18.06 81.968 18.636 81.356 18.636 80.468C18.636 79.532 18.012 79.016 16.968 79.016H14.34V81.968ZM24.9389 83.108C22.6949 83.108 21.3629 81.824 21.3629 79.76V74.252H22.6709V79.736C22.6709 81.2 23.5349 81.932 24.9509 81.932C26.4869 81.932 27.2309 81.092 27.2309 79.736V74.252H28.5269V79.76C28.5269 81.824 27.1829 83.108 24.9389 83.108ZM32.188 83V75.392H29.44V74.252H36.268V75.392H33.496V83H32.188ZM39.606 83V75.392H36.858V74.252H43.686V75.392H40.914V83H39.606ZM48.206 83.108C45.602 83.108 43.898 81.404 43.898 78.632C43.898 75.848 45.614 74.156 48.206 74.156C50.81 74.156 52.526 75.848 52.526 78.632C52.526 81.416 50.798 83.108 48.206 83.108ZM48.206 81.98C50.03 81.98 51.182 80.744 51.182 78.632C51.182 76.508 50.03 75.284 48.206 75.284C46.382 75.284 45.242 76.508 45.242 78.632C45.242 80.756 46.394 81.98 48.206 81.98ZM54.0482 83V74.252H55.6562L60.1802 81.26H60.2642L60.1922 78.332V74.252H61.4642V83H59.9282L55.4042 76.076H55.3322L55.3802 78.8V83H54.0482ZM66.2591 83V74.252H67.5671V81.824H71.7431V83H66.2591ZM71.8837 83L74.9917 74.252H76.8277L79.9357 83H78.5677L77.8477 80.96H73.9717L73.2517 83H71.8837ZM74.2837 79.94H77.5237L76.5637 77.24L75.9517 75.452H75.8797L75.2677 77.24L74.2837 79.94ZM81.013 83V74.252H85.069C86.773 74.252 87.697 75.152 87.697 76.496C87.697 77.408 87.229 78.2 86.293 78.44V78.5C87.361 78.716 87.925 79.544 87.925 80.54C87.925 82.112 86.797 83 84.913 83H81.013ZM82.297 78.02H84.865C85.885 78.02 86.389 77.48 86.389 76.676C86.389 75.776 85.741 75.284 84.757 75.284H82.297V78.02ZM82.297 81.968H84.793C86.017 81.968 86.593 81.356 86.593 80.468C86.593 79.532 85.969 79.016 84.925 79.016H82.297V81.968ZM89.474 83V74.252H95.606V75.38H90.782V78.008H95.018V79.064H90.782V81.86H95.618V83H89.474ZM97.2787 83V74.252H98.5867V81.824H102.763V83H97.2787Z" fill="#696969"/>
<rect x="12" y="90" width="187" height="16" rx="4" fill="#D9D9D9"/>
<path d="M208.056 83V74.252H212.112C213.816 74.252 214.74 75.152 214.74 76.496C214.74 77.408 214.272 78.2 213.336 78.44V78.5C214.404 78.716 214.968 79.544 214.968 80.54C214.968 82.112 213.84 83 211.956 83H208.056ZM209.34 78.02H211.908C212.928 78.02 213.432 77.48 213.432 76.676C213.432 75.776 212.784 75.284 211.8 75.284H209.34V78.02ZM209.34 81.968H211.836C213.06 81.968 213.636 81.356 213.636 80.468C213.636 79.532 213.012 79.016 211.968 79.016H209.34V81.968ZM219.939 83.108C217.695 83.108 216.363 81.824 216.363 79.76V74.252H217.671V79.736C217.671 81.2 218.535 81.932 219.951 81.932C221.487 81.932 222.231 81.092 222.231 79.736V74.252H223.527V79.76C223.527 81.824 222.183 83.108 219.939 83.108ZM227.188 83V75.392H224.44V74.252H231.268V75.392H228.496V83H227.188ZM234.606 83V75.392H231.858V74.252H238.686V75.392H235.914V83H234.606ZM243.206 83.108C240.602 83.108 238.898 81.404 238.898 78.632C238.898 75.848 240.614 74.156 243.206 74.156C245.81 74.156 247.526 75.848 247.526 78.632C247.526 81.416 245.798 83.108 243.206 83.108ZM243.206 81.98C245.03 81.98 246.182 80.744 246.182 78.632C246.182 76.508 245.03 75.284 243.206 75.284C241.382 75.284 240.242 76.508 240.242 78.632C240.242 80.756 241.394 81.98 243.206 81.98ZM249.048 83V74.252H250.656L255.18 81.26H255.264L255.192 78.332V74.252H256.464V83H254.928L250.404 76.076H250.332L250.38 78.8V83H249.048ZM261.259 83V74.252H265.315C267.019 74.252 267.943 75.152 267.943 76.496C267.943 77.408 267.475 78.2 266.539 78.44V78.5C267.607 78.716 268.171 79.544 268.171 80.54C268.171 82.112 267.043 83 265.159 83H261.259ZM262.543 78.02H265.111C266.131 78.02 266.635 77.48 266.635 76.676C266.635 75.776 265.987 75.284 265.003 75.284H262.543V78.02ZM262.543 81.968H265.039C266.263 81.968 266.839 81.356 266.839 80.468C266.839 79.532 266.215 79.016 265.171 79.016H262.543V81.968ZM268.466 83L271.574 74.252H273.41L276.518 83H275.15L274.43 80.96H270.554L269.834 83H268.466ZM270.866 79.94H274.106L273.146 77.24L272.534 75.452H272.462L271.85 77.24L270.866 79.94ZM280.998 83.108C278.418 83.108 276.714 81.392 276.714 78.632C276.714 75.86 278.43 74.156 280.998 74.156C283.158 74.156 284.706 75.344 284.97 77.18H283.65C283.41 76.064 282.426 75.284 280.998 75.284C279.186 75.284 278.058 76.496 278.058 78.632C278.058 80.756 279.186 81.98 280.998 81.98C282.414 81.98 283.434 81.212 283.65 80.036L284.97 80.048C284.742 81.896 283.158 83.108 280.998 83.108ZM286.501 83V74.252H287.809V78.836L291.961 74.252H293.545L290.173 77.888L293.605 83H292.057L289.285 78.836L287.809 80.396V83H286.501ZM297.943 83.108C295.291 83.108 293.671 81.308 293.671 78.632C293.671 75.848 295.411 74.156 297.991 74.156C300.211 74.156 301.747 75.344 301.975 77.156H300.631C300.403 75.956 299.347 75.296 297.991 75.296C296.191 75.296 295.003 76.496 295.003 78.62C295.003 80.756 296.155 81.992 297.967 81.992C299.635 81.992 300.751 81.032 300.835 79.412H298.051V78.44H302.167V79.076C302.167 81.548 300.487 83.108 297.943 83.108ZM303.704 83V74.252H307.784C309.704 74.252 310.688 75.116 310.688 76.664C310.688 77.72 310.136 78.512 309.14 78.776V78.86C310.088 79.028 310.484 79.592 310.484 80.588V82.052C310.484 82.352 310.484 82.676 310.628 83H309.308C309.2 82.772 309.176 82.436 309.176 82.028V80.816C309.176 79.928 308.852 79.46 307.616 79.46H305.012V83H303.704ZM305.012 78.404H307.604C308.852 78.404 309.344 77.744 309.344 76.832C309.344 75.788 308.648 75.356 307.604 75.356H305.012V78.404ZM316.003 83.108C313.399 83.108 311.695 81.404 311.695 78.632C311.695 75.848 313.411 74.156 316.003 74.156C318.607 74.156 320.323 75.848 320.323 78.632C320.323 81.416 318.595 83.108 316.003 83.108ZM316.003 81.98C317.827 81.98 318.979 80.744 318.979 78.632C318.979 76.508 317.827 75.284 316.003 75.284C314.179 75.284 313.039 76.508 313.039 78.632C313.039 80.756 314.191 81.98 316.003 81.98ZM325.349 83.108C323.105 83.108 321.773 81.824 321.773 79.76V74.252H323.081V79.736C323.081 81.2 323.945 81.932 325.361 81.932C326.897 81.932 327.641 81.092 327.641 79.736V74.252H328.937V79.76C328.937 81.824 327.593 83.108 325.349 83.108ZM330.986 83V74.252H332.594L337.118 81.26H337.202L337.13 78.332V74.252H338.402V83H336.866L332.342 76.076H332.27L332.318 78.8V83H330.986ZM340.513 83V74.252H344.053C346.573 74.252 348.013 76.004 348.013 78.632C348.013 81.26 346.573 83 344.053 83H340.513ZM341.821 81.872H343.861C345.553 81.872 346.669 80.828 346.669 78.608C346.669 76.388 345.541 75.38 343.861 75.38H341.821V81.872Z" fill="#696969"/>
<rect x="207" y="90" width="187" height="16" rx="4" fill="#D9D9D9"/>
<path d="M13.056 125V116.252H16.596C19.116 116.252 20.556 118.004 20.556 120.632C20.556 123.26 19.116 125 16.596 125H13.056ZM14.364 123.872H16.404C18.096 123.872 19.212 122.828 19.212 120.608C19.212 118.388 18.084 117.38 16.404 117.38H14.364V123.872ZM22.0794 125V116.252H28.2114V117.38H23.3874V120.008H27.6234V121.064H23.3874V123.86H28.2234V125H22.0794ZM29.8841 125V116.252H35.9921V117.38H31.1921V120.188H35.5121V121.268H31.1921V125H29.8841ZM35.7196 125L38.8276 116.252H40.6636L43.7716 125H42.4036L41.6836 122.96H37.8076L37.0876 125H35.7196ZM38.1196 121.94H41.3596L40.3996 119.24L39.7876 117.452H39.7156L39.1036 119.24L38.1196 121.94ZM47.9428 125.108C45.6988 125.108 44.3668 123.824 44.3668 121.76V116.252H45.6748V121.736C45.6748 123.2 46.5388 123.932 47.9548 123.932C49.4908 123.932 50.2348 123.092 50.2348 121.736V116.252H51.5308V121.76C51.5308 123.824 50.1868 125.108 47.9428 125.108ZM53.5794 125V116.252H54.8874V123.824H59.0634V125H53.5794ZM60.5826 125V117.392H57.8346V116.252H64.6626V117.392H61.8906V125H60.5826ZM68.5208 125V116.252H74.6288V117.38H69.8288V120.188H74.1488V121.268H69.8288V125H68.5208ZM76.0326 125V116.252H77.3406V125H76.0326ZM78.4462 125L81.5542 116.252H83.3902L86.4982 125H85.1302L84.4102 122.96H80.5342L79.8142 125H78.4462ZM80.8462 121.94H84.0862L83.1262 119.24L82.5142 117.452H82.4422L81.8302 119.24L80.8462 121.94ZM88.356 125V117.392H85.608V116.252H92.436V117.392H89.664V125H88.356ZM100.002 125.108C97.4223 125.108 95.7183 123.392 95.7183 120.632C95.7183 117.86 97.4343 116.156 100.002 116.156C102.162 116.156 103.71 117.344 103.974 119.18H102.654C102.414 118.064 101.43 117.284 100.002 117.284C98.1903 117.284 97.0623 118.496 97.0623 120.632C97.0623 122.756 98.1903 123.98 100.002 123.98C101.418 123.98 102.438 123.212 102.654 122.036L103.974 122.048C103.746 123.896 102.162 125.108 100.002 125.108ZM109.009 125.108C106.765 125.108 105.433 123.824 105.433 121.76V116.252H106.741V121.736C106.741 123.2 107.605 123.932 109.021 123.932C110.557 123.932 111.301 123.092 111.301 121.736V116.252H112.597V121.76C112.597 123.824 111.253 125.108 109.009 125.108ZM114.646 125V116.252H118.726C120.646 116.252 121.63 117.116 121.63 118.664C121.63 119.72 121.078 120.512 120.082 120.776V120.86C121.03 121.028 121.426 121.592 121.426 122.588V124.052C121.426 124.352 121.426 124.676 121.57 125H120.25C120.142 124.772 120.118 124.436 120.118 124.028V122.816C120.118 121.928 119.794 121.46 118.558 121.46H115.954V125H114.646ZM115.954 120.404H118.546C119.794 120.404 120.286 119.744 120.286 118.832C120.286 117.788 119.59 117.356 118.546 117.356H115.954V120.404ZM123.283 125V116.252H127.363C129.283 116.252 130.267 117.116 130.267 118.664C130.267 119.72 129.715 120.512 128.719 120.776V120.86C129.667 121.028 130.063 121.592 130.063 122.588V124.052C130.063 124.352 130.063 124.676 130.207 125H128.887C128.779 124.772 128.755 124.436 128.755 124.028V122.816C128.755 121.928 128.431 121.46 127.195 121.46H124.591V125H123.283ZM124.591 120.404H127.183C128.431 120.404 128.923 119.744 128.923 118.832C128.923 117.788 128.227 117.356 127.183 117.356H124.591V120.404ZM131.919 125V116.252H138.051V117.38H133.227V120.008H137.463V121.064H133.227V123.86H138.063V125H131.919ZM139.724 125V116.252H141.332L145.856 123.26H145.94L145.868 120.332V116.252H147.14V125H145.604L141.08 118.076H141.008L141.056 120.8V125H139.724ZM152.959 125.108C150.379 125.108 148.675 123.392 148.675 120.632C148.675 117.86 150.391 116.156 152.959 116.156C155.119 116.156 156.667 117.344 156.931 119.18H155.611C155.371 118.064 154.387 117.284 152.959 117.284C151.147 117.284 150.019 118.496 150.019 120.632C150.019 122.756 151.147 123.98 152.959 123.98C154.375 123.98 155.395 123.212 155.611 122.036L156.931 122.048C156.703 123.896 155.119 125.108 152.959 125.108ZM160.096 125V121.556L156.856 116.252H158.344L160.72 120.284H160.78L163.18 116.252H164.656L161.404 121.556V125H160.096Z" fill="#696969"/>
<rect x="12" y="132" width="382" height="16" rx="4" fill="#D9D9D9"/>
<defs>
<filter id="filter0_d_12629_328" x="8" y="8" width="394" height="47" filterUnits="userSpaceOnUse" color-interpolation-filters="sRGB">
<feFlood flood-opacity="0" result="BackgroundImageFix"/>
<feColorMatrix in="SourceAlpha" type="matrix" values="0 0 0 0 0 0 0 0 0 0 0 0 0 0 0 0 0 0 127 0" result="hardAlpha"/>
<feOffset dx="2" dy="2"/>
<feGaussianBlur stdDeviation="3"/>
<feComposite in2="hardAlpha" operator="out"/>
<feColorMatrix type="matrix" values="0 0 0 0 0.85098 0 0 0 0 0.85098 0 0 0 0 0.85098 0 0 0 1 0"/>
<feBlend mode="normal" in2="BackgroundImageFix" result="effect1_dropShadow_12629_328"/>
<feBlend mode="normal" in="SourceGraphic" in2="effect1_dropShadow_12629_328" result="shape"/>
</filter>
</defs>
</svg>
