<svg width="406" height="141" viewBox="0 0 406 141" fill="none" xmlns="http://www.w3.org/2000/svg">
<rect x="0.5" y="0.5" width="405" height="140" rx="7.5" fill="white"/>
<rect x="0.5" y="0.5" width="405" height="140" rx="7.5" stroke="#E5E7EB"/>
<path d="M14.6399 25H12.3331L15.848 14.8182H18.6222L22.1321 25H19.8253L17.2749 17.1449H17.1953L14.6399 25ZM14.4957 20.9979H19.9446V22.6783H14.4957V20.9979ZM25.7763 25.1243C25.1963 25.1243 24.6709 24.9751 24.2003 24.6768C23.733 24.3752 23.3617 23.9328 23.0866 23.3494C22.8149 22.7628 22.679 22.0436 22.679 21.1918C22.679 20.3168 22.8198 19.5893 23.1016 19.0092C23.3833 18.4259 23.7578 17.9901 24.2251 17.7017C24.6958 17.41 25.2112 17.2642 25.7713 17.2642C26.1989 17.2642 26.5552 17.3371 26.8402 17.483C27.1286 17.6255 27.3606 17.8045 27.5362 18.0199C27.7152 18.232 27.8511 18.4408 27.9439 18.6463H28.0085V14.8182H30.1214V25H28.0334V23.777H27.9439C27.8445 23.9891 27.7036 24.1996 27.5213 24.4084C27.3423 24.6139 27.1087 24.7846 26.8203 24.9205C26.5353 25.0563 26.1873 25.1243 25.7763 25.1243ZM26.4474 23.4389C26.7888 23.4389 27.0772 23.3461 27.3125 23.1605C27.5511 22.9716 27.7334 22.7081 27.8594 22.37C27.9886 22.032 28.0533 21.6359 28.0533 21.1818C28.0533 20.7277 27.9903 20.3333 27.8643 19.9986C27.7384 19.6638 27.5561 19.4053 27.3175 19.223C27.0788 19.0407 26.7888 18.9496 26.4474 18.9496C26.0994 18.9496 25.8061 19.044 25.5675 19.233C25.3288 19.4219 25.1482 19.6837 25.0256 20.0185C24.9029 20.3532 24.8416 20.741 24.8416 21.1818C24.8416 21.6259 24.9029 22.0187 25.0256 22.3601C25.1515 22.6982 25.3321 22.9633 25.5675 23.1555C25.8061 23.3445 26.0994 23.4389 26.4474 23.4389ZM34.6767 25.1243C34.0967 25.1243 33.5713 24.9751 33.1007 24.6768C32.6333 24.3752 32.2621 23.9328 31.987 23.3494C31.7153 22.7628 31.5794 22.0436 31.5794 21.1918C31.5794 20.3168 31.7202 19.5893 32.002 19.0092C32.2837 18.4259 32.6582 17.9901 33.1255 17.7017C33.5962 17.41 34.1116 17.2642 34.6717 17.2642C35.0993 17.2642 35.4556 17.3371 35.7406 17.483C36.0289 17.6255 36.2609 17.8045 36.4366 18.0199C36.6156 18.232 36.7515 18.4408 36.8443 18.6463H36.9089V14.8182H39.0218V25H36.9338V23.777H36.8443C36.7449 23.9891 36.604 24.1996 36.4217 24.4084C36.2427 24.6139 36.0091 24.7846 35.7207 24.9205C35.4357 25.0563 35.0877 25.1243 34.6767 25.1243ZM35.3478 23.4389C35.6892 23.4389 35.9776 23.3461 36.2129 23.1605C36.4515 22.9716 36.6338 22.7081 36.7598 22.37C36.889 22.032 36.9537 21.6359 36.9537 21.1818C36.9537 20.7277 36.8907 20.3333 36.7647 19.9986C36.6388 19.6638 36.4565 19.4053 36.2179 19.223C35.9792 19.0407 35.6892 18.9496 35.3478 18.9496C34.9998 18.9496 34.7065 19.044 34.4679 19.233C34.2292 19.4219 34.0486 19.6837 33.926 20.0185C33.8033 20.3532 33.742 20.741 33.742 21.1818C33.742 21.6259 33.8033 22.0187 33.926 22.3601C34.0519 22.6982 34.2325 22.9633 34.4679 23.1555C34.7065 23.3445 34.9998 23.4389 35.3478 23.4389ZM44.0431 25V14.8182H48.0602C48.8324 14.8182 49.4904 14.9657 50.0339 15.2607C50.5775 15.5523 50.9918 15.9583 51.2768 16.4787C51.5652 16.9957 51.7093 17.5923 51.7093 18.2685C51.7093 18.9446 51.5635 19.5412 51.2718 20.0582C50.9802 20.5753 50.5576 20.978 50.0041 21.2663C49.4539 21.5547 48.7877 21.6989 48.0055 21.6989H45.4451V19.9737H47.6575C48.0718 19.9737 48.4132 19.9025 48.6816 19.7599C48.9534 19.6141 49.1556 19.4136 49.2882 19.1584C49.4241 18.8999 49.492 18.6032 49.492 18.2685C49.492 17.9304 49.4241 17.6354 49.2882 17.3835C49.1556 17.1283 48.9534 16.9311 48.6816 16.7919C48.4099 16.6494 48.0652 16.5781 47.6475 16.5781H46.1958V25H44.0431ZM53.0678 25V17.3636H55.1211V18.696H55.2006C55.3398 18.2221 55.5735 17.8641 55.9016 17.6222C56.2298 17.3769 56.6076 17.2543 57.0352 17.2543C57.1412 17.2543 57.2556 17.2609 57.3782 17.2741C57.5008 17.2874 57.6085 17.3056 57.7013 17.3288V19.2081C57.6019 19.1783 57.4644 19.1518 57.2887 19.1286C57.113 19.1054 56.9523 19.0938 56.8065 19.0938C56.4949 19.0938 56.2165 19.1617 55.9712 19.2976C55.7293 19.4302 55.5371 19.6158 55.3945 19.8544C55.2553 20.093 55.1857 20.3681 55.1857 20.6797V25H53.0678ZM58.7963 25V17.3636H60.9142V25H58.7963ZM59.8603 16.3793C59.5454 16.3793 59.2753 16.2749 59.0499 16.0661C58.8278 15.8539 58.7168 15.6004 58.7168 15.3054C58.7168 15.0137 58.8278 14.7635 59.0499 14.5547C59.2753 14.3426 59.5454 14.2365 59.8603 14.2365C60.1751 14.2365 60.4436 14.3426 60.6657 14.5547C60.891 14.7635 61.0037 15.0137 61.0037 15.3054C61.0037 15.6004 60.891 15.8539 60.6657 16.0661C60.4436 16.2749 60.1751 16.3793 59.8603 16.3793ZM66.0611 25.1491C65.2789 25.1491 64.6061 24.9834 64.0426 24.652C63.4825 24.3172 63.0516 23.8532 62.75 23.2599C62.4517 22.6667 62.3026 21.9839 62.3026 21.2116C62.3026 20.4295 62.4534 19.7434 62.755 19.1534C63.0599 18.5601 63.4924 18.0978 64.0526 17.7663C64.6127 17.4316 65.2789 17.2642 66.0511 17.2642C66.7173 17.2642 67.3007 17.3852 67.8011 17.6271C68.3016 17.8691 68.6977 18.2088 68.9893 18.6463C69.281 19.0838 69.4418 19.5975 69.4716 20.1875H67.473C67.4167 19.8063 67.2675 19.4998 67.0256 19.2678C66.7869 19.0324 66.4737 18.9148 66.0859 18.9148C65.7578 18.9148 65.4711 19.0043 65.2259 19.1832C64.9839 19.3589 64.795 19.6158 64.6591 19.9538C64.5232 20.2919 64.4553 20.7012 64.4553 21.1818C64.4553 21.669 64.5215 22.0833 64.6541 22.4247C64.79 22.7661 64.9806 23.0263 65.2259 23.2053C65.4711 23.3842 65.7578 23.4737 66.0859 23.4737C66.3279 23.4737 66.545 23.424 66.7372 23.3246C66.9328 23.2251 67.0935 23.081 67.2195 22.892C67.3487 22.6998 67.4332 22.4695 67.473 22.201H69.4716C69.4384 22.7843 69.2794 23.2981 68.9943 23.7422C68.7126 24.183 68.3232 24.5277 67.826 24.7763C67.3288 25.0249 66.7405 25.1491 66.0611 25.1491ZM74.3077 25.1491C73.5222 25.1491 72.8461 24.9901 72.2793 24.6719C71.7158 24.3504 71.2817 23.8963 70.9767 23.3097C70.6718 22.7197 70.5194 22.022 70.5194 21.2166C70.5194 20.4311 70.6718 19.7417 70.9767 19.1484C71.2817 18.5552 71.7109 18.0928 72.2644 17.7614C72.8212 17.4299 73.4741 17.2642 74.2232 17.2642C74.727 17.2642 75.196 17.3454 75.6301 17.5078C76.0676 17.6669 76.4488 17.9072 76.7736 18.2287C77.1017 18.5502 77.3569 18.9545 77.5392 19.4418C77.7215 19.9257 77.8127 20.4924 77.8127 21.142V21.7237H71.3645V20.4112H75.8191C75.8191 20.1063 75.7528 19.8362 75.6202 19.6009C75.4876 19.3655 75.3037 19.1816 75.0684 19.049C74.8364 18.9131 74.5662 18.8452 74.258 18.8452C73.9365 18.8452 73.6515 18.9197 73.4029 19.0689C73.1576 19.2147 72.9654 19.4119 72.8262 19.6605C72.687 19.9058 72.6157 20.1792 72.6124 20.4808V21.7287C72.6124 22.1065 72.682 22.433 72.8212 22.7081C72.9637 22.9832 73.1642 23.1953 73.4228 23.3445C73.6813 23.4936 73.9879 23.5682 74.3425 23.5682C74.5778 23.5682 74.7933 23.535 74.9888 23.4688C75.1844 23.4025 75.3517 23.303 75.4909 23.1705C75.6301 23.0379 75.7362 22.8755 75.8091 22.6832L77.7679 22.8125C77.6685 23.2831 77.4647 23.6941 77.1564 24.0455C76.8515 24.3935 76.4571 24.6652 75.9732 24.8608C75.4926 25.053 74.9374 25.1491 74.3077 25.1491ZM82.4748 25V14.8182H89.2163V16.593H84.6275V19.0192H88.7688V20.794H84.6275V25H82.4748ZM90.6245 25V17.3636H92.7424V25H90.6245ZM91.6884 16.3793C91.3735 16.3793 91.1034 16.2749 90.878 16.0661C90.656 15.8539 90.5449 15.6004 90.5449 15.3054C90.5449 15.0137 90.656 14.7635 90.878 14.5547C91.1034 14.3426 91.3735 14.2365 91.6884 14.2365C92.0033 14.2365 92.2717 14.3426 92.4938 14.5547C92.7192 14.7635 92.8319 15.0137 92.8319 15.3054C92.8319 15.6004 92.7192 15.8539 92.4938 16.0661C92.2717 16.2749 92.0033 16.3793 91.6884 16.3793ZM97.919 25.1491C97.1335 25.1491 96.4574 24.9901 95.8906 24.6719C95.3272 24.3504 94.893 23.8963 94.5881 23.3097C94.2831 22.7197 94.1307 22.022 94.1307 21.2166C94.1307 20.4311 94.2831 19.7417 94.5881 19.1484C94.893 18.5552 95.3222 18.0928 95.8757 17.7614C96.4325 17.4299 97.0855 17.2642 97.8345 17.2642C98.3383 17.2642 98.8073 17.3454 99.2415 17.5078C99.679 17.6669 100.06 17.9072 100.385 18.2287C100.713 18.5502 100.968 18.9545 101.151 19.4418C101.333 19.9257 101.424 20.4924 101.424 21.142V21.7237H94.9759V20.4112H99.4304C99.4304 20.1063 99.3641 19.8362 99.2315 19.6009C99.099 19.3655 98.915 19.1816 98.6797 19.049C98.4477 18.9131 98.1776 18.8452 97.8693 18.8452C97.5478 18.8452 97.2628 18.9197 97.0142 19.0689C96.7689 19.2147 96.5767 19.4119 96.4375 19.6605C96.2983 19.9058 96.227 20.1792 96.2237 20.4808V21.7287C96.2237 22.1065 96.2933 22.433 96.4325 22.7081C96.575 22.9832 96.7756 23.1953 97.0341 23.3445C97.2926 23.4936 97.5992 23.5682 97.9538 23.5682C98.1892 23.5682 98.4046 23.535 98.6001 23.4688C98.7957 23.4025 98.9631 23.303 99.1023 23.1705C99.2415 23.0379 99.3475 22.8755 99.4205 22.6832L101.379 22.8125C101.28 23.2831 101.076 23.6941 100.768 24.0455C100.463 24.3935 100.068 24.6652 99.5845 24.8608C99.1039 25.053 98.5488 25.1491 97.919 25.1491ZM104.924 14.8182V25H102.806V14.8182H104.924ZM109.434 25.1243C108.854 25.1243 108.329 24.9751 107.858 24.6768C107.391 24.3752 107.02 23.9328 106.745 23.3494C106.473 22.7628 106.337 22.0436 106.337 21.1918C106.337 20.3168 106.478 19.5893 106.76 19.0092C107.041 18.4259 107.416 17.9901 107.883 17.7017C108.354 17.41 108.869 17.2642 109.43 17.2642C109.857 17.2642 110.213 17.3371 110.498 17.483C110.787 17.6255 111.019 17.8045 111.194 18.0199C111.373 18.232 111.509 18.4408 111.602 18.6463H111.667V14.8182H113.78V25H111.692V23.777H111.602C111.503 23.9891 111.362 24.1996 111.18 24.4084C111.001 24.6139 110.767 24.7846 110.479 24.9205C110.193 25.0563 109.845 25.1243 109.434 25.1243ZM110.106 23.4389C110.447 23.4389 110.735 23.3461 110.971 23.1605C111.209 22.9716 111.392 22.7081 111.518 22.37C111.647 22.032 111.711 21.6359 111.711 21.1818C111.711 20.7277 111.648 20.3333 111.523 19.9986C111.397 19.6638 111.214 19.4053 110.976 19.223C110.737 19.0407 110.447 18.9496 110.106 18.9496C109.758 18.9496 109.464 19.044 109.226 19.233C108.987 19.4219 108.806 19.6837 108.684 20.0185C108.561 20.3532 108.5 20.741 108.5 21.1818C108.5 21.6259 108.561 22.0187 108.684 22.3601C108.81 22.6982 108.99 22.9633 109.226 23.1555C109.464 23.3445 109.758 23.4389 110.106 23.4389Z" fill="#696969"/>
<path d="M386 13C386.553 13 387 13.4469 387 14V18.2344L390.483 16.1438C390.958 15.8594 391.57 16.0125 391.854 16.4875C392.138 16.9625 391.985 17.575 391.51 17.8594L387.943 20L391.514 22.1438C391.988 22.4281 392.141 23.0406 391.857 23.5156C391.573 23.9906 390.961 24.1438 390.486 23.8594L387 21.7656V26C387 26.5531 386.553 27 386 27C385.447 27 385 26.5531 385 26V21.7656L381.517 23.8562C381.042 24.1406 380.43 23.9875 380.146 23.5125C379.862 23.0375 380.015 22.425 380.49 22.1406L384.057 20L380.486 17.8562C380.012 17.5719 379.859 16.9594 380.143 16.4844C380.427 16.0094 381.039 15.8563 381.514 16.1406L385 18.2344V14C385 13.4469 385.447 13 386 13Z" fill="#696969"/>
<rect y="40" width="406" height="1" fill="#E5E7EB"/>
<path d="M13.056 64V55.252H14.364V62.824H18.54V64H13.056ZM18.6805 64L21.7885 55.252H23.6245L26.7325 64H25.3645L24.6445 61.96H20.7685L20.0485 64H18.6805ZM21.0805 60.94H24.3205L23.3605 58.24L22.7485 56.452H22.6765L22.0645 58.24L21.0805 60.94ZM27.8099 64V55.252H31.8659C33.5699 55.252 34.4939 56.152 34.4939 57.496C34.4939 58.408 34.0259 59.2 33.0899 59.44V59.5C34.1579 59.716 34.7219 60.544 34.7219 61.54C34.7219 63.112 33.5939 64 31.7099 64H27.8099ZM29.0939 59.02H31.6619C32.6819 59.02 33.1859 58.48 33.1859 57.676C33.1859 56.776 32.5379 56.284 31.5539 56.284H29.0939V59.02ZM29.0939 62.968H31.5899C32.8139 62.968 33.3899 62.356 33.3899 61.468C33.3899 60.532 32.7659 60.016 31.7219 60.016H29.0939V62.968ZM36.2708 64V55.252H42.4028V56.38H37.5788V59.008H41.8148V60.064H37.5788V62.86H42.4148V64H36.2708ZM44.0755 64V55.252H45.3835V62.824H49.5595V64H44.0755Z" fill="#696969"/>
<rect x="12" y="71" width="187" height="16" rx="4" fill="#D9D9D9"/>
<path d="M208.056 64V55.252H211.596C214.116 55.252 215.556 57.004 215.556 59.632C215.556 62.26 214.116 64 211.596 64H208.056ZM209.364 62.872H211.404C213.096 62.872 214.212 61.828 214.212 59.608C214.212 57.388 213.084 56.38 211.404 56.38H209.364V62.872ZM217.079 64V55.252H223.211V56.38H218.387V59.008H222.623V60.064H218.387V62.86H223.223V64H217.079ZM224.884 64V55.252H230.992V56.38H226.192V59.188H230.512V60.268H226.192V64H224.884ZM230.72 64L233.828 55.252H235.664L238.772 64H237.404L236.684 61.96H232.808L232.088 64H230.72ZM233.12 60.94H236.36L235.4 58.24L234.788 56.452H234.716L234.104 58.24L233.12 60.94ZM242.943 64.108C240.699 64.108 239.367 62.824 239.367 60.76V55.252H240.675V60.736C240.675 62.2 241.539 62.932 242.955 62.932C244.491 62.932 245.235 62.092 245.235 60.736V55.252H246.531V60.76C246.531 62.824 245.187 64.108 242.943 64.108ZM248.579 64V55.252H249.887V62.824H254.063V64H248.579ZM255.583 64V56.392H252.835V55.252H259.663V56.392H256.891V64H255.583ZM265.717 64L262.525 55.252H263.989L266.101 61.336L266.557 62.764H266.641L267.109 61.348L269.233 55.252H270.673L267.493 64H265.717ZM270.071 64L273.179 55.252H275.015L278.123 64H276.755L276.035 61.96H272.159L271.439 64H270.071ZM272.471 60.94H275.711L274.751 58.24L274.139 56.452H274.067L273.455 58.24L272.471 60.94ZM279.201 64V55.252H280.509V62.824H284.685V64H279.201ZM288.869 64.108C286.625 64.108 285.293 62.824 285.293 60.76V55.252H286.601V60.736C286.601 62.2 287.465 62.932 288.881 62.932C290.417 62.932 291.161 62.092 291.161 60.736V55.252H292.457V60.76C292.457 62.824 291.113 64.108 288.869 64.108ZM294.505 64V55.252H300.637V56.38H295.813V59.008H300.049V60.064H295.813V62.86H300.649V64H294.505Z" fill="#696969"/>
<rect x="207" y="71" width="187" height="16" rx="4" fill="#D9D9D9"/>
<path d="M12.036 106L15.144 97.252H16.98L20.088 106H18.72L18 103.96H14.124L13.404 106H12.036ZM14.436 102.94H17.676L16.716 100.24L16.104 98.452H16.032L15.42 100.24L14.436 102.94ZM22.6465 106L19.4545 97.252H20.9185L23.0305 103.336L23.4865 104.764H23.5705L24.0385 103.348L26.1625 97.252H27.6025L24.4225 106H22.6465ZM27.0008 106L30.1088 97.252H31.9448L35.0528 106H33.6848L32.9648 103.96H29.0888L28.3688 106H27.0008ZM29.4008 102.94H32.6408L31.6808 100.24L31.0688 98.452H30.9968L30.3848 100.24L29.4008 102.94ZM36.1302 106V97.252H37.4382V106H36.1302ZM39.5638 106V97.252H40.8718V104.824H45.0478V106H39.5638ZM45.1883 106L48.2963 97.252H50.1323L53.2403 106H51.8723L51.1523 103.96H47.2763L46.5563 106H45.1883ZM47.5883 102.94H50.8283L49.8683 100.24L49.2563 98.452H49.1843L48.5723 100.24L47.5883 102.94ZM54.3177 106V97.252H58.3737C60.0777 97.252 61.0017 98.152 61.0017 99.496C61.0017 100.408 60.5337 101.2 59.5977 101.44V101.5C60.6657 101.716 61.2297 102.544 61.2297 103.54C61.2297 105.112 60.1017 106 58.2177 106H54.3177ZM55.6017 101.02H58.1697C59.1897 101.02 59.6937 100.48 59.6937 99.676C59.6937 98.776 59.0457 98.284 58.0617 98.284H55.6017V101.02ZM55.6017 104.968H58.0977C59.3217 104.968 59.8977 104.356 59.8977 103.468C59.8977 102.532 59.2737 102.016 58.2297 102.016H55.6017V104.968ZM62.7787 106V97.252H64.0867V104.824H68.2627V106H62.7787ZM69.4232 106V97.252H75.5552V98.38H70.7312V101.008H74.9672V102.064H70.7312V104.86H75.5672V106H69.4232ZM83.4155 106.108C81.1715 106.108 79.8395 104.824 79.8395 102.76V97.252H81.1475V102.736C81.1475 104.2 82.0115 104.932 83.4275 104.932C84.9635 104.932 85.7075 104.092 85.7075 102.736V97.252H87.0035V102.76C87.0035 104.824 85.6595 106.108 83.4155 106.108ZM89.0521 106V97.252H90.6601L95.1841 104.26H95.2681L95.1961 101.332V97.252H96.4681V106H94.9321L90.4081 99.076H90.3361L90.3841 101.8V106H89.0521ZM98.5794 106V97.252H99.8874V106H98.5794ZM103.813 106V98.392H101.065V97.252H107.893V98.392H105.121V106H103.813ZM111.738 106.108C109.41 106.108 108.282 104.944 108.258 103.264H109.602C109.626 104.38 110.274 105.076 111.762 105.076C112.986 105.076 113.802 104.632 113.802 103.708C113.802 102.664 113.214 102.376 111.498 102.088C109.494 101.74 108.462 101.152 108.462 99.652C108.462 98.116 109.674 97.156 111.678 97.156C113.682 97.156 114.858 98.176 114.882 99.712H113.55C113.514 98.668 112.758 98.164 111.63 98.164C110.478 98.164 109.818 98.68 109.818 99.472C109.818 100.444 110.478 100.636 112.158 100.936C113.706 101.188 115.158 101.572 115.158 103.588C115.158 105.088 113.97 106.108 111.738 106.108Z" fill="#696969"/>
<rect x="12" y="113" width="187" height="16" rx="4" fill="#D9D9D9"/>
<path d="M208.056 106V97.252H211.596C214.116 97.252 215.556 99.004 215.556 101.632C215.556 104.26 214.116 106 211.596 106H208.056ZM209.364 104.872H211.404C213.096 104.872 214.212 103.828 214.212 101.608C214.212 99.388 213.084 98.38 211.404 98.38H209.364V104.872ZM217.079 106V97.252H223.211V98.38H218.387V101.008H222.623V102.064H218.387V104.86H223.223V106H217.079ZM227.73 106.108C225.402 106.108 224.274 104.944 224.25 103.264H225.594C225.618 104.38 226.266 105.076 227.754 105.076C228.978 105.076 229.794 104.632 229.794 103.708C229.794 102.664 229.206 102.376 227.49 102.088C225.486 101.74 224.454 101.152 224.454 99.652C224.454 98.116 225.666 97.156 227.67 97.156C229.674 97.156 230.85 98.176 230.874 99.712H229.542C229.506 98.668 228.75 98.164 227.622 98.164C226.47 98.164 225.81 98.68 225.81 99.472C225.81 100.444 226.47 100.636 228.15 100.936C229.698 101.188 231.15 101.572 231.15 103.588C231.15 105.088 229.962 106.108 227.73 106.108ZM236.526 106.108C233.946 106.108 232.242 104.392 232.242 101.632C232.242 98.86 233.958 97.156 236.526 97.156C238.686 97.156 240.234 98.344 240.498 100.18H239.178C238.938 99.064 237.954 98.284 236.526 98.284C234.714 98.284 233.586 99.496 233.586 101.632C233.586 103.756 234.714 104.98 236.526 104.98C237.942 104.98 238.962 104.212 239.178 103.036L240.498 103.048C240.27 104.896 238.686 106.108 236.526 106.108ZM242.029 106V97.252H246.109C248.029 97.252 249.013 98.116 249.013 99.664C249.013 100.72 248.461 101.512 247.465 101.776V101.86C248.413 102.028 248.809 102.592 248.809 103.588V105.052C248.809 105.352 248.809 105.676 248.953 106H247.633C247.525 105.772 247.501 105.436 247.501 105.028V103.816C247.501 102.928 247.177 102.46 245.941 102.46H243.337V106H242.029ZM243.337 101.404H245.929C247.177 101.404 247.669 100.744 247.669 99.832C247.669 98.788 246.973 98.356 245.929 98.356H243.337V101.404ZM250.665 106V97.252H251.973V106H250.665ZM254.099 106V97.252H257.639C259.499 97.252 260.687 98.26 260.687 100.036C260.687 101.716 259.535 102.832 257.627 102.82H255.407V106H254.099ZM257.435 98.38H255.407V101.776H257.435C258.575 101.788 259.355 101.236 259.355 100.072C259.355 98.908 258.563 98.38 257.435 98.38ZM263.868 106V98.392H261.12V97.252H267.948V98.392H265.176V106H263.868ZM269.122 106V97.252H270.43V106H269.122ZM276.288 106.108C273.684 106.108 271.98 104.404 271.98 101.632C271.98 98.848 273.696 97.156 276.288 97.156C278.892 97.156 280.608 98.848 280.608 101.632C280.608 104.416 278.88 106.108 276.288 106.108ZM276.288 104.98C278.112 104.98 279.264 103.744 279.264 101.632C279.264 99.508 278.112 98.284 276.288 98.284C274.464 98.284 273.324 99.508 273.324 101.632C273.324 103.756 274.476 104.98 276.288 104.98ZM282.13 106V97.252H283.738L288.262 104.26H288.346L288.274 101.332V97.252H289.546V106H288.01L283.486 99.076H283.414L283.462 101.8V106H282.13ZM296.045 108.004C294.689 106.732 293.873 104.476 293.873 102.244C293.873 100.012 294.689 97.756 296.045 96.484H297.125C295.853 97.78 295.085 100.024 295.085 102.244C295.085 104.548 295.913 106.756 297.125 108.004H296.045ZM302.386 106.108C299.782 106.108 298.078 104.404 298.078 101.632C298.078 98.848 299.794 97.156 302.386 97.156C304.99 97.156 306.706 98.848 306.706 101.632C306.706 104.416 304.978 106.108 302.386 106.108ZM302.386 104.98C304.21 104.98 305.362 103.744 305.362 101.632C305.362 99.508 304.21 98.284 302.386 98.284C300.562 98.284 299.422 99.508 299.422 101.632C299.422 103.756 300.574 104.98 302.386 104.98ZM308.228 106V97.252H311.768C313.628 97.252 314.816 98.26 314.816 100.036C314.816 101.716 313.664 102.832 311.756 102.82H309.536V106H308.228ZM311.564 98.38H309.536V101.776H311.564C312.704 101.788 313.484 101.236 313.484 100.072C313.484 98.908 312.692 98.38 311.564 98.38ZM317.997 106V98.392H315.249V97.252H322.077V98.392H319.305V106H317.997ZM323.251 106V97.252H324.559V106H323.251ZM330.417 106.108C327.813 106.108 326.109 104.404 326.109 101.632C326.109 98.848 327.825 97.156 330.417 97.156C333.021 97.156 334.737 98.848 334.737 101.632C334.737 104.416 333.009 106.108 330.417 106.108ZM330.417 104.98C332.241 104.98 333.393 103.744 333.393 101.632C333.393 99.508 332.241 98.284 330.417 98.284C328.593 98.284 327.453 99.508 327.453 101.632C327.453 103.756 328.605 104.98 330.417 104.98ZM336.259 106V97.252H337.867L342.391 104.26H342.475L342.403 101.332V97.252H343.675V106H342.139L337.615 99.076H337.543L337.591 101.8V106H336.259ZM344.766 106L347.874 97.252H349.71L352.818 106H351.45L350.73 103.96H346.854L346.134 106H344.766ZM347.166 102.94H350.406L349.446 100.24L348.834 98.452H348.762L348.15 100.24L347.166 102.94ZM353.896 106V97.252H355.204V104.824H359.38V106H353.896ZM360.936 96.484C362.292 97.756 363.096 100.012 363.096 102.244C363.096 104.476 362.292 106.732 360.936 108.004H359.844C361.116 106.708 361.896 104.464 361.896 102.244C361.896 99.94 361.068 97.732 359.844 96.484H360.936Z" fill="#696969"/>
<rect x="207" y="113" width="187" height="16" rx="4" fill="#D9D9D9"/>
</svg>
