<svg width="370" height="460" viewBox="0 0 370 460" fill="none" xmlns="http://www.w3.org/2000/svg">
<rect x="0.5" y="0.5" width="369" height="459" rx="15.5" fill="white"/>
<rect x="0.5" y="0.5" width="369" height="459" rx="15.5" stroke="#E5E7EB"/>
<rect x="12.5" y="12.5" width="345" height="46" rx="7.5" fill="white"/>
<rect x="12.5" y="12.5" width="345" height="46" rx="7.5" stroke="#E5E7EB"/>
<path d="M22.4418 23.2727V32H20.8608V23.2727H22.4418ZM31.3256 23.2727V32H29.9194L25.8072 26.0554H25.7347V32H24.1538V23.2727H25.5685L29.6765 29.2216H29.7532V23.2727H31.3256ZM34.6293 23.2727V32H33.0483V23.2727H34.6293ZM35.9577 24.598V23.2727H42.9208V24.598H40.2234V32H38.6552V24.598H35.9577ZM45.8441 23.2727V32H44.2631V23.2727H45.8441ZM48.6768 32H46.9893L50.0618 23.2727H52.0135L55.0902 32H53.4027L51.0717 25.0625H51.0036L48.6768 32ZM48.7322 28.5781H53.3345V29.848H48.7322V28.5781ZM56.2397 32V23.2727H57.8207V30.6747H61.6644V32H56.2397ZM66.0131 32V23.2727H69.2859C69.9563 23.2727 70.5188 23.3977 70.9734 23.6477C71.4308 23.8977 71.7759 24.2415 72.0089 24.679C72.2447 25.1136 72.3626 25.608 72.3626 26.1619C72.3626 26.7216 72.2447 27.2187 72.0089 27.6534C71.7731 28.0881 71.4251 28.4304 70.9648 28.6804C70.5046 28.9276 69.9379 29.0511 69.2646 29.0511H67.0955V27.7514H69.0515C69.4435 27.7514 69.7646 27.6832 70.0146 27.5469C70.2646 27.4105 70.4492 27.223 70.5685 26.9844C70.6907 26.7457 70.7518 26.4716 70.7518 26.1619C70.7518 25.8523 70.6907 25.5795 70.5685 25.3438C70.4492 25.108 70.2631 24.9247 70.0103 24.794C69.7603 24.6605 69.4379 24.5938 69.043 24.5938H67.5941V32H66.0131ZM73.7358 32V23.2727H77.0085C77.679 23.2727 78.2415 23.3892 78.696 23.6222C79.1534 23.8551 79.4986 24.1818 79.7315 24.6023C79.9673 25.0199 80.0852 25.5071 80.0852 26.0639C80.0852 26.6236 79.9659 27.1094 79.7273 27.5213C79.4915 27.9304 79.1435 28.2472 78.6832 28.4716C78.223 28.6932 77.6577 28.804 76.9872 28.804H74.6562V27.4915H76.7741C77.1662 27.4915 77.4872 27.4375 77.7372 27.3295C77.9872 27.2187 78.1719 27.0582 78.2912 26.848C78.4134 26.6349 78.4744 26.3736 78.4744 26.0639C78.4744 25.7543 78.4134 25.4901 78.2912 25.2713C78.169 25.0497 77.983 24.8821 77.733 24.7685C77.483 24.652 77.1605 24.5938 76.7656 24.5938H75.3168V32H73.7358ZM78.2443 28.0455L80.4048 32H78.6406L76.5185 28.0455H78.2443ZM83.1214 23.2727V32H81.5405V23.2727H83.1214ZM92.3036 26.2173H90.7099C90.6644 25.956 90.5806 25.7244 90.4585 25.5227C90.3363 25.3182 90.1843 25.1449 90.0025 25.0028C89.8207 24.8608 89.6133 24.7543 89.3803 24.6832C89.1502 24.6094 88.9016 24.5724 88.6346 24.5724C88.1602 24.5724 87.7397 24.6918 87.3732 24.9304C87.0067 25.1662 86.7198 25.5128 86.5124 25.9702C86.305 26.4247 86.2013 26.9801 86.2013 27.6364C86.2013 28.304 86.305 28.8665 86.5124 29.3239C86.7227 29.7784 87.0096 30.1222 87.3732 30.3551C87.7397 30.5852 88.1587 30.7003 88.6303 30.7003C88.8917 30.7003 89.136 30.6662 89.3633 30.598C89.5934 30.527 89.7994 30.4233 89.9812 30.2869C90.1658 30.1506 90.3207 29.983 90.4457 29.7841C90.5735 29.5852 90.6616 29.358 90.7099 29.1023L92.3036 29.1108C92.244 29.5256 92.1147 29.9148 91.9158 30.2784C91.7198 30.642 91.4627 30.9631 91.1445 31.2415C90.8263 31.517 90.4542 31.733 90.0281 31.8892C89.6019 32.0426 89.1289 32.1193 88.609 32.1193C87.842 32.1193 87.1573 31.9418 86.555 31.5866C85.9528 31.2315 85.4783 30.7188 85.1317 30.0483C84.7852 29.3778 84.6119 28.5739 84.6119 27.6364C84.6119 26.696 84.7866 25.892 85.136 25.2244C85.4854 24.554 85.9613 24.0412 86.5636 23.6861C87.1658 23.331 87.8477 23.1534 88.609 23.1534C89.0948 23.1534 89.5465 23.2216 89.9641 23.358C90.3817 23.4943 90.7539 23.6946 91.0806 23.9588C91.4073 24.2202 91.6758 24.5412 91.886 24.9219C92.0991 25.2997 92.2383 25.7315 92.3036 26.2173ZM93.7514 32V23.2727H99.4276V24.598H95.3324V26.9673H99.1335V28.2926H95.3324V30.6747H99.4616V32H93.7514Z" fill="#969696"/>
<rect x="20" y="39" width="330" height="12" rx="4" fill="#D9D9D9"/>
<rect x="12" y="71" width="346" height="1" rx="0.5" fill="#D9D9D9"/>
<path d="M13.0043 98V87.8182H16.8224C17.6046 87.8182 18.2609 87.964 18.7912 88.2557C19.3248 88.5473 19.7275 88.9484 19.9993 89.4588C20.2744 89.9659 20.4119 90.5426 20.4119 91.1889C20.4119 91.8419 20.2744 92.4219 19.9993 92.929C19.7242 93.4361 19.3182 93.8355 18.7812 94.1271C18.2443 94.4155 17.5831 94.5597 16.7976 94.5597H14.267V93.0433H16.549C17.0064 93.0433 17.3809 92.9638 17.6726 92.8047C17.9643 92.6456 18.1797 92.4268 18.3189 92.1484C18.4614 91.87 18.5327 91.5502 18.5327 91.1889C18.5327 90.8277 18.4614 90.5095 18.3189 90.2344C18.1797 89.9593 17.9626 89.7455 17.6676 89.593C17.3759 89.4373 16.9998 89.3594 16.5391 89.3594H14.8487V98H13.0043ZM21.9345 98V90.3636H23.6795V91.6364H23.7591C23.8983 91.1955 24.1369 90.8558 24.475 90.6172C24.8163 90.3752 25.2058 90.2543 25.6433 90.2543C25.7427 90.2543 25.8538 90.2592 25.9764 90.2692C26.1023 90.2758 26.2067 90.2874 26.2896 90.304V91.9595C26.2134 91.933 26.0924 91.9098 25.9267 91.8899C25.7643 91.8667 25.6068 91.8551 25.4544 91.8551C25.1262 91.8551 24.8313 91.9264 24.5694 92.0689C24.3109 92.2081 24.1071 92.402 23.9579 92.6506C23.8088 92.8991 23.7342 93.1858 23.7342 93.5107V98H21.9345ZM27.4853 98V90.3636H29.285V98H27.4853ZM28.3901 89.2798C28.1051 89.2798 27.8598 89.1854 27.6543 88.9964C27.4488 88.8042 27.3461 88.5739 27.3461 88.3054C27.3461 88.0336 27.4488 87.8033 27.6543 87.6143C27.8598 87.4221 28.1051 87.326 28.3901 87.326C28.6784 87.326 28.9237 87.4221 29.1259 87.6143C29.3314 87.8033 29.4341 88.0336 29.4341 88.3054C29.4341 88.5739 29.3314 88.8042 29.1259 88.9964C28.9237 89.1854 28.6784 89.2798 28.3901 89.2798ZM34.4666 98.1491C33.7043 98.1491 33.0497 97.9818 32.5028 97.647C31.9593 97.3123 31.54 96.8499 31.245 96.2599C30.9534 95.6667 30.8075 94.9839 30.8075 94.2116C30.8075 93.4361 30.9567 92.7517 31.255 92.1584C31.5533 91.5618 31.9742 91.0978 32.5178 90.7663C33.0646 90.4316 33.7109 90.2642 34.4567 90.2642C35.0765 90.2642 35.625 90.3786 36.1023 90.6072C36.5829 90.8326 36.9657 91.1525 37.2507 91.5668C37.5357 91.9777 37.6982 92.4583 37.7379 93.0085H36.0178C35.9482 92.6406 35.7824 92.334 35.5206 92.0888C35.2621 91.8402 34.9157 91.7159 34.4815 91.7159C34.1136 91.7159 33.7905 91.8153 33.5121 92.0142C33.2337 92.2098 33.0166 92.4915 32.8608 92.8594C32.7083 93.2273 32.6321 93.6681 32.6321 94.1818C32.6321 94.7022 32.7083 95.1496 32.8608 95.5241C33.0133 95.8954 33.227 96.1821 33.5021 96.3842C33.7805 96.5831 34.107 96.6825 34.4815 96.6825C34.7467 96.6825 34.9837 96.6328 35.1925 96.5334C35.4046 96.4306 35.5819 96.2831 35.7244 96.0909C35.867 95.8987 35.9647 95.665 36.0178 95.3899H37.7379C37.6948 95.9302 37.5357 96.4091 37.2607 96.8267C36.9856 97.241 36.611 97.5658 36.1371 97.8011C35.6631 98.0331 35.1063 98.1491 34.4666 98.1491ZM39.2157 98V90.3636H41.0154V98H39.2157ZM40.1206 89.2798C39.8355 89.2798 39.5903 89.1854 39.3848 88.9964C39.1793 88.8042 39.0765 88.5739 39.0765 88.3054C39.0765 88.0336 39.1793 87.8033 39.3848 87.6143C39.5903 87.4221 39.8355 87.326 40.1206 87.326C40.4089 87.326 40.6542 87.4221 40.8564 87.6143C41.0618 87.8033 41.1646 88.0336 41.1646 88.3054C41.1646 88.5739 41.0618 88.8042 40.8564 88.9964C40.6542 89.1854 40.4089 89.2798 40.1206 89.2798ZM44.6658 93.5256V98H42.8661V90.3636H44.5863V91.6612H44.6758C44.8514 91.2337 45.1315 90.8939 45.516 90.642C45.9038 90.3902 46.3827 90.2642 46.9528 90.2642C47.4798 90.2642 47.9388 90.3769 48.3299 90.6023C48.7243 90.8277 49.0292 91.1541 49.2447 91.5817C49.4634 92.0092 49.5711 92.5279 49.5678 93.1378V98H47.7681V93.4162C47.7681 92.9058 47.6355 92.5064 47.3704 92.218C47.1085 91.9297 46.7456 91.7855 46.2816 91.7855C45.9667 91.7855 45.6867 91.8551 45.4414 91.9943C45.1995 92.1302 45.0089 92.3274 44.8697 92.5859C44.7338 92.8445 44.6658 93.1577 44.6658 93.5256ZM54.7184 101.023C54.0721 101.023 53.5169 100.935 53.0529 100.759C52.5889 100.587 52.216 100.355 51.9343 100.063C51.6526 99.7715 51.457 99.4484 51.3477 99.0938L52.9684 98.701C53.0413 98.8501 53.1474 98.9976 53.2866 99.1435C53.4258 99.2926 53.613 99.4152 53.8484 99.5114C54.087 99.6108 54.387 99.6605 54.7482 99.6605C55.2586 99.6605 55.6812 99.5362 56.016 99.2876C56.3507 99.0424 56.5181 98.638 56.5181 98.0746V96.6278H56.4286C56.3358 96.8134 56.1999 97.004 56.021 97.1996C55.8453 97.3951 55.6116 97.5592 55.32 97.6918C55.0316 97.8243 54.6687 97.8906 54.2312 97.8906C53.6445 97.8906 53.1126 97.7531 52.6353 97.478C52.1613 97.1996 51.7835 96.7853 51.5018 96.2351C51.2234 95.6816 51.0842 94.9889 51.0842 94.157C51.0842 93.3184 51.2234 92.6108 51.5018 92.0341C51.7835 91.4541 52.163 91.0149 52.6403 90.7166C53.1175 90.415 53.6495 90.2642 54.2362 90.2642C54.6836 90.2642 55.0515 90.3404 55.3398 90.4929C55.6315 90.642 55.8635 90.8227 56.0359 91.0348C56.2082 91.2436 56.3391 91.4408 56.4286 91.6264H56.5281V90.3636H58.3029V98.1243C58.3029 98.7772 58.1471 99.3175 57.8356 99.745C57.524 100.173 57.0981 100.492 56.5579 100.705C56.0176 100.917 55.4045 101.023 54.7184 101.023ZM54.7333 96.4787C55.1145 96.4787 55.4393 96.3859 55.7077 96.2003C55.9762 96.0147 56.18 95.7479 56.3192 95.3999C56.4585 95.0518 56.5281 94.6342 56.5281 94.147C56.5281 93.6664 56.4585 93.2455 56.3192 92.8842C56.1834 92.523 55.9812 92.2429 55.7127 92.044C55.4476 91.8419 55.1211 91.7408 54.7333 91.7408C54.3323 91.7408 53.9975 91.8452 53.729 92.054C53.4606 92.2628 53.2584 92.5495 53.1225 92.9141C52.9866 93.2753 52.9187 93.6863 52.9187 94.147C52.9187 94.6143 52.9866 95.0237 53.1225 95.375C53.2617 95.723 53.4656 95.9948 53.734 96.1903C54.0058 96.3826 54.3389 96.4787 54.7333 96.4787ZM69.233 90.6172C69.1866 90.183 68.991 89.8449 68.6463 89.603C68.3049 89.361 67.8608 89.2401 67.3139 89.2401C66.9295 89.2401 66.5997 89.2981 66.3246 89.4141C66.0495 89.5301 65.839 89.6875 65.6932 89.8864C65.5473 90.0852 65.4728 90.3123 65.4695 90.5675C65.4695 90.7796 65.5175 90.9635 65.6136 91.1193C65.7131 91.2751 65.8473 91.4077 66.0163 91.517C66.1854 91.6231 66.3726 91.7126 66.5781 91.7855C66.7836 91.8584 66.9908 91.9197 67.1996 91.9695L68.1541 92.2081C68.5386 92.2976 68.9081 92.4186 69.2628 92.571C69.6207 92.7235 69.9406 92.9157 70.2223 93.1477C70.5073 93.3797 70.7327 93.6598 70.8984 93.9879C71.0642 94.3161 71.147 94.7005 71.147 95.1413C71.147 95.7379 70.9946 96.2633 70.6896 96.7173C70.3847 97.1681 69.9439 97.5211 69.3672 97.7763C68.7938 98.0282 68.0994 98.1541 67.2841 98.1541C66.492 98.1541 65.8042 98.0315 65.2209 97.7862C64.6409 97.541 64.1868 97.183 63.8587 96.7124C63.5339 96.2417 63.3582 95.6683 63.3317 94.9922H65.1463C65.1728 95.3468 65.2822 95.6418 65.4744 95.8771C65.6667 96.1125 65.9169 96.2881 66.2251 96.4041C66.5367 96.5201 66.8847 96.5781 67.2692 96.5781C67.6702 96.5781 68.0215 96.5185 68.3232 96.3991C68.6281 96.2765 68.8667 96.1075 69.0391 95.892C69.2114 95.6733 69.2992 95.4181 69.3026 95.1264C69.2992 94.8613 69.2214 94.6425 69.0689 94.4702C68.9164 94.2945 68.7027 94.1487 68.4276 94.0327C68.1558 93.9134 67.8376 93.8073 67.473 93.7145L66.3146 93.4162C65.4761 93.2008 64.8132 92.8743 64.326 92.4368C63.8421 91.996 63.6001 91.411 63.6001 90.6818C63.6001 90.0819 63.7625 89.5566 64.0874 89.1058C64.4155 88.6551 64.8613 88.3054 65.4247 88.0568C65.9882 87.8049 66.6262 87.679 67.3388 87.679C68.0613 87.679 68.6944 87.8049 69.2379 88.0568C69.7848 88.3054 70.214 88.6518 70.5256 89.0959C70.8371 89.5367 70.9979 90.0438 71.0078 90.6172H69.233ZM76.525 90.3636V91.7557H72.1351V90.3636H76.525ZM73.2189 88.5341H75.0186V95.7031C75.0186 95.9451 75.0551 96.1307 75.128 96.2599C75.2042 96.3859 75.3037 96.4721 75.4263 96.5185C75.5489 96.5649 75.6848 96.5881 75.834 96.5881C75.9467 96.5881 76.0494 96.5798 76.1422 96.5632C76.2383 96.5466 76.3113 96.5317 76.361 96.5185L76.6642 97.9254C76.5681 97.9586 76.4306 97.995 76.2516 98.0348C76.0759 98.0746 75.8605 98.0978 75.6053 98.1044C75.1545 98.1177 74.7485 98.0497 74.3873 97.9006C74.026 97.7481 73.7393 97.5128 73.5272 97.1946C73.3184 96.8764 73.2156 96.4787 73.2189 96.0014V88.5341ZM78.0302 98V90.3636H79.7752V91.6364H79.8548C79.994 91.1955 80.2326 90.8558 80.5707 90.6172C80.9121 90.3752 81.3015 90.2543 81.739 90.2543C81.8384 90.2543 81.9495 90.2592 82.0721 90.2692C82.198 90.2758 82.3024 90.2874 82.3853 90.304V91.9595C82.3091 91.933 82.1881 91.9098 82.0224 91.8899C81.86 91.8667 81.7025 91.8551 81.5501 91.8551C81.2219 91.8551 80.927 91.9264 80.6651 92.0689C80.4066 92.2081 80.2028 92.402 80.0536 92.6506C79.9045 92.8991 79.8299 93.1858 79.8299 93.5107V98H78.0302ZM85.6417 98.1541C85.1578 98.1541 84.7219 98.0679 84.3342 97.8956C83.9497 97.7199 83.6448 97.4614 83.4194 97.12C83.1973 96.7786 83.0863 96.3577 83.0863 95.8572C83.0863 95.4264 83.1658 95.0701 83.3249 94.7884C83.484 94.5066 83.7011 94.2812 83.9762 94.1122C84.2513 93.9432 84.5612 93.8156 84.9059 93.7294C85.2539 93.6399 85.6135 93.5753 85.9847 93.5355C86.4322 93.4891 86.7951 93.4477 87.0735 93.4112C87.3519 93.3714 87.5541 93.3118 87.68 93.2322C87.8093 93.1494 87.8739 93.0218 87.8739 92.8494V92.8196C87.8739 92.4451 87.7629 92.1551 87.5408 91.9496C87.3188 91.7441 86.9989 91.6413 86.5813 91.6413C86.1405 91.6413 85.7908 91.7375 85.5323 91.9297C85.2771 92.1219 85.1048 92.349 85.0153 92.6108L83.3349 92.3722C83.4674 91.9081 83.6862 91.5204 83.9911 91.2088C84.296 90.8939 84.6689 90.6586 85.1097 90.5028C85.5505 90.3438 86.0378 90.2642 86.5714 90.2642C86.9393 90.2642 87.3055 90.3073 87.6701 90.3935C88.0347 90.4796 88.3678 90.6222 88.6694 90.821C88.971 91.0166 89.213 91.2834 89.3952 91.6214C89.5808 91.9595 89.6737 92.3821 89.6737 92.8892V98H87.9435V96.951H87.8839C87.7745 97.1631 87.6204 97.362 87.4215 97.5476C87.226 97.7299 86.979 97.8774 86.6808 97.9901C86.3858 98.0994 86.0394 98.1541 85.6417 98.1541ZM86.109 96.8317C86.4703 96.8317 86.7835 96.7604 87.0487 96.6179C87.3138 96.4721 87.5176 96.2798 87.6602 96.0412C87.806 95.8026 87.8789 95.5424 87.8789 95.2607V94.3608C87.8226 94.4072 87.7264 94.4503 87.5906 94.4901C87.458 94.5298 87.3088 94.5646 87.1431 94.5945C86.9774 94.6243 86.8133 94.6508 86.6509 94.674C86.4885 94.6972 86.3477 94.7171 86.2283 94.7337C85.9599 94.7701 85.7196 94.8298 85.5075 94.9126C85.2953 94.9955 85.128 95.1115 85.0053 95.2607C84.8827 95.4065 84.8214 95.5954 84.8214 95.8274C84.8214 96.1589 84.9424 96.4091 85.1843 96.5781C85.4263 96.7472 85.7345 96.8317 86.109 96.8317ZM95.2965 90.3636V91.7557H90.9066V90.3636H95.2965ZM91.9904 88.5341H93.7901V95.7031C93.7901 95.9451 93.8266 96.1307 93.8995 96.2599C93.9757 96.3859 94.0752 96.4721 94.1978 96.5185C94.3204 96.5649 94.4563 96.5881 94.6055 96.5881C94.7182 96.5881 94.8209 96.5798 94.9137 96.5632C95.0098 96.5466 95.0827 96.5317 95.1325 96.5185L95.4357 97.9254C95.3396 97.9586 95.2021 97.995 95.0231 98.0348C94.8474 98.0746 94.632 98.0978 94.3768 98.1044C93.926 98.1177 93.52 98.0497 93.1587 97.9006C92.7975 97.7481 92.5108 97.5128 92.2987 97.1946C92.0898 96.8764 91.9871 96.4787 91.9904 96.0014V88.5341ZM100.1 98.1491C99.3347 98.1491 98.6735 97.9901 98.1167 97.6719C97.5632 97.3504 97.1373 96.8963 96.839 96.3097C96.5407 95.7197 96.3915 95.0253 96.3915 94.2266C96.3915 93.4411 96.5407 92.7517 96.839 92.1584C97.1406 91.5618 97.5615 91.0978 98.1017 90.7663C98.642 90.4316 99.2767 90.2642 100.006 90.2642C100.477 90.2642 100.921 90.3404 101.338 90.4929C101.759 90.642 102.13 90.8741 102.452 91.1889C102.777 91.5038 103.032 91.9048 103.218 92.392C103.403 92.8759 103.496 93.4527 103.496 94.1222V94.674H97.2367V93.4609H101.771C101.767 93.1162 101.693 92.8097 101.547 92.5412C101.401 92.2694 101.197 92.0556 100.936 91.8999C100.677 91.7441 100.375 91.6662 100.031 91.6662C99.6628 91.6662 99.3397 91.7557 99.0613 91.9347C98.7828 92.1103 98.5658 92.3423 98.41 92.6307C98.2575 92.9157 98.1796 93.2289 98.1763 93.5703V94.6293C98.1763 95.0734 98.2575 95.4545 98.4199 95.7727C98.5823 96.0876 98.8094 96.3295 99.101 96.4986C99.3927 96.6643 99.7341 96.7472 100.125 96.7472C100.387 96.7472 100.624 96.7107 100.836 96.6378C101.048 96.5616 101.232 96.4505 101.388 96.3047C101.544 96.1589 101.661 95.9782 101.741 95.7628L103.421 95.9517C103.315 96.3958 103.113 96.7836 102.815 97.1151C102.52 97.4432 102.142 97.6984 101.681 97.8807C101.221 98.0597 100.694 98.1491 100.1 98.1491ZM108.339 101.023C107.693 101.023 107.138 100.935 106.674 100.759C106.21 100.587 105.837 100.355 105.555 100.063C105.274 99.7715 105.078 99.4484 104.969 99.0938L106.589 98.701C106.662 98.8501 106.768 98.9976 106.908 99.1435C107.047 99.2926 107.234 99.4152 107.469 99.5114C107.708 99.6108 108.008 99.6605 108.369 99.6605C108.88 99.6605 109.302 99.5362 109.637 99.2876C109.972 99.0424 110.139 98.638 110.139 98.0746V96.6278H110.05C109.957 96.8134 109.821 97.004 109.642 97.1996C109.466 97.3951 109.233 97.5592 108.941 97.6918C108.653 97.8243 108.29 97.8906 107.852 97.8906C107.266 97.8906 106.734 97.7531 106.256 97.478C105.782 97.1996 105.405 96.7853 105.123 96.2351C104.844 95.6816 104.705 94.9889 104.705 94.157C104.705 93.3184 104.844 92.6108 105.123 92.0341C105.405 91.4541 105.784 91.0149 106.261 90.7166C106.739 90.415 107.271 90.2642 107.857 90.2642C108.305 90.2642 108.673 90.3404 108.961 90.4929C109.253 90.642 109.485 90.8227 109.657 91.0348C109.829 91.2436 109.96 91.4408 110.05 91.6264H110.149V90.3636H111.924V98.1243C111.924 98.7772 111.768 99.3175 111.457 99.745C111.145 100.173 110.719 100.492 110.179 100.705C109.639 100.917 109.026 101.023 108.339 101.023ZM108.354 96.4787C108.736 96.4787 109.06 96.3859 109.329 96.2003C109.597 96.0147 109.801 95.7479 109.94 95.3999C110.08 95.0518 110.149 94.6342 110.149 94.147C110.149 93.6664 110.08 93.2455 109.94 92.8842C109.804 92.523 109.602 92.2429 109.334 92.044C109.069 91.8419 108.742 91.7408 108.354 91.7408C107.953 91.7408 107.619 91.8452 107.35 92.054C107.082 92.2628 106.879 92.5495 106.744 92.9141C106.608 93.2753 106.54 93.6863 106.54 94.147C106.54 94.6143 106.608 95.0237 106.744 95.375C106.883 95.723 107.087 95.9948 107.355 96.1903C107.627 96.3826 107.96 96.4787 108.354 96.4787ZM113.768 98V90.3636H115.568V98H113.768ZM114.673 89.2798C114.388 89.2798 114.143 89.1854 113.938 88.9964C113.732 88.8042 113.629 88.5739 113.629 88.3054C113.629 88.0336 113.732 87.8033 113.938 87.6143C114.143 87.4221 114.388 87.326 114.673 87.326C114.962 87.326 115.207 87.4221 115.409 87.6143C115.615 87.8033 115.717 88.0336 115.717 88.3054C115.717 88.5739 115.615 88.8042 115.409 88.9964C115.207 89.1854 114.962 89.2798 114.673 89.2798ZM120.8 98.1491C120.034 98.1491 119.373 97.9901 118.816 97.6719C118.262 97.3504 117.836 96.8963 117.538 96.3097C117.24 95.7197 117.091 95.0253 117.091 94.2266C117.091 93.4411 117.24 92.7517 117.538 92.1584C117.84 91.5618 118.261 91.0978 118.801 90.7663C119.341 90.4316 119.976 90.2642 120.705 90.2642C121.176 90.2642 121.62 90.3404 122.037 90.4929C122.458 90.642 122.83 90.8741 123.151 91.1889C123.476 91.5038 123.731 91.9048 123.917 92.392C124.102 92.8759 124.195 93.4527 124.195 94.1222V94.674H117.936V93.4609H122.47C122.467 93.1162 122.392 92.8097 122.246 92.5412C122.1 92.2694 121.897 92.0556 121.635 91.8999C121.376 91.7441 121.075 91.6662 120.73 91.6662C120.362 91.6662 120.039 91.7557 119.76 91.9347C119.482 92.1103 119.265 92.3423 119.109 92.6307C118.957 92.9157 118.879 93.2289 118.876 93.5703V94.6293C118.876 95.0734 118.957 95.4545 119.119 95.7727C119.282 96.0876 119.509 96.3295 119.8 96.4986C120.092 96.6643 120.433 96.7472 120.824 96.7472C121.086 96.7472 121.323 96.7107 121.535 96.6378C121.747 96.5616 121.931 96.4505 122.087 96.3047C122.243 96.1589 122.361 95.9782 122.44 95.7628L124.121 95.9517C124.015 96.3958 123.812 96.7836 123.514 97.1151C123.219 97.4432 122.841 97.6984 122.381 97.8807C121.92 98.0597 121.393 98.1491 120.8 98.1491ZM131.753 92.3821L130.113 92.5611C130.066 92.3954 129.985 92.2396 129.869 92.0938C129.756 91.9479 129.604 91.8303 129.412 91.7408C129.219 91.6513 128.984 91.6065 128.706 91.6065C128.331 91.6065 128.016 91.6877 127.761 91.8501C127.509 92.0125 127.385 92.223 127.388 92.4815C127.385 92.7036 127.466 92.8842 127.632 93.0234C127.801 93.1626 128.079 93.277 128.467 93.3665L129.77 93.6449C130.492 93.8007 131.029 94.0476 131.38 94.3857C131.735 94.7237 131.914 95.1662 131.917 95.7131C131.914 96.1937 131.773 96.6179 131.495 96.9858C131.22 97.3504 130.837 97.6354 130.346 97.8409C129.856 98.0464 129.292 98.1491 128.656 98.1491C127.721 98.1491 126.969 97.9536 126.399 97.5625C125.829 97.1681 125.489 96.6196 125.38 95.9169L127.135 95.7479C127.214 96.0926 127.383 96.3527 127.642 96.5284C127.9 96.7041 128.237 96.7919 128.651 96.7919C129.078 96.7919 129.422 96.7041 129.68 96.5284C129.942 96.3527 130.073 96.1357 130.073 95.8771C130.073 95.6584 129.988 95.4777 129.819 95.3352C129.654 95.1927 129.395 95.0833 129.044 95.0071L127.741 94.7337C127.009 94.5812 126.467 94.3243 126.115 93.9631C125.764 93.5985 125.59 93.1378 125.593 92.581C125.59 92.1103 125.718 91.7027 125.976 91.358C126.238 91.0099 126.601 90.7415 127.065 90.5526C127.532 90.3603 128.071 90.2642 128.681 90.2642C129.576 90.2642 130.28 90.4548 130.794 90.8359C131.311 91.2171 131.631 91.7325 131.753 92.3821Z" fill="black"/>
<rect x="12.5" y="113.5" width="166" height="46" rx="7.5" fill="white"/>
<rect x="12.5" y="113.5" width="166" height="46" rx="7.5" stroke="#E5E7EB"/>
<path d="M22.4418 124.273V133H20.8608V124.273H22.4418ZM31.3256 124.273V133H29.9194L25.8072 127.055H25.7347V133H24.1538V124.273H25.5685L29.6765 130.222H29.7532V124.273H31.3256ZM40.5185 127.217H38.9247C38.8793 126.956 38.7955 126.724 38.6733 126.523C38.5511 126.318 38.3991 126.145 38.2173 126.003C38.0355 125.861 37.8281 125.754 37.5952 125.683C37.3651 125.609 37.1165 125.572 36.8494 125.572C36.375 125.572 35.9545 125.692 35.5881 125.93C35.2216 126.166 34.9347 126.513 34.7273 126.97C34.5199 127.425 34.4162 127.98 34.4162 128.636C34.4162 129.304 34.5199 129.866 34.7273 130.324C34.9375 130.778 35.2244 131.122 35.5881 131.355C35.9545 131.585 36.3736 131.7 36.8452 131.7C37.1065 131.7 37.3509 131.666 37.5781 131.598C37.8082 131.527 38.0142 131.423 38.196 131.287C38.3807 131.151 38.5355 130.983 38.6605 130.784C38.7884 130.585 38.8764 130.358 38.9247 130.102L40.5185 130.111C40.4588 130.526 40.3295 130.915 40.1307 131.278C39.9347 131.642 39.6776 131.963 39.3594 132.241C39.0412 132.517 38.669 132.733 38.2429 132.889C37.8168 133.043 37.3438 133.119 36.8239 133.119C36.0568 133.119 35.3722 132.942 34.7699 132.587C34.1676 132.232 33.6932 131.719 33.3466 131.048C33 130.378 32.8267 129.574 32.8267 128.636C32.8267 127.696 33.0014 126.892 33.3509 126.224C33.7003 125.554 34.1761 125.041 34.7784 124.686C35.3807 124.331 36.0625 124.153 36.8239 124.153C37.3097 124.153 37.7614 124.222 38.179 124.358C38.5966 124.494 38.9688 124.695 39.2955 124.959C39.6222 125.22 39.8906 125.541 40.1009 125.922C40.3139 126.3 40.4531 126.732 40.5185 127.217ZM41.9663 133V124.273H45.239C45.9094 124.273 46.4719 124.389 46.9265 124.622C47.3839 124.855 47.729 125.182 47.962 125.602C48.1978 126.02 48.3157 126.507 48.3157 127.064C48.3157 127.624 48.1964 128.109 47.9577 128.521C47.7219 128.93 47.3739 129.247 46.9137 129.472C46.4535 129.693 45.8881 129.804 45.2177 129.804H42.8867V128.491H45.0046C45.3967 128.491 45.7177 128.437 45.9677 128.33C46.2177 128.219 46.4023 128.058 46.5217 127.848C46.6438 127.635 46.7049 127.374 46.7049 127.064C46.7049 126.754 46.6438 126.49 46.5217 126.271C46.3995 126.05 46.2134 125.882 45.9634 125.768C45.7134 125.652 45.391 125.594 44.9961 125.594H43.5472V133H41.9663ZM46.4748 129.045L48.6353 133H46.8711L44.7489 129.045H46.4748ZM49.771 133V124.273H55.4471V125.598H51.3519V127.967H55.1531V129.293H51.3519V131.675H55.4812V133H49.771ZM58.1808 133H56.4933L59.5657 124.273H61.5174L64.5941 133H62.9066L60.5756 126.062H60.5075L58.1808 133ZM58.2362 129.578H62.8384V130.848H58.2362V129.578ZM70.3459 126.672C70.3061 126.3 70.1385 126.01 69.843 125.803C69.5504 125.595 69.1697 125.491 68.701 125.491C68.3714 125.491 68.0888 125.541 67.853 125.641C67.6172 125.74 67.4368 125.875 67.3118 126.045C67.1868 126.216 67.1229 126.411 67.12 126.629C67.12 126.811 67.1612 126.969 67.2436 127.102C67.3288 127.236 67.4439 127.349 67.5888 127.443C67.7337 127.534 67.8942 127.611 68.0703 127.673C68.2464 127.736 68.424 127.788 68.603 127.831L69.4212 128.036C69.7507 128.112 70.0675 128.216 70.3714 128.347C70.6783 128.477 70.9524 128.642 71.1939 128.841C71.4382 129.04 71.6314 129.28 71.7734 129.561C71.9155 129.842 71.9865 130.172 71.9865 130.55C71.9865 131.061 71.8558 131.511 71.5945 131.901C71.3331 132.287 70.9553 132.589 70.4609 132.808C69.9695 133.024 69.3743 133.132 68.6754 133.132C67.9964 133.132 67.407 133.027 66.907 132.817C66.4098 132.607 66.0206 132.3 65.7393 131.896C65.4609 131.493 65.3104 131.001 65.2876 130.422H66.843C66.8658 130.726 66.9595 130.979 67.1243 131.18C67.2891 131.382 67.5036 131.533 67.7678 131.632C68.0348 131.732 68.3331 131.781 68.6626 131.781C69.0064 131.781 69.3075 131.73 69.5661 131.628C69.8274 131.523 70.032 131.378 70.1797 131.193C70.3274 131.006 70.4027 130.787 70.4055 130.537C70.4027 130.31 70.3359 130.122 70.2053 129.974C70.0746 129.824 69.8913 129.699 69.6555 129.599C69.4226 129.497 69.1499 129.406 68.8374 129.327L67.8445 129.071C67.1257 128.886 66.5575 128.607 66.1399 128.232C65.7251 127.854 65.5178 127.352 65.5178 126.727C65.5178 126.213 65.657 125.763 65.9354 125.376C66.2166 124.99 66.5987 124.69 67.0817 124.477C67.5646 124.261 68.1115 124.153 68.7223 124.153C69.3416 124.153 69.8842 124.261 70.3501 124.477C70.8189 124.69 71.1868 124.987 71.4538 125.368C71.7209 125.746 71.8587 126.18 71.8672 126.672H70.3459ZM73.396 133V124.273H79.0721V125.598H74.9769V127.967H78.7781V129.293H74.9769V131.675H79.1062V133H73.396ZM83.6616 133V124.273H86.9343C87.6048 124.273 88.1673 124.398 88.6218 124.648C89.0792 124.898 89.4244 125.241 89.6573 125.679C89.8931 126.114 90.011 126.608 90.011 127.162C90.011 127.722 89.8931 128.219 89.6573 128.653C89.4215 129.088 89.0735 129.43 88.6133 129.68C88.1531 129.928 87.5863 130.051 86.913 130.051H84.744V128.751H86.6999C87.092 128.751 87.413 128.683 87.663 128.547C87.913 128.411 88.0977 128.223 88.217 127.984C88.3391 127.746 88.4002 127.472 88.4002 127.162C88.4002 126.852 88.3391 126.58 88.217 126.344C88.0977 126.108 87.9116 125.925 87.6587 125.794C87.4087 125.661 87.0863 125.594 86.6914 125.594H85.2425V133H83.6616ZM91.3842 133V124.273H94.657C95.3274 124.273 95.8899 124.389 96.3445 124.622C96.8018 124.855 97.147 125.182 97.38 125.602C97.6158 126.02 97.7337 126.507 97.7337 127.064C97.7337 127.624 97.6143 128.109 97.3757 128.521C97.1399 128.93 96.7919 129.247 96.3317 129.472C95.8714 129.693 95.3061 129.804 94.6357 129.804H92.3047V128.491H94.4226C94.8146 128.491 95.1357 128.437 95.3857 128.33C95.6357 128.219 95.8203 128.058 95.9396 127.848C96.0618 127.635 96.1229 127.374 96.1229 127.064C96.1229 126.754 96.0618 126.49 95.9396 126.271C95.8175 126.05 95.6314 125.882 95.3814 125.768C95.1314 125.652 94.8089 125.594 94.4141 125.594H92.9652V133H91.3842ZM95.8928 129.045L98.0533 133H96.2891L94.1669 129.045H95.8928ZM100.77 124.273V133H99.1889V124.273H100.77ZM109.952 127.217H108.358C108.313 126.956 108.229 126.724 108.107 126.523C107.985 126.318 107.833 126.145 107.651 126.003C107.469 125.861 107.262 125.754 107.029 125.683C106.799 125.609 106.55 125.572 106.283 125.572C105.809 125.572 105.388 125.692 105.022 125.93C104.655 126.166 104.368 126.513 104.161 126.97C103.953 127.425 103.85 127.98 103.85 128.636C103.85 129.304 103.953 129.866 104.161 130.324C104.371 130.778 104.658 131.122 105.022 131.355C105.388 131.585 105.807 131.7 106.279 131.7C106.54 131.7 106.784 131.666 107.012 131.598C107.242 131.527 107.448 131.423 107.63 131.287C107.814 131.151 107.969 130.983 108.094 130.784C108.222 130.585 108.31 130.358 108.358 130.102L109.952 130.111C109.892 130.526 109.763 130.915 109.564 131.278C109.368 131.642 109.111 131.963 108.793 132.241C108.475 132.517 108.103 132.733 107.676 132.889C107.25 133.043 106.777 133.119 106.257 133.119C105.49 133.119 104.806 132.942 104.203 132.587C103.601 132.232 103.127 131.719 102.78 131.048C102.434 130.378 102.26 129.574 102.26 128.636C102.26 127.696 102.435 126.892 102.784 126.224C103.134 125.554 103.61 125.041 104.212 124.686C104.814 124.331 105.496 124.153 106.257 124.153C106.743 124.153 107.195 124.222 107.613 124.358C108.03 124.494 108.402 124.695 108.729 124.959C109.056 125.22 109.324 125.541 109.534 125.922C109.748 126.3 109.887 126.732 109.952 127.217ZM111.4 133V124.273H117.076V125.598H112.981V127.967H116.782V129.293H112.981V131.675H117.11V133H111.4Z" fill="#969696"/>
<rect x="20" y="140" width="151" height="12" rx="4" fill="#D9D9D9"/>
<rect x="191.5" y="113.5" width="166" height="46" rx="7.5" fill="white"/>
<rect x="191.5" y="113.5" width="166" height="46" rx="7.5" stroke="#E5E7EB"/>
<path d="M199.861 133V124.273H205.537V125.598H201.442V127.967H205.243V129.293H201.442V131.675H205.571V133H199.861ZM208.317 124.273L210.589 131.142H210.678L212.945 124.273H214.684L211.607 133H209.656L206.583 124.273H208.317ZM215.833 133V124.273H221.51V125.598H217.414V127.967H221.216V129.293H217.414V131.675H221.544V133H215.833ZM223.123 133V124.273H226.395C227.066 124.273 227.628 124.389 228.083 124.622C228.54 124.855 228.885 125.182 229.118 125.602C229.354 126.02 229.472 126.507 229.472 127.064C229.472 127.624 229.353 128.109 229.114 128.521C228.878 128.93 228.53 129.247 228.07 129.472C227.61 129.693 227.044 129.804 226.374 129.804H224.043V128.491H226.161C226.553 128.491 226.874 128.437 227.124 128.33C227.374 128.219 227.559 128.058 227.678 127.848C227.8 127.635 227.861 127.374 227.861 127.064C227.861 126.754 227.8 126.49 227.678 126.271C227.556 126.05 227.37 125.882 227.12 125.768C226.87 125.652 226.547 125.594 226.152 125.594H224.703V133H223.123ZM227.631 129.045L229.792 133H228.027L225.905 129.045H227.631ZM229.991 124.273H231.776L233.911 128.134H233.996L236.131 124.273H237.917L234.742 129.744V133H233.165V129.744L229.991 124.273ZM242.013 133V124.273H243.594V127.967H247.638V124.273H249.223V133H247.638V129.293H243.594V133H242.013ZM258.741 128.636C258.741 129.577 258.565 130.382 258.213 131.053C257.863 131.72 257.386 132.232 256.781 132.587C256.179 132.942 255.495 133.119 254.731 133.119C253.967 133.119 253.282 132.942 252.677 132.587C252.075 132.229 251.598 131.716 251.245 131.048C250.896 130.378 250.721 129.574 250.721 128.636C250.721 127.696 250.896 126.892 251.245 126.224C251.598 125.554 252.075 125.041 252.677 124.686C253.282 124.331 253.967 124.153 254.731 124.153C255.495 124.153 256.179 124.331 256.781 124.686C257.386 125.041 257.863 125.554 258.213 126.224C258.565 126.892 258.741 127.696 258.741 128.636ZM257.152 128.636C257.152 127.974 257.048 127.416 256.841 126.962C256.636 126.504 256.352 126.159 255.988 125.926C255.625 125.69 255.206 125.572 254.731 125.572C254.257 125.572 253.838 125.69 253.474 125.926C253.11 126.159 252.825 126.504 252.618 126.962C252.413 127.416 252.311 127.974 252.311 128.636C252.311 129.298 252.413 129.858 252.618 130.315C252.825 130.77 253.11 131.115 253.474 131.351C253.838 131.584 254.257 131.7 254.731 131.7C255.206 131.7 255.625 131.584 255.988 131.351C256.352 131.115 256.636 130.77 256.841 130.315C257.048 129.858 257.152 129.298 257.152 128.636ZM265.737 124.273H267.318V129.974C267.318 130.599 267.17 131.149 266.875 131.624C266.582 132.098 266.17 132.469 265.639 132.736C265.108 133 264.487 133.132 263.777 133.132C263.064 133.132 262.442 133 261.911 132.736C261.379 132.469 260.967 132.098 260.675 131.624C260.382 131.149 260.236 130.599 260.236 129.974V124.273H261.817V129.842C261.817 130.206 261.896 130.53 262.055 130.814C262.217 131.098 262.445 131.321 262.737 131.483C263.03 131.642 263.376 131.722 263.777 131.722C264.178 131.722 264.524 131.642 264.817 131.483C265.112 131.321 265.339 131.098 265.499 130.814C265.658 130.53 265.737 130.206 265.737 129.842V124.273ZM269.037 133V124.273H272.309C272.98 124.273 273.542 124.389 273.997 124.622C274.454 124.855 274.799 125.182 275.032 125.602C275.268 126.02 275.386 126.507 275.386 127.064C275.386 127.624 275.267 128.109 275.028 128.521C274.792 128.93 274.444 129.247 273.984 129.472C273.524 129.693 272.958 129.804 272.288 129.804H269.957V128.491H272.075C272.467 128.491 272.788 128.437 273.038 128.33C273.288 128.219 273.473 128.058 273.592 127.848C273.714 127.635 273.775 127.374 273.775 127.064C273.775 126.754 273.714 126.49 273.592 126.271C273.47 126.05 273.284 125.882 273.034 125.768C272.784 125.652 272.461 125.594 272.066 125.594H270.618V133H269.037ZM273.545 129.045L275.706 133H273.941L271.819 129.045H273.545Z" fill="#969696"/>
<rect x="199" y="140" width="151" height="12" rx="4" fill="#D9D9D9"/>
<rect x="12.5" y="172.5" width="345" height="46" rx="7.5" fill="white"/>
<rect x="12.5" y="172.5" width="345" height="46" rx="7.5" stroke="#E5E7EB"/>
<path d="M21.9815 192H20.294L23.3665 183.273H25.3182L28.3949 192H26.7074L24.3764 185.062H24.3082L21.9815 192ZM22.0369 188.578H26.6392V189.848H22.0369V188.578ZM29.5444 192V183.273H32.8171C33.4876 183.273 34.0501 183.398 34.5046 183.648C34.962 183.898 35.3072 184.241 35.5401 184.679C35.7759 185.114 35.8938 185.608 35.8938 186.162C35.8938 186.722 35.7759 187.219 35.5401 187.653C35.3043 188.088 34.9563 188.43 34.4961 188.68C34.0359 188.928 33.4691 189.051 32.7958 189.051H30.6268V187.751H32.5827C32.9748 187.751 33.2958 187.683 33.5458 187.547C33.7958 187.411 33.9805 187.223 34.0998 186.984C34.2219 186.746 34.283 186.472 34.283 186.162C34.283 185.852 34.2219 185.58 34.0998 185.344C33.9805 185.108 33.7944 184.925 33.5415 184.794C33.2915 184.661 32.9691 184.594 32.5742 184.594H31.1254V192H29.5444ZM37.267 192V183.273H40.5398C41.2102 183.273 41.7727 183.398 42.2273 183.648C42.6847 183.898 43.0298 184.241 43.2628 184.679C43.4986 185.114 43.6165 185.608 43.6165 186.162C43.6165 186.722 43.4986 187.219 43.2628 187.653C43.027 188.088 42.679 188.43 42.2188 188.68C41.7585 188.928 41.1918 189.051 40.5185 189.051H38.3494V187.751H40.3054C40.6974 187.751 41.0185 187.683 41.2685 187.547C41.5185 187.411 41.7031 187.223 41.8224 186.984C41.9446 186.746 42.0057 186.472 42.0057 186.162C42.0057 185.852 41.9446 185.58 41.8224 185.344C41.7031 185.108 41.517 184.925 41.2642 184.794C41.0142 184.661 40.6918 184.594 40.2969 184.594H38.848V192H37.267ZM44.9897 192V183.273H46.5707V190.675H50.4144V192H44.9897ZM50.3111 183.273H52.0966L54.2315 187.134H54.3168L56.4517 183.273H58.2372L55.0625 188.744V192H53.4858V188.744L50.3111 183.273ZM62.3335 192V183.273H67.9244V184.598H63.9144V186.967H67.5408V188.293H63.9144V192H62.3335ZM69.3647 192V183.273H72.6374C73.3079 183.273 73.8704 183.389 74.3249 183.622C74.7823 183.855 75.1275 184.182 75.3604 184.602C75.5962 185.02 75.7141 185.507 75.7141 186.064C75.7141 186.624 75.5948 187.109 75.3562 187.521C75.1204 187.93 74.7724 188.247 74.3121 188.472C73.8519 188.693 73.2866 188.804 72.6161 188.804H70.2852V187.491H72.4031C72.7951 187.491 73.1161 187.437 73.3661 187.33C73.6161 187.219 73.8008 187.058 73.9201 186.848C74.0423 186.635 74.1033 186.374 74.1033 186.064C74.1033 185.754 74.0423 185.49 73.9201 185.271C73.7979 185.05 73.6119 184.882 73.3619 184.768C73.1119 184.652 72.7894 184.594 72.3945 184.594H70.9457V192H69.3647ZM73.8732 188.045L76.0337 192H74.2695L72.1474 188.045H73.8732ZM84.9677 187.636C84.9677 188.577 84.7915 189.382 84.4393 190.053C84.0898 190.72 83.6126 191.232 83.0075 191.587C82.4052 191.942 81.7219 192.119 80.9577 192.119C80.1935 192.119 79.5089 191.942 78.9038 191.587C78.3015 191.229 77.8242 190.716 77.4719 190.048C77.1225 189.378 76.9478 188.574 76.9478 187.636C76.9478 186.696 77.1225 185.892 77.4719 185.224C77.8242 184.554 78.3015 184.041 78.9038 183.686C79.5089 183.331 80.1935 183.153 80.9577 183.153C81.7219 183.153 82.4052 183.331 83.0075 183.686C83.6126 184.041 84.0898 184.554 84.4393 185.224C84.7915 185.892 84.9677 186.696 84.9677 187.636ZM83.3782 187.636C83.3782 186.974 83.2745 186.416 83.0671 185.962C82.8626 185.504 82.5785 185.159 82.2148 184.926C81.8512 184.69 81.4322 184.572 80.9577 184.572C80.4833 184.572 80.0643 184.69 79.7006 184.926C79.337 185.159 79.0515 185.504 78.8441 185.962C78.6396 186.416 78.5373 186.974 78.5373 187.636C78.5373 188.298 78.6396 188.858 78.8441 189.315C79.0515 189.77 79.337 190.115 79.7006 190.351C80.0643 190.584 80.4833 190.7 80.9577 190.7C81.4322 190.7 81.8512 190.584 82.2148 190.351C82.5785 190.115 82.8626 189.77 83.0671 189.315C83.2745 188.858 83.3782 188.298 83.3782 187.636ZM86.4624 183.273H88.397L90.9879 189.597H91.0902L93.6811 183.273H95.6158V192H94.0987V186.004H94.0178L91.6058 191.974H90.4723L88.0604 185.991H87.9794V192H86.4624V183.273Z" fill="#969696"/>
<rect x="20" y="199" width="330" height="12" rx="4" fill="#D9D9D9"/>
<rect x="12" y="231" width="346" height="1" rx="0.5" fill="#D9D9D9"/>
<path d="M13.0043 258V247.818H16.902C17.6378 247.818 18.2493 247.934 18.7365 248.166C19.227 248.395 19.5933 248.708 19.8352 249.106C20.0805 249.504 20.2031 249.954 20.2031 250.458C20.2031 250.872 20.1236 251.227 19.9645 251.522C19.8054 251.814 19.5916 252.051 19.3232 252.233C19.0547 252.415 18.7547 252.546 18.4233 252.626V252.725C18.7846 252.745 19.1309 252.856 19.4624 253.058C19.7971 253.257 20.0705 253.539 20.2827 253.903C20.4948 254.268 20.6009 254.709 20.6009 255.226C20.6009 255.753 20.4732 256.227 20.218 256.648C19.9628 257.065 19.5784 257.395 19.0646 257.637C18.5509 257.879 17.9046 258 17.1257 258H13.0043ZM14.8487 256.459H16.8324C17.5019 256.459 17.9841 256.331 18.2791 256.076C18.5774 255.817 18.7266 255.486 18.7266 255.082C18.7266 254.78 18.652 254.508 18.5028 254.266C18.3537 254.021 18.1416 253.829 17.8665 253.69C17.5914 253.547 17.2633 253.476 16.8821 253.476H14.8487V256.459ZM14.8487 252.148H16.6733C16.9915 252.148 17.2782 252.09 17.5334 251.974C17.7886 251.855 17.9891 251.688 18.1349 251.472C18.2841 251.254 18.3587 250.995 18.3587 250.697C18.3587 250.302 18.2195 249.978 17.9411 249.722C17.666 249.467 17.2566 249.339 16.7131 249.339H14.8487V252.148ZM25.4569 258.149C24.7111 258.149 24.0648 257.985 23.5179 257.657C22.9711 257.329 22.5468 256.87 22.2452 256.28C21.9469 255.69 21.7978 255 21.7978 254.212C21.7978 253.423 21.9469 252.732 22.2452 252.138C22.5468 251.545 22.9711 251.085 23.5179 250.756C24.0648 250.428 24.7111 250.264 25.4569 250.264C26.2026 250.264 26.8489 250.428 27.3958 250.756C27.9426 251.085 28.3652 251.545 28.6635 252.138C28.9651 252.732 29.1159 253.423 29.1159 254.212C29.1159 255 28.9651 255.69 28.6635 256.28C28.3652 256.87 27.9426 257.329 27.3958 257.657C26.8489 257.985 26.2026 258.149 25.4569 258.149ZM25.4668 256.707C25.8712 256.707 26.2092 256.596 26.481 256.374C26.7528 256.149 26.955 255.847 27.0875 255.469C27.2234 255.092 27.2914 254.671 27.2914 254.207C27.2914 253.739 27.2234 253.317 27.0875 252.939C26.955 252.558 26.7528 252.254 26.481 252.029C26.2092 251.804 25.8712 251.691 25.4668 251.691C25.0525 251.691 24.7078 251.804 24.4327 252.029C24.1609 252.254 23.9571 252.558 23.8212 252.939C23.6886 253.317 23.6223 253.739 23.6223 254.207C23.6223 254.671 23.6886 255.092 23.8212 255.469C23.9571 255.847 24.1609 256.149 24.4327 256.374C24.7078 256.596 25.0525 256.707 25.4668 256.707ZM32.4432 253.526V258H30.6435V250.364H32.3636V251.661H32.4531C32.6288 251.234 32.9089 250.894 33.2933 250.642C33.6811 250.39 34.16 250.264 34.7301 250.264C35.2571 250.264 35.7161 250.377 36.1072 250.602C36.5017 250.828 36.8066 251.154 37.022 251.582C37.2408 252.009 37.3485 252.528 37.3452 253.138V258H35.5455V253.416C35.5455 252.906 35.4129 252.506 35.1477 252.218C34.8859 251.93 34.523 251.786 34.0589 251.786C33.7441 251.786 33.464 251.855 33.2188 251.994C32.9768 252.13 32.7862 252.327 32.647 252.586C32.5111 252.844 32.4432 253.158 32.4432 253.526ZM44.0419 254.788V250.364H45.8416V258H44.0966V256.643H44.017C43.8447 257.07 43.5613 257.42 43.1669 257.692C42.7758 257.964 42.2936 258.099 41.7202 258.099C41.2197 258.099 40.7772 257.988 40.3928 257.766C40.0116 257.541 39.7133 257.214 39.4979 256.787C39.2824 256.356 39.1747 255.836 39.1747 255.226V250.364H40.9744V254.947C40.9744 255.431 41.107 255.816 41.3722 256.101C41.6373 256.386 41.9853 256.528 42.4162 256.528C42.6813 256.528 42.9382 256.464 43.1868 256.335C43.4354 256.205 43.6392 256.013 43.7983 255.758C43.9607 255.499 44.0419 255.176 44.0419 254.788ZM53.7278 252.382L52.0872 252.561C52.0408 252.395 51.9596 252.24 51.8436 252.094C51.7309 251.948 51.5784 251.83 51.3862 251.741C51.194 251.651 50.9586 251.607 50.6802 251.607C50.3057 251.607 49.9908 251.688 49.7356 251.85C49.4837 252.013 49.3594 252.223 49.3627 252.482C49.3594 252.704 49.4406 252.884 49.6064 253.023C49.7754 253.163 50.0538 253.277 50.4416 253.366L51.7441 253.645C52.4667 253.801 53.0036 254.048 53.3549 254.386C53.7096 254.724 53.8886 255.166 53.8919 255.713C53.8886 256.194 53.7477 256.618 53.4693 256.986C53.1942 257.35 52.8114 257.635 52.3208 257.841C51.8303 258.046 51.2669 258.149 50.6305 258.149C49.6958 258.149 48.9435 257.954 48.3734 257.562C47.8033 257.168 47.4636 256.62 47.3542 255.917L49.1092 255.748C49.1887 256.093 49.3578 256.353 49.6163 256.528C49.8748 256.704 50.2112 256.792 50.6255 256.792C51.0531 256.792 51.3961 256.704 51.6547 256.528C51.9165 256.353 52.0474 256.136 52.0474 255.877C52.0474 255.658 51.9629 255.478 51.7939 255.335C51.6281 255.193 51.3696 255.083 51.0183 255.007L49.7157 254.734C48.9833 254.581 48.4413 254.324 48.09 253.963C47.7387 253.598 47.5647 253.138 47.568 252.581C47.5647 252.11 47.6923 251.703 47.9508 251.358C48.2127 251.01 48.5756 250.741 49.0396 250.553C49.5069 250.36 50.0455 250.264 50.6554 250.264C51.5502 250.264 52.2546 250.455 52.7683 250.836C53.2853 251.217 53.6052 251.732 53.7278 252.382ZM58.4806 249.364V247.818H66.6042V249.364H63.4572V258H61.6277V249.364H58.4806ZM70.3143 258.149C69.5685 258.149 68.9222 257.985 68.3754 257.657C67.8285 257.329 67.4042 256.87 67.1026 256.28C66.8043 255.69 66.6552 255 66.6552 254.212C66.6552 253.423 66.8043 252.732 67.1026 252.138C67.4042 251.545 67.8285 251.085 68.3754 250.756C68.9222 250.428 69.5685 250.264 70.3143 250.264C71.06 250.264 71.7063 250.428 72.2532 250.756C72.8001 251.085 73.2227 251.545 73.521 252.138C73.8226 252.732 73.9734 253.423 73.9734 254.212C73.9734 255 73.8226 255.69 73.521 256.28C73.2227 256.87 72.8001 257.329 72.2532 257.657C71.7063 257.985 71.06 258.149 70.3143 258.149ZM70.3242 256.707C70.7286 256.707 71.0666 256.596 71.3384 256.374C71.6102 256.149 71.8124 255.847 71.945 255.469C72.0808 255.092 72.1488 254.671 72.1488 254.207C72.1488 253.739 72.0808 253.317 71.945 252.939C71.8124 252.558 71.6102 252.254 71.3384 252.029C71.0666 251.804 70.7286 251.691 70.3242 251.691C69.9099 251.691 69.5652 251.804 69.2901 252.029C69.0183 252.254 68.8145 252.558 68.6786 252.939C68.546 253.317 68.4798 253.739 68.4798 254.207C68.4798 254.671 68.546 255.092 68.6786 255.469C68.8145 255.847 69.0183 256.149 69.2901 256.374C69.5652 256.596 69.9099 256.707 70.3242 256.707ZM77.1415 255.604L77.1365 253.431H77.4249L80.1692 250.364H82.2722L78.8965 254.122H78.5236L77.1415 255.604ZM75.5009 258V247.818H77.3006V258H75.5009ZM80.2935 258L77.8077 254.525L79.0208 253.257L82.4462 258H80.2935ZM86.5378 258.149C85.7722 258.149 85.111 257.99 84.5542 257.672C84.0007 257.35 83.5748 256.896 83.2765 256.31C82.9782 255.72 82.829 255.025 82.829 254.227C82.829 253.441 82.9782 252.752 83.2765 252.158C83.5781 251.562 83.999 251.098 84.5392 250.766C85.0795 250.432 85.7142 250.264 86.4434 250.264C86.914 250.264 87.3581 250.34 87.7757 250.493C88.1967 250.642 88.5679 250.874 88.8894 251.189C89.2142 251.504 89.4694 251.905 89.655 252.392C89.8406 252.876 89.9334 253.453 89.9334 254.122V254.674H83.6742V253.461H88.2083C88.205 253.116 88.1304 252.81 87.9846 252.541C87.8387 252.269 87.6349 252.056 87.373 251.9C87.1145 251.744 86.8129 251.666 86.4682 251.666C86.1003 251.666 85.7772 251.756 85.4988 251.935C85.2203 252.11 85.0033 252.342 84.8475 252.631C84.695 252.916 84.6171 253.229 84.6138 253.57V254.629C84.6138 255.073 84.695 255.455 84.8574 255.773C85.0198 256.088 85.2469 256.33 85.5385 256.499C85.8302 256.664 86.1716 256.747 86.5627 256.747C86.8245 256.747 87.0615 256.711 87.2736 256.638C87.4857 256.562 87.6697 256.451 87.8255 256.305C87.9812 256.159 88.0989 255.978 88.1784 255.763L89.8588 255.952C89.7528 256.396 89.5506 256.784 89.2523 257.115C88.9573 257.443 88.5795 257.698 88.1188 257.881C87.6581 258.06 87.1311 258.149 86.5378 258.149ZM93.2557 253.526V258H91.456V250.364H93.1761V251.661H93.2656C93.4413 251.234 93.7214 250.894 94.1058 250.642C94.4936 250.39 94.9725 250.264 95.5426 250.264C96.0696 250.264 96.5286 250.377 96.9197 250.602C97.3142 250.828 97.6191 251.154 97.8345 251.582C98.0533 252.009 98.161 252.528 98.1577 253.138V258H96.358V253.416C96.358 252.906 96.2254 252.506 95.9602 252.218C95.6984 251.93 95.3355 251.786 94.8714 251.786C94.5566 251.786 94.2765 251.855 94.0312 251.994C93.7893 252.13 93.5987 252.327 93.4595 252.586C93.3236 252.844 93.2557 253.158 93.2557 253.526Z" fill="black"/>
<rect x="12.5" y="273.5" width="148" height="46" rx="7.5" fill="white"/>
<rect x="12.5" y="273.5" width="148" height="46" rx="7.5" stroke="#E5E7EB"/>
<path d="M20.8608 293V284.273H24.1335C24.804 284.273 25.3665 284.398 25.821 284.648C26.2784 284.898 26.6236 285.241 26.8565 285.679C27.0923 286.114 27.2102 286.608 27.2102 287.162C27.2102 287.722 27.0923 288.219 26.8565 288.653C26.6207 289.088 26.2727 289.43 25.8125 289.68C25.3523 289.928 24.7855 290.051 24.1122 290.051H21.9432V288.751H23.8991C24.2912 288.751 24.6122 288.683 24.8622 288.547C25.1122 288.411 25.2969 288.223 25.4162 287.984C25.5384 287.746 25.5994 287.472 25.5994 287.162C25.5994 286.852 25.5384 286.58 25.4162 286.344C25.2969 286.108 25.1108 285.925 24.858 285.794C24.608 285.661 24.2855 285.594 23.8906 285.594H22.4418V293H20.8608ZM34.0849 284.273H35.6658V289.974C35.6658 290.599 35.5181 291.149 35.2227 291.624C34.93 292.098 34.5181 292.469 33.9869 292.736C33.4556 293 32.8349 293.132 32.1246 293.132C31.4116 293.132 30.7894 293 30.2582 292.736C29.7269 292.469 29.315 292.098 29.0224 291.624C28.7298 291.149 28.5835 290.599 28.5835 289.974V284.273H30.1644V289.842C30.1644 290.206 30.244 290.53 30.4031 290.814C30.565 291.098 30.7923 291.321 31.0849 291.483C31.3775 291.642 31.7241 291.722 32.1246 291.722C32.5252 291.722 32.8718 291.642 33.1644 291.483C33.4599 291.321 33.6871 291.098 33.8462 290.814C34.0053 290.53 34.0849 290.206 34.0849 289.842V284.273ZM37.3842 293V284.273H40.657C41.3274 284.273 41.8899 284.389 42.3445 284.622C42.8018 284.855 43.147 285.182 43.38 285.602C43.6158 286.02 43.7337 286.507 43.7337 287.064C43.7337 287.624 43.6143 288.109 43.3757 288.521C43.1399 288.93 42.7919 289.247 42.3317 289.472C41.8714 289.693 41.3061 289.804 40.6357 289.804H38.3047V288.491H40.4226C40.8146 288.491 41.1357 288.437 41.3857 288.33C41.6357 288.219 41.8203 288.058 41.9396 287.848C42.0618 287.635 42.1229 287.374 42.1229 287.064C42.1229 286.754 42.0618 286.49 41.9396 286.271C41.8175 286.05 41.6314 285.882 41.3814 285.768C41.1314 285.652 40.8089 285.594 40.4141 285.594H38.9652V293H37.3842ZM41.8928 289.045L44.0533 293H42.2891L40.1669 289.045H41.8928ZM52.6591 287.217H51.0653C51.0199 286.956 50.9361 286.724 50.8139 286.523C50.6918 286.318 50.5398 286.145 50.358 286.003C50.1761 285.861 49.9688 285.754 49.7358 285.683C49.5057 285.609 49.2571 285.572 48.9901 285.572C48.5156 285.572 48.0952 285.692 47.7287 285.93C47.3622 286.166 47.0753 286.513 46.8679 286.97C46.6605 287.425 46.5568 287.98 46.5568 288.636C46.5568 289.304 46.6605 289.866 46.8679 290.324C47.0781 290.778 47.3651 291.122 47.7287 291.355C48.0952 291.585 48.5142 291.7 48.9858 291.7C49.2472 291.7 49.4915 291.666 49.7188 291.598C49.9489 291.527 50.1548 291.423 50.3366 291.287C50.5213 291.151 50.6761 290.983 50.8011 290.784C50.929 290.585 51.017 290.358 51.0653 290.102L52.6591 290.111C52.5994 290.526 52.4702 290.915 52.2713 291.278C52.0753 291.642 51.8182 291.963 51.5 292.241C51.1818 292.517 50.8097 292.733 50.3835 292.889C49.9574 293.043 49.4844 293.119 48.9645 293.119C48.1974 293.119 47.5128 292.942 46.9105 292.587C46.3082 292.232 45.8338 291.719 45.4872 291.048C45.1406 290.378 44.9673 289.574 44.9673 288.636C44.9673 287.696 45.142 286.892 45.4915 286.224C45.8409 285.554 46.3168 285.041 46.919 284.686C47.5213 284.331 48.2031 284.153 48.9645 284.153C49.4503 284.153 49.902 284.222 50.3196 284.358C50.7372 284.494 51.1094 284.695 51.4361 284.959C51.7628 285.22 52.0313 285.541 52.2415 285.922C52.4545 286.3 52.5938 286.732 52.6591 287.217ZM54.1069 293V284.273H55.6879V287.967H59.7319V284.273H61.3171V293H59.7319V289.293H55.6879V293H54.1069ZM64.1573 293H62.4698L65.5423 284.273H67.494L70.5707 293H68.8832L66.5522 286.062H66.484L64.1573 293ZM64.2127 289.578H68.815V290.848H64.2127V289.578ZM76.3224 286.672C76.2827 286.3 76.1151 286.01 75.8196 285.803C75.527 285.595 75.1463 285.491 74.6776 285.491C74.348 285.491 74.0653 285.541 73.8295 285.641C73.5938 285.74 73.4134 285.875 73.2884 286.045C73.1634 286.216 73.0994 286.411 73.0966 286.629C73.0966 286.811 73.1378 286.969 73.2202 287.102C73.3054 287.236 73.4205 287.349 73.5653 287.443C73.7102 287.534 73.8707 287.611 74.0469 287.673C74.223 287.736 74.4006 287.788 74.5795 287.831L75.3977 288.036C75.7273 288.112 76.044 288.216 76.348 288.347C76.6548 288.477 76.929 288.642 77.1705 288.841C77.4148 289.04 77.608 289.28 77.75 289.561C77.892 289.842 77.9631 290.172 77.9631 290.55C77.9631 291.061 77.8324 291.511 77.571 291.901C77.3097 292.287 76.9318 292.589 76.4375 292.808C75.946 293.024 75.3509 293.132 74.652 293.132C73.973 293.132 73.3835 293.027 72.8835 292.817C72.3864 292.607 71.9972 292.3 71.7159 291.896C71.4375 291.493 71.2869 291.001 71.2642 290.422H72.8196C72.8423 290.726 72.9361 290.979 73.1009 291.18C73.2656 291.382 73.4801 291.533 73.7443 291.632C74.0114 291.732 74.3097 291.781 74.6392 291.781C74.983 291.781 75.2841 291.73 75.5426 291.628C75.804 291.523 76.0085 291.378 76.1562 291.193C76.304 291.006 76.3793 290.787 76.3821 290.537C76.3793 290.31 76.3125 290.122 76.1818 289.974C76.0511 289.824 75.8679 289.699 75.6321 289.599C75.3991 289.497 75.1264 289.406 74.8139 289.327L73.821 289.071C73.1023 288.886 72.5341 288.607 72.1165 288.232C71.7017 287.854 71.4943 287.352 71.4943 286.727C71.4943 286.213 71.6335 285.763 71.9119 285.376C72.1932 284.99 72.5753 284.69 73.0582 284.477C73.5412 284.261 74.0881 284.153 74.6989 284.153C75.3182 284.153 75.8608 284.261 76.3267 284.477C76.7955 284.69 77.1634 284.987 77.4304 285.368C77.6974 285.746 77.8352 286.18 77.8438 286.672H76.3224ZM79.3725 293V284.273H85.0487V285.598H80.9535V287.967H84.7546V289.293H80.9535V291.675H85.0827V293H79.3725ZM89.6381 284.273H91.5728L94.1637 290.597H94.266L96.8569 284.273H98.7915V293H97.2745V287.004H97.1935L94.7816 292.974H93.6481L91.2362 286.991H91.1552V293H89.6381V284.273ZM102.094 284.273V293H100.513V284.273H102.094ZM110.978 284.273V293H109.572L105.46 287.055H105.387V293H103.806V284.273H105.221L109.329 290.222H109.406V284.273H110.978ZM114.282 284.273V293H112.701V284.273H114.282ZM115.994 284.273H117.928L120.519 290.597H120.621L123.212 284.273H125.147V293H123.63V287.004H123.549L121.137 292.974H120.004L117.592 286.991H117.511V293H115.994V284.273ZM132.37 284.273H133.951V289.974C133.951 290.599 133.803 291.149 133.508 291.624C133.215 292.098 132.803 292.469 132.272 292.736C131.741 293 131.12 293.132 130.41 293.132C129.697 293.132 129.075 293 128.543 292.736C128.012 292.469 127.6 292.098 127.308 291.624C127.015 291.149 126.869 290.599 126.869 289.974V284.273H128.45V289.842C128.45 290.206 128.529 290.53 128.688 290.814C128.85 291.098 129.077 291.321 129.37 291.483C129.663 291.642 130.009 291.722 130.41 291.722C130.81 291.722 131.157 291.642 131.45 291.483C131.745 291.321 131.972 291.098 132.131 290.814C132.29 290.53 132.37 290.206 132.37 289.842V284.273ZM135.669 284.273H137.604L140.195 290.597H140.297L142.888 284.273H144.823V293H143.306V287.004H143.225L140.813 292.974H139.679L137.267 286.991H137.186V293H135.669V284.273Z" fill="#969696"/>
<rect x="20" y="300" width="133" height="12" rx="4" fill="#D9D9D9"/>
<rect x="173.5" y="273.5" width="148" height="46" rx="7.5" fill="white"/>
<rect x="173.5" y="273.5" width="148" height="46" rx="7.5" stroke="#E5E7EB"/>
<path d="M187.707 287.06C187.636 286.83 187.538 286.624 187.413 286.442C187.291 286.257 187.143 286.099 186.97 285.969C186.8 285.838 186.604 285.74 186.382 285.675C186.161 285.607 185.919 285.572 185.658 285.572C185.189 285.572 184.771 285.69 184.405 285.926C184.038 286.162 183.75 286.509 183.54 286.966C183.332 287.42 183.229 287.974 183.229 288.628C183.229 289.287 183.332 289.845 183.54 290.303C183.747 290.76 184.036 291.108 184.405 291.347C184.774 291.582 185.203 291.7 185.692 291.7C186.135 291.7 186.518 291.615 186.842 291.445C187.169 291.274 187.42 291.033 187.597 290.72C187.773 290.405 187.861 290.036 187.861 289.612L188.219 289.668H185.849V288.432H189.391V289.48C189.391 290.227 189.232 290.874 188.913 291.419C188.595 291.964 188.158 292.385 187.601 292.68C187.044 292.973 186.405 293.119 185.683 293.119C184.879 293.119 184.173 292.939 183.565 292.578C182.96 292.214 182.487 291.699 182.146 291.031C181.808 290.361 181.639 289.565 181.639 288.645C181.639 287.94 181.739 287.311 181.938 286.757C182.139 286.203 182.42 285.733 182.781 285.347C183.142 284.957 183.565 284.662 184.051 284.46C184.537 284.256 185.065 284.153 185.636 284.153C186.119 284.153 186.57 284.224 186.987 284.366C187.405 284.506 187.776 284.705 188.099 284.963C188.426 285.222 188.695 285.528 188.905 285.884C189.115 286.239 189.253 286.631 189.318 287.06H187.707ZM190.919 293V284.273H196.596V285.598H192.5V287.967H196.301V289.293H192.5V291.675H196.63V293H190.919ZM197.825 285.598V284.273H204.788V285.598H202.091V293H200.522V285.598H197.825ZM209.107 293V284.273H212.448C213.078 284.273 213.603 284.372 214.02 284.571C214.441 284.767 214.755 285.036 214.962 285.376C215.172 285.717 215.277 286.104 215.277 286.536C215.277 286.891 215.209 287.195 215.073 287.447C214.936 287.697 214.753 287.901 214.523 288.057C214.293 288.213 214.036 288.325 213.752 288.393V288.479C214.061 288.496 214.358 288.591 214.642 288.764C214.929 288.935 215.164 289.176 215.346 289.489C215.527 289.801 215.618 290.179 215.618 290.622C215.618 291.074 215.509 291.48 215.29 291.841C215.071 292.199 214.742 292.482 214.301 292.689C213.861 292.896 213.307 293 212.64 293H209.107ZM210.688 291.679H212.388C212.962 291.679 213.375 291.57 213.628 291.351C213.884 291.129 214.012 290.845 214.012 290.499C214.012 290.24 213.948 290.007 213.82 289.8C213.692 289.589 213.51 289.425 213.275 289.305C213.039 289.183 212.757 289.122 212.431 289.122H210.688V291.679ZM210.688 287.984H212.252C212.525 287.984 212.77 287.935 212.989 287.835C213.208 287.733 213.38 287.589 213.505 287.405C213.632 287.217 213.696 286.996 213.696 286.74C213.696 286.402 213.577 286.124 213.338 285.905C213.103 285.686 212.752 285.577 212.286 285.577H210.688V287.984ZM224.792 288.636C224.792 289.577 224.616 290.382 224.263 291.053C223.914 291.72 223.437 292.232 222.832 292.587C222.229 292.942 221.546 293.119 220.782 293.119C220.018 293.119 219.333 292.942 218.728 292.587C218.126 292.229 217.648 291.716 217.296 291.048C216.947 290.378 216.772 289.574 216.772 288.636C216.772 287.696 216.947 286.892 217.296 286.224C217.648 285.554 218.126 285.041 218.728 284.686C219.333 284.331 220.018 284.153 220.782 284.153C221.546 284.153 222.229 284.331 222.832 284.686C223.437 285.041 223.914 285.554 224.263 286.224C224.616 286.892 224.792 287.696 224.792 288.636ZM223.202 288.636C223.202 287.974 223.099 287.416 222.891 286.962C222.687 286.504 222.403 286.159 222.039 285.926C221.675 285.69 221.256 285.572 220.782 285.572C220.308 285.572 219.888 285.69 219.525 285.926C219.161 286.159 218.876 286.504 218.668 286.962C218.464 287.416 218.362 287.974 218.362 288.636C218.362 289.298 218.464 289.858 218.668 290.315C218.876 290.77 219.161 291.115 219.525 291.351C219.888 291.584 220.308 291.7 220.782 291.7C221.256 291.7 221.675 291.584 222.039 291.351C222.403 291.115 222.687 290.77 222.891 290.315C223.099 289.858 223.202 289.298 223.202 288.636ZM233.458 284.273V293H232.052L227.94 287.055H227.868V293H226.287V284.273H227.701L231.809 290.222H231.886V284.273H233.458ZM240.683 284.273H242.263V289.974C242.263 290.599 242.116 291.149 241.82 291.624C241.528 292.098 241.116 292.469 240.585 292.736C240.053 293 239.433 293.132 238.722 293.132C238.009 293.132 237.387 293 236.856 292.736C236.325 292.469 235.913 292.098 235.62 291.624C235.327 291.149 235.181 290.599 235.181 289.974V284.273H236.762V289.842C236.762 290.206 236.842 290.53 237.001 290.814C237.163 291.098 237.39 291.321 237.683 291.483C237.975 291.642 238.322 291.722 238.722 291.722C239.123 291.722 239.469 291.642 239.762 291.483C240.058 291.321 240.285 291.098 240.444 290.814C240.603 290.53 240.683 290.206 240.683 289.842V284.273ZM248.725 286.672C248.685 286.3 248.517 286.01 248.222 285.803C247.929 285.595 247.549 285.491 247.08 285.491C246.75 285.491 246.468 285.541 246.232 285.641C245.996 285.74 245.816 285.875 245.691 286.045C245.566 286.216 245.502 286.411 245.499 286.629C245.499 286.811 245.54 286.969 245.623 287.102C245.708 287.236 245.823 287.349 245.968 287.443C246.113 287.534 246.273 287.611 246.449 287.673C246.625 287.736 246.803 287.788 246.982 287.831L247.8 288.036C248.13 288.112 248.446 288.216 248.75 288.347C249.057 288.477 249.331 288.642 249.573 288.841C249.817 289.04 250.01 289.28 250.152 289.561C250.294 289.842 250.365 290.172 250.365 290.55C250.365 291.061 250.235 291.511 249.973 291.901C249.712 292.287 249.334 292.589 248.84 292.808C248.348 293.024 247.753 293.132 247.054 293.132C246.375 293.132 245.786 293.027 245.286 292.817C244.789 292.607 244.4 292.3 244.118 291.896C243.84 291.493 243.689 291.001 243.667 290.422H245.222C245.245 290.726 245.338 290.979 245.503 291.18C245.668 291.382 245.882 291.533 246.147 291.632C246.414 291.732 246.712 291.781 247.042 291.781C247.385 291.781 247.686 291.73 247.945 291.628C248.206 291.523 248.411 291.378 248.559 291.193C248.706 291.006 248.782 290.787 248.784 290.537C248.782 290.31 248.715 290.122 248.584 289.974C248.453 289.824 248.27 289.699 248.034 289.599C247.801 289.497 247.529 289.406 247.216 289.327L246.223 289.071C245.505 288.886 244.936 288.607 244.519 288.232C244.104 287.854 243.897 287.352 243.897 286.727C243.897 286.213 244.036 285.763 244.314 285.376C244.596 284.99 244.978 284.69 245.461 284.477C245.944 284.261 246.49 284.153 247.101 284.153C247.721 284.153 248.263 284.261 248.729 284.477C249.198 284.69 249.566 284.987 249.833 285.368C250.1 285.746 250.238 286.18 250.246 286.672H248.725Z" fill="#969696"/>
<rect x="181" y="300" width="133" height="12" rx="4" fill="#D9D9D9"/>
<path d="M346 308.5C349.183 308.5 352.235 307.236 354.485 304.985C356.736 302.735 358 299.683 358 296.5C358 293.317 356.736 290.265 354.485 288.015C352.235 285.764 349.183 284.5 346 284.5C342.817 284.5 339.765 285.764 337.515 288.015C335.264 290.265 334 293.317 334 296.5C334 299.683 335.264 302.735 337.515 304.985C339.765 307.236 342.817 308.5 346 308.5ZM344.875 300.625V297.625H341.875C341.252 297.625 340.75 297.123 340.75 296.5C340.75 295.877 341.252 295.375 341.875 295.375H344.875V292.375C344.875 291.752 345.377 291.25 346 291.25C346.623 291.25 347.125 291.752 347.125 292.375V295.375H350.125C350.748 295.375 351.25 295.877 351.25 296.5C351.25 297.123 350.748 297.625 350.125 297.625H347.125V300.625C347.125 301.248 346.623 301.75 346 301.75C345.377 301.75 344.875 301.248 344.875 300.625Z" fill="#21BB5A"/>
<rect x="12.5" y="332.5" width="148" height="46" rx="7.5" fill="white"/>
<rect x="12.5" y="332.5" width="148" height="46" rx="7.5" stroke="#E5E7EB"/>
<path d="M20.8608 352V343.273H24.1335C24.804 343.273 25.3665 343.398 25.821 343.648C26.2784 343.898 26.6236 344.241 26.8565 344.679C27.0923 345.114 27.2102 345.608 27.2102 346.162C27.2102 346.722 27.0923 347.219 26.8565 347.653C26.6207 348.088 26.2727 348.43 25.8125 348.68C25.3523 348.928 24.7855 349.051 24.1122 349.051H21.9432V347.751H23.8991C24.2912 347.751 24.6122 347.683 24.8622 347.547C25.1122 347.411 25.2969 347.223 25.4162 346.984C25.5384 346.746 25.5994 346.472 25.5994 346.162C25.5994 345.852 25.5384 345.58 25.4162 345.344C25.2969 345.108 25.1108 344.925 24.858 344.794C24.608 344.661 24.2855 344.594 23.8906 344.594H22.4418V352H20.8608ZM34.0849 343.273H35.6658V348.974C35.6658 349.599 35.5181 350.149 35.2227 350.624C34.93 351.098 34.5181 351.469 33.9869 351.736C33.4556 352 32.8349 352.132 32.1246 352.132C31.4116 352.132 30.7894 352 30.2582 351.736C29.7269 351.469 29.315 351.098 29.0224 350.624C28.7298 350.149 28.5835 349.599 28.5835 348.974V343.273H30.1644V348.842C30.1644 349.206 30.244 349.53 30.4031 349.814C30.565 350.098 30.7923 350.321 31.0849 350.483C31.3775 350.642 31.7241 350.722 32.1246 350.722C32.5252 350.722 32.8718 350.642 33.1644 350.483C33.4599 350.321 33.6871 350.098 33.8462 349.814C34.0053 349.53 34.0849 349.206 34.0849 348.842V343.273ZM37.3842 352V343.273H40.657C41.3274 343.273 41.8899 343.389 42.3445 343.622C42.8018 343.855 43.147 344.182 43.38 344.602C43.6158 345.02 43.7337 345.507 43.7337 346.064C43.7337 346.624 43.6143 347.109 43.3757 347.521C43.1399 347.93 42.7919 348.247 42.3317 348.472C41.8714 348.693 41.3061 348.804 40.6357 348.804H38.3047V347.491H40.4226C40.8146 347.491 41.1357 347.437 41.3857 347.33C41.6357 347.219 41.8203 347.058 41.9396 346.848C42.0618 346.635 42.1229 346.374 42.1229 346.064C42.1229 345.754 42.0618 345.49 41.9396 345.271C41.8175 345.05 41.6314 344.882 41.3814 344.768C41.1314 344.652 40.8089 344.594 40.4141 344.594H38.9652V352H37.3842ZM41.8928 348.045L44.0533 352H42.2891L40.1669 348.045H41.8928ZM52.6591 346.217H51.0653C51.0199 345.956 50.9361 345.724 50.8139 345.523C50.6918 345.318 50.5398 345.145 50.358 345.003C50.1761 344.861 49.9688 344.754 49.7358 344.683C49.5057 344.609 49.2571 344.572 48.9901 344.572C48.5156 344.572 48.0952 344.692 47.7287 344.93C47.3622 345.166 47.0753 345.513 46.8679 345.97C46.6605 346.425 46.5568 346.98 46.5568 347.636C46.5568 348.304 46.6605 348.866 46.8679 349.324C47.0781 349.778 47.3651 350.122 47.7287 350.355C48.0952 350.585 48.5142 350.7 48.9858 350.7C49.2472 350.7 49.4915 350.666 49.7188 350.598C49.9489 350.527 50.1548 350.423 50.3366 350.287C50.5213 350.151 50.6761 349.983 50.8011 349.784C50.929 349.585 51.017 349.358 51.0653 349.102L52.6591 349.111C52.5994 349.526 52.4702 349.915 52.2713 350.278C52.0753 350.642 51.8182 350.963 51.5 351.241C51.1818 351.517 50.8097 351.733 50.3835 351.889C49.9574 352.043 49.4844 352.119 48.9645 352.119C48.1974 352.119 47.5128 351.942 46.9105 351.587C46.3082 351.232 45.8338 350.719 45.4872 350.048C45.1406 349.378 44.9673 348.574 44.9673 347.636C44.9673 346.696 45.142 345.892 45.4915 345.224C45.8409 344.554 46.3168 344.041 46.919 343.686C47.5213 343.331 48.2031 343.153 48.9645 343.153C49.4503 343.153 49.902 343.222 50.3196 343.358C50.7372 343.494 51.1094 343.695 51.4361 343.959C51.7628 344.22 52.0313 344.541 52.2415 344.922C52.4545 345.3 52.5938 345.732 52.6591 346.217ZM54.1069 352V343.273H55.6879V346.967H59.7319V343.273H61.3171V352H59.7319V348.293H55.6879V352H54.1069ZM64.1573 352H62.4698L65.5423 343.273H67.494L70.5707 352H68.8832L66.5522 345.062H66.484L64.1573 352ZM64.2127 348.578H68.815V349.848H64.2127V348.578ZM76.3224 345.672C76.2827 345.3 76.1151 345.01 75.8196 344.803C75.527 344.595 75.1463 344.491 74.6776 344.491C74.348 344.491 74.0653 344.541 73.8295 344.641C73.5938 344.74 73.4134 344.875 73.2884 345.045C73.1634 345.216 73.0994 345.411 73.0966 345.629C73.0966 345.811 73.1378 345.969 73.2202 346.102C73.3054 346.236 73.4205 346.349 73.5653 346.443C73.7102 346.534 73.8707 346.611 74.0469 346.673C74.223 346.736 74.4006 346.788 74.5795 346.831L75.3977 347.036C75.7273 347.112 76.044 347.216 76.348 347.347C76.6548 347.477 76.929 347.642 77.1705 347.841C77.4148 348.04 77.608 348.28 77.75 348.561C77.892 348.842 77.9631 349.172 77.9631 349.55C77.9631 350.061 77.8324 350.511 77.571 350.901C77.3097 351.287 76.9318 351.589 76.4375 351.808C75.946 352.024 75.3509 352.132 74.652 352.132C73.973 352.132 73.3835 352.027 72.8835 351.817C72.3864 351.607 71.9972 351.3 71.7159 350.896C71.4375 350.493 71.2869 350.001 71.2642 349.422H72.8196C72.8423 349.726 72.9361 349.979 73.1009 350.18C73.2656 350.382 73.4801 350.533 73.7443 350.632C74.0114 350.732 74.3097 350.781 74.6392 350.781C74.983 350.781 75.2841 350.73 75.5426 350.628C75.804 350.523 76.0085 350.378 76.1562 350.193C76.304 350.006 76.3793 349.787 76.3821 349.537C76.3793 349.31 76.3125 349.122 76.1818 348.974C76.0511 348.824 75.8679 348.699 75.6321 348.599C75.3991 348.497 75.1264 348.406 74.8139 348.327L73.821 348.071C73.1023 347.886 72.5341 347.607 72.1165 347.232C71.7017 346.854 71.4943 346.352 71.4943 345.727C71.4943 345.213 71.6335 344.763 71.9119 344.376C72.1932 343.99 72.5753 343.69 73.0582 343.477C73.5412 343.261 74.0881 343.153 74.6989 343.153C75.3182 343.153 75.8608 343.261 76.3267 343.477C76.7955 343.69 77.1634 343.987 77.4304 344.368C77.6974 344.746 77.8352 345.18 77.8438 345.672H76.3224ZM79.3725 352V343.273H85.0487V344.598H80.9535V346.967H84.7546V348.293H80.9535V350.675H85.0827V352H79.3725ZM89.6381 343.273H91.5728L94.1637 349.597H94.266L96.8569 343.273H98.7915V352H97.2745V346.004H97.1935L94.7816 351.974H93.6481L91.2362 345.991H91.1552V352H89.6381V343.273ZM102.094 343.273V352H100.513V343.273H102.094ZM110.978 343.273V352H109.572L105.46 346.055H105.387V352H103.806V343.273H105.221L109.329 349.222H109.406V343.273H110.978ZM114.282 343.273V352H112.701V343.273H114.282ZM115.994 343.273H117.928L120.519 349.597H120.621L123.212 343.273H125.147V352H123.63V346.004H123.549L121.137 351.974H120.004L117.592 345.991H117.511V352H115.994V343.273ZM132.37 343.273H133.951V348.974C133.951 349.599 133.803 350.149 133.508 350.624C133.215 351.098 132.803 351.469 132.272 351.736C131.741 352 131.12 352.132 130.41 352.132C129.697 352.132 129.075 352 128.543 351.736C128.012 351.469 127.6 351.098 127.308 350.624C127.015 350.149 126.869 349.599 126.869 348.974V343.273H128.45V348.842C128.45 349.206 128.529 349.53 128.688 349.814C128.85 350.098 129.077 350.321 129.37 350.483C129.663 350.642 130.009 350.722 130.41 350.722C130.81 350.722 131.157 350.642 131.45 350.483C131.745 350.321 131.972 350.098 132.131 349.814C132.29 349.53 132.37 349.206 132.37 348.842V343.273ZM135.669 343.273H137.604L140.195 349.597H140.297L142.888 343.273H144.823V352H143.306V346.004H143.225L140.813 351.974H139.679L137.267 345.991H137.186V352H135.669V343.273Z" fill="#969696"/>
<rect x="20" y="359" width="133" height="12" rx="4" fill="#D9D9D9"/>
<rect x="173.5" y="332.5" width="148" height="46" rx="7.5" fill="white"/>
<rect x="173.5" y="332.5" width="148" height="46" rx="7.5" stroke="#E5E7EB"/>
<path d="M187.707 346.06C187.636 345.83 187.538 345.624 187.413 345.442C187.291 345.257 187.143 345.099 186.97 344.969C186.8 344.838 186.604 344.74 186.382 344.675C186.161 344.607 185.919 344.572 185.658 344.572C185.189 344.572 184.771 344.69 184.405 344.926C184.038 345.162 183.75 345.509 183.54 345.966C183.332 346.42 183.229 346.974 183.229 347.628C183.229 348.287 183.332 348.845 183.54 349.303C183.747 349.76 184.036 350.108 184.405 350.347C184.774 350.582 185.203 350.7 185.692 350.7C186.135 350.7 186.518 350.615 186.842 350.445C187.169 350.274 187.42 350.033 187.597 349.72C187.773 349.405 187.861 349.036 187.861 348.612L188.219 348.668H185.849V347.432H189.391V348.48C189.391 349.227 189.232 349.874 188.913 350.419C188.595 350.964 188.158 351.385 187.601 351.68C187.044 351.973 186.405 352.119 185.683 352.119C184.879 352.119 184.173 351.939 183.565 351.578C182.96 351.214 182.487 350.699 182.146 350.031C181.808 349.361 181.639 348.565 181.639 347.645C181.639 346.94 181.739 346.311 181.938 345.757C182.139 345.203 182.42 344.733 182.781 344.347C183.142 343.957 183.565 343.662 184.051 343.46C184.537 343.256 185.065 343.153 185.636 343.153C186.119 343.153 186.57 343.224 186.987 343.366C187.405 343.506 187.776 343.705 188.099 343.963C188.426 344.222 188.695 344.528 188.905 344.884C189.115 345.239 189.253 345.631 189.318 346.06H187.707ZM190.919 352V343.273H196.596V344.598H192.5V346.967H196.301V348.293H192.5V350.675H196.63V352H190.919ZM197.825 344.598V343.273H204.788V344.598H202.091V352H200.522V344.598H197.825ZM209.107 352V343.273H212.448C213.078 343.273 213.603 343.372 214.02 343.571C214.441 343.767 214.755 344.036 214.962 344.376C215.172 344.717 215.277 345.104 215.277 345.536C215.277 345.891 215.209 346.195 215.073 346.447C214.936 346.697 214.753 346.901 214.523 347.057C214.293 347.213 214.036 347.325 213.752 347.393V347.479C214.061 347.496 214.358 347.591 214.642 347.764C214.929 347.935 215.164 348.176 215.346 348.489C215.527 348.801 215.618 349.179 215.618 349.622C215.618 350.074 215.509 350.48 215.29 350.841C215.071 351.199 214.742 351.482 214.301 351.689C213.861 351.896 213.307 352 212.64 352H209.107ZM210.688 350.679H212.388C212.962 350.679 213.375 350.57 213.628 350.351C213.884 350.129 214.012 349.845 214.012 349.499C214.012 349.24 213.948 349.007 213.82 348.8C213.692 348.589 213.51 348.425 213.275 348.305C213.039 348.183 212.757 348.122 212.431 348.122H210.688V350.679ZM210.688 346.984H212.252C212.525 346.984 212.77 346.935 212.989 346.835C213.208 346.733 213.38 346.589 213.505 346.405C213.632 346.217 213.696 345.996 213.696 345.74C213.696 345.402 213.577 345.124 213.338 344.905C213.103 344.686 212.752 344.577 212.286 344.577H210.688V346.984ZM224.792 347.636C224.792 348.577 224.616 349.382 224.263 350.053C223.914 350.72 223.437 351.232 222.832 351.587C222.229 351.942 221.546 352.119 220.782 352.119C220.018 352.119 219.333 351.942 218.728 351.587C218.126 351.229 217.648 350.716 217.296 350.048C216.947 349.378 216.772 348.574 216.772 347.636C216.772 346.696 216.947 345.892 217.296 345.224C217.648 344.554 218.126 344.041 218.728 343.686C219.333 343.331 220.018 343.153 220.782 343.153C221.546 343.153 222.229 343.331 222.832 343.686C223.437 344.041 223.914 344.554 224.263 345.224C224.616 345.892 224.792 346.696 224.792 347.636ZM223.202 347.636C223.202 346.974 223.099 346.416 222.891 345.962C222.687 345.504 222.403 345.159 222.039 344.926C221.675 344.69 221.256 344.572 220.782 344.572C220.308 344.572 219.888 344.69 219.525 344.926C219.161 345.159 218.876 345.504 218.668 345.962C218.464 346.416 218.362 346.974 218.362 347.636C218.362 348.298 218.464 348.858 218.668 349.315C218.876 349.77 219.161 350.115 219.525 350.351C219.888 350.584 220.308 350.7 220.782 350.7C221.256 350.7 221.675 350.584 222.039 350.351C222.403 350.115 222.687 349.77 222.891 349.315C223.099 348.858 223.202 348.298 223.202 347.636ZM233.458 343.273V352H232.052L227.94 346.055H227.868V352H226.287V343.273H227.701L231.809 349.222H231.886V343.273H233.458ZM240.683 343.273H242.263V348.974C242.263 349.599 242.116 350.149 241.82 350.624C241.528 351.098 241.116 351.469 240.585 351.736C240.053 352 239.433 352.132 238.722 352.132C238.009 352.132 237.387 352 236.856 351.736C236.325 351.469 235.913 351.098 235.62 350.624C235.327 350.149 235.181 349.599 235.181 348.974V343.273H236.762V348.842C236.762 349.206 236.842 349.53 237.001 349.814C237.163 350.098 237.39 350.321 237.683 350.483C237.975 350.642 238.322 350.722 238.722 350.722C239.123 350.722 239.469 350.642 239.762 350.483C240.058 350.321 240.285 350.098 240.444 349.814C240.603 349.53 240.683 349.206 240.683 348.842V343.273ZM248.725 345.672C248.685 345.3 248.517 345.01 248.222 344.803C247.929 344.595 247.549 344.491 247.08 344.491C246.75 344.491 246.468 344.541 246.232 344.641C245.996 344.74 245.816 344.875 245.691 345.045C245.566 345.216 245.502 345.411 245.499 345.629C245.499 345.811 245.54 345.969 245.623 346.102C245.708 346.236 245.823 346.349 245.968 346.443C246.113 346.534 246.273 346.611 246.449 346.673C246.625 346.736 246.803 346.788 246.982 346.831L247.8 347.036C248.13 347.112 248.446 347.216 248.75 347.347C249.057 347.477 249.331 347.642 249.573 347.841C249.817 348.04 250.01 348.28 250.152 348.561C250.294 348.842 250.365 349.172 250.365 349.55C250.365 350.061 250.235 350.511 249.973 350.901C249.712 351.287 249.334 351.589 248.84 351.808C248.348 352.024 247.753 352.132 247.054 352.132C246.375 352.132 245.786 352.027 245.286 351.817C244.789 351.607 244.4 351.3 244.118 350.896C243.84 350.493 243.689 350.001 243.667 349.422H245.222C245.245 349.726 245.338 349.979 245.503 350.18C245.668 350.382 245.882 350.533 246.147 350.632C246.414 350.732 246.712 350.781 247.042 350.781C247.385 350.781 247.686 350.73 247.945 350.628C248.206 350.523 248.411 350.378 248.559 350.193C248.706 350.006 248.782 349.787 248.784 349.537C248.782 349.31 248.715 349.122 248.584 348.974C248.453 348.824 248.27 348.699 248.034 348.599C247.801 348.497 247.529 348.406 247.216 348.327L246.223 348.071C245.505 347.886 244.936 347.607 244.519 347.232C244.104 346.854 243.897 346.352 243.897 345.727C243.897 345.213 244.036 344.763 244.314 344.376C244.596 343.99 244.978 343.69 245.461 343.477C245.944 343.261 246.49 343.153 247.101 343.153C247.721 343.153 248.263 343.261 248.729 343.477C249.198 343.69 249.566 343.987 249.833 344.368C250.1 344.746 250.238 345.18 250.246 345.672H248.725Z" fill="#969696"/>
<rect x="181" y="359" width="133" height="12" rx="4" fill="#D9D9D9"/>
<path d="M346 367.5C349.183 367.5 352.235 366.236 354.485 363.985C356.736 361.735 358 358.683 358 355.5C358 352.317 356.736 349.265 354.485 347.015C352.235 344.764 349.183 343.5 346 343.5C342.817 343.5 339.765 344.764 337.515 347.015C335.264 349.265 334 352.317 334 355.5C334 358.683 335.264 361.735 337.515 363.985C339.765 366.236 342.817 367.5 346 367.5ZM342.203 351.703C342.644 351.262 343.356 351.262 343.792 351.703L345.995 353.906L348.198 351.703C348.639 351.262 349.352 351.262 349.787 351.703C350.223 352.144 350.228 352.856 349.787 353.292L347.584 355.495L349.787 357.698C350.228 358.139 350.228 358.852 349.787 359.287C349.347 359.723 348.634 359.728 348.198 359.287L345.995 357.084L343.792 359.287C343.352 359.728 342.639 359.728 342.203 359.287C341.767 358.847 341.762 358.134 342.203 357.698L344.406 355.495L342.203 353.292C341.762 352.852 341.762 352.139 342.203 351.703Z" fill="#DC2626"/>
<rect x="12" y="391" width="346" height="1" rx="0.5" fill="#D9D9D9"/>
<rect x="12.5" y="404.5" width="345" height="43" rx="7.5" fill="white"/>
<rect x="12.5" y="404.5" width="345" height="43" rx="7.5" stroke="#E5E7EB"/>
<rect x="20" y="412" width="330" height="12" rx="6" fill="#969696"/>
<rect x="20" y="428" width="330" height="12" rx="4" fill="#D9D9D9"/>
</svg>
