<svg width="370" height="135" viewBox="0 0 370 135" fill="none" xmlns="http://www.w3.org/2000/svg">
<rect x="0.5" y="0.5" width="369" height="134" rx="15.5" fill="white"/>
<rect x="0.5" y="0.5" width="369" height="134" rx="15.5" stroke="#E5E7EB"/>
<rect x="12.5" y="12.5" width="345" height="40" rx="7.5" stroke="#E5E7EB"/>
<rect x="16" y="16" width="338" height="33" rx="4" fill="url(#paint0_linear_12485_352)"/>
<path d="M37.8686 31.3828H35.6911C35.6513 31.1011 35.5701 30.8509 35.4474 30.6321C35.3248 30.41 35.1674 30.2211 34.9751 30.0653C34.7829 29.9096 34.5608 29.7902 34.3089 29.7074C34.0604 29.6245 33.7902 29.5831 33.4986 29.5831C32.9716 29.5831 32.5125 29.714 32.1214 29.9759C31.7304 30.2344 31.4271 30.6122 31.2116 31.1094C30.9962 31.6032 30.8885 32.2031 30.8885 32.9091C30.8885 33.6349 30.9962 34.2448 31.2116 34.7386C31.4304 35.2325 31.7353 35.6054 32.1264 35.8572C32.5175 36.1091 32.9699 36.2351 33.4837 36.2351C33.772 36.2351 34.0388 36.197 34.2841 36.1207C34.5327 36.0445 34.7531 35.9335 34.9453 35.7876C35.1375 35.6385 35.2966 35.4579 35.4226 35.2457C35.5518 35.0336 35.6413 34.7917 35.6911 34.5199L37.8686 34.5298C37.8123 34.9972 37.6714 35.4479 37.446 35.8821C37.224 36.313 36.924 36.6991 36.5462 37.0405C36.1716 37.3786 35.7242 37.647 35.2038 37.8459C34.6868 38.0414 34.1018 38.1392 33.4489 38.1392C32.5407 38.1392 31.7287 37.9337 31.0128 37.5227C30.3002 37.1117 29.7367 36.5168 29.3224 35.7379C28.9115 34.959 28.706 34.0161 28.706 32.9091C28.706 31.7988 28.9148 30.8542 29.3324 30.0753C29.75 29.2964 30.3168 28.7031 31.0327 28.2955C31.7486 27.8845 32.554 27.679 33.4489 27.679C34.0388 27.679 34.5857 27.7618 35.0895 27.9276C35.5966 28.0933 36.0457 28.3352 36.4368 28.6534C36.8279 28.9683 37.1461 29.3544 37.3913 29.8118C37.6399 30.2692 37.799 30.7929 37.8686 31.3828ZM40.9759 38H38.669L42.1839 27.8182H44.9581L48.468 38H46.1612L43.6108 30.1449H43.5312L40.9759 38ZM40.8317 33.9979H46.2805V35.6783H40.8317V33.9979ZM49.6935 38V27.8182H53.7106C54.4828 27.8182 55.1407 27.9657 55.6843 28.2607C56.2279 28.5523 56.6422 28.9583 56.9272 29.4787C57.2156 29.9957 57.3597 30.5923 57.3597 31.2685C57.3597 31.9446 57.2139 32.5412 56.9222 33.0582C56.6306 33.5753 56.208 33.978 55.6545 34.2663C55.1043 34.5547 54.4381 34.6989 53.6559 34.6989H51.0955V32.9737H53.3079C53.7222 32.9737 54.0636 32.9025 54.332 32.7599C54.6038 32.6141 54.806 32.4136 54.9386 32.1584C55.0745 31.8999 55.1424 31.6032 55.1424 31.2685C55.1424 30.9304 55.0745 30.6354 54.9386 30.3835C54.806 30.1283 54.6038 29.9311 54.332 29.7919C54.0603 29.6494 53.7156 29.5781 53.2979 29.5781H51.8462V38H49.6935ZM60.9107 27.8182V38H58.758V27.8182H60.9107ZM62.294 29.593V27.8182H70.6562V29.593H67.5391V38H65.4112V29.593H62.294ZM72.5442 38H70.2374L73.7523 27.8182H76.5265L80.0364 38H77.7296L75.1792 30.1449H75.0996L72.5442 38ZM72.4 33.9979H77.8489V35.6783H72.4V33.9979ZM81.2619 38V27.8182H83.4146V36.2251H87.7797V38H81.2619ZM92.4455 38V27.8182H96.4625C97.2315 27.8182 97.8877 27.9557 98.4313 28.2308C98.9782 28.5026 99.3941 28.8887 99.6792 29.3892C99.9675 29.8864 100.112 30.4714 100.112 31.1442C100.112 31.8203 99.9659 32.402 99.6742 32.8892C99.3825 33.3731 98.9599 33.7443 98.4064 34.0028C97.8562 34.2614 97.19 34.3906 96.4078 34.3906H93.7182V32.6605H96.0598C96.4708 32.6605 96.8122 32.6042 97.084 32.4915C97.3558 32.3788 97.5579 32.2098 97.6905 31.9844C97.8264 31.759 97.8944 31.4789 97.8944 31.1442C97.8944 30.8061 97.8264 30.5211 97.6905 30.2891C97.5579 30.0571 97.3541 29.8814 97.079 29.7621C96.8072 29.6394 96.4642 29.5781 96.0499 29.5781H94.5982V38H92.4455ZM97.9441 33.3665L100.475 38H98.0982L95.6223 33.3665H97.9441ZM103.388 38H101.081L104.596 27.8182H107.37L110.88 38H108.573L106.023 30.1449H105.943L103.388 38ZM103.244 33.9979H108.693V35.6783H103.244V33.9979ZM114.258 27.8182V38H112.106V27.8182H114.258ZM121.553 30.7464C121.513 30.3454 121.342 30.0339 121.041 29.8118C120.739 29.5897 120.33 29.4787 119.813 29.4787C119.462 29.4787 119.165 29.5284 118.923 29.6278C118.681 29.724 118.495 29.8582 118.366 30.0305C118.24 30.2029 118.177 30.3984 118.177 30.6172C118.171 30.7995 118.209 30.9586 118.292 31.0945C118.378 31.2304 118.495 31.348 118.645 31.4474C118.794 31.5436 118.966 31.6281 119.162 31.701C119.357 31.7706 119.566 31.8303 119.788 31.88L120.703 32.0987C121.147 32.1982 121.555 32.3307 121.926 32.4964C122.297 32.6622 122.618 32.866 122.89 33.108C123.162 33.3499 123.373 33.6349 123.522 33.9631C123.674 34.2912 123.752 34.6674 123.755 35.0916C123.752 35.7147 123.593 36.255 123.278 36.7124C122.967 37.1664 122.516 37.5194 121.926 37.7713C121.339 38.0199 120.632 38.1442 119.803 38.1442C118.981 38.1442 118.265 38.0182 117.655 37.7663C117.049 37.5144 116.575 37.1416 116.233 36.6477C115.895 36.1506 115.718 35.5357 115.701 34.8033H117.784C117.808 35.1446 117.905 35.4297 118.078 35.6584C118.253 35.8838 118.487 36.0545 118.779 36.1705C119.074 36.2831 119.407 36.3395 119.778 36.3395C120.143 36.3395 120.459 36.2865 120.728 36.1804C120.999 36.0743 121.21 35.9268 121.359 35.7379C121.508 35.549 121.583 35.3319 121.583 35.0866C121.583 34.858 121.515 34.6657 121.379 34.5099C121.246 34.3542 121.051 34.2216 120.792 34.1122C120.537 34.0028 120.224 33.9034 119.853 33.8139L118.744 33.5355C117.886 33.3267 117.208 33.0002 116.711 32.5561C116.213 32.112 115.967 31.5137 115.97 30.7614C115.967 30.1449 116.131 29.6063 116.462 29.1456C116.797 28.6849 117.256 28.3253 117.839 28.0668C118.422 27.8082 119.085 27.679 119.828 27.679C120.583 27.679 121.243 27.8082 121.806 28.0668C122.373 28.3253 122.814 28.6849 123.129 29.1456C123.444 29.6063 123.606 30.1399 123.616 30.7464H121.553ZM125.203 38V27.8182H132.064V29.593H127.356V32.0192H131.711V33.794H127.356V36.2251H132.084V38H125.203ZM137.385 38H133.776V27.8182H137.415C138.439 27.8182 139.321 28.022 140.06 28.4297C140.799 28.834 141.367 29.4157 141.765 30.1747C142.166 30.9337 142.366 31.8419 142.366 32.8991C142.366 33.9598 142.166 34.8712 141.765 35.6335C141.367 36.3958 140.795 36.9808 140.05 37.3885C139.307 37.7962 138.419 38 137.385 38ZM135.928 36.1555H137.295C137.932 36.1555 138.467 36.0429 138.901 35.8175C139.339 35.5888 139.667 35.2358 139.886 34.7585C140.108 34.2779 140.219 33.6581 140.219 32.8991C140.219 32.1468 140.108 31.532 139.886 31.0547C139.667 30.5774 139.34 30.2261 138.906 30.0007C138.472 29.7753 137.937 29.6626 137.3 29.6626H135.928V36.1555Z" fill="white"/>
<rect x="249" y="26.5" width="40" height="12" rx="4" fill="#D9D9D9"/>
<path d="M297.355 27.8636L294.543 38.3125H293.192L296.004 27.8636H297.355Z" fill="#D9D9D9"/>
<rect x="302" y="26.5" width="40" height="12" rx="4" fill="#D9D9D9"/>
<rect x="12.5" y="65.5" width="17" height="17" rx="3.5" stroke="#A9A9A9"/>
<path d="M37.1186 79.5V69.3182H38.6548V73.7429H43.7308V69.3182H45.272V79.5H43.7308V75.0604H38.6548V79.5H37.1186ZM47.3899 79.5V71.8636H48.8764V79.5H47.3899ZM48.1406 70.6854C47.8821 70.6854 47.66 70.5992 47.4744 70.4268C47.2921 70.2512 47.201 70.0424 47.201 69.8004C47.201 69.5552 47.2921 69.3464 47.4744 69.174C47.66 68.9983 47.8821 68.9105 48.1406 68.9105C48.3991 68.9105 48.6196 68.9983 48.8018 69.174C48.9875 69.3464 49.0803 69.5552 49.0803 69.8004C49.0803 70.0424 48.9875 70.2512 48.8018 70.4268C48.6196 70.5992 48.3991 70.6854 48.1406 70.6854ZM53.7349 79.6491C53.1184 79.6491 52.5682 79.4917 52.0843 79.1768C51.6038 78.8587 51.2259 78.4062 50.9508 77.8196C50.679 77.2296 50.5431 76.522 50.5431 75.6967C50.5431 74.8714 50.6807 74.1655 50.9558 73.5788C51.2342 72.9922 51.6154 72.5431 52.0993 72.2315C52.5832 71.92 53.1317 71.7642 53.7449 71.7642C54.2188 71.7642 54.6 71.8438 54.8883 72.0028C55.18 72.1586 55.4054 72.3409 55.5645 72.5497C55.7269 72.7585 55.8528 72.9425 55.9423 73.1016H56.0318V69.3182H57.5183V79.5H56.0666V78.3118H55.9423C55.8528 78.4742 55.7235 78.6598 55.5545 78.8686C55.3888 79.0774 55.1601 79.2597 54.8684 79.4155C54.5768 79.5713 54.1989 79.6491 53.7349 79.6491ZM54.063 78.3814C54.4906 78.3814 54.8519 78.2687 55.1468 78.0433C55.4451 77.8146 55.6705 77.4981 55.823 77.0938C55.9788 76.6894 56.0566 76.2187 56.0566 75.6818C56.0566 75.1515 55.9804 74.6875 55.8279 74.2898C55.6755 73.892 55.4518 73.5821 55.1568 73.3601C54.8618 73.138 54.4972 73.027 54.063 73.027C53.6156 73.027 53.2427 73.143 52.9444 73.375C52.6461 73.607 52.4208 73.9235 52.2683 74.3246C52.1191 74.7256 52.0446 75.178 52.0446 75.6818C52.0446 76.1922 52.1208 76.6513 52.2733 77.0589C52.4257 77.4666 52.6511 77.7898 52.9494 78.0284C53.251 78.2637 53.6222 78.3814 54.063 78.3814ZM62.9311 79.6541C62.1787 79.6541 61.5308 79.4934 60.9872 79.1719C60.447 78.8471 60.0294 78.3913 59.7344 77.8047C59.4427 77.2147 59.2969 76.5237 59.2969 75.7315C59.2969 74.9493 59.4427 74.2599 59.7344 73.6634C60.0294 73.0668 60.4403 72.6011 60.9673 72.2663C61.4976 71.9316 62.1174 71.7642 62.8267 71.7642C63.2576 71.7642 63.6752 71.8355 64.0795 71.978C64.4839 72.1205 64.8468 72.3442 65.1683 72.6491C65.4898 72.9541 65.7434 73.3501 65.929 73.8374C66.1146 74.3213 66.2074 74.9096 66.2074 75.6023V76.1293H60.1371V75.0156H64.7507C64.7507 74.6245 64.6712 74.2782 64.5121 73.9766C64.353 73.6716 64.1293 73.4313 63.8409 73.2557C63.5559 73.08 63.2211 72.9922 62.8366 72.9922C62.419 72.9922 62.0545 73.0949 61.7429 73.3004C61.4347 73.5026 61.196 73.7678 61.027 74.0959C60.8613 74.4207 60.7784 74.7737 60.7784 75.1548V76.0249C60.7784 76.5353 60.8679 76.9695 61.0469 77.3274C61.2292 77.6854 61.4827 77.9588 61.8075 78.1477C62.1323 78.3333 62.5118 78.4261 62.946 78.4261C63.2277 78.4261 63.4846 78.3864 63.7166 78.3068C63.9486 78.224 64.1491 78.1013 64.3182 77.9389C64.4872 77.7765 64.6165 77.576 64.706 77.3374L66.1129 77.5909C66.0002 78.0052 65.7981 78.3681 65.5064 78.6797C65.218 78.9879 64.8551 79.2282 64.4176 79.4006C63.9834 79.5696 63.4879 79.6541 62.9311 79.6541ZM71.6811 79.5V69.3182H75.3104C76.1025 69.3182 76.7588 69.4624 77.2791 69.7507C77.7995 70.0391 78.1889 70.4335 78.4474 70.9339C78.706 71.4311 78.8352 71.9912 78.8352 72.6143C78.8352 73.2408 78.7043 73.8042 78.4425 74.3047C78.1839 74.8018 77.7929 75.1963 77.2692 75.4879C76.7488 75.7763 76.0942 75.9205 75.3054 75.9205H72.8097V74.6179H75.1662C75.6667 74.6179 76.0727 74.5317 76.3842 74.3594C76.6958 74.1837 76.9245 73.9451 77.0703 73.6435C77.2161 73.3419 77.2891 72.9988 77.2891 72.6143C77.2891 72.2299 77.2161 71.8885 77.0703 71.5902C76.9245 71.2919 76.6941 71.0582 76.3793 70.8892C76.0677 70.7202 75.6567 70.6357 75.1463 70.6357H73.2173V79.5H71.6811ZM80.5169 79.5V71.8636H81.9537V73.0767H82.0332C82.1724 72.6657 82.4177 72.3426 82.769 72.1072C83.1236 71.8686 83.5247 71.7493 83.9721 71.7493C84.0649 71.7493 84.1743 71.7526 84.3002 71.7592C84.4295 71.7659 84.5306 71.7741 84.6035 71.7841V73.206C84.5439 73.1894 84.4378 73.1712 84.2853 73.1513C84.1329 73.1281 83.9804 73.1165 83.8279 73.1165C83.4766 73.1165 83.1634 73.1911 82.8883 73.3402C82.6165 73.486 82.4011 73.6899 82.242 73.9517C82.0829 74.2102 82.0034 74.5052 82.0034 74.8366V79.5H80.5169ZM88.8331 79.6541C88.1172 79.6541 87.4924 79.4901 86.9588 79.1619C86.4252 78.8338 86.0109 78.3748 85.7159 77.7848C85.4209 77.1948 85.2734 76.5054 85.2734 75.7166C85.2734 74.9245 85.4209 74.2318 85.7159 73.6385C86.0109 73.0452 86.4252 72.5845 86.9588 72.2564C87.4924 71.9283 88.1172 71.7642 88.8331 71.7642C89.549 71.7642 90.1738 71.9283 90.7074 72.2564C91.241 72.5845 91.6553 73.0452 91.9503 73.6385C92.2453 74.2318 92.3928 74.9245 92.3928 75.7166C92.3928 76.5054 92.2453 77.1948 91.9503 77.7848C91.6553 78.3748 91.241 78.8338 90.7074 79.1619C90.1738 79.4901 89.549 79.6541 88.8331 79.6541ZM88.8381 78.4062C89.3021 78.4062 89.6866 78.2836 89.9915 78.0384C90.2964 77.7931 90.5218 77.4666 90.6676 77.0589C90.8168 76.6513 90.8913 76.2022 90.8913 75.7116C90.8913 75.2244 90.8168 74.777 90.6676 74.3693C90.5218 73.9583 90.2964 73.6286 89.9915 73.38C89.6866 73.1314 89.3021 73.0071 88.8381 73.0071C88.3707 73.0071 87.983 73.1314 87.6747 73.38C87.3698 73.6286 87.1428 73.9583 86.9936 74.3693C86.8478 74.777 86.7749 75.2244 86.7749 75.7116C86.7749 76.2022 86.8478 76.6513 86.9936 77.0589C87.1428 77.4666 87.3698 77.7931 87.6747 78.0384C87.983 78.2836 88.3707 78.4062 88.8381 78.4062ZM97.2537 82.5227C96.6472 82.5227 96.1252 82.4432 95.6877 82.2841C95.2535 82.125 94.8989 81.9145 94.6238 81.6527C94.3487 81.3909 94.1432 81.1042 94.0073 80.7926L95.285 80.2656C95.3745 80.4115 95.4938 80.5656 95.6429 80.728C95.7954 80.8937 96.0009 81.0346 96.2594 81.1506C96.5212 81.2666 96.8577 81.3246 97.2686 81.3246C97.8321 81.3246 98.2978 81.187 98.6657 80.9119C99.0336 80.6402 99.2175 80.206 99.2175 79.6094V78.108H99.123C99.0336 78.2704 98.9043 78.451 98.7353 78.6499C98.5695 78.8487 98.3409 79.0211 98.0492 79.1669C97.7575 79.3127 97.378 79.3857 96.9107 79.3857C96.3075 79.3857 95.7639 79.2448 95.28 78.9631C94.7994 78.678 94.4183 78.2588 94.1365 77.7053C93.8581 77.1484 93.7189 76.464 93.7189 75.652C93.7189 74.84 93.8565 74.1439 94.1316 73.5639C94.41 72.9839 94.7911 72.5398 95.275 72.2315C95.7589 71.92 96.3075 71.7642 96.9206 71.7642C97.3946 71.7642 97.7774 71.8438 98.0691 72.0028C98.3607 72.1586 98.5878 72.3409 98.7502 72.5497C98.9159 72.7585 99.0435 72.9425 99.133 73.1016H99.2424V71.8636H100.699V79.669C100.699 80.3253 100.547 80.8639 100.242 81.2848C99.9367 81.7057 99.5241 82.0173 99.0037 82.2195C98.4867 82.4216 97.9034 82.5227 97.2537 82.5227ZM97.2388 78.1527C97.6664 78.1527 98.0276 78.0533 98.3226 77.8544C98.6209 77.6522 98.8463 77.3639 98.9988 76.9893C99.1545 76.6115 99.2324 76.1591 99.2324 75.6321C99.2324 75.1184 99.1562 74.666 99.0037 74.2749C98.8513 73.8838 98.6275 73.5788 98.3326 73.3601C98.0376 73.138 97.673 73.027 97.2388 73.027C96.7914 73.027 96.4185 73.143 96.1202 73.375C95.8219 73.6037 95.5965 73.9152 95.4441 74.3097C95.2949 74.7041 95.2203 75.1449 95.2203 75.6321C95.2203 76.1326 95.2966 76.5717 95.449 76.9496C95.6015 77.3274 95.8269 77.6224 96.1252 77.8345C96.4268 78.0466 96.798 78.1527 97.2388 78.1527ZM102.693 79.5V71.8636H104.129V73.0767H104.209C104.348 72.6657 104.593 72.3426 104.945 72.1072C105.299 71.8686 105.7 71.7493 106.148 71.7493C106.241 71.7493 106.35 71.7526 106.476 71.7592C106.605 71.7659 106.706 71.7741 106.779 71.7841V73.206C106.72 73.1894 106.614 73.1712 106.461 73.1513C106.309 73.1281 106.156 73.1165 106.004 73.1165C105.652 73.1165 105.339 73.1911 105.064 73.3402C104.792 73.486 104.577 73.6899 104.418 73.9517C104.259 74.2102 104.179 74.5052 104.179 74.8366V79.5H102.693ZM111.083 79.6541C110.331 79.6541 109.683 79.4934 109.14 79.1719C108.599 78.8471 108.182 78.3913 107.887 77.8047C107.595 77.2147 107.449 76.5237 107.449 75.7315C107.449 74.9493 107.595 74.2599 107.887 73.6634C108.182 73.0668 108.593 72.6011 109.12 72.2663C109.65 71.9316 110.27 71.7642 110.979 71.7642C111.41 71.7642 111.828 71.8355 112.232 71.978C112.636 72.1205 112.999 72.3442 113.321 72.6491C113.642 72.9541 113.896 73.3501 114.081 73.8374C114.267 74.3213 114.36 74.9096 114.36 75.6023V76.1293H108.289V75.0156H112.903C112.903 74.6245 112.824 74.2782 112.664 73.9766C112.505 73.6716 112.282 73.4313 111.993 73.2557C111.708 73.08 111.373 72.9922 110.989 72.9922C110.571 72.9922 110.207 73.0949 109.895 73.3004C109.587 73.5026 109.348 73.7678 109.179 74.0959C109.014 74.4207 108.931 74.7737 108.931 75.1548V76.0249C108.931 76.5353 109.02 76.9695 109.199 77.3274C109.382 77.6854 109.635 77.9588 109.96 78.1477C110.285 78.3333 110.664 78.4261 111.098 78.4261C111.38 78.4261 111.637 78.3864 111.869 78.3068C112.101 78.224 112.301 78.1013 112.471 77.9389C112.64 77.7765 112.769 77.576 112.858 77.3374L114.265 77.5909C114.153 78.0052 113.95 78.3681 113.659 78.6797C113.37 78.9879 113.007 79.2282 112.57 79.4006C112.136 79.5696 111.64 79.6541 111.083 79.6541ZM121.731 73.728L120.384 73.9666C120.328 73.7943 120.238 73.6302 120.116 73.4744C119.996 73.3187 119.834 73.1911 119.628 73.0916C119.423 72.9922 119.166 72.9425 118.858 72.9425C118.437 72.9425 118.086 73.0369 117.804 73.2259C117.522 73.4115 117.381 73.6518 117.381 73.9467C117.381 74.2019 117.476 74.4074 117.665 74.5632C117.854 74.719 118.158 74.8466 118.579 74.946L119.792 75.2244C120.495 75.3868 121.019 75.6371 121.363 75.9751C121.708 76.3132 121.881 76.7524 121.881 77.2926C121.881 77.75 121.748 78.1577 121.483 78.5156C121.221 78.8703 120.855 79.1487 120.384 79.3509C119.917 79.553 119.375 79.6541 118.758 79.6541C117.903 79.6541 117.206 79.4718 116.665 79.1072C116.125 78.7393 115.794 78.2173 115.671 77.5412L117.108 77.3224C117.197 77.697 117.381 77.9804 117.66 78.1726C117.938 78.3615 118.301 78.456 118.748 78.456C119.236 78.456 119.625 78.3549 119.917 78.1527C120.208 77.9472 120.354 77.697 120.354 77.402C120.354 77.1634 120.265 76.9628 120.086 76.8004C119.91 76.638 119.64 76.5154 119.275 76.4325L117.983 76.1491C117.27 75.9867 116.743 75.7282 116.402 75.3736C116.064 75.0189 115.895 74.5698 115.895 74.0263C115.895 73.5755 116.021 73.1811 116.273 72.843C116.524 72.505 116.872 72.2415 117.317 72.0526C117.761 71.8603 118.269 71.7642 118.843 71.7642C119.668 71.7642 120.318 71.9432 120.792 72.3011C121.266 72.6558 121.579 73.1314 121.731 73.728ZM129.237 73.728L127.89 73.9666C127.834 73.7943 127.744 73.6302 127.621 73.4744C127.502 73.3187 127.34 73.1911 127.134 73.0916C126.929 72.9922 126.672 72.9425 126.364 72.9425C125.943 72.9425 125.591 73.0369 125.31 73.2259C125.028 73.4115 124.887 73.6518 124.887 73.9467C124.887 74.2019 124.982 74.4074 125.17 74.5632C125.359 74.719 125.664 74.8466 126.085 74.946L127.298 75.2244C128.001 75.3868 128.525 75.6371 128.869 75.9751C129.214 76.3132 129.386 76.7524 129.386 77.2926C129.386 77.75 129.254 78.1577 128.989 78.5156C128.727 78.8703 128.361 79.1487 127.89 79.3509C127.423 79.553 126.881 79.6541 126.264 79.6541C125.409 79.6541 124.711 79.4718 124.171 79.1072C123.631 78.7393 123.299 78.2173 123.177 77.5412L124.614 77.3224C124.703 77.697 124.887 77.9804 125.165 78.1726C125.444 78.3615 125.807 78.456 126.254 78.456C126.741 78.456 127.131 78.3549 127.423 78.1527C127.714 77.9472 127.86 77.697 127.86 77.402C127.86 77.1634 127.771 76.9628 127.592 76.8004C127.416 76.638 127.146 76.5154 126.781 76.4325L125.489 76.1491C124.776 75.9867 124.249 75.7282 123.908 75.3736C123.57 75.0189 123.401 74.5698 123.401 74.0263C123.401 73.5755 123.527 73.1811 123.778 72.843C124.03 72.505 124.378 72.2415 124.822 72.0526C125.267 71.8603 125.775 71.7642 126.349 71.7642C127.174 71.7642 127.824 71.9432 128.298 72.3011C128.772 72.6558 129.085 73.1314 129.237 73.728ZM134.845 79.5V69.3182H138.574C139.296 69.3182 139.895 69.4375 140.369 69.6761C140.843 69.9115 141.197 70.2313 141.433 70.6357C141.668 71.0367 141.786 71.4891 141.786 71.9929C141.786 72.4171 141.708 72.7751 141.552 73.0668C141.396 73.3551 141.187 73.5871 140.925 73.7628C140.667 73.9351 140.382 74.0611 140.07 74.1406V74.2401C140.408 74.2566 140.738 74.366 141.06 74.5682C141.384 74.767 141.653 75.0504 141.865 75.4183C142.077 75.7862 142.183 76.2337 142.183 76.7607C142.183 77.281 142.061 77.7483 141.815 78.1626C141.573 78.5736 141.199 78.9001 140.692 79.142C140.185 79.3807 139.537 79.5 138.748 79.5H134.845ZM136.381 78.1825H138.599C139.335 78.1825 139.862 78.04 140.18 77.755C140.498 77.4699 140.657 77.1136 140.657 76.6861C140.657 76.3646 140.576 76.0696 140.413 75.8011C140.251 75.5327 140.019 75.3189 139.717 75.1598C139.419 75.0007 139.064 74.9212 138.653 74.9212H136.381V78.1825ZM136.381 73.723H138.44C138.784 73.723 139.094 73.6567 139.369 73.5241C139.648 73.3916 139.868 73.206 140.031 72.9673C140.196 72.7254 140.279 72.4403 140.279 72.1122C140.279 71.6913 140.132 71.3383 139.837 71.0533C139.542 70.7682 139.089 70.6257 138.479 70.6257H136.381V73.723ZM146.108 79.669C145.624 79.669 145.187 79.5795 144.796 79.4006C144.405 79.2183 144.095 78.9548 143.866 78.6101C143.641 78.2654 143.528 77.8428 143.528 77.3423C143.528 76.9115 143.611 76.5568 143.777 76.2784C143.942 76 144.166 75.7796 144.448 75.6172C144.73 75.4548 145.044 75.3321 145.392 75.2493C145.74 75.1664 146.095 75.1035 146.456 75.0604C146.914 75.0073 147.285 74.9643 147.57 74.9311C147.855 74.8946 148.062 74.8366 148.191 74.7571C148.321 74.6776 148.385 74.5483 148.385 74.3693V74.3345C148.385 73.9003 148.263 73.5639 148.017 73.3253C147.775 73.0866 147.414 72.9673 146.934 72.9673C146.433 72.9673 146.039 73.0784 145.75 73.3004C145.465 73.5192 145.268 73.7628 145.159 74.0312L143.762 73.7131C143.927 73.2491 144.169 72.8745 144.488 72.5895C144.809 72.3011 145.179 72.0923 145.596 71.9631C146.014 71.8305 146.453 71.7642 146.914 71.7642C147.219 71.7642 147.542 71.8007 147.883 71.8736C148.228 71.9432 148.549 72.0724 148.848 72.2614C149.149 72.4503 149.396 72.7204 149.588 73.0717C149.781 73.4197 149.877 73.8722 149.877 74.429V79.5H148.425V78.456H148.365C148.269 78.6482 148.125 78.8371 147.933 79.0227C147.741 79.2083 147.494 79.3625 147.192 79.4851C146.891 79.6077 146.529 79.669 146.108 79.669ZM146.431 78.4759C146.842 78.4759 147.194 78.3946 147.485 78.2322C147.78 78.0698 148.004 77.8577 148.157 77.5959C148.312 77.3307 148.39 77.0473 148.39 76.7457V75.7614C148.337 75.8144 148.234 75.8641 148.082 75.9105C147.933 75.9536 147.762 75.9917 147.57 76.0249C147.378 76.0547 147.19 76.0829 147.008 76.1094C146.826 76.1326 146.673 76.1525 146.551 76.169C146.262 76.2055 145.999 76.2668 145.76 76.353C145.525 76.4392 145.336 76.5634 145.194 76.7259C145.054 76.8849 144.985 77.0971 144.985 77.3622C144.985 77.7301 145.121 78.0085 145.392 78.1974C145.664 78.383 146.011 78.4759 146.431 78.4759ZM151.857 79.5V71.8636H153.294V73.0767H153.373C153.512 72.6657 153.758 72.3426 154.109 72.1072C154.463 71.8686 154.865 71.7493 155.312 71.7493C155.405 71.7493 155.514 71.7526 155.64 71.7592C155.769 71.7659 155.87 71.7741 155.943 71.7841V73.206C155.884 73.1894 155.778 73.1712 155.625 73.1513C155.473 73.1281 155.32 73.1165 155.168 73.1165C154.816 73.1165 154.503 73.1911 154.228 73.3402C153.956 73.486 153.741 73.6899 153.582 73.9517C153.423 74.2102 153.343 74.5052 153.343 74.8366V79.5H151.857Z" fill="#A9A9A9"/>
<path d="M219.214 78.5V72.464H217.078V71.324H217.426C218.578 71.324 219.202 70.736 219.286 69.848H220.714V78.5H219.214ZM227.729 78.5V75.116L224.489 69.752H226.301L228.485 73.568H228.569L230.777 69.752H232.577L229.313 75.116V78.5H227.729ZM236.8 78.608C234.184 78.608 232.444 76.928 232.444 74.12C232.444 71.312 234.184 69.644 236.8 69.644C239.428 69.644 241.156 71.324 241.156 74.12C241.156 76.94 239.416 78.608 236.8 78.608ZM236.8 77.24C238.468 77.24 239.524 76.136 239.524 74.12C239.524 72.104 238.456 71.012 236.8 71.012C235.144 71.012 234.088 72.104 234.088 74.12C234.088 76.148 235.144 77.24 236.8 77.24ZM244.264 78.5V75.116L241.024 69.752H242.836L245.02 73.568H245.104L247.312 69.752H249.112L245.848 75.116V78.5H244.264ZM253.335 78.608C250.719 78.608 248.979 76.928 248.979 74.12C248.979 71.312 250.719 69.644 253.335 69.644C255.963 69.644 257.691 71.324 257.691 74.12C257.691 76.94 255.951 78.608 253.335 78.608ZM253.335 77.24C255.003 77.24 256.059 76.136 256.059 74.12C256.059 72.104 254.991 71.012 253.335 71.012C251.679 71.012 250.623 72.104 250.623 74.12C250.623 76.148 251.679 77.24 253.335 77.24ZM263.097 78.608C260.493 78.608 258.753 76.928 258.753 74.12C258.753 71.324 260.493 69.644 263.097 69.644C265.293 69.644 266.877 70.868 267.129 72.728H265.509C265.293 71.72 264.381 71.012 263.097 71.012C261.441 71.012 260.397 72.104 260.397 74.12C260.397 76.16 261.441 77.24 263.097 77.24C264.357 77.24 265.317 76.556 265.509 75.512H267.129C266.901 77.384 265.281 78.608 263.097 78.608ZM272.53 78.608C269.914 78.608 268.174 76.928 268.174 74.12C268.174 71.312 269.914 69.644 272.53 69.644C275.158 69.644 276.886 71.324 276.886 74.12C276.886 76.94 275.146 78.608 272.53 78.608ZM272.53 77.24C274.198 77.24 275.254 76.136 275.254 74.12C275.254 72.104 274.186 71.012 272.53 71.012C270.874 71.012 269.818 72.104 269.818 74.12C269.818 76.148 270.874 77.24 272.53 77.24ZM278.348 78.5V69.752H279.932V78.5H278.348ZM281.934 78.5V69.752H283.854L287.958 76.34H288.03L287.97 73.484V69.752H289.494V78.5H287.67L283.578 72.02H283.494L283.542 74.636V78.5H281.934ZM298.129 73.736C297.145 73.736 296.545 73.052 295.945 73.052C295.525 73.052 295.357 73.424 295.393 73.76H294.625C294.529 72.368 295.213 71.876 295.909 71.876C296.773 71.876 297.325 72.56 298.045 72.56C298.501 72.56 298.729 72.26 298.729 71.816H299.497C299.581 73.136 298.981 73.736 298.129 73.736ZM298.129 76.412C297.157 76.412 296.545 75.704 295.945 75.704C295.537 75.704 295.357 76.076 295.393 76.436H294.625C294.517 74.96 295.273 74.528 295.909 74.528C296.773 74.528 297.325 75.212 298.045 75.212C298.501 75.212 298.729 74.912 298.729 74.48H299.497C299.593 75.848 298.921 76.412 298.129 76.412Z" fill="#969696"/>
<rect x="305" y="69" width="24" height="10" rx="5" fill="#969696"/>
<path d="M334.656 78.5V69.752H338.82C340.572 69.752 341.472 70.652 341.472 71.996C341.472 72.908 341.004 73.676 340.116 73.916V74C341.16 74.204 341.712 75.02 341.712 76.016C341.712 77.636 340.572 78.5 338.64 78.5H334.656ZM336.192 73.436H338.508C339.444 73.436 339.876 72.944 339.876 72.212C339.876 71.408 339.3 70.976 338.412 70.976H336.192V73.436ZM336.192 77.264H338.472C339.576 77.264 340.092 76.724 340.092 75.92C340.092 75.056 339.516 74.624 338.58 74.624H336.192V77.264ZM344.706 78.5V71.132H342.042V69.752H349.002V71.132H346.29V78.5H344.706ZM353.53 78.608C350.926 78.608 349.186 76.928 349.186 74.12C349.186 71.324 350.926 69.644 353.53 69.644C355.726 69.644 357.31 70.868 357.562 72.728H355.942C355.726 71.72 354.814 71.012 353.53 71.012C351.874 71.012 350.83 72.104 350.83 74.12C350.83 76.16 351.874 77.24 353.53 77.24C354.79 77.24 355.75 76.556 355.942 75.512H357.562C357.334 77.384 355.714 78.608 353.53 78.608Z" fill="#969696"/>
<rect x="12.5" y="95.5" width="345" height="27" rx="7.5" fill="white"/>
<rect x="12.5" y="95.5" width="345" height="27" rx="7.5" stroke="#E5E7EB"/>
<rect x="20" y="103" width="330" height="12" rx="4" fill="#D9D9D9"/>
<defs>
<linearGradient id="paint0_linear_12485_352" x1="354" y1="32.5" x2="16" y2="32.5" gradientUnits="userSpaceOnUse">
<stop offset="0.5" stop-color="#21BB5A" stop-opacity="0"/>
<stop offset="0.5" stop-color="#21BB5A"/>
</linearGradient>
</defs>
</svg>
