<?xml version="1.0" encoding="UTF-8"?>
<svg xmlns="http://www.w3.org/2000/svg" xmlns:xlink="http://www.w3.org/1999/xlink" width="69px" height="46px" viewBox="0 0 69 46" version="1.1">
<g id="surface1">
<path style=" stroke:none;fill-rule:nonzero;fill:rgb(3.921569%,79.607844%,76.078433%);fill-opacity:1;" d="M 13.367188 14.785156 C 13.484375 14.796875 13.484375 14.796875 13.601562 14.8125 C 14.390625 15.019531 15.058594 15.445312 15.75 15.867188 C 15.949219 15.992188 16.152344 16.113281 16.351562 16.234375 C 16.449219 16.292969 16.546875 16.351562 16.644531 16.414062 C 16.976562 16.613281 17.3125 16.808594 17.652344 17.003906 C 19.894531 18.308594 19.894531 18.308594 20.222656 19.222656 C 20.367188 19.792969 20.347656 20.375 20.347656 20.960938 C 20.347656 21.167969 20.347656 21.167969 20.347656 21.378906 C 20.351562 21.671875 20.351562 21.964844 20.351562 22.257812 C 20.351562 22.703125 20.355469 23.148438 20.359375 23.59375 C 20.359375 23.878906 20.359375 24.160156 20.359375 24.445312 C 20.363281 24.578125 20.363281 24.710938 20.367188 24.847656 C 20.359375 25.714844 20.191406 26.320312 19.730469 27.058594 C 19.65625 27.058594 19.582031 27.058594 19.503906 27.058594 C 19.449219 27.226562 19.449219 27.226562 19.390625 27.398438 C 19.203125 27.535156 19.203125 27.535156 18.960938 27.671875 C 18.871094 27.722656 18.78125 27.773438 18.6875 27.828125 C 18.59375 27.878906 18.496094 27.933594 18.398438 27.988281 C 18.199219 28.101562 18.003906 28.214844 17.804688 28.324219 C 17.660156 28.40625 17.660156 28.40625 17.515625 28.488281 C 17.195312 28.667969 16.875 28.851562 16.558594 29.039062 C 16.457031 29.097656 16.351562 29.15625 16.242188 29.21875 C 15.972656 29.382812 15.707031 29.550781 15.445312 29.726562 C 14.597656 30.273438 13.855469 30.746094 12.808594 30.664062 C 12.027344 30.449219 11.375 30.015625 10.703125 29.570312 C 10.410156 29.378906 10.113281 29.203125 9.808594 29.03125 C 9.703125 28.96875 9.597656 28.910156 9.492188 28.847656 C 9.210938 28.683594 8.929688 28.519531 8.648438 28.359375 C 8.476562 28.257812 8.304688 28.160156 8.132812 28.058594 C 8.011719 27.992188 8.011719 27.992188 7.886719 27.921875 C 7.148438 27.488281 6.40625 27.039062 6.136719 26.179688 C 6.078125 25.882812 6.070312 25.605469 6.070312 25.304688 C 6.070312 25.175781 6.066406 25.050781 6.066406 24.921875 C 6.066406 24.785156 6.066406 24.648438 6.066406 24.507812 C 6.066406 24.371094 6.0625 24.230469 6.0625 24.085938 C 6.0625 23.789062 6.0625 23.492188 6.0625 23.195312 C 6.0625 22.890625 6.058594 22.589844 6.054688 22.285156 C 6.054688 21.847656 6.050781 21.410156 6.050781 20.972656 C 6.050781 20.835938 6.046875 20.703125 6.046875 20.5625 C 6.050781 19.625 6.152344 18.9375 6.800781 18.207031 C 7.226562 17.828125 7.738281 17.570312 8.238281 17.292969 C 8.480469 17.152344 8.722656 17.015625 8.96875 16.878906 C 9.089844 16.808594 9.210938 16.738281 9.335938 16.667969 C 9.96875 16.304688 10.589844 15.921875 11.207031 15.539062 C 12.625 14.671875 12.625 14.671875 13.367188 14.785156 Z M 10.34375 20.214844 C 9.5625 21.171875 9.378906 22.25 9.46875 23.449219 C 9.660156 24.375 10.113281 25.082031 10.824219 25.707031 C 10.898438 25.707031 10.972656 25.707031 11.050781 25.707031 C 11.050781 25.78125 11.050781 25.855469 11.050781 25.929688 C 12.195312 26.546875 13.21875 26.792969 14.503906 26.472656 C 15.386719 26.167969 16.015625 25.652344 16.574219 24.917969 C 16.183594 24.582031 15.800781 24.34375 15.332031 24.128906 C 15.238281 24.214844 15.144531 24.300781 15.042969 24.386719 C 14.460938 24.867188 13.875 25.101562 13.117188 25.066406 C 12.414062 24.964844 11.882812 24.707031 11.4375 24.148438 C 11.015625 23.4375 11.046875 22.667969 11.160156 21.871094 C 11.351562 21.25 11.703125 20.945312 12.261719 20.632812 C 12.9375 20.339844 13.480469 20.253906 14.171875 20.527344 C 14.566406 20.714844 14.910156 20.886719 15.21875 21.195312 C 15.777344 21.179688 16.152344 20.847656 16.574219 20.519531 C 15.957031 19.730469 15.238281 19.050781 14.222656 18.855469 C 12.636719 18.675781 11.4375 19.039062 10.34375 20.214844 Z M 10.34375 20.214844 "/>
<path style=" stroke:none;fill-rule:nonzero;fill:rgb(11.764706%,28.235295%,32.156864%);fill-opacity:1;" d="M 26.269531 20.132812 C 26.675781 20.527344 26.820312 20.992188 26.945312 21.535156 C 26.761719 21.71875 26.546875 21.683594 26.289062 21.695312 C 25.980469 21.695312 25.980469 21.695312 25.707031 21.648438 C 25.464844 21.316406 25.464844 21.316406 25.253906 20.96875 C 24.828125 20.824219 24.445312 20.828125 24.015625 20.96875 C 23.5625 21.421875 23.523438 21.804688 23.5 22.4375 C 23.515625 23.085938 23.515625 23.085938 23.796875 23.65625 C 24.195312 23.953125 24.421875 24.023438 24.917969 24.015625 C 25.390625 23.816406 25.46875 23.699219 25.707031 23.226562 C 26.113281 23.226562 26.523438 23.226562 26.945312 23.226562 C 26.976562 23.050781 27.007812 22.875 27.039062 22.695312 C 27.171875 22.042969 27.308594 21.691406 27.847656 21.273438 C 28.378906 20.996094 28.953125 21.007812 29.539062 21.082031 C 30.414062 21.390625 30.414062 21.390625 30.65625 21.832031 C 30.945312 22.515625 31.027344 23.152344 30.792969 23.863281 C 30.554688 24.398438 30.316406 24.832031 29.765625 25.078125 C 29.214844 25.230469 28.691406 25.253906 28.15625 25.039062 C 27.574219 24.703125 27.179688 24.285156 26.972656 23.632812 C 26.964844 23.574219 26.957031 23.511719 26.945312 23.449219 C 26.902344 23.570312 26.859375 23.6875 26.8125 23.808594 C 26.566406 24.375 26.226562 24.699219 25.691406 25.007812 C 24.960938 25.285156 24.175781 25.242188 23.457031 24.953125 C 22.832031 24.628906 22.574219 24.25 22.351562 23.59375 C 22.089844 22.613281 22.152344 21.6875 22.550781 20.746094 C 22.898438 20.199219 23.320312 19.925781 23.929688 19.722656 C 24.761719 19.539062 25.574219 19.609375 26.269531 20.132812 Z M 28.445312 22.203125 C 28.136719 22.613281 28.128906 22.820312 28.144531 23.316406 C 28.207031 23.6875 28.3125 23.941406 28.617188 24.167969 C 28.867188 24.261719 28.867188 24.261719 29.152344 24.183594 C 29.539062 23.945312 29.632812 23.773438 29.765625 23.339844 C 29.746094 22.945312 29.695312 22.574219 29.539062 22.210938 C 29.125 21.929688 28.863281 21.902344 28.445312 22.203125 Z M 28.445312 22.203125 "/>
<path style=" stroke:none;fill-rule:nonzero;fill:rgb(22.352941%,80.392158%,77.254903%);fill-opacity:1;" d="M 52.765625 20.179688 C 53.175781 20.179688 53.582031 20.179688 54.003906 20.179688 C 54.003906 20.480469 54.003906 20.777344 54.003906 21.082031 C 54.414062 21.082031 54.824219 21.082031 55.246094 21.082031 C 55.246094 20.785156 55.246094 20.488281 55.246094 20.179688 C 55.65625 20.179688 56.0625 20.179688 56.484375 20.179688 C 56.484375 20.480469 56.484375 20.777344 56.484375 21.082031 C 56.59375 21.082031 56.703125 21.078125 56.816406 21.078125 C 57.160156 21.082031 57.160156 21.082031 57.273438 21.195312 C 57.277344 21.460938 57.277344 21.722656 57.273438 21.984375 C 57.015625 21.984375 56.753906 21.984375 56.484375 21.984375 C 56.484375 22.65625 56.484375 23.324219 56.484375 24.015625 C 56.707031 24.015625 56.933594 24.015625 57.160156 24.015625 C 57.273438 24.128906 57.273438 24.128906 57.285156 24.335938 C 57.28125 24.566406 57.277344 24.796875 57.273438 25.03125 C 56.914062 25.210938 56.539062 25.183594 56.148438 25.140625 C 55.710938 24.953125 55.535156 24.789062 55.359375 24.351562 C 55.320312 24.09375 55.320312 24.09375 55.3125 23.816406 C 55.308594 23.714844 55.300781 23.613281 55.296875 23.511719 C 55.292969 23.40625 55.289062 23.304688 55.289062 23.199219 C 55.28125 23.089844 55.277344 22.984375 55.273438 22.878906 C 55.261719 22.617188 55.253906 22.359375 55.246094 22.097656 C 54.835938 22.0625 54.425781 22.023438 54.003906 21.984375 C 54.042969 22.65625 54.078125 23.324219 54.117188 24.015625 C 54.304688 24.015625 54.488281 24.015625 54.679688 24.015625 C 54.71875 24.347656 54.753906 24.683594 54.792969 25.03125 C 54.429688 25.210938 54.0625 25.195312 53.667969 25.140625 C 53.214844 24.933594 53.035156 24.8125 52.859375 24.34375 C 52.753906 23.847656 52.738281 23.398438 52.75 22.894531 C 52.75 22.804688 52.753906 22.71875 52.753906 22.628906 C 52.757812 22.414062 52.761719 22.199219 52.765625 21.984375 C 52.578125 21.984375 52.394531 21.984375 52.199219 21.984375 C 52.199219 21.6875 52.199219 21.390625 52.199219 21.082031 C 52.386719 21.082031 52.574219 21.082031 52.765625 21.082031 C 52.765625 20.785156 52.765625 20.488281 52.765625 20.179688 Z M 52.765625 20.179688 "/>
<path style=" stroke:none;fill-rule:nonzero;fill:rgb(22.745098%,80.000001%,76.862746%);fill-opacity:1;" d="M 47.804688 21.195312 C 48.003906 21.375 48.003906 21.375 48.140625 21.535156 C 48.179688 21.421875 48.214844 21.3125 48.253906 21.195312 C 48.648438 21.015625 49.078125 20.929688 49.5 21.019531 C 49.855469 21.164062 50.164062 21.335938 50.398438 21.648438 C 50.519531 22.019531 50.523438 22.292969 50.519531 22.683594 C 50.519531 22.820312 50.519531 22.957031 50.519531 23.097656 C 50.519531 23.3125 50.519531 23.3125 50.515625 23.527344 C 50.515625 23.671875 50.515625 23.816406 50.515625 23.964844 C 50.515625 24.320312 50.511719 24.675781 50.511719 25.03125 C 50.136719 25.03125 49.765625 25.03125 49.382812 25.03125 C 49.375 24.753906 49.375 24.753906 49.371094 24.472656 C 49.363281 24.234375 49.355469 23.992188 49.347656 23.753906 C 49.34375 23.574219 49.34375 23.574219 49.339844 23.386719 C 49.335938 23.273438 49.332031 23.15625 49.328125 23.035156 C 49.324219 22.929688 49.320312 22.824219 49.316406 22.710938 C 49.261719 22.398438 49.179688 22.292969 48.929688 22.097656 C 48.746094 22.171875 48.558594 22.246094 48.367188 22.324219 C 48.332031 23.214844 48.292969 24.109375 48.253906 25.03125 C 47.882812 25.03125 47.511719 25.03125 47.128906 25.03125 C 47.125 24.847656 47.117188 24.664062 47.113281 24.472656 C 47.105469 24.234375 47.101562 23.992188 47.09375 23.753906 C 47.089844 23.632812 47.085938 23.511719 47.085938 23.386719 C 47.078125 23.214844 47.078125 23.214844 47.074219 23.035156 C 47.070312 22.929688 47.066406 22.824219 47.0625 22.710938 C 47.03125 22.433594 47.03125 22.433594 46.882812 22.222656 C 46.617188 22.03125 46.617188 22.03125 46 22.210938 C 46 23.140625 46 24.070312 46 25.03125 C 45.628906 25.03125 45.257812 25.03125 44.871094 25.03125 C 44.871094 23.726562 44.871094 22.425781 44.871094 21.082031 C 45.886719 21.082031 45.886719 21.082031 46.113281 21.195312 C 46.207031 21.15625 46.304688 21.117188 46.402344 21.078125 C 46.910156 20.9375 47.316406 21.003906 47.804688 21.195312 Z M 47.804688 21.195312 "/>
<path style=" stroke:none;fill-rule:nonzero;fill:rgb(4.705882%,74.509805%,70.588237%);fill-opacity:1;" d="M 38.058594 19.710938 C 38.191406 19.707031 38.191406 19.707031 38.328125 19.703125 C 38.996094 19.703125 39.683594 19.726562 40.257812 20.109375 C 40.71875 20.65625 40.863281 21.15625 40.8125 21.871094 C 40.6875 22.402344 40.414062 22.742188 40.023438 23.113281 C 40.070312 23.1875 40.113281 23.261719 40.160156 23.339844 C 40.339844 23.640625 40.519531 23.941406 40.699219 24.238281 C 40.765625 24.339844 40.828125 24.441406 40.890625 24.546875 C 41.039062 24.804688 41.039062 24.804688 41.039062 25.03125 C 40.59375 25.03125 40.144531 25.03125 39.6875 25.03125 C 39.535156 24.769531 39.386719 24.511719 39.234375 24.253906 C 39.191406 24.179688 39.148438 24.109375 39.105469 24.03125 C 38.785156 23.476562 38.785156 23.476562 38.785156 23.226562 C 38.5625 23.226562 38.335938 23.226562 38.109375 23.226562 C 38.109375 23.820312 38.109375 24.417969 38.109375 25.03125 C 37.734375 25.03125 37.363281 25.03125 36.980469 25.03125 C 36.976562 24.292969 36.976562 23.554688 36.972656 22.820312 C 36.972656 22.570312 36.972656 22.316406 36.972656 22.066406 C 36.96875 21.707031 36.96875 21.347656 36.96875 20.988281 C 36.96875 20.875 36.96875 20.761719 36.96875 20.648438 C 36.96875 20.542969 36.96875 20.4375 36.96875 20.332031 C 36.96875 20.238281 36.96875 20.148438 36.96875 20.054688 C 37 19.515625 37.652344 19.710938 38.058594 19.710938 Z M 38.109375 20.859375 C 38.109375 21.304688 38.109375 21.75 38.109375 22.210938 C 38.851562 22.289062 38.851562 22.289062 39.46875 21.929688 C 39.539062 21.835938 39.613281 21.742188 39.6875 21.648438 C 39.527344 21.246094 39.527344 21.246094 39.347656 20.859375 C 38.9375 20.859375 38.53125 20.859375 38.109375 20.859375 Z M 38.109375 20.859375 "/>
<path style=" stroke:none;fill-rule:nonzero;fill:rgb(23.137255%,80.392158%,77.254903%);fill-opacity:1;" d="M 44.019531 21.375 C 44.367188 21.6875 44.539062 22.097656 44.648438 22.550781 C 44.648438 22.847656 44.648438 23.144531 44.648438 23.449219 C 43.792969 23.449219 42.9375 23.449219 42.054688 23.449219 C 42.511719 24.160156 42.511719 24.160156 42.992188 24.167969 C 43.089844 24.15625 43.191406 24.140625 43.292969 24.128906 C 43.367188 23.980469 43.441406 23.828125 43.519531 23.675781 C 43.855469 23.675781 44.1875 23.675781 44.535156 23.675781 C 44.648438 24.015625 44.648438 24.015625 44.558594 24.207031 C 44.226562 24.667969 43.964844 24.964844 43.40625 25.140625 C 42.632812 25.246094 42.117188 25.15625 41.488281 24.691406 C 40.9375 24.109375 40.890625 23.609375 40.902344 22.835938 C 40.949219 22.265625 41.167969 21.878906 41.519531 21.441406 C 42.289062 20.828125 43.1875 20.859375 44.019531 21.375 Z M 42.230469 22.195312 C 42.042969 22.402344 42.042969 22.402344 42.054688 22.550781 C 42.5 22.550781 42.945312 22.550781 43.40625 22.550781 C 43.371094 22.398438 43.332031 22.25 43.292969 22.097656 C 42.726562 21.949219 42.726562 21.949219 42.230469 22.195312 Z M 42.230469 22.195312 "/>
<path style=" stroke:none;fill-rule:nonzero;fill:rgb(5.098039%,79.215688%,74.901962%);fill-opacity:1;" d="M 60.410156 21.355469 C 60.851562 21.824219 61.015625 22.257812 61.109375 22.886719 C 61.050781 23.167969 61.050781 23.167969 60.996094 23.449219 C 60.175781 23.488281 59.359375 23.527344 58.515625 23.5625 C 58.664062 23.75 58.8125 23.9375 58.964844 24.128906 C 59.433594 24.097656 59.433594 24.097656 59.796875 23.839844 C 60.109375 23.5625 60.476562 23.65625 60.882812 23.675781 C 60.96875 23.859375 60.96875 23.859375 60.996094 24.128906 C 60.757812 24.613281 60.507812 24.902344 59.984375 25.089844 C 59.320312 25.242188 58.730469 25.246094 58.128906 24.902344 C 57.667969 24.574219 57.496094 24.207031 57.308594 23.683594 C 57.203125 22.972656 57.285156 22.394531 57.613281 21.761719 C 57.980469 21.265625 58.328125 21.089844 58.921875 20.988281 C 59.476562 20.949219 59.960938 21.007812 60.410156 21.355469 Z M 58.632812 22.132812 C 58.496094 22.316406 58.496094 22.316406 58.515625 22.550781 C 58.960938 22.550781 59.40625 22.550781 59.867188 22.550781 C 59.792969 22.398438 59.71875 22.25 59.640625 22.097656 C 59.117188 21.941406 59.117188 21.941406 58.632812 22.132812 Z M 58.632812 22.132812 "/>
<path style=" stroke:none;fill-rule:nonzero;fill:rgb(10.196079%,25.882354%,29.411766%);fill-opacity:1;" d="M 32.808594 21.082031 C 33.144531 21.082031 33.480469 21.082031 33.824219 21.082031 C 33.859375 21.15625 33.898438 21.230469 33.9375 21.308594 C 34 21.273438 34.0625 21.234375 34.128906 21.199219 C 34.574219 21 35.035156 21.03125 35.515625 21.082031 C 35.851562 21.222656 36.011719 21.3125 36.203125 21.621094 C 36.324219 21.921875 36.339844 22.167969 36.355469 22.492188 C 36.359375 22.609375 36.363281 22.730469 36.371094 22.851562 C 36.375 23.035156 36.375 23.035156 36.382812 23.226562 C 36.386719 23.347656 36.390625 23.472656 36.398438 23.597656 C 36.417969 24.113281 36.429688 24.527344 36.304688 25.03125 C 35.933594 25.03125 35.558594 25.03125 35.175781 25.03125 C 35.121094 23.691406 35.121094 23.691406 35.0625 22.324219 C 34.539062 22.042969 34.539062 22.042969 34.160156 22.210938 C 34.019531 22.496094 34.027344 22.707031 34.011719 23.027344 C 34.007812 23.140625 34.003906 23.257812 34 23.378906 C 33.992188 23.5625 33.992188 23.5625 33.984375 23.746094 C 33.980469 23.871094 33.976562 23.992188 33.972656 24.117188 C 33.957031 24.421875 33.949219 24.726562 33.9375 25.03125 C 33.5625 25.03125 33.191406 25.03125 32.808594 25.03125 C 32.808594 23.726562 32.808594 22.425781 32.808594 21.082031 Z M 32.808594 21.082031 "/>
<path style=" stroke:none;fill-rule:nonzero;fill:rgb(14.117648%,79.215688%,75.686276%);fill-opacity:1;" d="M 38.902344 19.71875 C 39.554688 19.757812 39.964844 19.863281 40.4375 20.332031 C 40.796875 20.78125 40.832031 21.195312 40.8125 21.753906 C 40.742188 22.363281 40.46875 22.703125 40.023438 23.113281 C 40.070312 23.1875 40.113281 23.261719 40.160156 23.339844 C 40.339844 23.640625 40.519531 23.941406 40.699219 24.238281 C 40.765625 24.339844 40.828125 24.441406 40.890625 24.546875 C 41.039062 24.804688 41.039062 24.804688 41.039062 25.03125 C 40.59375 25.03125 40.144531 25.03125 39.6875 25.03125 C 39.386719 24.507812 39.089844 23.988281 38.785156 23.449219 C 38.953125 23.394531 38.953125 23.394531 39.121094 23.339844 C 39.160156 23.523438 39.195312 23.710938 39.234375 23.902344 C 39.347656 23.902344 39.457031 23.902344 39.574219 23.902344 C 39.574219 24.089844 39.574219 24.273438 39.574219 24.464844 C 39.648438 24.464844 39.722656 24.464844 39.800781 24.464844 C 39.800781 24.539062 39.800781 24.613281 39.800781 24.691406 C 40.164062 24.496094 40.164062 24.496094 40.25 24.128906 C 40.175781 24.089844 40.101562 24.054688 40.023438 24.015625 C 40.023438 23.828125 40.023438 23.644531 40.023438 23.449219 C 39.949219 23.449219 39.875 23.449219 39.800781 23.449219 C 39.8125 23.347656 39.828125 23.246094 39.839844 23.140625 C 39.835938 22.753906 39.835938 22.753906 39.53125 22.507812 C 38.984375 22.261719 38.59375 22.292969 37.996094 22.324219 C 37.996094 21.800781 37.996094 21.28125 37.996094 20.746094 C 38.179688 20.707031 38.367188 20.671875 38.558594 20.632812 C 38.632812 20.59375 38.707031 20.558594 38.785156 20.519531 C 38.859375 20.234375 38.859375 20.234375 38.898438 19.957031 C 38.785156 19.917969 38.671875 19.882812 38.558594 19.84375 C 38.671875 19.730469 38.671875 19.730469 38.902344 19.71875 Z M 38.109375 20.859375 C 38.109375 21.304688 38.109375 21.75 38.109375 22.210938 C 38.851562 22.289062 38.851562 22.289062 39.46875 21.929688 C 39.539062 21.835938 39.613281 21.742188 39.6875 21.648438 C 39.527344 21.246094 39.527344 21.246094 39.347656 20.859375 C 38.9375 20.859375 38.53125 20.859375 38.109375 20.859375 Z M 38.109375 20.859375 "/>
<path style=" stroke:none;fill-rule:nonzero;fill:rgb(5.882353%,78.823531%,74.509805%);fill-opacity:1;" d="M 63.699219 21.082031 C 63.699219 21.417969 63.699219 21.753906 63.699219 22.097656 C 63.628906 22.113281 63.558594 22.128906 63.484375 22.144531 C 63.34375 22.171875 63.34375 22.171875 63.199219 22.203125 C 63.109375 22.222656 63.015625 22.242188 62.917969 22.261719 C 62.6875 22.300781 62.6875 22.300781 62.574219 22.4375 C 62.554688 22.628906 62.546875 22.820312 62.539062 23.015625 C 62.53125 23.132812 62.527344 23.246094 62.523438 23.367188 C 62.519531 23.492188 62.515625 23.613281 62.511719 23.738281 C 62.503906 23.863281 62.5 23.984375 62.496094 24.113281 C 62.484375 24.417969 62.472656 24.722656 62.460938 25.03125 C 62.089844 25.03125 61.714844 25.03125 61.332031 25.03125 C 61.332031 23.726562 61.332031 22.425781 61.332031 21.082031 C 62.347656 21.082031 62.347656 21.082031 62.574219 21.195312 C 62.703125 21.160156 62.828125 21.121094 62.960938 21.082031 C 63.363281 20.96875 63.363281 20.96875 63.699219 21.082031 Z M 63.699219 21.082031 "/>
<path style=" stroke:none;fill-rule:nonzero;fill:rgb(18.431373%,32.156864%,35.686275%);fill-opacity:1;" d="M 28.976562 21.871094 C 29.292969 21.894531 29.292969 21.894531 29.652344 21.984375 C 29.933594 22.335938 30.058594 22.667969 30.101562 23.113281 C 30.054688 23.429688 30.054688 23.429688 29.988281 23.675781 C 30.101562 23.640625 30.214844 23.601562 30.328125 23.5625 C 30.464844 23.28125 30.464844 23.28125 30.554688 23 C 30.441406 23 30.332031 23 30.214844 23 C 30.289062 22.851562 30.363281 22.703125 30.441406 22.550781 C 30.589844 22.550781 30.738281 22.550781 30.890625 22.550781 C 30.960938 23.394531 30.824219 23.992188 30.328125 24.691406 C 29.9375 25.078125 29.519531 25.171875 28.984375 25.207031 C 28.378906 25.179688 27.964844 24.964844 27.511719 24.578125 C 27.285156 24.316406 27.285156 24.316406 27.171875 24.128906 C 27.207031 24.054688 27.246094 23.980469 27.285156 23.902344 C 27.359375 23.9375 27.433594 23.976562 27.511719 24.015625 C 27.546875 23.902344 27.585938 23.792969 27.621094 23.675781 C 27.695312 23.714844 27.769531 23.75 27.847656 23.789062 C 27.949219 23.417969 28.011719 23.042969 28.074219 22.660156 C 28.109375 22.660156 28.148438 22.660156 28.1875 22.660156 C 28.203125 22.792969 28.203125 22.792969 28.21875 22.925781 C 28.238281 23.039062 28.253906 23.152344 28.269531 23.269531 C 28.285156 23.378906 28.300781 23.492188 28.320312 23.609375 C 28.382812 23.914062 28.382812 23.914062 28.628906 24.058594 C 28.871094 24.148438 28.871094 24.148438 29.160156 24.0625 C 29.4375 23.921875 29.4375 23.921875 29.582031 23.675781 C 29.683594 23.175781 29.609375 22.710938 29.539062 22.210938 C 29.351562 22.136719 29.167969 22.0625 28.976562 21.984375 C 28.976562 21.949219 28.976562 21.910156 28.976562 21.871094 Z M 28.976562 21.871094 "/>
<path style=" stroke:none;fill-rule:nonzero;fill:rgb(10.980392%,27.058825%,30.588236%);fill-opacity:1;" d="M 36.078125 21.421875 C 36.308594 21.773438 36.339844 22.078125 36.355469 22.492188 C 36.359375 22.609375 36.363281 22.730469 36.371094 22.851562 C 36.375 23.035156 36.375 23.035156 36.382812 23.226562 C 36.386719 23.347656 36.390625 23.472656 36.398438 23.597656 C 36.417969 24.113281 36.429688 24.527344 36.304688 25.03125 C 35.933594 25.03125 35.558594 25.03125 35.175781 25.03125 C 35.175781 24.949219 35.171875 24.871094 35.167969 24.789062 C 35.160156 24.425781 35.148438 24.066406 35.132812 23.703125 C 35.128906 23.578125 35.128906 23.453125 35.125 23.324219 C 35.121094 23.203125 35.113281 23.082031 35.109375 22.960938 C 35.105469 22.847656 35.101562 22.738281 35.101562 22.625 C 35.0625 22.324219 34.992188 22.132812 34.839844 21.871094 C 34.652344 21.871094 34.464844 21.871094 34.273438 21.871094 C 34.3125 21.761719 34.347656 21.648438 34.386719 21.535156 C 34.5625 21.492188 34.738281 21.453125 34.914062 21.414062 C 35.015625 21.390625 35.113281 21.371094 35.214844 21.347656 C 35.542969 21.304688 35.765625 21.3125 36.078125 21.421875 Z M 36.078125 21.421875 "/>
<path style=" stroke:none;fill-rule:nonzero;fill:rgb(12.941177%,78.823531%,75.686276%);fill-opacity:1;" d="M 51.074219 20.96875 C 51.410156 21.007812 51.742188 21.046875 52.089844 21.082031 C 52.089844 22.386719 52.089844 23.6875 52.089844 25.03125 C 51.714844 25.03125 51.34375 25.03125 50.960938 25.03125 C 50.957031 24.46875 50.957031 23.910156 50.953125 23.351562 C 50.953125 23.160156 50.953125 22.96875 50.953125 22.777344 C 50.949219 22.503906 50.949219 22.230469 50.949219 21.957031 C 50.949219 21.871094 50.949219 21.785156 50.949219 21.699219 C 50.949219 21.492188 50.953125 21.289062 50.960938 21.082031 C 50.996094 21.046875 51.035156 21.007812 51.074219 20.96875 Z M 51.074219 20.96875 "/>
<path style=" stroke:none;fill-rule:nonzero;fill:rgb(13.725491%,29.019609%,32.549021%);fill-opacity:1;" d="M 31.117188 21.082031 C 31.488281 21.082031 31.863281 21.082031 32.246094 21.082031 C 32.246094 22.386719 32.246094 23.6875 32.246094 25.03125 C 31.871094 25.03125 31.5 25.03125 31.117188 25.03125 C 31.117188 23.726562 31.117188 22.425781 31.117188 21.082031 Z M 31.117188 21.082031 "/>
<path style=" stroke:none;fill-rule:nonzero;fill:rgb(3.529412%,78.431374%,74.509805%);fill-opacity:1;" d="M 55.359375 20.292969 C 55.691406 20.292969 56.027344 20.292969 56.371094 20.292969 C 56.371094 20.589844 56.371094 20.890625 56.371094 21.195312 C 56.597656 21.195312 56.820312 21.195312 57.050781 21.195312 C 57.085938 21.457031 57.125 21.71875 57.160156 21.984375 C 56.902344 21.984375 56.640625 21.984375 56.371094 21.984375 C 56.371094 22.65625 56.371094 23.324219 56.371094 24.015625 C 56.296875 23.867188 56.222656 23.71875 56.148438 23.5625 C 56.074219 23.5625 56 23.5625 55.921875 23.5625 C 55.921875 23.675781 55.921875 23.785156 55.921875 23.902344 C 55.808594 23.902344 55.699219 23.902344 55.582031 23.902344 C 55.371094 23.265625 55.410156 22.519531 55.582031 21.871094 C 55.398438 21.835938 55.210938 21.796875 55.019531 21.761719 C 55.019531 21.609375 55.019531 21.460938 55.019531 21.308594 C 55.09375 21.273438 55.167969 21.234375 55.246094 21.195312 C 55.296875 20.980469 55.296875 20.980469 55.316406 20.738281 C 55.328125 20.589844 55.34375 20.445312 55.359375 20.292969 Z M 55.359375 20.292969 "/>
<path style=" stroke:none;fill-rule:nonzero;fill:rgb(4.705882%,78.039217%,73.333335%);fill-opacity:1;" d="M 43.519531 21.535156 C 43.707031 21.566406 43.898438 21.605469 44.082031 21.648438 C 44.082031 21.796875 44.082031 21.945312 44.082031 22.097656 C 44.230469 22.136719 44.382812 22.171875 44.535156 22.210938 C 44.496094 22.546875 44.460938 22.878906 44.421875 23.226562 C 43.601562 23.226562 42.785156 23.226562 41.941406 23.226562 C 41.941406 23.449219 41.941406 23.671875 41.941406 23.902344 C 41.773438 24.113281 41.773438 24.113281 41.601562 24.238281 C 41.378906 24.113281 41.378906 24.113281 41.152344 23.902344 C 41.109375 23.574219 41.109375 23.574219 41.125 23.203125 C 41.128906 23.082031 41.132812 22.960938 41.136719 22.832031 C 41.140625 22.738281 41.148438 22.644531 41.152344 22.550781 C 41.898438 22.652344 41.898438 22.652344 42.207031 22.726562 C 42.644531 22.796875 43.078125 22.78125 43.519531 22.773438 C 43.519531 22.589844 43.519531 22.402344 43.519531 22.210938 C 43.371094 22.171875 43.222656 22.136719 43.070312 22.097656 C 43.070312 22.023438 43.070312 21.949219 43.070312 21.871094 C 42.917969 21.835938 42.769531 21.796875 42.617188 21.761719 C 42.808594 21.734375 42.808594 21.734375 43.003906 21.710938 C 43.386719 21.691406 43.386719 21.691406 43.519531 21.535156 Z M 43.519531 21.535156 "/>
<path style=" stroke:none;fill-rule:nonzero;fill:rgb(22.352941%,80.392158%,76.862746%);fill-opacity:1;" d="M 60.410156 21.355469 C 60.851562 21.824219 61.015625 22.257812 61.109375 22.886719 C 61.070312 23.074219 61.035156 23.257812 60.996094 23.449219 C 59.765625 23.507812 59.765625 23.507812 58.515625 23.5625 C 58.550781 23.675781 58.589844 23.785156 58.628906 23.902344 C 58.515625 23.863281 58.402344 23.828125 58.289062 23.789062 C 58.285156 23.601562 58.285156 23.414062 58.289062 23.226562 C 58.402344 23.113281 58.402344 23.113281 58.632812 23.101562 C 58.730469 23.101562 58.828125 23.101562 58.929688 23.101562 C 59.039062 23.101562 59.144531 23.101562 59.253906 23.101562 C 59.421875 23.105469 59.421875 23.105469 59.59375 23.105469 C 59.707031 23.105469 59.816406 23.105469 59.933594 23.105469 C 60.210938 23.109375 60.492188 23.109375 60.769531 23.113281 C 60.714844 22.832031 60.714844 22.832031 60.65625 22.550781 C 60.546875 22.605469 60.546875 22.605469 60.433594 22.660156 C 60.003906 22.804688 59.601562 22.800781 59.15625 22.789062 C 59.074219 22.789062 58.988281 22.785156 58.902344 22.785156 C 58.699219 22.78125 58.492188 22.777344 58.289062 22.773438 C 58.289062 22.550781 58.289062 22.328125 58.289062 22.097656 C 58.476562 22.023438 58.660156 21.949219 58.851562 21.871094 C 58.738281 22.097656 58.628906 22.324219 58.515625 22.550781 C 59.128906 22.492188 59.128906 22.492188 59.753906 22.4375 C 59.753906 22.332031 59.75 22.230469 59.746094 22.125 C 59.753906 21.820312 59.789062 21.597656 59.867188 21.308594 C 59.671875 21.304688 59.476562 21.304688 59.28125 21.300781 C 59.175781 21.300781 59.066406 21.300781 58.953125 21.296875 C 58.644531 21.308594 58.367188 21.351562 58.0625 21.421875 C 58.175781 21.195312 58.175781 21.195312 58.375 21.117188 C 59.097656 20.941406 59.792969 20.875 60.410156 21.355469 Z M 60.410156 21.355469 "/>
<path style=" stroke:none;fill-rule:nonzero;fill:rgb(2.745098%,78.823531%,74.509805%);fill-opacity:1;" d="M 46.449219 21.308594 C 46.859375 21.308594 47.269531 21.308594 47.691406 21.308594 C 47.726562 21.421875 47.765625 21.53125 47.804688 21.648438 C 47.878906 21.648438 47.953125 21.648438 48.03125 21.648438 C 48.183594 21.953125 48.15625 22.195312 48.152344 22.535156 C 48.152344 22.667969 48.152344 22.800781 48.152344 22.933594 C 48.152344 23.074219 48.148438 23.210938 48.148438 23.351562 C 48.148438 23.492188 48.148438 23.628906 48.148438 23.773438 C 48.144531 24.117188 48.144531 24.460938 48.140625 24.804688 C 47.917969 24.808594 47.691406 24.808594 47.464844 24.804688 C 47.351562 24.691406 47.351562 24.691406 47.339844 24.429688 C 47.339844 24.316406 47.339844 24.203125 47.34375 24.089844 C 47.34375 23.964844 47.34375 23.84375 47.34375 23.71875 C 47.34375 23.589844 47.34375 23.464844 47.347656 23.332031 C 47.347656 23.203125 47.347656 23.074219 47.347656 22.941406 C 47.347656 22.621094 47.351562 22.304688 47.351562 21.984375 C 47.265625 21.96875 47.179688 21.953125 47.09375 21.9375 C 46.789062 21.871094 46.789062 21.871094 46.449219 21.761719 C 46.449219 21.609375 46.449219 21.460938 46.449219 21.308594 Z M 46.449219 21.308594 "/>
<path style=" stroke:none;fill-rule:nonzero;fill:rgb(10.196079%,70.19608%,73.725492%);fill-opacity:1;" d="M 8.003906 17.589844 C 8.003906 17.664062 8.003906 17.738281 8.003906 17.8125 C 7.929688 17.8125 7.855469 17.8125 7.78125 17.8125 C 7.742188 17.925781 7.703125 18.035156 7.667969 18.152344 C 7.480469 18.152344 7.292969 18.152344 7.101562 18.152344 C 7.011719 18.523438 6.980469 18.683594 7.101562 19.054688 C 6.898438 19.171875 6.898438 19.171875 6.652344 19.28125 C 6.539062 19.242188 6.429688 19.203125 6.3125 19.167969 C 6.320312 19.277344 6.328125 19.386719 6.339844 19.5 C 6.425781 20.769531 6.433594 22.03125 6.421875 23.304688 C 6.421875 23.433594 6.421875 23.566406 6.417969 23.699219 C 6.417969 23.816406 6.417969 23.9375 6.414062 24.058594 C 6.414062 24.367188 6.414062 24.367188 6.539062 24.691406 C 6.503906 24.839844 6.464844 24.992188 6.425781 25.140625 C 6.464844 25.214844 6.5 25.289062 6.539062 25.367188 C 6.535156 25.492188 6.53125 25.613281 6.523438 25.742188 C 6.539062 26.191406 6.632812 26.355469 6.878906 26.71875 C 6.878906 26.832031 6.878906 26.945312 6.878906 27.058594 C 6.953125 27.058594 7.027344 27.058594 7.101562 27.058594 C 7.046875 27.171875 7.046875 27.171875 6.988281 27.285156 C 6.445312 26.796875 6.128906 26.347656 6.058594 25.617188 C 6.042969 25.238281 6.042969 24.859375 6.042969 24.476562 C 6.042969 24.335938 6.042969 24.195312 6.042969 24.054688 C 6.042969 23.683594 6.042969 23.3125 6.046875 22.945312 C 6.046875 22.71875 6.046875 22.492188 6.042969 22.265625 C 6.042969 21.832031 6.042969 21.394531 6.042969 20.960938 C 6.042969 20.824219 6.042969 20.691406 6.042969 20.554688 C 6.050781 19.488281 6.222656 18.824219 6.988281 18.039062 C 7.636719 17.589844 7.636719 17.589844 8.003906 17.589844 Z M 8.003906 17.589844 "/>
<path style=" stroke:none;fill-rule:nonzero;fill:rgb(25.490198%,38.82353%,41.960785%);fill-opacity:1;" d="M 26.945312 22.886719 C 27.035156 23.148438 27.074219 23.292969 26.992188 23.558594 C 26.632812 24.25 26.246094 24.789062 25.492188 25.085938 C 25.007812 25.199219 24.507812 25.167969 24.015625 25.140625 C 24.015625 25.105469 24.015625 25.066406 24.015625 25.03125 C 24.386719 25.03125 24.757812 25.03125 25.140625 25.03125 C 25.140625 24.953125 25.140625 24.878906 25.140625 24.804688 C 24.957031 24.765625 24.769531 24.730469 24.578125 24.691406 C 24.714844 24.285156 24.859375 24.171875 25.199219 23.917969 C 25.515625 23.675781 25.515625 23.675781 25.707031 23.226562 C 26.113281 23.226562 26.523438 23.226562 26.945312 23.226562 C 26.945312 23.113281 26.945312 23.003906 26.945312 22.886719 Z M 26.945312 22.886719 "/>
<path style=" stroke:none;fill-rule:nonzero;fill:rgb(16.862746%,71.372551%,75.686276%);fill-opacity:1;" d="M 10.9375 28.863281 C 10.972656 28.9375 11.011719 29.011719 11.050781 29.089844 C 11.273438 29.050781 11.496094 29.015625 11.726562 28.976562 C 11.703125 29.042969 11.683594 29.109375 11.660156 29.179688 C 11.585938 29.445312 11.585938 29.445312 11.726562 29.765625 C 11.847656 29.761719 11.96875 29.761719 12.09375 29.757812 C 12.515625 29.765625 12.515625 29.765625 12.726562 29.824219 C 13.03125 29.890625 13.285156 29.863281 13.59375 29.828125 C 13.914062 29.792969 14.222656 29.765625 14.542969 29.765625 C 14.402344 30.175781 14.355469 30.304688 13.980469 30.554688 C 12.726562 30.800781 11.910156 30.375 10.882812 29.71875 C 10.574219 29.503906 10.34375 29.300781 10.148438 28.976562 C 10.429688 28.898438 10.640625 28.863281 10.9375 28.863281 Z M 10.9375 28.863281 "/>
<path style=" stroke:none;fill-rule:nonzero;fill:rgb(6.27451%,77.254903%,72.549021%);fill-opacity:1;" d="M 45.773438 21.984375 C 45.8125 21.984375 45.847656 21.984375 45.886719 21.984375 C 45.886719 22.953125 45.886719 23.921875 45.886719 24.917969 C 45.550781 24.917969 45.21875 24.917969 44.871094 24.917969 C 44.867188 24.609375 44.863281 24.300781 44.859375 23.992188 C 44.855469 23.90625 44.855469 23.820312 44.851562 23.730469 C 44.847656 23.253906 44.855469 22.863281 45.097656 22.4375 C 45.386719 22.300781 45.386719 22.300781 45.660156 22.210938 C 45.699219 22.136719 45.734375 22.0625 45.773438 21.984375 Z M 45.773438 21.984375 "/>
<path style=" stroke:none;fill-rule:nonzero;fill:rgb(2.352941%,79.215688%,74.901962%);fill-opacity:1;" d="M 53.328125 21.535156 C 53.554688 21.761719 53.554688 21.761719 53.566406 22.054688 C 53.5625 22.144531 53.558594 22.234375 53.554688 22.324219 C 53.628906 22.324219 53.703125 22.324219 53.78125 22.324219 C 53.816406 22.917969 53.855469 23.515625 53.890625 24.128906 C 54.117188 24.164062 54.339844 24.203125 54.570312 24.238281 C 54.570312 24.464844 54.570312 24.6875 54.570312 24.917969 C 54.269531 24.917969 53.972656 24.917969 53.667969 24.917969 C 53.667969 24.84375 53.667969 24.769531 53.667969 24.691406 C 53.519531 24.652344 53.367188 24.617188 53.214844 24.578125 C 53.011719 23.976562 52.96875 23.496094 53.019531 22.867188 C 53.023438 22.75 53.023438 22.75 53.03125 22.628906 C 53.0625 22.214844 53.105469 21.886719 53.328125 21.535156 Z M 53.328125 21.535156 "/>
<path style=" stroke:none;fill-rule:nonzero;fill:rgb(16.862746%,80.392158%,77.254903%);fill-opacity:1;" d="M 56.371094 21.984375 C 56.410156 21.984375 56.445312 21.984375 56.484375 21.984375 C 56.484375 22.65625 56.484375 23.324219 56.484375 24.015625 C 56.707031 24.015625 56.933594 24.015625 57.160156 24.015625 C 57.273438 24.128906 57.273438 24.128906 57.285156 24.335938 C 57.28125 24.566406 57.277344 24.796875 57.273438 25.03125 C 56.914062 25.210938 56.539062 25.183594 56.148438 25.140625 C 55.808594 24.996094 55.636719 24.886719 55.433594 24.578125 C 55.359375 24.351562 55.359375 24.351562 55.359375 24.015625 C 55.542969 23.976562 55.730469 23.941406 55.921875 23.902344 C 55.921875 23.789062 55.921875 23.679688 55.921875 23.5625 C 55.996094 23.5625 56.070312 23.5625 56.148438 23.5625 C 56.148438 23.230469 56.148438 22.894531 56.148438 22.550781 C 56.183594 22.550781 56.222656 22.550781 56.261719 22.550781 C 56.296875 22.363281 56.335938 22.175781 56.371094 21.984375 Z M 56.371094 21.984375 "/>
<path style=" stroke:none;fill-rule:nonzero;fill:rgb(26.666668%,78.431374%,75.294119%);fill-opacity:1;" d="M 40.363281 20.40625 C 40.683594 20.675781 40.757812 20.867188 40.800781 21.28125 C 40.839844 21.847656 40.761719 22.171875 40.476562 22.660156 C 40.328125 22.816406 40.179688 22.964844 40.023438 23.113281 C 40.070312 23.1875 40.113281 23.261719 40.160156 23.339844 C 40.339844 23.640625 40.519531 23.941406 40.699219 24.238281 C 40.765625 24.339844 40.828125 24.441406 40.890625 24.546875 C 41.039062 24.804688 41.039062 24.804688 41.039062 25.03125 C 40.59375 25.03125 40.144531 25.03125 39.6875 25.03125 C 39.386719 24.507812 39.089844 23.988281 38.785156 23.449219 C 38.894531 23.414062 39.007812 23.375 39.121094 23.339844 C 39.160156 23.523438 39.195312 23.710938 39.234375 23.902344 C 39.347656 23.902344 39.457031 23.902344 39.574219 23.902344 C 39.574219 24.089844 39.574219 24.273438 39.574219 24.464844 C 39.648438 24.464844 39.722656 24.464844 39.800781 24.464844 C 39.800781 24.539062 39.800781 24.613281 39.800781 24.691406 C 40.164062 24.496094 40.164062 24.496094 40.25 24.128906 C 40.175781 24.089844 40.101562 24.054688 40.023438 24.015625 C 40.023438 23.828125 40.023438 23.644531 40.023438 23.449219 C 39.949219 23.449219 39.875 23.449219 39.800781 23.449219 C 39.800781 23.265625 39.800781 23.078125 39.800781 22.886719 C 39.875 22.886719 39.949219 22.886719 40.023438 22.886719 C 40.023438 22.8125 40.023438 22.738281 40.023438 22.660156 C 40.097656 22.660156 40.171875 22.660156 40.25 22.660156 C 40.265625 22.542969 40.277344 22.425781 40.292969 22.300781 C 40.363281 21.871094 40.363281 21.871094 40.496094 21.597656 C 40.636719 21.15625 40.496094 20.84375 40.363281 20.40625 Z M 40.363281 20.40625 "/>
<path style=" stroke:none;fill-rule:nonzero;fill:rgb(26.666668%,80.784315%,78.039217%);fill-opacity:1;" d="M 60.882812 23.675781 C 60.96875 23.859375 60.96875 23.859375 60.996094 24.128906 C 60.757812 24.613281 60.507812 24.898438 59.988281 25.089844 C 59.542969 25.191406 59.082031 25.207031 58.628906 25.140625 C 58.554688 25.066406 58.480469 24.992188 58.402344 24.917969 C 58.902344 24.859375 58.902344 24.859375 59.417969 24.804688 C 59.246094 24.464844 58.960938 24.398438 58.628906 24.238281 C 58.664062 24.128906 58.703125 24.015625 58.738281 23.902344 C 58.816406 23.976562 58.890625 24.050781 58.964844 24.128906 C 59.304688 24.117188 59.304688 24.117188 59.640625 24.015625 C 59.691406 23.957031 59.746094 23.898438 59.796875 23.839844 C 60.109375 23.5625 60.476562 23.65625 60.882812 23.675781 Z M 60.882812 23.675781 "/>
<path style=" stroke:none;fill-rule:nonzero;fill:rgb(18.82353%,32.941177%,36.470589%);fill-opacity:1;" d="M 28.074219 22.660156 C 28.109375 22.660156 28.148438 22.660156 28.1875 22.660156 C 28.199219 22.746094 28.210938 22.832031 28.222656 22.921875 C 28.242188 23.035156 28.257812 23.144531 28.277344 23.261719 C 28.292969 23.371094 28.3125 23.484375 28.328125 23.597656 C 28.414062 23.917969 28.496094 24.035156 28.75 24.238281 C 28.640625 24.273438 28.53125 24.308594 28.417969 24.347656 C 28.089844 24.429688 28.089844 24.429688 27.960938 24.578125 C 28.382812 24.714844 28.789062 24.703125 29.230469 24.699219 C 29.371094 24.695312 29.515625 24.695312 29.660156 24.695312 C 29.824219 24.691406 29.824219 24.691406 29.988281 24.691406 C 30.019531 24.601562 30.050781 24.511719 30.082031 24.417969 C 30.125 24.320312 30.171875 24.226562 30.214844 24.128906 C 30.328125 24.089844 30.4375 24.054688 30.554688 24.015625 C 30.554688 24.261719 30.554688 24.261719 30.441406 24.578125 C 30.019531 24.988281 29.5625 25.179688 28.976562 25.210938 C 28.378906 25.179688 27.960938 24.960938 27.511719 24.578125 C 27.285156 24.316406 27.285156 24.316406 27.171875 24.128906 C 27.207031 24.054688 27.246094 23.980469 27.285156 23.902344 C 27.359375 23.9375 27.433594 23.976562 27.511719 24.015625 C 27.546875 23.902344 27.585938 23.792969 27.621094 23.675781 C 27.695312 23.714844 27.769531 23.75 27.847656 23.789062 C 27.949219 23.417969 28.011719 23.042969 28.074219 22.660156 Z M 28.074219 22.660156 "/>
<path style=" stroke:none;fill-rule:nonzero;fill:rgb(5.490196%,77.254903%,73.333335%);fill-opacity:1;" d="M 39.460938 22.4375 C 39.777344 22.660156 39.777344 22.660156 40.023438 22.886719 C 39.949219 22.886719 39.875 22.886719 39.800781 22.886719 C 39.800781 23.074219 39.800781 23.257812 39.800781 23.449219 C 39.875 23.449219 39.949219 23.449219 40.023438 23.449219 C 40.097656 23.785156 40.171875 24.121094 40.25 24.464844 C 40.027344 24.578125 40.027344 24.578125 39.800781 24.691406 C 39.800781 24.617188 39.800781 24.542969 39.800781 24.464844 C 39.722656 24.464844 39.648438 24.464844 39.574219 24.464844 C 39.574219 24.28125 39.574219 24.09375 39.574219 23.902344 C 39.460938 23.902344 39.351562 23.902344 39.234375 23.902344 C 39.199219 23.714844 39.160156 23.53125 39.121094 23.339844 C 38.789062 23.300781 38.453125 23.265625 38.109375 23.226562 C 38.257812 23.152344 38.40625 23.078125 38.558594 23 C 38.523438 22.925781 38.484375 22.851562 38.445312 22.773438 C 38.648438 22.371094 39.050781 22.386719 39.460938 22.4375 Z M 39.460938 22.4375 "/>
<path style=" stroke:none;fill-rule:nonzero;fill:rgb(3.529412%,77.64706%,73.333335%);fill-opacity:1;" d="M 43.519531 23.675781 C 43.855469 23.675781 44.1875 23.675781 44.535156 23.675781 C 44.570312 23.789062 44.609375 23.898438 44.648438 24.015625 C 44.429688 24.375 44.429688 24.375 44.195312 24.691406 C 43.972656 24.617188 43.75 24.542969 43.519531 24.464844 C 43.480469 24.613281 43.445312 24.761719 43.40625 24.917969 C 43.027344 24.949219 42.660156 24.96875 42.28125 24.917969 C 41.984375 24.636719 41.984375 24.636719 41.828125 24.351562 C 41.867188 24.277344 41.902344 24.203125 41.941406 24.128906 C 42.054688 24.164062 42.164062 24.203125 42.28125 24.238281 C 42.859375 24.285156 42.859375 24.285156 43.40625 24.128906 C 43.445312 23.980469 43.480469 23.828125 43.519531 23.675781 Z M 43.519531 23.675781 "/>
<path style=" stroke:none;fill-rule:nonzero;fill:rgb(2.352941%,79.607844%,74.901962%);fill-opacity:1;" d="M 49.71875 21.761719 C 49.871094 21.761719 50.019531 21.761719 50.171875 21.761719 C 50.167969 21.855469 50.167969 21.855469 50.164062 21.949219 C 50.152344 22.398438 50.160156 22.789062 50.292969 23.21875 C 50.445312 23.753906 50.367188 24.257812 50.285156 24.804688 C 50.0625 24.804688 49.835938 24.804688 49.609375 24.804688 C 49.605469 24.339844 49.601562 23.875 49.601562 23.410156 C 49.601562 23.277344 49.597656 23.144531 49.597656 23.007812 C 49.597656 22.878906 49.597656 22.753906 49.597656 22.625 C 49.597656 22.507812 49.59375 22.390625 49.59375 22.269531 C 49.609375 21.984375 49.609375 21.984375 49.71875 21.761719 Z M 49.71875 21.761719 "/>
<path style=" stroke:none;fill-rule:nonzero;fill:rgb(17.254902%,31.764707%,35.294119%);fill-opacity:1;" d="M 23.339844 19.957031 C 23.414062 19.992188 23.488281 20.03125 23.5625 20.070312 C 23.488281 20.21875 23.414062 20.367188 23.339844 20.519531 C 23.839844 20.632812 23.839844 20.632812 24.351562 20.746094 C 24.265625 20.832031 24.175781 20.917969 24.085938 21.003906 C 23.660156 21.441406 23.535156 21.691406 23.492188 22.289062 C 23.484375 22.398438 23.476562 22.511719 23.46875 22.628906 C 23.460938 22.714844 23.457031 22.800781 23.449219 22.886719 C 23.300781 22.851562 23.152344 22.8125 23 22.773438 C 23 22.589844 23 22.402344 23 22.210938 C 23.074219 22.210938 23.148438 22.210938 23.226562 22.210938 C 23.195312 22.074219 23.195312 22.074219 23.160156 21.9375 C 23.144531 21.839844 23.128906 21.746094 23.113281 21.648438 C 23.148438 21.609375 23.1875 21.574219 23.226562 21.535156 C 23.136719 21.507812 23.042969 21.484375 22.949219 21.457031 C 22.660156 21.308594 22.660156 21.308594 22.519531 21.0625 C 22.566406 20.542969 22.957031 20.285156 23.339844 19.957031 Z M 23 20.632812 C 23.113281 20.859375 23.113281 20.859375 23.113281 20.859375 Z M 23 20.632812 "/>
<path style=" stroke:none;fill-rule:nonzero;fill:rgb(24.705882%,75.294119%,73.333335%);fill-opacity:1;" d="M 37.382812 19.722656 C 37.519531 19.726562 37.519531 19.726562 37.65625 19.730469 C 37.695312 19.804688 37.730469 19.878906 37.769531 19.957031 C 37.582031 19.957031 37.398438 19.957031 37.207031 19.957031 C 37.207031 21.554688 37.207031 23.15625 37.207031 24.804688 C 37.464844 24.804688 37.726562 24.804688 37.996094 24.804688 C 37.996094 24.28125 37.996094 23.761719 37.996094 23.226562 C 38.03125 23.226562 38.070312 23.226562 38.109375 23.226562 C 38.109375 23.820312 38.109375 24.417969 38.109375 25.03125 C 37.734375 25.03125 37.363281 25.03125 36.980469 25.03125 C 36.976562 24.292969 36.976562 23.554688 36.972656 22.820312 C 36.972656 22.570312 36.972656 22.316406 36.972656 22.066406 C 36.96875 21.707031 36.96875 21.347656 36.96875 20.988281 C 36.96875 20.875 36.96875 20.761719 36.96875 20.648438 C 36.96875 20.542969 36.96875 20.4375 36.96875 20.332031 C 36.96875 20.238281 36.96875 20.148438 36.96875 20.054688 C 36.988281 19.71875 37.046875 19.730469 37.382812 19.722656 Z M 37.382812 19.722656 "/>
<path style=" stroke:none;fill-rule:nonzero;fill:rgb(30.19608%,79.607844%,79.215688%);fill-opacity:1;" d="M 8.003906 17.589844 C 8.003906 17.664062 8.003906 17.738281 8.003906 17.8125 C 7.929688 17.8125 7.855469 17.8125 7.78125 17.8125 C 7.742188 17.925781 7.703125 18.035156 7.667969 18.152344 C 7.480469 18.152344 7.292969 18.152344 7.101562 18.152344 C 7.011719 18.523438 6.980469 18.683594 7.101562 19.054688 C 6.898438 19.171875 6.898438 19.171875 6.652344 19.28125 C 6.539062 19.242188 6.429688 19.203125 6.3125 19.167969 C 6.277344 21.027344 6.238281 22.886719 6.199219 24.804688 C 6.164062 24.804688 6.125 24.804688 6.089844 24.804688 C 6.078125 24.0625 6.074219 23.324219 6.070312 22.582031 C 6.066406 22.332031 6.066406 22.078125 6.0625 21.828125 C 6.058594 21.464844 6.058594 21.105469 6.054688 20.742188 C 6.054688 20.628906 6.050781 20.515625 6.050781 20.402344 C 6.050781 19.410156 6.277344 18.769531 6.988281 18.039062 C 7.636719 17.589844 7.636719 17.589844 8.003906 17.589844 Z M 8.003906 17.589844 "/>
<path style=" stroke:none;fill-rule:nonzero;fill:rgb(21.176471%,75.686276%,76.862746%);fill-opacity:1;" d="M 9.921875 24.691406 C 10.042969 24.816406 10.042969 24.816406 10.167969 24.945312 C 10.476562 25.257812 10.476562 25.257812 10.800781 25.5 C 10.882812 25.570312 10.964844 25.636719 11.050781 25.707031 C 11.050781 25.78125 11.050781 25.855469 11.050781 25.929688 C 11.152344 25.964844 11.253906 25.996094 11.359375 26.03125 C 11.726562 26.15625 11.726562 26.15625 11.949219 26.277344 C 12.246094 26.414062 12.53125 26.453125 12.851562 26.496094 C 12.480469 26.742188 12.378906 26.761719 11.949219 26.71875 C 11.632812 26.609375 11.632812 26.609375 11.386719 26.496094 C 11.386719 26.570312 11.386719 26.644531 11.386719 26.71875 C 11.3125 26.71875 11.238281 26.71875 11.160156 26.71875 C 11.125 26.796875 11.085938 26.871094 11.050781 26.945312 C 10.972656 26.910156 10.898438 26.871094 10.824219 26.832031 C 10.824219 26.535156 10.824219 26.238281 10.824219 25.929688 C 10.675781 25.894531 10.527344 25.855469 10.371094 25.820312 C 10.335938 25.929688 10.296875 26.042969 10.261719 26.15625 C 10.183594 26.121094 10.109375 26.082031 10.035156 26.042969 C 10.035156 25.933594 10.035156 25.820312 10.035156 25.707031 C 10.015625 25.53125 10 25.351562 9.976562 25.175781 C 9.96875 25.085938 9.957031 24.996094 9.945312 24.902344 C 9.9375 24.832031 9.929688 24.761719 9.921875 24.691406 Z M 9.921875 24.691406 "/>
<path style=" stroke:none;fill-rule:nonzero;fill:rgb(22.745098%,80.392158%,76.47059%);fill-opacity:1;" d="M 51.976562 19.730469 C 52.199219 20.070312 52.199219 20.070312 52.179688 20.359375 C 52.089844 20.632812 52.089844 20.632812 51.75 20.859375 C 51.425781 20.898438 51.257812 20.902344 50.980469 20.722656 C 50.800781 20.445312 50.800781 20.28125 50.847656 19.957031 C 51.117188 19.476562 51.5 19.609375 51.976562 19.730469 Z M 51.976562 19.730469 "/>
<path style=" stroke:none;fill-rule:nonzero;fill:rgb(4.313726%,23.529412%,28.627452%);fill-opacity:1;" d="M 30.554688 23.675781 C 30.589844 23.824219 30.628906 23.972656 30.667969 24.128906 C 30.5625 24.140625 30.5625 24.140625 30.457031 24.15625 C 30.375 24.183594 30.296875 24.210938 30.214844 24.238281 C 30.1875 24.3125 30.164062 24.386719 30.136719 24.464844 C 29.988281 24.691406 29.988281 24.691406 29.644531 24.769531 C 29.503906 24.773438 29.363281 24.78125 29.222656 24.789062 C 29.085938 24.800781 28.945312 24.808594 28.804688 24.816406 C 28.425781 24.804688 28.1875 24.746094 27.847656 24.578125 C 27.921875 24.542969 27.996094 24.503906 28.074219 24.464844 C 28.109375 24.390625 28.148438 24.316406 28.1875 24.238281 C 28.433594 24.195312 28.433594 24.195312 28.734375 24.167969 C 28.835938 24.160156 28.933594 24.152344 29.039062 24.144531 C 29.320312 24.128906 29.597656 24.128906 29.878906 24.128906 C 29.914062 24.015625 29.953125 23.902344 29.988281 23.789062 C 30.175781 23.753906 30.363281 23.714844 30.554688 23.675781 Z M 30.554688 23.675781 "/>
<path style=" stroke:none;fill-rule:nonzero;fill:rgb(8.235294%,24.313726%,28.627452%);fill-opacity:1;" d="M 23.339844 24.128906 C 23.933594 24.128906 24.527344 24.128906 25.140625 24.128906 C 24.957031 24.3125 24.769531 24.5 24.578125 24.691406 C 24.765625 24.726562 24.949219 24.765625 25.140625 24.804688 C 25.140625 24.878906 25.140625 24.953125 25.140625 25.03125 C 24.90625 25.035156 24.671875 25.039062 24.4375 25.042969 C 24.242188 25.046875 24.242188 25.046875 24.042969 25.050781 C 23.691406 25.03125 23.507812 25.003906 23.226562 24.804688 C 23.1875 24.691406 23.152344 24.582031 23.113281 24.464844 C 23.1875 24.464844 23.261719 24.464844 23.339844 24.464844 C 23.339844 24.355469 23.339844 24.242188 23.339844 24.128906 Z M 23.339844 24.128906 "/>
<path style=" stroke:none;fill-rule:nonzero;fill:rgb(22.745098%,35.686275%,38.039216%);fill-opacity:1;" d="M 31.34375 19.617188 C 31.957031 19.578125 31.957031 19.578125 32.230469 19.75 C 32.402344 20.03125 32.40625 20.199219 32.359375 20.519531 C 32.222656 20.722656 32.222656 20.722656 32.019531 20.859375 C 31.699219 20.90625 31.53125 20.902344 31.25 20.730469 C 31.0625 20.433594 31.09375 20.1875 31.117188 19.84375 C 31.191406 19.84375 31.265625 19.84375 31.34375 19.84375 C 31.34375 19.769531 31.34375 19.695312 31.34375 19.617188 Z M 31.34375 19.617188 "/>
<path style=" stroke:none;fill-rule:nonzero;fill:rgb(4.705882%,21.176471%,25.490198%);fill-opacity:1;" d="M 27.511719 22.324219 C 27.847656 22.4375 27.847656 22.4375 28.074219 22.773438 C 28.097656 23.191406 28.09375 23.503906 27.960938 23.902344 C 27.847656 23.863281 27.738281 23.828125 27.621094 23.789062 C 27.585938 23.863281 27.546875 23.9375 27.511719 24.015625 C 27.359375 23.976562 27.210938 23.941406 27.058594 23.902344 C 27.050781 23.722656 27.046875 23.539062 27.042969 23.359375 C 27.042969 23.257812 27.039062 23.15625 27.035156 23.054688 C 27.058594 22.773438 27.058594 22.773438 27.285156 22.4375 C 27.359375 22.472656 27.433594 22.511719 27.511719 22.550781 C 27.511719 22.472656 27.511719 22.398438 27.511719 22.324219 Z M 27.511719 22.324219 "/>
<path style=" stroke:none;fill-rule:nonzero;fill:rgb(19.215687%,32.549021%,35.294119%);fill-opacity:1;" d="M 32.808594 21.082031 C 33.144531 21.082031 33.480469 21.082031 33.824219 21.082031 C 33.859375 21.15625 33.898438 21.230469 33.9375 21.308594 C 34 21.273438 34.0625 21.234375 34.125 21.199219 C 34.421875 21.066406 34.632812 21.054688 34.957031 21.054688 C 35.054688 21.054688 35.152344 21.054688 35.25 21.054688 C 35.515625 21.082031 35.515625 21.082031 35.851562 21.308594 C 35.371094 21.421875 34.886719 21.53125 34.386719 21.648438 C 34.535156 21.683594 34.683594 21.722656 34.839844 21.761719 C 34.875 21.871094 34.914062 21.984375 34.949219 22.097656 C 34.652344 22.136719 34.355469 22.171875 34.050781 22.210938 C 34.015625 22.140625 33.984375 22.066406 33.949219 21.992188 C 33.84375 21.742188 33.84375 21.742188 33.597656 21.648438 C 33.636719 21.5 33.671875 21.347656 33.710938 21.195312 C 33.414062 21.195312 33.117188 21.195312 32.808594 21.195312 C 32.808594 21.160156 32.808594 21.121094 32.808594 21.082031 Z M 32.808594 21.082031 "/>
<path style=" stroke:none;fill-rule:nonzero;fill:rgb(35.686275%,80.000001%,78.431374%);fill-opacity:1;" d="M 61.332031 21.082031 C 61.667969 21.082031 62.003906 21.082031 62.347656 21.082031 C 62.347656 21.121094 62.347656 21.15625 62.347656 21.195312 C 62.050781 21.195312 61.753906 21.195312 61.445312 21.195312 C 61.445312 22.386719 61.445312 23.578125 61.445312 24.804688 C 61.742188 24.804688 62.042969 24.804688 62.347656 24.804688 C 62.347656 23.949219 62.347656 23.09375 62.347656 22.210938 C 62.535156 22.171875 62.71875 22.136719 62.910156 22.097656 C 62.855469 22.140625 62.800781 22.183594 62.746094 22.230469 C 62.515625 22.503906 62.527344 22.679688 62.515625 23.035156 C 62.511719 23.152344 62.507812 23.269531 62.503906 23.386719 C 62.5 23.570312 62.5 23.570312 62.496094 23.753906 C 62.492188 23.875 62.488281 24 62.484375 24.125 C 62.476562 24.425781 62.46875 24.726562 62.460938 25.03125 C 62.089844 25.03125 61.714844 25.03125 61.332031 25.03125 C 61.332031 23.726562 61.332031 22.425781 61.332031 21.082031 Z M 61.332031 21.082031 "/>
<path style=" stroke:none;fill-rule:nonzero;fill:rgb(7.058824%,25.490198%,29.411766%);fill-opacity:1;" d="M 23.5625 19.84375 C 24.085938 19.84375 24.605469 19.84375 25.140625 19.84375 C 25.140625 19.878906 25.140625 19.917969 25.140625 19.957031 C 24.957031 19.992188 24.769531 20.03125 24.578125 20.070312 C 24.652344 20.253906 24.726562 20.441406 24.804688 20.632812 C 23.742188 20.804688 23.742188 20.804688 23.226562 20.519531 C 23.339844 20.292969 23.449219 20.070312 23.5625 19.84375 Z M 23.5625 19.84375 "/>
<path style=" stroke:none;fill-rule:nonzero;fill:rgb(23.921569%,79.607844%,76.078433%);fill-opacity:1;" d="M 43.835938 21.273438 C 44.238281 21.566406 44.324219 21.730469 44.421875 22.210938 C 44.308594 22.171875 44.199219 22.136719 44.082031 22.097656 C 44.082031 21.949219 44.082031 21.800781 44.082031 21.648438 C 43.628906 21.433594 43.265625 21.390625 42.765625 21.394531 C 42.574219 21.390625 42.574219 21.390625 42.375 21.390625 C 42.039062 21.386719 42.039062 21.386719 41.828125 21.648438 C 41.796875 21.738281 41.761719 21.832031 41.730469 21.929688 C 41.601562 22.210938 41.601562 22.210938 41.363281 22.359375 C 41.257812 22.398438 41.257812 22.398438 41.152344 22.4375 C 41.109375 22.078125 41.136719 21.898438 41.3125 21.578125 C 42.046875 20.894531 42.949219 20.839844 43.835938 21.273438 Z M 43.835938 21.273438 "/>
<path style=" stroke:none;fill-rule:nonzero;fill:rgb(26.666668%,84.313726%,77.254903%);fill-opacity:1;" d="M 13.332031 14.796875 C 13.453125 14.808594 13.453125 14.808594 13.582031 14.820312 C 14.308594 14.976562 14.925781 15.363281 15.550781 15.75 C 15.628906 15.796875 15.707031 15.84375 15.785156 15.890625 C 15.972656 16.003906 16.160156 16.121094 16.347656 16.234375 C 15.894531 16.386719 15.664062 16.289062 15.21875 16.121094 C 15.039062 15.898438 15.039062 15.898438 14.882812 15.671875 C 14.617188 15.546875 14.617188 15.546875 14.320312 15.445312 C 14.210938 15.382812 14.105469 15.320312 13.996094 15.253906 C 13.5625 15.074219 13.308594 15.152344 12.851562 15.21875 C 12.632812 15.058594 12.632812 15.058594 12.515625 14.882812 C 12.847656 14.773438 12.996094 14.761719 13.332031 14.796875 Z M 13.332031 14.796875 "/>
<path style=" stroke:none;fill-rule:nonzero;fill:rgb(23.921569%,71.764708%,77.254903%);fill-opacity:1;" d="M 8.117188 27.058594 C 8.117188 27.171875 8.117188 27.28125 8.117188 27.398438 C 8.230469 27.433594 8.339844 27.472656 8.457031 27.511719 C 8.457031 27.660156 8.457031 27.808594 8.457031 27.960938 C 8.53125 27.960938 8.605469 27.960938 8.679688 27.960938 C 8.679688 28.035156 8.679688 28.109375 8.679688 28.1875 C 8.769531 28.195312 8.859375 28.203125 8.949219 28.214844 C 9.246094 28.300781 9.246094 28.300781 9.394531 28.53125 C 9.417969 28.605469 9.445312 28.675781 9.46875 28.75 C 9.003906 28.519531 8.550781 28.269531 8.097656 28.015625 C 7.972656 27.949219 7.972656 27.949219 7.84375 27.878906 C 7.765625 27.835938 7.6875 27.792969 7.605469 27.746094 C 7.535156 27.707031 7.460938 27.667969 7.386719 27.625 C 7.214844 27.511719 7.214844 27.511719 7.101562 27.285156 C 7.457031 27.074219 7.707031 27.035156 8.117188 27.058594 Z M 8.117188 27.058594 "/>
<path style=" stroke:none;fill-rule:nonzero;fill:rgb(20.784314%,81.960785%,78.431374%);fill-opacity:1;" d="M 57.273438 24.128906 C 57.273438 24.425781 57.273438 24.722656 57.273438 25.03125 C 57.019531 25.15625 56.878906 25.15625 56.597656 25.15625 C 56.480469 25.15625 56.480469 25.15625 56.359375 25.15625 C 56.148438 25.140625 56.148438 25.140625 55.921875 25.03125 C 55.921875 24.953125 55.921875 24.878906 55.921875 24.804688 C 56.070312 24.804688 56.21875 24.804688 56.371094 24.804688 C 56.371094 24.730469 56.371094 24.65625 56.371094 24.578125 C 56.445312 24.578125 56.519531 24.578125 56.597656 24.578125 C 56.5625 24.429688 56.523438 24.28125 56.484375 24.128906 C 56.839844 24.007812 56.933594 24.023438 57.273438 24.128906 Z M 57.273438 24.128906 "/>
<path style=" stroke:none;fill-rule:nonzero;fill:rgb(9.411765%,78.823531%,74.901962%);fill-opacity:1;" d="M 58.191406 24.148438 C 58.277344 24.167969 58.363281 24.191406 58.453125 24.210938 C 58.539062 24.230469 58.625 24.253906 58.710938 24.273438 C 58.964844 24.351562 59.183594 24.453125 59.417969 24.578125 C 59.417969 24.652344 59.417969 24.726562 59.417969 24.804688 C 59.492188 24.839844 59.566406 24.878906 59.640625 24.917969 C 58.328125 25.003906 58.328125 25.003906 57.953125 24.792969 C 57.804688 24.636719 57.804688 24.636719 57.613281 24.351562 C 57.949219 24.128906 57.949219 24.128906 58.191406 24.148438 Z M 58.191406 24.148438 "/>
<path style=" stroke:none;fill-rule:nonzero;fill:rgb(6.666667%,23.137255%,27.058825%);fill-opacity:1;" d="M 22.4375 21.195312 C 22.734375 21.269531 23.03125 21.34375 23.339844 21.421875 C 23.300781 21.683594 23.265625 21.941406 23.226562 22.210938 C 23.039062 22.246094 22.851562 22.285156 22.660156 22.324219 C 22.625 22.507812 22.585938 22.695312 22.550781 22.886719 C 22.472656 22.886719 22.398438 22.886719 22.324219 22.886719 C 22.320312 22.648438 22.316406 22.40625 22.316406 22.167969 C 22.316406 22.035156 22.3125 21.902344 22.3125 21.765625 C 22.324219 21.421875 22.324219 21.421875 22.4375 21.195312 Z M 22.4375 21.195312 "/>
<path style=" stroke:none;fill-rule:nonzero;fill:rgb(13.333334%,79.215688%,76.078433%);fill-opacity:1;" d="M 60.1875 23.664062 C 60.421875 23.667969 60.652344 23.671875 60.882812 23.675781 C 60.972656 23.867188 60.972656 23.867188 60.996094 24.128906 C 60.753906 24.445312 60.753906 24.445312 60.429688 24.691406 C 60.113281 24.671875 60.113281 24.671875 59.867188 24.578125 C 59.863281 24.316406 59.863281 24.050781 59.867188 23.789062 C 59.980469 23.675781 59.980469 23.675781 60.1875 23.664062 Z M 60.1875 23.664062 "/>
<path style=" stroke:none;fill-rule:nonzero;fill:rgb(26.274511%,36.862746%,39.215687%);fill-opacity:1;" d="M 30.441406 24.015625 C 30.476562 24.125 30.515625 24.238281 30.554688 24.351562 C 29.828125 25.121094 29.828125 25.121094 29.25 25.164062 C 29.148438 25.160156 29.050781 25.160156 28.949219 25.15625 C 28.847656 25.152344 28.746094 25.152344 28.640625 25.148438 C 28.527344 25.144531 28.527344 25.144531 28.410156 25.140625 C 28.375 25.03125 28.335938 24.917969 28.300781 24.804688 C 28.855469 24.765625 29.414062 24.730469 29.988281 24.691406 C 30.066406 24.503906 30.140625 24.320312 30.214844 24.128906 C 30.289062 24.089844 30.363281 24.054688 30.441406 24.015625 Z M 30.441406 24.015625 "/>
<path style=" stroke:none;fill-rule:nonzero;fill:rgb(32.941177%,83.137256%,80.392158%);fill-opacity:1;" d="M 42.640625 21.859375 C 42.851562 21.867188 42.851562 21.867188 43.070312 21.871094 C 43.070312 21.910156 43.070312 21.945312 43.070312 21.984375 C 42.808594 22.023438 42.546875 22.058594 42.28125 22.097656 C 42.242188 22.210938 42.203125 22.320312 42.167969 22.4375 C 42.574219 22.472656 42.984375 22.511719 43.40625 22.550781 C 43.371094 22.4375 43.332031 22.324219 43.292969 22.210938 C 43.367188 22.210938 43.441406 22.210938 43.519531 22.210938 C 43.519531 22.398438 43.519531 22.582031 43.519531 22.773438 C 43.28125 22.804688 43.046875 22.832031 42.808594 22.859375 C 42.609375 22.882812 42.609375 22.882812 42.40625 22.90625 C 42.054688 22.886719 42.054688 22.886719 41.832031 22.683594 C 41.714844 22.4375 41.714844 22.4375 41.828125 22.097656 C 42.175781 21.867188 42.246094 21.84375 42.640625 21.859375 Z M 42.640625 21.859375 "/>
<path style=" stroke:none;fill-rule:nonzero;fill:rgb(30.588236%,81.568629%,78.823531%);fill-opacity:1;" d="M 14.214844 20.40625 C 14.285156 20.445312 14.355469 20.480469 14.429688 20.519531 C 14.429688 20.558594 14.429688 20.59375 14.429688 20.632812 C 14.304688 20.636719 14.179688 20.640625 14.046875 20.644531 C 13.882812 20.652344 13.714844 20.660156 13.550781 20.667969 C 13.46875 20.671875 13.382812 20.671875 13.296875 20.675781 C 12.824219 20.6875 12.824219 20.6875 12.425781 20.914062 C 12.382812 20.96875 12.335938 21.027344 12.289062 21.082031 C 11.875 21.160156 11.875 21.160156 11.5 21.195312 C 12.214844 20.359375 13.164062 20.066406 14.214844 20.40625 Z M 14.214844 20.40625 "/>
<path style=" stroke:none;fill-rule:nonzero;fill:rgb(5.490196%,18.039216%,21.568628%);fill-opacity:1;" d="M 32.019531 21.195312 C 32.09375 21.195312 32.167969 21.195312 32.246094 21.195312 C 32.25 21.671875 32.253906 22.152344 32.257812 22.628906 C 32.257812 22.792969 32.261719 22.953125 32.261719 23.117188 C 32.265625 23.351562 32.265625 23.582031 32.265625 23.816406 C 32.269531 23.957031 32.269531 24.097656 32.269531 24.242188 C 32.246094 24.578125 32.246094 24.578125 32.019531 24.804688 C 32 24.34375 31.984375 23.886719 31.964844 23.425781 C 31.960938 23.269531 31.953125 23.113281 31.945312 22.957031 C 31.9375 22.730469 31.929688 22.507812 31.921875 22.28125 C 31.914062 22.148438 31.910156 22.011719 31.90625 21.871094 C 31.90625 21.535156 31.90625 21.535156 32.019531 21.195312 Z M 32.019531 21.195312 "/>
<path style=" stroke:none;fill-rule:nonzero;fill:rgb(49.803922%,86.666667%,84.313726%);fill-opacity:1;" d="M 53.890625 21.984375 C 53.929688 21.984375 53.964844 21.984375 54.003906 21.984375 C 54.042969 22.65625 54.078125 23.324219 54.117188 24.015625 C 54.304688 24.015625 54.488281 24.015625 54.679688 24.015625 C 54.71875 24.347656 54.753906 24.683594 54.792969 25.03125 C 54.433594 25.210938 54.070312 25.148438 53.667969 25.140625 C 53.667969 25.066406 53.667969 24.992188 53.667969 24.917969 C 53.964844 24.917969 54.261719 24.917969 54.570312 24.917969 C 54.570312 24.695312 54.570312 24.46875 54.570312 24.238281 C 54.34375 24.238281 54.121094 24.238281 53.890625 24.238281 C 53.757812 23.773438 53.792969 23.339844 53.828125 22.859375 C 53.835938 22.773438 53.839844 22.691406 53.847656 22.605469 C 53.859375 22.398438 53.875 22.191406 53.890625 21.984375 Z M 53.890625 21.984375 "/>
<path style=" stroke:none;fill-rule:nonzero;fill:rgb(7.843138%,75.294119%,70.588237%);fill-opacity:1;" d="M 55.359375 20.292969 C 55.691406 20.292969 56.027344 20.292969 56.371094 20.292969 C 56.371094 20.589844 56.371094 20.890625 56.371094 21.195312 C 56.597656 21.195312 56.820312 21.195312 57.050781 21.195312 C 57.050781 21.234375 57.050781 21.269531 57.050781 21.308594 C 56.675781 21.347656 56.304688 21.382812 55.921875 21.421875 C 55.957031 21.308594 55.996094 21.199219 56.035156 21.082031 C 55.921875 20.785156 55.871094 20.664062 55.582031 20.519531 C 55.582031 20.742188 55.582031 20.964844 55.582031 21.195312 C 55.507812 21.195312 55.433594 21.195312 55.359375 21.195312 C 55.359375 20.898438 55.359375 20.601562 55.359375 20.292969 Z M 55.359375 20.292969 "/>
<path style=" stroke:none;fill-rule:nonzero;fill:rgb(5.098039%,22.352941%,26.274511%);fill-opacity:1;" d="M 26.832031 23.339844 C 26.78125 23.820312 26.503906 24.039062 26.15625 24.351562 C 26.007812 24.46875 25.859375 24.582031 25.707031 24.691406 C 25.632812 24.652344 25.558594 24.617188 25.480469 24.578125 C 25.628906 24.390625 25.777344 24.207031 25.929688 24.015625 C 25.855469 23.941406 25.78125 23.867188 25.707031 23.789062 C 25.707031 23.675781 25.707031 23.566406 25.707031 23.449219 C 26.09375 23.378906 26.4375 23.339844 26.832031 23.339844 Z M 26.832031 23.339844 "/>
<path style=" stroke:none;fill-rule:nonzero;fill:rgb(18.82353%,33.725491%,37.254903%);fill-opacity:1;" d="M 25.234375 19.722656 C 25.34375 19.746094 25.453125 19.765625 25.566406 19.789062 C 25.691406 19.816406 25.691406 19.816406 25.820312 19.84375 C 25.636719 20.035156 25.449219 20.222656 25.253906 20.40625 C 25.179688 20.40625 25.105469 20.40625 25.03125 20.40625 C 24.992188 20.519531 24.953125 20.628906 24.917969 20.746094 C 24.769531 20.707031 24.617188 20.671875 24.464844 20.632812 C 24.539062 20.59375 24.613281 20.558594 24.691406 20.519531 C 24.652344 20.40625 24.617188 20.296875 24.578125 20.179688 C 24.503906 20.144531 24.429688 20.105469 24.351562 20.070312 C 24.425781 20.03125 24.5 19.996094 24.578125 19.957031 C 24.390625 19.917969 24.207031 19.882812 24.015625 19.84375 C 24.015625 19.804688 24.015625 19.769531 24.015625 19.730469 C 24.460938 19.613281 24.785156 19.632812 25.234375 19.722656 Z M 25.234375 19.722656 "/>
<path style=" stroke:none;fill-rule:nonzero;fill:rgb(29.019609%,84.705883%,78.823531%);fill-opacity:1;" d="M 12.851562 18.601562 C 13.601562 18.574219 14.269531 18.632812 14.996094 18.828125 C 14.996094 18.902344 14.996094 18.976562 14.996094 19.054688 C 15.082031 19.066406 15.167969 19.082031 15.253906 19.097656 C 15.558594 19.167969 15.558594 19.167969 15.898438 19.390625 C 15.859375 19.503906 15.824219 19.617188 15.785156 19.730469 C 15.730469 19.691406 15.675781 19.652344 15.617188 19.613281 C 14.730469 19.023438 13.90625 18.910156 12.851562 18.828125 C 12.851562 18.753906 12.851562 18.679688 12.851562 18.601562 Z M 12.851562 18.601562 "/>
<path style=" stroke:none;fill-rule:nonzero;fill:rgb(16.862746%,72.941178%,70.588237%);fill-opacity:1;" d="M 54.003906 21.195312 C 54.414062 21.195312 54.824219 21.195312 55.246094 21.195312 C 55.132812 21.25 55.132812 21.25 55.019531 21.308594 C 55.019531 21.457031 55.019531 21.605469 55.019531 21.761719 C 55.207031 21.796875 55.390625 21.835938 55.582031 21.871094 C 55.582031 22.578125 55.582031 23.285156 55.582031 24.015625 C 55.507812 24.015625 55.433594 24.015625 55.359375 24.015625 C 55.320312 23.382812 55.285156 22.75 55.246094 22.097656 C 55.132812 22.0625 55.023438 22.023438 54.90625 21.984375 C 54.871094 21.800781 54.832031 21.613281 54.792969 21.421875 C 54.535156 21.382812 54.273438 21.347656 54.003906 21.308594 C 54.003906 21.273438 54.003906 21.234375 54.003906 21.195312 Z M 54.003906 21.195312 "/>
<path style=" stroke:none;fill-rule:nonzero;fill:rgb(23.529412%,35.686275%,38.431373%);fill-opacity:1;" d="M 28.574219 21.113281 C 28.632812 21.140625 28.691406 21.167969 28.75 21.195312 C 28.667969 21.242188 28.582031 21.285156 28.496094 21.328125 C 28.160156 21.550781 27.960938 21.765625 27.734375 22.097656 C 27.734375 22.210938 27.734375 22.320312 27.734375 22.4375 C 27.664062 22.449219 27.597656 22.464844 27.523438 22.480469 C 27.261719 22.535156 27.261719 22.535156 27.058594 22.773438 C 27.117188 22.28125 27.199219 21.929688 27.511719 21.535156 C 27.839844 21.28125 28.144531 21.066406 28.574219 21.113281 Z M 28.574219 21.113281 "/>
<path style=" stroke:none;fill-rule:nonzero;fill:rgb(19.607843%,76.078433%,71.764708%);fill-opacity:1;" d="M 63.699219 21.082031 C 63.699219 21.417969 63.699219 21.753906 63.699219 22.097656 C 63.328125 22.097656 62.957031 22.097656 62.574219 22.097656 C 63.023438 21.761719 63.023438 21.761719 63.363281 21.761719 C 63.324219 21.609375 63.289062 21.460938 63.25 21.308594 C 63.0625 21.382812 62.878906 21.457031 62.6875 21.535156 C 62.769531 21.316406 62.769531 21.316406 62.910156 21.082031 C 63.246094 20.945312 63.347656 20.964844 63.699219 21.082031 Z M 63.699219 21.082031 "/>
<path style=" stroke:none;fill-rule:nonzero;fill:rgb(12.941177%,76.078433%,72.941178%);fill-opacity:1;" d="M 49.269531 21.871094 C 49.417969 21.945312 49.566406 22.019531 49.71875 22.097656 C 49.683594 22.992188 49.644531 23.882812 49.609375 24.804688 C 49.832031 24.804688 50.054688 24.804688 50.285156 24.804688 C 50.285156 24.433594 50.285156 24.058594 50.285156 23.675781 C 50.320312 23.675781 50.359375 23.675781 50.398438 23.675781 C 50.398438 24.085938 50.398438 24.496094 50.398438 24.917969 C 50.097656 24.917969 49.800781 24.917969 49.496094 24.917969 C 49.496094 24.097656 49.496094 23.28125 49.496094 22.4375 C 49.421875 22.4375 49.347656 22.4375 49.269531 22.4375 C 49.207031 22.21875 49.207031 22.21875 49.15625 21.984375 C 49.195312 21.949219 49.230469 21.910156 49.269531 21.871094 Z M 49.269531 21.871094 "/>
<path style=" stroke:none;fill-rule:nonzero;fill:rgb(27.450982%,39.215687%,41.568628%);fill-opacity:1;" d="M 22.550781 23.449219 C 22.773438 23.675781 22.773438 23.675781 22.824219 23.910156 C 22.855469 24.015625 22.855469 24.015625 22.886719 24.128906 C 23 24.164062 23.109375 24.203125 23.226562 24.238281 C 23.226562 24.164062 23.226562 24.089844 23.226562 24.015625 C 23.335938 23.976562 23.449219 23.941406 23.5625 23.902344 C 23.644531 23.675781 23.644531 23.675781 23.675781 23.449219 C 23.917969 23.660156 23.917969 23.660156 24.160156 23.871094 C 24.382812 24.046875 24.382812 24.046875 24.804688 24.238281 C 24.320312 24.203125 23.835938 24.164062 23.339844 24.128906 C 23.300781 24.3125 23.265625 24.5 23.226562 24.691406 C 23.152344 24.691406 23.078125 24.691406 23 24.691406 C 22.683594 24.375 22.554688 24.207031 22.519531 23.753906 C 22.53125 23.652344 22.539062 23.554688 22.550781 23.449219 Z M 22.550781 23.449219 "/>
<path style=" stroke:none;fill-rule:nonzero;fill:rgb(31.37255%,80.392158%,77.64706%);fill-opacity:1;" d="M 60.207031 21.195312 C 60.472656 21.433594 60.683594 21.691406 60.882812 21.984375 C 60.808594 22.132812 60.734375 22.28125 60.65625 22.4375 C 60.621094 22.214844 60.582031 21.988281 60.542969 21.761719 C 60.320312 21.683594 60.097656 21.609375 59.867188 21.535156 C 59.867188 21.460938 59.867188 21.386719 59.867188 21.308594 C 59.671875 21.304688 59.476562 21.304688 59.28125 21.300781 C 59.175781 21.300781 59.066406 21.300781 58.953125 21.296875 C 58.644531 21.308594 58.367188 21.351562 58.0625 21.421875 C 58.175781 21.195312 58.175781 21.195312 58.375 21.117188 C 59.019531 20.960938 59.589844 20.90625 60.207031 21.195312 Z M 60.207031 21.195312 "/>
<path style=" stroke:none;fill-rule:nonzero;fill:rgb(28.627452%,78.823531%,75.686276%);fill-opacity:1;" d="M 57.949219 21.421875 C 57.949219 21.761719 57.949219 21.761719 57.839844 21.949219 C 57.695312 22.28125 57.714844 22.542969 57.726562 22.902344 C 57.726562 23.136719 57.671875 23.335938 57.613281 23.5625 C 57.609375 23.789062 57.609375 24.015625 57.613281 24.238281 C 57.261719 23.714844 57.230469 23.292969 57.273438 22.660156 C 57.410156 22.15625 57.558594 21.777344 57.949219 21.421875 Z M 57.949219 21.421875 "/>
<path style=" stroke:none;fill-rule:nonzero;fill:rgb(30.588236%,85.09804%,78.823531%);fill-opacity:1;" d="M 16.460938 16.347656 C 17.191406 16.738281 17.910156 17.132812 18.601562 17.589844 C 18.601562 17.625 18.601562 17.664062 18.601562 17.699219 C 18.269531 17.664062 17.933594 17.625 17.589844 17.589844 C 17.589844 17.4375 17.589844 17.289062 17.589844 17.136719 C 17.253906 17.082031 17.253906 17.082031 16.910156 17.023438 C 16.910156 16.949219 16.910156 16.875 16.910156 16.800781 C 16.800781 16.800781 16.6875 16.800781 16.574219 16.800781 C 16.535156 16.648438 16.5 16.5 16.460938 16.347656 Z M 16.460938 16.347656 "/>
<path style=" stroke:none;fill-rule:nonzero;fill:rgb(36.862746%,83.92157%,81.176472%);fill-opacity:1;" d="M 58.851562 21.871094 C 58.738281 22.097656 58.628906 22.324219 58.515625 22.550781 C 58.714844 22.53125 58.917969 22.515625 59.121094 22.5 C 59.234375 22.492188 59.34375 22.480469 59.460938 22.472656 C 59.753906 22.453125 59.753906 22.453125 59.980469 22.324219 C 59.980469 22.472656 59.980469 22.621094 59.980469 22.773438 C 59.421875 22.773438 58.863281 22.773438 58.289062 22.773438 C 58.289062 22.550781 58.289062 22.328125 58.289062 22.097656 C 58.628906 21.871094 58.628906 21.871094 58.851562 21.871094 Z M 58.851562 21.871094 "/>
<path style=" stroke:none;fill-rule:nonzero;fill:rgb(13.333334%,82.745099%,76.47059%);fill-opacity:1;" d="M 10.824219 15.898438 C 10.824219 15.972656 10.824219 16.046875 10.824219 16.121094 C 10.75 16.121094 10.675781 16.121094 10.597656 16.121094 C 10.597656 16.234375 10.597656 16.347656 10.597656 16.460938 C 10.671875 16.496094 10.746094 16.535156 10.824219 16.574219 C 10.75 16.722656 10.675781 16.871094 10.597656 17.023438 C 10.300781 16.875 10.003906 16.726562 9.695312 16.574219 C 9.832031 16.304688 9.9375 16.253906 10.195312 16.109375 C 10.265625 16.070312 10.335938 16.027344 10.40625 15.988281 C 10.597656 15.898438 10.597656 15.898438 10.824219 15.898438 Z M 9.921875 16.800781 C 9.996094 16.800781 10.070312 16.800781 10.148438 16.800781 C 10.109375 16.875 10.074219 16.949219 10.035156 17.023438 C 9.996094 16.949219 9.960938 16.875 9.921875 16.800781 Z M 9.921875 16.800781 "/>
<path style=" stroke:none;fill-rule:nonzero;fill:rgb(32.549021%,73.725492%,77.64706%);fill-opacity:1;" d="M 6.089844 24.917969 C 6.269531 25.265625 6.414062 25.617188 6.546875 25.988281 C 6.585938 26.09375 6.625 26.199219 6.664062 26.308594 C 6.746094 26.558594 6.820312 26.800781 6.878906 27.058594 C 6.953125 27.058594 7.027344 27.058594 7.101562 27.058594 C 7.066406 27.132812 7.027344 27.207031 6.988281 27.285156 C 6.46875 26.820312 6.121094 26.371094 6.066406 25.65625 C 6.066406 25.40625 6.074219 25.164062 6.089844 24.917969 Z M 6.089844 24.917969 "/>
<path style=" stroke:none;fill-rule:nonzero;fill:rgb(29.019609%,41.568628%,44.705883%);fill-opacity:1;" d="M 26.945312 22.886719 C 26.984375 23.035156 27.019531 23.183594 27.058594 23.339844 C 26.773438 23.480469 26.574219 23.460938 26.253906 23.457031 C 26.152344 23.457031 26.050781 23.457031 25.945312 23.453125 C 25.867188 23.453125 25.785156 23.453125 25.707031 23.449219 C 25.707031 23.5625 25.707031 23.675781 25.707031 23.789062 C 25.816406 23.828125 25.929688 23.863281 26.042969 23.902344 C 26.007812 24.050781 25.96875 24.199219 25.929688 24.351562 C 25.855469 24.351562 25.78125 24.351562 25.707031 24.351562 C 25.707031 24.277344 25.707031 24.203125 25.707031 24.128906 C 25.558594 24.164062 25.410156 24.203125 25.253906 24.238281 C 25.390625 23.890625 25.539062 23.5625 25.707031 23.226562 C 26.113281 23.226562 26.523438 23.226562 26.945312 23.226562 C 26.945312 23.113281 26.945312 23.003906 26.945312 22.886719 Z M 26.945312 22.886719 "/>
<path style=" stroke:none;fill-rule:nonzero;fill:rgb(8.627451%,25.882354%,30.19608%);fill-opacity:1;" d="M 30.554688 21.984375 C 30.78125 22.210938 30.78125 22.210938 30.78125 22.550781 C 30.59375 22.625 30.40625 22.699219 30.214844 22.773438 C 30.214844 22.664062 30.214844 22.550781 30.214844 22.4375 C 30.289062 22.4375 30.363281 22.4375 30.441406 22.4375 C 30.476562 22.289062 30.515625 22.136719 30.554688 21.984375 Z M 29.878906 22.773438 C 29.988281 22.773438 30.101562 22.773438 30.214844 22.773438 C 30.214844 22.847656 30.214844 22.921875 30.214844 23 C 30.328125 23 30.4375 23 30.554688 23 C 30.515625 23.1875 30.480469 23.371094 30.441406 23.5625 C 30.292969 23.601562 30.144531 23.636719 29.988281 23.675781 C 29.992188 23.570312 29.996094 23.460938 29.996094 23.351562 C 30.015625 23.011719 30.015625 23.011719 29.878906 22.773438 Z M 29.878906 22.773438 "/>
<path style=" stroke:none;fill-rule:nonzero;fill:rgb(3.529412%,22.352941%,26.274511%);fill-opacity:1;" d="M 35.851562 21.421875 C 35.628906 21.53125 35.628906 21.53125 35.402344 21.648438 C 35.402344 21.796875 35.402344 21.945312 35.402344 22.097656 C 35.289062 22.152344 35.289062 22.152344 35.175781 22.210938 C 35.109375 22.128906 35.109375 22.128906 35.042969 22.042969 C 34.777344 21.820312 34.609375 21.84375 34.273438 21.871094 C 34.3125 21.761719 34.347656 21.648438 34.386719 21.535156 C 34.566406 21.492188 34.75 21.453125 34.929688 21.414062 C 35.03125 21.390625 35.132812 21.371094 35.234375 21.347656 C 35.515625 21.308594 35.515625 21.308594 35.851562 21.421875 Z M 35.851562 21.421875 "/>
<path style=" stroke:none;fill-rule:nonzero;fill:rgb(6.27451%,67.058825%,75.294119%);fill-opacity:1;" d="M 6.425781 25.707031 C 6.636719 25.734375 6.636719 25.734375 6.878906 25.820312 C 7.039062 26.074219 7.121094 26.320312 7.214844 26.609375 C 7.140625 26.609375 7.066406 26.609375 6.988281 26.609375 C 7.074219 26.710938 7.074219 26.710938 7.160156 26.820312 C 7.328125 27.058594 7.328125 27.058594 7.328125 27.285156 C 7.253906 27.285156 7.179688 27.285156 7.101562 27.285156 C 7.101562 27.210938 7.101562 27.136719 7.101562 27.058594 C 7.027344 27.058594 6.953125 27.058594 6.878906 27.058594 C 6.800781 26.917969 6.726562 26.777344 6.652344 26.636719 C 6.609375 26.558594 6.566406 26.480469 6.523438 26.398438 C 6.425781 26.15625 6.425781 26.15625 6.425781 25.707031 Z M 6.425781 25.707031 "/>
<path style=" stroke:none;fill-rule:nonzero;fill:rgb(36.862746%,81.176472%,80.000001%);fill-opacity:1;" d="M 14.882812 24.691406 C 14.199219 25.054688 13.628906 25.246094 12.851562 25.140625 C 12.507812 25.03125 12.507812 25.03125 12.289062 24.917969 C 12.65625 24.800781 12.949219 24.808594 13.332031 24.851562 C 13.433594 24.863281 13.535156 24.875 13.636719 24.886719 C 13.714844 24.898438 13.789062 24.90625 13.867188 24.917969 C 13.867188 24.84375 13.867188 24.769531 13.867188 24.691406 C 14.253906 24.59375 14.5 24.582031 14.882812 24.691406 Z M 14.882812 24.691406 "/>
<path style=" stroke:none;fill-rule:nonzero;fill:rgb(26.274511%,37.64706%,40.784314%);fill-opacity:1;" d="M 28.976562 21.871094 C 29.292969 21.894531 29.292969 21.894531 29.652344 21.984375 C 29.929688 22.332031 30.070312 22.667969 30.101562 23.113281 C 29.996094 23.429688 29.996094 23.429688 29.878906 23.675781 C 29.804688 23.675781 29.730469 23.675781 29.652344 23.675781 C 29.613281 23.191406 29.578125 22.710938 29.539062 22.210938 C 29.261719 22.097656 29.261719 22.097656 28.976562 21.984375 C 28.976562 21.949219 28.976562 21.910156 28.976562 21.871094 Z M 28.976562 21.871094 "/>
<path style=" stroke:none;fill-rule:nonzero;fill:rgb(5.098039%,21.960784%,25.882354%);fill-opacity:1;" d="M 23.5625 19.957031 C 23.636719 19.957031 23.710938 19.957031 23.789062 19.957031 C 23.789062 20.03125 23.789062 20.105469 23.789062 20.179688 C 23.863281 20.21875 23.9375 20.253906 24.015625 20.292969 C 24.015625 20.332031 24.015625 20.367188 24.015625 20.40625 C 24.273438 20.445312 24.535156 20.480469 24.804688 20.519531 C 24.464844 20.746094 24.394531 20.777344 24.015625 20.773438 C 23.9375 20.773438 23.859375 20.773438 23.78125 20.773438 C 23.5625 20.746094 23.5625 20.746094 23.226562 20.519531 C 23.4375 20.082031 23.4375 20.082031 23.5625 19.957031 Z M 23.5625 19.957031 "/>
<path style=" stroke:none;fill-rule:nonzero;fill:rgb(5.098039%,21.568628%,25.490198%);fill-opacity:1;" d="M 29.054688 21.125 C 29.140625 21.148438 29.226562 21.171875 29.3125 21.195312 C 29.277344 21.308594 29.238281 21.417969 29.199219 21.535156 C 28.941406 21.460938 28.679688 21.386719 28.410156 21.308594 C 28.75 21.082031 28.75 21.082031 29.054688 21.125 Z M 28.523438 21.421875 C 28.5625 21.496094 28.597656 21.570312 28.636719 21.648438 C 28.703125 21.625 28.765625 21.601562 28.835938 21.578125 C 29.148438 21.523438 29.273438 21.597656 29.539062 21.761719 C 29.503906 21.835938 29.464844 21.910156 29.425781 21.984375 C 29.054688 21.984375 28.683594 21.984375 28.300781 21.984375 C 28.300781 21.835938 28.300781 21.6875 28.300781 21.535156 C 28.375 21.496094 28.449219 21.460938 28.523438 21.421875 Z M 28.523438 21.421875 "/>
<path style=" stroke:none;fill-rule:nonzero;fill:rgb(7.843138%,70.980394%,73.333335%);fill-opacity:1;" d="M 11.386719 26.496094 C 11.449219 26.503906 11.511719 26.511719 11.574219 26.519531 C 12.453125 26.621094 13.320312 26.617188 14.207031 26.609375 C 14.207031 26.644531 14.207031 26.683594 14.207031 26.71875 C 13.78125 26.757812 13.359375 26.796875 12.9375 26.832031 C 12.816406 26.84375 12.699219 26.855469 12.574219 26.867188 C 12.457031 26.875 12.34375 26.886719 12.222656 26.898438 C 12.066406 26.910156 12.066406 26.910156 11.902344 26.925781 C 11.65625 26.941406 11.410156 26.945312 11.160156 26.945312 C 11.160156 26.871094 11.160156 26.796875 11.160156 26.71875 C 11.234375 26.71875 11.3125 26.71875 11.386719 26.71875 C 11.386719 26.644531 11.386719 26.570312 11.386719 26.496094 Z M 11.386719 26.496094 "/>
<path style=" stroke:none;fill-rule:nonzero;fill:rgb(4.313726%,17.254902%,22.352941%);fill-opacity:1;" d="M 36.078125 22.660156 C 36.152344 22.660156 36.226562 22.660156 36.304688 22.660156 C 36.339844 23.292969 36.378906 23.925781 36.417969 24.578125 C 36.304688 24.617188 36.195312 24.652344 36.078125 24.691406 C 36.078125 24.019531 36.078125 23.351562 36.078125 22.660156 Z M 36.078125 22.660156 "/>
<path style=" stroke:none;fill-rule:nonzero;fill:rgb(9.411765%,26.274511%,31.37255%);fill-opacity:1;" d="M 27.734375 23.113281 C 27.808594 23.375 27.882812 23.632812 27.960938 23.902344 C 27.847656 23.863281 27.738281 23.828125 27.621094 23.789062 C 27.585938 23.863281 27.546875 23.9375 27.511719 24.015625 C 27.359375 23.976562 27.210938 23.941406 27.058594 23.902344 C 27.039062 23.632812 27.039062 23.632812 27.058594 23.339844 C 27.398438 23.113281 27.398438 23.113281 27.734375 23.113281 Z M 27.734375 23.113281 "/>
<path style=" stroke:none;fill-rule:nonzero;fill:rgb(14.901961%,78.039217%,74.901962%);fill-opacity:1;" d="M 49.71875 21.195312 C 50.15625 21.40625 50.15625 21.40625 50.285156 21.535156 C 50.300781 21.683594 50.3125 21.835938 50.320312 21.988281 C 50.324219 22.082031 50.328125 22.171875 50.335938 22.265625 C 50.339844 22.363281 50.34375 22.457031 50.347656 22.554688 C 50.351562 22.652344 50.359375 22.75 50.363281 22.847656 C 50.375 23.085938 50.386719 23.324219 50.398438 23.5625 C 50.324219 23.527344 50.25 23.488281 50.171875 23.449219 C 50.039062 22.851562 50.078125 22.355469 50.171875 21.761719 C 50.023438 21.722656 49.875 21.683594 49.71875 21.648438 C 49.71875 21.5 49.71875 21.347656 49.71875 21.195312 Z M 49.71875 21.195312 "/>
<path style=" stroke:none;fill-rule:nonzero;fill:rgb(21.176471%,35.294119%,38.431373%);fill-opacity:1;" d="M 23.226562 20.519531 C 23.597656 20.59375 23.96875 20.667969 24.351562 20.746094 C 24.050781 21.046875 23.75 21.347656 23.449219 21.648438 C 23.300781 21.238281 23.226562 20.960938 23.226562 20.519531 Z M 23.226562 20.519531 "/>
<path style=" stroke:none;fill-rule:nonzero;fill:rgb(14.509805%,78.431374%,75.294119%);fill-opacity:1;" d="M 51.074219 20.96875 C 51.371094 21.007812 51.667969 21.046875 51.976562 21.082031 C 51.9375 21.863281 51.902344 22.644531 51.863281 23.449219 C 51.824219 23.449219 51.789062 23.449219 51.75 23.449219 C 51.75 22.742188 51.75 22.039062 51.75 21.308594 C 51.527344 21.382812 51.304688 21.457031 51.074219 21.535156 C 51.074219 21.347656 51.074219 21.164062 51.074219 20.96875 Z M 51.074219 20.96875 "/>
<path style=" stroke:none;fill-rule:nonzero;fill:rgb(2.352941%,79.215688%,74.901962%);fill-opacity:1;" d="M 43.859375 22.097656 C 43.894531 22.171875 43.933594 22.246094 43.96875 22.324219 C 44.082031 22.324219 44.195312 22.324219 44.308594 22.324219 C 44.308594 22.582031 44.308594 22.84375 44.308594 23.113281 C 44.085938 23.113281 43.863281 23.113281 43.632812 23.113281 C 43.59375 23 43.558594 22.890625 43.519531 22.773438 C 43.632812 22.738281 43.742188 22.699219 43.859375 22.660156 C 43.859375 22.476562 43.859375 22.289062 43.859375 22.097656 Z M 43.859375 22.097656 "/>
<path style=" stroke:none;fill-rule:nonzero;fill:rgb(18.431373%,85.882354%,78.823531%);fill-opacity:1;" d="M 18.714844 17.699219 C 18.839844 17.769531 18.96875 17.835938 19.097656 17.90625 C 19.167969 17.941406 19.238281 17.980469 19.308594 18.019531 C 19.503906 18.152344 19.503906 18.152344 19.730469 18.488281 C 19.589844 18.667969 19.589844 18.667969 19.390625 18.828125 C 19.144531 18.792969 19.144531 18.792969 18.941406 18.714844 C 18.925781 18.609375 18.910156 18.507812 18.890625 18.398438 C 18.835938 18.039062 18.835938 18.039062 18.714844 17.699219 Z M 18.714844 17.699219 "/>
<path style=" stroke:none;fill-rule:nonzero;fill:rgb(34.509805%,82.745099%,80.392158%);fill-opacity:1;" d="M 43.519531 23.675781 C 43.855469 23.675781 44.1875 23.675781 44.535156 23.675781 C 44.570312 23.789062 44.609375 23.898438 44.648438 24.015625 C 44.4375 24.375 44.4375 24.375 44.195312 24.691406 C 44.160156 24.691406 44.121094 24.691406 44.082031 24.691406 C 44.082031 24.503906 44.082031 24.320312 44.082031 24.128906 C 44.15625 24.128906 44.230469 24.128906 44.308594 24.128906 C 44.308594 24.054688 44.308594 23.980469 44.308594 23.902344 C 44.011719 23.902344 43.714844 23.902344 43.40625 23.902344 C 43.445312 23.828125 43.480469 23.753906 43.519531 23.675781 Z M 43.519531 23.675781 "/>
</g>
</svg>
