<svg width="370" height="126" viewBox="0 0 370 126" fill="none" xmlns="http://www.w3.org/2000/svg">
<rect x="0.5" y="0.5" width="369" height="125" rx="15.5" fill="white"/>
<rect x="0.5" y="0.5" width="369" height="125" rx="15.5" stroke="#E5E7EB"/>
<rect x="12.5" y="12.5" width="133" height="101" rx="7.5" fill="white"/>
<rect x="12.5" y="12.5" width="133" height="101" rx="7.5" stroke="#E5E7EB"/>
<path d="M24.4773 26.598V25.2727H31.4403V26.598H28.7429V34H27.1747V26.598H24.4773ZM40.1942 29.6364C40.1942 30.5767 40.0181 31.3821 39.6658 32.0526C39.3164 32.7202 38.8391 33.2315 38.234 33.5866C37.6317 33.9418 36.9485 34.1193 36.1843 34.1193C35.4201 34.1193 34.7354 33.9418 34.1303 33.5866C33.5281 33.2287 33.0508 32.7159 32.6985 32.0483C32.3491 31.3778 32.1744 30.5739 32.1744 29.6364C32.1744 28.696 32.3491 27.892 32.6985 27.2244C33.0508 26.554 33.5281 26.0412 34.1303 25.6861C34.7354 25.331 35.4201 25.1534 36.1843 25.1534C36.9485 25.1534 37.6317 25.331 38.234 25.6861C38.8391 26.0412 39.3164 26.554 39.6658 27.2244C40.0181 27.892 40.1942 28.696 40.1942 29.6364ZM38.6048 29.6364C38.6048 28.9744 38.5011 28.4162 38.2937 27.9616C38.0891 27.5043 37.805 27.1591 37.4414 26.9261C37.0778 26.6903 36.6587 26.5724 36.1843 26.5724C35.7099 26.5724 35.2908 26.6903 34.9272 26.9261C34.5636 27.1591 34.2781 27.5043 34.0707 27.9616C33.8661 28.4162 33.7638 28.9744 33.7638 29.6364C33.7638 30.2983 33.8661 30.858 34.0707 31.3153C34.2781 31.7699 34.5636 32.1151 34.9272 32.3509C35.2908 32.5838 35.7099 32.7003 36.1843 32.7003C36.6587 32.7003 37.0778 32.5838 37.4414 32.3509C37.805 32.1151 38.0891 31.7699 38.2937 31.3153C38.5011 30.858 38.6048 30.2983 38.6048 29.6364ZM41.6889 34V25.2727H43.2699V29.2827H43.3764L46.7812 25.2727H48.7116L45.3366 29.1889L48.7415 34H46.8409L44.2372 30.2585L43.2699 31.4006V34H41.6889ZM49.81 34V25.2727H55.4862V26.598H51.391V28.9673H55.1921V30.2926H51.391V32.6747H55.5202V34H49.81ZM64.271 25.2727V34H62.8647L58.7525 28.0554H58.68V34H57.0991V25.2727H58.5138L62.6218 31.2216H62.6985V25.2727H64.271ZM70.5511 25.2727V34H68.9702V25.2727H70.5511ZM79.7333 28.2173H78.1396C78.0941 27.956 78.0103 27.7244 77.8881 27.5227C77.766 27.3182 77.614 27.1449 77.4322 27.0028C77.2504 26.8608 77.043 26.7543 76.81 26.6832C76.5799 26.6094 76.3313 26.5724 76.0643 26.5724C75.5898 26.5724 75.1694 26.6918 74.8029 26.9304C74.4364 27.1662 74.1495 27.5128 73.9421 27.9702C73.7347 28.4247 73.631 28.9801 73.631 29.6364C73.631 30.304 73.7347 30.8665 73.9421 31.3239C74.1523 31.7784 74.4393 32.1222 74.8029 32.3551C75.1694 32.5852 75.5884 32.7003 76.06 32.7003C76.3214 32.7003 76.5657 32.6662 76.793 32.598C77.0231 32.527 77.229 32.4233 77.4109 32.2869C77.5955 32.1506 77.7504 31.983 77.8754 31.7841C78.0032 31.5852 78.0913 31.358 78.1396 31.1023L79.7333 31.1108C79.6737 31.5256 79.5444 31.9148 79.3455 32.2784C79.1495 32.642 78.8924 32.9631 78.5742 33.2415C78.256 33.517 77.8839 33.733 77.4577 33.8892C77.0316 34.0426 76.5586 34.1193 76.0387 34.1193C75.2717 34.1193 74.587 33.9418 73.9847 33.5866C73.3825 33.2315 72.908 32.7188 72.5614 32.0483C72.2148 31.3778 72.0415 30.5739 72.0415 29.6364C72.0415 28.696 72.2163 27.892 72.5657 27.2244C72.9151 26.554 73.391 26.0412 73.9933 25.6861C74.5955 25.331 75.2773 25.1534 76.0387 25.1534C76.5245 25.1534 76.9762 25.2216 77.3938 25.358C77.8114 25.4943 78.1836 25.6946 78.5103 25.9588C78.837 26.2202 79.1055 26.5412 79.3157 26.9219C79.5288 27.2997 79.668 27.7315 79.7333 28.2173ZM88.9794 29.6364C88.9794 30.5767 88.8033 31.3821 88.451 32.0526C88.1016 32.7202 87.6243 33.2315 87.0192 33.5866C86.4169 33.9418 85.7337 34.1193 84.9695 34.1193C84.2053 34.1193 83.5206 33.9418 82.9155 33.5866C82.3132 33.2287 81.8359 32.7159 81.4837 32.0483C81.1342 31.3778 80.9595 30.5739 80.9595 29.6364C80.9595 28.696 81.1342 27.892 81.4837 27.2244C81.8359 26.554 82.3132 26.0412 82.9155 25.6861C83.5206 25.331 84.2053 25.1534 84.9695 25.1534C85.7337 25.1534 86.4169 25.331 87.0192 25.6861C87.6243 26.0412 88.1016 26.554 88.451 27.2244C88.8033 27.892 88.9794 28.696 88.9794 29.6364ZM87.3899 29.6364C87.3899 28.9744 87.2862 28.4162 87.0788 27.9616C86.8743 27.5043 86.5902 27.1591 86.2266 26.9261C85.8629 26.6903 85.4439 26.5724 84.9695 26.5724C84.495 26.5724 84.076 26.6903 83.7124 26.9261C83.3487 27.1591 83.0632 27.5043 82.8558 27.9616C82.6513 28.4162 82.549 28.9744 82.549 29.6364C82.549 30.2983 82.6513 30.858 82.8558 31.3153C83.0632 31.7699 83.3487 32.1151 83.7124 32.3509C84.076 32.5838 84.495 32.7003 84.9695 32.7003C85.4439 32.7003 85.8629 32.5838 86.2266 32.3509C86.5902 32.1151 86.8743 31.7699 87.0788 31.3153C87.2862 30.858 87.3899 30.2983 87.3899 29.6364ZM97.646 25.2727V34H96.2397L92.1275 28.0554H92.055V34H90.4741V25.2727H91.8888L95.9968 31.2216H96.0735V25.2727H97.646Z" fill="#969696"/>
<rect x="24.5" y="45.5" width="109" height="58" rx="3.5" fill="white"/>
<rect x="24.5" y="45.5" width="109" height="58" rx="3.5" stroke="#D9D9D9" stroke-dasharray="2 2"/>
<g clip-path="url(#clip0_12485_73)">
<path d="M80.5 67.6235V79C80.5 79.8297 79.8297 80.5 79 80.5C78.1703 80.5 77.5 79.8297 77.5 79V67.6235L74.0594 71.0641C73.4734 71.65 72.5219 71.65 71.9359 71.0641C71.35 70.4782 71.35 69.5266 71.9359 68.9407L77.9359 62.9407C78.5219 62.3547 79.4734 62.3547 80.0594 62.9407L86.0594 68.9407C86.6453 69.5266 86.6453 70.4782 86.0594 71.0641C85.4734 71.65 84.5219 71.65 83.9359 71.0641L80.5 67.6235ZM70 79H76C76 80.6547 77.3453 82 79 82C80.6547 82 82 80.6547 82 79H88C89.6547 79 91 80.3454 91 82V83.5C91 85.1547 89.6547 86.5 88 86.5H70C68.3453 86.5 67 85.1547 67 83.5V82C67 80.3454 68.3453 79 70 79ZM87.25 83.875C87.5484 83.875 87.8345 83.7565 88.0455 83.5455C88.2565 83.3346 88.375 83.0484 88.375 82.75C88.375 82.4517 88.2565 82.1655 88.0455 81.9546C87.8345 81.7436 87.5484 81.625 87.25 81.625C86.9516 81.625 86.6655 81.7436 86.4545 81.9546C86.2435 82.1655 86.125 82.4517 86.125 82.75C86.125 83.0484 86.2435 83.3346 86.4545 83.5455C86.6655 83.7565 86.9516 83.875 87.25 83.875Z" fill="#21BB5A"/>
</g>
<rect x="158.5" y="12.5" width="199" height="46" rx="7.5" fill="white"/>
<rect x="158.5" y="12.5" width="199" height="46" rx="7.5" stroke="#E5E7EB"/>
<path d="M166.477 24.598V23.2727H173.44V24.598H170.743V32H169.175V24.598H166.477ZM182.194 27.6364C182.194 28.5767 182.018 29.3821 181.666 30.0526C181.316 30.7202 180.839 31.2315 180.234 31.5866C179.632 31.9418 178.949 32.1193 178.184 32.1193C177.42 32.1193 176.735 31.9418 176.13 31.5866C175.528 31.2287 175.051 30.7159 174.699 30.0483C174.349 29.3778 174.174 28.5739 174.174 27.6364C174.174 26.696 174.349 25.892 174.699 25.2244C175.051 24.554 175.528 24.0412 176.13 23.6861C176.735 23.331 177.42 23.1534 178.184 23.1534C178.949 23.1534 179.632 23.331 180.234 23.6861C180.839 24.0412 181.316 24.554 181.666 25.2244C182.018 25.892 182.194 26.696 182.194 27.6364ZM180.605 27.6364C180.605 26.9744 180.501 26.4162 180.294 25.9616C180.089 25.5043 179.805 25.1591 179.441 24.9261C179.078 24.6903 178.659 24.5724 178.184 24.5724C177.71 24.5724 177.291 24.6903 176.927 24.9261C176.564 25.1591 176.278 25.5043 176.071 25.9616C175.866 26.4162 175.764 26.9744 175.764 27.6364C175.764 28.2983 175.866 28.858 176.071 29.3153C176.278 29.7699 176.564 30.1151 176.927 30.3509C177.291 30.5838 177.71 30.7003 178.184 30.7003C178.659 30.7003 179.078 30.5838 179.441 30.3509C179.805 30.1151 180.089 29.7699 180.294 29.3153C180.501 28.858 180.605 28.2983 180.605 27.6364ZM183.689 32V23.2727H185.27V27.2827H185.376L188.781 23.2727H190.712L187.337 27.1889L190.741 32H188.841L186.237 28.2585L185.27 29.4006V32H183.689ZM191.81 32V23.2727H197.486V24.598H193.391V26.9673H197.192V28.2926H193.391V30.6747H197.52V32H191.81ZM206.271 23.2727V32H204.865L200.752 26.0554H200.68V32H199.099V23.2727H200.514L204.622 29.2216H204.699V23.2727H206.271ZM218.142 23.2727V32H216.736L212.624 26.0554H212.551V32H210.97V23.2727H212.385L216.493 29.2216H216.57V23.2727H218.142ZM220.985 32H219.298L222.37 23.2727H224.322L227.399 32H225.711L223.38 25.0625H223.312L220.985 32ZM221.041 28.5781H225.643V29.848H221.041V28.5781ZM228.548 23.2727H230.483L233.074 29.5966H233.176L235.767 23.2727H237.702V32H236.185V26.0043H236.104L233.692 31.9744H232.558L230.146 25.9915H230.065V32H228.548V23.2727ZM239.423 32V23.2727H245.099V24.598H241.004V26.9673H244.805V28.2926H241.004V30.6747H245.134V32H239.423Z" fill="#969696"/>
<rect x="166" y="39" width="184" height="12" rx="4" fill="#D9D9D9"/>
<rect x="158.5" y="67.5" width="199" height="46" rx="7.5" fill="white"/>
<rect x="158.5" y="67.5" width="199" height="46" rx="7.5" stroke="#E5E7EB"/>
<path d="M166.477 79.598V78.2727H173.44V79.598H170.743V87H169.175V79.598H166.477ZM182.194 82.6364C182.194 83.5767 182.018 84.3821 181.666 85.0526C181.316 85.7202 180.839 86.2315 180.234 86.5866C179.632 86.9418 178.949 87.1193 178.184 87.1193C177.42 87.1193 176.735 86.9418 176.13 86.5866C175.528 86.2287 175.051 85.7159 174.699 85.0483C174.349 84.3778 174.174 83.5739 174.174 82.6364C174.174 81.696 174.349 80.892 174.699 80.2244C175.051 79.554 175.528 79.0412 176.13 78.6861C176.735 78.331 177.42 78.1534 178.184 78.1534C178.949 78.1534 179.632 78.331 180.234 78.6861C180.839 79.0412 181.316 79.554 181.666 80.2244C182.018 80.892 182.194 81.696 182.194 82.6364ZM180.605 82.6364C180.605 81.9744 180.501 81.4162 180.294 80.9616C180.089 80.5043 179.805 80.1591 179.441 79.9261C179.078 79.6903 178.659 79.5724 178.184 79.5724C177.71 79.5724 177.291 79.6903 176.927 79.9261C176.564 80.1591 176.278 80.5043 176.071 80.9616C175.866 81.4162 175.764 81.9744 175.764 82.6364C175.764 83.2983 175.866 83.858 176.071 84.3153C176.278 84.7699 176.564 85.1151 176.927 85.3509C177.291 85.5838 177.71 85.7003 178.184 85.7003C178.659 85.7003 179.078 85.5838 179.441 85.3509C179.805 85.1151 180.089 84.7699 180.294 84.3153C180.501 83.858 180.605 83.2983 180.605 82.6364ZM183.689 87V78.2727H185.27V82.2827H185.376L188.781 78.2727H190.712L187.337 82.1889L190.741 87H188.841L186.237 83.2585L185.27 84.4006V87H183.689ZM191.81 87V78.2727H197.486V79.598H193.391V81.9673H197.192V83.2926H193.391V85.6747H197.52V87H191.81ZM206.271 78.2727V87H204.865L200.752 81.0554H200.68V87H199.099V78.2727H200.514L204.622 84.2216H204.699V78.2727H206.271ZM215.713 80.6719C215.673 80.2997 215.506 80.0099 215.21 79.8026C214.918 79.5952 214.537 79.4915 214.068 79.4915C213.739 79.4915 213.456 79.5412 213.22 79.6406C212.984 79.7401 212.804 79.875 212.679 80.0455C212.554 80.2159 212.49 80.4105 212.487 80.6293C212.487 80.8111 212.528 80.9687 212.611 81.1023C212.696 81.2358 212.811 81.3494 212.956 81.4432C213.101 81.5341 213.261 81.6108 213.438 81.6733C213.614 81.7358 213.791 81.7884 213.97 81.831L214.788 82.0355C215.118 82.1122 215.435 82.2159 215.739 82.3466C216.045 82.4773 216.32 82.642 216.561 82.8409C216.805 83.0398 216.999 83.2798 217.141 83.5611C217.283 83.8423 217.354 84.1719 217.354 84.5497C217.354 85.0611 217.223 85.5114 216.962 85.9006C216.7 86.2869 216.322 86.5895 215.828 86.8082C215.337 87.0241 214.741 87.1321 214.043 87.1321C213.364 87.1321 212.774 87.027 212.274 86.8168C211.777 86.6065 211.388 86.2997 211.107 85.8963C210.828 85.4929 210.678 85.0014 210.655 84.4219H212.21C212.233 84.7259 212.327 84.9787 212.491 85.1804C212.656 85.3821 212.871 85.5327 213.135 85.6321C213.402 85.7315 213.7 85.7812 214.03 85.7812C214.374 85.7812 214.675 85.7301 214.933 85.6278C215.195 85.5227 215.399 85.3778 215.547 85.1932C215.695 85.0057 215.77 84.7869 215.773 84.5369C215.77 84.3097 215.703 84.1222 215.572 83.9744C215.442 83.8239 215.259 83.6989 215.023 83.5994C214.79 83.4972 214.517 83.4062 214.205 83.3267L213.212 83.071C212.493 82.8864 211.925 82.6065 211.507 82.2315C211.092 81.8537 210.885 81.3523 210.885 80.7273C210.885 80.2131 211.024 79.7628 211.303 79.3764C211.584 78.9901 211.966 78.6903 212.449 78.4773C212.932 78.2614 213.479 78.1534 214.089 78.1534C214.709 78.1534 215.251 78.2614 215.717 78.4773C216.186 78.6903 216.554 78.9872 216.821 79.3679C217.088 79.7457 217.226 80.1804 217.234 80.6719H215.713ZM218.167 78.2727H219.952L222.087 82.1335H222.172L224.307 78.2727H226.093L222.918 83.7443V87H221.341V83.7443L218.167 78.2727ZM227.212 78.2727H229.147L231.738 84.5966H231.84L234.431 78.2727H236.366V87H234.849V81.0043H234.768L232.356 86.9744H231.222L228.81 80.9915H228.729V87H227.212V78.2727ZM238.087 87V78.2727H241.428C242.059 78.2727 242.583 78.3722 243.001 78.571C243.421 78.767 243.735 79.0355 243.942 79.3764C244.153 79.7173 244.258 80.1037 244.258 80.5355C244.258 80.8906 244.19 81.1946 244.053 81.4474C243.917 81.6974 243.734 81.9006 243.504 82.0568C243.273 82.2131 243.016 82.3253 242.732 82.3935V82.4787C243.042 82.4957 243.339 82.5909 243.623 82.7642C243.91 82.9347 244.144 83.1761 244.326 83.4886C244.508 83.8011 244.599 84.179 244.599 84.6222C244.599 85.0739 244.489 85.4801 244.271 85.8409C244.052 86.1989 243.722 86.4815 243.282 86.6889C242.842 86.8963 242.288 87 241.62 87H238.087ZM239.668 85.679H241.369C241.942 85.679 242.356 85.5696 242.609 85.3509C242.864 85.1293 242.992 84.8452 242.992 84.4986C242.992 84.2401 242.928 84.0071 242.8 83.7997C242.673 83.5895 242.491 83.4247 242.255 83.3054C242.019 83.1832 241.738 83.1222 241.411 83.1222H239.668V85.679ZM239.668 81.9844H241.232C241.505 81.9844 241.751 81.9347 241.969 81.8352C242.188 81.733 242.36 81.5895 242.485 81.4048C242.613 81.2173 242.677 80.9957 242.677 80.7401C242.677 80.402 242.558 80.1236 242.319 79.9048C242.083 79.6861 241.732 79.5767 241.266 79.5767H239.668V81.9844ZM253.772 82.6364C253.772 83.5767 253.596 84.3821 253.244 85.0526C252.895 85.7202 252.417 86.2315 251.812 86.5866C251.21 86.9418 250.527 87.1193 249.762 87.1193C248.998 87.1193 248.314 86.9418 247.708 86.5866C247.106 86.2287 246.629 85.7159 246.277 85.0483C245.927 84.3778 245.752 83.5739 245.752 82.6364C245.752 81.696 245.927 80.892 246.277 80.2244C246.629 79.554 247.106 79.0412 247.708 78.6861C248.314 78.331 248.998 78.1534 249.762 78.1534C250.527 78.1534 251.21 78.331 251.812 78.6861C252.417 79.0412 252.895 79.554 253.244 80.2244C253.596 80.892 253.772 81.696 253.772 82.6364ZM252.183 82.6364C252.183 81.9744 252.079 81.4162 251.872 80.9616C251.667 80.5043 251.383 80.1591 251.02 79.9261C250.656 79.6903 250.237 79.5724 249.762 79.5724C249.288 79.5724 248.869 79.6903 248.505 79.9261C248.142 80.1591 247.856 80.5043 247.649 80.9616C247.444 81.4162 247.342 81.9744 247.342 82.6364C247.342 83.2983 247.444 83.858 247.649 84.3153C247.856 84.7699 248.142 85.1151 248.505 85.3509C248.869 85.5838 249.288 85.7003 249.762 85.7003C250.237 85.7003 250.656 85.5838 251.02 85.3509C251.383 85.1151 251.667 84.7699 251.872 84.3153C252.079 83.858 252.183 83.2983 252.183 82.6364ZM255.267 87V78.2727H256.848V85.6747H260.692V87H255.267Z" fill="#969696"/>
<rect x="166" y="94" width="184" height="12" rx="4" fill="#D9D9D9"/>
<defs>
<clipPath id="clip0_12485_73">
<rect width="24" height="24" fill="white" transform="translate(67 62.5)"/>
</clipPath>
</defs>
</svg>
