<svg width="442" height="224" viewBox="0 0 442 224" fill="none" xmlns="http://www.w3.org/2000/svg">
<g clip-path="url(#clip0_9680_481)" filter="url(#filter0_i_9680_481)">
<rect width="442" height="224" fill="url(#paint0_radial_9680_481)"/>
<path d="M355 100.644L355 406.342C355 424.375 340.375 439 322.342 439H119.658C101.625 439 87 424.375 87 406.342L87 100.644C87 82.6107 101.625 67.9858 119.658 67.9858H322.342C340.375 67.9858 355 82.6107 355 100.644Z" fill="white"/>
<path d="M162.085 84.0352V85.2747H124.696C112.777 85.2747 103.089 94.9626 103.089 106.882L103.089 164.245H101.85L101.85 106.882C101.85 94.281 112.096 84.0352 124.696 84.0352H162.085ZM101.871 195.788L101.871 252.821H103.11L103.11 195.788H101.871ZM338.886 400.124C338.886 412.043 329.198 421.731 317.279 421.731H124.696C112.798 421.71 103.11 412.022 103.11 400.124L103.11 286.843H101.871L101.871 400.124C101.871 412.724 112.116 422.97 124.717 422.97H317.299C329.9 422.97 340.146 412.724 340.146 400.124H338.886ZM317.279 84.0352H270.388V85.2747H317.279C329.198 85.2747 338.886 94.9626 338.886 106.882V338.959H340.125V106.861C340.125 94.281 329.879 84.0352 317.279 84.0352ZM166.753 211.694L166.753 106.159H165.514L165.514 212.21L182.432 229.128L182.432 335.675L147.605 370.523L148.472 371.39L183.671 336.191L183.671 228.611L166.753 211.694ZM177.35 195.354L176.483 196.222L203.068 222.807L203.068 309.42H204.307L204.307 222.311L177.35 195.354ZM267.785 106.159V178.622L230.5 215.887L230.314 216.073V282.918H231.553V216.589L268.839 179.325L269.025 179.139V106.159H267.785ZM249.05 227.351L249.05 320.513L197.077 372.506L197.945 373.374L250.103 321.215L250.289 321.029L250.289 227.351H249.05ZM252.189 338.959V352.407L223.167 381.45L222.981 381.636V405.371H224.22V382.153L253.264 353.109L253.449 352.923V338.959H252.189ZM146.84 191.512V229.892L132.959 243.773L132.959 329.623L144.341 341.004L145.208 340.137L134.198 329.127L134.198 244.29L148.08 230.409V191.512H146.84ZM276.213 364.842V227.62L298.213 205.621L298.398 205.435V106.159H297.159V204.918L275.16 226.918L274.974 227.103V365.359L315.42 405.805L316.287 404.937L276.213 364.842ZM124.077 135.181L124.077 101.593H122.837L122.837 135.677L149.794 162.655L150.662 161.787L124.077 135.181ZM302.633 222.807V240.22L293.028 249.826V332.907H294.267V250.342L303.872 240.737V222.807H302.633ZM321.451 164.225V336.811L298.027 360.236L298.894 361.103L322.691 337.307V164.204H321.451V164.225ZM120.544 371.907L120.544 332.907H119.305L119.305 372.423L141.945 395.063L142.812 394.195L120.544 371.907ZM102.49 280.997C100.611 280.997 99.082 282.525 99.082 284.405C99.082 286.285 100.611 287.813 102.49 287.813C104.37 287.813 105.899 286.285 105.899 284.405C105.899 282.525 104.37 280.997 102.49 280.997ZM102.49 282.216C103.688 282.216 104.659 283.186 104.659 284.384C104.659 285.583 103.688 286.553 102.49 286.553C101.292 286.553 100.321 285.583 100.321 284.384C100.301 283.207 101.292 282.216 102.49 282.216ZM102.49 190.335C100.611 190.335 99.082 191.863 99.082 193.743C99.082 195.623 100.611 197.151 102.49 197.151C104.37 197.151 105.899 195.623 105.899 193.743C105.899 191.863 104.37 190.335 102.49 190.335ZM102.49 191.574C103.688 191.574 104.659 192.545 104.659 193.743C104.659 194.941 103.688 195.912 102.49 195.912C101.292 195.912 100.321 194.941 100.321 193.743C100.301 192.545 101.292 191.574 102.49 191.574ZM102.49 163.088C100.611 163.088 99.082 164.617 99.082 166.497C99.082 168.377 100.611 169.905 102.49 169.905C104.37 169.905 105.899 168.377 105.899 166.497C105.899 164.617 104.37 163.088 102.49 163.088ZM102.49 164.307C103.688 164.307 104.659 165.278 104.659 166.476C104.659 167.674 103.688 168.645 102.49 168.645C101.292 168.645 100.321 167.674 100.321 166.476C100.301 165.299 101.292 164.307 102.49 164.307ZM151.88 160.279C150.001 160.279 148.472 161.808 148.472 163.687C148.472 165.567 150.001 167.096 151.88 167.096C153.76 167.096 155.289 165.567 155.289 163.687C155.289 161.808 153.76 160.279 151.88 160.279ZM151.88 161.518C153.079 161.518 154.049 162.489 154.049 163.687C154.049 164.886 153.079 165.856 151.88 165.856C150.682 165.856 149.712 164.886 149.712 163.687C149.691 162.489 150.682 161.518 151.88 161.518ZM175.285 191.12C173.405 191.12 171.876 192.648 171.876 194.528C171.876 196.408 173.405 197.936 175.285 197.936C177.164 197.936 178.693 196.408 178.693 194.528C178.693 192.648 177.164 191.12 175.285 191.12ZM175.285 192.359C176.483 192.359 177.453 193.33 177.453 194.528C177.453 195.726 176.483 196.697 175.285 196.697C174.086 196.697 173.116 195.726 173.116 194.528C173.116 193.33 174.086 192.359 175.285 192.359ZM147.46 185.191C145.58 185.191 144.052 186.72 144.052 188.599C144.052 190.479 145.58 192.008 147.46 192.008C149.34 192.008 150.868 190.479 150.868 188.599C150.868 186.72 149.34 185.191 147.46 185.191ZM147.46 186.43C148.658 186.43 149.629 187.401 149.629 188.599C149.629 189.798 148.658 190.768 147.46 190.768C146.262 190.768 145.291 189.798 145.291 188.599C145.27 187.401 146.262 186.43 147.46 186.43ZM123.457 95.4171C121.577 95.4171 120.049 96.9457 120.049 98.8254C120.049 100.705 121.577 102.234 123.457 102.234C125.337 102.234 126.865 100.705 126.865 98.8254C126.865 96.9457 125.337 95.4171 123.457 95.4171ZM123.457 96.6358C124.655 96.6358 125.626 97.6067 125.626 98.8048C125.626 100.003 124.655 100.974 123.457 100.974C122.259 100.974 121.288 100.003 121.288 98.8048C121.288 97.6067 122.259 96.6358 123.457 96.6358ZM165.803 99.9615C163.923 99.9615 162.395 101.49 162.395 103.37C162.395 105.25 163.923 106.778 165.803 106.778C167.683 106.778 169.211 105.25 169.211 103.37C169.211 101.49 167.683 99.9615 165.803 99.9615ZM165.803 101.18C167.001 101.18 167.972 102.151 167.972 103.349C167.972 104.547 167.001 105.518 165.803 105.518C164.605 105.518 163.634 104.547 163.634 103.349C163.634 102.151 164.605 101.18 165.803 101.18ZM164.874 81.2466C162.994 81.2466 161.465 82.7752 161.465 84.655C161.465 86.5347 162.994 88.0633 164.874 88.0633C166.753 88.0633 168.282 86.5347 168.282 84.655C168.282 82.7752 166.753 81.2466 164.874 81.2466ZM164.874 82.4654C166.072 82.4654 167.043 83.4362 167.043 84.6343C167.043 85.8324 166.072 86.8033 164.874 86.8033C163.675 86.8033 162.705 85.8324 162.705 84.6343C162.684 83.4569 163.675 82.4654 164.874 82.4654ZM268.405 81.2466C266.525 81.2466 264.997 82.7752 264.997 84.655C264.997 86.5347 266.525 88.0633 268.405 88.0633C270.285 88.0633 271.813 86.5347 271.813 84.655C271.813 82.7752 270.285 81.2466 268.405 81.2466ZM268.405 82.4654C269.603 82.4654 270.574 83.4362 270.574 84.6343C270.574 85.8324 269.603 86.8033 268.405 86.8033C267.207 86.8033 266.236 85.8324 266.236 84.6343C266.215 83.4569 267.207 82.4654 268.405 82.4654ZM268.405 99.9615C266.525 99.9615 264.997 101.49 264.997 103.37C264.997 105.25 266.525 106.778 268.405 106.778C270.285 106.778 271.813 105.25 271.813 103.37C271.813 101.49 270.285 99.9615 268.405 99.9615ZM268.405 101.18C269.603 101.18 270.574 102.151 270.574 103.349C270.574 104.547 269.603 105.518 268.405 105.518C267.207 105.518 266.236 104.547 266.236 103.349C266.236 102.151 267.207 101.18 268.405 101.18ZM297.655 99.9615C295.775 99.9615 294.246 101.49 294.246 103.37C294.246 105.25 295.775 106.778 297.655 106.778C299.535 106.778 301.063 105.25 301.063 103.37C301.063 101.49 299.535 99.9615 297.655 99.9615ZM297.655 101.18C298.853 101.18 299.824 102.151 299.824 103.349C299.824 104.547 298.853 105.518 297.655 105.518C296.457 105.518 295.486 104.547 295.486 103.349C295.486 102.151 296.457 101.18 297.655 101.18ZM339.505 338.34C337.626 338.34 336.097 339.868 336.097 341.748C336.097 343.628 337.626 345.156 339.505 345.156C341.385 345.156 342.914 343.628 342.914 341.748C342.914 339.889 341.385 338.34 339.505 338.34ZM339.505 339.579C340.703 339.579 341.674 340.55 341.674 341.748C341.674 342.946 340.703 343.917 339.505 343.917C338.307 343.917 337.336 342.946 337.336 341.748C337.336 340.55 338.307 339.579 339.505 339.579ZM322.05 158.028C320.171 158.028 318.642 159.556 318.642 161.436C318.642 163.316 320.171 164.844 322.05 164.844C323.93 164.844 325.459 163.316 325.459 161.436C325.459 159.556 323.93 158.028 322.05 158.028ZM322.05 159.267C323.248 159.267 324.219 160.238 324.219 161.436C324.219 162.634 323.248 163.605 322.05 163.605C320.852 163.605 319.881 162.634 319.881 161.436C319.881 160.238 320.852 159.267 322.05 159.267ZM339.505 394.133C337.626 394.133 336.097 395.662 336.097 397.542C336.097 399.422 337.626 400.95 339.505 400.95C341.385 400.95 342.914 399.422 342.914 397.542C342.914 395.662 341.385 394.133 339.505 394.133ZM339.505 395.373C340.703 395.373 341.674 396.344 341.674 397.542C341.674 398.74 340.703 399.711 339.505 399.711C338.307 399.711 337.336 398.74 337.336 397.542C337.336 396.344 338.307 395.373 339.505 395.373ZM317.754 403.863C315.874 403.863 314.345 405.391 314.345 407.271C314.345 409.151 315.874 410.679 317.754 410.679C319.634 410.679 321.162 409.151 321.162 407.271C321.162 405.391 319.634 403.863 317.754 403.863ZM317.754 405.102C318.952 405.102 319.923 406.073 319.923 407.271C319.923 408.469 318.952 409.44 317.754 409.44C316.556 409.44 315.585 408.469 315.585 407.271C315.585 406.073 316.556 405.102 317.754 405.102ZM296.436 358.976C294.556 358.976 293.028 360.504 293.028 362.384C293.028 364.264 294.556 365.793 296.436 365.793C298.316 365.793 299.844 364.264 299.844 362.384C299.865 360.504 298.337 358.976 296.436 358.976ZM296.436 360.195C297.634 360.195 298.605 361.165 298.605 362.363C298.605 363.562 297.634 364.532 296.436 364.532C295.238 364.532 294.267 363.562 294.267 362.363C294.267 361.186 295.238 360.195 296.436 360.195ZM293.647 332.287C291.768 332.287 290.239 333.816 290.239 335.696C290.239 337.575 291.768 339.104 293.647 339.104C295.527 339.104 297.056 337.575 297.056 335.696C297.056 333.816 295.527 332.287 293.647 332.287ZM293.647 333.527C294.846 333.527 295.816 334.498 295.816 335.696C295.816 336.894 294.846 337.865 293.647 337.865C292.449 337.865 291.478 336.894 291.478 335.696C291.478 334.498 292.449 333.527 293.647 333.527ZM303.253 216.61C301.373 216.61 299.844 218.138 299.844 220.018C299.844 221.898 301.373 223.427 303.253 223.427C305.133 223.427 306.661 221.898 306.661 220.018C306.661 218.138 305.133 216.61 303.253 216.61ZM303.253 217.849C304.451 217.849 305.422 218.82 305.422 220.018C305.422 221.216 304.451 222.187 303.253 222.187C302.055 222.187 301.084 221.216 301.084 220.018C301.063 218.82 302.055 217.849 303.253 217.849ZM119.925 326.71C118.045 326.71 116.516 328.239 116.516 330.118C116.516 331.998 118.045 333.527 119.925 333.527C121.804 333.527 123.333 331.998 123.333 330.118C123.333 328.239 121.804 326.71 119.925 326.71ZM119.925 327.929C121.123 327.929 122.094 328.9 122.094 330.098C122.094 331.296 121.123 332.267 119.925 332.267C118.726 332.267 117.756 331.296 117.756 330.098C117.756 328.92 118.726 327.929 119.925 327.929ZM146.344 339.021C144.465 339.021 142.936 340.55 142.936 342.43C142.936 344.31 144.465 345.838 146.344 345.838C148.224 345.838 149.753 344.31 149.753 342.43C149.753 340.55 148.224 339.021 146.344 339.021ZM146.344 340.261C147.543 340.261 148.513 341.232 148.513 342.43C148.513 343.628 147.543 344.599 146.344 344.599C145.146 344.599 144.176 343.628 144.176 342.43C144.176 341.232 145.126 340.261 146.344 340.261ZM195.631 371.762C193.752 371.762 192.223 373.291 192.223 375.171C192.223 377.05 193.752 378.579 195.631 378.579C197.511 378.579 199.04 377.05 199.04 375.171C199.04 373.291 197.511 371.762 195.631 371.762ZM195.631 372.981C196.829 372.981 197.8 373.952 197.8 375.15C197.8 376.348 196.829 377.319 195.631 377.319C194.433 377.319 193.462 376.348 193.462 375.15C193.442 373.973 194.413 372.981 195.631 372.981ZM223.601 404.751C221.721 404.751 220.192 406.28 220.192 408.159C220.192 410.039 221.721 411.568 223.601 411.568C225.48 411.568 227.009 410.039 227.009 408.159C227.009 406.28 225.48 404.751 223.601 404.751ZM223.601 405.99C224.799 405.99 225.77 406.961 225.77 408.159C225.77 409.357 224.799 410.328 223.601 410.328C222.402 410.328 221.432 409.357 221.432 408.159C221.411 406.961 222.402 405.99 223.601 405.99ZM252.809 333.134C250.929 333.134 249.401 334.663 249.401 336.543C249.401 338.422 250.929 339.951 252.809 339.951C254.689 339.951 256.217 338.422 256.217 336.543C256.217 334.663 254.689 333.134 252.809 333.134ZM252.809 334.374C254.007 334.374 254.978 335.345 254.978 336.543C254.978 337.741 254.007 338.712 252.809 338.712C251.611 338.712 250.64 337.741 250.64 336.543C250.64 335.345 251.611 334.374 252.809 334.374ZM203.667 308.057C201.787 308.057 200.258 309.586 200.258 311.465C200.258 313.345 201.787 314.874 203.667 314.874C205.547 314.874 207.075 313.345 207.075 311.465C207.096 309.586 205.547 308.057 203.667 308.057ZM203.667 309.296C204.865 309.296 205.836 310.267 205.836 311.465C205.836 312.663 204.865 313.634 203.667 313.634C202.469 313.634 201.498 312.663 201.498 311.465C201.498 310.267 202.469 309.296 203.667 309.296ZM230.954 282.298C229.075 282.298 227.546 283.827 227.546 285.707C227.546 287.586 229.075 289.115 230.954 289.115C232.834 289.115 234.363 287.586 234.363 285.707C234.363 283.827 232.834 282.298 230.954 282.298ZM230.954 283.517C232.152 283.517 233.123 284.488 233.123 285.686C233.123 286.884 232.152 287.855 230.954 287.855C229.756 287.855 228.785 286.884 228.785 285.686C228.765 284.508 229.736 283.517 230.954 283.517ZM249.669 221.154C247.79 221.154 246.261 222.683 246.261 224.563C246.261 226.442 247.79 227.971 249.669 227.971C251.549 227.971 253.078 226.442 253.078 224.563C253.078 222.683 251.549 221.154 249.669 221.154ZM249.669 222.394C250.867 222.394 251.838 223.365 251.838 224.563C251.838 225.761 250.867 226.732 249.669 226.732C248.471 226.732 247.5 225.761 247.5 224.563C247.5 223.365 248.471 222.394 249.669 222.394ZM143.928 392.626C142.048 392.626 140.519 394.154 140.519 396.034C140.519 397.914 142.048 399.442 143.928 399.442C145.807 399.442 147.336 397.914 147.336 396.034C147.336 394.154 145.807 392.626 143.928 392.626ZM143.928 393.844C145.126 393.844 146.097 394.815 146.097 396.013C146.097 397.211 145.126 398.182 143.928 398.182C142.73 398.182 141.759 397.211 141.759 396.013C141.759 394.836 142.73 393.844 143.928 393.844ZM146.344 368.664C144.465 368.664 142.936 370.192 142.936 372.072C142.936 373.952 144.465 375.48 146.344 375.48C148.224 375.48 149.753 373.952 149.753 372.072C149.753 370.192 148.224 368.664 146.344 368.664ZM146.344 369.903C147.543 369.903 148.513 370.874 148.513 372.072C148.513 373.27 147.543 374.241 146.344 374.241C145.146 374.241 144.176 373.27 144.176 372.072C144.155 370.874 145.126 369.903 146.344 369.903ZM102.49 251.768C100.611 251.768 99.082 253.296 99.082 255.176C99.082 257.056 100.611 258.584 102.49 258.584C104.37 258.584 105.899 257.056 105.899 255.176C105.899 253.296 104.37 251.768 102.49 251.768ZM102.49 253.007C103.688 253.007 104.659 253.978 104.659 255.176C104.659 256.374 103.688 257.345 102.49 257.345C101.292 257.345 100.321 256.374 100.321 255.176C100.301 253.978 101.292 253.007 102.49 253.007Z" fill="url(#paint1_linear_9680_481)"/>
<path d="M256.012 150.134V67.5276C256.012 57.7364 248.08 49.8042 238.289 49.8042H203.689C193.898 49.8042 185.965 57.7364 185.965 67.5276V150.134C185.965 169.386 201.726 185.147 220.979 185.147C240.251 185.147 256.012 169.386 256.012 150.134Z" fill="#22C55E"/>
<path d="M220.998 125.161C207.303 125.161 196.21 136.254 196.21 149.949C196.21 163.645 207.303 174.737 220.998 174.737C234.694 174.737 245.786 163.645 245.786 149.949C245.786 136.274 234.714 125.161 221.019 125.161H220.998ZM224.179 159.493L222.609 161.083C219.077 164.615 213.376 164.615 209.864 161.083C206.353 157.551 206.332 151.85 209.864 148.338L211.455 146.768C212.405 145.962 213.83 146.066 214.636 147.016C215.359 147.863 215.359 149.102 214.636 149.949L213.045 151.54C211.29 153.296 211.29 156.146 213.045 157.923C214.801 159.699 217.652 159.678 219.428 157.923L221.019 156.332C221.969 155.526 223.394 155.63 224.2 156.58C224.902 157.406 224.902 158.666 224.179 159.493ZM224.985 149.164L220.213 153.936C219.325 154.824 217.9 154.824 217.011 153.936C216.123 153.048 216.123 151.622 217.011 150.734L221.783 145.962C222.671 145.074 224.097 145.074 224.985 145.962C225.873 146.851 225.873 148.276 224.985 149.164ZM232.153 151.54L230.562 153.11C229.612 153.915 228.187 153.812 227.381 152.862C226.658 152.015 226.658 150.775 227.381 149.929L228.972 148.338C230.728 146.582 230.728 143.732 228.972 141.955C227.216 140.179 224.365 140.199 222.589 141.955L220.998 143.546C220.048 144.351 218.623 144.248 217.817 143.298C217.094 142.451 217.094 141.211 217.817 140.364L219.387 138.774C222.919 135.242 228.621 135.242 232.132 138.774C235.644 142.306 235.685 148.028 232.153 151.54Z" fill="white"/>
</g>
<defs>
<filter id="filter0_i_9680_481" x="0" y="0" width="442" height="224" filterUnits="userSpaceOnUse" color-interpolation-filters="sRGB">
<feFlood flood-opacity="0" result="BackgroundImageFix"/>
<feBlend mode="normal" in="SourceGraphic" in2="BackgroundImageFix" result="shape"/>
<feColorMatrix in="SourceAlpha" type="matrix" values="0 0 0 0 0 0 0 0 0 0 0 0 0 0 0 0 0 0 127 0" result="hardAlpha"/>
<feOffset/>
<feGaussianBlur stdDeviation="2"/>
<feComposite in2="hardAlpha" operator="arithmetic" k2="-1" k3="1"/>
<feColorMatrix type="matrix" values="0 0 0 0 0 0 0 0 0 0 0 0 0 0 0 0 0 0 0.08 0"/>
<feBlend mode="normal" in2="shape" result="effect1_innerShadow_9680_481"/>
</filter>
<radialGradient id="paint0_radial_9680_481" cx="0" cy="0" r="1" gradientUnits="userSpaceOnUse" gradientTransform="translate(221 112) rotate(90) scale(112 221)">
<stop stop-color="#F59E0B" stop-opacity="0"/>
<stop offset="1" stop-color="#F59E0B" stop-opacity="0.2"/>
</radialGradient>
<linearGradient id="paint1_linear_9680_481" x1="220.994" y1="422.951" x2="220.994" y2="81.2407" gradientUnits="userSpaceOnUse">
<stop stop-color="white"/>
<stop offset="1" stop-color="#C5C5C5"/>
</linearGradient>
<clipPath id="clip0_9680_481">
<rect width="442" height="224" fill="white"/>
</clipPath>
</defs>
</svg>
