<svg width="442" height="224" viewBox="0 0 442 224" fill="none" xmlns="http://www.w3.org/2000/svg">
<g clip-path="url(#clip0_9680_585)" filter="url(#filter0_i_9680_585)">
<rect width="442" height="224" fill="url(#paint0_radial_9680_585)"/>
<g filter="url(#filter1_d_9680_585)">
<rect x="101" y="40" width="240" height="274" rx="16" fill="white" shape-rendering="crispEdges"/>
<rect x="102" y="41" width="238" height="272" rx="15" stroke="#D4D4D4" stroke-width="2" shape-rendering="crispEdges"/>
<path d="M193.419 103.304H197.325C198.412 103.304 199.408 102.641 199.8 101.655C199.896 101.406 200.002 101.162 200.108 100.919C200.537 99.9435 200.304 98.7669 199.53 97.9931L196.769 95.2319C195.831 94.2885 195.831 92.7621 196.769 91.8187L202.821 85.7557C203.76 84.8176 205.291 84.8123 206.235 85.7557L208.996 88.5169C209.77 89.2907 210.946 89.5239 211.921 89.0946C212.165 88.9886 212.409 88.8879 212.658 88.7872C213.644 88.395 214.312 87.4039 214.312 86.3122V82.4114C214.312 81.0812 215.393 80 216.723 80H225.288C226.618 80 227.699 81.0812 227.699 82.4114V86.3175C227.699 87.4039 228.362 88.4003 229.353 88.7925C229.602 88.8879 229.846 88.9939 230.089 89.0999C231.065 89.5292 232.241 89.296 233.015 88.5222L235.776 85.761C236.714 84.8176 238.246 84.8176 239.189 85.761L245.247 91.8134C246.185 92.7568 246.185 94.2832 245.247 95.2266L242.48 97.9878C241.707 98.7616 241.479 99.9382 241.903 100.913C242.009 101.157 242.109 101.401 242.21 101.65C242.602 102.636 243.593 103.298 244.685 103.298H248.591C249.922 103.304 251.003 104.385 251.003 105.715V114.285C251.003 115.615 249.922 116.696 248.591 116.696H244.685C243.599 116.696 242.602 117.359 242.21 118.345C242.115 118.594 242.009 118.838 241.903 119.081C241.473 120.062 241.707 121.233 242.48 122.007L245.247 124.773C246.185 125.717 246.185 127.243 245.247 128.187L239.189 134.244C238.251 135.188 236.719 135.188 235.776 134.244L233.015 131.478C232.501 130.964 231.807 130.688 231.112 130.688C230.762 130.688 230.413 130.757 230.089 130.9C229.846 131.006 229.602 131.107 229.353 131.207C228.367 131.6 227.699 132.591 227.699 133.683V137.589C227.699 138.919 226.618 140 225.288 140H216.718C215.387 140 214.306 138.919 214.306 137.589V133.683C214.306 132.596 213.644 131.6 212.653 131.207C212.409 131.107 212.16 131.006 211.916 130.9C210.941 130.471 209.764 130.704 208.99 131.478L206.229 134.244C205.286 135.188 203.76 135.188 202.816 134.244L196.758 128.187C195.82 127.243 195.82 125.717 196.758 124.773L199.52 122.007C200.293 121.233 200.527 120.057 200.097 119.081C199.991 118.838 199.891 118.594 199.79 118.345C199.398 117.359 198.407 116.696 197.315 116.696H193.409C192.079 116.696 190.997 115.615 190.997 114.285V105.715C191.008 104.385 192.089 103.304 193.419 103.304ZM208.476 111.02C208.953 117.099 213.903 122.049 219.982 122.526C223.671 122.818 227.286 121.493 229.893 118.885C232.501 116.278 233.826 112.668 233.534 108.974C233.057 102.89 228.107 97.9454 222.023 97.4631C221.689 97.4366 221.355 97.426 221.021 97.426C217.682 97.426 214.486 98.7404 212.117 101.109C209.51 103.717 208.185 107.326 208.476 111.02Z" fill="#22C55E"/>
<rect x="141" y="160" width="160" height="32" rx="16" fill="#C5C5C5"/>
<rect x="161" y="212" width="120" height="6" rx="3" fill="#C5C5C5"/>
</g>
<path d="M315.817 110.5H406.702C409.639 110.5 412.019 108.119 412.019 105.183V34.8173C412.019 31.8806 409.639 29.5 406.702 29.5H315.817C312.881 29.5 310.5 31.8806 310.5 34.8173V105.183C310.5 108.119 312.881 110.5 315.817 110.5Z" fill="url(#paint1_linear_9680_585)" stroke="#D4D4D4"/>
<path d="M315.817 109.998H406.702C409.362 109.998 411.519 107.842 411.519 105.181V90.9003L411.176 89.8623L387.039 67.5494L371.408 75.6018L352.925 57.9047L311 92.4524V105.181C311 107.842 313.157 109.998 315.817 109.998Z" fill="white"/>
<path d="M373.525 55.6597C376.046 55.6597 378.09 53.6157 378.09 51.0943C378.09 48.5729 376.046 46.5289 373.525 46.5289C371.003 46.5289 368.959 48.5729 368.959 51.0943C368.959 53.6157 371.003 55.6597 373.525 55.6597Z" fill="white"/>
<path d="M57.8222 162.475L83.1716 166.447L73.6884 226.913L94.4583 230.175L103.942 169.709L128.865 173.62L131.723 155.14L60.6996 143.995L57.8222 162.475Z" fill="black"/>
<path d="M129.716 240.044L130.851 240.226L131.195 237.977L130.06 237.794L129.716 240.044ZM130.405 235.565L131.54 235.748L131.884 233.499L130.749 233.316L130.405 235.565ZM131.114 231.067L132.249 231.249L132.593 229L131.458 228.818L131.114 231.067ZM131.823 226.589L132.958 226.771L133.302 224.522L132.168 224.34L131.823 226.589ZM132.512 222.111L133.647 222.293L133.991 220.044L132.857 219.861L132.512 222.111ZM133.221 217.632L134.356 217.815L134.701 215.566L133.566 215.383L133.221 217.632ZM133.931 213.134L135.065 213.316L135.41 211.067L134.275 210.885L133.931 213.134ZM134.62 208.656L135.754 208.838L136.099 206.589L134.964 206.406L134.62 208.656ZM135.329 204.178L136.464 204.36L136.808 202.111L135.673 201.928L135.329 204.178ZM136.038 199.699L137.173 199.882L137.517 197.632L136.382 197.45L136.038 199.699ZM136.727 195.201L137.862 195.383L138.206 193.134L137.071 192.952L136.727 195.201ZM137.436 190.723L138.571 190.905L138.915 188.656L137.781 188.473L137.436 190.723ZM138.145 186.245L139.28 186.427L139.625 184.178L138.49 183.995L138.145 186.245ZM138.834 181.746L139.969 181.928L140.314 179.679L139.179 179.497L138.834 181.746ZM139.544 177.268L140.678 177.45L141.023 175.201L139.888 175.019L139.544 177.268ZM140.253 172.79L141.388 172.972L141.732 170.723L140.597 170.54L140.253 172.79ZM140.942 168.291L142.076 168.474L142.421 166.224L141.286 166.042L140.942 168.291ZM141.651 163.813L142.786 163.995L143.13 161.746L141.995 161.564L141.651 163.813ZM142.36 159.335L143.495 159.517L143.839 157.268L142.705 157.086L142.36 159.335ZM143.049 154.857L144.184 155.039L144.528 152.79L143.394 152.607L143.049 154.857Z" fill="black"/>
<path d="M143.758 150.357L144.893 150.54L145.156 148.838L143.454 148.574L143.292 149.709L143.839 149.79L143.758 150.357Z" fill="black"/>
<path d="M53.6072 135.667L55.8565 136.012L56.0388 134.877L53.7896 134.533L53.6072 135.667ZM58.0854 136.356L60.3347 136.701L60.517 135.566L58.2678 135.222L58.0854 136.356ZM62.5636 137.066L64.8129 137.41L64.9952 136.275L62.746 135.931L62.5636 137.066ZM67.0621 137.775L69.291 138.119L69.4734 136.985L67.2242 136.64L67.0621 137.775ZM71.5403 138.464L73.7895 138.808L73.9719 137.674L71.7226 137.329L71.5403 138.464ZM76.0185 139.173L78.2677 139.517L78.4501 138.383L76.2008 138.038L76.0185 139.173ZM80.5169 139.882L82.7662 140.227L82.9485 139.092L80.6993 138.747L80.5169 139.882ZM84.9951 140.571L87.2443 140.916L87.4267 139.781L85.1775 139.436L84.9951 140.571ZM89.4733 141.28L91.7225 141.625L91.9049 140.49L89.6557 140.146L89.4733 141.28ZM93.9515 141.99L96.2007 142.334L96.3831 141.199L94.1339 140.855L93.9515 141.99ZM98.45 142.679L100.699 143.023L100.882 141.888L98.6323 141.544L98.45 142.679ZM102.928 143.388L105.177 143.732L105.36 142.598L103.111 142.253L102.928 143.388ZM107.406 144.097L109.656 144.441L109.838 143.307L107.589 142.962L107.406 144.097ZM111.905 144.786L114.134 145.151L114.316 144.016L112.067 143.671L111.905 144.786ZM116.383 145.495L118.632 145.84L118.815 144.705L116.565 144.36L116.383 145.495ZM120.861 146.204L123.11 146.549L123.293 145.414L121.044 145.07L120.861 146.204ZM125.339 146.893L127.589 147.238L127.771 146.103L125.522 145.759L125.339 146.893ZM129.838 147.603L132.087 147.947L132.249 146.833L130 146.488L129.838 147.603ZM134.316 148.312L136.565 148.656L136.748 147.521L134.498 147.177L134.316 148.312ZM138.794 149.001L141.043 149.345L141.226 148.21L138.977 147.866L138.794 149.001Z" fill="black"/>
<path d="M49.5745 135.606L50.7092 135.789L50.7903 135.221L51.3577 135.302L51.54 134.188L49.8379 133.904L49.5745 135.606Z" fill="black"/>
<path d="M35.5324 225.291L36.6671 225.473L37.0116 223.224L35.8768 223.042L35.5324 225.291ZM36.2416 220.813L37.3763 220.995L37.7208 218.746L36.5861 218.564L36.2416 220.813ZM36.9305 216.314L38.0653 216.497L38.4098 214.247L37.275 214.065L36.9305 216.314ZM37.6398 211.836L38.7745 212.019L39.119 209.769L37.9842 209.587L37.6398 211.836ZM38.349 207.358L39.4837 207.54L39.8282 205.291L38.6935 205.109L38.349 207.358ZM39.0379 202.86L40.1727 203.042L40.5171 200.793L39.3824 200.61L39.0379 202.86ZM39.7471 198.381L40.8819 198.564L41.2264 196.314L40.0916 196.132L39.7471 198.381ZM40.4564 193.903L41.5911 194.086L41.9356 191.836L40.8008 191.654L40.4564 193.903ZM41.1453 189.405L42.2801 189.587L42.6245 187.338L41.4898 187.155L41.1453 189.405ZM41.8545 184.926L42.9893 185.109L43.3337 182.86L42.199 182.677L41.8545 184.926ZM42.5637 180.448L43.6985 180.631L44.043 178.381L42.9082 178.199L42.5637 180.448ZM43.2527 175.97L44.3874 176.152L44.7319 173.903L43.5972 173.721L43.2527 175.97ZM43.9619 171.472L45.0967 171.654L45.4411 169.405L44.3064 169.222L43.9619 171.472ZM44.6711 166.993L45.8059 167.176L46.1503 164.927L45.0156 164.744L44.6711 166.993ZM45.3601 162.515L46.4948 162.698L46.8393 160.448L45.7046 160.266L45.3601 162.515ZM46.0693 158.017L47.204 158.199L47.5485 155.95L46.4138 155.768L46.0693 158.017ZM46.7785 153.539L47.9133 153.721L48.2577 151.472L47.123 151.289L46.7785 153.539ZM47.4675 149.06L48.6022 149.243L48.9467 146.994L47.8119 146.811L47.4675 149.06ZM48.1767 144.582L49.3114 144.765L49.6559 142.515L48.5212 142.333L48.1767 144.582ZM48.8859 140.084L50.0206 140.266L50.3651 138.017L49.2304 137.835L48.8859 140.084Z" fill="black"/>
<path d="M144.488 154.816C141.444 154.816 138.977 152.348 138.977 149.304C138.977 146.26 141.444 143.792 144.488 143.792C147.532 143.792 150 146.26 150 149.304C150 152.348 147.532 154.816 144.488 154.816Z" fill="black"/>
<path d="M50.3252 140.023C47.2812 140.023 44.8136 137.556 44.8136 134.512C44.8136 131.468 47.2812 129 50.3252 129C53.3692 129 55.8368 131.468 55.8368 134.512C55.8368 137.556 53.3692 140.023 50.3252 140.023Z" fill="black"/>
<path d="M35.5738 234.288C32.5298 234.288 30.0622 231.82 30.0622 228.776C30.0622 225.732 32.5298 223.265 35.5738 223.265C38.6178 223.265 41.0854 225.732 41.0854 228.776C41.0854 231.82 38.6178 234.288 35.5738 234.288Z" fill="black"/>
<path d="M164.553 71.5929L152.375 64.5633C151.788 64.2249 151.161 64.0243 150.527 63.9297C150.985 64.9929 151.242 66.1615 151.242 67.3906V105.196L166.484 78.7975C167.936 76.2793 167.071 73.0469 164.553 71.5929Z" fill="#C9C9C9"/>
<path d="M147.727 83.2109H123V97.2734H147.727V83.2109Z" fill="#C9C9C9"/>
<path d="M142.453 62H128.273C125.366 62 123 64.3655 123 67.2734V79.6953H147.727V67.2734C147.727 64.3655 145.361 62 142.453 62Z" fill="#A5A5A5"/>
<path d="M135.422 107.82C134.452 107.82 133.664 108.608 133.664 109.578C133.664 110.548 134.452 111.336 135.422 111.336C136.392 111.336 137.18 110.548 137.18 109.578C137.18 108.608 136.392 107.82 135.422 107.82Z" fill="#C9C9C9"/>
<path d="M123 100.789V116.727C123 119.634 125.366 122 128.273 122H142.453C145.361 122 147.727 119.634 147.727 116.727V100.789H123ZM135.422 114.852C132.514 114.852 130.148 112.486 130.148 109.578C130.148 106.67 132.514 104.305 135.422 104.305C138.33 104.305 140.695 106.67 140.695 109.578C140.695 112.486 138.33 114.852 135.422 114.852Z" fill="#C9C9C9"/>
<path d="M180.037 91.9313L173.012 79.7639C172.429 78.7548 171.555 78.026 170.561 77.5905C170.394 78.6065 170.073 79.6122 169.529 80.5553L151.242 112.229V114.653L178.104 99.1445C180.626 97.6871 181.492 94.4513 180.037 91.9313Z" fill="#D9D9D9"/>
<path d="M182.381 100.122C181.716 100.936 180.918 101.646 179.98 102.188L150.897 119.029C150.598 120.12 150.104 121.121 149.44 122H177.727C180.634 122 183 119.634 183 116.727V102.547C183 101.668 182.763 100.851 182.381 100.122Z" fill="#E9E9E9"/>
</g>
<defs>
<filter id="filter0_i_9680_585" x="0" y="0" width="442" height="224" filterUnits="userSpaceOnUse" color-interpolation-filters="sRGB">
<feFlood flood-opacity="0" result="BackgroundImageFix"/>
<feBlend mode="normal" in="SourceGraphic" in2="BackgroundImageFix" result="shape"/>
<feColorMatrix in="SourceAlpha" type="matrix" values="0 0 0 0 0 0 0 0 0 0 0 0 0 0 0 0 0 0 127 0" result="hardAlpha"/>
<feOffset/>
<feGaussianBlur stdDeviation="2"/>
<feComposite in2="hardAlpha" operator="arithmetic" k2="-1" k3="1"/>
<feColorMatrix type="matrix" values="0 0 0 0 0 0 0 0 0 0 0 0 0 0 0 0 0 0 0.08 0"/>
<feBlend mode="normal" in2="shape" result="effect1_innerShadow_9680_585"/>
</filter>
<filter id="filter1_d_9680_585" x="85" y="24" width="272" height="306" filterUnits="userSpaceOnUse" color-interpolation-filters="sRGB">
<feFlood flood-opacity="0" result="BackgroundImageFix"/>
<feColorMatrix in="SourceAlpha" type="matrix" values="0 0 0 0 0 0 0 0 0 0 0 0 0 0 0 0 0 0 127 0" result="hardAlpha"/>
<feOffset/>
<feGaussianBlur stdDeviation="8"/>
<feComposite in2="hardAlpha" operator="out"/>
<feColorMatrix type="matrix" values="0 0 0 0 0 0 0 0 0 0 0 0 0 0 0 0 0 0 0.08 0"/>
<feBlend mode="normal" in2="BackgroundImageFix" result="effect1_dropShadow_9680_585"/>
<feBlend mode="normal" in="SourceGraphic" in2="effect1_dropShadow_9680_585" result="shape"/>
</filter>
<radialGradient id="paint0_radial_9680_585" cx="0" cy="0" r="1" gradientUnits="userSpaceOnUse" gradientTransform="translate(221 112) rotate(90) scale(112 221)">
<stop stop-color="#F59E0B" stop-opacity="0"/>
<stop offset="1" stop-color="#F59E0B" stop-opacity="0.2"/>
</radialGradient>
<linearGradient id="paint1_linear_9680_585" x1="412" y1="30" x2="311" y2="110" gradientUnits="userSpaceOnUse">
<stop stop-color="#D4D4D4"/>
<stop offset="1" stop-color="#C5C5C5"/>
</linearGradient>
<clipPath id="clip0_9680_585">
<rect width="442" height="224" fill="white"/>
</clipPath>
</defs>
</svg>
